<svg width="255" height="231" viewBox="0 0 255 231" version="1.1" xmlns="http://www.w3.org/2000/svg" xmlns:xlink="http://www.w3.org/1999/xlink">
<title>Frame</title>
<desc>Created using Figma</desc>
<g id="Canvas" transform="translate(16636 2523)">
<clipPath id="clip-0" clip-rule="evenodd">
<path d="M -16636 -2523L -16381 -2523L -16381 -2292L -16636 -2292L -16636 -2523Z" fill="#FFFFFF"/>
</clipPath>
<g id="Frame" clip-path="url(#clip-0)">
<g id="Vector 5">
<use xlink:href="#path0_stroke" transform="translate(-16618 -2505)" fill="#FF9430"/>
</g>
</g>
</g>
<defs>
<path id="path0_stroke" d="M 24.5465 18.7374C 25.024 19.015 25.6361 18.8529 25.9137 18.3755C 26.1913 17.898 26.0292 17.2859 25.5518 17.0084L 24.5465 18.7374ZM 20.1177 25.5007L 19.2955 26.0699L 20.1177 25.5007ZM 23.8163 27.5411L 24.1753 26.6077L 23.8163 27.5411ZM 27.6447 26.6687L 27.0592 25.858L 27.6447 26.6687ZM 29.7211 24.8518L 30.3591 25.6219L 29.7211 24.8518ZM 31.2783 22.8692L 32.2341 23.1633L 31.2783 22.8692ZM 32.3165 18.8101L 33.3159 18.8458L 32.3165 18.8101ZM 31.9921 14.3762L 32.9622 14.1336L 31.9921 14.3762ZM 28.207 10.2162L 27.6523 11.0482L 28.207 10.2162ZM 24.2705 8.39931L 24.4874 7.42312L 24.2705 8.39931ZM 17.4934 8.65886L 17.1467 7.72086L 17.4934 8.65886ZM 13.8381 10.2162L 13.3807 9.32687L 13.8381 10.2162ZM 8.17846 17.8296L 7.17885 17.8018L 8.17846 17.8296ZM 8.89222 28.7667L 7.92552 29.0226L 8.89222 28.7667ZM 10.9326 33.0565L 11.7942 32.549L 10.9326 33.0565ZM 11.841 34.5129L 12.0626 33.5377L 11.841 34.5129ZM 13.1387 34.9022L 12.63 35.7631L 12.63 35.7631L 13.1387 34.9022ZM 15.1863 35.9115L 15.6121 35.0067L 15.1863 35.9115ZM 22.1364 35.5943L 22.6733 36.438L 22.1364 35.5943ZM 23.7082 35.515L 23.6617 34.5161L 23.7082 35.515ZM 27.9186 34.8733L 28.1342 35.8498L 27.9186 34.8733ZM 31.5091 34.0659L 31.9787 34.9487L 31.5091 34.0659ZM 33.9964 32.5446L 33.3717 31.7637L 33.9964 32.5446ZM 38.5746 26.5101L 39.5432 26.7585L 38.5746 26.5101ZM 38.7043 24.7798L 39.6952 24.9149L 38.7043 24.7798ZM 39.0937 22.6457L 38.1034 22.5064L 39.0937 22.6457ZM 39.1369 14.232L 39.4116 13.2704L 39.1369 14.232ZM 38.4448 8.42815L 37.472 8.65977L 38.4448 8.42815ZM 37.4643 7.18808L 36.6674 7.79218L 37.4643 7.18808ZM 35.9863 5.58752L 36.7182 4.90611L 35.9863 5.58752ZM 34.3353 3.79231L 35.1246 3.17837L 34.3353 3.79231ZM 30.9251 2.2278L 31.2075 1.26852L 30.9251 2.2278ZM 21.6462 0.0865205L 21.8305 -0.896352L 21.6462 0.0865205ZM 16.3326 0.901217L 16.6055 1.86328L 16.3326 0.901217ZM 9.95205 2.49456L 9.52714 1.58932L 9.95205 2.49456ZM 7.4647 3.53997L 7.88759 4.44615L 7.4647 3.53997ZM 3.98962 6.17151L 4.79563 6.76342L 3.98962 6.17151ZM 2.03579 8.52908L 2.88226 9.06153L 2.03579 8.52908ZM 0.420822 12.9703L -0.535688 12.6786L 0.420822 12.9703ZM 0.00265911 15.9839L 1.00265 15.9889L 0.00265911 15.9839ZM 0.528967 29.6175L 1.52446 29.5227L 0.528967 29.6175ZM 1.42297 32.6672L 0.472241 32.9772L 1.42297 32.6672ZM 2.66304 36.409L 3.56632 35.9799L 2.66304 36.409ZM 8.71198 41.9244L 9.29572 41.1125L 8.71198 41.9244ZM 11.4228 43.2078L 11.2594 44.1943L 11.4228 43.2078ZM 18.5316 44.1594L 18.3828 45.1483L 18.5316 44.1594ZM 21.3145 44.5776L 21.465 43.589L 21.3145 44.5776ZM 25.8134 43.9504L 25.6529 42.9633L 25.8134 43.9504ZM 31.7037 42.7968L 31.5771 41.8048L 31.7037 42.7968ZM 33.4413 42.321L 33.9492 43.1823L 33.4413 42.321ZM 42.0352 35.4357L 42.8574 36.0049L 42.0352 35.4357ZM 44.3567 28.7018L 43.3956 28.4257L 44.3567 28.7018ZM 44.6451 27.3897L 45.6449 27.4101L 44.6451 27.3897ZM 45.6257 20.3458L 44.6349 20.21L 45.6257 20.3458ZM 46.3683 7.18087L 47.366 7.11331L 46.3683 7.18087ZM 45.3661 5.09726L 45.2247 6.08721L 45.3661 5.09726ZM 44.537 4.92423L 43.6085 5.29562L 44.537 4.92423ZM 43.7367 3.27321L 44.5176 2.64851L 43.7367 3.27321ZM 44.0751 2.17473C 43.791 1.70115 43.1767 1.54758 42.7031 1.83173C 42.2295 2.11588 42.076 2.73014 42.3601 3.20372L 44.0751 2.17473ZM 25.5518 17.0084C 24.7661 16.5515 23.6973 16.0421 22.5908 15.8497C 21.4761 15.6558 20.163 15.7645 19.1511 16.7764L 20.5653 18.1906C 20.9419 17.814 21.4843 17.6872 22.2481 17.8201C 23.02 17.9543 23.8524 18.3338 24.5465 18.7374L 25.5518 17.0084ZM 19.1511 16.7764C 18.3311 17.5964 18.0077 18.5588 17.8838 19.4804C 17.7671 20.3479 17.82 21.304 17.82 22.0256L 19.82 22.0256C 19.82 21.1335 19.773 20.4376 19.8659 19.747C 19.9515 19.1105 20.1472 18.6087 20.5653 18.1906L 19.1511 16.7764ZM 17.82 22.0256C 17.82 23.6368 18.5346 24.9708 19.2955 26.0699L 20.9399 24.9315C 20.2592 23.9482 19.82 23.0271 19.82 22.0256L 17.82 22.0256ZM 19.2955 26.0699C 19.8384 26.854 20.6635 27.3429 21.3963 27.6801C 22.1088 28.008 22.9517 28.2799 23.4573 28.4744L 24.1753 26.6077C 23.495 26.3461 22.8779 26.1603 22.2323 25.8632C 21.6071 25.5755 21.1758 25.2723 20.9399 24.9315L 19.2955 26.0699ZM 23.4573 28.4744C 24.303 28.7997 25.295 28.6749 26.0737 28.4648C 26.8822 28.2467 27.6801 27.8766 28.2301 27.4794L 27.0592 25.858C 26.7355 26.0918 26.1665 26.3683 25.5528 26.5339C 24.9094 26.7074 24.4241 26.7034 24.1753 26.6077L 23.4573 28.4744ZM 28.2301 27.4794C 28.6673 27.1637 29.046 26.8214 29.3856 26.5052C 29.737 26.1779 30.0323 25.8926 30.3591 25.6219L 29.083 24.0818C 28.698 24.4009 28.3392 24.7466 28.0225 25.0416C 27.694 25.3476 27.3904 25.6188 27.0592 25.858L 28.2301 27.4794ZM 30.3591 25.6219C 30.6639 25.3693 31.049 24.9832 31.3858 24.576C 31.7005 24.1957 32.0766 23.6753 32.2341 23.1633L 30.3226 22.5751C 30.2886 22.6854 30.136 22.9492 29.8449 23.3011C 29.576 23.6261 29.2781 23.9202 29.083 24.0818L 30.3591 25.6219ZM 32.2341 23.1633C 32.2861 22.9943 32.3835 22.8349 32.5764 22.4896C 32.7371 22.2021 32.9762 21.761 33.0421 21.234L 31.0575 20.986C 31.0447 21.0888 30.9899 21.2287 30.8305 21.514C 30.7033 21.7416 30.4543 22.1469 30.3226 22.5751L 32.2341 23.1633ZM 33.0421 21.234C 33.128 20.5467 33.286 19.6832 33.3159 18.8458L 31.3172 18.7744C 31.2914 19.4961 31.1644 20.1307 31.0575 20.986L 33.0421 21.234ZM 33.3159 18.8458C 33.3727 17.2548 33.3943 15.8617 32.9622 14.1336L 31.022 14.6187C 31.3815 16.0566 31.373 17.2106 31.3172 18.7744L 33.3159 18.8458ZM 32.9622 14.1336C 32.8466 13.6709 32.6488 12.9979 32.3007 12.4221C 31.9578 11.8549 31.3256 11.1628 30.305 11.1628L 30.305 13.1628C 30.32 13.1628 30.3337 13.1627 30.3707 13.1899C 30.4206 13.2267 30.498 13.306 30.5891 13.4567C 30.777 13.7675 30.9176 14.2013 31.022 14.6187L 32.9622 14.1336ZM 30.305 11.1628C 30.4571 11.1628 30.5782 11.2042 30.6578 11.2436C 30.7337 11.2811 30.7801 11.3206 30.7976 11.3365C 30.8262 11.3623 30.8223 11.3664 30.7795 11.3048C 30.7615 11.279 30.7417 11.2492 30.7168 11.2111C 30.6948 11.1773 30.6634 11.1287 30.6347 11.0857C 30.605 11.041 30.5681 10.987 30.5271 10.9325C 30.4873 10.8796 30.4321 10.8107 30.3633 10.7419L 28.9491 12.1561C 28.9184 12.1255 28.9191 12.1177 28.9701 12.1943C 28.9959 12.2331 29.0797 12.3638 29.1385 12.4482C 29.2036 12.5416 29.3113 12.6887 29.4552 12.819C 29.5883 12.9395 29.8803 13.1628 30.305 13.1628L 30.305 11.1628ZM 30.3633 10.7419C 29.9121 10.2908 29.3513 9.77716 28.7617 9.3841L 27.6523 11.0482C 28.0807 11.3338 28.5335 11.7405 28.9491 12.1561L 30.3633 10.7419ZM 28.7617 9.3841C 27.5927 8.60475 25.9753 7.75376 24.4874 7.42312L 24.0536 9.37549C 25.2017 9.63063 26.5833 10.3355 27.6523 11.0482L 28.7617 9.3841ZM 24.4874 7.42312C 22.8421 7.0575 21.1716 7.13976 19.6996 7.13976L 19.6996 9.13976C 21.3142 9.13976 22.6831 9.07094 24.0536 9.37549L 24.4874 7.42312ZM 19.6996 7.13976C 18.8004 7.13976 17.7857 7.48473 17.1467 7.72086L 17.84 9.59685C 18.4977 9.35382 19.2019 9.13976 19.6996 9.13976L 19.6996 7.13976ZM 17.1467 7.72086C 15.9141 8.17641 14.5881 8.70594 13.3807 9.32687L 14.2954 11.1054C 15.3956 10.5396 16.6332 10.0429 17.84 9.59685L 17.1467 7.72086ZM 13.3807 9.32687C 11.9154 10.0805 10.4121 11.2643 9.25412 12.7035C 8.09951 14.1385 7.23166 15.9004 7.17885 17.8018L 9.17808 17.8574C 9.21498 16.5288 9.83204 15.1757 10.8124 13.9573C 11.7893 12.7431 13.0709 11.7352 14.2954 11.1054L 13.3807 9.32687ZM 7.17885 17.8018C 7.14683 18.9545 7.04869 20.3034 7.04869 21.5354L 9.04869 21.5354C 9.04869 20.3103 9.14157 19.1716 9.17808 17.8574L 7.17885 17.8018ZM 7.04869 21.5354C 7.04869 22.0834 7.00181 22.5599 6.98216 23.2596C 6.96468 23.8823 6.97657 24.5927 7.14343 25.2602L 9.08372 24.7751C 8.98561 24.3827 8.96505 23.8969 8.98137 23.3158C 8.99552 22.8118 9.04869 22.077 9.04869 21.5354L 7.04869 21.5354ZM 7.14343 25.2602C 7.28892 25.8422 7.39653 26.4386 7.51346 27.0763C 7.62819 27.702 7.7517 28.366 7.92552 29.0226L 9.85893 28.5108C 9.70766 27.9394 9.5966 27.3478 9.48066 26.7156C 9.36691 26.0952 9.24774 25.4312 9.08372 24.7751L 7.14343 25.2602ZM 7.92552 29.0226C 8.37608 30.7247 9.27948 32.2204 10.0709 33.564L 11.7942 32.549C 10.9701 31.1499 10.226 29.8974 9.85893 28.5108L 7.92552 29.0226ZM 10.0709 33.564C 10.0857 33.5891 10.1145 33.6513 10.1705 33.8012C 10.2155 33.9216 10.2863 34.1219 10.3637 34.3003C 10.4906 34.5931 10.8225 35.3069 11.6194 35.488L 12.0626 33.5377C 12.1968 33.5682 12.2665 33.6434 12.2753 33.654C 12.2781 33.6573 12.2707 33.6489 12.2552 33.6215C 12.2398 33.5943 12.2211 33.5566 12.1986 33.5046C 12.1484 33.3889 12.1091 33.2753 12.0439 33.1009C 11.9897 32.9559 11.9081 32.7422 11.7942 32.549L 10.0709 33.564ZM 11.6194 35.488C 12.2391 35.6288 12.3884 35.6203 12.63 35.7631L 13.6475 34.0412C 13.0498 33.6881 12.3766 33.6091 12.0626 33.5377L 11.6194 35.488ZM 12.63 35.7631C 13.3466 36.1866 14.1172 36.5136 14.7605 36.8164L 15.6121 35.0067C 14.8722 34.6585 14.2566 34.4012 13.6475 34.0412L 12.63 35.7631ZM 14.7605 36.8164C 15.7487 37.2814 16.8992 37.4013 17.9453 37.3991C 19.003 37.3968 20.0596 37.2672 20.8906 37.1634L 20.6426 35.1788C 19.8015 35.2839 18.8596 35.3971 17.941 35.3991C 17.0109 35.4011 16.2072 35.2868 15.6121 35.0067L 14.7605 36.8164ZM 20.8906 37.1634C 21.6805 37.0646 22.2125 36.7312 22.6733 36.438L 21.5996 34.7506C 21.1571 35.0322 20.9526 35.1401 20.6426 35.1788L 20.8906 37.1634ZM 22.6733 36.438C 22.5923 36.4896 22.5479 36.4848 22.6063 36.4773C 22.6574 36.4707 22.739 36.4679 22.8627 36.4729C 22.9889 36.4781 23.1093 36.4886 23.2651 36.4999C 23.3994 36.5097 23.5825 36.5219 23.7546 36.5139L 23.6617 34.5161C 23.624 34.5178 23.552 34.5155 23.4099 34.5052C 23.2895 34.4964 23.1125 34.4815 22.9444 34.4746C 22.7738 34.4676 22.5644 34.4662 22.3516 34.4936C 22.1463 34.5199 21.8655 34.5814 21.5996 34.7506L 22.6733 36.438ZM 23.7546 36.5139C 25.2736 36.4433 26.7347 36.1588 28.1342 35.8498L 27.703 33.8969C 26.3256 34.201 25.0022 34.4537 23.6617 34.5161L 23.7546 36.5139ZM 28.1342 35.8498C 28.6628 35.7331 29.1903 35.685 29.9137 35.5661C 30.5634 35.4593 31.3202 35.299 31.9787 34.9487L 31.0394 33.183C 30.6862 33.3709 30.2039 33.4915 29.5893 33.5926C 29.0485 33.6815 28.2867 33.768 27.703 33.8969L 28.1342 35.8498ZM 31.9787 34.9487C 32.8175 34.5025 33.7636 34.0115 34.6211 33.3255L 33.3717 31.7637C 32.6873 32.3113 31.9179 32.7157 31.0394 33.183L 31.9787 34.9487ZM 34.6211 33.3255C 36.6029 31.7401 38.806 29.6338 39.5432 26.7585L 37.6059 26.2617C 37.0425 28.4591 35.3084 30.2144 33.3717 31.7637L 34.6211 33.3255ZM 39.5432 26.7585C 39.6482 26.3489 39.6606 25.9601 39.6649 25.6617C 39.6696 25.3321 39.6662 25.1276 39.6952 24.9149L 37.7135 24.6446C 37.6634 25.0121 37.6686 25.3859 37.6651 25.6329C 37.6611 25.911 37.6481 26.0973 37.6059 26.2617L 39.5432 26.7585ZM 39.6952 24.9149C 39.7388 24.5953 39.804 24.2727 39.8775 23.9137C 39.9488 23.5653 40.0284 23.1795 40.0839 22.7849L 38.1034 22.5064C 38.0581 22.8285 37.9919 23.1522 37.9181 23.5128C 37.8465 23.8628 37.7675 24.249 37.7135 24.6446L 39.6952 24.9149ZM 40.0839 22.7849C 40.3031 21.2264 40.3244 19.5903 40.3244 18.0964L 38.3244 18.0964C 38.3244 19.589 38.3011 21.1003 38.1034 22.5064L 40.0839 22.7849ZM 40.3244 18.0964C 40.3244 18.0941 40.3244 18.0918 40.3244 18.0895C 40.3244 18.0872 40.3244 18.0849 40.3244 18.0826C 40.3244 18.0803 40.3244 18.078 40.3244 18.0757C 40.3244 18.0734 40.3244 18.0711 40.3244 18.0688C 40.3244 18.0665 40.3244 18.0642 40.3244 18.0619C 40.3244 18.0596 40.3244 18.0573 40.3244 18.055C 40.3244 18.0527 40.3244 18.0504 40.3244 18.0481C 40.3244 18.0458 40.3244 18.0435 40.3244 18.0412C 40.3244 18.0389 40.3244 18.0366 40.3244 18.0343C 40.3244 18.032 40.3244 18.0297 40.3244 18.0274C 40.3244 18.0251 40.3244 18.0228 40.3244 18.0205C 40.3244 18.0182 40.3244 18.0159 40.3244 18.0136C 40.3244 18.0113 40.3244 18.009 40.3244 18.0067C 40.3244 18.0044 40.3244 18.0021 40.3244 17.9998C 40.3244 17.9975 40.3244 17.9952 40.3244 17.9929C 40.3244 17.9906 40.3244 17.9883 40.3244 17.986C 40.3244 17.9837 40.3244 17.9814 40.3244 17.9791C 40.3244 17.9768 40.3244 17.9745 40.3244 17.9722C 40.3244 17.9699 40.3244 17.9676 40.3244 17.9653C 40.3244 17.963 40.3244 17.9607 40.3244 17.9584C 40.3244 17.9561 40.3244 17.9538 40.3244 17.9515C 40.3244 17.9492 40.3244 17.9469 40.3244 17.9446C 40.3244 17.9423 40.3244 17.94 40.3244 17.9377C 40.3244 17.9354 40.3244 17.9331 40.3244 17.9308C 40.3244 17.9285 40.3244 17.9262 40.3244 17.9239C 40.3244 17.9216 40.3244 17.9193 40.3244 17.917C 40.3244 17.9147 40.3244 17.9124 40.3244 17.9101C 40.3244 17.9078 40.3244 17.9055 40.3244 17.9032C 40.3244 17.9009 40.3244 17.8986 40.3244 17.8963C 40.3244 17.894 40.3244 17.8917 40.3244 17.8894C 40.3244 17.8871 40.3244 17.8848 40.3244 17.8825C 40.3244 17.8802 40.3244 17.8779 40.3244 17.8756C 40.3244 17.8733 40.3244 17.871 40.3244 17.8687C 40.3244 17.8664 40.3244 17.8641 40.3244 17.8618C 40.3244 17.8595 40.3244 17.8572 40.3244 17.8549C 40.3244 17.8526 40.3244 17.8503 40.3244 17.848C 40.3244 17.8457 40.3244 17.8434 40.3244 17.8411C 40.3244 17.8388 40.3244 17.8365 40.3244 17.8342C 40.3244 17.8319 40.3244 17.8296 40.3244 17.8273C 40.3244 17.825 40.3244 17.8227 40.3244 17.8204C 40.3244 17.8181 40.3244 17.8158 40.3244 17.8135C 40.3244 17.8112 40.3244 17.8089 40.3244 17.8066C 40.3244 17.8043 40.3244 17.802 40.3244 17.7997C 40.3244 17.7974 40.3244 17.7951 40.3244 17.7928C 40.3244 17.7905 40.3244 17.7882 40.3244 17.7859C 40.3244 17.7836 40.3244 17.7813 40.3244 17.779C 40.3244 17.7767 40.3244 17.7744 40.3244 17.7721C 40.3244 17.7698 40.3244 17.7675 40.3244 17.7652C 40.3244 17.7629 40.3244 17.7606 40.3244 17.7583C 40.3244 17.756 40.3244 17.7537 40.3244 17.7514C 40.3244 17.7491 40.3244 17.7468 40.3244 17.7445C 40.3244 17.7422 40.3244 17.7399 40.3244 17.7376C 40.3244 17.7353 40.3244 17.733 40.3244 17.7307C 40.3244 17.7284 40.3244 17.7261 40.3244 17.7238C 40.3244 17.7215 40.3244 17.7192 40.3244 17.7169C 40.3244 17.7146 40.3244 17.7123 40.3244 17.71C 40.3244 17.7077 40.3244 17.7054 40.3244 17.7031C 40.3244 17.7008 40.3244 17.6985 40.3244 17.6962C 40.3244 17.6939 40.3244 17.6916 40.3244 17.6893C 40.3244 17.687 40.3244 17.6847 40.3244 17.6824C 40.3244 17.6801 40.3244 17.6778 40.3244 17.6755C 40.3244 17.6732 40.3244 17.6709 40.3244 17.6686C 40.3244 17.6663 40.3244 17.664 40.3244 17.6617C 40.3244 17.6594 40.3244 17.6571 40.3244 17.6548C 40.3244 17.6525 40.3244 17.6502 40.3244 17.6479C 40.3244 17.6456 40.3244 17.6433 40.3244 17.641C 40.3244 17.6387 40.3244 17.6364 40.3244 17.6341C 40.3244 17.6318 40.3244 17.6295 40.3244 17.6272C 40.3244 17.6249 40.3244 17.6226 40.3244 17.6203C 40.3244 17.618 40.3244 17.6157 40.3244 17.6134C 40.3244 17.6111 40.3244 17.6088 40.3244 17.6065C 40.3244 17.6042 40.3244 17.6019 40.3244 17.5996C 40.3244 17.5973 40.3244 17.595 40.3244 17.5927C 40.3244 17.5904 40.3244 17.5881 40.3244 17.5858C 40.3244 17.5835 40.3244 17.5812 40.3244 17.5789C 40.3244 17.5766 40.3244 17.5743 40.3244 17.572C 40.3244 17.5697 40.3244 17.5674 40.3244 17.5651C 40.3244 17.5628 40.3244 17.5605 40.3244 17.5582C 40.3244 17.5559 40.3244 17.5536 40.3244 17.5513C 40.3244 17.549 40.3244 17.5467 40.3244 17.5444C 40.3244 17.5421 40.3244 17.5398 40.3244 17.5375C 40.3244 17.5352 40.3244 17.5329 40.3244 17.5306C 40.3244 17.5283 40.3244 17.526 40.3244 17.5237C 40.3244 17.5214 40.3244 17.5191 40.3244 17.5168C 40.3244 17.5145 40.3244 17.5122 40.3244 17.5099C 40.3244 17.5076 40.3244 17.5053 40.3244 17.503C 40.3244 17.5007 40.3244 17.4984 40.3244 17.4961C 40.3244 17.4938 40.3244 17.4915 40.3244 17.4892C 40.3244 17.4869 40.3244 17.4846 40.3244 17.4823C 40.3244 17.48 40.3244 17.4777 40.3244 17.4754C 40.3244 17.4731 40.3244 17.4708 40.3244 17.4685C 40.3244 17.4662 40.3244 17.4639 40.3244 17.4616C 40.3244 17.4593 40.3244 17.457 40.3244 17.4547C 40.3244 17.4524 40.3244 17.4501 40.3244 17.4478C 40.3244 17.4455 40.3244 17.4432 40.3244 17.4409C 40.3244 17.4386 40.3244 17.4363 40.3244 17.434C 40.3244 17.4317 40.3244 17.4294 40.3244 17.4271C 40.3244 17.4248 40.3244 17.4225 40.3244 17.4202C 40.3244 17.4179 40.3244 17.4156 40.3244 17.4133C 40.3244 17.411 40.3244 17.4087 40.3244 17.4064C 40.3244 17.4041 40.3244 17.4018 40.3244 17.3995C 40.3244 17.3972 40.3244 17.3949 40.3244 17.3926C 40.3244 17.3903 40.3244 17.388 40.3244 17.3857C 40.3244 17.3834 40.3244 17.3811 40.3244 17.3788C 40.3244 17.3765 40.3244 17.3742 40.3244 17.3719C 40.3244 17.3696 40.3244 17.3673 40.3244 17.365C 40.3244 17.3627 40.3244 17.3604 40.3244 17.3581C 40.3244 17.3558 40.3244 17.3535 40.3244 17.3512C 40.3244 17.3489 40.3244 17.3466 40.3244 17.3443C 40.3244 17.342 40.3244 17.3397 40.3244 17.3374C 40.3244 17.3351 40.3244 17.3328 40.3244 17.3305C 40.3244 17.3282 40.3244 17.3259 40.3244 17.3236C 40.3244 17.3213 40.3244 17.319 40.3244 17.3167C 40.3244 17.3144 40.3244 17.3121 40.3244 17.3098C 40.3244 17.3075 40.3244 17.3052 40.3244 17.3029C 40.3244 17.3006 40.3244 17.2983 40.3244 17.296C 40.3244 17.2937 40.3244 17.2914 40.3244 17.2891C 40.3244 17.2868 40.3244 17.2845 40.3244 17.2822C 40.3244 17.2799 40.3244 17.2776 40.3244 17.2753C 40.3244 17.273 40.3244 17.2707 40.3244 17.2684C 40.3244 17.2661 40.3244 17.2638 40.3244 17.2615C 40.3244 17.2592 40.3244 17.2569 40.3244 17.2546C 40.3244 17.2523 40.3244 17.25 40.3244 17.2477C 40.3244 17.2454 40.3244 17.2431 40.3244 17.2408C 40.3244 17.2385 40.3244 17.2362 40.3244 17.2339C 40.3244 17.2316 40.3244 17.2293 40.3244 17.227C 40.3244 17.2247 40.3244 17.2224 40.3244 17.2201C 40.3244 17.2178 40.3244 17.2155 40.3244 17.2132C 40.3244 17.2109 40.3244 17.2086 40.3244 17.2063C 40.3244 17.204 40.3244 17.2017 40.3244 17.1994C 40.3244 17.1971 40.3244 17.1948 40.3244 17.1925C 40.3244 17.1902 40.3244 17.1879 40.3244 17.1856C 40.3244 17.1833 40.3244 17.181 40.3244 17.1787C 40.3244 17.1764 40.3244 17.1741 40.3244 17.1718C 40.3244 17.1695 40.3244 17.1672 40.3244 17.1649C 40.3244 17.1626 40.3244 17.1603 40.3244 17.158C 40.3244 17.1557 40.3244 17.1534 40.3244 17.1511C 40.3244 17.1488 40.3244 17.1465 40.3244 17.1442C 40.3244 17.1419 40.3244 17.1396 40.3244 17.1373C 40.3244 17.135 40.3244 17.1327 40.3244 17.1304C 40.3244 17.1281 40.3244 17.1258 40.3244 17.1235C 40.3244 17.1212 40.3244 17.1189 40.3244 17.1166C 40.3244 17.1143 40.3244 17.112 40.3244 17.1097C 40.3244 17.1074 40.3244 17.1051 40.3244 17.1028C 40.3244 17.1005 40.3244 17.0982 40.3244 17.0959C 40.3244 17.0936 40.3244 17.0913 40.3244 17.089C 40.3244 17.0867 40.3244 17.0844 40.3244 17.0821C 40.3244 17.0798 40.3244 17.0775 40.3244 17.0752C 40.3244 17.0729 40.3244 17.0706 40.3244 17.0683C 40.3244 17.066 40.3244 17.0637 40.3244 17.0614C 40.3244 17.0591 40.3244 17.0568 40.3244 17.0545C 40.3244 17.0522 40.3244 17.0499 40.3244 17.0476C 40.3244 17.0453 40.3244 17.043 40.3244 17.0407C 40.3244 17.0384 40.3244 17.0361 40.3244 17.0338C 40.3244 17.0315 40.3244 17.0292 40.3244 17.0269C 40.3244 17.0246 40.3244 17.0223 40.3244 17.02C 40.3244 17.0177 40.3244 17.0154 40.3244 17.0131C 40.3244 17.0108 40.3244 17.0085 40.3244 17.0062C 40.3244 17.0039 40.3244 17.0016 40.3244 16.9993C 40.3244 16.997 40.3244 16.9947 40.3244 16.9924C 40.3244 16.9901 40.3244 16.9878 40.3244 16.9855C 40.3244 16.9832 40.3244 16.9809 40.3244 16.9786C 40.3244 16.9763 40.3244 16.974 40.3244 16.9717C 40.3244 16.9694 40.3244 16.9671 40.3244 16.9648C 40.3244 16.9625 40.3244 16.9602 40.3244 16.9579C 40.3244 16.9556 40.3244 16.9533 40.3244 16.951C 40.3244 16.9487 40.3244 16.9464 40.3244 16.9441C 40.3244 16.9418 40.3244 16.9395 40.3244 16.9372C 40.3244 16.9349 40.3244 16.9326 40.3244 16.9303C 40.3244 16.928 40.3244 16.9257 40.3244 16.9234C 40.3244 16.9211 40.3244 16.9188 40.3244 16.9165C 40.3244 16.9142 40.3244 16.9119 40.3244 16.9096C 40.3244 16.9073 40.3244 16.905 40.3244 16.9027C 40.3244 16.9004 40.3244 16.8981 40.3244 16.8958C 40.3244 16.8935 40.3244 16.8912 40.3244 16.8889C 40.3244 16.8866 40.3244 16.8843 40.3244 16.882C 40.3244 16.8797 40.3244 16.8774 40.3244 16.8751C 40.3244 16.8728 40.3244 16.8705 40.3244 16.8682C 40.3244 16.8659 40.3244 16.8636 40.3244 16.8613C 40.3244 16.859 40.3244 16.8567 40.3244 16.8544C 40.3244 16.8521 40.3244 16.8498 40.3244 16.8475C 40.3244 16.8452 40.3244 16.8429 40.3244 16.8406C 40.3244 16.8383 40.3244 16.836 40.3244 16.8337C 40.3244 16.8314 40.3244 16.8291 40.3244 16.8268C 40.3244 16.8245 40.3244 16.8222 40.3244 16.8199C 40.3244 16.8176 40.3244 16.8153 40.3244 16.813C 40.3244 16.8107 40.3244 16.8084 40.3244 16.8061C 40.3244 16.8038 40.3244 16.8015 40.3244 16.7992C 40.3244 16.7969 40.3244 16.7946 40.3244 16.7923C 40.3244 16.79 40.3244 16.7877 40.3244 16.7854C 40.3244 16.7831 40.3244 16.7808 40.3244 16.7785C 40.3244 16.7762 40.3244 16.7739 40.3244 16.7716C 40.3244 16.7693 40.3244 16.767 40.3244 16.7647C 40.3244 16.7624 40.3244 16.7601 40.3244 16.7578C 40.3244 16.7555 40.3244 16.7532 40.3244 16.7509C 40.3244 16.7486 40.3244 16.7463 40.3244 16.744C 40.3244 16.7417 40.3244 16.7394 40.3244 16.7371C 40.3244 16.7348 40.3244 16.7325 40.3244 16.7302C 40.3244 16.7279 40.3244 16.7256 40.3244 16.7233C 40.3244 16.721 40.3244 16.7187 40.3244 16.7164C 40.3244 16.7141 40.3244 16.7118 40.3244 16.7095C 40.3244 16.7072 40.3244 16.7049 40.3244 16.7026C 40.3244 16.7003 40.3244 16.698 40.3244 16.6957C 40.3244 16.6934 40.3244 16.6911 40.3244 16.6888C 40.3244 16.6865 40.3244 16.6842 40.3244 16.6819C 40.3244 16.6796 40.3244 16.6773 40.3244 16.675C 40.3244 16.6727 40.3244 16.6704 40.3244 16.6681C 40.3244 16.6658 40.3244 16.6635 40.3244 16.6612C 40.3244 16.6589 40.3244 16.6566 40.3244 16.6543C 40.3244 16.652 40.3244 16.6497 40.3244 16.6474C 40.3244 16.6451 40.3244 16.6428 40.3244 16.6405C 40.3244 16.6382 40.3244 16.6359 40.3244 16.6336C 40.3244 16.6313 40.3244 16.629 40.3244 16.6267C 40.3244 16.6244 40.3244 16.6221 40.3244 16.6198C 40.3244 16.6175 40.3244 16.6152 40.3244 16.6129C 40.3244 16.6106 40.3244 16.6083 40.3244 16.606C 40.3244 16.6037 40.3244 16.6014 40.3244 16.5991C 40.3244 16.5968 40.3244 16.5945 40.3244 16.5922C 40.3244 16.5899 40.3244 16.5876 40.3244 16.5853C 40.3244 16.583 40.3244 16.5807 40.3244 16.5784C 40.3244 16.5761 40.3244 16.5738 40.3244 16.5715C 40.3244 16.5692 40.3244 16.5669 40.3244 16.5646C 40.3244 16.5623 40.3244 16.56 40.3244 16.5577C 40.3244 16.5554 40.3244 16.5531 40.3244 16.5508C 40.3244 16.5485 40.3244 16.5462 40.3244 16.5439C 40.3244 16.5416 40.3244 16.5393 40.3244 16.537C 40.3244 16.5347 40.3244 16.5324 40.3244 16.5301C 40.3244 16.5278 40.3244 16.5255 40.3244 16.5232C 40.3244 16.5209 40.3244 16.5186 40.3244 16.5163C 40.3244 16.514 40.3244 16.5117 40.3244 16.5094C 40.3244 16.5071 40.3244 16.5048 40.3244 16.5025C 40.3244 16.5002 40.3244 16.4979 40.3244 16.4956C 40.3244 16.4933 40.3244 16.491 40.3244 16.4887C 40.3244 16.4864 40.3244 16.4841 40.3244 16.4818C 40.3244 16.4795 40.3244 16.4772 40.3244 16.4749C 40.3244 16.4726 40.3244 16.4703 40.3244 16.468C 40.3244 16.4657 40.3244 16.4634 40.3244 16.4611C 40.3244 16.4588 40.3244 16.4565 40.3244 16.4542C 40.3244 16.4519 40.3244 16.4496 40.3244 16.4473C 40.3244 16.445 40.3244 16.4427 40.3244 16.4404C 40.3244 16.4381 40.3244 16.4358 40.3244 16.4335C 40.3244 16.4312 40.3244 16.4289 40.3244 16.4266C 40.3244 16.4243 40.3244 16.422 40.3244 16.4197C 40.3244 16.4174 40.3244 16.4151 40.3244 16.4128C 40.3244 16.4105 40.3244 16.4082 40.3244 16.4059C 40.3244 16.4036 40.3244 16.4013 40.3244 16.399C 40.3244 16.3967 40.3244 16.3944 40.3244 16.3921C 40.3244 16.3898 40.3244 16.3875 40.3244 16.3852C 40.3244 16.3829 40.3244 16.3806 40.3244 16.3783C 40.3244 16.376 40.3244 16.3737 40.3244 16.3714C 40.3244 16.3691 40.3244 16.3668 40.3244 16.3645C 40.3244 16.3622 40.3244 16.3599 40.3244 16.3576C 40.3244 16.3553 40.3244 16.353 40.3244 16.3507C 40.3244 16.3484 40.3244 16.3461 40.3244 16.3438C 40.3244 16.3415 40.3244 16.3392 40.3244 16.3369C 40.3244 16.3346 40.3244 16.3323 40.3244 16.33C 40.3244 16.3277 40.3244 16.3254 40.3244 16.3231C 40.3244 16.3208 40.3244 16.3185 40.3244 16.3162C 40.3244 16.3139 40.3244 16.3116 40.3244 16.3093C 40.3244 16.307 40.3244 16.3047 40.3244 16.3024C 40.3244 16.3001 40.3244 16.2978 40.3244 16.2955C 40.3244 16.2932 40.3244 16.2909 40.3244 16.2886C 40.3244 16.2863 40.3244 16.284 40.3244 16.2817C 40.3244 16.2794 40.3244 16.2771 40.3244 16.2748C 40.3244 16.2725 40.3244 16.2702 40.3244 16.2679C 40.3244 16.2656 40.3244 16.2633 40.3244 16.261C 40.3244 16.2587 40.3244 16.2564 40.3244 16.2541C 40.3244 16.2518 40.3244 16.2495 40.3244 16.2472C 40.3244 16.2449 40.3244 16.2426 40.3244 16.2403C 40.3244 16.238 40.3244 16.2357 40.3244 16.2334C 40.3244 16.2311 40.3244 16.2288 40.3244 16.2265C 40.3244 16.2242 40.3244 16.2219 40.3244 16.2196C 40.3244 16.2173 40.3244 16.215 40.3244 16.2127C 40.3244 16.2104 40.3244 16.2081 40.3244 16.2058C 40.3244 16.2035 40.3244 16.2012 40.3244 16.1989C 40.3244 16.1966 40.3244 16.1943 40.3244 16.192C 40.3244 16.1897 40.3244 16.1874 40.3244 16.1851C 40.3244 16.1828 40.3244 16.1805 40.3244 16.1782C 40.3244 16.1759 40.3244 16.1736 40.3244 16.1713C 40.3244 16.169 40.3244 16.1667 40.3244 16.1644C 40.3244 16.1621 40.3244 16.1598 40.3244 16.1575C 40.3244 16.1552 40.3244 16.1529 40.3244 16.1506C 40.3244 16.1483 40.3244 16.146 40.3244 16.1437C 40.3244 16.1414 40.3244 16.1391 40.3244 16.1368C 40.3244 16.1345 40.3244 16.1322 40.3244 16.1299C 40.3244 16.1276 40.3244 16.1253 40.3244 16.123C 40.3244 16.1207 40.3244 16.1184 40.3244 16.1161C 40.3244 16.1138 40.3244 16.1115 40.3244 16.1092C 40.3244 16.1069 40.3244 16.1046 40.3244 16.1023C 40.3244 16.1 40.3244 16.0977 40.3244 16.0954C 40.3244 16.0931 40.3244 16.0908 40.3244 16.0885C 40.3244 16.0862 40.3244 16.0839 40.3244 16.0816C 40.3244 16.0793 40.3244 16.077 40.3244 16.0747C 40.3244 16.0724 40.3244 16.0701 40.3244 16.0678C 40.3244 16.0655 40.3244 16.0632 40.3244 16.0609C 40.3244 16.0586 40.3244 16.0563 40.3244 16.054C 40.3244 16.0517 40.3244 16.0494 40.3244 16.0471C 40.3244 16.0448 40.3244 16.0425 40.3244 16.0402C 40.3244 16.0379 40.3244 16.0356 40.3244 16.0333C 40.3244 16.031 40.3244 16.0287 40.3244 16.0264C 40.3244 16.0241 40.3244 16.0218 40.3244 16.0195C 40.3244 16.0172 40.3244 16.0149 40.3244 16.0126C 40.3244 16.0103 40.3244 16.008 40.3244 16.0057C 40.3244 16.0034 40.3244 16.0011 40.3244 15.9988C 40.3244 15.9965 40.3244 15.9942 40.3244 15.9919C 40.3244 15.9896 40.3244 15.9873 40.3244 15.985C 40.3244 15.9827 40.3244 15.9804 40.3244 15.9781C 40.3244 15.9758 40.3244 15.9735 40.3244 15.9712C 40.3244 15.9689 40.3244 15.9666 40.3244 15.9643C 40.3244 15.962 40.3244 15.9597 40.3244 15.9574C 40.3244 15.9551 40.3244 15.9528 40.3244 15.9505C 40.3244 15.9482 40.3244 15.9459 40.3244 15.9436C 40.3244 15.9413 40.3244 15.939 40.3244 15.9367C 40.3244 15.9344 40.3244 15.9321 40.3244 15.9298C 40.3244 15.9275 40.3244 15.9252 40.3244 15.9229C 40.3244 15.9206 40.3244 15.9183 40.3244 15.916C 40.3244 15.9137 40.3244 15.9114 40.3244 15.9091C 40.3244 15.9068 40.3244 15.9045 40.3244 15.9022C 40.3244 15.8999 40.3244 15.8976 40.3244 15.8953C 40.3244 15.893 40.3244 15.8907 40.3244 15.8884C 40.3244 15.8861 40.3244 15.8838 40.3244 15.8815C 40.3244 15.8792 40.3244 15.8769 40.3244 15.8746C 40.3244 15.8723 40.3244 15.87 40.3244 15.8677C 40.3244 15.8654 40.3244 15.8631 40.3244 15.8608C 40.3244 15.8585 40.3244 15.8562 40.3244 15.8539C 40.3244 15.8516 40.3244 15.8493 40.3244 15.847C 40.3244 15.8447 40.3244 15.8424 40.3244 15.8401C 40.3244 15.8378 40.3244 15.8355 40.3244 15.8332C 40.3244 15.8309 40.3244 15.8286 40.3244 15.8263C 40.3244 15.824 40.3244 15.8217 40.3244 15.8194C 40.3244 15.8171 40.3244 15.8148 40.3244 15.8125C 40.3244 15.8102 40.3244 15.8079 40.3244 15.8056C 40.3244 15.8033 40.3244 15.801 40.3244 15.7987C 40.3244 15.7964 40.3244 15.7941 40.3244 15.7918C 40.3244 15.7895 40.3244 15.7872 40.3244 15.7849C 40.3244 15.7826 40.3244 15.7803 40.3244 15.778C 40.3244 15.7757 40.3244 15.7734 40.3244 15.7711C 40.3244 15.7688 40.3244 15.7665 40.3244 15.7642C 40.3244 15.7619 40.3244 15.7596 40.3244 15.7573C 40.3244 15.755 40.3244 15.7527 40.3244 15.7504C 40.3244 15.7481 40.3244 15.7458 40.3244 15.7435C 40.3244 15.7412 40.3244 15.7389 40.3244 15.7366C 40.3244 15.7343 40.3244 15.732 40.3244 15.7297C 40.3244 15.7274 40.3244 15.7251 40.3244 15.7228C 40.3244 15.7205 40.3244 15.7182 40.3244 15.7159C 40.3244 15.7136 40.3244 15.7113 40.3244 15.709C 40.3244 15.7067 40.3244 15.7044 40.3244 15.7021C 40.3244 15.6998 40.3244 15.6975 40.3244 15.6952C 40.3244 15.6929 40.3244 15.6906 40.3244 15.6883C 40.3244 15.686 40.3244 15.6837 40.3244 15.6814C 40.3244 15.6791 40.3244 15.6768 40.3244 15.6745C 40.3244 15.6722 40.3244 15.6699 40.3244 15.6676C 40.3244 15.6653 40.3244 15.663 40.3244 15.6607C 40.3244 15.6584 40.3244 15.6561 40.3244 15.6538C 40.3244 15.6515 40.3244 15.6492 40.3244 15.6469C 40.3244 15.6446 40.3244 15.6423 40.3244 15.64C 40.3244 15.6377 40.3244 15.6354 40.3244 15.6331C 40.3244 15.6308 40.3244 15.6285 40.3244 15.6262C 40.3244 15.6239 40.3244 15.6216 40.3244 15.6193C 40.3244 15.617 40.3244 15.6147 40.3244 15.6124C 40.3244 15.6101 40.3244 15.6078 40.3244 15.6055C 40.3244 15.6032 40.3244 15.6009 40.3244 15.5986C 40.3244 15.5963 40.3244 15.594 40.3244 15.5917C 40.3244 15.5894 40.3244 15.5871 40.3244 15.5848C 40.3244 15.5825 40.3244 15.5802 40.3244 15.5779C 40.3244 15.5756 40.3244 15.5733 40.3244 15.571C 40.3244 15.5687 40.3244 15.5664 40.3244 15.5641C 40.3244 15.5618 40.3244 15.5595 40.3244 15.5572C 40.3244 15.5549 40.3244 15.5526 40.3244 15.5503C 40.3244 15.548 40.3244 15.5457 40.3244 15.5434C 40.3244 15.5411 40.3244 15.5388 40.3244 15.5365C 40.3244 15.5342 40.3244 15.5319 40.3244 15.5296C 40.3244 15.5273 40.3244 15.525 40.3244 15.5227C 40.3244 15.5204 40.3244 15.5181 40.3244 15.5158C 40.3244 15.5135 40.3244 15.5112 40.3244 15.5089C 40.3244 15.5066 40.3244 15.5043 40.3244 15.502C 40.3244 15.4997 40.3244 15.4974 40.3244 15.4951C 40.3244 15.4928 40.3244 15.4905 40.3244 15.4882C 40.3244 15.4859 40.3244 15.4836 40.3244 15.4813C 40.3244 15.479 40.3244 15.4767 40.3244 15.4744C 40.3244 15.4721 40.3244 15.4698 40.3244 15.4675C 40.3244 15.4652 40.3244 15.4629 40.3244 15.4606C 40.3244 15.4583 40.3244 15.456 40.3244 15.4537C 40.3244 15.4514 40.3244 15.4491 40.3244 15.4468C 40.3244 15.4445 40.3244 15.4422 40.3244 15.4399C 40.3244 15.4376 40.3244 15.4353 40.3244 15.433C 40.3244 15.4307 40.3244 15.4284 40.3244 15.4261C 40.3244 15.4238 40.3244 15.4215 40.3244 15.4192C 40.3244 15.4169 40.3244 15.4146 40.3244 15.4123C 40.3244 15.41 40.3244 15.4077 40.3244 15.4054C 40.3244 15.4031 40.3244 15.4008 40.3244 15.3985C 40.3244 15.3962 40.3244 15.3939 40.3244 15.3916C 40.3244 15.3893 40.3244 15.387 40.3244 15.3847C 40.3244 15.3824 40.3244 15.3801 40.3244 15.3778C 40.3244 15.3755 40.3244 15.3732 40.3244 15.3709C 40.3244 15.3686 40.3244 15.3663 40.3244 15.364C 40.3244 15.3617 40.3244 15.3594 40.3244 15.3571C 40.3244 15.3548 40.3244 15.3525 40.3244 15.3502C 40.3244 15.3479 40.3244 15.3456 40.3244 15.3433C 40.3244 15.341 40.3244 15.3387 40.3244 15.3364C 40.3244 15.3341 40.3244 15.3318 40.3244 15.3295C 40.3244 15.3272 40.3244 15.3249 40.3244 15.3226C 40.3244 15.3203 40.3244 15.318 40.3244 15.3157C 40.3244 15.3134 40.3244 15.3111 40.3244 15.3088C 40.3244 15.3065 40.3244 15.3042 40.3244 15.3019C 40.3244 15.2996 40.3244 15.2973 40.3244 15.295C 40.3244 15.2927 40.3244 15.2904 40.3244 15.2881C 40.3244 15.2858 40.3244 15.2835 40.3244 15.2812C 40.3244 15.2789 40.3244 15.2766 40.3244 15.2743C 40.3244 15.272 40.3244 15.2697 40.3244 15.2674C 40.3244 15.2651 40.3244 15.2628 40.3244 15.2605C 40.3244 15.2582 40.3244 15.2559 40.3244 15.2536C 40.3244 15.2513 40.3244 15.249 40.3244 15.2467C 40.3244 15.2444 40.3244 15.2421 40.3244 15.2398C 40.3244 15.2375 40.3244 15.2352 40.3244 15.2329C 40.3244 15.2306 40.3244 15.2283 40.3244 15.226C 40.3244 15.2237 40.3244 15.2214 40.3244 15.2191C 40.3244 15.2168 40.3244 15.2145 40.3244 15.2122C 40.3244 15.2099 40.3244 15.2076 40.3244 15.2053C 40.3244 15.203 40.3244 15.2007 40.3244 15.1984C 40.3244 15.1961 40.3244 15.1938 40.3244 15.1915C 40.3244 15.1892 40.3244 15.1869 40.3244 15.1846C 40.3244 15.1823 40.3244 15.18 40.3244 15.1777C 40.3244 15.1754 40.3244 15.1731 40.3244 15.1708C 40.3244 15.1685 40.3244 15.1662 40.3244 15.1639C 40.3244 15.1616 40.3244 15.1593 40.3244 15.157C 40.3244 15.1547 40.3244 15.1524 40.3244 15.1501C 40.3244 15.1478 40.3244 15.1455 40.3244 15.1432C 40.3244 15.1409 40.3244 15.1386 40.3244 15.1363C 40.3244 15.134 40.3244 15.1317 40.3244 15.1294C 40.3244 15.1271 40.3244 15.1248 40.3244 15.1225C 40.3244 15.1202 40.3244 15.1179 40.3244 15.1156C 40.3244 15.1133 40.3244 15.111 40.3244 15.1087C 40.3244 15.1064 40.3244 15.1041 40.3244 15.1018C 40.3244 15.0995 40.3244 15.0972 40.3244 15.0949C 40.3244 15.0926 40.3244 15.0903 40.3244 15.088C 40.3244 15.0857 40.3244 15.0834 40.3244 15.0811C 40.3244 15.0788 40.3244 15.0765 40.3244 15.0742C 40.3244 15.0719 40.3244 15.0696 40.3244 15.0673C 40.3244 15.065 40.3244 15.0627 40.3244 15.0604C 40.3244 15.0581 40.3244 15.0558 40.3244 15.0535C 40.3244 15.0512 40.3244 15.0489 40.3244 15.0466C 40.3244 15.0443 40.3244 15.042 40.3244 15.0397C 40.3244 15.0374 40.3244 15.0351 40.3244 15.0328C 40.3244 15.0305 40.3244 15.0282 40.3244 15.0259C 40.3244 15.0236 40.3244 15.0213 40.3244 15.019C 40.3244 15.0167 40.3244 15.0144 40.3244 15.0121C 40.3244 15.0098 40.3244 15.0075 40.3244 15.0052C 40.3244 15.0029 40.3244 15.0006 40.3244 14.9983C 40.3244 14.996 40.3244 14.9937 40.3244 14.9914C 40.3244 14.9891 40.3244 14.9868 40.3244 14.9845C 40.3244 14.9822 40.3244 14.9799 40.3244 14.9776C 40.3244 14.9753 40.3244 14.973 40.3244 14.9707C 40.3244 14.9684 40.3244 14.9661 40.3244 14.9638C 40.3244 14.9615 40.3244 14.9592 40.3244 14.9569C 40.3244 14.9546 40.3244 14.9523 40.3244 14.95C 40.3244 14.9477 40.3244 14.9454 40.3244 14.9431C 40.3244 14.9408 40.3244 14.9385 40.3244 14.9362C 40.3244 14.9339 40.3244 14.9316 40.3244 14.9293C 40.3244 14.927 40.3244 14.9247 40.3244 14.9224C 40.3244 14.9201 40.3244 14.9178 40.3244 14.9155C 40.3244 14.9132 40.3244 14.9109 40.3244 14.9086C 40.3244 14.9063 40.3244 14.904 40.3244 14.9017C 40.3244 14.8994 40.3244 14.8971 40.3244 14.8948C 40.3244 14.8925 40.3244 14.8902 40.3244 14.8879C 40.3244 14.8856 40.3244 14.8833 40.3244 14.881C 40.3244 14.8787 40.3244 14.8764 40.3244 14.8741C 40.3244 14.8718 40.3244 14.8695 40.3244 14.8672C 40.3244 14.8649 40.3244 14.8626 40.3244 14.8603C 40.3244 14.858 40.3244 14.8557 40.3244 14.8534C 40.3244 14.8511 40.3244 14.8488 40.3244 14.8465C 40.3244 14.8442 40.3244 14.8419 40.3244 14.8396C 40.3244 14.8373 40.3244 14.835 40.3244 14.8327C 40.3244 14.8304 40.3244 14.8281 40.3244 14.8258C 40.3244 14.8235 40.3244 14.8212 40.3244 14.8189C 40.3244 14.8166 40.3244 14.8143 40.3244 14.812C 40.3244 14.8097 40.3244 14.8074 40.3244 14.8051C 40.3244 14.8028 40.3244 14.8005 40.3244 14.7982C 40.3244 14.7959 40.3244 14.7936 40.3244 14.7913C 40.3244 14.789 40.3244 14.7867 40.3244 14.7844C 40.3244 14.7821 40.3244 14.7798 40.3244 14.7775C 40.3244 14.7752 40.3244 14.7729 40.3244 14.7706C 40.3244 14.7683 40.3244 14.766 40.3244 14.7637C 40.3244 14.7614 40.3244 14.7591 40.3244 14.7568C 40.3244 14.7545 40.3244 14.7522 40.3244 14.7499C 40.3244 14.7476 40.3244 14.7453 40.3244 14.743C 40.3244 14.7407 40.3244 14.7384 40.3244 14.7361C 40.3244 14.7338 40.3244 14.7315 40.3244 14.7292C 40.3244 14.7269 40.3244 14.7246 40.3244 14.7223C 40.3244 14.72 40.3244 14.7177 40.3244 14.7154C 40.3244 14.7131 40.3244 14.7108 40.3244 14.7085C 40.3244 14.7062 40.3244 14.7039 40.3244 14.7016C 40.3244 14.6993 40.3244 14.697 40.3244 14.6947C 40.3244 14.6924 40.3244 14.6901 40.3244 14.6878C 40.3244 14.6855 40.3244 14.6832 40.3244 14.6809C 40.3244 14.6786 40.3244 14.6763 40.3244 14.674C 40.3244 14.6717 40.3244 14.6694 40.3244 14.6671C 40.3244 14.6648 40.3244 14.6625 40.3244 14.6602C 40.3244 14.6579 40.3244 14.6556 40.3244 14.6533C 40.3244 14.651 40.3244 14.6487 40.3244 14.6464C 40.3244 14.6441 40.3244 14.6418 40.3244 14.6395C 40.3244 14.6372 40.3244 14.6349 40.3244 14.6326C 40.3244 14.6303 40.3244 14.628 40.3244 14.6257C 40.3244 14.6234 40.3244 14.6211 40.3244 14.6188C 40.3244 14.6165 40.3244 14.6142 40.3244 14.6119C 40.3244 14.6096 40.3244 14.6073 40.3244 14.605C 40.3244 14.6027 40.3244 14.6004 40.3244 14.5981C 40.3244 14.5958 40.3244 14.5935 40.3244 14.5912C 40.3244 14.5889 40.3244 14.5866 40.3244 14.5843C 40.3244 14.582 40.3244 14.5797 40.3244 14.5774C 40.3244 14.5751 40.3244 14.5728 40.3244 14.5705C 40.3244 14.5682 40.3244 14.5659 40.3244 14.5636L 38.3244 14.5636C 38.3244 14.5659 38.3244 14.5682 38.3244 14.5705C 38.3244 14.5728 38.3244 14.5751 38.3244 14.5774C 38.3244 14.5797 38.3244 14.582 38.3244 14.5843C 38.3244 14.5866 38.3244 14.5889 38.3244 14.5912C 38.3244 14.5935 38.3244 14.5958 38.3244 14.5981C 38.3244 14.6004 38.3244 14.6027 38.3244 14.605C 38.3244 14.6073 38.3244 14.6096 38.3244 14.6119C 38.3244 14.6142 38.3244 14.6165 38.3244 14.6188C 38.3244 14.6211 38.3244 14.6234 38.3244 14.6257C 38.3244 14.628 38.3244 14.6303 38.3244 14.6326C 38.3244 14.6349 38.3244 14.6372 38.3244 14.6395C 38.3244 14.6418 38.3244 14.6441 38.3244 14.6464C 38.3244 14.6487 38.3244 14.651 38.3244 14.6533C 38.3244 14.6556 38.3244 14.6579 38.3244 14.6602C 38.3244 14.6625 38.3244 14.6648 38.3244 14.6671C 38.3244 14.6694 38.3244 14.6717 38.3244 14.674C 38.3244 14.6763 38.3244 14.6786 38.3244 14.6809C 38.3244 14.6832 38.3244 14.6855 38.3244 14.6878C 38.3244 14.6901 38.3244 14.6924 38.3244 14.6947C 38.3244 14.697 38.3244 14.6993 38.3244 14.7016C 38.3244 14.7039 38.3244 14.7062 38.3244 14.7085C 38.3244 14.7108 38.3244 14.7131 38.3244 14.7154C 38.3244 14.7177 38.3244 14.72 38.3244 14.7223C 38.3244 14.7246 38.3244 14.7269 38.3244 14.7292C 38.3244 14.7315 38.3244 14.7338 38.3244 14.7361C 38.3244 14.7384 38.3244 14.7407 38.3244 14.743C 38.3244 14.7453 38.3244 14.7476 38.3244 14.7499C 38.3244 14.7522 38.3244 14.7545 38.3244 14.7568C 38.3244 14.7591 38.3244 14.7614 38.3244 14.7637C 38.3244 14.766 38.3244 14.7683 38.3244 14.7706C 38.3244 14.7729 38.3244 14.7752 38.3244 14.7775C 38.3244 14.7798 38.3244 14.7821 38.3244 14.7844C 38.3244 14.7867 38.3244 14.789 38.3244 14.7913C 38.3244 14.7936 38.3244 14.7959 38.3244 14.7982C 38.3244 14.8005 38.3244 14.8028 38.3244 14.8051C 38.3244 14.8074 38.3244 14.8097 38.3244 14.812C 38.3244 14.8143 38.3244 14.8166 38.3244 14.8189C 38.3244 14.8212 38.3244 14.8235 38.3244 14.8258C 38.3244 14.8281 38.3244 14.8304 38.3244 14.8327C 38.3244 14.835 38.3244 14.8373 38.3244 14.8396C 38.3244 14.8419 38.3244 14.8442 38.3244 14.8465C 38.3244 14.8488 38.3244 14.8511 38.3244 14.8534C 38.3244 14.8557 38.3244 14.858 38.3244 14.8603C 38.3244 14.8626 38.3244 14.8649 38.3244 14.8672C 38.3244 14.8695 38.3244 14.8718 38.3244 14.8741C 38.3244 14.8764 38.3244 14.8787 38.3244 14.881C 38.3244 14.8833 38.3244 14.8856 38.3244 14.8879C 38.3244 14.8902 38.3244 14.8925 38.3244 14.8948C 38.3244 14.8971 38.3244 14.8994 38.3244 14.9017C 38.3244 14.904 38.3244 14.9063 38.3244 14.9086C 38.3244 14.9109 38.3244 14.9132 38.3244 14.9155C 38.3244 14.9178 38.3244 14.9201 38.3244 14.9224C 38.3244 14.9247 38.3244 14.927 38.3244 14.9293C 38.3244 14.9316 38.3244 14.9339 38.3244 14.9362C 38.3244 14.9385 38.3244 14.9408 38.3244 14.9431C 38.3244 14.9454 38.3244 14.9477 38.3244 14.95C 38.3244 14.9523 38.3244 14.9546 38.3244 14.9569C 38.3244 14.9592 38.3244 14.9615 38.3244 14.9638C 38.3244 14.9661 38.3244 14.9684 38.3244 14.9707C 38.3244 14.973 38.3244 14.9753 38.3244 14.9776C 38.3244 14.9799 38.3244 14.9822 38.3244 14.9845C 38.3244 14.9868 38.3244 14.9891 38.3244 14.9914C 38.3244 14.9937 38.3244 14.996 38.3244 14.9983C 38.3244 15.0006 38.3244 15.0029 38.3244 15.0052C 38.3244 15.0075 38.3244 15.0098 38.3244 15.0121C 38.3244 15.0144 38.3244 15.0167 38.3244 15.019C 38.3244 15.0213 38.3244 15.0236 38.3244 15.0259C 38.3244 15.0282 38.3244 15.0305 38.3244 15.0328C 38.3244 15.0351 38.3244 15.0374 38.3244 15.0397C 38.3244 15.042 38.3244 15.0443 38.3244 15.0466C 38.3244 15.0489 38.3244 15.0512 38.3244 15.0535C 38.3244 15.0558 38.3244 15.0581 38.3244 15.0604C 38.3244 15.0627 38.3244 15.065 38.3244 15.0673C 38.3244 15.0696 38.3244 15.0719 38.3244 15.0742C 38.3244 15.0765 38.3244 15.0788 38.3244 15.0811C 38.3244 15.0834 38.3244 15.0857 38.3244 15.088C 38.3244 15.0903 38.3244 15.0926 38.3244 15.0949C 38.3244 15.0972 38.3244 15.0995 38.3244 15.1018C 38.3244 15.1041 38.3244 15.1064 38.3244 15.1087C 38.3244 15.111 38.3244 15.1133 38.3244 15.1156C 38.3244 15.1179 38.3244 15.1202 38.3244 15.1225C 38.3244 15.1248 38.3244 15.1271 38.3244 15.1294C 38.3244 15.1317 38.3244 15.134 38.3244 15.1363C 38.3244 15.1386 38.3244 15.1409 38.3244 15.1432C 38.3244 15.1455 38.3244 15.1478 38.3244 15.1501C 38.3244 15.1524 38.3244 15.1547 38.3244 15.157C 38.3244 15.1593 38.3244 15.1616 38.3244 15.1639C 38.3244 15.1662 38.3244 15.1685 38.3244 15.1708C 38.3244 15.1731 38.3244 15.1754 38.3244 15.1777C 38.3244 15.18 38.3244 15.1823 38.3244 15.1846C 38.3244 15.1869 38.3244 15.1892 38.3244 15.1915C 38.3244 15.1938 38.3244 15.1961 38.3244 15.1984C 38.3244 15.2007 38.3244 15.203 38.3244 15.2053C 38.3244 15.2076 38.3244 15.2099 38.3244 15.2122C 38.3244 15.2145 38.3244 15.2168 38.3244 15.2191C 38.3244 15.2214 38.3244 15.2237 38.3244 15.226C 38.3244 15.2283 38.3244 15.2306 38.3244 15.2329C 38.3244 15.2352 38.3244 15.2375 38.3244 15.2398C 38.3244 15.2421 38.3244 15.2444 38.3244 15.2467C 38.3244 15.249 38.3244 15.2513 38.3244 15.2536C 38.3244 15.2559 38.3244 15.2582 38.3244 15.2605C 38.3244 15.2628 38.3244 15.2651 38.3244 15.2674C 38.3244 15.2697 38.3244 15.272 38.3244 15.2743C 38.3244 15.2766 38.3244 15.2789 38.3244 15.2812C 38.3244 15.2835 38.3244 15.2858 38.3244 15.2881C 38.3244 15.2904 38.3244 15.2927 38.3244 15.295C 38.3244 15.2973 38.3244 15.2996 38.3244 15.3019C 38.3244 15.3042 38.3244 15.3065 38.3244 15.3088C 38.3244 15.3111 38.3244 15.3134 38.3244 15.3157C 38.3244 15.318 38.3244 15.3203 38.3244 15.3226C 38.3244 15.3249 38.3244 15.3272 38.3244 15.3295C 38.3244 15.3318 38.3244 15.3341 38.3244 15.3364C 38.3244 15.3387 38.3244 15.341 38.3244 15.3433C 38.3244 15.3456 38.3244 15.3479 38.3244 15.3502C 38.3244 15.3525 38.3244 15.3548 38.3244 15.3571C 38.3244 15.3594 38.3244 15.3617 38.3244 15.364C 38.3244 15.3663 38.3244 15.3686 38.3244 15.3709C 38.3244 15.3732 38.3244 15.3755 38.3244 15.3778C 38.3244 15.3801 38.3244 15.3824 38.3244 15.3847C 38.3244 15.387 38.3244 15.3893 38.3244 15.3916C 38.3244 15.3939 38.3244 15.3962 38.3244 15.3985C 38.3244 15.4008 38.3244 15.4031 38.3244 15.4054C 38.3244 15.4077 38.3244 15.41 38.3244 15.4123C 38.3244 15.4146 38.3244 15.4169 38.3244 15.4192C 38.3244 15.4215 38.3244 15.4238 38.3244 15.4261C 38.3244 15.4284 38.3244 15.4307 38.3244 15.433C 38.3244 15.4353 38.3244 15.4376 38.3244 15.4399C 38.3244 15.4422 38.3244 15.4445 38.3244 15.4468C 38.3244 15.4491 38.3244 15.4514 38.3244 15.4537C 38.3244 15.456 38.3244 15.4583 38.3244 15.4606C 38.3244 15.4629 38.3244 15.4652 38.3244 15.4675C 38.3244 15.4698 38.3244 15.4721 38.3244 15.4744C 38.3244 15.4767 38.3244 15.479 38.3244 15.4813C 38.3244 15.4836 38.3244 15.4859 38.3244 15.4882C 38.3244 15.4905 38.3244 15.4928 38.3244 15.4951C 38.3244 15.4974 38.3244 15.4997 38.3244 15.502C 38.3244 15.5043 38.3244 15.5066 38.3244 15.5089C 38.3244 15.5112 38.3244 15.5135 38.3244 15.5158C 38.3244 15.5181 38.3244 15.5204 38.3244 15.5227C 38.3244 15.525 38.3244 15.5273 38.3244 15.5296C 38.3244 15.5319 38.3244 15.5342 38.3244 15.5365C 38.3244 15.5388 38.3244 15.5411 38.3244 15.5434C 38.3244 15.5457 38.3244 15.548 38.3244 15.5503C 38.3244 15.5526 38.3244 15.5549 38.3244 15.5572C 38.3244 15.5595 38.3244 15.5618 38.3244 15.5641C 38.3244 15.5664 38.3244 15.5687 38.3244 15.571C 38.3244 15.5733 38.3244 15.5756 38.3244 15.5779C 38.3244 15.5802 38.3244 15.5825 38.3244 15.5848C 38.3244 15.5871 38.3244 15.5894 38.3244 15.5917C 38.3244 15.594 38.3244 15.5963 38.3244 15.5986C 38.3244 15.6009 38.3244 15.6032 38.3244 15.6055C 38.3244 15.6078 38.3244 15.6101 38.3244 15.6124C 38.3244 15.6147 38.3244 15.617 38.3244 15.6193C 38.3244 15.6216 38.3244 15.6239 38.3244 15.6262C 38.3244 15.6285 38.3244 15.6308 38.3244 15.6331C 38.3244 15.6354 38.3244 15.6377 38.3244 15.64C 38.3244 15.6423 38.3244 15.6446 38.3244 15.6469C 38.3244 15.6492 38.3244 15.6515 38.3244 15.6538C 38.3244 15.6561 38.3244 15.6584 38.3244 15.6607C 38.3244 15.663 38.3244 15.6653 38.3244 15.6676C 38.3244 15.6699 38.3244 15.6722 38.3244 15.6745C 38.3244 15.6768 38.3244 15.6791 38.3244 15.6814C 38.3244 15.6837 38.3244 15.686 38.3244 15.6883C 38.3244 15.6906 38.3244 15.6929 38.3244 15.6952C 38.3244 15.6975 38.3244 15.6998 38.3244 15.7021C 38.3244 15.7044 38.3244 15.7067 38.3244 15.709C 38.3244 15.7113 38.3244 15.7136 38.3244 15.7159C 38.3244 15.7182 38.3244 15.7205 38.3244 15.7228C 38.3244 15.7251 38.3244 15.7274 38.3244 15.7297C 38.3244 15.732 38.3244 15.7343 38.3244 15.7366C 38.3244 15.7389 38.3244 15.7412 38.3244 15.7435C 38.3244 15.7458 38.3244 15.7481 38.3244 15.7504C 38.3244 15.7527 38.3244 15.755 38.3244 15.7573C 38.3244 15.7596 38.3244 15.7619 38.3244 15.7642C 38.3244 15.7665 38.3244 15.7688 38.3244 15.7711C 38.3244 15.7734 38.3244 15.7757 38.3244 15.778C 38.3244 15.7803 38.3244 15.7826 38.3244 15.7849C 38.3244 15.7872 38.3244 15.7895 38.3244 15.7918C 38.3244 15.7941 38.3244 15.7964 38.3244 15.7987C 38.3244 15.801 38.3244 15.8033 38.3244 15.8056C 38.3244 15.8079 38.3244 15.8102 38.3244 15.8125C 38.3244 15.8148 38.3244 15.8171 38.3244 15.8194C 38.3244 15.8217 38.3244 15.824 38.3244 15.8263C 38.3244 15.8286 38.3244 15.8309 38.3244 15.8332C 38.3244 15.8355 38.3244 15.8378 38.3244 15.8401C 38.3244 15.8424 38.3244 15.8447 38.3244 15.847C 38.3244 15.8493 38.3244 15.8516 38.3244 15.8539C 38.3244 15.8562 38.3244 15.8585 38.3244 15.8608C 38.3244 15.8631 38.3244 15.8654 38.3244 15.8677C 38.3244 15.87 38.3244 15.8723 38.3244 15.8746C 38.3244 15.8769 38.3244 15.8792 38.3244 15.8815C 38.3244 15.8838 38.3244 15.8861 38.3244 15.8884C 38.3244 15.8907 38.3244 15.893 38.3244 15.8953C 38.3244 15.8976 38.3244 15.8999 38.3244 15.9022C 38.3244 15.9045 38.3244 15.9068 38.3244 15.9091C 38.3244 15.9114 38.3244 15.9137 38.3244 15.916C 38.3244 15.9183 38.3244 15.9206 38.3244 15.9229C 38.3244 15.9252 38.3244 15.9275 38.3244 15.9298C 38.3244 15.9321 38.3244 15.9344 38.3244 15.9367C 38.3244 15.939 38.3244 15.9413 38.3244 15.9436C 38.3244 15.9459 38.3244 15.9482 38.3244 15.9505C 38.3244 15.9528 38.3244 15.9551 38.3244 15.9574C 38.3244 15.9597 38.3244 15.962 38.3244 15.9643C 38.3244 15.9666 38.3244 15.9689 38.3244 15.9712C 38.3244 15.9735 38.3244 15.9758 38.3244 15.9781C 38.3244 15.9804 38.3244 15.9827 38.3244 15.985C 38.3244 15.9873 38.3244 15.9896 38.3244 15.9919C 38.3244 15.9942 38.3244 15.9965 38.3244 15.9988C 38.3244 16.0011 38.3244 16.0034 38.3244 16.0057C 38.3244 16.008 38.3244 16.0103 38.3244 16.0126C 38.3244 16.0149 38.3244 16.0172 38.3244 16.0195C 38.3244 16.0218 38.3244 16.0241 38.3244 16.0264C 38.3244 16.0287 38.3244 16.031 38.3244 16.0333C 38.3244 16.0356 38.3244 16.0379 38.3244 16.0402C 38.3244 16.0425 38.3244 16.0448 38.3244 16.0471C 38.3244 16.0494 38.3244 16.0517 38.3244 16.054C 38.3244 16.0563 38.3244 16.0586 38.3244 16.0609C 38.3244 16.0632 38.3244 16.0655 38.3244 16.0678C 38.3244 16.0701 38.3244 16.0724 38.3244 16.0747C 38.3244 16.077 38.3244 16.0793 38.3244 16.0816C 38.3244 16.0839 38.3244 16.0862 38.3244 16.0885C 38.3244 16.0908 38.3244 16.0931 38.3244 16.0954C 38.3244 16.0977 38.3244 16.1 38.3244 16.1023C 38.3244 16.1046 38.3244 16.1069 38.3244 16.1092C 38.3244 16.1115 38.3244 16.1138 38.3244 16.1161C 38.3244 16.1184 38.3244 16.1207 38.3244 16.123C 38.3244 16.1253 38.3244 16.1276 38.3244 16.1299C 38.3244 16.1322 38.3244 16.1345 38.3244 16.1368C 38.3244 16.1391 38.3244 16.1414 38.3244 16.1437C 38.3244 16.146 38.3244 16.1483 38.3244 16.1506C 38.3244 16.1529 38.3244 16.1552 38.3244 16.1575C 38.3244 16.1598 38.3244 16.1621 38.3244 16.1644C 38.3244 16.1667 38.3244 16.169 38.3244 16.1713C 38.3244 16.1736 38.3244 16.1759 38.3244 16.1782C 38.3244 16.1805 38.3244 16.1828 38.3244 16.1851C 38.3244 16.1874 38.3244 16.1897 38.3244 16.192C 38.3244 16.1943 38.3244 16.1966 38.3244 16.1989C 38.3244 16.2012 38.3244 16.2035 38.3244 16.2058C 38.3244 16.2081 38.3244 16.2104 38.3244 16.2127C 38.3244 16.215 38.3244 16.2173 38.3244 16.2196C 38.3244 16.2219 38.3244 16.2242 38.3244 16.2265C 38.3244 16.2288 38.3244 16.2311 38.3244 16.2334C 38.3244 16.2357 38.3244 16.238 38.3244 16.2403C 38.3244 16.2426 38.3244 16.2449 38.3244 16.2472C 38.3244 16.2495 38.3244 16.2518 38.3244 16.2541C 38.3244 16.2564 38.3244 16.2587 38.3244 16.261C 38.3244 16.2633 38.3244 16.2656 38.3244 16.2679C 38.3244 16.2702 38.3244 16.2725 38.3244 16.2748C 38.3244 16.2771 38.3244 16.2794 38.3244 16.2817C 38.3244 16.284 38.3244 16.2863 38.3244 16.2886C 38.3244 16.2909 38.3244 16.2932 38.3244 16.2955C 38.3244 16.2978 38.3244 16.3001 38.3244 16.3024C 38.3244 16.3047 38.3244 16.307 38.3244 16.3093C 38.3244 16.3116 38.3244 16.3139 38.3244 16.3162C 38.3244 16.3185 38.3244 16.3208 38.3244 16.3231C 38.3244 16.3254 38.3244 16.3277 38.3244 16.33C 38.3244 16.3323 38.3244 16.3346 38.3244 16.3369C 38.3244 16.3392 38.3244 16.3415 38.3244 16.3438C 38.3244 16.3461 38.3244 16.3484 38.3244 16.3507C 38.3244 16.353 38.3244 16.3553 38.3244 16.3576C 38.3244 16.3599 38.3244 16.3622 38.3244 16.3645C 38.3244 16.3668 38.3244 16.3691 38.3244 16.3714C 38.3244 16.3737 38.3244 16.376 38.3244 16.3783C 38.3244 16.3806 38.3244 16.3829 38.3244 16.3852C 38.3244 16.3875 38.3244 16.3898 38.3244 16.3921C 38.3244 16.3944 38.3244 16.3967 38.3244 16.399C 38.3244 16.4013 38.3244 16.4036 38.3244 16.4059C 38.3244 16.4082 38.3244 16.4105 38.3244 16.4128C 38.3244 16.4151 38.3244 16.4174 38.3244 16.4197C 38.3244 16.422 38.3244 16.4243 38.3244 16.4266C 38.3244 16.4289 38.3244 16.4312 38.3244 16.4335C 38.3244 16.4358 38.3244 16.4381 38.3244 16.4404C 38.3244 16.4427 38.3244 16.445 38.3244 16.4473C 38.3244 16.4496 38.3244 16.4519 38.3244 16.4542C 38.3244 16.4565 38.3244 16.4588 38.3244 16.4611C 38.3244 16.4634 38.3244 16.4657 38.3244 16.468C 38.3244 16.4703 38.3244 16.4726 38.3244 16.4749C 38.3244 16.4772 38.3244 16.4795 38.3244 16.4818C 38.3244 16.4841 38.3244 16.4864 38.3244 16.4887C 38.3244 16.491 38.3244 16.4933 38.3244 16.4956C 38.3244 16.4979 38.3244 16.5002 38.3244 16.5025C 38.3244 16.5048 38.3244 16.5071 38.3244 16.5094C 38.3244 16.5117 38.3244 16.514 38.3244 16.5163C 38.3244 16.5186 38.3244 16.5209 38.3244 16.5232C 38.3244 16.5255 38.3244 16.5278 38.3244 16.5301C 38.3244 16.5324 38.3244 16.5347 38.3244 16.537C 38.3244 16.5393 38.3244 16.5416 38.3244 16.5439C 38.3244 16.5462 38.3244 16.5485 38.3244 16.5508C 38.3244 16.5531 38.3244 16.5554 38.3244 16.5577C 38.3244 16.56 38.3244 16.5623 38.3244 16.5646C 38.3244 16.5669 38.3244 16.5692 38.3244 16.5715C 38.3244 16.5738 38.3244 16.5761 38.3244 16.5784C 38.3244 16.5807 38.3244 16.583 38.3244 16.5853C 38.3244 16.5876 38.3244 16.5899 38.3244 16.5922C 38.3244 16.5945 38.3244 16.5968 38.3244 16.5991C 38.3244 16.6014 38.3244 16.6037 38.3244 16.606C 38.3244 16.6083 38.3244 16.6106 38.3244 16.6129C 38.3244 16.6152 38.3244 16.6175 38.3244 16.6198C 38.3244 16.6221 38.3244 16.6244 38.3244 16.6267C 38.3244 16.629 38.3244 16.6313 38.3244 16.6336C 38.3244 16.6359 38.3244 16.6382 38.3244 16.6405C 38.3244 16.6428 38.3244 16.6451 38.3244 16.6474C 38.3244 16.6497 38.3244 16.652 38.3244 16.6543C 38.3244 16.6566 38.3244 16.6589 38.3244 16.6612C 38.3244 16.6635 38.3244 16.6658 38.3244 16.6681C 38.3244 16.6704 38.3244 16.6727 38.3244 16.675C 38.3244 16.6773 38.3244 16.6796 38.3244 16.6819C 38.3244 16.6842 38.3244 16.6865 38.3244 16.6888C 38.3244 16.6911 38.3244 16.6934 38.3244 16.6957C 38.3244 16.698 38.3244 16.7003 38.3244 16.7026C 38.3244 16.7049 38.3244 16.7072 38.3244 16.7095C 38.3244 16.7118 38.3244 16.7141 38.3244 16.7164C 38.3244 16.7187 38.3244 16.721 38.3244 16.7233C 38.3244 16.7256 38.3244 16.7279 38.3244 16.7302C 38.3244 16.7325 38.3244 16.7348 38.3244 16.7371C 38.3244 16.7394 38.3244 16.7417 38.3244 16.744C 38.3244 16.7463 38.3244 16.7486 38.3244 16.7509C 38.3244 16.7532 38.3244 16.7555 38.3244 16.7578C 38.3244 16.7601 38.3244 16.7624 38.3244 16.7647C 38.3244 16.767 38.3244 16.7693 38.3244 16.7716C 38.3244 16.7739 38.3244 16.7762 38.3244 16.7785C 38.3244 16.7808 38.3244 16.7831 38.3244 16.7854C 38.3244 16.7877 38.3244 16.79 38.3244 16.7923C 38.3244 16.7946 38.3244 16.7969 38.3244 16.7992C 38.3244 16.8015 38.3244 16.8038 38.3244 16.8061C 38.3244 16.8084 38.3244 16.8107 38.3244 16.813C 38.3244 16.8153 38.3244 16.8176 38.3244 16.8199C 38.3244 16.8222 38.3244 16.8245 38.3244 16.8268C 38.3244 16.8291 38.3244 16.8314 38.3244 16.8337C 38.3244 16.836 38.3244 16.8383 38.3244 16.8406C 38.3244 16.8429 38.3244 16.8452 38.3244 16.8475C 38.3244 16.8498 38.3244 16.8521 38.3244 16.8544C 38.3244 16.8567 38.3244 16.859 38.3244 16.8613C 38.3244 16.8636 38.3244 16.8659 38.3244 16.8682C 38.3244 16.8705 38.3244 16.8728 38.3244 16.8751C 38.3244 16.8774 38.3244 16.8797 38.3244 16.882C 38.3244 16.8843 38.3244 16.8866 38.3244 16.8889C 38.3244 16.8912 38.3244 16.8935 38.3244 16.8958C 38.3244 16.8981 38.3244 16.9004 38.3244 16.9027C 38.3244 16.905 38.3244 16.9073 38.3244 16.9096C 38.3244 16.9119 38.3244 16.9142 38.3244 16.9165C 38.3244 16.9188 38.3244 16.9211 38.3244 16.9234C 38.3244 16.9257 38.3244 16.928 38.3244 16.9303C 38.3244 16.9326 38.3244 16.9349 38.3244 16.9372C 38.3244 16.9395 38.3244 16.9418 38.3244 16.9441C 38.3244 16.9464 38.3244 16.9487 38.3244 16.951C 38.3244 16.9533 38.3244 16.9556 38.3244 16.9579C 38.3244 16.9602 38.3244 16.9625 38.3244 16.9648C 38.3244 16.9671 38.3244 16.9694 38.3244 16.9717C 38.3244 16.974 38.3244 16.9763 38.3244 16.9786C 38.3244 16.9809 38.3244 16.9832 38.3244 16.9855C 38.3244 16.9878 38.3244 16.9901 38.3244 16.9924C 38.3244 16.9947 38.3244 16.997 38.3244 16.9993C 38.3244 17.0016 38.3244 17.0039 38.3244 17.0062C 38.3244 17.0085 38.3244 17.0108 38.3244 17.0131C 38.3244 17.0154 38.3244 17.0177 38.3244 17.02C 38.3244 17.0223 38.3244 17.0246 38.3244 17.0269C 38.3244 17.0292 38.3244 17.0315 38.3244 17.0338C 38.3244 17.0361 38.3244 17.0384 38.3244 17.0407C 38.3244 17.043 38.3244 17.0453 38.3244 17.0476C 38.3244 17.0499 38.3244 17.0522 38.3244 17.0545C 38.3244 17.0568 38.3244 17.0591 38.3244 17.0614C 38.3244 17.0637 38.3244 17.066 38.3244 17.0683C 38.3244 17.0706 38.3244 17.0729 38.3244 17.0752C 38.3244 17.0775 38.3244 17.0798 38.3244 17.0821C 38.3244 17.0844 38.3244 17.0867 38.3244 17.089C 38.3244 17.0913 38.3244 17.0936 38.3244 17.0959C 38.3244 17.0982 38.3244 17.1005 38.3244 17.1028C 38.3244 17.1051 38.3244 17.1074 38.3244 17.1097C 38.3244 17.112 38.3244 17.1143 38.3244 17.1166C 38.3244 17.1189 38.3244 17.1212 38.3244 17.1235C 38.3244 17.1258 38.3244 17.1281 38.3244 17.1304C 38.3244 17.1327 38.3244 17.135 38.3244 17.1373C 38.3244 17.1396 38.3244 17.1419 38.3244 17.1442C 38.3244 17.1465 38.3244 17.1488 38.3244 17.1511C 38.3244 17.1534 38.3244 17.1557 38.3244 17.158C 38.3244 17.1603 38.3244 17.1626 38.3244 17.1649C 38.3244 17.1672 38.3244 17.1695 38.3244 17.1718C 38.3244 17.1741 38.3244 17.1764 38.3244 17.1787C 38.3244 17.181 38.3244 17.1833 38.3244 17.1856C 38.3244 17.1879 38.3244 17.1902 38.3244 17.1925C 38.3244 17.1948 38.3244 17.1971 38.3244 17.1994C 38.3244 17.2017 38.3244 17.204 38.3244 17.2063C 38.3244 17.2086 38.3244 17.2109 38.3244 17.2132C 38.3244 17.2155 38.3244 17.2178 38.3244 17.2201C 38.3244 17.2224 38.3244 17.2247 38.3244 17.227C 38.3244 17.2293 38.3244 17.2316 38.3244 17.2339C 38.3244 17.2362 38.3244 17.2385 38.3244 17.2408C 38.3244 17.2431 38.3244 17.2454 38.3244 17.2477C 38.3244 17.25 38.3244 17.2523 38.3244 17.2546C 38.3244 17.2569 38.3244 17.2592 38.3244 17.2615C 38.3244 17.2638 38.3244 17.2661 38.3244 17.2684C 38.3244 17.2707 38.3244 17.273 38.3244 17.2753C 38.3244 17.2776 38.3244 17.2799 38.3244 17.2822C 38.3244 17.2845 38.3244 17.2868 38.3244 17.2891C 38.3244 17.2914 38.3244 17.2937 38.3244 17.296C 38.3244 17.2983 38.3244 17.3006 38.3244 17.3029C 38.3244 17.3052 38.3244 17.3075 38.3244 17.3098C 38.3244 17.3121 38.3244 17.3144 38.3244 17.3167C 38.3244 17.319 38.3244 17.3213 38.3244 17.3236C 38.3244 17.3259 38.3244 17.3282 38.3244 17.3305C 38.3244 17.3328 38.3244 17.3351 38.3244 17.3374C 38.3244 17.3397 38.3244 17.342 38.3244 17.3443C 38.3244 17.3466 38.3244 17.3489 38.3244 17.3512C 38.3244 17.3535 38.3244 17.3558 38.3244 17.3581C 38.3244 17.3604 38.3244 17.3627 38.3244 17.365C 38.3244 17.3673 38.3244 17.3696 38.3244 17.3719C 38.3244 17.3742 38.3244 17.3765 38.3244 17.3788C 38.3244 17.3811 38.3244 17.3834 38.3244 17.3857C 38.3244 17.388 38.3244 17.3903 38.3244 17.3926C 38.3244 17.3949 38.3244 17.3972 38.3244 17.3995C 38.3244 17.4018 38.3244 17.4041 38.3244 17.4064C 38.3244 17.4087 38.3244 17.411 38.3244 17.4133C 38.3244 17.4156 38.3244 17.4179 38.3244 17.4202C 38.3244 17.4225 38.3244 17.4248 38.3244 17.4271C 38.3244 17.4294 38.3244 17.4317 38.3244 17.434C 38.3244 17.4363 38.3244 17.4386 38.3244 17.4409C 38.3244 17.4432 38.3244 17.4455 38.3244 17.4478C 38.3244 17.4501 38.3244 17.4524 38.3244 17.4547C 38.3244 17.457 38.3244 17.4593 38.3244 17.4616C 38.3244 17.4639 38.3244 17.4662 38.3244 17.4685C 38.3244 17.4708 38.3244 17.4731 38.3244 17.4754C 38.3244 17.4777 38.3244 17.48 38.3244 17.4823C 38.3244 17.4846 38.3244 17.4869 38.3244 17.4892C 38.3244 17.4915 38.3244 17.4938 38.3244 17.4961C 38.3244 17.4984 38.3244 17.5007 38.3244 17.503C 38.3244 17.5053 38.3244 17.5076 38.3244 17.5099C 38.3244 17.5122 38.3244 17.5145 38.3244 17.5168C 38.3244 17.5191 38.3244 17.5214 38.3244 17.5237C 38.3244 17.526 38.3244 17.5283 38.3244 17.5306C 38.3244 17.5329 38.3244 17.5352 38.3244 17.5375C 38.3244 17.5398 38.3244 17.5421 38.3244 17.5444C 38.3244 17.5467 38.3244 17.549 38.3244 17.5513C 38.3244 17.5536 38.3244 17.5559 38.3244 17.5582C 38.3244 17.5605 38.3244 17.5628 38.3244 17.5651C 38.3244 17.5674 38.3244 17.5697 38.3244 17.572C 38.3244 17.5743 38.3244 17.5766 38.3244 17.5789C 38.3244 17.5812 38.3244 17.5835 38.3244 17.5858C 38.3244 17.5881 38.3244 17.5904 38.3244 17.5927C 38.3244 17.595 38.3244 17.5973 38.3244 17.5996C 38.3244 17.6019 38.3244 17.6042 38.3244 17.6065C 38.3244 17.6088 38.3244 17.6111 38.3244 17.6134C 38.3244 17.6157 38.3244 17.618 38.3244 17.6203C 38.3244 17.6226 38.3244 17.6249 38.3244 17.6272C 38.3244 17.6295 38.3244 17.6318 38.3244 17.6341C 38.3244 17.6364 38.3244 17.6387 38.3244 17.641C 38.3244 17.6433 38.3244 17.6456 38.3244 17.6479C 38.3244 17.6502 38.3244 17.6525 38.3244 17.6548C 38.3244 17.6571 38.3244 17.6594 38.3244 17.6617C 38.3244 17.664 38.3244 17.6663 38.3244 17.6686C 38.3244 17.6709 38.3244 17.6732 38.3244 17.6755C 38.3244 17.6778 38.3244 17.6801 38.3244 17.6824C 38.3244 17.6847 38.3244 17.687 38.3244 17.6893C 38.3244 17.6916 38.3244 17.6939 38.3244 17.6962C 38.3244 17.6985 38.3244 17.7008 38.3244 17.7031C 38.3244 17.7054 38.3244 17.7077 38.3244 17.71C 38.3244 17.7123 38.3244 17.7146 38.3244 17.7169C 38.3244 17.7192 38.3244 17.7215 38.3244 17.7238C 38.3244 17.7261 38.3244 17.7284 38.3244 17.7307C 38.3244 17.733 38.3244 17.7353 38.3244 17.7376C 38.3244 17.7399 38.3244 17.7422 38.3244 17.7445C 38.3244 17.7468 38.3244 17.7491 38.3244 17.7514C 38.3244 17.7537 38.3244 17.756 38.3244 17.7583C 38.3244 17.7606 38.3244 17.7629 38.3244 17.7652C 38.3244 17.7675 38.3244 17.7698 38.3244 17.7721C 38.3244 17.7744 38.3244 17.7767 38.3244 17.779C 38.3244 17.7813 38.3244 17.7836 38.3244 17.7859C 38.3244 17.7882 38.3244 17.7905 38.3244 17.7928C 38.3244 17.7951 38.3244 17.7974 38.3244 17.7997C 38.3244 17.802 38.3244 17.8043 38.3244 17.8066C 38.3244 17.8089 38.3244 17.8112 38.3244 17.8135C 38.3244 17.8158 38.3244 17.8181 38.3244 17.8204C 38.3244 17.8227 38.3244 17.825 38.3244 17.8273C 38.3244 17.8296 38.3244 17.8319 38.3244 17.8342C 38.3244 17.8365 38.3244 17.8388 38.3244 17.8411C 38.3244 17.8434 38.3244 17.8457 38.3244 17.848C 38.3244 17.8503 38.3244 17.8526 38.3244 17.8549C 38.3244 17.8572 38.3244 17.8595 38.3244 17.8618C 38.3244 17.8641 38.3244 17.8664 38.3244 17.8687C 38.3244 17.871 38.3244 17.8733 38.3244 17.8756C 38.3244 17.8779 38.3244 17.8802 38.3244 17.8825C 38.3244 17.8848 38.3244 17.8871 38.3244 17.8894C 38.3244 17.8917 38.3244 17.894 38.3244 17.8963C 38.3244 17.8986 38.3244 17.9009 38.3244 17.9032C 38.3244 17.9055 38.3244 17.9078 38.3244 17.9101C 38.3244 17.9124 38.3244 17.9147 38.3244 17.917C 38.3244 17.9193 38.3244 17.9216 38.3244 17.9239C 38.3244 17.9262 38.3244 17.9285 38.3244 17.9308C 38.3244 17.9331 38.3244 17.9354 38.3244 17.9377C 38.3244 17.94 38.3244 17.9423 38.3244 17.9446C 38.3244 17.9469 38.3244 17.9492 38.3244 17.9515C 38.3244 17.9538 38.3244 17.9561 38.3244 17.9584C 38.3244 17.9607 38.3244 17.963 38.3244 17.9653C 38.3244 17.9676 38.3244 17.9699 38.3244 17.9722C 38.3244 17.9745 38.3244 17.9768 38.3244 17.9791C 38.3244 17.9814 38.3244 17.9837 38.3244 17.986C 38.3244 17.9883 38.3244 17.9906 38.3244 17.9929C 38.3244 17.9952 38.3244 17.9975 38.3244 17.9998C 38.3244 18.0021 38.3244 18.0044 38.3244 18.0067C 38.3244 18.009 38.3244 18.0113 38.3244 18.0136C 38.3244 18.0159 38.3244 18.0182 38.3244 18.0205C 38.3244 18.0228 38.3244 18.0251 38.3244 18.0274C 38.3244 18.0297 38.3244 18.032 38.3244 18.0343C 38.3244 18.0366 38.3244 18.0389 38.3244 18.0412C 38.3244 18.0435 38.3244 18.0458 38.3244 18.0481C 38.3244 18.0504 38.3244 18.0527 38.3244 18.055C 38.3244 18.0573 38.3244 18.0596 38.3244 18.0619C 38.3244 18.0642 38.3244 18.0665 38.3244 18.0688C 38.3244 18.0711 38.3244 18.0734 38.3244 18.0757C 38.3244 18.078 38.3244 18.0803 38.3244 18.0826C 38.3244 18.0849 38.3244 18.0872 38.3244 18.0895C 38.3244 18.0918 38.3244 18.0941 38.3244 18.0964L 40.3244 18.0964ZM 40.3244 14.5636C 40.3244 14.5568 40.3258 14.4491 40.3241 14.3947C 40.322 14.3286 40.3153 14.143 40.227 13.9393C 40.0031 13.4224 39.5058 13.2973 39.4116 13.2704L 38.8622 15.1935C 38.8928 15.2022 38.8276 15.1878 38.739 15.1345C 38.6187 15.062 38.4775 14.9322 38.3918 14.7342C 38.3558 14.651 38.3402 14.5797 38.333 14.5347C 38.3261 14.4917 38.3252 14.4618 38.3251 14.4579C 38.325 14.454 38.3252 14.4565 38.325 14.4788C 38.3248 14.4956 38.3244 14.5297 38.3244 14.5636L 40.3244 14.5636ZM 39.4116 13.2704C 39.6589 13.3411 39.8115 13.4908 39.8886 13.5894C 39.9631 13.6846 39.9972 13.7688 40.0098 13.8026C 40.0342 13.8685 40.0336 13.8998 40.0286 13.8577C 40.0202 13.786 40.0163 13.6554 40.0204 13.4754C 40.0243 13.3049 40.0343 13.126 40.044 12.9706C 40.0484 12.9013 40.054 12.8165 40.0573 12.7637C 40.0601 12.717 40.0648 12.6412 40.0648 12.5809L 38.0648 12.5809C 38.0648 12.5668 38.0651 12.5752 38.061 12.6408C 38.0574 12.7004 38.0536 12.7561 38.048 12.8454C 38.0378 13.0074 38.0257 13.2183 38.0209 13.4298C 38.0163 13.6319 38.017 13.8757 38.0422 14.0905C 38.0541 14.1916 38.0774 14.3443 38.1351 14.4994C 38.166 14.5827 38.3365 15.0433 38.8622 15.1935L 39.4116 13.2704ZM 40.0648 12.5809C 40.0648 10.9222 39.7642 9.65239 39.4176 8.19653L 37.472 8.65977C 37.8197 10.1202 38.0648 11.1829 38.0648 12.5809L 40.0648 12.5809ZM 39.4176 8.19653C 39.2931 7.67346 38.9473 7.29373 38.7438 7.08239C 38.4613 6.78898 38.3645 6.7203 38.2612 6.58397L 36.6674 7.79218C 36.7841 7.94623 36.9147 8.08181 37.0188 8.18617C 37.1434 8.3112 37.2105 8.37345 37.3031 8.46962C 37.487 8.66059 37.4827 8.70458 37.472 8.65977L 39.4176 8.19653ZM 38.2612 6.58397C 37.7929 5.96623 37.1232 5.3411 36.7182 4.90611L 35.2544 6.26894C 35.8243 6.88104 36.2751 7.27476 36.6674 7.79218L 38.2612 6.58397ZM 36.7182 4.90611C 36.0946 4.23639 35.5937 3.78149 35.1246 3.17837L 33.5459 4.40625C 34.0844 5.0986 34.763 5.74116 35.2544 6.26894L 36.7182 4.90611ZM 35.1246 3.17837C 34.5625 2.45559 33.8276 2.07084 33.1397 1.82131C 32.5215 1.59711 31.7053 1.4151 31.2075 1.26852L 30.6426 3.18708C 31.3967 3.40913 31.8844 3.4935 32.4577 3.70146C 32.9613 3.88409 33.3056 4.09728 33.5459 4.40625L 35.1246 3.17837ZM 31.2075 1.26852C 28.1382 0.364771 24.9389 -0.313523 21.8305 -0.896352L 21.4619 1.06939C 24.5443 1.64735 27.6679 2.31119 30.6426 3.18708L 31.2075 1.26852ZM 21.8305 -0.896352C 20.7781 -1.09366 19.7201 -0.982737 18.7569 -0.784699C 17.8059 -0.58915 16.8466 -0.283961 16.0598 -0.060847L 16.6055 1.86328C 17.4786 1.61567 18.3047 1.35013 19.1597 1.17432C 20.0027 1.001 20.7715 0.939937 21.4619 1.06939L 21.8305 -0.896352ZM 16.0598 -0.060847C 15.0764 0.218039 14.0531 0.371794 12.91 0.591561C 11.8057 0.803846 10.6269 1.07311 9.52714 1.58932L 10.377 3.3998C 11.2387 2.99532 12.2113 2.76251 13.2875 2.55559C 14.3249 2.35616 15.5112 2.1736 16.6055 1.86328L 16.0598 -0.060847ZM 9.52714 1.58932C 9.14896 1.76684 8.76127 1.9212 8.34102 2.08792C 7.92952 2.25117 7.48516 2.42689 7.04182 2.63379L 7.88759 4.44615C 8.26847 4.2684 8.65754 4.11399 9.07853 3.94698C 9.49076 3.78344 9.93462 3.60742 10.377 3.3998L 9.52714 1.58932ZM 7.04182 2.63379C 5.59811 3.30751 4.23407 4.14921 3.18362 5.5796L 4.79563 6.76342C 5.56177 5.72017 6.58225 5.05531 7.88759 4.44615L 7.04182 2.63379ZM 3.18362 5.5796C 2.91771 5.94169 2.61493 6.26123 2.25366 6.65656C 1.9082 7.03459 1.51903 7.47249 1.18933 7.99663L 2.88226 9.06153C 3.10858 8.70174 3.3905 8.3773 3.73005 8.00574C 4.05378 7.65148 4.4499 7.2342 4.79563 6.76342L 3.18362 5.5796ZM 1.18933 7.99663C 0.259478 9.47486 -0.125529 11.3336 -0.535688 12.6786L 1.37733 13.262C 1.87072 11.6441 2.14099 10.24 2.88226 9.06153L 1.18933 7.99663ZM -0.535688 12.6786C -0.881141 13.8113 -0.991603 14.8395 -0.997328 15.9789L 1.00265 15.9889C 1.00767 14.989 1.1026 14.1628 1.37733 13.262L -0.535688 12.6786ZM -0.997328 15.9789C -1.02021 20.5316 -0.900619 25.1543 -0.466528 29.7123L 1.52446 29.5227C 1.09888 25.054 0.979963 20.5029 1.00265 15.9889L -0.997328 15.9789ZM -0.466528 29.7123C -0.406111 30.3466 -0.235007 30.9474 -0.0549874 31.4833C 0.0352755 31.752 0.132431 32.0175 0.222143 32.2642C 0.313627 32.5158 0.397937 32.7493 0.472241 32.9772L 2.3737 32.3571C 2.28761 32.0931 2.1924 31.83 2.10172 31.5807C 2.00927 31.3264 1.92161 31.0867 1.8409 30.8464C 1.67897 30.3644 1.56346 29.9322 1.52446 29.5227L -0.466528 29.7123ZM 0.472241 32.9772C 0.67063 33.5856 0.822852 34.1673 1.02595 34.846C 1.22002 35.4946 1.44632 36.1782 1.75976 36.8381L 3.56632 35.9799C 3.31871 35.4587 3.12681 34.8903 2.94201 34.2727C 2.76625 33.6853 2.57896 32.9866 2.3737 32.3571L 0.472241 32.9772ZM 1.75976 36.8381C 2.46268 38.3179 3.54198 39.4064 4.68342 40.3113C 5.77042 41.1729 7.10654 42.0018 8.12823 42.7364L 9.29572 41.1125C 8.07271 40.2332 6.99622 39.5925 5.92585 38.744C 4.90992 37.9386 4.08711 37.0764 3.56632 35.9799L 1.75976 36.8381ZM 8.12823 42.7364C 9.14289 43.4659 9.82434 43.9567 11.2594 44.1943L 11.5862 42.2212C 10.6321 42.0632 10.2666 41.8105 9.29572 41.1125L 8.12823 42.7364ZM 11.2594 44.1943C 12.4622 44.3935 13.6673 44.5447 14.8541 44.6893C 16.047 44.8347 17.2178 44.973 18.3828 45.1483L 18.6804 43.1706C 17.4809 42.9901 16.2767 42.8479 15.096 42.704C 13.9092 42.5594 12.7422 42.4126 11.5862 42.2212L 11.2594 44.1943ZM 18.3828 45.1483C 19.3135 45.2883 20.2403 45.4256 21.1641 45.5662L 21.465 43.589C 20.5397 43.4482 19.6044 43.3096 18.6804 43.1706L 18.3828 45.1483ZM 21.1641 45.5662C 21.4804 45.6143 21.7719 45.5859 21.9869 45.5547C 22.0958 45.5389 22.2016 45.5196 22.2862 45.5043C 22.377 45.4879 22.4452 45.4757 22.5086 45.4666L 22.2257 43.4867C 22.1193 43.5019 22.0142 43.521 21.9299 43.5363C 21.8393 43.5527 21.7681 43.5655 21.6996 43.5754C 21.5597 43.5957 21.4948 43.5935 21.465 43.589L 21.1641 45.5662ZM 22.5086 45.4666C 23.666 45.3013 24.8198 45.1251 25.9739 44.9374L 25.6529 42.9633C 24.5115 43.1489 23.3704 43.3232 22.2257 43.4867L 22.5086 45.4666ZM 25.9739 44.9374C 26.9941 44.7715 28.0069 44.5382 28.9729 44.3243C 29.9519 44.1076 30.8924 43.9085 31.8304 43.7887L 31.5771 41.8048C 30.5398 41.9373 29.5203 42.1547 28.5406 42.3716C 27.5478 42.5914 26.6031 42.8088 25.6529 42.9633L 25.9739 44.9374ZM 31.8304 43.7887C 32.4693 43.7072 33.1618 43.6467 33.9492 43.1823L 32.9333 41.4596C 32.5557 41.6823 32.2778 41.7154 31.5771 41.8048L 31.8304 43.7887ZM 33.9492 43.1823C 36.977 41.3967 40.6542 39.1873 42.8574 36.0049L 41.213 34.8665C 39.3014 37.6278 36.03 39.6333 32.9333 41.4596L 33.9492 43.1823ZM 42.8574 36.0049C 43.6229 34.8993 44.0794 33.6515 44.4229 32.449C 44.5951 31.8463 44.7434 31.2378 44.8849 30.6574C 45.0282 30.07 45.1643 29.5123 45.3179 28.978L 43.3956 28.4257C 43.2289 29.0058 43.0833 29.6036 42.9419 30.1835C 42.7988 30.7703 42.6595 31.3408 42.4999 31.8996C 42.1798 33.02 41.7958 34.0247 41.213 34.8665L 42.8574 36.0049ZM 45.3179 28.978C 45.4069 28.6683 45.633 27.9941 45.6449 27.4101L 43.6453 27.3693C 43.6403 27.6176 43.5338 27.945 43.3956 28.4257L 45.3179 28.978ZM 45.6449 27.4101C 45.6675 26.3016 45.8224 25.1843 46.019 24.0261C 46.2112 22.8934 46.4532 21.6724 46.6164 20.4816L 44.6349 20.21C 44.477 21.3621 44.2528 22.4797 44.0472 23.6915C 43.8458 24.8778 43.671 26.111 43.6453 27.3693L 45.6449 27.4101ZM 46.6164 20.4816C 47.2218 16.0644 47.6744 11.6693 47.366 7.11331L 45.3705 7.24842C 45.6648 11.5942 45.236 15.8247 44.6349 20.21L 46.6164 20.4816ZM 47.366 7.11331C 47.3457 6.81339 47.3434 6.13471 47.186 5.59769C 47.0979 5.29709 46.9424 4.95043 46.6486 4.6577C 46.3425 4.35263 45.951 4.17067 45.5075 4.10731L 45.2247 6.08721C 45.2886 6.09634 45.2688 6.10621 45.2369 6.07435C 45.2173 6.05484 45.2382 6.06276 45.2667 6.16009C 45.2961 6.26036 45.318 6.40055 45.3334 6.59927C 45.3409 6.69587 45.3462 6.79605 45.3517 6.90632C 45.357 7.01218 45.3627 7.1324 45.3705 7.24842L 47.366 7.11331ZM 45.5075 4.10731C 45.4393 4.09757 45.3725 4.09431 45.3434 4.09289C 45.3066 4.0911 45.2615 4.08951 45.2284 4.08823C 45.1514 4.08526 45.0856 4.08203 45.0284 4.07626C 44.9613 4.0695 44.9575 4.06393 44.99 4.07462C 45.0074 4.08034 45.0725 4.10253 45.1533 4.15794C 45.2349 4.21389 45.3788 4.33626 45.4655 4.55284L 43.6085 5.29562C 43.7132 5.55732 43.8924 5.71835 44.0223 5.80746C 44.1515 5.89603 44.2781 5.9459 44.3661 5.97479C 44.5398 6.03185 44.7134 6.05464 44.8278 6.06617C 44.9519 6.07869 45.0715 6.08367 45.1513 6.08675C 45.2729 6.09143 45.2579 6.09197 45.2247 6.08721L 45.5075 4.10731ZM 45.4655 4.55284C 45.2651 4.05182 45.0844 3.35703 44.5176 2.64851L 42.9558 3.8979C 43.2789 4.30168 43.3054 4.53777 43.6085 5.29562L 45.4655 4.55284ZM 44.5176 2.64851C 44.3833 2.4806 44.2231 2.33441 44.1708 2.28318C 44.103 2.21679 44.0866 2.19383 44.0751 2.17473L 42.3601 3.20372C 42.502 3.44023 42.6604 3.60337 42.7715 3.71212C 42.898 3.83603 42.9207 3.85403 42.9558 3.8979L 44.5176 2.64851Z"/>
</defs>
</svg>
