<svg width="79" height="53" viewBox="0 0 79 53" version="1.1" xmlns="http://www.w3.org/2000/svg" xmlns:xlink="http://www.w3.org/1999/xlink">
<title>aboutme</title>
<desc>Created using Figma</desc>
<g id="Canvas" transform="translate(16235 2292)">
<g id="aboutme">
<g id="Group 2">
<g id="Vector 5">
<use xlink:href="#path0_stroke" transform="translate(-16226.9 -2290.34)" fill="#16C761"/>
</g>
<g id="Vector 6">
<use xlink:href="#path1_stroke" transform="translate(-16234 -2277.27)" fill="#16C761"/>
</g>
</g>
</g>
</g>
<defs>
<path id="path0_stroke" d="M -0.75 44.4486C -0.75 44.8628 -0.414214 45.1986 -2.84622e-12 45.1986C 0.414214 45.1986 0.75 44.8628 0.75 44.4486L -0.75 44.4486ZM 1.08153 28.8437L 1.82518 28.9411L 1.08153 28.8437ZM 1.98649 19.2092L 1.23869 19.1517L 1.98649 19.2092ZM 2.38378 12.7973L 1.65164 12.96L 2.38378 12.7973ZM 4.46959 17.7745L 3.78099 18.0717L 3.78099 18.0717L 4.46959 17.7745ZM 7.5045 27.3648L 6.77785 27.5505L 7.5045 27.3648ZM 9.09369 34.759L 9.82932 34.6129L 9.09369 34.759ZM 11.014 40.5419L 10.2995 40.7699L 10.2995 40.7699L 11.014 40.5419ZM 13.0998 45.3094L 12.7644 44.6386L 13.0998 45.3094ZM 13.3315 41.7117L 14.0711 41.8364L 13.3315 41.7117ZM 15.627 32.618L 14.9163 32.3786L 15.627 32.618ZM 23.8378 9.53062L 24.5772 9.65632L 23.8378 9.53062ZM 24.0365 7.63242L 23.2896 7.70033L 24.0365 7.63242ZM 25.5263 11.6054L 26.2334 11.3552L 26.2334 11.3552L 25.5263 11.6054ZM 30.9781 29.3182L 31.7179 29.1949L 30.9781 29.3182ZM 32.9757 37.6946L 33.659 37.3855L 33.659 37.3854L 32.9757 37.6946ZM 33.6599 39.041L 33.6599 38.291L 33.6599 39.041ZM 33.8144 36.1275L 33.0666 36.0704L 33.8144 36.1275ZM 41.8817 3.8581L 41.143 3.7285L 41.8817 3.8581ZM 42.8419 2.30202L 42.1344 2.55112L 42.8419 2.30202ZM 46.0423 15.8874L 45.2948 15.9488L 46.0423 15.8874ZM 46.3293 41.7558L 45.5801 41.72L 46.3293 41.7558ZM 47.0351 48.6202C 47.0351 48.206 46.6993 47.8702 46.2851 47.8702C 45.8709 47.8702 45.5351 48.206 45.5351 48.6202L 47.0351 48.6202ZM 0.75 44.4486C 0.75 42.4988 0.75 40.5493 0.75 38.5995L -0.75 38.5995C -0.75 40.5492 -0.75 42.499 -0.75 44.4486L 0.75 44.4486ZM 0.75 38.5995C 0.75 35.33 1.38432 32.3076 1.82518 28.9411L 0.33788 28.7463C -0.0842544 31.9699 -0.75 35.1998 -0.75 38.5995L 0.75 38.5995ZM 1.82518 28.9411C 2.2501 25.6962 2.48609 22.4932 2.73428 19.2667L 1.23869 19.1517C 0.989654 22.3892 0.756549 25.5492 0.33788 28.7463L 1.82518 28.9411ZM 2.73428 19.2667C 2.78995 18.543 2.8858 17.8359 2.97304 17.0802C 3.05884 16.3369 3.13378 15.5644 3.13378 14.7727L 1.63378 14.7727C 1.63378 15.4752 1.56721 16.1781 1.48294 16.9082C 1.4001 17.6257 1.2973 18.3899 1.23869 19.1517L 2.73428 19.2667ZM 3.13378 14.7727C 3.13378 14.4262 3.09648 13.7315 3.07972 13.2698C 3.07036 13.012 3.06822 12.8484 3.07196 12.7905C 3.07332 12.7695 3.07272 12.811 3.05675 12.8726C 3.05476 12.8803 3.02347 13.0213 2.90713 13.1579C 2.83835 13.2387 2.69432 13.3704 2.46402 13.4092C 2.22314 13.4498 2.03084 13.3655 1.92084 13.2907C 1.7484 13.1733 1.6798 13.017 1.67782 13.013C 1.65863 12.974 1.64916 12.9448 1.64739 12.9394C 1.64293 12.9258 1.64457 12.9282 1.65164 12.96L 3.11592 12.6346C 3.10514 12.586 3.09115 12.5284 3.0731 12.4732C 3.06453 12.447 3.04876 12.4016 3.02376 12.3508C 3.01596 12.335 2.94203 12.1712 2.76471 12.0506C 2.65226 11.974 2.45763 11.8891 2.21454 11.9301C 1.98201 11.9693 1.83588 12.1023 1.7651 12.1855C 1.64476 12.3268 1.60989 12.4764 1.60473 12.4963C 1.58241 12.5824 1.57707 12.663 1.57508 12.6938C 1.56543 12.8431 1.57221 13.0901 1.58071 13.3242C 1.59966 13.8463 1.63378 14.4608 1.63378 14.7727L 3.13378 14.7727ZM 1.65164 12.96C 1.85962 13.8959 2.23708 14.8011 2.63156 15.6464C 3.04247 16.527 3.43955 17.2806 3.78099 18.0717L 5.1582 17.4774C 4.81182 16.6748 4.35591 15.7944 3.99084 15.0121C 3.60932 14.1945 3.28778 13.4079 3.11592 12.6346L 1.65164 12.96ZM 3.78099 18.0717C 5.07347 21.0665 5.95438 24.3282 6.77785 27.5505L 8.23115 27.1792C 7.40825 23.9591 6.50273 20.5927 5.1582 17.4774L 3.78099 18.0717ZM 6.77785 27.5505C 7.39964 29.9836 7.86295 32.4125 8.35806 34.9051L 9.82932 34.6129C 9.33777 32.1382 8.86545 29.6612 8.23115 27.1792L 6.77785 27.5505ZM 8.35806 34.9051C 8.56862 35.9652 8.91135 36.9725 9.26809 37.9359C 9.63122 38.9165 9.99784 39.8248 10.2995 40.7699L 11.7285 40.3138C 11.413 39.3255 11.0182 38.3424 10.6747 37.415C 10.3249 36.4704 10.0161 35.553 9.82932 34.6129L 8.35806 34.9051ZM 10.2995 40.7699C 10.3391 40.8942 10.4969 41.2785 10.6832 41.7232C 10.8794 42.1917 11.1311 42.7832 11.3817 43.3627C 11.6319 43.9415 11.8825 44.512 12.0759 44.9373C 12.172 45.1487 12.257 45.3309 12.322 45.462C 12.3533 45.5251 12.3865 45.5896 12.4175 45.6428C 12.4304 45.665 12.4576 45.7109 12.4941 45.7582C 12.5082 45.7765 12.554 45.8355 12.6266 45.8936C 12.6619 45.9218 12.741 45.9806 12.8579 46.0201C 12.9838 46.0626 13.2032 46.0963 13.4352 45.9803L 12.7644 44.6386C 12.9953 44.5232 13.2132 44.5569 13.3376 44.5988C 13.4529 44.6378 13.5303 44.6956 13.5635 44.7221C 13.6321 44.777 13.673 44.8307 13.6814 44.8415C 13.7065 44.874 13.7189 44.8969 13.7139 44.8883C 13.7089 44.8797 13.6937 44.8516 13.6657 44.7953C 13.6123 44.6877 13.5357 44.5241 13.4413 44.3164C 13.2536 43.9037 13.0073 43.343 12.7585 42.7674C 12.51 42.1925 12.2605 41.6064 12.0667 41.1438C 11.9698 40.9123 11.8875 40.7133 11.8264 40.5628C 11.7959 40.4874 11.7714 40.4259 11.7534 40.3796C 11.7329 40.327 11.7272 40.31 11.7285 40.3138L 10.2995 40.7699ZM 13.4352 45.9803C 13.6456 45.875 13.7426 45.7063 13.7696 45.6578C 13.8085 45.588 13.8309 45.524 13.843 45.4859C 13.8681 45.407 13.8835 45.3268 13.8938 45.2654C 13.9152 45.1362 13.9316 44.9761 13.945 44.8098C 13.9722 44.4719 13.9926 44.0352 14.0089 43.6052C 14.0253 43.174 14.038 42.7345 14.0492 42.3954C 14.0548 42.224 14.0599 42.0796 14.0649 41.9711C 14.071 41.8383 14.075 41.813 14.0711 41.8364L 12.592 41.5869C 12.5772 41.6745 12.5709 41.8073 12.5665 41.9022C 12.561 42.0215 12.5556 42.1745 12.55 42.3462C 12.5386 42.6932 12.5261 43.1221 12.51 43.5483C 12.4938 43.9757 12.4743 44.3854 12.4498 44.6894C 12.4374 44.8441 12.4249 44.9539 12.4141 45.0194C 12.4081 45.0554 12.4065 45.0537 12.4135 45.0314C 12.4166 45.0217 12.4298 44.9806 12.4592 44.9278C 12.4767 44.8963 12.5639 44.7388 12.7644 44.6386L 13.4352 45.9803ZM 14.0711 41.8364C 14.5933 38.7402 15.3333 35.8399 16.3378 32.8574L 14.9163 32.3786C 13.8878 35.4322 13.128 38.4092 12.592 41.5869L 14.0711 41.8364ZM 16.3378 32.8574C 17.6409 28.9884 19.3242 25.3131 20.8897 21.5024C 22.4458 17.7145 23.8676 13.8306 24.5772 9.65632L 23.0984 9.40493C 22.4173 13.4114 21.0472 17.1716 19.5022 20.9324C 17.9667 24.6703 16.24 28.4484 14.9163 32.3786L 16.3378 32.8574ZM 24.5772 9.65632C 24.6393 9.29142 24.6768 8.60097 24.7041 8.15462C 24.7195 7.90402 24.731 7.73793 24.7398 7.67088C 24.7427 7.64866 24.7404 7.67758 24.7274 7.72341C 24.7232 7.73797 24.715 7.76536 24.7009 7.79914C 24.6898 7.82596 24.6592 7.89615 24.5985 7.97276C 24.5479 8.0365 24.3811 8.22468 24.0814 8.25201C 23.7531 8.28192 23.5407 8.09873 23.4607 8.01073C 23.381 7.923 23.3428 7.83807 23.33 7.80855C 23.3132 7.76978 23.3037 7.73824 23.2991 7.72217C 23.29 7.68996 23.2864 7.66739 23.2861 7.66546C 23.285 7.65881 23.2865 7.66691 23.2896 7.70033L 24.7834 7.56452C 24.7792 7.51874 24.7738 7.46748 24.7658 7.41942C 24.762 7.39679 24.755 7.35802 24.7425 7.31385C 24.7363 7.2918 24.725 7.25536 24.7066 7.21272C 24.6921 7.17931 24.6522 7.09155 24.5709 7.00199C 24.4892 6.91215 24.2751 6.72813 23.9452 6.7582C 23.6438 6.78567 23.4753 6.97499 23.4231 7.04081C 23.3198 7.17113 23.2864 7.30659 23.2844 7.31376C 23.2649 7.3826 23.2561 7.44877 23.2525 7.47618C 23.2353 7.60764 23.2207 7.8381 23.2069 8.06285C 23.176 8.56719 23.143 9.14263 23.0984 9.40493L 24.5772 9.65632ZM 23.2896 7.70033C 23.3636 8.5151 23.6685 9.28414 23.9749 9.96016C 24.3006 10.6787 24.6066 11.2546 24.8193 11.8556L 26.2334 11.3552C 25.9928 10.6753 25.616 9.9473 25.3411 9.34087C 25.0469 8.69193 24.8334 8.11494 24.7834 7.56452L 23.2896 7.70033ZM 24.8193 11.8556C 26.8667 17.6416 29.248 23.4995 30.2383 29.4415L 31.7179 29.1949C 30.6994 23.084 28.2463 17.0438 26.2334 11.3552L 24.8193 11.8556ZM 30.2383 29.4415C 30.6715 32.0403 31.1267 35.427 32.2923 38.0037L 33.659 37.3854C 32.5955 35.0345 32.1689 31.9007 31.7179 29.1949L 30.2383 29.4415ZM 32.2923 38.0037C 32.2908 38.0004 32.2972 38.0152 32.3173 38.0685C 32.3355 38.1165 32.3556 38.1712 32.3824 38.2428C 32.4335 38.3793 32.4999 38.5542 32.5728 38.7265C 32.643 38.8926 32.731 39.0851 32.8288 39.2457C 32.8761 39.3234 32.9451 39.4262 33.0368 39.5186C 33.1035 39.5859 33.3196 39.791 33.6599 39.791L 33.6599 38.291C 33.8103 38.291 33.9231 38.3397 33.9863 38.3756C 34.0487 38.411 34.0868 38.4473 34.1016 38.4622C 34.1292 38.49 34.1311 38.5001 34.11 38.4655C 34.0709 38.4014 34.0171 38.2907 33.9544 38.1425C 33.8944 38.0005 33.837 37.8499 33.7873 37.7172C 33.7466 37.6082 33.6928 37.4602 33.659 37.3855L 32.2923 38.0037ZM 33.6599 39.791C 34.1358 39.791 34.3362 39.4014 34.3581 39.3597C 34.4134 39.2548 34.4403 39.1517 34.4539 39.0938C 34.484 38.965 34.5018 38.8143 34.514 38.6759C 34.5393 38.3885 34.5514 38.0185 34.5574 37.6618C 34.5634 37.301 34.5635 36.9364 34.5629 36.6543C 34.5626 36.5116 34.5622 36.3931 34.5622 36.3027C 34.5622 36.1939 34.5633 36.17 34.5622 36.1845L 33.0666 36.0704C 33.0603 36.1527 33.0624 36.4105 33.0629 36.6574C 33.0635 36.9378 33.0634 37.2907 33.0576 37.6366C 33.0517 37.9867 33.0402 38.3126 33.0198 38.5443C 33.0091 38.6655 32.9985 38.7302 32.9934 38.752C 32.9893 38.7693 32.9969 38.7253 33.031 38.6606C 33.0318 38.6592 33.2091 38.291 33.6599 38.291L 33.6599 39.791ZM 34.5622 36.1845C 34.9804 30.7068 36.493 25.4461 38.1627 20.142C 39.825 14.8615 41.65 9.51916 42.6205 3.9877L 41.143 3.7285C 40.1942 9.13681 38.4109 14.358 36.7319 19.6917C 35.0604 25.0018 33.499 30.4059 33.0666 36.0704L 34.5622 36.1845ZM 42.6205 3.9877C 42.8353 2.76304 43.0621 1.48026 43.0621 0.149995L 41.5621 0.149995C 41.5621 1.32822 41.3615 2.48295 41.143 3.7285L 42.6205 3.9877ZM 43.0621 0.149995C 43.0621 0.111196 43.0632 0.102154 43.0625 0.11053C 43.0623 0.113199 43.0601 0.13992 43.0516 0.178149C 43.0473 0.197423 43.0384 0.233882 43.0211 0.278557C 43.0066 0.31567 42.9688 0.405576 42.887 0.498195C 42.7981 0.598938 42.616 0.744175 42.3437 0.749839C 42.0896 0.755125 41.9169 0.633995 41.843 0.570475C 41.7134 0.459166 41.6606 0.332162 41.6597 0.330288C 41.6366 0.280462 41.6298 0.24778 41.6365 0.272508C 41.6571 0.348899 41.6939 0.537855 41.7478 0.825758C 41.8427 1.33231 41.9872 2.133 42.1344 2.55112L 43.5493 2.05293C 43.4512 1.77422 43.3308 1.12952 43.2222 0.549578C 43.1743 0.294232 43.1247 0.029663 43.0844 -0.119315C 43.0758 -0.150928 43.0553 -0.225693 43.0203 -0.301179C 43.0135 -0.315882 42.9551 -0.45161 42.8205 -0.567268C 42.744 -0.632961 42.569 -0.755172 42.3125 -0.749837C 42.0379 -0.744125 41.8537 -0.597713 41.7626 -0.494632C 41.6214 -0.334667 41.5895 -0.156909 41.5871 -0.146353C 41.5755 -0.0938866 41.5707 -0.0480111 41.5683 -0.0209998C 41.5633 0.0360601 41.5621 0.09645 41.5621 0.149995L 43.0621 0.149995ZM 42.1344 2.55112C 43.719 7.05112 44.9051 11.2026 45.2948 15.9488L 46.7898 15.826C 46.3849 10.8947 45.1519 6.60444 43.5493 2.05293L 42.1344 2.55112ZM 45.2948 15.9488C 45.9931 24.4521 45.9892 33.1744 45.5801 41.72L 47.0784 41.7917C 47.4897 33.2003 47.4947 24.4106 46.7898 15.826L 45.2948 15.9488ZM 45.5801 41.72C 45.5244 42.8847 45.5135 45.1923 45.5162 46.9044C 45.5175 47.7639 45.5222 48.4822 45.5267 48.8437C 45.5278 48.9335 45.5289 49.0043 45.53 49.0505C 45.5305 49.0695 45.5312 49.0972 45.5327 49.1205C 45.533 49.1261 45.534 49.1421 45.5362 49.1616C 45.537 49.1696 45.5397 49.1933 45.5455 49.2232C 45.5489 49.2396 45.5594 49.2818 45.567 49.3075C 45.5834 49.3538 45.6572 49.4956 45.7253 49.5834C 45.9533 49.7548 46.5404 49.7847 46.8065 49.6167C 46.8897 49.5202 46.9775 49.3613 46.9961 49.31C 47.0185 49.2404 47.0252 49.1818 47.0257 49.1784C 47.0297 49.1487 47.031 49.1243 47.0312 49.12C 47.0345 49.0645 47.0351 48.8884 47.0351 48.6202L 45.5351 48.6202C 45.5351 48.9242 45.5337 49.0339 45.5338 49.032C 45.5339 49.0311 45.535 49.0091 45.5388 48.9809C 45.5391 48.9783 45.5458 48.9202 45.5681 48.851C 45.5866 48.7999 45.6743 48.641 45.7575 48.5446C 46.0235 48.3766 46.6106 48.4065 46.8385 48.5779C 46.9066 48.6656 46.9803 48.8073 46.9966 48.8534C 47.0042 48.8789 47.0147 48.9209 47.018 48.937C 47.0237 48.9663 47.0263 48.9894 47.027 48.9963C 47.029 49.0139 47.0297 49.027 47.0299 49.0288C 47.0304 49.0373 47.0301 49.0365 47.0296 49.0141C 47.0287 48.9775 47.0277 48.9142 47.0266 48.8252C 47.0222 48.4712 47.0175 47.7589 47.0162 46.902C 47.0135 45.1813 47.0247 42.9125 47.0784 41.7917L 45.5801 41.72Z"/>
<path id="path1_stroke" d="M -0.0675436 1.2325C -0.480074 1.2698 -0.784256 1.63446 -0.746952 2.04699C -0.709649 2.45952 -0.344987 2.7637 0.0675436 2.7264L -0.0675436 1.2325ZM 51.7148 0.0591795L 51.7264 -0.690732L 51.7148 0.0591795ZM 71.6901 1.14071L 71.779 0.396006L 71.6901 1.14071ZM 76.1928 2.00152L 75.9643 2.71589L 76.1928 2.00152ZM 76.7004 2.37675L 76.0764 1.96072L 76.0764 1.96072L 76.7004 2.37675ZM 71.2928 2.6085L 71.3325 3.35745L 71.2928 2.6085ZM 64.2738 3.57967L 64.4135 4.31656L 64.2738 3.57967ZM 44.0558 7.81751L 43.8944 7.08509L 44.0558 7.81751ZM 8.55292 15.1785L 8.66115 15.9207L 8.55292 15.1785ZM 3.02387 15.2889L 3.10239 16.0348L 3.02387 15.2889ZM 3.63085 15.5317L 3.84971 14.8143L 3.84971 14.8143L 3.63085 15.5317ZM 8.70743 17.1098L 8.92447 16.3919L 8.92447 16.3919L 8.70743 17.1098ZM 36.7279 24.2281L 36.5478 24.9561L 36.7279 24.2281ZM 56.5928 28.8632L 56.7649 28.1332L 56.5928 28.8632ZM 60.6651 29.7902L 60.3605 30.4756L 60.3605 30.4756L 60.6651 29.7902ZM 58.9545 29.9889L 58.9508 29.2389L 58.9545 29.9889ZM 30.5698 33.2776L 30.7112 34.0142L 30.7112 34.0142L 30.5698 33.2776ZM 19.8869 35.9042L 19.6547 35.1911L 19.8869 35.9042ZM 18.0583 35.9203C 17.7136 36.15 17.6205 36.6157 17.8503 36.9603C 18.08 37.305 18.5457 37.3981 18.8903 37.1683L 18.0583 35.9203ZM 0.0675436 2.7264C 17.2591 1.17184 34.4368 0.543453 51.7033 0.809091L 51.7264 -0.690732C 34.408 -0.957169 17.1775 -0.326892 -0.0675436 1.2325L 0.0675436 2.7264ZM 51.7033 0.809091C 58.3648 0.911575 65.0176 1.09894 71.6011 1.88542L 71.779 0.396006C 65.1126 -0.400385 58.393 -0.588168 51.7264 -0.690732L 51.7033 0.809091ZM 71.6011 1.88542C 72.7671 2.02471 74.7446 2.32586 75.9643 2.71589L 76.4212 1.28715C 75.0529 0.849637 72.9503 0.535925 71.779 0.396006L 71.6011 1.88542ZM 75.9643 2.71589C 76.08 2.75287 76.1634 2.78233 76.2047 2.805C 76.2363 2.82234 76.1569 2.78899 76.0811 2.67902C 76.035 2.61222 75.977 2.49721 75.9709 2.34256C 75.9646 2.18172 76.0172 2.0495 76.0764 1.96072L 77.3244 2.79277C 77.4128 2.66022 77.4777 2.48545 77.4697 2.2834C 77.462 2.08756 77.3885 1.93269 77.316 1.82751C 77.1872 1.64079 77.0112 1.53659 76.9264 1.49002C 76.7348 1.38487 76.5059 1.31426 76.4212 1.28715L 75.9643 2.71589ZM 76.0764 1.96072C 76.1535 1.84501 76.2278 1.84737 76.1178 1.88507C 76.0298 1.91523 75.8859 1.94628 75.6782 1.96967C 75.2658 2.0161 74.7232 2.01988 74.1369 2.0009C 73.5559 1.98208 72.9635 1.94224 72.4543 1.90873C 71.9763 1.87727 71.509 1.84596 71.253 1.85956L 71.3325 3.35745C 71.4745 3.34991 71.8213 3.37031 72.3558 3.40549C 72.8592 3.43861 73.4777 3.48034 74.0883 3.50011C 74.6935 3.51971 75.3232 3.5191 75.846 3.46025C 76.1059 3.431 76.3703 3.38418 76.6042 3.30402C 76.816 3.2314 77.1257 3.09096 77.3244 2.79277L 76.0764 1.96072ZM 71.253 1.85956C 68.8366 1.98786 66.4569 2.40261 64.1342 2.84279L 64.4135 4.31656C 66.7312 3.87731 69.0251 3.47996 71.3325 3.35745L 71.253 1.85956ZM 64.1342 2.84279C 57.3569 4.12719 50.6167 5.60328 43.8944 7.08509L 44.2173 8.54993C 50.9413 7.06776 57.661 5.59626 64.4135 4.31656L 64.1342 2.84279ZM 43.8944 7.08509C 32.0761 9.69021 20.364 12.6982 8.44469 14.4364L 8.66115 15.9207C 20.6518 14.172 32.4665 11.1402 44.2173 8.54993L 43.8944 7.08509ZM 8.44469 14.4364C 7.60202 14.5593 6.73946 14.5422 5.81147 14.5121C 4.90395 14.4828 3.92288 14.4401 2.94536 14.543L 3.10239 16.0348C 3.95549 15.945 4.82203 15.9809 5.76293 16.0114C 6.68336 16.0412 7.67002 16.0652 8.66115 15.9207L 8.44469 14.4364ZM 2.94536 14.543C 2.9091 14.5468 2.83886 14.5558 2.75857 14.5822C 2.72124 14.5944 2.46491 14.6737 2.31734 14.9505C 2.11102 15.3375 2.30794 15.6724 2.39489 15.7816C 2.47949 15.8878 2.5732 15.9466 2.60313 15.9652C 2.72382 16.0399 2.87685 16.0889 2.93509 16.1079C 3.08311 16.1563 3.36382 16.2344 3.412 16.2491L 3.84971 14.8143C 3.68946 14.7654 3.55832 14.7335 3.40078 14.6821C 3.30624 14.6512 3.33305 14.6529 3.39283 14.6899C 3.40752 14.699 3.49008 14.749 3.56822 14.8471C 3.6487 14.9481 3.84383 15.2756 3.64102 15.6561C 3.49697 15.9263 3.24944 15.9998 3.2268 16.0072C 3.16121 16.0288 3.11156 16.0338 3.10239 16.0348L 2.94536 14.543ZM 3.412 16.2491C 5.06164 16.7523 6.82076 17.323 8.49039 17.8278L 8.92447 16.3919C 7.20178 15.8711 5.58995 15.3453 3.84971 14.8143L 3.412 16.2491ZM 8.49039 17.8278C 17.7216 20.6186 27.2444 22.6541 36.5478 24.9561L 36.9081 23.5C 27.5415 21.1824 18.1073 19.1681 8.92447 16.3919L 8.49039 17.8278ZM 36.5478 24.9561C 43.1501 26.5898 49.8237 28.0378 56.4207 29.5932L 56.7649 28.1332C 50.1261 26.568 43.5065 25.1327 36.9081 23.5L 36.5478 24.9561ZM 56.4207 29.5932C 57.0873 29.7504 57.8618 29.8572 58.5204 29.9751C 59.2143 30.0992 59.837 30.243 60.3605 30.4756L 60.9697 29.1049C 60.2726 28.7951 59.5009 28.6266 58.7845 28.4985C 58.033 28.3641 57.3815 28.2786 56.7649 28.1332L 56.4207 29.5932ZM 60.3605 30.4756C 60.3695 30.4796 60.3345 30.4657 60.2851 30.4282C 60.2612 30.4101 60.0745 30.272 60.0265 29.9926C 59.9638 29.6274 60.1811 29.3897 60.2854 29.3071C 60.3791 29.2328 60.4625 29.2077 60.4696 29.2054C 60.4898 29.1989 60.4156 29.2158 60.1859 29.2268C 59.7857 29.2459 59.2645 29.2374 58.9508 29.2389L 58.9582 30.7389C 59.2185 30.7376 59.8149 30.7463 60.2576 30.7251C 60.4494 30.7159 60.7279 30.6982 60.93 30.633C 60.9825 30.6161 61.1007 30.5748 61.2169 30.4828C 61.3437 30.3823 61.5713 30.1251 61.5049 29.7386C 61.4532 29.4379 61.249 29.2767 61.1921 29.2335C 61.1097 29.1709 61.0262 29.13 60.9697 29.1049L 60.3605 30.4756ZM 58.9508 29.2389C 49.3191 29.2866 39.8193 30.738 30.4284 32.5411L 30.7112 34.0142C 40.0725 32.2168 49.4654 30.7859 58.9582 30.7389L 58.9508 29.2389ZM 30.4284 32.5411C 26.8383 33.2304 23.1719 34.0459 19.6547 35.1911L 20.1191 36.6174C 23.5492 35.5006 27.1454 34.6988 30.7112 34.0142L 30.4284 32.5411ZM 19.6547 35.1911C 19.1471 35.3563 18.5621 35.5844 18.0583 35.9203L 18.8903 37.1683C 19.2253 36.945 19.6585 36.7673 20.1191 36.6174L 19.6547 35.1911Z"/>
</defs>
</svg>
