<svg width="83" height="56" viewBox="0 0 83 56" version="1.1" xmlns="http://www.w3.org/2000/svg" xmlns:xlink="http://www.w3.org/1999/xlink">
<title>aboutme</title>
<desc>Created using Figma</desc>
<g id="Canvas" transform="translate(16237 2293)">
<g id="aboutme">
<g id="Group 2">
<g id="Vector 5">
<use xlink:href="#path0_stroke" transform="translate(-16226.8 -2290.34)" fill="#16C761"/>
</g>
<g id="Vector 6">
<use xlink:href="#path1_stroke" transform="translate(-16234 -2277.17)" fill="#16C761"/>
</g>
</g>
</g>
</g>
<defs>
<path id="path0_stroke" d="M -2.5 44.795C -2.5 46.1757 -1.38071 47.295 -9.48739e-12 47.295C 1.38071 47.295 2.5 46.1757 2.5 44.795L -2.5 44.795ZM 1.08996 29.0684L 3.56879 29.393L 1.08996 29.0684ZM 2.00196 19.3589L -0.490671 19.1672L 2.00196 19.3589ZM 2.40236 12.897L -0.0381096 13.4393L 2.40236 12.897ZM 4.50442 17.913L 2.20907 18.9037L 2.20907 18.9037L 4.50442 17.913ZM 7.56298 27.5781L 5.14082 28.1971L 5.14082 28.1971L 7.56298 27.5781ZM 9.16455 35.0298L 11.6166 34.5428L 9.16455 35.0298ZM 11.0998 40.8578L 8.71814 41.6179L 8.71814 41.6179L 11.0998 40.8578ZM 13.2018 45.6625L 12.0838 43.4264L 13.2018 45.6625ZM 13.4354 42.0367L 15.9006 42.4525L 15.9006 42.4525L 13.4354 42.0367ZM 15.7488 32.8722L 13.3796 32.0742L 15.7488 32.8722ZM 24.0236 9.60489L 26.4882 10.0239L 24.0236 9.60489ZM 24.2238 7.6919L 21.734 7.91824L 24.2238 7.6919ZM 25.7252 11.6958L 28.0821 10.8619L 25.7252 11.6958ZM 31.2195 29.5467L 33.6855 29.1357L 31.2195 29.5467ZM 33.2326 37.9883L 35.5104 36.9579L 33.2326 37.9883ZM 33.9222 39.3452L 33.9222 36.8452L 33.9222 39.3452ZM 34.0779 36.409L 31.5851 36.2187L 34.0779 36.409ZM 42.2081 3.88817L 39.7457 3.45617L 42.2081 3.88817ZM 43.1757 2.31996L 40.8176 3.15027L 43.1757 2.31996ZM 46.4011 16.0112L 43.9095 16.2158L 46.4011 16.0112ZM 46.6903 42.0812L 44.1931 41.9617L 46.6903 42.0812ZM 49.1458 48.9991C 49.1458 47.6184 48.0265 46.4991 46.6458 46.4991C 45.2651 46.4991 44.1458 47.6184 44.1458 48.9991L 49.1458 48.9991ZM 2.5 44.795C 2.5 42.8301 2.5 40.8652 2.5 38.9003L -2.5 38.9003C -2.5 40.8652 -2.5 42.8301 -2.5 44.795L 2.5 44.795ZM 2.5 38.9003C 2.5 35.7567 3.10273 32.9521 3.56879 29.393L -1.38888 28.7438C -1.79253 31.8263 -2.5 35.3226 -2.5 38.9003L 2.5 38.9003ZM 3.56879 29.393C 4.00429 26.0674 4.24547 22.7893 4.4946 19.5507L -0.490671 19.1672C -0.742644 22.4428 -0.974215 25.5773 -1.38888 28.7438L 3.56879 29.393ZM 4.4946 19.5507C 4.54731 18.8655 4.63581 18.2193 4.72886 17.4133C 4.8171 16.6489 4.90236 15.7894 4.90236 14.8879L -0.097642 14.8879C -0.097642 15.4921 -0.154994 16.1195 -0.238157 16.8399C -0.316512 17.5187 -0.428209 18.3552 -0.490671 19.1672L 4.4946 19.5507ZM 4.90236 14.8879C 4.90236 14.4984 4.86107 13.7051 4.84673 13.31C 4.8363 13.0226 4.83952 12.9547 4.83642 13.0027C 4.8352 13.0216 4.83229 13.0617 4.82565 13.1152C 4.82031 13.1582 4.80558 13.2691 4.76894 13.4105C 4.7586 13.4504 4.65015 13.9304 4.25771 14.3913C 4.02611 14.6633 3.54357 15.1036 2.7733 15.2336C 1.96782 15.3694 1.32409 15.0876 0.954578 14.8362C 0.374105 14.4412 0.139237 13.9115 0.125866 13.8843C 0.0551658 13.7406 0.0162501 13.6245 0.00246023 13.5824C -0.0151825 13.5284 -0.0259014 13.4882 -0.030375 13.471C -0.0354285 13.4515 -0.0379782 13.4399 -0.0381096 13.4393L 4.84283 12.3547C 4.82763 12.2863 4.79918 12.164 4.75481 12.0283C 4.73417 11.9652 4.68891 11.8328 4.61234 11.6772C 4.59311 11.6381 4.35287 11.1008 3.76747 10.7025C 3.3955 10.4494 2.74943 10.167 1.94171 10.3032C 1.16921 10.4335 0.684545 10.8753 0.450922 11.1496C 0.0544476 11.6152 -0.0576039 12.1039 -0.07114 12.1561C -0.138158 12.4147 -0.15043 12.6378 -0.153171 12.6803C -0.169766 12.9371 -0.157544 13.283 -0.149981 13.4913C -0.128333 14.0877 -0.097642 14.6136 -0.097642 14.8879L 4.90236 14.8879ZM -0.0381096 13.4393C 0.213501 14.5716 0.658911 15.6217 1.07153 16.5059C 1.53895 17.5075 1.87071 18.1197 2.20907 18.9037L 6.79978 16.9224C 6.44496 16.1003 5.91709 15.0657 5.60247 14.3915C 5.23305 13.5999 4.97401 12.945 4.84283 12.3547L -0.0381096 13.4393ZM 2.20907 18.9037C 3.45109 21.7815 4.31026 24.9471 5.14082 28.1971L 9.98514 26.9591C 9.15649 23.7166 8.21531 20.2023 6.79978 16.9224L 2.20907 18.9037ZM 5.14082 28.1971C 5.7529 30.5922 6.20934 32.984 6.71246 35.5169L 11.6166 34.5428C 11.1254 32.0697 10.6389 29.5174 9.98514 26.9591L 5.14082 28.1971ZM 6.71246 35.5169C 6.95236 36.7247 7.33711 37.8445 7.70469 38.8372C 8.09359 39.8874 8.43021 40.7157 8.71814 41.6179L 13.4814 40.0977C 13.1475 39.0513 12.7167 37.9736 12.3935 37.1009C 12.0491 36.1706 11.7771 35.3508 11.6166 34.5428L 6.71246 35.5169ZM 8.71814 41.6179C 8.78808 41.8371 8.99021 42.3223 9.15764 42.7221C 9.35823 43.201 9.61459 43.8033 9.86938 44.3927C 10.1232 44.9798 10.3807 45.5663 10.5822 46.0095C 10.6811 46.2268 10.7766 46.4322 10.8556 46.5915C 10.8911 46.6629 10.9454 46.7703 11.0068 46.8758C 11.029 46.9139 11.1024 47.0401 11.2109 47.1807C 11.2512 47.2329 11.3983 47.4235 11.6357 47.6133C 11.7508 47.7054 12.0126 47.9004 12.4003 48.0312C 12.8183 48.1723 13.5478 48.2846 14.3199 47.8986L 12.0838 43.4264C 12.8548 43.041 13.5829 43.1533 13.9993 43.2938C 14.3854 43.4241 14.6454 43.618 14.7585 43.7085C 14.9918 43.8951 15.134 44.0803 15.1686 44.125C 15.2656 44.2507 15.3241 44.3536 15.3282 44.3607C 15.3534 44.404 15.3589 44.4181 15.3346 44.3692C 15.2943 44.2879 15.227 44.1448 15.1338 43.9398C 14.9513 43.5384 14.708 42.9849 14.4589 42.4086C 14.2107 41.8345 13.9619 41.25 13.7695 40.7907C 13.6731 40.5604 13.593 40.3666 13.5349 40.2235C 13.4575 40.0325 13.4592 40.0279 13.4814 40.0977L 8.71814 41.6179ZM 14.3199 47.8986C 15.0097 47.5537 15.3215 47.0043 15.4006 46.8623C 15.5192 46.6494 15.5832 46.4628 15.6131 46.3687C 15.6757 46.1716 15.7074 45.9956 15.7226 45.9041C 15.7565 45.6999 15.7776 45.48 15.7922 45.299C 15.8228 44.919 15.8444 44.4475 15.861 44.0111C 15.8777 43.5708 15.8909 43.1156 15.9019 42.7829C 15.9075 42.6106 15.9124 42.4751 15.9168 42.3782C 15.925 42.2003 15.9263 42.2999 15.9006 42.4525L 10.9702 41.6209C 10.9446 41.7728 10.9356 41.9137 10.9333 41.9469C 10.9288 42.0128 10.9251 42.0831 10.9221 42.1487C 10.916 42.2813 10.9102 42.4456 10.9045 42.619C 10.8928 42.9778 10.8806 43.3978 10.8646 43.8215C 10.8483 44.2492 10.8298 44.6306 10.8083 44.8976C 10.7968 45.0402 10.7889 45.0922 10.7902 45.0842C 10.7913 45.0776 10.795 45.0562 10.802 45.0241C 10.8084 44.9951 10.8226 44.934 10.8481 44.854C 10.8689 44.7884 10.9235 44.6249 11.0326 44.4292C 11.089 44.3278 11.1839 44.1744 11.3294 44.0084C 11.4715 43.8463 11.7159 43.6104 12.0838 43.4264L 14.3199 47.8986ZM 15.9006 42.4525C 16.4109 39.427 17.1335 36.5932 18.118 33.6701L 13.3796 32.0742C 12.3152 35.2343 11.5264 38.3236 10.9702 41.6209L 15.9006 42.4525ZM 18.118 33.6701C 19.4073 29.8421 21.0533 26.2579 22.6658 22.3327C 24.247 18.4838 25.7399 14.4257 26.4882 10.0239L 21.5589 9.1859C 20.9057 13.0286 19.5849 16.6742 18.0409 20.4328C 16.5281 24.1151 14.7376 28.0422 13.3796 32.0742L 18.118 33.6701ZM 26.4882 10.0239C 26.571 9.53684 26.6141 8.70727 26.6375 8.32486C 26.6548 8.04226 26.6629 7.94973 26.662 7.95704C 26.6605 7.96826 26.6567 7.99634 26.6499 8.03503C 26.6446 8.06489 26.6291 8.15011 26.5979 8.25991C 26.5822 8.31516 26.5527 8.41209 26.504 8.52929C 26.4649 8.62328 26.3612 8.86077 26.1568 9.11853C 25.9864 9.33342 25.4285 9.96201 24.4273 10.0533C 23.3314 10.1532 22.6211 9.54155 22.3527 9.24608C 22.085 8.95153 21.9557 8.66514 21.9111 8.56221C 21.8533 8.42848 21.8195 8.31765 21.8024 8.25713C 21.7681 8.13584 21.7521 8.04177 21.747 8.01129C 21.7353 7.94097 21.7323 7.89894 21.734 7.91824L 26.7135 7.46556C 26.708 7.40504 26.6979 7.30319 26.6793 7.19114C 26.6707 7.13979 26.6513 7.02939 26.6136 6.89606C 26.5948 6.82952 26.5593 6.71374 26.4997 6.57611C 26.4535 6.46927 26.3225 6.18002 26.0532 5.88362C 25.783 5.5863 25.0711 4.97386 23.9735 5.07391C 22.9706 5.16531 22.411 5.79504 22.239 6.01203C 21.8984 6.44162 21.791 6.8839 21.788 6.89443C 21.7304 7.09713 21.7087 7.27438 21.7043 7.30805C 21.6771 7.51542 21.6589 7.82254 21.6469 8.01898C 21.6315 8.27069 21.6166 8.52625 21.5989 8.76394C 21.5902 8.8808 21.5817 8.98102 21.5734 9.06246C 21.5645 9.15049 21.5588 9.18665 21.5589 9.1859L 26.4882 10.0239ZM 21.734 7.91824C 21.8366 9.04675 22.25 10.0451 22.5731 10.7579C 22.9605 11.6123 23.1866 12.0158 23.3684 12.5298L 28.0821 10.8619C 27.8071 10.085 27.3451 9.17438 27.1271 8.69357C 26.8449 8.07104 26.736 7.71288 26.7135 7.46556L 21.734 7.91824ZM 23.3684 12.5298C 25.4719 18.4742 27.7882 24.1657 28.7535 29.9577L 33.6855 29.1357C 32.6264 22.7807 30.0706 16.4816 28.0821 10.8619L 23.3684 12.5298ZM 28.7535 29.9577C 29.1693 32.4523 29.6614 36.1594 30.9548 39.0187L 35.5104 36.9579C 34.5573 34.8512 34.1607 31.9869 33.6855 29.1357L 28.7535 29.9577ZM 30.9548 39.0187C 30.9294 38.9625 30.9186 38.9312 31.0012 39.152C 31.0543 39.2939 31.1317 39.4984 31.2201 39.7073C 31.2996 39.8955 31.4281 40.1847 31.595 40.4587C 31.6732 40.5871 31.8249 40.8221 32.0561 41.055C 32.204 41.2041 32.8532 41.8452 33.9222 41.8452L 33.9222 36.8452C 34.4562 36.8452 34.8663 37.0182 35.1122 37.1578C 35.3556 37.296 35.5189 37.4461 35.6055 37.5335C 35.772 37.7013 35.8562 37.8429 35.8654 37.8581C 35.8944 37.9057 35.8799 37.8893 35.8255 37.7606C 35.7799 37.6528 35.7326 37.5293 35.6842 37.3999C 35.6642 37.3466 35.6349 37.2674 35.615 37.2147C 35.6018 37.1798 35.5591 37.0656 35.5104 36.9579L 30.9548 39.0187ZM 33.9222 41.8452C 35.4795 41.8452 36.1205 40.5714 36.169 40.4794C 36.3286 40.1763 36.3959 39.9015 36.4207 39.7958C 36.4801 39.5417 36.5063 39.2897 36.5204 39.1303C 36.5516 38.7759 36.5644 38.3518 36.5706 37.9846C 36.577 37.6037 36.577 37.2226 36.5764 36.9363C 36.5756 36.5382 36.5772 36.5131 36.5706 36.5993L 31.5851 36.2187C 31.5771 36.3241 31.5765 36.4269 31.5763 36.442C 31.5758 36.4861 31.5757 36.5359 31.5757 36.5844C 31.5756 36.6805 31.5761 36.8118 31.5764 36.9466C 31.577 37.2272 31.5768 37.5693 31.5713 37.9006C 31.5655 38.2457 31.5545 38.5228 31.5396 38.6917C 31.5306 38.7939 31.5282 38.759 31.5522 38.6566C 31.5592 38.6267 31.607 38.4115 31.7453 38.1489C 31.8145 38.0175 31.973 37.7441 32.2694 37.4778C 32.5916 37.1883 33.1557 36.8452 33.9222 36.8452L 33.9222 41.8452ZM 36.5706 36.5993C 36.9755 31.296 38.4433 26.161 40.1237 20.8227C 41.7795 15.5628 43.6674 10.0379 44.6705 4.32016L 39.7457 3.45617C 38.8146 8.76342 37.066 13.8845 35.3545 19.3214C 33.6677 24.6799 32.0375 30.2929 31.5851 36.2187L 36.5706 36.5993ZM 44.6705 4.32016C 44.8828 3.11026 45.1419 1.66858 45.1419 0.151164L 40.1419 0.151164C 40.1419 1.16179 39.9702 2.17661 39.7457 3.45617L 44.6705 4.32016ZM 45.1419 0.151164C 45.1419 0.129209 45.1429 0.179801 45.1355 0.26433C 45.1322 0.301532 45.1218 0.412874 45.0899 0.556858C 45.089 0.56114 44.9905 1.13344 44.5287 1.65651C 44.2298 1.99503 43.6202 2.48053 42.7099 2.49946C 41.8601 2.51714 41.2818 2.11211 41.0324 1.89785C 40.5947 1.52177 40.4121 1.08828 40.4023 1.06711C 40.3469 0.947853 40.3152 0.853132 40.304 0.818858C 40.2896 0.775178 40.2808 0.743169 40.2773 0.730231C 40.2753 0.722816 40.2974 0.825324 40.3588 1.15333C 40.4384 1.5785 40.6122 2.56681 40.8176 3.15027L 45.5338 1.48965C 45.5404 1.50828 45.5307 1.48255 45.5074 1.38921C 45.4863 1.30469 45.462 1.19708 45.4349 1.06781C 45.38 0.805537 45.3266 0.517435 45.2733 0.232726C 45.2322 0.0132471 45.1672 -0.341304 45.1037 -0.575844C 45.0929 -0.61571 45.0405 -0.815994 44.9376 -1.03778C 44.9218 -1.07187 44.7336 -1.51415 44.2908 -1.89462C 44.0389 -2.11107 43.4581 -2.51718 42.606 -2.49946C 41.6934 -2.48048 41.0816 -1.9938 40.7806 -1.65292C 40.3146 -1.12513 40.2125 -0.543446 40.2083 -0.524814C 40.1733 -0.366481 40.1602 -0.235836 40.1548 -0.174102C 40.143 -0.0405104 40.1419 0.0800552 40.1419 0.151164L 45.1419 0.151164ZM 40.8176 3.15027C 42.3934 7.62545 43.5344 11.648 43.9095 16.2158L 48.8927 15.8066C 48.467 10.6215 47.17 6.13652 45.5338 1.48965L 40.8176 3.15027ZM 43.9095 16.2158C 44.6054 24.6909 44.6029 33.4027 44.1931 41.9617L 49.1874 42.2008C 49.6045 33.4891 49.6109 24.5525 48.8927 15.8066L 43.9095 16.2158ZM 44.1931 41.9617C 44.1345 43.1866 44.124 45.5572 44.1267 47.2725C 44.128 48.142 44.1328 48.8728 44.1374 49.2458C 44.1385 49.3373 44.1398 49.4174 44.1412 49.4749C 44.1415 49.4901 44.1429 49.5493 44.1466 49.6099C 44.1474 49.6241 44.1505 49.6741 44.1575 49.7369C 44.1603 49.7622 44.1691 49.8406 44.1883 49.9395C 44.1995 49.9939 44.2343 50.1344 44.2598 50.2198C 44.3143 50.3738 44.5602 50.8465 44.7873 51.1388C 45.5472 51.7104 47.5041 51.81 48.391 51.25C 48.6682 50.9284 48.961 50.3987 49.0228 50.228C 49.0972 49.9964 49.1197 49.8018 49.1211 49.7914C 49.134 49.6939 49.1383 49.6154 49.1389 49.605C 49.1461 49.4825 49.1458 49.2277 49.1458 48.9991L 44.1458 48.9991C 44.1458 49.347 44.1434 49.3804 44.1475 49.3118C 44.1479 49.3048 44.1519 49.2288 44.1647 49.1328C 44.1659 49.1232 44.1883 48.9291 44.2627 48.6979C 44.3244 48.5273 44.6171 47.9978 44.8942 47.6762C 45.7812 47.1162 47.738 47.2159 48.4978 47.7873C 48.7248 48.0796 48.9707 48.5522 49.0251 48.706C 49.0506 48.7913 49.0853 48.9315 49.0965 48.9856C 49.1156 49.084 49.1243 49.1616 49.127 49.1859C 49.1337 49.2468 49.1366 49.2939 49.1372 49.3043C 49.14 49.3499 49.1404 49.3804 49.1397 49.3538C 49.1391 49.3279 49.1381 49.2729 49.137 49.1841C 49.1328 48.8361 49.128 48.1251 49.1267 47.2648C 49.124 45.5205 49.1358 43.2792 49.1874 42.2008L 44.1931 41.9617Z"/>
<path id="path1_stroke" d="M -0.225145 -0.494968C -1.60025 -0.370623 -2.61419 0.844918 -2.48984 2.22002C -2.3655 3.59512 -1.14996 4.60906 0.225145 4.48471L -0.225145 -0.494968ZM 52.1178 0.0596407L 52.1563 -2.44006L 52.1178 0.0596407ZM 72.2487 1.1496L 72.5452 -1.33275L 72.2487 1.1496ZM 76.7865 2.01712L 76.025 4.39834L 76.7865 2.01712ZM 77.2981 2.39527L 75.218 1.00852L 75.218 1.00852L 77.2981 2.39527ZM 71.8483 2.62883L 71.9809 5.12531L 71.8483 2.62883ZM 64.7747 3.60757L 65.2402 6.06385L 64.7747 3.60757ZM 44.3991 7.87843L 43.861 5.43704L 44.3991 7.87843ZM 8.61957 15.2968L 8.98034 17.7707L 8.61957 15.2968ZM 3.04744 15.408L 3.30915 17.8943L 3.04744 15.408ZM 3.65915 15.6527L 4.38866 13.2615L 4.38866 13.2615L 3.65915 15.6527ZM 8.77528 17.2432L 9.49875 14.8501L 8.77528 17.2432ZM 37.0141 24.4169L 36.4136 26.8437L 37.0141 24.4169ZM 57.0338 29.0881L 57.6075 26.6549L 57.0338 29.0881ZM 61.1378 30.0224L 60.1224 32.3069L 61.1378 30.0224ZM 59.4139 30.2226L 59.4015 27.7226L 59.4139 30.2226ZM 30.808 33.5369L 31.2794 35.9921L 30.808 33.5369ZM 20.0419 36.184L 19.2679 33.8068L 20.0419 36.184ZM 17.2315 34.7489C 16.0827 35.5148 15.7723 37.067 16.5381 38.2158C 17.304 39.3646 18.8562 39.6751 20.005 38.9092L 17.2315 34.7489ZM 0.225145 4.48471C 17.4886 2.92366 34.7387 2.29257 52.0794 2.55934L 52.1563 -2.44006C 34.6425 -2.70951 17.2163 -2.07212 -0.225145 -0.494968L 0.225145 4.48471ZM 52.0794 2.55934C 58.7868 2.66254 65.4139 2.85087 71.9521 3.63195L 72.5452 -1.33275C 65.7304 -2.14687 58.8809 -2.33661 52.1563 -2.44006L 52.0794 2.55934ZM 71.9521 3.63195C 73.1212 3.77161 74.9685 4.06049 76.025 4.39834L 77.5479 -0.364103C 75.9963 -0.86025 73.7317 -1.19101 72.5452 -1.33275L 71.9521 3.63195ZM 76.025 4.39834C 76.1775 4.4471 76.0925 4.42893 75.9594 4.35589C 75.9293 4.33937 75.5523 4.14581 75.238 3.69001C 75.0537 3.42271 74.8423 2.99299 74.8201 2.42961C 74.7971 1.84555 74.9867 1.35535 75.218 1.00852L 79.3782 3.78202C 79.6389 3.39107 79.8409 2.85799 79.8162 2.23241C 79.7923 1.6275 79.5653 1.15761 79.3543 0.851641C 78.9867 0.318488 78.5124 0.0535283 78.3649 -0.0273967C 77.9971 -0.229257 77.5974 -0.348277 77.5479 -0.364103L 76.025 4.39834ZM 75.218 1.00852C 75.6166 0.410633 76.1377 0.252455 76.1453 0.249849C 76.2262 0.222118 76.2216 0.235057 76.0728 0.251808C 75.7855 0.284155 75.34 0.291672 74.771 0.273246C 74.2201 0.255406 73.6535 0.217432 73.1335 0.18321C 72.7174 0.155828 72.1063 0.111608 71.7157 0.132346L 71.9809 5.12531C 71.9392 5.12752 71.976 5.12422 72.1703 5.13374C 72.3371 5.14191 72.5458 5.15535 72.8051 5.17242C 73.3055 5.20535 73.9592 5.24958 74.6092 5.27063C 75.241 5.29109 75.977 5.29418 76.6322 5.22042C 76.9546 5.18412 77.3614 5.11859 77.7667 4.97967C 78.0986 4.86588 78.857 4.56381 79.3782 3.78202L 75.218 1.00852ZM 71.7157 0.132346C 69.1537 0.268381 66.6557 0.706593 64.3092 1.15129L 65.2402 6.06385C 67.5703 5.62226 69.7822 5.24205 71.9809 5.12531L 71.7157 0.132346ZM 64.3092 1.15129C 57.4503 2.45116 50.6338 3.9441 43.861 5.43704L 44.9373 10.3198C 51.7156 8.82568 58.464 7.34805 65.2402 6.06385L 64.3092 1.15129ZM 43.861 5.43704C 31.8721 8.07975 20.1879 11.0833 8.2588 12.823L 8.98034 17.7707C 21.1475 15.9963 33.1734 12.9129 44.9373 10.3198L 43.861 5.43704ZM 8.2588 12.823C 7.58219 12.9217 6.85721 12.9126 5.91321 12.882C 5.03742 12.8536 3.91552 12.8029 2.78572 12.9218L 3.30915 17.8943C 4.02424 17.819 4.76436 17.8474 5.75139 17.8794C 6.6702 17.9091 7.80885 17.9415 8.98034 17.7707L 8.2588 12.823ZM 2.78572 12.9218C 2.69636 12.9312 2.48615 12.9565 2.23563 13.0388C 2.12827 13.0741 1.28406 13.3314 0.796268 14.2465C 0.112613 15.529 0.766928 16.6367 1.04923 16.9912C 1.32372 17.3358 1.62312 17.5216 1.70517 17.5724C 2.03665 17.7777 2.39998 17.8861 2.41647 17.8914C 2.55457 17.9365 3.01138 18.0689 2.92963 18.0439L 4.38866 13.2615C 4.09686 13.1725 4.13861 13.194 3.96877 13.1385C 3.83129 13.0936 4.06742 13.1542 4.3375 13.3215C 4.4042 13.3628 4.69237 13.5397 4.96034 13.8762C 5.23613 14.2224 5.88865 15.3227 5.20853 16.5985C 4.72427 17.507 3.88893 17.7585 3.79638 17.789C 3.56067 17.8664 3.37121 17.8878 3.30915 17.8943L 2.78572 12.9218ZM 2.92963 18.0439C 4.48678 18.519 6.43087 19.1462 8.05181 19.6362L 9.49875 14.8501C 7.70093 14.3066 6.2478 13.8287 4.38866 13.2615L 2.92963 18.0439ZM 8.05181 19.6362C 17.4113 22.4658 27.1112 24.5419 36.4136 26.8437L 37.6146 21.9901C 28.1015 19.6362 18.6969 17.631 9.49875 14.8501L 8.05181 19.6362ZM 36.4136 26.8437C 43.0719 28.4912 49.8603 29.9654 56.4601 31.5214L 57.6075 26.6549C 50.8684 25.066 44.2599 23.6344 37.6146 21.9901L 36.4136 26.8437ZM 56.4601 31.5214C 57.1902 31.6936 58.1136 31.8261 58.6693 31.9255C 59.3425 32.046 59.7969 32.1622 60.1224 32.3069L 62.1531 27.7379C 61.2487 27.3359 60.2978 27.1375 59.5497 27.0037C 58.6842 26.8488 58.1707 26.7876 57.6075 26.6549L 56.4601 31.5214ZM 60.1224 32.3069C 60.0763 32.2864 59.9033 32.2087 59.7001 32.0544C 59.5822 31.9649 58.9396 31.4778 58.7753 30.5216C 58.5619 29.2797 59.2982 28.4646 59.672 28.1684C 60.0105 27.9002 60.3291 27.7977 60.4054 27.7731C 60.6844 27.6831 60.8471 27.6992 60.5715 27.7124C 60.2176 27.7293 59.7798 27.7207 59.4015 27.7226L 59.4262 32.7226C 59.6264 32.7216 60.3149 32.7304 60.8105 32.7067C 60.9597 32.6995 61.4779 32.6808 61.9402 32.5317C 62.0624 32.4923 62.416 32.3735 62.7771 32.0873C 63.1736 31.7732 63.9202 30.9384 63.7031 29.675C 63.5352 28.6974 62.8748 28.187 62.7237 28.0722C 62.4872 27.8927 62.2654 27.7877 62.1531 27.7379L 60.1224 32.3069ZM 59.4015 27.7226C 49.5334 27.7715 39.8351 29.2581 30.3366 31.0818L 31.2794 35.9921C 40.6792 34.1873 50.0209 32.7691 59.4262 32.7226L 59.4015 27.7226ZM 30.3366 31.0818C 26.6904 31.7819 22.9137 32.6198 19.2679 33.8068L 20.8159 38.5612C 24.1715 37.4686 27.7139 36.6767 31.2794 35.9921L 30.3366 31.0818ZM 19.2679 33.8068C 18.7016 33.9912 17.9356 34.2795 17.2315 34.7489L 20.005 38.9092C 20.1463 38.815 20.4065 38.6945 20.8159 38.5612L 19.2679 33.8068Z"/>
</defs>
</svg>
