<svg width="237" height="79" viewBox="0 0 237 79" version="1.1" xmlns="http://www.w3.org/2000/svg" xmlns:xlink="http://www.w3.org/1999/xlink">
<title>justscribblesword</title>
<desc>Created using Figma</desc>
<g id="Canvas" transform="translate(21231 -7212)">
<g id="justscribblesword">
<g id="Vector 5">
<use xlink:href="#path0_stroke" transform="translate(-21229.2 7213.94)"/>
</g>
<g id="Vector 6">
<use xlink:href="#path1_stroke" transform="translate(-21190.6 7245.57)"/>
</g>
<g id="Vector 7">
<use xlink:href="#path2_stroke" transform="translate(-21160.2 7247.17)"/>
</g>
<g id="Vector 8">
<use xlink:href="#path3_stroke" transform="translate(-21133.9 7248.5)"/>
</g>
<g id="Vector 9">
<use xlink:href="#path4_stroke" transform="translate(-21122.5 7220.25)"/>
</g>
<g id="Vector 10">
<use xlink:href="#path5_stroke" transform="translate(-21090 7223.39)"/>
</g>
<g id="Vector 11">
<use xlink:href="#path6_stroke" transform="translate(-21064.4 7228.1)"/>
</g>
<g id="Vector 12">
<use xlink:href="#path7_stroke" transform="translate(-21047 7248.12)"/>
</g>
<g id="Vector 13">
<use xlink:href="#path8_stroke" transform="translate(-21019.3 7253.73)"/>
</g>
</g>
</g>
<defs>
<path id="path0_stroke" d="M 23.6085 28.2788C 23.6085 29.1072 24.28 29.7788 25.1085 29.7788C 25.9369 29.7788 26.6085 29.1072 26.6085 28.2788L 23.6085 28.2788ZM 19.616 2.47287L 20.5369 1.28884L 19.616 2.47287ZM 1.5 58.0951C 1.5 57.2667 0.828427 56.5951 0 56.5951C -0.828427 56.5951 -1.5 57.2667 -1.5 58.0951L 1.5 58.0951ZM 26.6085 28.2788C 26.6085 26.1311 26.7538 23.8723 26.8556 21.4752C 26.956 19.1114 27.0112 16.6544 26.8081 14.2593C 26.4005 9.45376 24.9344 4.70912 20.5369 1.28884L 18.6951 3.6569C 22.1675 6.35765 23.4476 10.1357 23.8188 14.5128C 24.005 16.7089 23.9577 19.0083 23.8583 21.3479C 23.7603 23.6543 23.6085 26.0462 23.6085 28.2788L 26.6085 28.2788ZM 20.5369 1.28884C 18.6088 -0.210788 16.7658 -1.1015 14.9868 -1.39359C 13.1787 -1.69046 11.5389 -1.35123 10.0879 -0.564959C 7.29229 0.949902 5.27674 4.08371 3.71492 7.20734L 6.39821 8.54899C 7.93595 5.47349 9.6053 3.10867 11.5171 2.07268C 12.4198 1.58353 13.3893 1.38428 14.5008 1.56677C 15.6414 1.75405 17.0283 2.36056 18.6951 3.6569L 20.5369 1.28884ZM 3.71492 7.20734C 2.62643 9.38433 1.77179 12.6097 1.27902 16.148C 0.783002 19.7097 0.637283 23.7063 1.03581 27.4713C 1.43176 31.212 2.37879 34.8579 4.17231 37.6116C 6.00959 40.4325 8.7617 42.333 12.5542 42.333L 12.5542 39.333C 9.94805 39.333 8.07063 38.1001 6.68614 35.9744C 5.25789 33.7815 4.39089 30.6675 4.01914 27.1555C 3.64996 23.6677 3.78286 19.9186 4.25035 16.5618C 4.72109 13.1816 5.51484 10.3157 6.39821 8.54899L 3.71492 7.20734ZM 12.5542 42.333C 14.7557 42.333 17.3398 43.1515 19.8727 44.6199C 22.3926 46.0808 24.76 48.1272 26.5294 50.4446C 28.3048 52.7698 29.4152 55.2826 29.5737 57.6844C 29.7286 60.0305 28.987 62.3827 26.8376 64.5321L 28.9589 66.6534C 31.7143 63.898 32.7795 60.7028 32.5672 57.4868C 32.3587 54.3265 30.9284 51.2625 28.9138 48.624C 26.8932 45.9776 24.2215 43.6734 21.3774 42.0246C 18.5464 40.3833 15.4418 39.333 12.5542 39.333L 12.5542 42.333ZM 26.8376 64.5321C 25.2587 66.111 22.896 67.212 20.1289 67.75C 17.3735 68.2857 14.323 68.2406 11.4896 67.6273C 5.69924 66.3741 1.5 62.9894 1.5 58.0951L -1.5 58.0951C -1.5 65.1277 4.54741 69.1943 10.855 70.5594C 14.0705 71.2554 17.5318 71.3111 20.7015 70.6949C 23.8595 70.0809 26.8354 68.777 28.9589 66.6534L 26.8376 64.5321Z"/>
<path id="path1_stroke" d="M 16.9727 5.71352C 17.6427 6.20077 18.5808 6.05265 19.0681 5.38267C 19.5553 4.71269 19.4072 3.77457 18.7372 3.28731L 16.9727 5.71352ZM 0.592902 7.63897L 2.09059 7.72217L 0.592902 7.63897ZM 1.37754 24.901L 0.440498 26.0723L 0.440498 26.0723L 1.37754 24.901ZM 24.0628 26.4703C 24.0628 25.6419 23.3912 24.9703 22.5628 24.9703C 21.7344 24.9703 21.0628 25.6419 21.0628 26.4703L 24.0628 26.4703ZM 18.7372 3.28731C 15.5877 0.996731 11.1317 -1.36132 7.20903 -1.49409C 5.18662 -1.56254 3.16911 -1.03916 1.62654 0.535907C 0.110448 2.08394 -0.731163 4.4305 -0.904789 7.55576L 2.09059 7.72217C 2.24179 5.00054 2.9506 3.47152 3.76986 2.635C 4.56264 1.82552 5.66541 1.45539 7.10755 1.5042C 10.114 1.60595 13.9642 3.52552 16.9727 5.71352L 18.7372 3.28731ZM -0.904789 7.55576C -0.98433 8.9875 -1.40087 13.0034 -1.48459 16.6916C -1.52701 18.5602 -1.48984 20.4553 -1.27353 22.0353C -1.16551 22.8244 -1.0063 23.5859 -0.765479 24.2473C -0.533404 24.8848 -0.170997 25.5831 0.440498 26.0723L 2.31458 23.7297C 2.32296 23.7364 2.20304 23.6318 2.05351 23.221C 1.91272 22.8343 1.79101 22.3024 1.69874 21.6284C 1.51446 20.2823 1.47349 18.5722 1.51463 16.7596C 1.59804 13.0855 1.99541 9.43537 2.09059 7.72217L -0.904789 7.55576ZM 0.440498 26.0723C 0.94723 26.4777 1.46461 27.1635 2.07444 28.1395C 2.6094 28.9957 3.33287 30.2831 3.99784 31.2963C 5.38733 33.4135 7.41272 35.8167 10.7932 35.8167L 10.7932 32.8167C 9.06975 32.8167 7.82797 31.6646 6.50593 29.6502C 5.81514 28.5977 5.32177 27.6752 4.61866 26.5499C 3.99042 25.5444 3.24851 24.4769 2.31458 23.7297L 0.440498 26.0723ZM 10.7932 35.8167C 12.3125 35.8167 13.8857 35.8214 15.3536 35.6968C 16.821 35.5722 18.2903 35.3118 19.5975 34.7263C 20.936 34.1267 22.0943 33.1896 22.8956 31.7667C 23.6829 30.3688 24.0628 28.6141 24.0628 26.4703L 21.0628 26.4703C 21.0628 28.2783 20.7402 29.4803 20.2817 30.2945C 19.8372 31.0838 19.2062 31.6143 18.3711 31.9884C 17.5046 32.3765 16.4159 32.5958 15.0999 32.7075C 13.7844 32.8192 12.3489 32.8167 10.7932 32.8167L 10.7932 35.8167Z"/>
<path id="path2_stroke" d="M 1.5 2.90254C 1.5 2.07411 0.828427 1.40254 0 1.40254C -0.828427 1.40254 -1.5 2.07411 -1.5 2.90254L 1.5 2.90254ZM 1.56928 26.4417L 0.0715882 26.5249L 1.56928 26.4417ZM 6.27711 9.96429L 7.64783 10.5735L 6.27711 9.96429ZM 15.9204 2.00408C 16.2909 2.74505 17.1919 3.04538 17.9329 2.6749C 18.6739 2.30441 18.9742 1.4034 18.6037 0.662437L 15.9204 2.00408ZM -1.5 2.90254C -1.5 7.06036 -1.21054 11.062 -0.870982 14.9679C -0.529807 18.8923 -0.141691 22.6859 0.0715882 26.5249L 3.06697 26.3585C 2.85023 22.4571 2.4537 18.5725 2.11774 14.708C 1.78017 10.825 1.5 6.92729 1.5 2.90254L -1.5 2.90254ZM 0.0715882 26.5249C 0.142929 27.8091 0.389399 29.2894 0.711311 30.6252C 1.02759 31.9377 1.44703 33.2382 1.91257 34.1115C 2.03287 34.3371 2.17502 34.5704 2.34255 34.7805C 2.49659 34.9737 2.74843 35.2453 3.11453 35.4278C 3.54013 35.6398 4.12338 35.7226 4.69787 35.4382C 5.18483 35.1971 5.44864 34.7945 5.58485 34.5326C 5.8566 34.01 5.99153 33.3168 6.07404 32.5916C 6.16206 31.818 6.20784 30.8229 6.20784 29.5803L 3.20784 29.5803C 3.20784 30.7621 3.16367 31.6338 3.09328 32.2525C 3.05815 32.5612 3.01852 32.7884 2.98062 32.949C 2.94055 33.1188 2.91299 33.1681 2.92328 33.1483C 2.93013 33.1352 2.95932 33.0811 3.02134 33.0106C 3.08428 32.9392 3.19587 32.8343 3.36685 32.7496C 3.78358 32.5433 4.19999 32.6168 4.45238 32.7426C 4.64527 32.8387 4.7175 32.947 4.68825 32.9103C 4.67247 32.8905 4.62762 32.8273 4.5599 32.7002C 4.27336 32.1627 3.92444 31.1533 3.62782 29.9224C 3.33683 28.7149 3.12586 27.4186 3.06697 26.3585L 0.0715882 26.5249ZM 6.20784 29.5803C 6.20784 27.9243 6.13939 26.2258 6.08054 24.5598C 6.02125 22.8811 5.9712 21.2254 6.0014 19.5952C 6.06193 16.3273 6.44553 13.2787 7.64783 10.5735L 4.9064 9.35508C 3.46651 12.5948 3.06547 16.1085 3.00191 19.5396C 2.97006 21.2589 3.02311 22.9868 3.08241 24.6657C 3.14217 26.3574 3.20784 27.9906 3.20784 29.5803L 6.20784 29.5803ZM 7.64783 10.5735C 8.20203 9.32655 10.2187 6.03551 12.3821 3.70997C 13.4917 2.5172 14.4518 1.78818 15.1235 1.56373C 15.4179 1.46537 15.5233 1.50868 15.5378 1.51466C 15.552 1.52054 15.7117 1.58659 15.9204 2.00408L 18.6037 0.662437C 18.1766 -0.191742 17.5551 -0.897475 16.6843 -1.25763C 15.8136 -1.61767 14.93 -1.53463 14.1728 -1.28165C 12.7415 -0.803397 11.3483 0.416759 10.1856 1.66659C 7.80438 4.22623 5.60019 7.79404 4.9064 9.35508L 7.64783 10.5735Z"/>
<path id="path3_stroke" d="M 1.95283 0C 1.95283 -0.828427 1.28125 -1.5 0.452827 -1.5C -0.3756 -1.5 -1.04717 -0.828427 -1.04717 0L 1.95283 0ZM 2.92056 29.5887C 3.66153 29.9591 4.56254 29.6588 4.93303 28.9178C 5.30351 28.1769 5.00317 27.2759 4.26221 26.9054L 2.92056 29.5887ZM -1.04717 0C -1.04717 1.2725 -1.18149 3.45735 -1.30748 6.1934C -1.43158 8.88845 -1.54266 12.0428 -1.48374 15.1268C -1.42511 18.1958 -1.19749 21.2708 -0.617485 23.7839C -0.327327 25.0412 0.064411 26.2189 0.606123 27.2042C 1.14643 28.1871 1.88871 29.0727 2.92056 29.5887L 4.26221 26.9054C 3.95664 26.7526 3.59778 26.4188 3.23505 25.759C 2.87372 25.1017 2.56052 24.2136 2.30568 23.1093C 1.79567 20.8994 1.57301 18.0687 1.51571 15.0695C 1.4587 12.0854 1.56604 9.00916 1.68934 6.3314C 1.81076 3.69464 1.95283 1.36448 1.95283 0L -1.04717 0Z"/>
<path id="path4_stroke" d="M 1.5 0C 1.5 -0.828427 0.828427 -1.5 0 -1.5C -0.828427 -1.5 -1.5 -0.828427 -1.5 0L 1.5 0ZM 6.27711 43.9398L 4.77942 44.023L 6.27711 43.9398ZM 8.63103 34.5241L 7.69399 33.3528L 8.63103 34.5241ZM 21.1853 55.7094L 21.9137 57.0206L 21.9137 57.0206L 21.1853 55.7094ZM 9.18803 54.2539C 8.81755 53.513 7.91654 53.2126 7.17557 53.5831C 6.43461 53.9536 6.13427 54.8546 6.50475 55.5956L 9.18803 54.2539ZM -1.5 0C -1.5 7.66041 -0.102954 15.1345 1.36441 22.4204C 2.84087 29.7516 4.38188 36.8672 4.77942 44.023L 7.77481 43.8566C 7.36255 36.436 5.765 29.0757 4.30536 21.8281C 2.83661 14.5353 1.5 7.32764 1.5 0L -1.5 0ZM 4.77942 44.023C 4.82841 44.9048 4.82949 48.2891 4.81629 50.7845C 4.80974 52.0237 4.79997 52.9962 4.79232 53.2878C 4.7913 53.3263 4.79078 53.3339 4.79128 53.3252C 4.79147 53.3219 4.79216 53.3099 4.7936 53.2932C 4.79391 53.2896 4.79834 53.2322 4.81149 53.1597C 4.81271 53.153 4.83645 53.0032 4.91142 52.8307C 4.97192 52.7074 5.23321 52.3614 5.46424 52.1747C 5.98373 51.96 6.98371 52.1007 7.35527 52.3762C 7.4937 52.5383 7.65426 52.8127 7.694 52.9099C 7.7136 52.9665 7.74082 53.0611 7.74973 53.0984C 7.76524 53.1673 7.7722 53.2217 7.77442 53.2395C 7.78522 53.3256 7.78472 53.3969 7.78314 53.3311C 7.78258 53.3081 7.78194 53.2699 7.78131 53.2126C 7.77876 52.9833 7.77711 52.5281 7.77711 51.7862L 4.77711 51.7862C 4.77711 52.5273 4.77873 52.9979 4.78149 53.246C 4.78218 53.3081 4.78299 53.3611 4.784 53.4032C 4.78449 53.4237 4.78516 53.447 4.78614 53.47C 4.78631 53.4741 4.78853 53.5393 4.7977 53.6125C 4.80015 53.632 4.80733 53.6878 4.82306 53.7577C 4.83208 53.7954 4.85941 53.8904 4.87912 53.9474C 4.91898 54.0449 5.07965 54.3195 5.21819 54.4817C 5.58986 54.7573 6.58995 54.8981 7.10956 54.6833C 7.3407 54.4965 7.60211 54.1503 7.66272 54.0267C 7.73792 53.8537 7.76189 53.703 7.76334 53.695C 7.77695 53.62 7.78185 53.5586 7.78263 53.5495C 7.78453 53.5273 7.7857 53.5084 7.78638 53.4967C 7.78879 53.4544 7.79026 53.4056 7.79128 53.3665C 7.79994 53.0367 7.80975 52.0293 7.81625 50.8003C 7.82916 48.3593 7.83024 44.8544 7.77481 43.8566L 4.77942 44.023ZM 7.77711 51.7862C 7.77711 50.067 7.72672 46.3318 7.99014 42.7644C 8.12205 40.978 8.32913 39.2909 8.64362 37.9524C 8.80087 37.2831 8.97568 36.742 9.16032 36.3361C 9.35295 35.9128 9.50863 35.743 9.56808 35.6954L 7.69399 33.3528C 7.11353 33.8172 6.71571 34.4651 6.42966 35.0938C 6.13562 35.7401 5.90656 36.4856 5.72315 37.2662C 5.35632 38.8275 5.1349 40.6933 4.99828 42.5434C 4.72466 46.249 4.77711 50.1209 4.77711 51.7862L 7.77711 51.7862ZM 9.56808 35.6954C 10.8955 34.6335 12.87 34.2426 15.3345 34.1985C 16.5412 34.1769 17.7912 34.2377 19.0562 34.3075C 20.3 34.3761 21.5787 34.4549 22.7545 34.4549L 22.7545 31.4549C 21.6823 31.4549 20.5052 31.3829 19.2214 31.312C 17.9587 31.2424 16.6094 31.1752 15.2808 31.199C 12.6749 31.2456 9.83572 31.6394 7.69399 33.3528L 9.56808 35.6954ZM 22.7545 34.4549C 24.1091 34.4549 24.8869 34.8193 25.3778 35.2663C 25.8952 35.7375 26.2699 36.4612 26.5062 37.4808C 26.7429 38.5019 26.8128 39.6967 26.8138 40.9769C 26.8143 41.6113 26.7982 42.2463 26.7813 42.879C 26.7647 43.5038 26.747 44.1343 26.747 44.7244L 29.747 44.7244C 29.747 44.1829 29.7633 43.5968 29.7803 42.959C 29.7971 42.3292 29.8144 41.6556 29.8138 40.9745C 29.8128 39.6235 29.7429 38.1588 29.4287 36.8034C 29.1142 35.4464 28.5268 34.0765 27.3978 33.0482C 26.2421 31.9958 24.689 31.4549 22.7545 31.4549L 22.7545 34.4549ZM 26.747 44.7244C 26.747 48.287 26.4562 49.7384 25.7466 50.7509C 25.388 51.2625 24.8596 51.7476 23.9932 52.3299C 23.1133 52.9212 21.9829 53.5503 20.4568 54.3982L 21.9137 57.0206C 23.3994 56.1952 24.6576 55.4979 25.6665 54.8199C 26.6889 54.1328 27.5494 53.4057 28.2033 52.4726C 29.5187 50.5957 29.747 48.2279 29.747 44.7244L 26.747 44.7244ZM 20.4568 54.3982C 19.9981 54.653 19.1089 54.9282 17.8875 55.1254C 16.7037 55.3166 15.3369 55.4144 14.0113 55.3887C 12.6752 55.3627 11.4494 55.2126 10.5217 54.944C 9.50328 54.6492 9.22301 54.3239 9.18803 54.2539L 6.50475 55.5956C 7.13493 56.8559 8.51044 57.485 9.68758 57.8257C 10.9555 58.1928 12.465 58.3592 13.9532 58.3881C 15.4519 58.4172 16.9983 58.3078 18.3658 58.087C 19.6957 57.8723 20.9959 57.5306 21.9137 57.0206L 20.4568 54.3982Z"/>
<path id="path5_stroke" d="M 2.01052 0C 2.01052 -0.828427 1.33894 -1.5 0.510516 -1.5C -0.317911 -1.5 -0.989484 -0.828427 -0.989484 0L 2.01052 0ZM 0.597698 19.616L -0.866583 19.9414L 0.597698 19.616ZM 5.13117 33.7395L 6.59545 33.4141L 5.13117 33.7395ZM 8.35691 47.0784L 9.8546 46.9952L 8.35691 47.0784ZM 11.4955 53.4248C 10.667 53.4248 9.99547 54.0963 9.99547 54.9248C 9.99547 55.7532 10.667 56.4248 11.4955 56.4248L 11.4955 53.4248ZM -0.989484 0C -0.989484 2.86494 -1.28482 6.16902 -1.42914 9.73732C -1.56948 13.2071 -1.55774 16.8312 -0.866583 19.9414L 2.06198 19.2906C 1.46121 16.5871 1.42936 13.2966 1.56841 9.85856C 1.70348 6.51901 2.01052 2.92193 2.01052 0L -0.989484 0ZM -0.866583 19.9414C -0.309317 22.4491 0.596741 24.8804 1.45785 27.1979C 2.33197 29.5505 3.16126 31.7896 3.66689 34.0649L 6.59545 33.4141C 6.03752 30.9034 5.13118 28.4707 4.27 26.153C 3.39581 23.8003 2.56692 21.5628 2.06198 19.2906L -0.866583 19.9414ZM 3.66689 34.0649C 4.14762 36.2282 4.92684 38.6083 5.56522 40.812C 6.2222 43.0799 6.75154 45.2234 6.85922 47.1616L 9.8546 46.9952C 9.72662 44.6915 9.11018 42.2674 8.44674 39.9773C 7.76471 37.6229 7.04889 35.4546 6.59545 33.4141L 3.66689 34.0649ZM 6.85922 47.1616C 6.93774 48.575 7.07853 49.9115 7.24854 50.9999C 7.40629 52.01 7.61776 53.0123 7.91202 53.6054C 7.98158 53.7456 8.1448 54.0546 8.45443 54.3C 8.62778 54.4375 8.91495 54.6085 9.3052 54.6461C 9.72175 54.6863 10.0866 54.5582 10.3551 54.3751C 10.7945 54.0754 10.9678 53.6404 11.0237 53.4948C 11.1055 53.2821 11.1592 53.0556 11.1982 52.8473C 11.3498 52.0377 11.4262 50.6613 11.4262 48.6476L 8.42619 48.6476C 8.42619 50.6612 8.3445 51.7874 8.24943 52.2951C 8.22677 52.4161 8.2133 52.4449 8.22338 52.4186C 8.22892 52.4042 8.25227 52.3449 8.30321 52.265C 8.34983 52.1918 8.46074 52.0358 8.66478 51.8966C 8.89354 51.7406 9.21784 51.6238 9.59312 51.66C 9.94208 51.6936 10.1873 51.8454 10.3181 51.9491C 10.4472 52.0515 10.5208 52.15 10.5501 52.1917C 10.5831 52.2389 10.5984 52.2701 10.5994 52.2721C 10.6004 52.274 10.5817 52.2348 10.5494 52.1344C 10.5189 52.0396 10.4837 51.914 10.4454 51.7554C 10.3688 51.4378 10.2891 51.0268 10.2126 50.537C 10.0598 49.5588 9.92832 48.3222 9.8546 46.9952L 6.85922 47.1616ZM 11.4262 48.6476C 11.4262 47.8059 11.3315 46.6622 11.2379 45.4838C 11.1417 44.272 11.0408 42.9629 11.0088 41.6864C 10.9767 40.4022 11.0166 39.2154 11.1812 38.2455C 11.3534 37.2313 11.6244 36.6908 11.8587 36.4566L 9.73735 34.3353C 8.83454 35.2381 8.42803 36.5391 8.22357 37.7434C 8.01157 38.992 7.97567 40.4007 8.00979 41.7616C 8.0441 43.1303 8.15165 44.516 8.24732 45.7212C 8.34564 46.9598 8.42619 47.9553 8.42619 48.6476L 11.4262 48.6476ZM 11.8587 36.4566C 12.2677 36.0476 13.012 35.6897 14.0647 35.5196C 15.0943 35.3532 16.276 35.3919 17.3891 35.6337C 18.5117 35.8777 19.4638 36.3057 20.1016 36.8314C 20.7175 37.3391 20.9804 37.8756 20.9804 38.4473L 23.9804 38.4473C 23.9804 36.7721 23.1392 35.4475 22.0098 34.5165C 20.9024 33.6037 19.4681 33.0155 18.0262 32.7022C 16.5749 32.3868 15.014 32.3272 13.5861 32.558C 12.1812 32.785 10.7529 33.3198 9.73735 34.3353L 11.8587 36.4566ZM 20.9804 38.4473C 20.9804 40.95 21.0106 43.1413 20.8822 45.0844C 20.7538 47.0268 20.473 48.566 19.9285 49.7648C 19.4068 50.9138 18.6299 51.7814 17.3925 52.3923C 16.1087 53.0261 14.2422 53.4248 11.4955 53.4248L 11.4955 56.4248C 14.4905 56.4248 16.8681 55.9968 18.7205 55.0823C 20.6194 54.1449 21.871 52.7428 22.6601 51.0053C 23.4264 49.3178 23.7387 47.3542 23.8756 45.2823C 24.0126 43.2111 23.9804 40.8767 23.9804 38.4473L 20.9804 38.4473Z"/>
<path id="path6_stroke" d="M 1.5 0C 1.5 -0.828427 0.828427 -1.5 0 -1.5C -0.828427 -1.5 -1.5 -0.828427 -1.5 0L 1.5 0ZM 4.85409 47.5527C 5.11606 48.3386 5.96554 48.7634 6.75146 48.5014C 7.53737 48.2394 7.96211 47.3899 7.70014 46.604L 4.85409 47.5527ZM -1.5 0C -1.5 16.6882 -0.370072 31.8802 4.85409 47.5527L 7.70014 46.604C 2.62495 31.3784 1.5 16.5588 1.5 0L -1.5 0Z"/>
<path id="path7_stroke" d="M 1.44911 17.7091C 0.620684 17.7091 -0.0508894 18.3807 -0.0508894 19.2091C -0.0508894 20.0376 0.620684 20.7091 1.44911 20.7091L 1.44911 17.7091ZM 3.10557 5.87025L 4.56985 6.19565L 3.10557 5.87025ZM 0.664471 27.0555L -0.272571 28.2268L -0.272571 28.2268L 0.664471 27.0555ZM 20.2805 33.2634C 21.1089 33.2634 21.7805 32.5918 21.7805 31.7634C 21.7805 30.9349 21.1089 30.2634 20.2805 30.2634L 20.2805 33.2634ZM 1.44911 20.7091C 4.25237 20.7091 7.06465 20.8003 9.54543 20.7171C 12.0449 20.6332 14.4342 20.3716 16.4995 19.589C 18.6162 18.7869 20.3874 17.4386 21.5946 15.2529C 22.7761 13.1139 23.3497 10.2955 23.3497 6.65489L 20.3497 6.65489C 20.3497 10.02 19.8129 12.2738 18.9686 13.8024C 18.1502 15.2841 16.9804 16.1986 15.4365 16.7837C 13.8411 17.3882 11.8501 17.638 9.4448 17.7187C 7.02082 17.8001 4.40397 17.7091 1.44911 17.7091L 1.44911 20.7091ZM 23.3497 6.65489C 23.3497 3.94559 21.9762 1.88993 20.0247 0.549535C 18.1155 -0.761798 15.6435 -1.41102 13.2057 -1.49141C 10.7619 -1.57199 8.20771 -1.08647 6.09606 0.031251C 3.97005 1.15658 2.21203 2.97655 1.64129 5.54486L 4.56985 6.19565C 4.90393 4.69228 5.94134 3.50748 7.49952 2.68272C 9.07205 1.85036 11.0908 1.44048 13.1068 1.50696C 15.1289 1.57364 17.0036 2.11395 18.3262 3.0224C 19.6065 3.90179 20.3497 5.09615 20.3497 6.65489L 23.3497 6.65489ZM 1.64129 5.54486C 1.28921 7.12922 0.114581 12.0412 -0.689746 16.7615C -1.09115 19.1171 -1.41094 21.4834 -1.48411 23.3984C -1.52049 24.3505 -1.49894 25.2547 -1.37297 26.0162C -1.26203 26.6868 -1.01407 27.6336 -0.272571 28.2268L 1.60151 25.8842C 1.79184 26.0365 1.68026 26.0915 1.58681 25.5266C 1.50838 25.0525 1.48068 24.3772 1.5137 23.513C 1.57933 21.7954 1.87294 19.5816 2.26763 17.2654C 3.05547 12.6419 4.20374 7.84316 4.56985 6.19565L 1.64129 5.54486ZM -0.272571 28.2268C 3.2151 31.017 6.13851 32.3184 9.39389 32.8805C 12.5289 33.4219 15.9748 33.2634 20.2805 33.2634L 20.2805 30.2634C 15.7474 30.2634 12.7069 30.4082 9.90437 29.9243C 7.22223 29.4611 4.75701 28.4086 1.60151 25.8842L -0.272571 28.2268Z"/>
<path id="path8_stroke" d="M 11.0799 2.51791C 11.8929 2.67657 12.6807 2.14604 12.8394 1.33294C 12.998 0.519851 12.4675 -0.267905 11.6544 -0.426557L 11.0799 2.51791ZM 6.65928 11.246L 7.83059 10.3089L 7.83059 10.3089L 6.65928 11.246ZM 20.0853 19.0924L 18.9013 20.0133L 20.0853 19.0924ZM 5.02073 26.1541C 5.02073 25.3257 4.34915 24.6541 3.52073 24.6541C 2.6923 24.6541 2.02073 25.3257 2.02073 26.1541L 5.02073 26.1541ZM 11.6544 -0.426557C 7.3283 -1.27067 4.27463 -1.62083 2.27376 -1.46287C 1.28839 -1.38508 0.332611 -1.17062 -0.390377 -0.632614C -1.23548 -0.00373042 -1.55935 0.907787 -1.49094 1.83395C -1.43104 2.64504 -1.0785 3.44887 -0.676822 4.16374C -0.259942 4.90567 0.299275 5.70451 0.927253 6.53224C 2.16099 8.15844 3.85662 10.1438 5.48798 12.183L 7.83059 10.3089C 6.09388 8.13806 4.53324 6.32178 3.31727 4.71902C 2.7204 3.93228 2.25642 3.25982 1.93859 2.69417C 1.60556 2.10148 1.51188 1.76146 1.50091 1.61297C 1.49705 1.5607 1.50839 1.59031 1.47924 1.65913C 1.46539 1.69185 1.44727 1.7213 1.42843 1.74469C 1.41013 1.76741 1.39775 1.77625 1.4006 1.77413C 1.44427 1.74163 1.71734 1.59039 2.50986 1.52782C 4.06477 1.40507 6.76305 1.67561 11.0799 2.51791L 11.6544 -0.426557ZM 5.48798 12.183C 7.40235 14.576 10.3097 15.4541 12.67 16.2728C 15.1718 17.1407 17.3323 17.996 18.9013 20.0133L 21.2694 18.1715C 19.1 15.3823 16.1357 14.2997 13.6531 13.4385C 11.029 12.5283 9.09255 11.8864 7.83059 10.3089L 5.48798 12.183ZM 18.9013 20.0133C 21.5155 23.3744 21.7205 26.1936 20.9256 28.3057C 20.0986 30.5033 18.0621 32.2791 15.5739 33.2079C 13.0811 34.1384 10.4 34.1199 8.42201 33.0719C 6.54714 32.0786 5.02073 30.0097 5.02073 26.1541L 2.02073 26.1541C 2.02073 30.9215 3.9967 34.1223 7.01748 35.7228C 9.93516 37.2687 13.5429 37.1682 16.623 36.0185C 19.7078 34.867 22.5284 32.5642 23.7334 29.3624C 24.9705 26.075 24.3825 22.174 21.2694 18.1715L 18.9013 20.0133Z"/>
</defs>
</svg>
