<svg width="219" height="74" viewBox="0 0 219 74" version="1.1" xmlns="http://www.w3.org/2000/svg" xmlns:xlink="http://www.w3.org/1999/xlink">
<title>linkedin</title>
<desc>Created using Figma</desc>
<g id="Canvas" transform="translate(20947 -7218)">
<g id="linkedin">
<g id="Vector 5">
<use xlink:href="#path0_stroke" transform="translate(-20945.2 7228.1)"/>
</g>
<g id="Vector 6">
<use xlink:href="#path1_stroke" transform="translate(-20902.8 7250.07)"/>
</g>
<g id="Vector 7">
<use xlink:href="#path2_stroke" transform="translate(-20891.8 7243.79)"/>
</g>
<g id="Vector 8">
<use xlink:href="#path3_stroke" transform="translate(-20860.4 7245.36)"/>
</g>
<g id="Vector 9">
<use xlink:href="#path4_stroke" transform="translate(-20855.2 7243.79)"/>
</g>
<g id="Vector 10">
<use xlink:href="#path5_stroke" transform="translate(-20833.7 7241.66)"/>
</g>
<g id="Vector 12">
<use xlink:href="#path6_stroke" transform="translate(-20769.4 7254.78)"/>
</g>
<g id="Vector 13">
<use xlink:href="#path7_stroke" transform="translate(-20753.7 7251.64)"/>
</g>
<g id="Vector 14">
<use xlink:href="#path8_stroke" transform="translate(-20804 7220.25)"/>
</g>
</g>
</g>
<defs>
<path id="path0_stroke" d="M 1.47224 -0.287266C 1.31358 -1.10036 0.525828 -1.63089 -0.287266 -1.47224C -1.10036 -1.31358 -1.63089 -0.525828 -1.47224 0.287266L 1.47224 -0.287266ZM 7.93358 52.4837L 6.45777 52.752L 7.93358 52.4837ZM 32.9549 53.2862C 33.7833 53.2862 34.4549 52.6146 34.4549 51.7862C 34.4549 50.9578 33.7833 50.2862 32.9549 50.2862L 32.9549 53.2862ZM -1.47224 0.287266C 0.218889 8.95428 1.40614 17.683 2.56919 26.4522C 3.73044 35.2078 4.86817 44.0092 6.45777 52.752L 9.40938 52.2153C 7.83536 43.5582 6.70729 34.8353 5.54315 26.0578C 4.3808 17.2939 3.18308 8.48081 1.47224 -0.287266L -1.47224 0.287266ZM 6.45777 52.752C 6.68282 53.9897 7.44166 54.8674 8.4167 55.4236C 9.34021 55.9504 10.4709 56.204 11.6213 56.317C 13.9288 56.5435 16.8353 56.2471 19.6873 55.7936C 22.5643 55.3361 25.5191 54.6953 27.9443 54.1788C 29.1661 53.9185 30.2443 53.6918 31.1299 53.5298C 32.048 53.3619 32.6453 53.2862 32.9549 53.2862L 32.9549 50.2862C 32.3389 50.2862 31.493 50.4137 30.5902 50.5788C 29.6549 50.7498 28.5344 50.9858 27.3194 51.2446C 24.8709 51.7661 21.9998 52.3882 19.2162 52.8309C 16.4076 53.2775 13.8189 53.5183 11.9145 53.3313C 10.9588 53.2375 10.3044 53.0466 9.9032 52.8178C 9.55357 52.6183 9.44825 52.4291 9.40938 52.2153L 6.45777 52.752Z"/>
<path id="path1_stroke" d="M 1.5 0C 1.5 -0.828427 0.828427 -1.5 0 -1.5C -0.828427 -1.5 -1.5 -0.828427 -1.5 0L 1.5 0ZM 4.35911 20.7494L 5.53041 19.8123L 5.53041 19.8123L 4.35911 20.7494ZM 7.91567 31.3856C 7.91567 32.214 8.58725 32.8856 9.41567 32.8856C 10.2441 32.8856 10.9157 32.214 10.9157 31.3856L 7.91567 31.3856ZM -1.5 0C -1.5 3.02711 -1.39047 7.07998 -0.772874 11.0192C -0.162683 14.9113 0.975453 18.921 3.1878 21.6864L 5.53041 19.8123C 3.82135 17.676 2.77993 14.3115 2.19092 10.5546C 1.60931 6.84482 1.5 2.97389 1.5 0L -1.5 0ZM 3.1878 21.6864C 4.00508 22.708 5.21708 24.5576 6.22145 26.5048C 6.72119 27.4736 7.15452 28.4379 7.45972 29.3114C 7.7726 30.2068 7.91567 30.9091 7.91567 31.3856L 10.9157 31.3856C 10.9157 30.4164 10.6491 29.3442 10.2918 28.3218C 9.9269 27.2774 9.42967 26.1803 8.88766 25.1295C 7.80852 23.0374 6.49223 21.0146 5.53041 19.8123L 3.1878 21.6864Z"/>
<path id="path2_stroke" d="M 1.47224 -0.287266C 1.31358 -1.10036 0.525828 -1.63089 -0.287266 -1.47224C -1.10036 -1.31358 -1.63089 -0.525828 -1.47224 0.287266L 1.47224 -0.287266ZM 6.62584 26.329L 8.06404 25.9029L 6.62584 26.329ZM 10.6362 1.22055L 9.69918 0.049247L 10.6362 1.22055ZM 17.6108 7.84639L 18.9815 7.23719L 18.9815 7.23719L 17.6108 7.84639ZM 20.4699 37.6627C 20.4699 38.4911 21.1415 39.1627 21.9699 39.1627C 22.7983 39.1627 23.4699 38.4911 23.4699 37.6627L 20.4699 37.6627ZM -1.47224 0.287266C -0.186489 6.87672 1.81071 13.0962 3.42897 19.1252C 5.0614 25.207 6.34639 31.2112 6.34639 37.6627L 9.34639 37.6627C 9.34639 30.8161 7.98086 24.5113 6.32642 18.3475C 4.65781 12.1309 2.73182 6.16809 1.47224 -0.287266L -1.47224 0.287266ZM 6.34639 37.6627C 6.34639 38.3707 6.33613 38.6048 6.3365 38.6018C 6.33692 38.5984 6.34644 38.5114 6.37922 38.3988C 6.39092 38.3586 6.4395 38.1896 6.5624 38.0023C 6.64243 37.8804 7.14036 37.1862 8.07283 37.3501C 8.45955 37.418 8.71659 37.6166 8.84761 37.7418C 8.98075 37.8689 9.06091 37.9929 9.10122 38.0611C 9.181 38.1961 9.21962 38.3117 9.2317 38.3486C 9.26078 38.4373 9.27259 38.5044 9.27348 38.5092C 9.27824 38.5348 9.27134 38.4971 9.25649 38.331C 9.20341 37.7373 9.12421 36.4319 9.01753 34.824C 8.91231 33.2381 8.78233 31.3922 8.63023 29.7777C 8.48408 28.2263 8.30368 26.7117 8.06404 25.9029L 5.18765 26.7551C 5.3276 27.2275 5.48958 28.4257 5.64346 30.059C 5.79138 31.6292 5.91909 33.4398 6.02411 35.0226C 6.12767 36.5834 6.21125 37.9588 6.2684 38.5981C 6.28111 38.7402 6.29848 38.9204 6.32415 39.0582C 6.33026 39.0911 6.34709 39.1797 6.38097 39.2831C 6.39545 39.3273 6.43642 39.4485 6.51851 39.5874C 6.55996 39.6575 6.64126 39.783 6.77552 39.9112C 6.90766 40.0374 7.16581 40.2367 7.55363 40.3048C 8.48829 40.4691 8.98835 39.7735 9.07047 39.6484C 9.19545 39.458 9.24606 39.284 9.25973 39.237C 9.29647 39.1108 9.30973 39.0029 9.31368 38.9711C 9.34224 38.7408 9.34639 38.2658 9.34639 37.6627L 6.34639 37.6627ZM 8.06404 25.9029C 7.41225 23.7031 6.55042 20.6417 5.85273 17.5777C 5.1479 14.4823 4.63856 11.5009 4.63856 9.41567L 1.63856 9.41567C 1.63856 11.861 2.21681 15.1222 2.9276 18.2437C 3.64552 21.3966 4.52734 24.5266 5.18765 26.7551L 8.06404 25.9029ZM 4.63856 9.41567C 4.63856 7.82933 4.84399 6.9219 5.09975 6.3705C 5.32945 5.87526 5.64048 5.57631 6.12043 5.29629C 6.70627 4.95449 7.32119 4.74798 8.35465 4.29411C 9.31216 3.87359 10.4176 3.31635 11.5733 2.39185L 9.69918 0.049247C 8.82431 0.749142 7.97734 1.18325 7.14832 1.54734C 6.39524 1.87807 5.38956 2.24943 4.60861 2.70507C 3.72177 3.22249 2.91982 3.94055 2.37824 5.10821C 1.86271 6.21969 1.63856 7.62105 1.63856 9.41567L 4.63856 9.41567ZM 11.5733 2.39185C 12.4413 1.69741 12.8291 1.78486 12.9338 1.81672C 13.1481 1.88193 13.514 2.14503 13.9751 2.90956C 14.4145 3.63821 14.7987 4.58209 15.172 5.60268C 15.52 6.55416 15.8872 7.66155 16.2401 8.4556L 18.9815 7.23719C 18.6832 6.56594 18.3944 5.67925 17.9894 4.57215C 17.6098 3.53414 17.144 2.35493 16.5441 1.36024C 15.9658 0.40143 15.1031 -0.659043 13.807 -1.05337C 12.4014 -1.48105 10.9971 -0.989108 9.69918 0.049247L 11.5733 2.39185ZM 16.2401 8.4556C 20.6465 18.37 20.4699 26.1477 20.4699 37.6627L 23.4699 37.6627C 23.4699 26.2308 23.6849 17.8197 18.9815 7.23719L 16.2401 8.4556Z"/>
<path id="path3_stroke" d="M 1.50859 0C 1.50859 -0.828427 0.837016 -1.5 0.00858926 -1.5C -0.819838 -1.5 -1.49141 -0.828427 -1.49141 0L 1.50859 0ZM 2.79842 21.9699L 1.4277 22.5791L 2.79842 21.9699ZM 5.03763 38.4947C 5.49716 39.184 6.42846 39.3703 7.11775 38.9108C 7.80705 38.4512 7.99331 37.5199 7.53378 36.8306L 5.03763 38.4947ZM -1.49141 0C -1.49141 7.57745 -1.8299 15.2495 1.4277 22.5791L 4.16914 21.3607C 1.22773 14.7425 1.50859 7.81512 1.50859 0L -1.49141 0ZM 1.4277 22.5791C 2.41348 24.7971 2.54774 27.3198 2.78383 30.1711C 3.00884 32.8886 3.33152 35.9356 5.03763 38.4947L 7.53378 36.8306C 6.31165 34.9974 6.00367 32.7022 5.7736 29.9236C 5.55459 27.2786 5.40934 24.1511 4.16914 21.3607L 1.4277 22.5791Z"/>
<path id="path4_stroke" d="M 7.2536 0C 7.2536 -0.828427 6.58203 -1.5 5.7536 -1.5C 4.92518 -1.5 4.2536 -0.828427 4.2536 0L 7.2536 0ZM 1.83041 19.616L 0.519171 18.8875L 1.83041 19.616ZM 15.1693 29.8163L 16.667 29.7331L 15.1693 29.8163ZM 16.8078 42.3705C 16.8078 43.199 17.4794 43.8705 18.3078 43.8705C 19.1363 43.8705 19.8078 43.199 19.8078 42.3705L 16.8078 42.3705ZM 4.2536 0C 4.2536 7.32465 3.77598 13.0253 0.519171 18.8875L 3.14164 20.3444C 6.78682 13.7831 7.2536 7.43275 7.2536 0L 4.2536 0ZM 0.519171 18.8875C -0.463143 20.6557 -1.12047 21.877 -1.35978 22.6161C -1.42295 22.8112 -1.50167 23.0999 -1.49997 23.4201C -1.49819 23.7571 -1.39614 24.3607 -0.833441 24.7834C -0.340487 25.1537 0.189388 25.1333 0.40527 25.1126C 0.657443 25.0885 0.887889 25.0207 1.04806 24.9677C 2.3993 24.521 4.08712 23.4699 6.53824 23.4699L 6.53824 20.4699C 3.4454 20.4699 0.741835 21.9093 0.106423 22.1193C 0.0182573 22.1485 0.0379448 22.1341 0.119379 22.1263C 0.164522 22.122 0.563678 22.0808 0.968377 22.3848C 1.44282 22.7412 1.49908 23.233 1.49999 23.4042C 1.5008 23.5586 1.46611 23.6274 1.49434 23.5402C 1.62057 23.1504 2.0865 22.2437 3.14164 20.3444L 0.519171 18.8875ZM 6.53824 23.4699C 9.627 23.4699 11.1564 23.7844 12.0404 24.5167C 12.8654 25.2 13.4868 26.5728 13.6716 29.8995L 16.667 29.7331C 16.4767 26.3088 15.8281 23.7585 13.9541 22.2063C 12.1392 20.7031 9.54054 20.4699 6.53824 20.4699L 6.53824 23.4699ZM 13.6716 29.8995C 13.8043 32.2882 14.6846 34.5904 15.4172 36.6059C 16.1847 38.7171 16.8078 40.5526 16.8078 42.3705L 19.8078 42.3705C 19.8078 39.9438 18.9796 37.6246 18.2367 35.581C 17.4591 33.4418 16.7701 31.5891 16.667 29.7331L 13.6716 29.8995Z"/>
<path id="path5_stroke" d="M 0 14.7535C -0.828427 14.7535 -1.5 15.4251 -1.5 16.2535C -1.5 17.082 -0.828427 17.7535 0 17.7535L 0 14.7535ZM 23.5392 5.26857L 22.4213 6.26877L 23.5392 5.26857ZM 3.9232 31.1617L 2.61196 31.8901L 3.9232 31.1617ZM 21.9006 36.6541C 21.9006 35.8257 21.2291 35.1541 20.4006 35.1541C 19.5722 35.1541 18.9006 35.8257 18.9006 36.6541L 21.9006 36.6541ZM 0 17.7535C 0.586151 17.7535 1.58108 17.8046 2.92376 17.8725C 4.2431 17.9391 5.84983 18.019 7.59528 18.0692C 11.0717 18.1693 15.1676 18.1547 18.7266 17.6678C 20.5054 17.4245 22.2077 17.0559 23.6552 16.4953C 25.0833 15.9421 26.4132 15.1445 27.2572 13.9475C 28.1536 12.6763 28.3692 11.145 27.8912 9.47738C 27.4329 7.8789 26.3437 6.15352 24.657 4.26838L 22.4213 6.26877C 23.9679 7.99735 24.7268 9.32555 25.0073 10.3041C 25.268 11.2134 25.113 11.7825 24.8054 12.2187C 24.4455 12.7291 23.7381 13.246 22.5716 13.6978C 21.4244 14.1421 19.9747 14.4691 18.32 14.6955C 15.0122 15.148 11.1156 15.1693 7.68159 15.0705C 5.97187 15.0213 4.39395 14.9429 3.07515 14.8763C 1.7797 14.8108 0.682998 14.7535 0 14.7535L 0 17.7535ZM 24.657 4.26838C 23.3937 2.85643 21.3732 1.57252 19.1622 0.589737C 16.9273 -0.403613 14.3571 -1.15207 11.8939 -1.40599C 9.46456 -1.65642 6.94393 -1.44496 4.97204 -0.29723C 2.87865 0.921213 1.63856 3.05747 1.63856 6.05321L 4.63856 6.05321C 4.63856 3.99846 5.4156 2.91576 6.48115 2.29556C 7.66819 1.60465 9.44831 1.3578 11.5862 1.57819C 13.6902 1.79509 15.9536 2.44659 17.9436 3.33113C 19.9574 4.22624 21.5529 5.29815 22.4213 6.26877L 24.657 4.26838ZM 1.63856 6.05321C 1.63856 8.09903 1.40409 10.1286 1.11035 12.2033C 0.821141 14.2459 0.464757 16.3884 0.262697 18.501C -0.147452 22.7891 0.0389182 27.2587 2.61196 31.8901L 5.23443 30.4332C 3.07416 26.5447 2.86821 22.7685 3.24907 18.7866C 3.44251 16.7641 3.77747 14.7656 4.08072 12.6238C 4.37944 10.514 4.63856 8.31584 4.63856 6.05321L 1.63856 6.05321ZM 2.61196 31.8901C 3.29605 33.1215 4.77465 34.6609 6.44862 36.0833C 8.16274 37.5398 10.2467 39.0123 12.289 40.0753C 14.2492 41.0955 16.4794 41.9047 18.3628 41.6132C 19.3865 41.4548 20.3442 40.9629 21.0098 40.0153C 21.6451 39.1106 21.9006 37.9517 21.9006 36.6541L 18.9006 36.6541C 18.9006 37.5976 18.7095 38.0707 18.5548 38.291C 18.4302 38.4683 18.2543 38.5943 17.904 38.6485C 17.0394 38.7823 15.5601 38.3958 13.6741 37.4142C 11.8703 36.4754 9.9715 35.14 8.39118 33.7971C 6.77072 32.4202 5.64322 31.169 5.23443 30.4332L 2.61196 31.8901Z"/>
<path id="path6_stroke" d="M 1.49958 -0.0357042C 1.47986 -0.863897 0.792488 -1.51929 -0.0357042 -1.49958C -0.863897 -1.47986 -1.51929 -0.792488 -1.49958 0.0357042L 1.49958 -0.0357042ZM 6.59832 32.2176C 7.05785 32.9069 7.98915 33.0932 8.67844 32.6337C 9.36774 32.1741 9.554 31.2428 9.09447 30.5535L 6.59832 32.2176ZM -1.49958 0.0357042C -1.38319 4.92369 -0.77315 10.8261 0.502734 16.5569C 1.77447 22.269 3.73068 27.9162 6.59832 32.2176L 9.09447 30.5535C 6.51663 26.6868 4.66396 21.4427 3.43104 15.9049C 2.20225 10.3857 1.61184 4.67946 1.49958 -0.0357042L -1.49958 0.0357042Z"/>
<path id="path7_stroke" d="M 1.5 0C 1.5 -0.828427 0.828427 -1.5 0 -1.5C -0.828427 -1.5 -1.5 -0.828427 -1.5 0L 1.5 0ZM 2.35392 7.84639L 3.29096 9.0177L 2.35392 7.84639ZM 19.616 9.41567L 18.6789 10.587L 19.616 9.41567ZM 20.7494 21.9699L 19.3786 22.5791L 20.7494 21.9699ZM 22.1975 35.195C 22.568 35.9359 23.469 36.2363 24.21 35.8658C 24.951 35.4953 25.2513 34.5943 24.8808 33.8533L 22.1975 35.195ZM -1.5 0C -1.5 5.49718 -1.10344 11.2814 -0.711727 16.8992C -0.318371 22.5404 0.0692787 28.0046 0.0692787 32.9549L 3.06928 32.9549C 3.06928 27.879 2.67229 22.302 2.28101 16.6905C 1.88808 11.0554 1.5 5.37534 1.5 0L -1.5 0ZM 0.0692787 32.9549C 0.0692787 32.9625 0.0692787 32.9701 0.0692787 32.9777C 0.0692787 32.9852 0.0692787 32.9927 0.0692787 33.0001C 0.0692787 33.0075 0.0692787 33.0149 0.0692787 33.0222C 0.0692787 33.0295 0.0692787 33.0368 0.0692787 33.0439C 0.0692787 33.0511 0.0692787 33.0583 0.0692787 33.0653C 0.0692787 33.0724 0.0692787 33.0794 0.0692787 33.0864C 0.0692787 33.0933 0.0692787 33.1002 0.0692787 33.107C 0.0692787 33.1139 0.0692787 33.1206 0.0692787 33.1273C 0.0692787 33.1341 0.0692787 33.1407 0.0692787 33.1473C 0.0692787 33.1539 0.0692787 33.1605 0.0692787 33.1669C 0.0692787 33.1734 0.0692787 33.1799 0.0692787 33.1862C 0.0692787 33.1926 0.0692787 33.1989 0.0692787 33.2051C 0.0692787 33.2114 0.0692787 33.2176 0.0692787 33.2237C 0.0692787 33.2299 0.0692787 33.2359 0.0692787 33.242C 0.0692787 33.248 0.0692787 33.2539 0.0692787 33.2598C 0.0692787 33.2658 0.0692787 33.2716 0.0692787 33.2774C 0.0692787 33.2832 0.0692787 33.2889 0.0692787 33.2946C 0.0692787 33.3003 0.0692787 33.3059 0.0692787 33.3115C 0.0692787 33.317 0.0692787 33.3225 0.0692787 33.328C 0.0692787 33.3334 0.0692787 33.3388 0.0692787 33.3442C 0.0692787 33.3495 0.0692787 33.3548 0.0692787 33.36C 0.0692787 33.3652 0.0692787 33.3704 0.0692787 33.3755C 0.0692787 33.3806 0.0692787 33.3857 0.0692787 33.3907C 0.0692787 33.3957 0.0692787 33.4006 0.0692787 33.4055C 0.0692787 33.4104 0.0692787 33.4153 0.0692787 33.42C 0.0692787 33.4248 0.0692787 33.4295 0.0692787 33.4342C 0.0692787 33.4389 0.0692787 33.4435 0.0692787 33.448C 0.0692787 33.4526 0.0692787 33.4571 0.0692787 33.4616C 0.0692787 33.466 0.0692787 33.4704 0.0692787 33.4747C 0.0692787 33.4791 0.0692787 33.4834 0.0692787 33.4876C 0.0692787 33.4918 0.0692787 33.496 0.0692787 33.5001C 0.0692787 33.5042 0.0692787 33.5083 0.0692787 33.5123C 0.0692787 33.5163 0.0692787 33.5203 0.0692787 33.5242C 0.0692787 33.5281 0.0692787 33.5319 0.0692787 33.5357C 0.0692787 33.5395 0.0692787 33.5433 0.0692787 33.5469C 0.0692787 33.5506 0.0692787 33.5543 0.0692787 33.5578C 0.0692787 33.5614 0.0692787 33.5649 0.0692787 33.5684C 0.0692787 33.5719 0.0692787 33.5753 0.0692787 33.5787C 0.0692787 33.582 0.0692787 33.5854 0.0692787 33.5886C 0.0692787 33.5919 0.0692787 33.5951 0.0692787 33.5982C 0.0692787 33.6014 0.0692787 33.6045 0.0692787 33.6075C 0.0692787 33.6106 0.0692787 33.6136 0.0692787 33.6165C 0.0692787 33.6195 0.0692787 33.6224 0.0692787 33.6252C 0.0692787 33.628 0.0692787 33.6308 0.0692787 33.6336C 0.0692787 33.6363 0.0692787 33.639 0.0692787 33.6416C 0.0692787 33.6442 0.0692787 33.6468 0.0692787 33.6493C 0.0692787 33.6519 0.0692787 33.6543 0.0692787 33.6568C 0.0692787 33.6592 0.0692787 33.6616 0.0692787 33.6639C 0.0692787 33.6662 0.0692787 33.6685 0.0692787 33.6707C 0.0692787 33.6729 0.0692787 33.6751 0.0692787 33.6772C 0.0692787 33.6793 0.0692787 33.6814 0.0692787 33.6834C 0.0692787 33.6854 0.0692787 33.6873 0.0692787 33.6893C 0.0692787 33.6912 0.0692787 33.693 0.0692787 33.6948C 0.0692787 33.6966 0.0692787 33.6984 0.0692787 33.7001C 0.0692787 33.7018 0.0692787 33.7035 0.0692787 33.7051C 0.0692787 33.7067 0.0692787 33.7083 0.0692787 33.7098C 0.0692787 33.7113 0.0692787 33.7127 0.0692787 33.7141C 0.0692787 33.7155 0.0692787 33.7169 0.0692787 33.7182C 0.0692787 33.7195 0.0692787 33.7208 0.0692787 33.722C 0.0692787 33.7232 0.0692787 33.7244 0.0692787 33.7255C 0.0692787 33.7266 0.0692787 33.7276 0.0692787 33.7286C 0.0692787 33.7297 0.0692787 33.7306 0.0692787 33.7315C 0.0692787 33.7324 0.0692787 33.7333 0.0692787 33.7341C 0.0692787 33.7349 0.0692787 33.7357 0.0692787 33.7364C 0.0692787 33.7371 0.0692787 33.7378 0.0692787 33.7384C 0.0692787 33.7391 0.0692787 33.7396 0.0692787 33.7402C 0.0692787 33.7407 0.0692787 33.7412 0.0692787 33.7416C 0.0692787 33.742 0.0692787 33.7424 0.0692787 33.7427C 0.0692787 33.7431 0.0692787 33.7433 0.0692787 33.7436C 0.0692787 33.7438 0.0692787 33.744 0.0692787 33.7441C 0.0692787 33.7443 0.0692787 33.7444 0.0692787 33.7444C 1.56928 33.7445 3.06928 33.7445 3.06928 33.7444C 3.06928 33.7444 3.06928 33.7443 3.06928 33.7441C 3.06928 33.744 3.06928 33.7438 3.06928 33.7436C 3.06928 33.7433 3.06928 33.743 3.06928 33.7427C 3.06928 33.7424 3.06928 33.742 3.06928 33.7416C 3.06928 33.7412 3.06928 33.7407 3.06928 33.7402C 3.06928 33.7397 3.06928 33.7391 3.06928 33.7385C 3.06928 33.7379 3.06928 33.7372 3.06928 33.7365C 3.06928 33.7358 3.06928 33.7351 3.06928 33.7343C 3.06928 33.7335 3.06928 33.7326 3.06928 33.7318C 3.06928 33.7309 3.06928 33.7299 3.06928 33.729C 3.06928 33.728 3.06928 33.727 3.06928 33.7259C 3.06928 33.7248 3.06928 33.7237 3.06928 33.7226C 3.06928 33.7214 3.06928 33.7202 3.06928 33.719C 3.06928 33.7177 3.06928 33.7164 3.06928 33.7151C 3.06928 33.7137 3.06928 33.7124 3.06928 33.7109C 3.06928 33.7095 3.06928 33.708 3.06928 33.7065C 3.06928 33.705 3.06928 33.7035 3.06928 33.7018C 3.06928 33.7002 3.06928 33.6986 3.06928 33.6969C 3.06928 33.6952 3.06928 33.6935 3.06928 33.6917C 3.06928 33.6899 3.06928 33.6881 3.06928 33.6862C 3.06928 33.6844 3.06928 33.6824 3.06928 33.6805C 3.06928 33.6785 3.06928 33.6765 3.06928 33.6745C 3.06928 33.6724 3.06928 33.6704 3.06928 33.6682C 3.06928 33.6661 3.06928 33.6639 3.06928 33.6617C 3.06928 33.6595 3.06928 33.6572 3.06928 33.6549C 3.06928 33.6526 3.06928 33.6503 3.06928 33.6479C 3.06928 33.6455 3.06928 33.6431 3.06928 33.6406C 3.06928 33.6382 3.06928 33.6356 3.06928 33.6331C 3.06928 33.6305 3.06928 33.6279 3.06928 33.6253C 3.06928 33.6226 3.06928 33.62 3.06928 33.6172C 3.06928 33.6145 3.06928 33.6117 3.06928 33.6089C 3.06928 33.6061 3.06928 33.6033 3.06928 33.6004C 3.06928 33.5975 3.06928 33.5946 3.06928 33.5916C 3.06928 33.5886 3.06928 33.5856 3.06928 33.5825C 3.06928 33.5795 3.06928 33.5764 3.06928 33.5732C 3.06928 33.5701 3.06928 33.5669 3.06928 33.5637C 3.06928 33.5605 3.06928 33.5572 3.06928 33.5539C 3.06928 33.5506 3.06928 33.5473 3.06928 33.5439C 3.06928 33.5405 3.06928 33.5371 3.06928 33.5336C 3.06928 33.5301 3.06928 33.5266 3.06928 33.5231C 3.06928 33.5195 3.06928 33.5159 3.06928 33.5123C 3.06928 33.5087 3.06928 33.505 3.06928 33.5013C 3.06928 33.4976 3.06928 33.4939 3.06928 33.4901C 3.06928 33.4863 3.06928 33.4825 3.06928 33.4786C 3.06928 33.4747 3.06928 33.4708 3.06928 33.4669C 3.06928 33.4629 3.06928 33.4589 3.06928 33.4549C 3.06928 33.4509 3.06928 33.4468 3.06928 33.4427C 3.06928 33.4386 3.06928 33.4345 3.06928 33.4303C 3.06928 33.4261 3.06928 33.4219 3.06928 33.4177C 3.06928 33.4134 3.06928 33.4091 3.06928 33.4048C 3.06928 33.4004 3.06928 33.3961 3.06928 33.3917C 3.06928 33.3873 3.06928 33.3828 3.06928 33.3783C 3.06928 33.3738 3.06928 33.3693 3.06928 33.3647C 3.06928 33.3602 3.06928 33.3556 3.06928 33.3509C 3.06928 33.3463 3.06928 33.3416 3.06928 33.3369C 3.06928 33.3322 3.06928 33.3274 3.06928 33.3227C 3.06928 33.3179 3.06928 33.313 3.06928 33.3082C 3.06928 33.3033 3.06928 33.2984 3.06928 33.2935C 3.06928 33.2885 3.06928 33.2836 3.06928 33.2785C 3.06928 33.2735 3.06928 33.2685 3.06928 33.2634C 3.06928 33.2583 3.06928 33.2532 3.06928 33.248C 3.06928 33.2429 3.06928 33.2377 3.06928 33.2324C 3.06928 33.2272 3.06928 33.2219 3.06928 33.2166C 3.06928 33.2113 3.06928 33.206 3.06928 33.2006C 3.06928 33.1952 3.06928 33.1898 3.06928 33.1844C 3.06928 33.1789 3.06928 33.1735 3.06928 33.1679C 3.06928 33.1624 3.06928 33.1569 3.06928 33.1513C 3.06928 33.1457 3.06928 33.14 3.06928 33.1344C 3.06928 33.1287 3.06928 33.123 3.06928 33.1173C 3.06928 33.1116 3.06928 33.1058 3.06928 33.1C 3.06928 33.0942 3.06928 33.0884 3.06928 33.0825C 3.06928 33.0766 3.06928 33.0707 3.06928 33.0648C 3.06928 33.0588 3.06928 33.0528 3.06928 33.0468C 3.06928 33.0408 3.06928 33.0348 3.06928 33.0287C 3.06928 33.0226 3.06928 33.0165 3.06928 33.0104C 3.06928 33.0042 3.06928 32.998 3.06928 32.9918C 3.06928 32.9856 3.06928 32.9794 3.06928 32.9731C 3.06928 32.9668 3.06928 32.9605 3.06928 32.9541C 3.06928 32.9478 3.06928 32.9414 3.06928 32.935C 3.06928 32.9285 3.06928 32.9221 3.06928 32.9156C 3.06928 32.9091 3.06928 32.9026 3.06928 32.8961C 3.06928 32.8895 3.06928 32.8829 3.06928 32.8763C 3.06928 32.8697 3.06928 32.863 3.06928 32.8564C 3.06928 32.8497 3.06928 32.843 3.06928 32.8362C 3.06928 32.8295 3.06928 32.8227 3.06928 32.8159C 3.06928 32.8091 3.06928 32.8022 3.06928 32.7954C 3.06928 32.7885 3.06928 32.7816 3.06928 32.7746C 3.06928 32.7677 3.06928 32.7607 3.06928 32.7537C 3.06928 32.7467 3.06928 32.7397 3.06928 32.7326C 3.06928 32.7255 3.06928 32.7184 3.06928 32.7113C 3.06928 32.7042 3.06928 32.697 3.06928 32.6898C 3.06928 32.6826 3.06928 32.6754 3.06928 32.6681C 3.06928 32.6609 3.06928 32.6536 3.06928 32.6463C 3.06928 32.639 3.06928 32.6316 3.06928 32.6242C 3.06928 32.6169 3.06928 32.6095 3.06928 32.602C 3.06928 32.5946 3.06928 32.5871 3.06928 32.5796C 3.06928 32.5721 3.06928 32.5646 3.06928 32.557C 3.06928 32.5494 3.06928 32.5418 3.06928 32.5342C 3.06928 32.5266 3.06928 32.519 3.06928 32.5113C 3.06928 32.5036 3.06928 32.4959 3.06928 32.4881C 3.06928 32.4804 3.06928 32.4726 3.06928 32.4648C 3.06928 32.457 3.06928 32.4492 3.06928 32.4413C 3.06928 32.4335 3.06928 32.4256 3.06928 32.4177C 3.06928 32.4097 3.06928 32.4018 3.06928 32.3938C 3.06928 32.3858 3.06928 32.3778 3.06928 32.3698C 3.06928 32.3618 3.06928 32.3537 3.06928 32.3456C 3.06928 32.3375 3.06928 32.3294 3.06928 32.3212C 3.06928 32.3131 3.06928 32.3049 3.06928 32.2967C 3.06928 32.2885 3.06928 32.2803 3.06928 32.272C 3.06928 32.2637 3.06928 32.2555 3.06928 32.2471C 3.06928 32.2388 3.06928 32.2305 3.06928 32.2221C 3.06928 32.2137 3.06928 32.2053 3.06928 32.1969C 3.06928 32.1885 3.06928 32.18 3.06928 32.1715C 3.06928 32.163 3.06928 32.1545 3.06928 32.146C 3.06928 32.1374 3.06928 32.1289 3.06928 32.1203C 3.06928 32.1117 3.06928 32.1031 3.06928 32.0944C 3.06928 32.0858 3.06928 32.0771 3.06928 32.0684C 3.06928 32.0597 3.06928 32.051 3.06928 32.0422C 3.06928 32.0335 3.06928 32.0247 3.06928 32.0159C 3.06928 32.0071 3.06928 31.9982 3.06928 31.9894C 3.06928 31.9805 3.06928 31.9716 3.06928 31.9627C 3.06928 31.9538 3.06928 31.9449 3.06928 31.9359C 3.06928 31.9269 3.06928 31.918 3.06928 31.9089C 3.06928 31.8999 3.06928 31.8909 3.06928 31.8818C 3.06928 31.8727 3.06928 31.8637 3.06928 31.8545C 3.06928 31.8454 3.06928 31.8363 3.06928 31.8271C 3.06928 31.8179 3.06928 31.8088 3.06928 31.7995C 3.06928 31.7903 3.06928 31.7811 3.06928 31.7718C 3.06928 31.7625 3.06928 31.7532 3.06928 31.7439C 3.06928 31.7346 3.06928 31.7253 3.06928 31.7159C 3.06928 31.7065 3.06928 31.6971 3.06928 31.6877C 3.06928 31.6783 3.06928 31.6689 3.06928 31.6594C 3.06928 31.65 3.06928 31.6405 3.06928 31.631C 3.06928 31.6214 3.06928 31.6119 3.06928 31.6024C 3.06928 31.5928 3.06928 31.5832 3.06928 31.5736C 3.06928 31.564 3.06928 31.5544 3.06928 31.5447C 3.06928 31.5351 3.06928 31.5254 3.06928 31.5157C 3.06928 31.506 3.06928 31.4963 3.06928 31.4865C 3.06928 31.4768 3.06928 31.467 3.06928 31.4572C 3.06928 31.4474 3.06928 31.4376 3.06928 31.4278C 3.06928 31.4179 3.06928 31.4081 3.06928 31.3982C 3.06928 31.3883 3.06928 31.3784 3.06928 31.3685C 3.06928 31.3585 3.06928 31.3486 3.06928 31.3386C 3.06928 31.3287 3.06928 31.3187 3.06928 31.3086C 3.06928 31.2986 3.06928 31.2886 3.06928 31.2785C 3.06928 31.2685 3.06928 31.2584 3.06928 31.2483C 3.06928 31.2382 3.06928 31.2281 3.06928 31.2179C 3.06928 31.2078 3.06928 31.1976 3.06928 31.1874C 3.06928 31.1772 3.06928 31.167 3.06928 31.1568C 3.06928 31.1465 3.06928 31.1363 3.06928 31.126C 3.06928 31.1157 3.06928 31.1055 3.06928 31.0951C 3.06928 31.0848 3.06928 31.0745 3.06928 31.0641C 3.06928 31.0538 3.06928 31.0434 3.06928 31.033C 3.06928 31.0226 3.06928 31.0122 3.06928 31.0017C 3.06928 30.9913 3.06928 30.9809 3.06928 30.9704C 3.06928 30.9599 3.06928 30.9494 3.06928 30.9389C 3.06928 30.9284 3.06928 30.9178 3.06928 30.9073C 3.06928 30.8967 3.06928 30.8861 3.06928 30.8755C 3.06928 30.8649 3.06928 30.8543 3.06928 30.8437C 3.06928 30.833 3.06928 30.8224 3.06928 30.8117C 3.06928 30.801 3.06928 30.7904 3.06928 30.7796C 3.06928 30.7689 3.06928 30.7582 3.06928 30.7474C 3.06928 30.7367 3.06928 30.7259 3.06928 30.7151C 3.06928 30.7043 3.06928 30.6935 3.06928 30.6827C 3.06928 30.6719 3.06928 30.661 3.06928 30.6502C 3.06928 30.6393 3.06928 30.6284 3.06928 30.6175C 3.06928 30.6066 3.06928 30.5957 3.06928 30.5848C 3.06928 30.5739 3.06928 30.5629 3.06928 30.5519C 3.06928 30.541 3.06928 30.53 3.06928 30.519C 3.06928 30.508 3.06928 30.497 3.06928 30.4859C 3.06928 30.4749 3.06928 30.4638 3.06928 30.4527C 3.06928 30.4417 3.06928 30.4306 3.06928 30.4195C 3.06928 30.4084 3.06928 30.3972 3.06928 30.3861C 3.06928 30.3749 3.06928 30.3638 3.06928 30.3526C 3.06928 30.3414 3.06928 30.3302 3.06928 30.319C 3.06928 30.3078 3.06928 30.2966 3.06928 30.2853C 3.06928 30.2741 3.06928 30.2628 3.06928 30.2516C 3.06928 30.2403 3.06928 30.229 3.06928 30.2177C 3.06928 30.2064 3.06928 30.1951 3.06928 30.1837C 3.06928 30.1724 3.06928 30.161 3.06928 30.1497C 3.06928 30.1383 3.06928 30.1269 3.06928 30.1155C 3.06928 30.1041 3.06928 30.0927 3.06928 30.0812C 3.06928 30.0698 3.06928 30.0584 3.06928 30.0469C 3.06928 30.0354 3.06928 30.0239 3.06928 30.0125C 3.06928 30.001 3.06928 29.9895 3.06928 29.9779C 3.06928 29.9664 3.06928 29.9549 3.06928 29.9433C 3.06928 29.9318 3.06928 29.9202 3.06928 29.9086C 3.06928 29.897 3.06928 29.8854 3.06928 29.8738C 3.06928 29.8622 3.06928 29.8506 3.06928 29.8389C 3.06928 29.8273 3.06928 29.8157 3.06928 29.804C 3.06928 29.7923 3.06928 29.7806 3.06928 29.7689C 3.06928 29.7573 3.06928 29.7455 3.06928 29.7338C 3.06928 29.7221 3.06928 29.7104 3.06928 29.6986C 3.06928 29.6869 3.06928 29.6751 3.06928 29.6633C 3.06928 29.6516 3.06928 29.6398 3.06928 29.628C 3.06928 29.6162 3.06928 29.6043 3.06928 29.5925C 3.06928 29.5807 3.06928 29.5689 3.06928 29.557C 3.06928 29.5451 3.06928 29.5333 3.06928 29.5214C 3.06928 29.5095 3.06928 29.4976 3.06928 29.4857C 3.06928 29.4738 3.06928 29.4619 3.06928 29.45C 3.06928 29.4381 3.06928 29.4261 3.06928 29.4142C 3.06928 29.4022 3.06928 29.3902 3.06928 29.3783C 3.06928 29.3663 3.06928 29.3543 3.06928 29.3423C 3.06928 29.3303 3.06928 29.3183 3.06928 29.3063C 3.06928 29.2943 3.06928 29.2822 3.06928 29.2702C 3.06928 29.2581 3.06928 29.2461 3.06928 29.234C 3.06928 29.2219 3.06928 29.2099 3.06928 29.1978C 3.06928 29.1857 3.06928 29.1736 3.06928 29.1615C 3.06928 29.1494 3.06928 29.1372 3.06928 29.1251C 3.06928 29.113 3.06928 29.1008 3.06928 29.0887C 3.06928 29.0765 3.06928 29.0644 3.06928 29.0522C 3.06928 29.04 3.06928 29.0278 3.06928 29.0156C 3.06928 29.0034 3.06928 28.9912 3.06928 28.979C 3.06928 28.9668 3.06928 28.9546 3.06928 28.9423C 3.06928 28.9301 3.06928 28.9179 3.06928 28.9056C 3.06928 28.8934 3.06928 28.8811 3.06928 28.8688C 3.06928 28.8566 3.06928 28.8443 3.06928 28.832C 3.06928 28.8197 3.06928 28.8074 3.06928 28.7951C 3.06928 28.7828 3.06928 28.7705 3.06928 28.7581C 3.06928 28.7458 3.06928 28.7335 3.06928 28.7211C 3.06928 28.7088 3.06928 28.6964 3.06928 28.6841C 3.06928 28.6717 3.06928 28.6593 3.06928 28.647C 3.06928 28.6346 3.06928 28.6222 3.06928 28.6098C 3.06928 28.5974 3.06928 28.585 3.06928 28.5726C 3.06928 28.5602 3.06928 28.5478 3.06928 28.5353C 3.06928 28.5229 3.06928 28.5105 3.06928 28.498C 3.06928 28.4856 3.06928 28.4731 3.06928 28.4607C 3.06928 28.4482 3.06928 28.4358 3.06928 28.4233C 3.06928 28.4108 3.06928 28.3984 3.06928 28.3859C 3.06928 28.3734 3.06928 28.3609 3.06928 28.3484C 3.06928 28.3359 3.06928 28.3234 3.06928 28.3109C 3.06928 28.2984 3.06928 28.2858 3.06928 28.2733C 3.06928 28.2608 3.06928 28.2482 3.06928 28.2357C 3.06928 28.2232 3.06928 28.2106 3.06928 28.1981C 3.06928 28.1855 3.06928 28.173 3.06928 28.1604C 3.06928 28.1478 3.06928 28.1353 3.06928 28.1227C 3.06928 28.1101 3.06928 28.0975 3.06928 28.0849C 3.06928 28.0724 3.06928 28.0598 3.06928 28.0472C 3.06928 28.0346 3.06928 28.022 3.06928 28.0094C 3.06928 27.9967 3.06928 27.9841 3.06928 27.9715C 3.06928 27.9589 3.06928 27.9463 3.06928 27.9336C 3.06928 27.921 3.06928 27.9084 3.06928 27.8957C 3.06928 27.8831 3.06928 27.8704 3.06928 27.8578C 3.06928 27.8451 3.06928 27.8325 3.06928 27.8198C 3.06928 27.8072 3.06928 27.7945 3.06928 27.7818C 3.06928 27.7692 3.06928 27.7565 3.06928 27.7438C 3.06928 27.7312 3.06928 27.7185 3.06928 27.7058C 3.06928 27.6931 3.06928 27.6804 3.06928 27.6677C 3.06928 27.655 3.06928 27.6423 3.06928 27.6296C 3.06928 27.617 3.06928 27.6042 3.06928 27.5915C 3.06928 27.5788 3.06928 27.5661 3.06928 27.5534C 3.06928 27.5407 3.06928 27.528 3.06928 27.5153C 3.06928 27.5026 3.06928 27.4898 3.06928 27.4771C 3.06928 27.4644 3.06928 27.4517 3.06928 27.4389C 3.06928 27.4262 3.06928 27.4135 3.06928 27.4007C 3.06928 27.388 3.06928 27.3753 3.06928 27.3625C 3.06928 27.3498 3.06928 27.337 3.06928 27.3243C 3.06928 27.3115 3.06928 27.2988 3.06928 27.2861C 3.06928 27.2733 3.06928 27.2606 3.06928 27.2478C 3.06928 27.2351 3.06928 27.2223 3.06928 27.2095C 3.06928 27.1968 3.06928 27.184 3.06928 27.1713C 3.06928 27.1585 3.06928 27.1458 3.06928 27.133C 3.06928 27.1202 3.06928 27.1075 3.06928 27.0947C 3.06928 27.0819 3.06928 27.0692 3.06928 27.0564C 3.06928 27.0436 3.06928 27.0309 3.06928 27.0181C 3.06928 27.0053 3.06928 26.9926 3.06928 26.9798C 3.06928 26.967 3.06928 26.9543 3.06928 26.9415C 3.06928 26.9287 3.06928 26.916 3.06928 26.9032C 3.06928 26.8904 3.06928 26.8776 3.06928 26.8649C 3.06928 26.8521 3.06928 26.8393 3.06928 26.8266C 3.06928 26.8138 3.06928 26.801 3.06928 26.7882C 3.06928 26.7755 3.06928 26.7627 3.06928 26.7499C 3.06928 26.7372 3.06928 26.7244 3.06928 26.7116C 3.06928 26.6989 3.06928 26.6861 3.06928 26.6733C 3.06928 26.6606 3.06928 26.6478 3.06928 26.635C 3.06928 26.6223 3.06928 26.6095 3.06928 26.5967C 3.06928 26.584 3.06928 26.5712 3.06928 26.5585C 3.06928 26.5457 3.06928 26.5329 3.06928 26.5202C 3.06928 26.5074 3.06928 26.4947 3.06928 26.4819C 3.06928 26.4692 3.06928 26.4564 3.06928 26.4436C 3.06928 26.4309 3.06928 26.4181 3.06928 26.4054C 3.06928 26.3927 3.06928 26.3799 3.06928 26.3672C 3.06928 26.3544 3.06928 26.3417 3.06928 26.3289C 3.06928 26.3162 3.06928 26.3035 3.06928 26.2907C 3.06928 26.278 3.06928 26.2653 3.06928 26.2525C 3.06928 26.2398 3.06928 26.2271 3.06928 26.2144C 3.06928 26.2017 3.06928 26.1889 3.06928 26.1762C 3.06928 26.1635 3.06928 26.1508 3.06928 26.1381C 3.06928 26.1254 3.06928 26.1127 3.06928 26.1C 3.06928 26.0873 3.06928 26.0746 3.06928 26.0619C 3.06928 26.0492 3.06928 26.0365 3.06928 26.0238C 3.06928 26.0111 3.06928 25.9984 3.06928 25.9857C 3.06928 25.973 3.06928 25.9604 3.06928 25.9477C 3.06928 25.935 3.06928 25.9224 3.06928 25.9097C 3.06928 25.897 3.06928 25.8844 3.06928 25.8717C 3.06928 25.8591 3.06928 25.8464 3.06928 25.8338C 3.06928 25.8211 3.06928 25.8085 3.06928 25.7958C 3.06928 25.7832 3.06928 25.7706 3.06928 25.7579C 3.06928 25.7453 3.06928 25.7327 3.06928 25.7201C 3.06928 25.7075 3.06928 25.6949 3.06928 25.6822C 3.06928 25.6696 3.06928 25.657 3.06928 25.6444C 3.06928 25.6318 3.06928 25.6193 3.06928 25.6067C 3.06928 25.5941 3.06928 25.5815 3.06928 25.5689C 3.06928 25.5564 3.06928 25.5438 3.06928 25.5312C 3.06928 25.5187 3.06928 25.5061 3.06928 25.4936C 3.06928 25.481 3.06928 25.4685 3.06928 25.456C 3.06928 25.4434 3.06928 25.4309 3.06928 25.4184C 3.06928 25.4059 3.06928 25.3933 3.06928 25.3808C 3.06928 25.3683 3.06928 25.3558 3.06928 25.3433C 3.06928 25.3308 3.06928 25.3183 3.06928 25.3059C 3.06928 25.2934 3.06928 25.2809 3.06928 25.2684C 3.06928 25.256 3.06928 25.2435 3.06928 25.2311C 3.06928 25.2186 3.06928 25.2062 3.06928 25.1937C 3.06928 25.1813 3.06928 25.1689 3.06928 25.1564C 3.06928 25.144 3.06928 25.1316 3.06928 25.1192C 3.06928 25.1068 3.06928 25.0944 3.06928 25.082C 3.06928 25.0696 3.06928 25.0572 3.06928 25.0449C 3.06928 25.0325 3.06928 25.0201 3.06928 25.0078C 3.06928 24.9954 3.06928 24.9831 3.06928 24.9707C 3.06928 24.9584 3.06928 24.9461 3.06928 24.9337C 3.06928 24.9214 3.06928 24.9091 3.06928 24.8968C 3.06928 24.8845 3.06928 24.8722 3.06928 24.8599C 3.06928 24.8476 3.06928 24.8354 3.06928 24.8231C 3.06928 24.8108 3.06928 24.7986 3.06928 24.7863C 3.06928 24.7741 3.06928 24.7619 3.06928 24.7496C 3.06928 24.7374 3.06928 24.7252 3.06928 24.713C 3.06928 24.7008 3.06928 24.6886 3.06928 24.6764C 3.06928 24.6642 3.06928 24.652 3.06928 24.6399C 3.06928 24.6277 3.06928 24.6155 3.06928 24.6034C 3.06928 24.5912 3.06928 24.5791 3.06928 24.567C 3.06928 24.5548 3.06928 24.5427 3.06928 24.5306C 3.06928 24.5185 3.06928 24.5064 3.06928 24.4943C 3.06928 24.4823 3.06928 24.4702 3.06928 24.4581C 3.06928 24.4461 3.06928 24.434 3.06928 24.422C 3.06928 24.41 3.06928 24.3979 3.06928 24.3859C 3.06928 24.3739 3.06928 24.3619 3.06928 24.3499C 3.06928 24.3379 3.06928 24.3259 3.06928 24.314C 3.06928 24.302 3.06928 24.29 3.06928 24.2781C 3.06928 24.2662 3.06928 24.2542 3.06928 24.2423C 3.06928 24.2304 3.06928 24.2185 3.06928 24.2066C 3.06928 24.1947 3.06928 24.1828 3.06928 24.1709C 3.06928 24.1591 3.06928 24.1472 3.06928 24.1354C 3.06928 24.1235 3.06928 24.1117 3.06928 24.0999C 3.06928 24.088 3.06928 24.0762 3.06928 24.0644C 3.06928 24.0527 3.06928 24.0409 3.06928 24.0291C 3.06928 24.0173 3.06928 24.0056 3.06928 23.9938C 3.06928 23.9821 3.06928 23.9704 3.06928 23.9587C 3.06928 23.947 3.06928 23.9353 3.06928 23.9236C 3.06928 23.9119 3.06928 23.9002 3.06928 23.8886C 3.06928 23.8769 3.06928 23.8653 3.06928 23.8536C 3.06928 23.842 3.06928 23.8304 3.06928 23.8188C 3.06928 23.8072 3.06928 23.7956 3.06928 23.784C 3.06928 23.7724 3.06928 23.7609 3.06928 23.7493C 3.06928 23.7378 3.06928 23.7263 3.06928 23.7148C 3.06928 23.7032 3.06928 23.6917 3.06928 23.6803C 3.06928 23.6688 3.06928 23.6573 3.06928 23.6459C 3.06928 23.6344 3.06928 23.623 3.06928 23.6115C 3.06928 23.6001 3.06928 23.5887 3.06928 23.5773C 3.06928 23.5659 3.06928 23.5545 3.06928 23.5432C 3.06928 23.5318 3.06928 23.5205 3.06928 23.5092C 3.06928 23.4978 3.06928 23.4865 3.06928 23.4752C 3.06928 23.4639 3.06928 23.4526 3.06928 23.4414C 3.06928 23.4301 3.06928 23.4189 3.06928 23.4076C 3.06928 23.3964 3.06928 23.3852 3.06928 23.374C 3.06928 23.3628 3.06928 23.3516 3.06928 23.3404C 3.06928 23.3293 3.06928 23.3181 3.06928 23.307C 3.06928 23.2959 3.06928 23.2847 3.06928 23.2736C 3.06928 23.2625 3.06928 23.2515 3.06928 23.2404C 3.06928 23.2293 3.06928 23.2183 3.06928 23.2073C 3.06928 23.1962 3.06928 23.1852 3.06928 23.1742C 3.06928 23.1632 3.06928 23.1523 3.06928 23.1413C 3.06928 23.1303 3.06928 23.1194 3.06928 23.1085C 3.06928 23.0976 3.06928 23.0867 3.06928 23.0758C 3.06928 23.0649 3.06928 23.054 3.06928 23.0432C 3.06928 23.0323 3.06928 23.0215 3.06928 23.0107C 3.06928 22.9999 3.06928 22.9891 3.06928 22.9783C 3.06928 22.9675 3.06928 22.9568 3.06928 22.946C 3.06928 22.9353 3.06928 22.9246 3.06928 22.9139C 3.06928 22.9032 3.06928 22.8925 3.06928 22.8818C 3.06928 22.8712 3.06928 22.8605 3.06928 22.8499C 3.06928 22.8393 3.06928 22.8287 3.06928 22.8181C 3.06928 22.8075 3.06928 22.7969 3.06928 22.7864C 3.06928 22.7758 3.06928 22.7653 3.06928 22.7548C 3.06928 22.7443 3.06928 22.7338 3.06928 22.7234C 3.06928 22.7129 3.06928 22.7024 3.06928 22.692C 3.06928 22.6816 3.06928 22.6712 3.06928 22.6608C 3.06928 22.6504 3.06928 22.6401 3.06928 22.6297C 3.06928 22.6194 3.06928 22.6091 3.06928 22.5988C 3.06928 22.5885 3.06928 22.5782 3.06928 22.5679C 3.06928 22.5577 3.06928 22.5474 3.06928 22.5372C 3.06928 22.527 3.06928 22.5168 3.06928 22.5066C 3.06928 22.4964 3.06928 22.4863 3.06928 22.4762C 3.06928 22.466 3.06928 22.4559 3.06928 22.4458C 3.06928 22.4357 3.06928 22.4257 3.06928 22.4156C 3.06928 22.4056 3.06928 22.3956 3.06928 22.3856C 3.06928 22.3756 3.06928 22.3656 3.06928 22.3556C 3.06928 22.3457 3.06928 22.3357 3.06928 22.3258C 3.06928 22.3159 3.06928 22.306 3.06928 22.2961C 3.06928 22.2863 3.06928 22.2764 3.06928 22.2666C 3.06928 22.2568 3.06928 22.247 3.06928 22.2372C 3.06928 22.2274 3.06928 22.2177 3.06928 22.2079C 3.06928 22.1982 3.06928 22.1885 3.06928 22.1788C 3.06928 22.1691 3.06928 22.1595 3.06928 22.1498C 3.06928 22.1402 3.06928 22.1306 3.06928 22.121C 3.06928 22.1114 3.06928 22.1018 3.06928 22.0923C 3.06928 22.0828 3.06928 22.0732 3.06928 22.0637C 3.06928 22.0543 3.06928 22.0448 3.06928 22.0353C 3.06928 22.0259 3.06928 22.0165 3.06928 22.0071C 3.06928 21.9977 3.06928 21.9883 3.06928 21.9789C 3.06928 21.9696 3.06928 21.9603 3.06928 21.951C 3.06928 21.9417 3.06928 21.9324 3.06928 21.9231C 3.06928 21.9139 3.06928 21.9047 3.06928 21.8955C 3.06928 21.8863 3.06928 21.8771 3.06928 21.8679C 3.06928 21.8588 3.06928 21.8497 3.06928 21.8406C 3.06928 21.8315 3.06928 21.8224 3.06928 21.8133C 3.06928 21.8043 3.06928 21.7953 3.06928 21.7863C 3.06928 21.7773 3.06928 21.7683 3.06928 21.7593C 3.06928 21.7504 3.06928 21.7415 3.06928 21.7326C 3.06928 21.7237 3.06928 21.7148 3.06928 21.706C 3.06928 21.6971 3.06928 21.6883 3.06928 21.6795C 3.06928 21.6707 3.06928 21.662 3.06928 21.6532C 3.06928 21.6445 3.06928 21.6358 3.06928 21.6271C 3.06928 21.6184 3.06928 21.6098 3.06928 21.6011C 3.06928 21.5925 3.06928 21.5839 3.06928 21.5753C 3.06928 21.5668 3.06928 21.5582 3.06928 21.5497C 3.06928 21.5412 3.06928 21.5327 3.06928 21.5242C 3.06928 21.5157 3.06928 21.5073 3.06928 21.4989C 3.06928 21.4905 3.06928 21.4821 3.06928 21.4737C 3.06928 21.4654 3.06928 21.4571 3.06928 21.4488C 3.06928 21.4405 3.06928 21.4322 3.06928 21.4239C 3.06928 21.4157 3.06928 21.4075 3.06928 21.3993C 3.06928 21.3911 3.06928 21.3829 3.06928 21.3748C 3.06928 21.3667 3.06928 21.3586 3.06928 21.3505C 3.06928 21.3424 3.06928 21.3344 3.06928 21.3264C 3.06928 21.3184 3.06928 21.3104 3.06928 21.3024C 3.06928 21.2945 3.06928 21.2865 3.06928 21.2786C 3.06928 21.2707 3.06928 21.2629 3.06928 21.255C 3.06928 21.2472 3.06928 21.2394 3.06928 21.2316C 3.06928 21.2238 3.06928 21.2161 3.06928 21.2083C 3.06928 21.2006 3.06928 21.1929 3.06928 21.1853L 0.0692787 21.1853C 0.0692787 21.1929 0.0692787 21.2006 0.0692787 21.2083C 0.0692787 21.2161 0.0692787 21.2238 0.0692787 21.2316C 0.0692787 21.2394 0.0692787 21.2472 0.0692787 21.255C 0.0692787 21.2629 0.0692787 21.2707 0.0692787 21.2786C 0.0692787 21.2865 0.0692787 21.2945 0.0692787 21.3024C 0.0692787 21.3104 0.0692787 21.3184 0.0692787 21.3264C 0.0692787 21.3344 0.0692787 21.3424 0.0692787 21.3505C 0.0692787 21.3586 0.0692787 21.3667 0.0692787 21.3748C 0.0692787 21.3829 0.0692787 21.3911 0.0692787 21.3993C 0.0692787 21.4075 0.0692787 21.4157 0.0692787 21.4239C 0.0692787 21.4322 0.0692787 21.4405 0.0692787 21.4488C 0.0692787 21.4571 0.0692787 21.4654 0.0692787 21.4737C 0.0692787 21.4821 0.0692787 21.4905 0.0692787 21.4989C 0.0692787 21.5073 0.0692787 21.5157 0.0692787 21.5242C 0.0692787 21.5327 0.0692787 21.5412 0.0692787 21.5497C 0.0692787 21.5582 0.0692787 21.5668 0.0692787 21.5753C 0.0692787 21.5839 0.0692787 21.5925 0.0692787 21.6011C 0.0692787 21.6098 0.0692787 21.6184 0.0692787 21.6271C 0.0692787 21.6358 0.0692787 21.6445 0.0692787 21.6532C 0.0692787 21.662 0.0692787 21.6707 0.0692787 21.6795C 0.0692787 21.6883 0.0692787 21.6971 0.0692787 21.706C 0.0692787 21.7148 0.0692787 21.7237 0.0692787 21.7326C 0.0692787 21.7415 0.0692787 21.7504 0.0692787 21.7593C 0.0692787 21.7683 0.0692787 21.7773 0.0692787 21.7863C 0.0692787 21.7953 0.0692787 21.8043 0.0692787 21.8133C 0.0692787 21.8224 0.0692787 21.8315 0.0692787 21.8406C 0.0692787 21.8497 0.0692787 21.8588 0.0692787 21.8679C 0.0692787 21.8771 0.0692787 21.8863 0.0692787 21.8955C 0.0692787 21.9047 0.0692787 21.9139 0.0692787 21.9231C 0.0692787 21.9324 0.0692787 21.9417 0.0692787 21.951C 0.0692787 21.9603 0.0692787 21.9696 0.0692787 21.9789C 0.0692787 21.9883 0.0692787 21.9977 0.0692787 22.0071C 0.0692787 22.0165 0.0692787 22.0259 0.0692787 22.0353C 0.0692787 22.0448 0.0692787 22.0543 0.0692787 22.0637C 0.0692787 22.0732 0.0692787 22.0828 0.0692787 22.0923C 0.0692787 22.1018 0.0692787 22.1114 0.0692787 22.121C 0.0692787 22.1306 0.0692787 22.1402 0.0692787 22.1498C 0.0692787 22.1595 0.0692787 22.1691 0.0692787 22.1788C 0.0692787 22.1885 0.0692787 22.1982 0.0692787 22.2079C 0.0692787 22.2177 0.0692787 22.2274 0.0692787 22.2372C 0.0692787 22.247 0.0692787 22.2568 0.0692787 22.2666C 0.0692787 22.2764 0.0692787 22.2863 0.0692787 22.2961C 0.0692787 22.306 0.0692787 22.3159 0.0692787 22.3258C 0.0692787 22.3357 0.0692787 22.3457 0.0692787 22.3556C 0.0692787 22.3656 0.0692787 22.3756 0.0692787 22.3856C 0.0692787 22.3956 0.0692787 22.4056 0.0692787 22.4156C 0.0692787 22.4257 0.0692787 22.4357 0.0692787 22.4458C 0.0692787 22.4559 0.0692787 22.466 0.0692787 22.4762C 0.0692787 22.4863 0.0692787 22.4964 0.0692787 22.5066C 0.0692787 22.5168 0.0692787 22.527 0.0692787 22.5372C 0.0692787 22.5474 0.0692787 22.5577 0.0692787 22.5679C 0.0692787 22.5782 0.0692787 22.5885 0.0692787 22.5988C 0.0692787 22.6091 0.0692787 22.6194 0.0692787 22.6297C 0.0692787 22.6401 0.0692787 22.6504 0.0692787 22.6608C 0.0692787 22.6712 0.0692787 22.6816 0.0692787 22.692C 0.0692787 22.7024 0.0692787 22.7129 0.0692787 22.7234C 0.0692787 22.7338 0.0692787 22.7443 0.0692787 22.7548C 0.0692787 22.7653 0.0692787 22.7758 0.0692787 22.7864C 0.0692787 22.7969 0.0692787 22.8075 0.0692787 22.8181C 0.0692787 22.8287 0.0692787 22.8393 0.0692787 22.8499C 0.0692787 22.8605 0.0692787 22.8712 0.0692787 22.8818C 0.0692787 22.8925 0.0692787 22.9032 0.0692787 22.9139C 0.0692787 22.9246 0.0692787 22.9353 0.0692787 22.946C 0.0692787 22.9568 0.0692787 22.9675 0.0692787 22.9783C 0.0692787 22.9891 0.0692787 22.9999 0.0692787 23.0107C 0.0692787 23.0215 0.0692787 23.0323 0.0692787 23.0432C 0.0692787 23.054 0.0692787 23.0649 0.0692787 23.0758C 0.0692787 23.0867 0.0692787 23.0976 0.0692787 23.1085C 0.0692787 23.1194 0.0692787 23.1303 0.0692787 23.1413C 0.0692787 23.1523 0.0692787 23.1632 0.0692787 23.1742C 0.0692787 23.1852 0.0692787 23.1962 0.0692787 23.2073C 0.0692787 23.2183 0.0692787 23.2293 0.0692787 23.2404C 0.0692787 23.2515 0.0692787 23.2625 0.0692787 23.2736C 0.0692787 23.2847 0.0692787 23.2959 0.0692787 23.307C 0.0692787 23.3181 0.0692787 23.3293 0.0692787 23.3404C 0.0692787 23.3516 0.0692787 23.3628 0.0692787 23.374C 0.0692787 23.3852 0.0692787 23.3964 0.0692787 23.4076C 0.0692787 23.4189 0.0692787 23.4301 0.0692787 23.4414C 0.0692787 23.4526 0.0692787 23.4639 0.0692787 23.4752C 0.0692787 23.4865 0.0692787 23.4978 0.0692787 23.5092C 0.0692787 23.5205 0.0692787 23.5318 0.0692787 23.5432C 0.0692787 23.5545 0.0692787 23.5659 0.0692787 23.5773C 0.0692787 23.5887 0.0692787 23.6001 0.0692787 23.6115C 0.0692787 23.623 0.0692787 23.6344 0.0692787 23.6459C 0.0692787 23.6573 0.0692787 23.6688 0.0692787 23.6803C 0.0692787 23.6917 0.0692787 23.7032 0.0692787 23.7148C 0.0692787 23.7263 0.0692787 23.7378 0.0692787 23.7493C 0.0692787 23.7609 0.0692787 23.7724 0.0692787 23.784C 0.0692787 23.7956 0.0692787 23.8072 0.0692787 23.8188C 0.0692787 23.8304 0.0692787 23.842 0.0692787 23.8536C 0.0692787 23.8653 0.0692787 23.8769 0.0692787 23.8886C 0.0692787 23.9002 0.0692787 23.9119 0.0692787 23.9236C 0.0692787 23.9353 0.0692787 23.947 0.0692787 23.9587C 0.0692787 23.9704 0.0692787 23.9821 0.0692787 23.9938C 0.0692787 24.0056 0.0692787 24.0173 0.0692787 24.0291C 0.0692787 24.0409 0.0692787 24.0527 0.0692787 24.0644C 0.0692787 24.0762 0.0692787 24.088 0.0692787 24.0999C 0.0692787 24.1117 0.0692787 24.1235 0.0692787 24.1354C 0.0692787 24.1472 0.0692787 24.1591 0.0692787 24.1709C 0.0692787 24.1828 0.0692787 24.1947 0.0692787 24.2066C 0.0692787 24.2185 0.0692787 24.2304 0.0692787 24.2423C 0.0692787 24.2542 0.0692787 24.2662 0.0692787 24.2781C 0.0692787 24.29 0.0692787 24.302 0.0692787 24.314C 0.0692787 24.3259 0.0692787 24.3379 0.0692787 24.3499C 0.0692787 24.3619 0.0692787 24.3739 0.0692787 24.3859C 0.0692787 24.3979 0.0692787 24.41 0.0692787 24.422C 0.0692787 24.434 0.0692787 24.4461 0.0692787 24.4581C 0.0692787 24.4702 0.0692787 24.4823 0.0692787 24.4943C 0.0692787 24.5064 0.0692787 24.5185 0.0692787 24.5306C 0.0692787 24.5427 0.0692787 24.5548 0.0692787 24.567C 0.0692787 24.5791 0.0692787 24.5912 0.0692787 24.6034C 0.0692787 24.6155 0.0692787 24.6277 0.0692787 24.6399C 0.0692787 24.652 0.0692787 24.6642 0.0692787 24.6764C 0.0692787 24.6886 0.0692787 24.7008 0.0692787 24.713C 0.0692787 24.7252 0.0692787 24.7374 0.0692787 24.7496C 0.0692787 24.7619 0.0692787 24.7741 0.0692787 24.7863C 0.0692787 24.7986 0.0692787 24.8108 0.0692787 24.8231C 0.0692787 24.8354 0.0692787 24.8476 0.0692787 24.8599C 0.0692787 24.8722 0.0692787 24.8845 0.0692787 24.8968C 0.0692787 24.9091 0.0692787 24.9214 0.0692787 24.9337C 0.0692787 24.9461 0.0692787 24.9584 0.0692787 24.9707C 0.0692787 24.9831 0.0692787 24.9954 0.0692787 25.0078C 0.0692787 25.0201 0.0692787 25.0325 0.0692787 25.0449C 0.0692787 25.0572 0.0692787 25.0696 0.0692787 25.082C 0.0692787 25.0944 0.0692787 25.1068 0.0692787 25.1192C 0.0692787 25.1316 0.0692787 25.144 0.0692787 25.1564C 0.0692787 25.1689 0.0692787 25.1813 0.0692787 25.1937C 0.0692787 25.2062 0.0692787 25.2186 0.0692787 25.2311C 0.0692787 25.2435 0.0692787 25.256 0.0692787 25.2684C 0.0692787 25.2809 0.0692787 25.2934 0.0692787 25.3059C 0.0692787 25.3183 0.0692787 25.3308 0.0692787 25.3433C 0.0692787 25.3558 0.0692787 25.3683 0.0692787 25.3808C 0.0692787 25.3933 0.0692787 25.4059 0.0692787 25.4184C 0.0692787 25.4309 0.0692787 25.4434 0.0692787 25.456C 0.0692787 25.4685 0.0692787 25.481 0.0692787 25.4936C 0.0692787 25.5061 0.0692787 25.5187 0.0692787 25.5312C 0.0692787 25.5438 0.0692787 25.5564 0.0692787 25.5689C 0.0692787 25.5815 0.0692787 25.5941 0.0692787 25.6067C 0.0692787 25.6193 0.0692787 25.6318 0.0692787 25.6444C 0.0692787 25.657 0.0692787 25.6696 0.0692787 25.6822C 0.0692787 25.6949 0.0692787 25.7075 0.0692787 25.7201C 0.0692787 25.7327 0.0692787 25.7453 0.0692787 25.7579C 0.0692787 25.7706 0.0692787 25.7832 0.0692787 25.7958C 0.0692787 25.8085 0.0692787 25.8211 0.0692787 25.8338C 0.0692787 25.8464 0.0692787 25.8591 0.0692787 25.8717C 0.0692787 25.8844 0.0692787 25.897 0.0692787 25.9097C 0.0692787 25.9224 0.0692787 25.935 0.0692787 25.9477C 0.0692787 25.9604 0.0692787 25.973 0.0692787 25.9857C 0.0692787 25.9984 0.0692787 26.0111 0.0692787 26.0238C 0.0692787 26.0365 0.0692787 26.0492 0.0692787 26.0619C 0.0692787 26.0746 0.0692787 26.0873 0.0692787 26.1C 0.0692787 26.1127 0.0692787 26.1254 0.0692787 26.1381C 0.0692787 26.1508 0.0692787 26.1635 0.0692787 26.1762C 0.0692787 26.1889 0.0692787 26.2017 0.0692787 26.2144C 0.0692787 26.2271 0.0692787 26.2398 0.0692787 26.2525C 0.0692787 26.2653 0.0692787 26.278 0.0692787 26.2907C 0.0692787 26.3035 0.0692787 26.3162 0.0692787 26.3289C 0.0692787 26.3417 0.0692787 26.3544 0.0692787 26.3672C 0.0692787 26.3799 0.0692787 26.3927 0.0692787 26.4054C 0.0692787 26.4181 0.0692787 26.4309 0.0692787 26.4436C 0.0692787 26.4564 0.0692787 26.4692 0.0692787 26.4819C 0.0692787 26.4947 0.0692787 26.5074 0.0692787 26.5202C 0.0692787 26.5329 0.0692787 26.5457 0.0692787 26.5585C 0.0692787 26.5712 0.0692787 26.584 0.0692787 26.5967C 0.0692787 26.6095 0.0692787 26.6223 0.0692787 26.635C 0.0692787 26.6478 0.0692787 26.6606 0.0692787 26.6733C 0.0692787 26.6861 0.0692787 26.6989 0.0692787 26.7116C 0.0692787 26.7244 0.0692787 26.7372 0.0692787 26.7499C 0.0692787 26.7627 0.0692787 26.7755 0.0692787 26.7882C 0.0692787 26.801 0.0692787 26.8138 0.0692787 26.8266C 0.0692787 26.8393 0.0692787 26.8521 0.0692787 26.8649C 0.0692787 26.8776 0.0692787 26.8904 0.0692787 26.9032C 0.0692787 26.916 0.0692787 26.9287 0.0692787 26.9415C 0.0692787 26.9543 0.0692787 26.967 0.0692787 26.9798C 0.0692787 26.9926 0.0692787 27.0053 0.0692787 27.0181C 0.0692787 27.0309 0.0692787 27.0436 0.0692787 27.0564C 0.0692787 27.0692 0.0692787 27.0819 0.0692787 27.0947C 0.0692787 27.1075 0.0692787 27.1202 0.0692787 27.133C 0.0692787 27.1458 0.0692787 27.1585 0.0692787 27.1713C 0.0692787 27.184 0.0692787 27.1968 0.0692787 27.2095C 0.0692787 27.2223 0.0692787 27.2351 0.0692787 27.2478C 0.0692787 27.2606 0.0692787 27.2733 0.0692787 27.2861C 0.0692787 27.2988 0.0692787 27.3115 0.0692787 27.3243C 0.0692787 27.337 0.0692787 27.3498 0.0692787 27.3625C 0.0692787 27.3753 0.0692787 27.388 0.0692787 27.4007C 0.0692787 27.4135 0.0692787 27.4262 0.0692787 27.4389C 0.0692787 27.4517 0.0692787 27.4644 0.0692787 27.4771C 0.0692787 27.4898 0.0692787 27.5026 0.0692787 27.5153C 0.0692787 27.528 0.0692787 27.5407 0.0692787 27.5534C 0.0692787 27.5661 0.0692787 27.5788 0.0692787 27.5915C 0.0692787 27.6042 0.0692787 27.617 0.0692787 27.6296C 0.0692787 27.6423 0.0692787 27.655 0.0692787 27.6677C 0.0692787 27.6804 0.0692787 27.6931 0.0692787 27.7058C 0.0692787 27.7185 0.0692787 27.7312 0.0692787 27.7438C 0.0692787 27.7565 0.0692787 27.7692 0.0692787 27.7818C 0.0692787 27.7945 0.0692787 27.8072 0.0692787 27.8198C 0.0692787 27.8325 0.0692787 27.8451 0.0692787 27.8578C 0.0692787 27.8704 0.0692787 27.8831 0.0692787 27.8957C 0.0692787 27.9084 0.0692787 27.921 0.0692787 27.9336C 0.0692787 27.9463 0.0692787 27.9589 0.0692787 27.9715C 0.0692787 27.9841 0.0692787 27.9967 0.0692787 28.0094C 0.0692787 28.022 0.0692787 28.0346 0.0692787 28.0472C 0.0692787 28.0598 0.0692787 28.0724 0.0692787 28.0849C 0.0692787 28.0975 0.0692787 28.1101 0.0692787 28.1227C 0.0692787 28.1353 0.0692787 28.1478 0.0692787 28.1604C 0.0692787 28.173 0.0692787 28.1855 0.0692787 28.1981C 0.0692787 28.2106 0.0692787 28.2232 0.0692787 28.2357C 0.0692787 28.2482 0.0692787 28.2608 0.0692787 28.2733C 0.0692787 28.2858 0.0692787 28.2984 0.0692787 28.3109C 0.0692787 28.3234 0.0692787 28.3359 0.0692787 28.3484C 0.0692787 28.3609 0.0692787 28.3734 0.0692787 28.3859C 0.0692787 28.3984 0.0692787 28.4108 0.0692787 28.4233C 0.0692787 28.4358 0.0692787 28.4482 0.0692787 28.4607C 0.0692787 28.4731 0.0692787 28.4856 0.0692787 28.498C 0.0692787 28.5105 0.0692787 28.5229 0.0692787 28.5353C 0.0692787 28.5478 0.0692787 28.5602 0.0692787 28.5726C 0.0692787 28.585 0.0692787 28.5974 0.0692787 28.6098C 0.0692787 28.6222 0.0692787 28.6346 0.0692787 28.647C 0.0692787 28.6593 0.0692787 28.6717 0.0692787 28.6841C 0.0692787 28.6964 0.0692787 28.7088 0.0692787 28.7211C 0.0692787 28.7335 0.0692787 28.7458 0.0692787 28.7581C 0.0692787 28.7705 0.0692787 28.7828 0.0692787 28.7951C 0.0692787 28.8074 0.0692787 28.8197 0.0692787 28.832C 0.0692787 28.8443 0.0692787 28.8566 0.0692787 28.8688C 0.0692787 28.8811 0.0692787 28.8934 0.0692787 28.9056C 0.0692787 28.9179 0.0692787 28.9301 0.0692787 28.9423C 0.0692787 28.9546 0.0692787 28.9668 0.0692787 28.979C 0.0692787 28.9912 0.0692787 29.0034 0.0692787 29.0156C 0.0692787 29.0278 0.0692787 29.04 0.0692787 29.0522C 0.0692787 29.0644 0.0692787 29.0765 0.0692787 29.0887C 0.0692787 29.1008 0.0692787 29.113 0.0692787 29.1251C 0.0692787 29.1372 0.0692787 29.1494 0.0692787 29.1615C 0.0692787 29.1736 0.0692787 29.1857 0.0692787 29.1978C 0.0692787 29.2099 0.0692787 29.2219 0.0692787 29.234C 0.0692787 29.2461 0.0692787 29.2581 0.0692787 29.2702C 0.0692787 29.2822 0.0692787 29.2943 0.0692787 29.3063C 0.0692787 29.3183 0.0692787 29.3303 0.0692787 29.3423C 0.0692787 29.3543 0.0692787 29.3663 0.0692787 29.3783C 0.0692787 29.3902 0.0692787 29.4022 0.0692787 29.4142C 0.0692787 29.4261 0.0692787 29.4381 0.0692787 29.45C 0.0692787 29.4619 0.0692787 29.4738 0.0692787 29.4857C 0.0692787 29.4976 0.0692787 29.5095 0.0692787 29.5214C 0.0692787 29.5333 0.0692787 29.5451 0.0692787 29.557C 0.0692787 29.5689 0.0692787 29.5807 0.0692787 29.5925C 0.0692787 29.6043 0.0692787 29.6162 0.0692787 29.628C 0.0692787 29.6398 0.0692787 29.6516 0.0692787 29.6633C 0.0692787 29.6751 0.0692787 29.6869 0.0692787 29.6986C 0.0692787 29.7104 0.0692787 29.7221 0.0692787 29.7338C 0.0692787 29.7455 0.0692787 29.7573 0.0692787 29.7689C 0.0692787 29.7806 0.0692787 29.7923 0.0692787 29.804C 0.0692787 29.8157 0.0692787 29.8273 0.0692787 29.8389C 0.0692787 29.8506 0.0692787 29.8622 0.0692787 29.8738C 0.0692787 29.8854 0.0692787 29.897 0.0692787 29.9086C 0.0692787 29.9202 0.0692787 29.9318 0.0692787 29.9433C 0.0692787 29.9549 0.0692787 29.9664 0.0692787 29.9779C 0.0692787 29.9895 0.0692787 30.001 0.0692787 30.0125C 0.0692787 30.0239 0.0692787 30.0354 0.0692787 30.0469C 0.0692787 30.0584 0.0692787 30.0698 0.0692787 30.0812C 0.0692787 30.0927 0.0692787 30.1041 0.0692787 30.1155C 0.0692787 30.1269 0.0692787 30.1383 0.0692787 30.1497C 0.0692787 30.161 0.0692787 30.1724 0.0692787 30.1837C 0.0692787 30.1951 0.0692787 30.2064 0.0692787 30.2177C 0.0692787 30.229 0.0692787 30.2403 0.0692787 30.2516C 0.0692787 30.2628 0.0692787 30.2741 0.0692787 30.2853C 0.0692787 30.2966 0.0692787 30.3078 0.0692787 30.319C 0.0692787 30.3302 0.0692787 30.3414 0.0692787 30.3526C 0.0692787 30.3638 0.0692787 30.3749 0.0692787 30.3861C 0.0692787 30.3972 0.0692787 30.4084 0.0692787 30.4195C 0.0692787 30.4306 0.0692787 30.4417 0.0692787 30.4527C 0.0692787 30.4638 0.0692787 30.4749 0.0692787 30.4859C 0.0692787 30.497 0.0692787 30.508 0.0692787 30.519C 0.0692787 30.53 0.0692787 30.541 0.0692787 30.5519C 0.0692787 30.5629 0.0692787 30.5739 0.0692787 30.5848C 0.0692787 30.5957 0.0692787 30.6066 0.0692787 30.6175C 0.0692787 30.6284 0.0692787 30.6393 0.0692787 30.6502C 0.0692787 30.661 0.0692787 30.6719 0.0692787 30.6827C 0.0692787 30.6935 0.0692787 30.7043 0.0692787 30.7151C 0.0692787 30.7259 0.0692787 30.7367 0.0692787 30.7474C 0.0692787 30.7582 0.0692787 30.7689 0.0692787 30.7796C 0.0692787 30.7904 0.0692787 30.801 0.0692787 30.8117C 0.0692787 30.8224 0.0692787 30.833 0.0692787 30.8437C 0.0692787 30.8543 0.0692787 30.8649 0.0692787 30.8755C 0.0692787 30.8861 0.0692787 30.8967 0.0692787 30.9073C 0.0692787 30.9178 0.0692787 30.9284 0.0692787 30.9389C 0.0692787 30.9494 0.0692787 30.9599 0.0692787 30.9704C 0.0692787 30.9809 0.0692787 30.9913 0.0692787 31.0017C 0.0692787 31.0122 0.0692787 31.0226 0.0692787 31.033C 0.0692787 31.0434 0.0692787 31.0538 0.0692787 31.0641C 0.0692787 31.0745 0.0692787 31.0848 0.0692787 31.0951C 0.0692787 31.1055 0.0692787 31.1157 0.0692787 31.126C 0.0692787 31.1363 0.0692787 31.1465 0.0692787 31.1568C 0.0692787 31.167 0.0692787 31.1772 0.0692787 31.1874C 0.0692787 31.1976 0.0692787 31.2078 0.0692787 31.2179C 0.0692787 31.2281 0.0692787 31.2382 0.0692787 31.2483C 0.0692787 31.2584 0.0692787 31.2685 0.0692787 31.2785C 0.0692787 31.2886 0.0692787 31.2986 0.0692787 31.3086C 0.0692787 31.3187 0.0692787 31.3287 0.0692787 31.3386C 0.0692787 31.3486 0.0692787 31.3585 0.0692787 31.3685C 0.0692787 31.3784 0.0692787 31.3883 0.0692787 31.3982C 0.0692787 31.4081 0.0692787 31.4179 0.0692787 31.4278C 0.0692787 31.4376 0.0692787 31.4474 0.0692787 31.4572C 0.0692787 31.467 0.0692787 31.4768 0.0692787 31.4865C 0.0692787 31.4963 0.0692787 31.506 0.0692787 31.5157C 0.0692787 31.5254 0.0692787 31.5351 0.0692787 31.5447C 0.0692787 31.5544 0.0692787 31.564 0.0692787 31.5736C 0.0692787 31.5832 0.0692787 31.5928 0.0692787 31.6024C 0.0692787 31.6119 0.0692787 31.6214 0.0692787 31.631C 0.0692787 31.6405 0.0692787 31.65 0.0692787 31.6594C 0.0692787 31.6689 0.0692787 31.6783 0.0692787 31.6877C 0.0692787 31.6971 0.0692787 31.7065 0.0692787 31.7159C 0.0692787 31.7253 0.0692787 31.7346 0.0692787 31.7439C 0.0692787 31.7532 0.0692787 31.7625 0.0692787 31.7718C 0.0692787 31.7811 0.0692787 31.7903 0.0692787 31.7995C 0.0692787 31.8088 0.0692787 31.8179 0.0692787 31.8271C 0.0692787 31.8363 0.0692787 31.8454 0.0692787 31.8545C 0.0692787 31.8637 0.0692787 31.8727 0.0692787 31.8818C 0.0692787 31.8909 0.0692787 31.8999 0.0692787 31.9089C 0.0692787 31.918 0.0692787 31.9269 0.0692787 31.9359C 0.0692787 31.9449 0.0692787 31.9538 0.0692787 31.9627C 0.0692787 31.9716 0.0692787 31.9805 0.0692787 31.9894C 0.0692787 31.9982 0.0692787 32.0071 0.0692787 32.0159C 0.0692787 32.0247 0.0692787 32.0335 0.0692787 32.0422C 0.0692787 32.051 0.0692787 32.0597 0.0692787 32.0684C 0.0692787 32.0771 0.0692787 32.0858 0.0692787 32.0944C 0.0692787 32.1031 0.0692787 32.1117 0.0692787 32.1203C 0.0692787 32.1289 0.0692787 32.1374 0.0692787 32.146C 0.0692787 32.1545 0.0692787 32.163 0.0692787 32.1715C 0.0692787 32.18 0.0692787 32.1885 0.0692787 32.1969C 0.0692787 32.2053 0.0692787 32.2137 0.0692787 32.2221C 0.0692787 32.2305 0.0692787 32.2388 0.0692787 32.2471C 0.0692787 32.2555 0.0692787 32.2637 0.0692787 32.272C 0.0692787 32.2803 0.0692787 32.2885 0.0692787 32.2967C 0.0692787 32.3049 0.0692787 32.3131 0.0692787 32.3212C 0.0692787 32.3294 0.0692787 32.3375 0.0692787 32.3456C 0.0692787 32.3537 0.0692787 32.3618 0.0692787 32.3698C 0.0692787 32.3778 0.0692787 32.3858 0.0692787 32.3938C 0.0692787 32.4018 0.0692787 32.4097 0.0692787 32.4177C 0.0692787 32.4256 0.0692787 32.4335 0.0692787 32.4413C 0.0692787 32.4492 0.0692787 32.457 0.0692787 32.4648C 0.0692787 32.4726 0.0692787 32.4804 0.0692787 32.4881C 0.0692787 32.4959 0.0692787 32.5036 0.0692787 32.5113C 0.0692787 32.519 0.0692787 32.5266 0.0692787 32.5342C 0.0692787 32.5418 0.0692787 32.5494 0.0692787 32.557C 0.0692787 32.5646 0.0692787 32.5721 0.0692787 32.5796C 0.0692787 32.5871 0.0692787 32.5946 0.0692787 32.602C 0.0692787 32.6095 0.0692787 32.6169 0.0692787 32.6242C 0.0692787 32.6316 0.0692787 32.639 0.0692787 32.6463C 0.0692787 32.6536 0.0692787 32.6609 0.0692787 32.6681C 0.0692787 32.6754 0.0692787 32.6826 0.0692787 32.6898C 0.0692787 32.697 0.0692787 32.7042 0.0692787 32.7113C 0.0692787 32.7184 0.0692787 32.7255 0.0692787 32.7326C 0.0692787 32.7397 0.0692787 32.7467 0.0692787 32.7537C 0.0692787 32.7607 0.0692787 32.7677 0.0692787 32.7746C 0.0692787 32.7816 0.0692787 32.7885 0.0692787 32.7954C 0.0692787 32.8022 0.0692787 32.8091 0.0692787 32.8159C 0.0692787 32.8227 0.0692787 32.8295 0.0692787 32.8362C 0.0692787 32.843 0.0692787 32.8497 0.0692787 32.8564C 0.0692787 32.863 0.0692787 32.8697 0.0692787 32.8763C 0.0692787 32.8829 0.0692787 32.8895 0.0692787 32.8961C 0.0692787 32.9026 0.0692787 32.9091 0.0692787 32.9156C 0.0692787 32.9221 0.0692787 32.9285 0.0692787 32.935C 0.0692787 32.9414 0.0692787 32.9478 0.0692787 32.9541C 0.0692787 32.9605 0.0692787 32.9668 0.0692787 32.9731C 0.0692787 32.9794 0.0692787 32.9856 0.0692787 32.9918C 0.0692787 32.998 0.0692787 33.0042 0.0692787 33.0104C 0.0692787 33.0165 0.0692787 33.0226 0.0692787 33.0287C 0.0692787 33.0348 0.0692787 33.0408 0.0692787 33.0468C 0.0692787 33.0528 0.0692787 33.0588 0.0692787 33.0648C 0.0692787 33.0707 0.0692787 33.0766 0.0692787 33.0825C 0.0692787 33.0884 0.0692787 33.0942 0.0692787 33.1C 0.0692787 33.1058 0.0692787 33.1116 0.0692787 33.1173C 0.0692787 33.123 0.0692787 33.1287 0.0692787 33.1344C 0.0692787 33.14 0.0692787 33.1457 0.0692787 33.1513C 0.0692787 33.1569 0.0692787 33.1624 0.0692787 33.1679C 0.0692787 33.1735 0.0692787 33.1789 0.0692787 33.1844C 0.0692787 33.1898 0.0692787 33.1952 0.0692787 33.2006C 0.0692787 33.206 0.0692787 33.2113 0.0692787 33.2166C 0.0692787 33.2219 0.0692787 33.2272 0.0692787 33.2324C 0.0692787 33.2377 0.0692787 33.2429 0.0692787 33.248C 0.0692787 33.2532 0.0692787 33.2583 0.0692787 33.2634C 0.0692787 33.2685 0.0692787 33.2735 0.0692787 33.2785C 0.0692787 33.2836 0.0692787 33.2885 0.0692787 33.2935C 0.0692787 33.2984 0.0692787 33.3033 0.0692787 33.3082C 0.0692787 33.313 0.0692787 33.3179 0.0692787 33.3227C 0.0692787 33.3274 0.0692787 33.3322 0.0692787 33.3369C 0.0692787 33.3416 0.0692787 33.3463 0.0692787 33.3509C 0.0692787 33.3556 0.0692787 33.3602 0.0692787 33.3647C 0.0692787 33.3693 0.0692787 33.3738 0.0692787 33.3783C 0.0692787 33.3828 0.0692787 33.3873 0.0692787 33.3917C 0.0692787 33.3961 0.0692787 33.4004 0.0692787 33.4048C 0.0692787 33.4091 0.0692787 33.4134 0.0692787 33.4177C 0.0692787 33.4219 0.0692787 33.4261 0.0692787 33.4303C 0.0692787 33.4345 0.0692787 33.4386 0.0692787 33.4427C 0.0692787 33.4468 0.0692787 33.4509 0.0692787 33.4549C 0.0692787 33.4589 0.0692787 33.4629 0.0692787 33.4669C 0.0692787 33.4708 0.0692787 33.4747 0.0692787 33.4786C 0.0692787 33.4825 0.0692787 33.4863 0.0692787 33.4901C 0.0692787 33.4939 0.0692787 33.4976 0.0692787 33.5013C 0.0692787 33.505 0.0692787 33.5087 0.0692787 33.5123C 0.0692787 33.5159 0.0692787 33.5195 0.0692787 33.5231C 0.0692787 33.5266 0.0692787 33.5301 0.0692787 33.5336C 0.0692787 33.5371 0.0692787 33.5405 0.0692787 33.5439C 0.0692787 33.5473 0.0692787 33.5506 0.0692787 33.5539C 0.0692787 33.5572 0.0692787 33.5605 0.0692787 33.5637C 0.0692787 33.5669 0.0692787 33.5701 0.0692787 33.5732C 0.0692787 33.5764 0.0692787 33.5795 0.0692787 33.5825C 0.0692787 33.5856 0.0692787 33.5886 0.0692787 33.5916C 0.0692787 33.5946 0.0692787 33.5975 0.0692787 33.6004C 0.0692787 33.6033 0.0692787 33.6061 0.0692787 33.6089C 0.0692787 33.6117 0.0692787 33.6145 0.0692787 33.6172C 0.0692787 33.62 0.0692787 33.6226 0.0692787 33.6253C 0.0692787 33.6279 0.0692787 33.6305 0.0692787 33.6331C 0.0692787 33.6356 0.0692787 33.6382 0.0692787 33.6406C 0.0692787 33.6431 0.0692787 33.6455 0.0692787 33.6479C 0.0692787 33.6503 0.0692787 33.6526 0.0692787 33.6549C 0.0692787 33.6572 0.0692787 33.6595 0.0692787 33.6617C 0.0692787 33.6639 0.0692787 33.6661 0.0692787 33.6682C 0.0692787 33.6704 0.0692787 33.6724 0.0692787 33.6745C 0.0692787 33.6765 0.0692787 33.6785 0.0692787 33.6805C 0.0692787 33.6824 0.0692787 33.6844 0.0692787 33.6862C 0.0692787 33.6881 0.0692787 33.6899 0.0692787 33.6917C 0.0692787 33.6935 0.0692787 33.6952 0.0692787 33.6969C 0.0692787 33.6986 0.0692787 33.7002 0.0692787 33.7018C 0.0692787 33.7035 0.0692787 33.705 0.0692787 33.7065C 0.0692787 33.708 0.0692787 33.7095 0.0692787 33.7109C 0.0692787 33.7124 0.0692787 33.7137 0.0692787 33.7151C 0.0692787 33.7164 0.0692787 33.7177 0.0692787 33.719C 0.0692787 33.7202 0.0692787 33.7214 0.0692787 33.7226C 0.0692787 33.7237 0.0692787 33.7248 0.0692787 33.7259C 0.0692787 33.727 0.0692787 33.728 0.0692787 33.729C 0.0692787 33.7299 0.0692787 33.7309 0.0692787 33.7318C 0.0692787 33.7326 0.0692787 33.7335 0.0692787 33.7343C 0.0692787 33.7351 0.0692787 33.7358 0.0692787 33.7365C 0.0692787 33.7372 0.0692787 33.7379 0.0692787 33.7385C 0.0692787 33.7391 0.0692787 33.7397 0.0692787 33.7402C 0.0692787 33.7407 0.0692787 33.7412 0.0692787 33.7416C 0.0692787 33.742 0.0692787 33.7424 0.0692787 33.7427C 0.0692787 33.743 0.0692787 33.7433 0.0692787 33.7436C 0.0692787 33.7438 0.0692787 33.744 0.0692787 33.7441C 0.0692787 33.7443 0.0692787 33.7444 0.0692787 33.7444C 0.0692787 33.7445 1.56928 33.7445 3.06928 33.7444C 3.06928 33.7444 3.06928 33.7443 3.06928 33.7441C 3.06928 33.744 3.06928 33.7438 3.06928 33.7436C 3.06928 33.7433 3.06928 33.7431 3.06928 33.7427C 3.06928 33.7424 3.06928 33.742 3.06928 33.7416C 3.06928 33.7412 3.06928 33.7407 3.06928 33.7402C 3.06928 33.7396 3.06928 33.7391 3.06928 33.7384C 3.06928 33.7378 3.06928 33.7371 3.06928 33.7364C 3.06928 33.7357 3.06928 33.7349 3.06928 33.7341C 3.06928 33.7333 3.06928 33.7324 3.06928 33.7315C 3.06928 33.7306 3.06928 33.7297 3.06928 33.7286C 3.06928 33.7276 3.06928 33.7266 3.06928 33.7255C 3.06928 33.7244 3.06928 33.7232 3.06928 33.722C 3.06928 33.7208 3.06928 33.7195 3.06928 33.7182C 3.06928 33.7169 3.06928 33.7155 3.06928 33.7141C 3.06928 33.7127 3.06928 33.7113 3.06928 33.7098C 3.06928 33.7083 3.06928 33.7067 3.06928 33.7051C 3.06928 33.7035 3.06928 33.7018 3.06928 33.7001C 3.06928 33.6984 3.06928 33.6966 3.06928 33.6948C 3.06928 33.693 3.06928 33.6912 3.06928 33.6893C 3.06928 33.6873 3.06928 33.6854 3.06928 33.6834C 3.06928 33.6814 3.06928 33.6793 3.06928 33.6772C 3.06928 33.6751 3.06928 33.6729 3.06928 33.6707C 3.06928 33.6685 3.06928 33.6662 3.06928 33.6639C 3.06928 33.6616 3.06928 33.6592 3.06928 33.6568C 3.06928 33.6543 3.06928 33.6519 3.06928 33.6493C 3.06928 33.6468 3.06928 33.6442 3.06928 33.6416C 3.06928 33.639 3.06928 33.6363 3.06928 33.6336C 3.06928 33.6308 3.06928 33.628 3.06928 33.6252C 3.06928 33.6224 3.06928 33.6195 3.06928 33.6165C 3.06928 33.6136 3.06928 33.6106 3.06928 33.6075C 3.06928 33.6045 3.06928 33.6014 3.06928 33.5982C 3.06928 33.5951 3.06928 33.5919 3.06928 33.5886C 3.06928 33.5854 3.06928 33.582 3.06928 33.5787C 3.06928 33.5753 3.06928 33.5719 3.06928 33.5684C 3.06928 33.5649 3.06928 33.5614 3.06928 33.5578C 3.06928 33.5543 3.06928 33.5506 3.06928 33.5469C 3.06928 33.5433 3.06928 33.5395 3.06928 33.5357C 3.06928 33.5319 3.06928 33.5281 3.06928 33.5242C 3.06928 33.5203 3.06928 33.5163 3.06928 33.5123C 3.06928 33.5083 3.06928 33.5042 3.06928 33.5001C 3.06928 33.496 3.06928 33.4918 3.06928 33.4876C 3.06928 33.4834 3.06928 33.4791 3.06928 33.4747C 3.06928 33.4704 3.06928 33.466 3.06928 33.4616C 3.06928 33.4571 3.06928 33.4526 3.06928 33.448C 3.06928 33.4435 3.06928 33.4389 3.06928 33.4342C 3.06928 33.4295 3.06928 33.4248 3.06928 33.42C 3.06928 33.4153 3.06928 33.4104 3.06928 33.4055C 3.06928 33.4006 3.06928 33.3957 3.06928 33.3907C 3.06928 33.3857 3.06928 33.3806 3.06928 33.3755C 3.06928 33.3704 3.06928 33.3652 3.06928 33.36C 3.06928 33.3548 3.06928 33.3495 3.06928 33.3442C 3.06928 33.3388 3.06928 33.3334 3.06928 33.328C 3.06928 33.3225 3.06928 33.317 3.06928 33.3115C 3.06928 33.3059 3.06928 33.3003 3.06928 33.2946C 3.06928 33.2889 3.06928 33.2832 3.06928 33.2774C 3.06928 33.2716 3.06928 33.2658 3.06928 33.2598C 3.06928 33.2539 3.06928 33.248 3.06928 33.242C 3.06928 33.2359 3.06928 33.2299 3.06928 33.2237C 3.06928 33.2176 3.06928 33.2114 3.06928 33.2051C 3.06928 33.1989 3.06928 33.1926 3.06928 33.1862C 3.06928 33.1799 3.06928 33.1734 3.06928 33.1669C 3.06928 33.1605 3.06928 33.1539 3.06928 33.1473C 3.06928 33.1407 3.06928 33.1341 3.06928 33.1273C 3.06928 33.1206 3.06928 33.1139 3.06928 33.107C 3.06928 33.1002 3.06928 33.0933 3.06928 33.0864C 3.06928 33.0794 3.06928 33.0724 3.06928 33.0653C 3.06928 33.0583 3.06928 33.0511 3.06928 33.0439C 3.06928 33.0368 3.06928 33.0295 3.06928 33.0222C 3.06928 33.0149 3.06928 33.0075 3.06928 33.0001C 3.06928 32.9927 3.06928 32.9852 3.06928 32.9777C 3.06928 32.9701 3.06928 32.9625 3.06928 32.9549L 0.0692787 32.9549ZM 3.06928 21.1853C 3.06928 20.4251 2.97459 19.2793 2.88057 18.0732C 2.78358 16.8291 2.68006 15.4455 2.64296 14.1007C 2.60556 12.7451 2.63828 11.4969 2.79278 10.5143C 2.96336 9.42952 3.22462 9.07077 3.29096 9.0177L 1.41688 6.67509C 0.392461 7.49462 0.0102618 8.89681 -0.170801 10.0483C -0.367934 11.3019 -0.395027 12.7653 -0.355899 14.1835C -0.316471 15.6125 -0.207121 17.0651 -0.11036 18.3063C -0.0106381 19.5856 0.0692787 20.5745 0.0692787 21.1853L 3.06928 21.1853ZM 3.29096 9.0177C 4.37987 8.14657 5.21995 7.29233 5.93589 6.53451C 6.67469 5.7525 7.21553 5.14829 7.81155 4.6264C 8.86137 3.70714 10.0491 3.06928 12.5542 3.06928L 12.5542 0.0692787C 9.34433 0.0692787 7.44853 0.956711 5.83522 2.36938C 5.09968 3.01345 4.41408 3.77686 3.75518 4.47429C 3.07342 5.19592 2.34455 5.93295 1.41688 6.67509L 3.29096 9.0177ZM 12.5542 3.06928C 13.7691 3.06928 14.377 3.34331 14.7261 3.61694C 15.0974 3.90789 15.3776 4.35315 15.6628 5.08196C 15.8062 5.44812 15.9322 5.83408 16.0831 6.28622C 16.2285 6.72158 16.3939 7.20864 16.5977 7.69375C 17.0099 8.6748 17.6126 9.73394 18.6789 10.587L 20.553 8.24437C 20.0239 7.82109 19.67 7.26128 19.3636 6.53181C 19.2081 6.16168 19.0737 5.7706 18.9288 5.3363C 18.7894 4.9188 18.6346 4.44362 18.4565 3.98852C 18.0989 3.07481 17.5737 2.03709 16.5767 1.25569C 15.5575 0.456973 14.2342 0.0692787 12.5542 0.0692787L 12.5542 3.06928ZM 18.6789 10.587C 18.9041 10.7671 19.1424 11.1573 19.2482 12.0325C 19.3527 12.8964 19.2972 13.968 19.1846 15.2065C 19.0779 16.3817 18.9145 17.7461 18.8726 18.9552C 18.8313 20.1454 18.888 21.4753 19.3786 22.5791L 22.1201 21.3607C 21.9235 20.9184 21.8321 20.1757 21.8708 19.0591C 21.9088 17.9614 22.0536 16.7851 22.1723 15.4779C 22.2853 14.2339 22.3727 12.8817 22.2266 11.6725C 22.0818 10.4748 21.6761 9.14282 20.553 8.24437L 18.6789 10.587ZM 19.3786 22.5791C 20.1992 24.4254 20.3889 26.3297 20.6095 28.4895C 20.823 30.5797 21.0671 32.934 22.1975 35.195L 24.8808 33.8533C 24.03 32.1516 23.8131 30.3302 23.594 28.1847C 23.382 26.1088 23.1674 23.7173 22.1201 21.3607L 19.3786 22.5791Z"/>
<path id="path8_stroke" d="M 17.679 38.5685C 18.1793 39.2288 19.1201 39.3586 19.7804 38.8583C 20.4408 38.3581 20.5705 37.4172 20.0703 36.7569L 17.679 38.5685ZM 3.53058 31.3856L 2.21935 30.6571L 2.21935 30.6571L 3.53058 31.3856ZM 1.96131 64.3404L 3.33202 63.7312L 3.33202 63.7312L 1.96131 64.3404ZM 14.5155 67.479L 15.8412 68.1808L 14.5155 67.479ZM 14.0975 0C 14.0975 -0.828427 13.426 -1.5 12.5975 -1.5C 11.7691 -1.5 11.0975 -0.828427 11.0975 0L 14.0975 0ZM 20.0703 36.7569C 19.0399 35.3968 17.7717 33.5953 16.5348 32.0205C 15.275 30.4167 13.8784 28.8195 12.3948 27.6966C 10.9239 26.5833 9.12215 25.7547 7.15664 26.1893C 5.20435 26.621 3.58994 28.19 2.21935 30.6571L 4.84182 32.114C 6.03972 29.9578 7.0811 29.2785 7.80432 29.1186C 8.51432 28.9616 9.4078 29.1982 10.5843 30.0887C 11.7481 30.9696 12.9511 32.3147 14.1756 33.8736C 15.4229 35.4616 16.5235 37.0432 17.679 38.5685L 20.0703 36.7569ZM 2.21935 30.6571C -0.457004 35.4745 -1.4567 41.9151 -1.4567 47.0784L 1.5433 47.0784C 1.5433 42.1896 2.50658 36.3175 4.84182 32.114L 2.21935 30.6571ZM -1.4567 47.0784C -1.4567 52.7904 -1.9951 59.1318 0.590589 64.9496L 3.33202 63.7312C 1.0762 58.6556 1.5433 53.1849 1.5433 47.0784L -1.4567 47.0784ZM 0.590589 64.9496C 1.1434 66.1935 2.15621 67.3605 3.31583 68.3187C 4.48912 69.2882 5.9056 70.1214 7.37639 70.6495C 8.83414 71.1731 10.4523 71.4342 11.9775 71.118C 13.5644 70.7889 14.9586 69.8479 15.8412 68.1808L 13.1899 66.7772C 12.7429 67.6213 12.1171 68.0252 11.3684 68.1805C 10.5579 68.3485 9.52476 68.2335 8.39035 67.8261C 7.26898 67.4234 6.15248 66.771 5.22679 66.0061C 4.28744 65.2299 3.6353 64.4136 3.33202 63.7312L 0.590589 64.9496ZM 15.8412 68.1808C 21.8059 56.9142 21.2595 45.0901 19.3323 33.56C 18.3757 27.8362 17.0395 21.9931 15.982 16.4263C 14.9122 10.795 14.0975 5.31258 14.0975 0L 11.0975 0C 11.0975 5.59816 11.9547 11.3009 13.0347 16.9862C 14.127 22.7362 15.4185 28.3414 16.3734 34.0545C 18.2694 45.3983 18.6821 56.4029 13.1899 66.7772L 15.8412 68.1808Z"/>
</defs>
</svg>
