<svg width="76" height="84" viewBox="0 0 76 84" version="1.1" xmlns="http://www.w3.org/2000/svg" xmlns:xlink="http://www.w3.org/1999/xlink">
<title>Vector 6</title>
<desc>Created using Figma</desc>
<g id="Canvas" transform="translate(16297 2537)">
<g id="Vector 6">
<use xlink:href="#path0_stroke" transform="translate(-16292.4 -2532.2)" fill="#FF9430"/>
</g>
</g>
<defs>
<path id="path0_stroke" d="M 20.2792 36.1449C 20.2792 38.3541 22.07 40.1449 24.2792 40.1449C 26.4883 40.1449 28.2792 38.3541 28.2792 36.1449L 20.2792 36.1449ZM 26.4726 29.5647L 28.4152 33.0613L 28.4152 33.0613L 26.4726 29.5647ZM 31.1728 27.9979L 31.4077 31.991L 31.1728 27.9979ZM 32.4262 43.8045L 34.3688 47.3012L 34.3688 47.3012L 32.4262 43.8045ZM 22.1206 46.4854L 20.4654 50.1269L 22.1206 46.4854ZM 15.2269 27.6846L 18.3843 30.1403L 15.2269 27.6846ZM 23.9658 18.319L 26.4216 21.4764L 26.4216 21.4764L 23.9658 18.319ZM 44.9601 21.1043L 42.2136 24.0123L 42.2136 24.0123L 44.9601 21.1043ZM 36.4649 59.9593L 37.8319 63.7185L 36.4649 59.9593ZM 15.3662 61.0735L 16.6746 57.2935L 15.3662 61.0735ZM 4.53831 52.1605L 1.44248 54.6934L 1.44248 54.6934L 4.53831 52.1605ZM 1.40484 26.4312L 4.90147 28.3737L 4.90147 28.3737L 1.40484 26.4312ZM 6.4184 14.8025L 2.93209 12.8415L 6.4184 14.8025ZM 18.1515 2.79087L 19.5408 6.54186L 19.5408 6.54186L 18.1515 2.79087ZM 42.9408 1.53748L 44.33 -2.21351L 44.33 -2.21351L 42.9408 1.53748ZM 52.4804 8.43112L 54.5662 5.01799L 52.4804 8.43112ZM 56.5888 13.8973L 53.4314 16.353L 56.5888 13.8973ZM 61.2193 19.8509L 57.5428 21.4266L 57.5428 21.4266L 61.2193 19.8509ZM 64.5269 26.6053L 60.7322 27.8702L 64.5269 26.6053ZM 65.9544 33.0115L 69.7213 31.6661L 69.7213 31.6661L 65.9544 33.0115ZM 51.227 66.2263L 48.5696 63.2366L 51.227 66.2263ZM 32.7047 73.7814L 31.9892 69.8459L 31.9892 69.8459L 32.7047 73.7814ZM 13.6254 70.3733C 11.4162 70.3733 9.62538 72.1642 9.62538 74.3733C 9.62538 76.5824 11.4162 78.3733 13.6254 78.3733L 13.6254 70.3733ZM 28.2792 36.1449C 28.2792 35.3014 28.2317 34.3759 28.2189 33.908C 28.2027 33.3116 28.2235 33.0842 28.241 32.988C 28.2445 32.9685 28.215 33.1033 28.109 33.2427C 28.0271 33.3505 28.0421 33.2686 28.4152 33.0613L 24.53 26.068C 23.4756 26.6538 22.5028 27.399 21.7419 28.3992C 20.9569 29.4311 20.5575 30.5239 20.3696 31.5591C 20.1956 32.5177 20.2033 33.442 20.2219 34.1256C 20.244 34.9377 20.2792 35.4205 20.2792 36.1449L 28.2792 36.1449ZM 28.4152 33.0613C 28.8101 32.8419 29.4407 32.5596 30.1161 32.3273C 30.4438 32.2147 30.7439 32.127 30.9948 32.0676C 31.1188 32.0382 31.2192 32.0184 31.2959 32.0059C 31.3747 31.9931 31.4103 31.9909 31.4077 31.991L 30.9379 24.0048C 29.7541 24.0745 28.495 24.425 27.5148 24.7621C 26.4811 25.1175 25.4075 25.5805 24.53 26.068L 28.4152 33.0613ZM 31.4077 31.991C 31.7546 31.9706 31.7863 32.0422 31.6839 31.9851C 31.5916 31.9337 31.6105 31.8989 31.698 32.0517C 31.7984 32.227 31.9318 32.5558 32.0342 33.0853C 32.1346 33.6048 32.1864 34.2189 32.1864 34.8916L 40.1864 34.8916C 40.1864 32.8992 39.9081 30.2889 38.6394 28.0746C 37.9698 26.9061 36.9835 25.7803 35.5789 24.9974C 34.1642 24.2088 32.5764 23.9084 30.9379 24.0048L 31.4077 31.991ZM 32.1864 34.8916C 32.1864 36.8787 32.1281 37.9673 31.8678 38.7764C 31.6975 39.306 31.4286 39.783 30.4836 40.3079L 34.3688 47.3012C 37.0756 45.7974 38.6867 43.7032 39.4835 41.2262C 40.1904 39.0287 40.1864 36.6752 40.1864 34.8916L 32.1864 34.8916ZM 30.4836 40.3079C 28.5769 41.3672 27.5136 42.1329 26.1112 42.6804C 24.9537 43.1322 24.3205 43.0915 23.7758 42.8439L 20.4654 50.1269C 23.68 51.5881 26.7097 51.0347 29.0203 50.1327C 31.0859 49.3264 33.2958 47.8973 34.3688 47.3012L 30.4836 40.3079ZM 23.7758 42.8439C 21.8899 41.9867 19.6466 39.6298 18.399 36.6835C 17.1375 33.7042 17.3866 31.4232 18.3843 30.1403L 12.0695 25.2288C 8.53574 29.7722 9.21987 35.5227 11.0322 39.8028C 12.8585 44.1158 16.3278 48.2462 20.4654 50.1269L 23.7758 42.8439ZM 18.3843 30.1403C 21.1236 26.6185 23.3118 23.8951 26.4216 21.4764L 21.5101 15.1616C 17.5204 18.2646 14.7899 21.7312 12.0695 25.2288L 18.3843 30.1403ZM 26.4216 21.4764C 26.6817 21.2741 27.6947 20.8931 29.8733 20.7482C 31.9079 20.6129 33.8267 20.7174 35.699 20.7174L 35.699 12.7174C 34.3631 12.7174 31.7202 12.6078 29.3426 12.7658C 27.1092 12.9143 23.8597 13.3341 21.5101 15.1616L 26.4216 21.4764ZM 35.699 20.7174C 37.1162 20.7174 38.0724 20.9951 38.9194 21.4378C 39.8591 21.9289 40.8326 22.7081 42.2136 24.0123L 47.7066 18.1962C 46.213 16.7856 44.5834 15.3713 42.6249 14.3477C 40.5737 13.2757 38.3366 12.7174 35.699 12.7174L 35.699 20.7174ZM 42.2136 24.0123C 42.8702 24.6324 43.351 25.4435 43.8891 26.7467C 44.3188 27.7874 45.0677 29.9853 45.9085 31.6669L 53.0639 28.0891C 52.3536 26.6686 52.0993 25.6694 51.2836 23.6937C 50.5763 21.9804 49.5696 19.9557 47.7066 18.1962L 42.2136 24.0123ZM 45.9085 31.6669C 46.3824 32.6147 46.6211 33.8493 46.6797 35.5394C 46.7087 36.3729 46.693 37.2441 46.6657 38.1982C 46.6395 39.1127 46.6004 40.1595 46.6004 41.1585L 54.6004 41.1585C 54.6004 40.3099 54.6333 39.4455 54.6624 38.4269C 54.6904 37.4478 54.7132 36.3639 54.6749 35.2619C 54.5992 33.0808 54.2808 30.5229 53.0639 28.0891L 45.9085 31.6669ZM 46.6004 41.1585C 46.6004 44.2474 46.5993 45.8305 46.2531 47.204C 45.9734 48.3136 45.4062 49.4695 43.6984 51.1773L 49.3553 56.8342C 51.8293 54.3602 53.2988 51.9828 54.0105 49.1593C 54.6556 46.5998 54.6004 43.8501 54.6004 41.1585L 46.6004 41.1585ZM 43.6984 51.1773C 42.9695 51.9063 41.5554 52.9171 39.7878 53.937C 38.0655 54.9308 36.314 55.758 35.0979 56.2002L 37.8319 63.7185C 39.5917 63.0786 41.7713 62.0287 43.7861 60.8662C 45.7556 59.7298 47.8846 58.3049 49.3553 56.8342L 43.6984 51.1773ZM 35.0979 56.2002C 31.6991 57.4361 29.7427 57.8394 26.1593 57.8394L 26.1593 65.8394C 30.7901 65.8394 33.6717 65.2313 37.8319 63.7185L 35.0979 56.2002ZM 26.1593 57.8394C 23.9817 57.8394 22.6594 57.9429 20.7944 57.897C 19.1478 57.8564 17.8078 57.6857 16.6746 57.2935L 14.0578 64.8534C 16.3091 65.6327 18.5843 65.845 20.5975 65.8945C 22.3923 65.9387 24.7743 65.8394 26.1593 65.8394L 26.1593 57.8394ZM 16.6746 57.2935C 13.407 56.1624 10.552 53.1938 7.63414 49.6275L 1.44248 54.6934C 4.29095 58.1749 8.40955 62.8982 14.0578 64.8534L 16.6746 57.2935ZM 7.63414 49.6275C 6.78944 48.5951 5.96783 46.9241 5.3606 44.8933C 4.76279 42.8939 4.4648 40.8536 4.4648 39.2784L -3.5352 39.2784C -3.5352 41.7282 -3.09418 44.5427 -2.30411 47.1851C -1.52344 49.796 -0.308302 52.5536 1.44248 54.6934L 7.63414 49.6275ZM 4.4648 39.2784C 4.4648 37.9289 4.35228 36.6669 4.24686 35.5814C 4.13613 34.4413 4.04034 33.5518 4.00949 32.665C 3.95262 31.0307 4.13664 29.7504 4.90147 28.3737L -2.09179 24.4886C -3.78806 27.5419 -4.07407 30.4027 -3.98567 32.9432C -3.9439 34.1438 -3.81324 35.3502 -3.71568 36.3547C -3.61281 37.4139 -3.5352 38.3454 -3.5352 39.2784L 4.4648 39.2784ZM 4.90147 28.3737C 6.06452 26.2803 6.89839 24.0018 7.6183 22.0712C 8.37832 20.0331 9.03702 18.3061 9.9047 16.7636L 2.93209 12.8415C 1.71123 15.0119 0.852461 17.3185 0.122495 19.2761C -0.647584 21.3412 -1.27622 23.0206 -2.09179 24.4886L 4.90147 28.3737ZM 9.9047 16.7636C 12.7208 11.7572 15.3797 8.08299 19.5408 6.54186L 16.7623 -0.960126C 9.62749 1.68238 5.76054 7.81312 2.93209 12.8415L 9.9047 16.7636ZM 19.5408 6.54186C 26.3316 4.02674 35.281 2.96606 41.5515 5.28848L 44.33 -2.21351C 35.5498 -5.46545 24.4678 -3.81405 16.7623 -0.960126L 19.5408 6.54186ZM 41.5515 5.28848C 42.8428 5.76674 43.9149 6.56018 45.2781 7.75573C 46.5204 8.84521 48.2849 10.555 50.3946 11.8442L 54.5662 5.01799C 53.222 4.1965 52.2168 3.20025 50.5529 1.74103C 49.0099 0.387869 47.0392 -1.21012 44.33 -2.21351L 41.5515 5.28848ZM 50.3946 11.8442C 50.6842 12.0212 50.9432 12.2798 51.3734 13.007C 51.6598 13.491 51.7764 13.7352 52.1684 14.4247C 52.4877 14.9861 52.8975 15.6667 53.4314 16.353L 59.7462 11.4415C 59.2232 10.7691 59.1024 10.3598 58.2586 8.9335C 57.5455 7.72815 56.4735 6.18354 54.5662 5.01799L 50.3946 11.8442ZM 53.4314 16.353C 54.2377 17.3898 55.4561 18.6673 56.0868 19.388C 56.8958 20.3126 57.335 20.9418 57.5428 21.4266L 64.8959 18.2752C 64.1662 16.5726 63.0161 15.1584 62.1072 14.1198C 61.0199 12.8772 60.3918 12.2716 59.7462 11.4415L 53.4314 16.353ZM 57.5428 21.4266C 58.1314 22.8 58.8904 24.1226 59.4375 25.1221C 60.0354 26.2144 60.461 27.0568 60.7322 27.8702L 68.3216 25.3403C 67.8041 23.7878 67.0678 22.4005 66.455 21.281C 65.7914 20.0685 65.2909 19.1969 64.8959 18.2752L 57.5428 21.4266ZM 60.7322 27.8702C 60.9687 28.5798 61.1004 29.3505 61.2883 30.4953C 61.4577 31.5271 61.6847 32.9494 62.1874 34.3568L 69.7213 31.6661C 69.5 31.0464 69.3685 30.3311 69.1827 29.1994C 69.0155 28.1806 68.7954 26.7618 68.3216 25.3403L 60.7322 27.8702ZM 62.1874 34.3568C 62.5479 35.3663 62.6699 36.9606 62.5908 39.2034C 62.553 40.2768 62.4781 41.3539 62.4058 42.4937C 62.3361 43.5923 62.2677 44.7649 62.2677 45.8587L 70.2677 45.8587C 70.2677 45.0496 70.3193 44.1103 70.3897 43.0001C 70.4575 41.9311 70.543 40.7025 70.5859 39.4853C 70.6683 37.1469 70.6336 34.2205 69.7213 31.6661L 62.1874 34.3568ZM 62.2677 45.8587C 62.2677 49.3748 60.7142 52.1868 58.1072 54.9588C 56.7855 56.3642 55.2544 57.6921 53.5915 59.0621C 51.9991 60.3741 50.1592 61.8236 48.5696 63.2366L 53.8845 69.2159C 55.3264 67.9342 56.8824 66.7163 58.6785 65.2365C 60.4043 63.8147 62.2544 62.2264 63.9349 60.4395C 67.3325 56.8268 70.2677 52.1498 70.2677 45.8587L 62.2677 45.8587ZM 48.5696 63.2366C 44.5931 66.7713 38.0523 68.7436 31.9892 69.8459L 33.4203 77.7169C 39.6826 76.5783 48.146 74.3168 53.8845 69.2159L 48.5696 63.2366ZM 31.9892 69.8459C 28.3896 70.5004 25.928 71 22.7125 71L 22.7125 79C 26.792 79 30.0119 78.3366 33.4203 77.7169L 31.9892 69.8459ZM 22.7125 71C 21.4173 71 20.0265 70.8665 18.4501 70.707C 16.964 70.5566 15.2363 70.3733 13.6254 70.3733L 13.6254 78.3733C 14.7481 78.3733 16.035 78.5034 17.6445 78.6663C 19.1638 78.8201 20.9497 79 22.7125 79L 22.7125 71Z"/>
</defs>
</svg>
