<svg width="110" height="171" viewBox="0 0 110 171" version="1.1" xmlns="http://www.w3.org/2000/svg" xmlns:xlink="http://www.w3.org/1999/xlink">
<title>Group</title>
<desc>Created using Figma</desc>
<g id="Canvas" transform="translate(16484 2026)">
<g id="Group">
<g id="Vector 5">
<use xlink:href="#path0_stroke" transform="translate(-16471.7 -2010.03)"/>
</g>
<g id="Vector 6">
<use xlink:href="#path1_stroke" transform="translate(-16479.5 -1957.08)"/>
</g>
<g id="Vector 7">
<use xlink:href="#path2_stroke" transform="translate(-16473.4 -1954.4)"/>
</g>
<g id="Vector 8">
<use xlink:href="#path3_stroke" transform="translate(-16474 -1941)"/>
</g>
<g id="Vector 9">
<use xlink:href="#path4_stroke" transform="translate(-16400.4 -1937.02)"/>
</g>
<g id="Vector 10">
<use xlink:href="#path5_stroke" transform="translate(-16471.9 -1878.19)"/>
</g>
<g id="Vector 11">
<use xlink:href="#path6_stroke" transform="translate(-16412.3 -1882.75)"/>
</g>
<g id="Vector 12">
<use xlink:href="#path7_stroke" transform="translate(-16465.3 -2024.09)"/>
</g>
<g id="Vector 13">
<use xlink:href="#path8_stroke" transform="translate(-16412.4 -2022.11)"/>
</g>
<g id="Ellipse">
<use xlink:href="#path9_fill" transform="matrix(0.819152 0.573576 -0.573576 0.819152 -16440.4 -1995.77)"/>
</g>
<g id="Ellipse">
<use xlink:href="#path9_fill" transform="matrix(0.819152 -0.573576 0.573576 0.819152 -16426.9 -1990.61)"/>
</g>
<g id="Vector 14">
<use xlink:href="#path10_stroke" transform="translate(-16437.9 -1971.15)"/>
</g>
<g id="Ellipse 2">
<use xlink:href="#path11_fill" transform="translate(-16423 -1990)" fill="#F2F2F2"/>
</g>
<g id="Ellipse 2.1">
<use xlink:href="#path11_fill" transform="translate(-16442 -1990)" fill="#F2F2F2"/>
</g>
<g id="Ellipse 2.2">
<use xlink:href="#path11_fill" transform="translate(-16431 -1980)" fill="#333333"/>
</g>
</g>
</g>
<defs>
<path id="path0_stroke" d="M 57.2389 3.87022C 57.515 3.87575 57.7433 3.65641 57.7488 3.38032C 57.7543 3.10424 57.535 2.87595 57.2589 2.87042L 57.2389 3.87022ZM 20.6965 0.727533L 20.607 0.235598L 20.6965 0.727533ZM 0.335827 31.8455L 0.830013 31.7694L 0.335827 31.8455ZM 8.00364 46.2505L 7.58305 46.5209L 8.00364 46.2505ZM 20.0265 55.7795L 20.1638 55.2987L 20.0265 55.7795ZM 29.1087 58.9434L 29.0535 59.4403L 29.1087 58.9434ZM 37.4838 59.6134L 37.4078 60.1076L 37.4838 59.6134ZM 74.669 55.6306L 74.6413 55.1314L 74.669 55.6306ZM 85.389 48.6328L 85.8232 48.8808L 85.389 48.6328ZM 82.709 19.1526L 83.1431 18.9046L 82.709 19.1526ZM 73.8501 11.5593L 74.1846 11.1876L 73.8501 11.5593ZM 55.9089 2.20032C 55.6327 2.20032 55.4089 2.42418 55.4089 2.70032C 55.4089 2.97646 55.6327 3.20032 55.9089 3.20032L 55.9089 2.20032ZM 57.2589 2.87042C 53.6392 2.79803 50.2044 1.97484 46.7097 1.15335C 43.2315 0.335741 39.6954 -0.479692 35.9577 -0.479692L 35.9577 0.520308C 39.5625 0.520308 42.9901 1.30625 46.4809 2.12682C 49.9553 2.94353 53.4948 3.79534 57.2389 3.87022L 57.2589 2.87042ZM 35.9577 -0.479692C 30.8307 -0.479692 25.6976 -0.689958 20.607 0.235598L 20.7859 1.21947C 25.7626 0.314615 30.7716 0.520308 35.9577 0.520308L 35.9577 -0.479692ZM 20.607 0.235598C 5.97296 2.89634 -2.32436 17.8425 -0.158359 31.9215L 0.830013 31.7694C -1.27155 18.1093 6.79374 3.7635 20.7859 1.21947L 20.607 0.235598ZM -0.158359 31.9215C 0.288452 34.8258 1.52861 37.3813 2.99688 39.7512C 3.73095 40.9361 4.52647 42.0813 5.31171 43.2011C 6.09951 44.3245 6.8751 45.4197 7.58305 46.5209L 8.42423 45.9802C 7.70279 44.8579 6.91328 43.7432 6.13045 42.6269C 5.34506 41.5069 4.56441 40.3826 3.84696 39.2246C 2.41218 36.9087 1.24782 34.4852 0.830013 31.7694L -0.158359 31.9215ZM 7.58305 46.5209C 10.7165 51.3951 14.1011 54.6065 19.8891 56.2602L 20.1638 55.2987C 14.6748 53.7304 11.4683 50.7153 8.42423 45.9802L 7.58305 46.5209ZM 19.8891 56.2602C 21.3654 56.682 22.7869 57.3626 24.3042 58.0122C 25.8008 58.653 27.3705 59.2533 29.0535 59.4403L 29.164 58.4464C 27.6368 58.2768 26.1817 57.7283 24.6978 57.093C 23.2346 56.4664 21.7202 55.7434 20.1638 55.2987L 19.8891 56.2602ZM 29.0535 59.4403C 30.4937 59.6003 31.9021 59.6604 33.2809 59.7338C 34.6659 59.8076 36.0271 59.8952 37.4078 60.1076L 37.5598 59.1192C 36.1261 58.8986 34.7219 58.8092 33.3341 58.7352C 31.94 58.661 30.5681 58.6025 29.164 58.4464L 29.0535 59.4403ZM 37.4078 60.1076C 40.6233 60.6023 43.896 60.4391 47.1131 60.159C 50.3493 59.8772 53.5058 59.4806 56.5789 59.4806L 56.5789 58.4806C 53.4479 58.4806 50.2101 58.8855 47.0264 59.1627C 43.8237 59.4416 40.6508 59.5947 37.5598 59.1192L 37.4078 60.1076ZM 56.5789 59.4806C 59.6986 59.4806 62.7691 58.709 65.7691 57.9149C 68.7908 57.1151 71.7357 56.2943 74.6967 56.1298L 74.6413 55.1314C 71.5566 55.3027 68.5023 56.157 65.5133 56.9482C 62.5026 57.7451 59.5509 58.4806 56.5789 58.4806L 56.5789 59.4806ZM 74.6967 56.1298C 76.7796 56.0141 79.0668 55.0554 81.0605 53.723C 83.0565 52.3891 84.8172 50.6413 85.8232 48.8808L 84.9549 48.3847C 84.0448 49.9774 82.4084 51.6195 80.5049 52.8916C 78.599 54.1653 76.4843 55.029 74.6413 55.1314L 74.6967 56.1298ZM 85.8232 48.8808C 87.5725 45.8195 89.9588 41.6742 91.0871 37.4772C 92.2177 33.2712 92.1138 28.8925 88.7204 25.4991L 88.0133 26.2062C 91.0447 29.2377 91.2078 33.1761 90.1213 37.2175C 89.0325 41.2679 86.7175 45.3003 84.9549 48.3847L 85.8232 48.8808ZM 88.7204 25.4991C 88.2323 25.011 87.9269 24.458 87.5843 23.833C 87.2485 23.2205 86.8769 22.539 86.2637 21.9258L 85.5566 22.6329C 86.055 23.1313 86.3657 23.6904 86.7074 24.3137C 87.0422 24.9245 87.4094 25.6023 88.0133 26.2062L 88.7204 25.4991ZM 86.2637 21.9258C 85.7608 21.4228 85.084 20.8941 84.5185 20.4048C 83.9245 19.8908 83.4263 19.4001 83.1431 18.9046L 82.2749 19.4007C 82.65 20.0572 83.2656 20.6431 83.8642 21.161C 84.4913 21.7036 85.0859 22.1622 85.5566 22.6329L 86.2637 21.9258ZM 83.1431 18.9046C 82.127 17.1263 80.5433 15.8116 78.9097 14.6425C 77.2454 13.4514 75.5696 12.4341 74.1846 11.1876L 73.5156 11.9309C 74.955 13.2263 76.7487 14.3257 78.3277 15.4557C 79.9375 16.6078 81.371 17.8189 82.2749 19.4007L 83.1431 18.9046ZM 74.1846 11.1876C 71.9508 9.17723 68.8579 6.93885 65.5995 5.20044C 62.3529 3.46834 58.8826 2.20032 55.9089 2.20032L 55.9089 3.20032C 58.6371 3.20032 61.9326 4.3775 65.1288 6.08272C 68.3131 7.78164 71.3399 9.97273 73.5156 11.9309L 74.1846 11.1876Z"/>
<path id="path1_stroke" d="M 21.8265 0.414718C 22.0556 0.260465 22.1162 -0.0502575 21.962 -0.2793C 21.8077 -0.508343 21.497 -0.568972 21.2679 -0.414718L 21.8265 0.414718ZM 0.777131 38.8602L 0.277324 38.8463L 0.777131 38.8602ZM 0.14435 64.9159L -0.35488 64.9436L 0.14435 64.9159ZM 6.35995 83.974C 6.48344 84.221 6.78378 84.3211 7.03077 84.1976C 7.27776 84.0741 7.37787 83.7738 7.25437 83.5268L 6.35995 83.974ZM 21.2679 -0.414718C 14.095 4.41605 11.0324 9.86154 7.36495 17.1965L 8.25938 17.6437C 11.9118 10.3388 14.8792 5.09355 21.8265 0.414718L 21.2679 -0.414718ZM 7.36495 17.1965C 4.17845 23.5695 0.480825 31.5203 0.277324 38.8463L 1.27694 38.8741C 1.47338 31.8021 5.05999 24.0425 8.25938 17.6437L 7.36495 17.1965ZM 0.277324 38.8463C 0.0390637 47.4237 -0.842842 56.1603 -0.35488 64.9436L 0.64358 64.8882C 0.158479 56.1563 1.03586 47.5529 1.27694 38.8741L 0.277324 38.8463ZM -0.35488 64.9436C -0.178675 68.1153 0.835551 71.535 2.12953 74.8169C 3.42492 78.1024 5.01457 81.2833 6.35995 83.974L 7.25437 83.5268C 5.90646 80.831 4.33658 77.6883 3.05983 74.4501C 1.78166 71.2083 0.811127 67.904 0.64358 64.8882L -0.35488 64.9436Z"/>
<path id="path2_stroke" d="M 80.1538 -0.265884C 80.007 -0.499746 79.6984 -0.570289 79.4645 -0.423445C 79.2307 -0.276601 79.1601 0.0320219 79.307 0.265884L 80.1538 -0.265884ZM 91.7905 24.1201L 92.2903 24.107L 91.7905 24.1201ZM 89.7805 75.7104L 90.1901 75.9971L 89.7805 75.7104ZM 80.5493 86.2815L 80.8964 86.6415L 80.5493 86.2815ZM 77.7204 89.371L 78.1773 89.5741L 77.7204 89.371ZM 72.3604 91.1205L 72.5739 91.5726L 72.3604 91.1205ZM 12.7301 93.6516L 12.9836 93.2206L 12.7301 93.6516ZM 4.69002 85.9093L 4.45608 86.3512L 4.69002 85.9093ZM 0.447214 80.8468C 0.323719 80.5998 0.0233825 80.4997 -0.223607 80.6232C -0.470596 80.7467 -0.570708 81.047 -0.447214 81.294L 0.447214 80.8468ZM 79.307 0.265884C 80.5167 2.19257 81.8642 4.06969 83.198 5.93745C 84.535 7.80987 85.8591 9.67409 87.0404 11.5954C 89.4015 15.4355 91.1678 19.4658 91.2906 24.1333L 92.2903 24.107C 92.1609 19.1905 90.2978 14.984 87.8923 11.0716C 86.6903 9.11672 85.3467 7.2258 84.0118 5.35633C 82.6735 3.48219 81.3447 1.63067 80.1538 -0.265884L 79.307 0.265884ZM 91.2906 24.1333C 91.5075 32.3752 91.2905 40.6386 91.2905 48.9102L 92.2905 48.9102C 92.2905 40.6759 92.5076 32.3643 92.2903 24.107L 91.2906 24.1333ZM 91.2905 48.9102C 91.2905 48.9228 91.2905 48.9354 91.2905 48.9479C 91.2905 48.9605 91.2905 48.973 91.2905 48.9856C 91.2905 48.9981 91.2905 49.0107 91.2905 49.0232C 91.2905 49.0358 91.2905 49.0483 91.2905 49.0609C 91.2905 49.0734 91.2905 49.086 91.2905 49.0985C 91.2905 49.1111 91.2905 49.1236 91.2905 49.1362C 91.2905 49.1488 91.2905 49.1613 91.2905 49.1739C 91.2905 49.1864 91.2905 49.199 91.2905 49.2115C 91.2905 49.2241 91.2905 49.2366 91.2905 49.2492C 91.2905 49.2617 91.2905 49.2743 91.2905 49.2868C 91.2905 49.2994 91.2905 49.3119 91.2905 49.3245C 91.2905 49.337 91.2905 49.3496 91.2905 49.3622C 91.2905 49.3747 91.2905 49.3873 91.2905 49.3998C 91.2905 49.4124 91.2905 49.4249 91.2905 49.4375C 91.2905 49.45 91.2905 49.4626 91.2905 49.4751C 91.2905 49.4877 91.2905 49.5002 91.2905 49.5128C 91.2905 49.5253 91.2905 49.5379 91.2905 49.5504C 91.2905 49.563 91.2905 49.5756 91.2905 49.5881C 91.2905 49.6007 91.2905 49.6132 91.2905 49.6258C 91.2905 49.6383 91.2905 49.6509 91.2905 49.6634C 91.2905 49.676 91.2905 49.6885 91.2905 49.7011C 91.2905 49.7136 91.2905 49.7262 91.2905 49.7387C 91.2905 49.7513 91.2905 49.7638 91.2905 49.7764C 91.2905 49.7889 91.2905 49.8015 91.2905 49.8141C 91.2905 49.8266 91.2905 49.8392 91.2905 49.8517C 91.2905 49.8643 91.2905 49.8768 91.2905 49.8894C 91.2905 49.9019 91.2905 49.9145 91.2905 49.927C 91.2905 49.9396 91.2905 49.9521 91.2905 49.9647C 91.2905 49.9772 91.2905 49.9898 91.2905 50.0023C 91.2905 50.0149 91.2905 50.0275 91.2905 50.04C 91.2905 50.0526 91.2905 50.0651 91.2905 50.0777C 91.2905 50.0902 91.2905 50.1028 91.2905 50.1153C 91.2905 50.1279 91.2905 50.1404 91.2905 50.153C 91.2905 50.1655 91.2905 50.1781 91.2905 50.1906C 91.2905 50.2032 91.2905 50.2157 91.2905 50.2283C 91.2905 50.2409 91.2905 50.2534 91.2905 50.266C 91.2905 50.2785 91.2905 50.2911 91.2905 50.3036C 91.2905 50.3162 91.2905 50.3287 91.2905 50.3413C 91.2905 50.3538 91.2905 50.3664 91.2905 50.3789C 91.2905 50.3915 91.2905 50.404 91.2905 50.4166C 91.2905 50.4291 91.2905 50.4417 91.2905 50.4543C 91.2905 50.4668 91.2905 50.4794 91.2905 50.4919C 91.2905 50.5045 91.2905 50.517 91.2905 50.5296C 91.2905 50.5421 91.2905 50.5547 91.2905 50.5672C 91.2905 50.5798 91.2905 50.5923 91.2905 50.6049C 91.2905 50.6174 91.2905 50.63 91.2905 50.6425C 91.2905 50.6551 91.2905 50.6676 91.2905 50.6802C 91.2905 50.6928 91.2905 50.7053 91.2905 50.7179C 91.2905 50.7304 91.2905 50.743 91.2905 50.7555C 91.2905 50.7681 91.2905 50.7806 91.2905 50.7932C 91.2905 50.8057 91.2905 50.8183 91.2905 50.8308C 91.2905 50.8434 91.2905 50.8559 91.2905 50.8685C 91.2905 50.8811 91.2905 50.8936 91.2905 50.9062C 91.2905 50.9187 91.2905 50.9313 91.2905 50.9438C 91.2905 50.9564 91.2905 50.9689 91.2905 50.9815C 91.2905 50.994 91.2905 51.0066 91.2905 51.0191C 91.2905 51.0317 91.2905 51.0442 91.2905 51.0568C 91.2905 51.0693 91.2905 51.0819 91.2905 51.0944C 91.2905 51.107 91.2905 51.1196 91.2905 51.1321C 91.2905 51.1447 91.2905 51.1572 91.2905 51.1698C 91.2905 51.1823 91.2905 51.1949 91.2905 51.2074C 91.2905 51.22 91.2905 51.2325 91.2905 51.2451C 91.2905 51.2576 91.2905 51.2702 91.2905 51.2827C 91.2905 51.2953 91.2905 51.3078 91.2905 51.3204C 91.2905 51.333 91.2905 51.3455 91.2905 51.3581C 91.2905 51.3706 91.2905 51.3832 91.2905 51.3957C 91.2905 51.4083 91.2905 51.4208 91.2905 51.4334C 91.2905 51.4459 91.2905 51.4585 91.2905 51.471C 91.2905 51.4836 91.2905 51.4961 91.2905 51.5087C 91.2905 51.5212 91.2905 51.5338 91.2905 51.5464C 91.2905 51.5589 91.2905 51.5715 91.2905 51.584C 91.2905 51.5966 91.2905 51.6091 91.2905 51.6217C 91.2905 51.6342 91.2905 51.6468 91.2905 51.6593C 91.2905 51.6719 91.2905 51.6844 91.2905 51.697C 91.2905 51.7095 91.2905 51.7221 91.2905 51.7346C 91.2905 51.7472 91.2905 51.7598 91.2905 51.7723C 91.2905 51.7849 91.2905 51.7974 91.2905 51.81C 91.2905 51.8225 91.2905 51.8351 91.2905 51.8476C 91.2905 51.8602 91.2905 51.8727 91.2905 51.8853C 91.2905 51.8978 91.2905 51.9104 91.2905 51.9229C 91.2905 51.9355 91.2905 51.948 91.2905 51.9606C 91.2905 51.9731 91.2905 51.9857 91.2905 51.9983C 91.2905 52.0108 91.2905 52.0234 91.2905 52.0359C 91.2905 52.0485 91.2905 52.061 91.2905 52.0736C 91.2905 52.0861 91.2905 52.0987 91.2905 52.1112C 91.2905 52.1238 91.2905 52.1363 91.2905 52.1489C 91.2905 52.1614 91.2905 52.174 91.2905 52.1865C 91.2905 52.1991 91.2905 52.2117 91.2905 52.2242C 91.2905 52.2368 91.2905 52.2493 91.2905 52.2619C 91.2905 52.2744 91.2905 52.287 91.2905 52.2995C 91.2905 52.3121 91.2905 52.3246 91.2905 52.3372C 91.2905 52.3497 91.2905 52.3623 91.2905 52.3748C 91.2905 52.3874 91.2905 52.3999 91.2905 52.4125C 91.2905 52.4251 91.2905 52.4376 91.2905 52.4502C 91.2905 52.4627 91.2905 52.4753 91.2905 52.4878C 91.2905 52.5004 91.2905 52.5129 91.2905 52.5255C 91.2905 52.538 91.2905 52.5506 91.2905 52.5631C 91.2905 52.5757 91.2905 52.5882 91.2905 52.6008C 91.2905 52.6133 91.2905 52.6259 91.2905 52.6385C 91.2905 52.651 91.2905 52.6636 91.2905 52.6761C 91.2905 52.6887 91.2905 52.7012 91.2905 52.7138C 91.2905 52.7263 91.2905 52.7389 91.2905 52.7514C 91.2905 52.764 91.2905 52.7765 91.2905 52.7891C 91.2905 52.8016 91.2905 52.8142 91.2905 52.8267C 91.2905 52.8393 91.2905 52.8518 91.2905 52.8644C 91.2905 52.877 91.2905 52.8895 91.2905 52.9021C 91.2905 52.9146 91.2905 52.9272 91.2905 52.9397C 91.2905 52.9523 91.2905 52.9648 91.2905 52.9774C 91.2905 52.9899 91.2905 53.0025 91.2905 53.015C 91.2905 53.0276 91.2905 53.0401 91.2905 53.0527C 91.2905 53.0652 91.2905 53.0778 91.2905 53.0904C 91.2905 53.1029 91.2905 53.1155 91.2905 53.128C 91.2905 53.1406 91.2905 53.1531 91.2905 53.1657C 91.2905 53.1782 91.2905 53.1908 91.2905 53.2033C 91.2905 53.2159 91.2905 53.2284 91.2905 53.241C 91.2905 53.2535 91.2905 53.2661 91.2905 53.2786C 91.2905 53.2912 91.2905 53.3038 91.2905 53.3163C 91.2905 53.3289 91.2905 53.3414 91.2905 53.354C 91.2905 53.3665 91.2905 53.3791 91.2905 53.3916C 91.2905 53.4042 91.2905 53.4167 91.2905 53.4293C 91.2905 53.4418 91.2905 53.4544 91.2905 53.4669C 91.2905 53.4795 91.2905 53.492 91.2905 53.5046C 91.2905 53.5172 91.2905 53.5297 91.2905 53.5423C 91.2905 53.5548 91.2905 53.5674 91.2905 53.5799C 91.2905 53.5925 91.2905 53.605 91.2905 53.6176C 91.2905 53.6301 91.2905 53.6427 91.2905 53.6552C 91.2905 53.6678 91.2905 53.6803 91.2905 53.6929C 91.2905 53.7054 91.2905 53.718 91.2905 53.7305C 91.2905 53.7431 91.2905 53.7557 91.2905 53.7682C 91.2905 53.7808 91.2905 53.7933 91.2905 53.8059C 91.2905 53.8184 91.2905 53.831 91.2905 53.8435C 91.2905 53.8561 91.2905 53.8686 91.2905 53.8812C 91.2905 53.8937 91.2905 53.9063 91.2905 53.9188C 91.2905 53.9314 91.2905 53.944 91.2905 53.9565C 91.2905 53.9691 91.2905 53.9816 91.2905 53.9942C 91.2905 54.0067 91.2905 54.0193 91.2905 54.0318C 91.2905 54.0444 91.2905 54.0569 91.2905 54.0695C 91.2905 54.082 91.2905 54.0946 91.2905 54.1071C 91.2905 54.1197 91.2905 54.1322 91.2905 54.1448C 91.2905 54.1573 91.2905 54.1699 91.2905 54.1825C 91.2905 54.195 91.2905 54.2076 91.2905 54.2201C 91.2905 54.2327 91.2905 54.2452 91.2905 54.2578C 91.2905 54.2703 91.2905 54.2829 91.2905 54.2954C 91.2905 54.308 91.2905 54.3205 91.2905 54.3331C 91.2905 54.3456 91.2905 54.3582 91.2905 54.3707C 91.2905 54.3833 91.2905 54.3959 91.2905 54.4084C 91.2905 54.421 91.2905 54.4335 91.2905 54.4461C 91.2905 54.4586 91.2905 54.4712 91.2905 54.4837C 91.2905 54.4963 91.2905 54.5088 91.2905 54.5214C 91.2905 54.5339 91.2905 54.5465 91.2905 54.559C 91.2905 54.5716 91.2905 54.5841 91.2905 54.5967C 91.2905 54.6093 91.2905 54.6218 91.2905 54.6344C 91.2905 54.6469 91.2905 54.6595 91.2905 54.672C 91.2905 54.6846 91.2905 54.6971 91.2905 54.7097C 91.2905 54.7222 91.2905 54.7348 91.2905 54.7473C 91.2905 54.7599 91.2905 54.7724 91.2905 54.785C 91.2905 54.7975 91.2905 54.8101 91.2905 54.8227C 91.2905 54.8352 91.2905 54.8478 91.2905 54.8603C 91.2905 54.8729 91.2905 54.8854 91.2905 54.898C 91.2905 54.9105 91.2905 54.9231 91.2905 54.9356C 91.2905 54.9482 91.2905 54.9607 91.2905 54.9733C 91.2905 54.9858 91.2905 54.9984 91.2905 55.0109C 91.2905 55.0235 91.2905 55.036 91.2905 55.0486C 91.2905 55.0612 91.2905 55.0737 91.2905 55.0863C 91.2905 55.0988 91.2905 55.1114 91.2905 55.1239C 91.2905 55.1365 91.2905 55.149 91.2905 55.1616C 91.2905 55.1741 91.2905 55.1867 91.2905 55.1992C 91.2905 55.2118 91.2905 55.2243 91.2905 55.2369C 91.2905 55.2494 91.2905 55.262 91.2905 55.2746C 91.2905 55.2871 91.2905 55.2997 91.2905 55.3122C 91.2905 55.3248 91.2905 55.3373 91.2905 55.3499C 91.2905 55.3624 91.2905 55.375 91.2905 55.3875C 91.2905 55.4001 91.2905 55.4126 91.2905 55.4252C 91.2905 55.4377 91.2905 55.4503 91.2905 55.4628C 91.2905 55.4754 91.2905 55.488 91.2905 55.5005C 91.2905 55.5131 91.2905 55.5256 91.2905 55.5382C 91.2905 55.5507 91.2905 55.5633 91.2905 55.5758C 91.2905 55.5884 91.2905 55.6009 91.2905 55.6135C 91.2905 55.626 91.2905 55.6386 91.2905 55.6511C 91.2905 55.6637 91.2905 55.6762 91.2905 55.6888C 91.2905 55.7014 91.2905 55.7139 91.2905 55.7265C 91.2905 55.739 91.2905 55.7516 91.2905 55.7641C 91.2905 55.7767 91.2905 55.7892 91.2905 55.8018C 91.2905 55.8143 91.2905 55.8269 91.2905 55.8394C 91.2905 55.852 91.2905 55.8645 91.2905 55.8771C 91.2905 55.8896 91.2905 55.9022 91.2905 55.9147C 91.2905 55.9273 91.2905 55.9399 91.2905 55.9524C 91.2905 55.965 91.2905 55.9775 91.2905 55.9901C 91.2905 56.0026 91.2905 56.0152 91.2905 56.0277C 91.2905 56.0403 91.2905 56.0528 91.2905 56.0654C 91.2905 56.0779 91.2905 56.0905 91.2905 56.103C 91.2905 56.1156 91.2905 56.1282 91.2905 56.1407C 91.2905 56.1533 91.2905 56.1658 91.2905 56.1784C 91.2905 56.1909 91.2905 56.2035 91.2905 56.216C 91.2905 56.2286 91.2905 56.2411 91.2905 56.2537C 91.2905 56.2662 91.2905 56.2788 91.2905 56.2913C 91.2905 56.3039 91.2905 56.3164 91.2905 56.329C 91.2905 56.3415 91.2905 56.3541 91.2905 56.3667C 91.2905 56.3792 91.2905 56.3918 91.2905 56.4043C 91.2905 56.4169 91.2905 56.4294 91.2905 56.442C 91.2905 56.4545 91.2905 56.4671 91.2905 56.4796C 91.2905 56.4922 91.2905 56.5047 91.2905 56.5173C 91.2905 56.5298 91.2905 56.5424 91.2905 56.5549C 91.2905 56.5675 91.2905 56.5801 91.2905 56.5926C 91.2905 56.6052 91.2905 56.6177 91.2905 56.6303C 91.2905 56.6428 91.2905 56.6554 91.2905 56.6679C 91.2905 56.6805 91.2905 56.693 91.2905 56.7056C 91.2905 56.7181 91.2905 56.7307 91.2905 56.7432C 91.2905 56.7558 91.2905 56.7683 91.2905 56.7809C 91.2905 56.7935 91.2905 56.806 91.2905 56.8186C 91.2905 56.8311 91.2905 56.8437 91.2905 56.8562C 91.2905 56.8688 91.2905 56.8813 91.2905 56.8939C 91.2905 56.9064 91.2905 56.919 91.2905 56.9315C 91.2905 56.9441 91.2905 56.9566 91.2905 56.9692C 91.2905 56.9817 91.2905 56.9943 91.2905 57.0069C 91.2905 57.0194 91.2905 57.032 91.2905 57.0445C 91.2905 57.0571 91.2905 57.0696 91.2905 57.0822C 91.2905 57.0947 91.2905 57.1073 91.2905 57.1198C 91.2905 57.1324 91.2905 57.1449 91.2905 57.1575C 91.2905 57.17 91.2905 57.1826 91.2905 57.1951C 91.2905 57.2077 91.2905 57.2202 91.2905 57.2328C 91.2905 57.2454 91.2905 57.2579 91.2905 57.2705C 91.2905 57.283 91.2905 57.2956 91.2905 57.3081C 91.2905 57.3207 91.2905 57.3332 91.2905 57.3458C 91.2905 57.3583 91.2905 57.3709 91.2905 57.3834C 91.2905 57.396 91.2905 57.4085 91.2905 57.4211C 91.2905 57.4336 91.2905 57.4462 91.2905 57.4588C 91.2905 57.4713 91.2905 57.4839 91.2905 57.4964C 91.2905 57.509 91.2905 57.5215 91.2905 57.5341C 91.2905 57.5466 91.2905 57.5592 91.2905 57.5717C 91.2905 57.5843 91.2905 57.5968 91.2905 57.6094C 91.2905 57.6219 91.2905 57.6345 91.2905 57.647C 91.2905 57.6596 91.2905 57.6722 91.2905 57.6847C 91.2905 57.6973 91.2905 57.7098 91.2905 57.7224C 91.2905 57.7349 91.2905 57.7475 91.2905 57.76C 91.2905 57.7726 91.2905 57.7851 91.2905 57.7977C 91.2905 57.8102 91.2905 57.8228 91.2905 57.8353C 91.2905 57.8479 91.2905 57.8604 91.2905 57.873C 91.2905 57.8856 91.2905 57.8981 91.2905 57.9107C 91.2905 57.9232 91.2905 57.9358 91.2905 57.9483C 91.2905 57.9609 91.2905 57.9734 91.2905 57.986C 91.2905 57.9985 91.2905 58.0111 91.2905 58.0236C 91.2905 58.0362 91.2905 58.0487 91.2905 58.0613C 91.2905 58.0738 91.2905 58.0864 91.2905 58.0989C 91.2905 58.1115 91.2905 58.1241 91.2905 58.1366C 91.2905 58.1492 91.2905 58.1617 91.2905 58.1743C 91.2905 58.1868 91.2905 58.1994 91.2905 58.2119C 91.2905 58.2245 91.2905 58.237 91.2905 58.2496C 91.2905 58.2621 91.2905 58.2747 91.2905 58.2872C 91.2905 58.2998 91.2905 58.3123 91.2905 58.3249C 91.2905 58.3375 91.2905 58.35 91.2905 58.3626C 91.2905 58.3751 91.2905 58.3877 91.2905 58.4002C 91.2905 58.4128 91.2905 58.4253 91.2905 58.4379C 91.2905 58.4504 91.2905 58.463 91.2905 58.4755C 91.2905 58.4881 91.2905 58.5006 91.2905 58.5132C 91.2905 58.5257 91.2905 58.5383 91.2905 58.5509C 91.2905 58.5634 91.2905 58.576 91.2905 58.5885C 91.2905 58.6011 91.2905 58.6136 91.2905 58.6262C 91.2905 58.6387 91.2905 58.6513 91.2905 58.6638C 91.2905 58.6764 91.2905 58.6889 91.2905 58.7015C 91.2905 58.714 91.2905 58.7266 91.2905 58.7391C 91.2905 58.7517 91.2905 58.7643 91.2905 58.7768C 91.2905 58.7894 91.2905 58.8019 91.2905 58.8145C 91.2905 58.827 91.2905 58.8396 91.2905 58.8521C 91.2905 58.8647 91.2905 58.8772 91.2905 58.8898C 91.2905 58.9023 91.2905 58.9149 91.2905 58.9274C 91.2905 58.94 91.2905 58.9525 91.2905 58.9651C 91.2905 58.9776 91.2905 58.9902 91.2905 59.0028C 91.2905 59.0153 91.2905 59.0279 91.2905 59.0404C 91.2905 59.053 91.2905 59.0655 91.2905 59.0781C 91.2905 59.0906 91.2905 59.1032 91.2905 59.1157C 91.2905 59.1283 91.2905 59.1408 91.2905 59.1534C 91.2905 59.1659 91.2905 59.1785 91.2905 59.1911C 91.2905 59.2036 91.2905 59.2162 91.2905 59.2287C 91.2905 59.2413 91.2905 59.2538 91.2905 59.2664C 91.2905 59.2789 91.2905 59.2915 91.2905 59.304C 91.2905 59.3166 91.2905 59.3291 91.2905 59.3417C 91.2905 59.3542 91.2905 59.3668 91.2905 59.3793C 91.2905 59.3919 91.2905 59.4044 91.2905 59.417C 91.2905 59.4296 91.2905 59.4421 91.2905 59.4547C 91.2905 59.4672 91.2905 59.4798 91.2905 59.4923C 91.2905 59.5049 91.2905 59.5174 91.2905 59.53C 91.2905 59.5425 91.2905 59.5551 91.2905 59.5676C 91.2905 59.5802 91.2905 59.5927 91.2905 59.6053C 91.2905 59.6178 91.2905 59.6304 91.2905 59.643C 91.2905 59.6555 91.2905 59.6681 91.2905 59.6806C 91.2905 59.6932 91.2905 59.7057 91.2905 59.7183C 91.2905 59.7308 91.2905 59.7434 91.2905 59.7559C 91.2905 59.7685 91.2905 59.781 91.2905 59.7936C 91.2905 59.8061 91.2905 59.8187 91.2905 59.8312C 91.2905 59.8438 91.2905 59.8564 91.2905 59.8689C 91.2905 59.8815 91.2905 59.894 91.2905 59.9066C 91.2905 59.9191 91.2905 59.9317 91.2905 59.9442C 91.2905 59.9568 91.2905 59.9693 91.2905 59.9819C 91.2905 59.9944 91.2905 60.007 91.2905 60.0195C 91.2905 60.0321 91.2905 60.0446 91.2905 60.0572C 91.2905 60.0698 91.2905 60.0823 91.2905 60.0949C 91.2905 60.1074 91.2905 60.12 91.2905 60.1325C 91.2905 60.1451 91.2905 60.1576 91.2905 60.1702C 91.2905 60.1827 91.2905 60.1953 91.2905 60.2078C 91.2905 60.2204 91.2905 60.2329 91.2905 60.2455C 91.2905 60.258 91.2905 60.2706 91.2905 60.2831C 91.2905 60.2957 91.2905 60.3083 91.2905 60.3208C 91.2905 60.3334 91.2905 60.3459 91.2905 60.3585C 91.2905 60.371 91.2905 60.3836 91.2905 60.3961C 91.2905 60.4087 91.2905 60.4212 91.2905 60.4338C 91.2905 60.4463 91.2905 60.4589 91.2905 60.4714C 91.2905 60.484 91.2905 60.4965 91.2905 60.5091C 91.2905 60.5217 91.2905 60.5342 91.2905 60.5468C 91.2905 60.5593 91.2905 60.5719 91.2905 60.5844C 91.2905 60.597 91.2905 60.6095 91.2905 60.6221C 91.2905 60.6346 91.2905 60.6472 91.2905 60.6597C 91.2905 60.6723 91.2905 60.6848 91.2905 60.6974C 91.2905 60.7099 91.2905 60.7225 91.2905 60.7351C 91.2905 60.7476 91.2905 60.7602 91.2905 60.7727C 91.2905 60.7853 91.2905 60.7978 91.2905 60.8104C 91.2905 60.8229 91.2905 60.8355 91.2905 60.848C 91.2905 60.8606 91.2905 60.8731 91.2905 60.8857C 91.2905 60.8982 91.2905 60.9108 91.2905 60.9233C 91.2905 60.9359 91.2905 60.9485 91.2905 60.961C 91.2905 60.9736 91.2905 60.9861 91.2905 60.9987C 91.2905 61.0112 91.2905 61.0238 91.2905 61.0363C 91.2905 61.0489 91.2905 61.0614 91.2905 61.074C 91.2905 61.0865 91.2905 61.0991 91.2905 61.1116C 91.2905 61.1242 91.2905 61.1367 91.2905 61.1493C 91.2905 61.1618 91.2905 61.1744 91.2905 61.187C 91.2905 61.1995 91.2905 61.2121 91.2905 61.2246C 91.2905 61.2372 91.2905 61.2497 91.2905 61.2623C 91.2905 61.2748 91.2905 61.2874 91.2905 61.2999C 91.2905 61.3125 91.2905 61.325 91.2905 61.3376C 91.2905 61.3501 91.2905 61.3627 91.2905 61.3753C 91.2905 61.3878 91.2905 61.4004 91.2905 61.4129C 91.2905 61.4255 91.2905 61.438 91.2905 61.4506C 91.2905 61.4631 91.2905 61.4757 91.2905 61.4882C 91.2905 61.5008 91.2905 61.5133 91.2905 61.5259C 91.2905 61.5384 91.2905 61.551 91.2905 61.5635C 91.2905 61.5761 91.2905 61.5886 91.2905 61.6012C 91.2905 61.6138 91.2905 61.6263 91.2905 61.6389C 91.2905 61.6514 91.2905 61.664 91.2905 61.6765C 91.2905 61.6891 91.2905 61.7016 91.2905 61.7142C 91.2905 61.7267 91.2905 61.7393 91.2905 61.7518C 91.2905 61.7644 91.2905 61.7769 91.2905 61.7895C 91.2905 61.802 91.2905 61.8146 91.2905 61.8272C 91.2905 61.8397 91.2905 61.8523 91.2905 61.8648C 91.2905 61.8774 91.2905 61.8899 91.2905 61.9025C 91.2905 61.915 91.2905 61.9276 91.2905 61.9401C 91.2905 61.9527 91.2905 61.9652 91.2905 61.9778C 91.2905 61.9903 91.2905 62.0029 91.2905 62.0154C 91.2905 62.028 91.2905 62.0406 91.2905 62.0531C 91.2905 62.0657 91.2905 62.0782 91.2905 62.0908C 91.2905 62.1033 91.2905 62.1159 91.2905 62.1284C 91.2905 62.141 91.2905 62.1535 91.2905 62.1661C 91.2905 62.1786 91.2905 62.1912 91.2905 62.2037C 91.2905 62.2163 91.2905 62.2288 91.2905 62.2414C 91.2905 62.254 91.2905 62.2665 91.2905 62.2791C 91.2905 62.2916 91.2905 62.3042 91.2905 62.3167C 91.2905 62.3293 91.2905 62.3418 91.2905 62.3544C 91.2905 62.3669 91.2905 62.3795 91.2905 62.392C 91.2905 62.4046 91.2905 62.4171 91.2905 62.4297C 91.2905 62.4422 91.2905 62.4548 91.2905 62.4674C 91.2905 62.4799 91.2905 62.4925 91.2905 62.505C 91.2905 62.5176 91.2905 62.5301 91.2905 62.5427C 91.2905 62.5552 91.2905 62.5678 91.2905 62.5803C 91.2905 62.5929 91.2905 62.6054 91.2905 62.618C 91.2905 62.6305 91.2905 62.6431 91.2905 62.6556C 91.2905 62.6682 91.2905 62.6807 91.2905 62.6933C 91.2905 62.7059 91.2905 62.7184 91.2905 62.731C 91.2905 62.7435 91.2905 62.7561 91.2905 62.7686C 91.2905 62.7812 91.2905 62.7937 91.2905 62.8063C 91.2905 62.8188 91.2905 62.8314 91.2905 62.8439C 91.2905 62.8565 91.2905 62.869 91.2905 62.8816C 91.2905 62.8941 91.2905 62.9067 91.2905 62.9193C 91.2905 62.9318 91.2905 62.9444 91.2905 62.9569C 91.2905 62.9695 91.2905 62.982 91.2905 62.9946C 91.2905 63.0071 91.2905 63.0197 91.2905 63.0322C 91.2905 63.0448 91.2905 63.0573 91.2905 63.0699C 91.2905 63.0824 91.2905 63.095 91.2905 63.1075C 91.2905 63.1201 91.2905 63.1327 91.2905 63.1452C 91.2905 63.1578 91.2905 63.1703 91.2905 63.1829C 91.2905 63.1954 91.2905 63.208 91.2905 63.2205C 91.2905 63.2331 91.2905 63.2456 91.2905 63.2582C 91.2905 63.2707 91.2905 63.2833 91.2905 63.2958C 91.2905 63.3084 91.2905 63.3209 91.2905 63.3335C 91.2905 63.3461 91.2905 63.3586 91.2905 63.3712C 91.2905 63.3837 91.2905 63.3963 91.2905 63.4088C 91.2905 63.4214 91.2905 63.4339 91.2905 63.4465C 91.2905 63.459 91.2905 63.4716 91.2905 63.4841C 91.2905 63.4967 91.2905 63.5092 91.2905 63.5218C 91.2905 63.5343 91.2905 63.5469 91.2905 63.5594C 91.2905 63.572 91.2905 63.5846 91.2905 63.5971C 91.2905 63.6097 91.2905 63.6222 91.2905 63.6348C 91.2905 63.6473 91.2905 63.6599 91.2905 63.6724C 91.2905 63.685 91.2905 63.6975 91.2905 63.7101C 91.2905 63.7226 91.2905 63.7352 91.2905 63.7477C 91.2905 63.7603 91.2905 63.7729 91.2905 63.7854C 91.2905 63.798 91.2905 63.8105 91.2905 63.8231C 91.2905 63.8356 91.2905 63.8482 91.2905 63.8607C 91.2905 63.8733 91.2905 63.8858 91.2905 63.8984C 91.2905 63.9109 91.2905 63.9235 91.2905 63.936C 91.2905 63.9486 91.2905 63.9611 91.2905 63.9737C 91.2905 63.9862 91.2905 63.9988 91.2905 64.0114C 91.2905 64.0239 91.2905 64.0365 91.2905 64.049C 91.2905 64.0616 91.2905 64.0741 91.2905 64.0867C 91.2905 64.0992 91.2905 64.1118 91.2905 64.1243C 91.2905 64.1369 91.2905 64.1494 91.2905 64.162C 91.2905 64.1745 91.2905 64.1871 91.2905 64.1996C 91.2905 64.2122 91.2905 64.2248 91.2905 64.2373C 91.2905 64.2499 91.2905 64.2624 91.2905 64.275C 91.2905 64.2875 91.2905 64.3001 91.2905 64.3126C 91.2905 64.3252 91.2905 64.3377 91.2905 64.3503C 91.2905 64.3628 91.2905 64.3754 91.2905 64.3879C 91.2905 64.4005 91.2905 64.413 91.2905 64.4256C 91.2905 64.4381 91.2905 64.4507 91.2905 64.4633C 91.2905 64.4758 91.2905 64.4884 91.2905 64.5009C 91.2905 64.5135 91.2905 64.526 91.2905 64.5386C 91.2905 64.5511 91.2905 64.5637 91.2905 64.5762C 91.2905 64.5888 91.2905 64.6013 91.2905 64.6139C 91.2905 64.6264 91.2905 64.639 91.2905 64.6516C 91.2905 64.6641 91.2905 64.6767 91.2905 64.6892C 91.2905 64.7018 91.2905 64.7143 91.2905 64.7269C 91.2905 64.7394 91.2905 64.752 91.2905 64.7645C 91.2905 64.7771 91.2905 64.7896 91.2905 64.8022C 91.2905 64.8147 91.2905 64.8273 91.2905 64.8398C 91.2905 64.8524 91.2905 64.865 91.2905 64.8775C 91.2905 64.8901 91.2905 64.9026 91.2905 64.9152C 91.2905 64.9277 91.2905 64.9403 91.2905 64.9528C 91.2905 64.9654 91.2905 64.9779 91.2905 64.9905C 91.2905 65.003 91.2905 65.0156 91.2905 65.0281C 91.2905 65.0407 91.2905 65.0532 91.2905 65.0658C 91.2905 65.0783 91.2905 65.0909 91.2905 65.1035C 91.2905 65.116 91.2905 65.1286 91.2905 65.1411C 91.2905 65.1537 91.2905 65.1662 91.2905 65.1788C 91.2905 65.1913 91.2905 65.2039 91.2905 65.2164C 91.2905 65.229 91.2905 65.2415 91.2905 65.2541C 91.2905 65.2666 91.2905 65.2792 91.2905 65.2917C 91.2905 65.3043 91.2905 65.3168 91.2905 65.3294C 91.2905 65.342 91.2905 65.3545 91.2905 65.3671C 91.2905 65.3796 91.2905 65.3922 91.2905 65.4047C 91.2905 65.4173 91.2905 65.4298 91.2905 65.4424C 91.2905 65.4549 91.2905 65.4675 91.2905 65.48C 91.2905 65.4926 91.2905 65.5051 91.2905 65.5177C 91.2905 65.5303 91.2905 65.5428 91.2905 65.5554C 91.2905 65.5679 91.2905 65.5805 91.2905 65.593C 91.2905 65.6056 91.2905 65.6181 91.2905 65.6307C 91.2905 65.6432 91.2905 65.6558 91.2905 65.6683C 91.2905 65.6809 91.2905 65.6934 91.2905 65.706C 91.2905 65.7185 91.2905 65.7311 91.2905 65.7437C 91.2905 65.7562 91.2905 65.7688 91.2905 65.7813C 91.2905 65.7939 91.2905 65.8064 91.2905 65.819C 91.2905 65.8315 91.2905 65.8441 91.2905 65.8566C 91.2905 65.8692 91.2905 65.8817 91.2905 65.8943C 91.2905 65.9068 91.2905 65.9194 91.2905 65.9319C 91.2905 65.9445 91.2905 65.957 91.2905 65.9696C 91.2905 65.9822 91.2905 65.9947 91.2905 66.0073C 91.2905 66.0198 91.2905 66.0324 91.2905 66.0449C 91.2905 66.0575 91.2905 66.07 91.2905 66.0826C 91.2905 66.0951 91.2905 66.1077 91.2905 66.1202C 91.2905 66.1328 91.2905 66.1453 91.2905 66.1579C 91.2905 66.1704 91.2905 66.183 91.2905 66.1956C 91.2905 66.2081 91.2905 66.2207 91.2905 66.2332C 91.2905 66.2458 91.2905 66.2583 91.2905 66.2709C 91.2905 66.2834 91.2905 66.296 91.2905 66.3085C 91.2905 66.3211 91.2905 66.3336 91.2905 66.3462C 91.2905 66.3587 91.2905 66.3713 91.2905 66.3838C 91.2905 66.3964 91.2905 66.409 91.2905 66.4215C 91.2905 66.4341 91.2905 66.4466 91.2905 66.4592C 91.2905 66.4717 91.2905 66.4843 91.2905 66.4968C 91.2905 66.5094 91.2905 66.5219 91.2905 66.5345C 91.2905 66.547 91.2905 66.5596 91.2905 66.5721C 91.2905 66.5847 91.2905 66.5972 91.2905 66.6098C 91.2905 66.6224 91.2905 66.6349 91.2905 66.6475C 91.2905 66.66 91.2905 66.6726 91.2905 66.6851C 91.2905 66.6977 91.2905 66.7102 91.2905 66.7228C 91.2905 66.7353 91.2905 66.7479 91.2905 66.7604C 91.2905 66.773 91.2905 66.7855 91.2905 66.7981C 91.2905 66.8106 91.2905 66.8232 91.2905 66.8357C 91.2905 66.8483 91.2905 66.8609 91.2905 66.8734C 91.2905 66.886 91.2905 66.8985 91.2905 66.9111C 91.2905 66.9236 91.2905 66.9362 91.2905 66.9487C 91.2905 66.9613 91.2905 66.9738 91.2905 66.9864C 91.2905 66.9989 91.2905 67.0115 91.2905 67.024C 91.2905 67.0366 91.2905 67.0491 91.2905 67.0617C 91.2905 67.0743 91.2905 67.0868 91.2905 67.0994C 91.2905 67.1119 91.2905 67.1245 91.2905 67.137C 91.2905 67.1496 91.2905 67.1621 91.2905 67.1747C 91.2905 67.1872 91.2905 67.1998 91.2905 67.2123C 91.2905 67.2249 91.2905 67.2374 91.2905 67.25C 91.2905 67.2626 91.2905 67.2751 91.2905 67.2877C 91.2905 67.3002 91.2905 67.3128 91.2905 67.3253C 91.2905 67.3379 91.2905 67.3504 91.2905 67.363C 91.2905 67.3755 91.2905 67.3881 91.2905 67.4006C 91.2905 67.4132 91.2905 67.4257 91.2905 67.4383C 91.2905 67.4508 91.2905 67.4634 91.2905 67.4759C 91.2905 67.4885 91.2905 67.5011 91.2905 67.5136C 91.2905 67.5262 91.2905 67.5387 91.2905 67.5513C 91.2905 67.5638 91.2905 67.5764 91.2905 67.5889C 91.2905 67.6015 91.2905 67.614 91.2905 67.6266C 91.2905 67.6391 91.2905 67.6517 91.2905 67.6642C 91.2905 67.6768 91.2905 67.6893 91.2905 67.7019C 91.2905 67.7144 91.2905 67.727 91.2905 67.7396C 91.2905 67.7521 91.2905 67.7647 91.2905 67.7772C 91.2905 67.7898 91.2905 67.8023 91.2905 67.8149C 91.2905 67.8274 91.2905 67.84 91.2905 67.8525C 91.2905 67.8651 91.2905 67.8776 91.2905 67.8902C 91.2905 67.9027 91.2905 67.9153 91.2905 67.9278C 91.2905 67.9404 91.2905 67.953 91.2905 67.9655C 91.2905 67.9781 91.2905 67.9906 91.2905 68.0032C 91.2905 68.0157 91.2905 68.0283 91.2905 68.0408C 91.2905 68.0534 91.2905 68.0659 91.2905 68.0785C 91.2905 68.091 91.2905 68.1036 91.2905 68.1161C 91.2905 68.1287 91.2905 68.1413 91.2905 68.1538C 91.2905 68.1664 91.2905 68.1789 91.2905 68.1915L 92.2905 68.1915C 92.2905 68.1789 92.2905 68.1664 92.2905 68.1538C 92.2905 68.1413 92.2905 68.1287 92.2905 68.1161C 92.2905 68.1036 92.2905 68.091 92.2905 68.0785C 92.2905 68.0659 92.2905 68.0534 92.2905 68.0408C 92.2905 68.0283 92.2905 68.0157 92.2905 68.0032C 92.2905 67.9906 92.2905 67.9781 92.2905 67.9655C 92.2905 67.953 92.2905 67.9404 92.2905 67.9278C 92.2905 67.9153 92.2905 67.9027 92.2905 67.8902C 92.2905 67.8776 92.2905 67.8651 92.2905 67.8525C 92.2905 67.84 92.2905 67.8274 92.2905 67.8149C 92.2905 67.8023 92.2905 67.7898 92.2905 67.7772C 92.2905 67.7647 92.2905 67.7521 92.2905 67.7396C 92.2905 67.727 92.2905 67.7144 92.2905 67.7019C 92.2905 67.6893 92.2905 67.6768 92.2905 67.6642C 92.2905 67.6517 92.2905 67.6391 92.2905 67.6266C 92.2905 67.614 92.2905 67.6015 92.2905 67.5889C 92.2905 67.5764 92.2905 67.5638 92.2905 67.5513C 92.2905 67.5387 92.2905 67.5262 92.2905 67.5136C 92.2905 67.5011 92.2905 67.4885 92.2905 67.4759C 92.2905 67.4634 92.2905 67.4508 92.2905 67.4383C 92.2905 67.4257 92.2905 67.4132 92.2905 67.4006C 92.2905 67.3881 92.2905 67.3755 92.2905 67.363C 92.2905 67.3504 92.2905 67.3379 92.2905 67.3253C 92.2905 67.3128 92.2905 67.3002 92.2905 67.2877C 92.2905 67.2751 92.2905 67.2626 92.2905 67.25C 92.2905 67.2374 92.2905 67.2249 92.2905 67.2123C 92.2905 67.1998 92.2905 67.1872 92.2905 67.1747C 92.2905 67.1621 92.2905 67.1496 92.2905 67.137C 92.2905 67.1245 92.2905 67.1119 92.2905 67.0994C 92.2905 67.0868 92.2905 67.0743 92.2905 67.0617C 92.2905 67.0491 92.2905 67.0366 92.2905 67.024C 92.2905 67.0115 92.2905 66.9989 92.2905 66.9864C 92.2905 66.9738 92.2905 66.9613 92.2905 66.9487C 92.2905 66.9362 92.2905 66.9236 92.2905 66.9111C 92.2905 66.8985 92.2905 66.886 92.2905 66.8734C 92.2905 66.8609 92.2905 66.8483 92.2905 66.8357C 92.2905 66.8232 92.2905 66.8106 92.2905 66.7981C 92.2905 66.7855 92.2905 66.773 92.2905 66.7604C 92.2905 66.7479 92.2905 66.7353 92.2905 66.7228C 92.2905 66.7102 92.2905 66.6977 92.2905 66.6851C 92.2905 66.6726 92.2905 66.66 92.2905 66.6475C 92.2905 66.6349 92.2905 66.6224 92.2905 66.6098C 92.2905 66.5972 92.2905 66.5847 92.2905 66.5721C 92.2905 66.5596 92.2905 66.547 92.2905 66.5345C 92.2905 66.5219 92.2905 66.5094 92.2905 66.4968C 92.2905 66.4843 92.2905 66.4717 92.2905 66.4592C 92.2905 66.4466 92.2905 66.4341 92.2905 66.4215C 92.2905 66.409 92.2905 66.3964 92.2905 66.3838C 92.2905 66.3713 92.2905 66.3587 92.2905 66.3462C 92.2905 66.3336 92.2905 66.3211 92.2905 66.3085C 92.2905 66.296 92.2905 66.2834 92.2905 66.2709C 92.2905 66.2583 92.2905 66.2458 92.2905 66.2332C 92.2905 66.2207 92.2905 66.2081 92.2905 66.1956C 92.2905 66.183 92.2905 66.1704 92.2905 66.1579C 92.2905 66.1453 92.2905 66.1328 92.2905 66.1202C 92.2905 66.1077 92.2905 66.0951 92.2905 66.0826C 92.2905 66.07 92.2905 66.0575 92.2905 66.0449C 92.2905 66.0324 92.2905 66.0198 92.2905 66.0073C 92.2905 65.9947 92.2905 65.9822 92.2905 65.9696C 92.2905 65.957 92.2905 65.9445 92.2905 65.9319C 92.2905 65.9194 92.2905 65.9068 92.2905 65.8943C 92.2905 65.8817 92.2905 65.8692 92.2905 65.8566C 92.2905 65.8441 92.2905 65.8315 92.2905 65.819C 92.2905 65.8064 92.2905 65.7939 92.2905 65.7813C 92.2905 65.7688 92.2905 65.7562 92.2905 65.7437C 92.2905 65.7311 92.2905 65.7185 92.2905 65.706C 92.2905 65.6934 92.2905 65.6809 92.2905 65.6683C 92.2905 65.6558 92.2905 65.6432 92.2905 65.6307C 92.2905 65.6181 92.2905 65.6056 92.2905 65.593C 92.2905 65.5805 92.2905 65.5679 92.2905 65.5554C 92.2905 65.5428 92.2905 65.5303 92.2905 65.5177C 92.2905 65.5051 92.2905 65.4926 92.2905 65.48C 92.2905 65.4675 92.2905 65.4549 92.2905 65.4424C 92.2905 65.4298 92.2905 65.4173 92.2905 65.4047C 92.2905 65.3922 92.2905 65.3796 92.2905 65.3671C 92.2905 65.3545 92.2905 65.342 92.2905 65.3294C 92.2905 65.3168 92.2905 65.3043 92.2905 65.2917C 92.2905 65.2792 92.2905 65.2666 92.2905 65.2541C 92.2905 65.2415 92.2905 65.229 92.2905 65.2164C 92.2905 65.2039 92.2905 65.1913 92.2905 65.1788C 92.2905 65.1662 92.2905 65.1537 92.2905 65.1411C 92.2905 65.1286 92.2905 65.116 92.2905 65.1035C 92.2905 65.0909 92.2905 65.0783 92.2905 65.0658C 92.2905 65.0532 92.2905 65.0407 92.2905 65.0281C 92.2905 65.0156 92.2905 65.003 92.2905 64.9905C 92.2905 64.9779 92.2905 64.9654 92.2905 64.9528C 92.2905 64.9403 92.2905 64.9277 92.2905 64.9152C 92.2905 64.9026 92.2905 64.8901 92.2905 64.8775C 92.2905 64.865 92.2905 64.8524 92.2905 64.8398C 92.2905 64.8273 92.2905 64.8147 92.2905 64.8022C 92.2905 64.7896 92.2905 64.7771 92.2905 64.7645C 92.2905 64.752 92.2905 64.7394 92.2905 64.7269C 92.2905 64.7143 92.2905 64.7018 92.2905 64.6892C 92.2905 64.6767 92.2905 64.6641 92.2905 64.6516C 92.2905 64.639 92.2905 64.6264 92.2905 64.6139C 92.2905 64.6013 92.2905 64.5888 92.2905 64.5762C 92.2905 64.5637 92.2905 64.5511 92.2905 64.5386C 92.2905 64.526 92.2905 64.5135 92.2905 64.5009C 92.2905 64.4884 92.2905 64.4758 92.2905 64.4633C 92.2905 64.4507 92.2905 64.4381 92.2905 64.4256C 92.2905 64.413 92.2905 64.4005 92.2905 64.3879C 92.2905 64.3754 92.2905 64.3628 92.2905 64.3503C 92.2905 64.3377 92.2905 64.3252 92.2905 64.3126C 92.2905 64.3001 92.2905 64.2875 92.2905 64.275C 92.2905 64.2624 92.2905 64.2499 92.2905 64.2373C 92.2905 64.2248 92.2905 64.2122 92.2905 64.1996C 92.2905 64.1871 92.2905 64.1745 92.2905 64.162C 92.2905 64.1494 92.2905 64.1369 92.2905 64.1243C 92.2905 64.1118 92.2905 64.0992 92.2905 64.0867C 92.2905 64.0741 92.2905 64.0616 92.2905 64.049C 92.2905 64.0365 92.2905 64.0239 92.2905 64.0114C 92.2905 63.9988 92.2905 63.9862 92.2905 63.9737C 92.2905 63.9611 92.2905 63.9486 92.2905 63.936C 92.2905 63.9235 92.2905 63.9109 92.2905 63.8984C 92.2905 63.8858 92.2905 63.8733 92.2905 63.8607C 92.2905 63.8482 92.2905 63.8356 92.2905 63.8231C 92.2905 63.8105 92.2905 63.798 92.2905 63.7854C 92.2905 63.7729 92.2905 63.7603 92.2905 63.7477C 92.2905 63.7352 92.2905 63.7226 92.2905 63.7101C 92.2905 63.6975 92.2905 63.685 92.2905 63.6724C 92.2905 63.6599 92.2905 63.6473 92.2905 63.6348C 92.2905 63.6222 92.2905 63.6097 92.2905 63.5971C 92.2905 63.5846 92.2905 63.572 92.2905 63.5594C 92.2905 63.5469 92.2905 63.5343 92.2905 63.5218C 92.2905 63.5092 92.2905 63.4967 92.2905 63.4841C 92.2905 63.4716 92.2905 63.459 92.2905 63.4465C 92.2905 63.4339 92.2905 63.4214 92.2905 63.4088C 92.2905 63.3963 92.2905 63.3837 92.2905 63.3712C 92.2905 63.3586 92.2905 63.3461 92.2905 63.3335C 92.2905 63.3209 92.2905 63.3084 92.2905 63.2958C 92.2905 63.2833 92.2905 63.2707 92.2905 63.2582C 92.2905 63.2456 92.2905 63.2331 92.2905 63.2205C 92.2905 63.208 92.2905 63.1954 92.2905 63.1829C 92.2905 63.1703 92.2905 63.1578 92.2905 63.1452C 92.2905 63.1327 92.2905 63.1201 92.2905 63.1075C 92.2905 63.095 92.2905 63.0824 92.2905 63.0699C 92.2905 63.0573 92.2905 63.0448 92.2905 63.0322C 92.2905 63.0197 92.2905 63.0071 92.2905 62.9946C 92.2905 62.982 92.2905 62.9695 92.2905 62.9569C 92.2905 62.9444 92.2905 62.9318 92.2905 62.9193C 92.2905 62.9067 92.2905 62.8941 92.2905 62.8816C 92.2905 62.869 92.2905 62.8565 92.2905 62.8439C 92.2905 62.8314 92.2905 62.8188 92.2905 62.8063C 92.2905 62.7937 92.2905 62.7812 92.2905 62.7686C 92.2905 62.7561 92.2905 62.7435 92.2905 62.731C 92.2905 62.7184 92.2905 62.7059 92.2905 62.6933C 92.2905 62.6807 92.2905 62.6682 92.2905 62.6556C 92.2905 62.6431 92.2905 62.6305 92.2905 62.618C 92.2905 62.6054 92.2905 62.5929 92.2905 62.5803C 92.2905 62.5678 92.2905 62.5552 92.2905 62.5427C 92.2905 62.5301 92.2905 62.5176 92.2905 62.505C 92.2905 62.4925 92.2905 62.4799 92.2905 62.4674C 92.2905 62.4548 92.2905 62.4422 92.2905 62.4297C 92.2905 62.4171 92.2905 62.4046 92.2905 62.392C 92.2905 62.3795 92.2905 62.3669 92.2905 62.3544C 92.2905 62.3418 92.2905 62.3293 92.2905 62.3167C 92.2905 62.3042 92.2905 62.2916 92.2905 62.2791C 92.2905 62.2665 92.2905 62.254 92.2905 62.2414C 92.2905 62.2288 92.2905 62.2163 92.2905 62.2037C 92.2905 62.1912 92.2905 62.1786 92.2905 62.1661C 92.2905 62.1535 92.2905 62.141 92.2905 62.1284C 92.2905 62.1159 92.2905 62.1033 92.2905 62.0908C 92.2905 62.0782 92.2905 62.0657 92.2905 62.0531C 92.2905 62.0406 92.2905 62.028 92.2905 62.0154C 92.2905 62.0029 92.2905 61.9903 92.2905 61.9778C 92.2905 61.9652 92.2905 61.9527 92.2905 61.9401C 92.2905 61.9276 92.2905 61.915 92.2905 61.9025C 92.2905 61.8899 92.2905 61.8774 92.2905 61.8648C 92.2905 61.8523 92.2905 61.8397 92.2905 61.8272C 92.2905 61.8146 92.2905 61.802 92.2905 61.7895C 92.2905 61.7769 92.2905 61.7644 92.2905 61.7518C 92.2905 61.7393 92.2905 61.7267 92.2905 61.7142C 92.2905 61.7016 92.2905 61.6891 92.2905 61.6765C 92.2905 61.664 92.2905 61.6514 92.2905 61.6389C 92.2905 61.6263 92.2905 61.6138 92.2905 61.6012C 92.2905 61.5886 92.2905 61.5761 92.2905 61.5635C 92.2905 61.551 92.2905 61.5384 92.2905 61.5259C 92.2905 61.5133 92.2905 61.5008 92.2905 61.4882C 92.2905 61.4757 92.2905 61.4631 92.2905 61.4506C 92.2905 61.438 92.2905 61.4255 92.2905 61.4129C 92.2905 61.4004 92.2905 61.3878 92.2905 61.3753C 92.2905 61.3627 92.2905 61.3501 92.2905 61.3376C 92.2905 61.325 92.2905 61.3125 92.2905 61.2999C 92.2905 61.2874 92.2905 61.2748 92.2905 61.2623C 92.2905 61.2497 92.2905 61.2372 92.2905 61.2246C 92.2905 61.2121 92.2905 61.1995 92.2905 61.187C 92.2905 61.1744 92.2905 61.1618 92.2905 61.1493C 92.2905 61.1367 92.2905 61.1242 92.2905 61.1116C 92.2905 61.0991 92.2905 61.0865 92.2905 61.074C 92.2905 61.0614 92.2905 61.0489 92.2905 61.0363C 92.2905 61.0238 92.2905 61.0112 92.2905 60.9987C 92.2905 60.9861 92.2905 60.9736 92.2905 60.961C 92.2905 60.9485 92.2905 60.9359 92.2905 60.9233C 92.2905 60.9108 92.2905 60.8982 92.2905 60.8857C 92.2905 60.8731 92.2905 60.8606 92.2905 60.848C 92.2905 60.8355 92.2905 60.8229 92.2905 60.8104C 92.2905 60.7978 92.2905 60.7853 92.2905 60.7727C 92.2905 60.7602 92.2905 60.7476 92.2905 60.7351C 92.2905 60.7225 92.2905 60.7099 92.2905 60.6974C 92.2905 60.6848 92.2905 60.6723 92.2905 60.6597C 92.2905 60.6472 92.2905 60.6346 92.2905 60.6221C 92.2905 60.6095 92.2905 60.597 92.2905 60.5844C 92.2905 60.5719 92.2905 60.5593 92.2905 60.5468C 92.2905 60.5342 92.2905 60.5217 92.2905 60.5091C 92.2905 60.4965 92.2905 60.484 92.2905 60.4714C 92.2905 60.4589 92.2905 60.4463 92.2905 60.4338C 92.2905 60.4212 92.2905 60.4087 92.2905 60.3961C 92.2905 60.3836 92.2905 60.371 92.2905 60.3585C 92.2905 60.3459 92.2905 60.3334 92.2905 60.3208C 92.2905 60.3083 92.2905 60.2957 92.2905 60.2831C 92.2905 60.2706 92.2905 60.258 92.2905 60.2455C 92.2905 60.2329 92.2905 60.2204 92.2905 60.2078C 92.2905 60.1953 92.2905 60.1827 92.2905 60.1702C 92.2905 60.1576 92.2905 60.1451 92.2905 60.1325C 92.2905 60.12 92.2905 60.1074 92.2905 60.0949C 92.2905 60.0823 92.2905 60.0698 92.2905 60.0572C 92.2905 60.0446 92.2905 60.0321 92.2905 60.0195C 92.2905 60.007 92.2905 59.9944 92.2905 59.9819C 92.2905 59.9693 92.2905 59.9568 92.2905 59.9442C 92.2905 59.9317 92.2905 59.9191 92.2905 59.9066C 92.2905 59.894 92.2905 59.8815 92.2905 59.8689C 92.2905 59.8564 92.2905 59.8438 92.2905 59.8312C 92.2905 59.8187 92.2905 59.8061 92.2905 59.7936C 92.2905 59.781 92.2905 59.7685 92.2905 59.7559C 92.2905 59.7434 92.2905 59.7308 92.2905 59.7183C 92.2905 59.7057 92.2905 59.6932 92.2905 59.6806C 92.2905 59.6681 92.2905 59.6555 92.2905 59.643C 92.2905 59.6304 92.2905 59.6178 92.2905 59.6053C 92.2905 59.5927 92.2905 59.5802 92.2905 59.5676C 92.2905 59.5551 92.2905 59.5425 92.2905 59.53C 92.2905 59.5174 92.2905 59.5049 92.2905 59.4923C 92.2905 59.4798 92.2905 59.4672 92.2905 59.4547C 92.2905 59.4421 92.2905 59.4296 92.2905 59.417C 92.2905 59.4044 92.2905 59.3919 92.2905 59.3793C 92.2905 59.3668 92.2905 59.3542 92.2905 59.3417C 92.2905 59.3291 92.2905 59.3166 92.2905 59.304C 92.2905 59.2915 92.2905 59.2789 92.2905 59.2664C 92.2905 59.2538 92.2905 59.2413 92.2905 59.2287C 92.2905 59.2162 92.2905 59.2036 92.2905 59.1911C 92.2905 59.1785 92.2905 59.1659 92.2905 59.1534C 92.2905 59.1408 92.2905 59.1283 92.2905 59.1157C 92.2905 59.1032 92.2905 59.0906 92.2905 59.0781C 92.2905 59.0655 92.2905 59.053 92.2905 59.0404C 92.2905 59.0279 92.2905 59.0153 92.2905 59.0028C 92.2905 58.9902 92.2905 58.9776 92.2905 58.9651C 92.2905 58.9525 92.2905 58.94 92.2905 58.9274C 92.2905 58.9149 92.2905 58.9023 92.2905 58.8898C 92.2905 58.8772 92.2905 58.8647 92.2905 58.8521C 92.2905 58.8396 92.2905 58.827 92.2905 58.8145C 92.2905 58.8019 92.2905 58.7894 92.2905 58.7768C 92.2905 58.7643 92.2905 58.7517 92.2905 58.7391C 92.2905 58.7266 92.2905 58.714 92.2905 58.7015C 92.2905 58.6889 92.2905 58.6764 92.2905 58.6638C 92.2905 58.6513 92.2905 58.6387 92.2905 58.6262C 92.2905 58.6136 92.2905 58.6011 92.2905 58.5885C 92.2905 58.576 92.2905 58.5634 92.2905 58.5509C 92.2905 58.5383 92.2905 58.5257 92.2905 58.5132C 92.2905 58.5006 92.2905 58.4881 92.2905 58.4755C 92.2905 58.463 92.2905 58.4504 92.2905 58.4379C 92.2905 58.4253 92.2905 58.4128 92.2905 58.4002C 92.2905 58.3877 92.2905 58.3751 92.2905 58.3626C 92.2905 58.35 92.2905 58.3375 92.2905 58.3249C 92.2905 58.3123 92.2905 58.2998 92.2905 58.2872C 92.2905 58.2747 92.2905 58.2621 92.2905 58.2496C 92.2905 58.237 92.2905 58.2245 92.2905 58.2119C 92.2905 58.1994 92.2905 58.1868 92.2905 58.1743C 92.2905 58.1617 92.2905 58.1492 92.2905 58.1366C 92.2905 58.1241 92.2905 58.1115 92.2905 58.0989C 92.2905 58.0864 92.2905 58.0738 92.2905 58.0613C 92.2905 58.0487 92.2905 58.0362 92.2905 58.0236C 92.2905 58.0111 92.2905 57.9985 92.2905 57.986C 92.2905 57.9734 92.2905 57.9609 92.2905 57.9483C 92.2905 57.9358 92.2905 57.9232 92.2905 57.9107C 92.2905 57.8981 92.2905 57.8856 92.2905 57.873C 92.2905 57.8604 92.2905 57.8479 92.2905 57.8353C 92.2905 57.8228 92.2905 57.8102 92.2905 57.7977C 92.2905 57.7851 92.2905 57.7726 92.2905 57.76C 92.2905 57.7475 92.2905 57.7349 92.2905 57.7224C 92.2905 57.7098 92.2905 57.6973 92.2905 57.6847C 92.2905 57.6722 92.2905 57.6596 92.2905 57.647C 92.2905 57.6345 92.2905 57.6219 92.2905 57.6094C 92.2905 57.5968 92.2905 57.5843 92.2905 57.5717C 92.2905 57.5592 92.2905 57.5466 92.2905 57.5341C 92.2905 57.5215 92.2905 57.509 92.2905 57.4964C 92.2905 57.4839 92.2905 57.4713 92.2905 57.4588C 92.2905 57.4462 92.2905 57.4336 92.2905 57.4211C 92.2905 57.4085 92.2905 57.396 92.2905 57.3834C 92.2905 57.3709 92.2905 57.3583 92.2905 57.3458C 92.2905 57.3332 92.2905 57.3207 92.2905 57.3081C 92.2905 57.2956 92.2905 57.283 92.2905 57.2705C 92.2905 57.2579 92.2905 57.2454 92.2905 57.2328C 92.2905 57.2202 92.2905 57.2077 92.2905 57.1951C 92.2905 57.1826 92.2905 57.17 92.2905 57.1575C 92.2905 57.1449 92.2905 57.1324 92.2905 57.1198C 92.2905 57.1073 92.2905 57.0947 92.2905 57.0822C 92.2905 57.0696 92.2905 57.0571 92.2905 57.0445C 92.2905 57.032 92.2905 57.0194 92.2905 57.0069C 92.2905 56.9943 92.2905 56.9817 92.2905 56.9692C 92.2905 56.9566 92.2905 56.9441 92.2905 56.9315C 92.2905 56.919 92.2905 56.9064 92.2905 56.8939C 92.2905 56.8813 92.2905 56.8688 92.2905 56.8562C 92.2905 56.8437 92.2905 56.8311 92.2905 56.8186C 92.2905 56.806 92.2905 56.7935 92.2905 56.7809C 92.2905 56.7683 92.2905 56.7558 92.2905 56.7432C 92.2905 56.7307 92.2905 56.7181 92.2905 56.7056C 92.2905 56.693 92.2905 56.6805 92.2905 56.6679C 92.2905 56.6554 92.2905 56.6428 92.2905 56.6303C 92.2905 56.6177 92.2905 56.6052 92.2905 56.5926C 92.2905 56.5801 92.2905 56.5675 92.2905 56.5549C 92.2905 56.5424 92.2905 56.5298 92.2905 56.5173C 92.2905 56.5047 92.2905 56.4922 92.2905 56.4796C 92.2905 56.4671 92.2905 56.4545 92.2905 56.442C 92.2905 56.4294 92.2905 56.4169 92.2905 56.4043C 92.2905 56.3918 92.2905 56.3792 92.2905 56.3667C 92.2905 56.3541 92.2905 56.3415 92.2905 56.329C 92.2905 56.3164 92.2905 56.3039 92.2905 56.2913C 92.2905 56.2788 92.2905 56.2662 92.2905 56.2537C 92.2905 56.2411 92.2905 56.2286 92.2905 56.216C 92.2905 56.2035 92.2905 56.1909 92.2905 56.1784C 92.2905 56.1658 92.2905 56.1533 92.2905 56.1407C 92.2905 56.1282 92.2905 56.1156 92.2905 56.103C 92.2905 56.0905 92.2905 56.0779 92.2905 56.0654C 92.2905 56.0528 92.2905 56.0403 92.2905 56.0277C 92.2905 56.0152 92.2905 56.0026 92.2905 55.9901C 92.2905 55.9775 92.2905 55.965 92.2905 55.9524C 92.2905 55.9399 92.2905 55.9273 92.2905 55.9147C 92.2905 55.9022 92.2905 55.8896 92.2905 55.8771C 92.2905 55.8645 92.2905 55.852 92.2905 55.8394C 92.2905 55.8269 92.2905 55.8143 92.2905 55.8018C 92.2905 55.7892 92.2905 55.7767 92.2905 55.7641C 92.2905 55.7516 92.2905 55.739 92.2905 55.7265C 92.2905 55.7139 92.2905 55.7014 92.2905 55.6888C 92.2905 55.6762 92.2905 55.6637 92.2905 55.6511C 92.2905 55.6386 92.2905 55.626 92.2905 55.6135C 92.2905 55.6009 92.2905 55.5884 92.2905 55.5758C 92.2905 55.5633 92.2905 55.5507 92.2905 55.5382C 92.2905 55.5256 92.2905 55.5131 92.2905 55.5005C 92.2905 55.488 92.2905 55.4754 92.2905 55.4628C 92.2905 55.4503 92.2905 55.4377 92.2905 55.4252C 92.2905 55.4126 92.2905 55.4001 92.2905 55.3875C 92.2905 55.375 92.2905 55.3624 92.2905 55.3499C 92.2905 55.3373 92.2905 55.3248 92.2905 55.3122C 92.2905 55.2997 92.2905 55.2871 92.2905 55.2746C 92.2905 55.262 92.2905 55.2494 92.2905 55.2369C 92.2905 55.2243 92.2905 55.2118 92.2905 55.1992C 92.2905 55.1867 92.2905 55.1741 92.2905 55.1616C 92.2905 55.149 92.2905 55.1365 92.2905 55.1239C 92.2905 55.1114 92.2905 55.0988 92.2905 55.0863C 92.2905 55.0737 92.2905 55.0612 92.2905 55.0486C 92.2905 55.036 92.2905 55.0235 92.2905 55.0109C 92.2905 54.9984 92.2905 54.9858 92.2905 54.9733C 92.2905 54.9607 92.2905 54.9482 92.2905 54.9356C 92.2905 54.9231 92.2905 54.9105 92.2905 54.898C 92.2905 54.8854 92.2905 54.8729 92.2905 54.8603C 92.2905 54.8478 92.2905 54.8352 92.2905 54.8227C 92.2905 54.8101 92.2905 54.7975 92.2905 54.785C 92.2905 54.7724 92.2905 54.7599 92.2905 54.7473C 92.2905 54.7348 92.2905 54.7222 92.2905 54.7097C 92.2905 54.6971 92.2905 54.6846 92.2905 54.672C 92.2905 54.6595 92.2905 54.6469 92.2905 54.6344C 92.2905 54.6218 92.2905 54.6093 92.2905 54.5967C 92.2905 54.5841 92.2905 54.5716 92.2905 54.559C 92.2905 54.5465 92.2905 54.5339 92.2905 54.5214C 92.2905 54.5088 92.2905 54.4963 92.2905 54.4837C 92.2905 54.4712 92.2905 54.4586 92.2905 54.4461C 92.2905 54.4335 92.2905 54.421 92.2905 54.4084C 92.2905 54.3959 92.2905 54.3833 92.2905 54.3707C 92.2905 54.3582 92.2905 54.3456 92.2905 54.3331C 92.2905 54.3205 92.2905 54.308 92.2905 54.2954C 92.2905 54.2829 92.2905 54.2703 92.2905 54.2578C 92.2905 54.2452 92.2905 54.2327 92.2905 54.2201C 92.2905 54.2076 92.2905 54.195 92.2905 54.1825C 92.2905 54.1699 92.2905 54.1573 92.2905 54.1448C 92.2905 54.1322 92.2905 54.1197 92.2905 54.1071C 92.2905 54.0946 92.2905 54.082 92.2905 54.0695C 92.2905 54.0569 92.2905 54.0444 92.2905 54.0318C 92.2905 54.0193 92.2905 54.0067 92.2905 53.9942C 92.2905 53.9816 92.2905 53.9691 92.2905 53.9565C 92.2905 53.944 92.2905 53.9314 92.2905 53.9188C 92.2905 53.9063 92.2905 53.8937 92.2905 53.8812C 92.2905 53.8686 92.2905 53.8561 92.2905 53.8435C 92.2905 53.831 92.2905 53.8184 92.2905 53.8059C 92.2905 53.7933 92.2905 53.7808 92.2905 53.7682C 92.2905 53.7557 92.2905 53.7431 92.2905 53.7305C 92.2905 53.718 92.2905 53.7054 92.2905 53.6929C 92.2905 53.6803 92.2905 53.6678 92.2905 53.6552C 92.2905 53.6427 92.2905 53.6301 92.2905 53.6176C 92.2905 53.605 92.2905 53.5925 92.2905 53.5799C 92.2905 53.5674 92.2905 53.5548 92.2905 53.5423C 92.2905 53.5297 92.2905 53.5172 92.2905 53.5046C 92.2905 53.492 92.2905 53.4795 92.2905 53.4669C 92.2905 53.4544 92.2905 53.4418 92.2905 53.4293C 92.2905 53.4167 92.2905 53.4042 92.2905 53.3916C 92.2905 53.3791 92.2905 53.3665 92.2905 53.354C 92.2905 53.3414 92.2905 53.3289 92.2905 53.3163C 92.2905 53.3038 92.2905 53.2912 92.2905 53.2786C 92.2905 53.2661 92.2905 53.2535 92.2905 53.241C 92.2905 53.2284 92.2905 53.2159 92.2905 53.2033C 92.2905 53.1908 92.2905 53.1782 92.2905 53.1657C 92.2905 53.1531 92.2905 53.1406 92.2905 53.128C 92.2905 53.1155 92.2905 53.1029 92.2905 53.0904C 92.2905 53.0778 92.2905 53.0652 92.2905 53.0527C 92.2905 53.0401 92.2905 53.0276 92.2905 53.015C 92.2905 53.0025 92.2905 52.9899 92.2905 52.9774C 92.2905 52.9648 92.2905 52.9523 92.2905 52.9397C 92.2905 52.9272 92.2905 52.9146 92.2905 52.9021C 92.2905 52.8895 92.2905 52.877 92.2905 52.8644C 92.2905 52.8518 92.2905 52.8393 92.2905 52.8267C 92.2905 52.8142 92.2905 52.8016 92.2905 52.7891C 92.2905 52.7765 92.2905 52.764 92.2905 52.7514C 92.2905 52.7389 92.2905 52.7263 92.2905 52.7138C 92.2905 52.7012 92.2905 52.6887 92.2905 52.6761C 92.2905 52.6636 92.2905 52.651 92.2905 52.6385C 92.2905 52.6259 92.2905 52.6133 92.2905 52.6008C 92.2905 52.5882 92.2905 52.5757 92.2905 52.5631C 92.2905 52.5506 92.2905 52.538 92.2905 52.5255C 92.2905 52.5129 92.2905 52.5004 92.2905 52.4878C 92.2905 52.4753 92.2905 52.4627 92.2905 52.4502C 92.2905 52.4376 92.2905 52.4251 92.2905 52.4125C 92.2905 52.3999 92.2905 52.3874 92.2905 52.3748C 92.2905 52.3623 92.2905 52.3497 92.2905 52.3372C 92.2905 52.3246 92.2905 52.3121 92.2905 52.2995C 92.2905 52.287 92.2905 52.2744 92.2905 52.2619C 92.2905 52.2493 92.2905 52.2368 92.2905 52.2242C 92.2905 52.2117 92.2905 52.1991 92.2905 52.1865C 92.2905 52.174 92.2905 52.1614 92.2905 52.1489C 92.2905 52.1363 92.2905 52.1238 92.2905 52.1112C 92.2905 52.0987 92.2905 52.0861 92.2905 52.0736C 92.2905 52.061 92.2905 52.0485 92.2905 52.0359C 92.2905 52.0234 92.2905 52.0108 92.2905 51.9983C 92.2905 51.9857 92.2905 51.9731 92.2905 51.9606C 92.2905 51.948 92.2905 51.9355 92.2905 51.9229C 92.2905 51.9104 92.2905 51.8978 92.2905 51.8853C 92.2905 51.8727 92.2905 51.8602 92.2905 51.8476C 92.2905 51.8351 92.2905 51.8225 92.2905 51.81C 92.2905 51.7974 92.2905 51.7849 92.2905 51.7723C 92.2905 51.7598 92.2905 51.7472 92.2905 51.7346C 92.2905 51.7221 92.2905 51.7095 92.2905 51.697C 92.2905 51.6844 92.2905 51.6719 92.2905 51.6593C 92.2905 51.6468 92.2905 51.6342 92.2905 51.6217C 92.2905 51.6091 92.2905 51.5966 92.2905 51.584C 92.2905 51.5715 92.2905 51.5589 92.2905 51.5464C 92.2905 51.5338 92.2905 51.5212 92.2905 51.5087C 92.2905 51.4961 92.2905 51.4836 92.2905 51.471C 92.2905 51.4585 92.2905 51.4459 92.2905 51.4334C 92.2905 51.4208 92.2905 51.4083 92.2905 51.3957C 92.2905 51.3832 92.2905 51.3706 92.2905 51.3581C 92.2905 51.3455 92.2905 51.333 92.2905 51.3204C 92.2905 51.3078 92.2905 51.2953 92.2905 51.2827C 92.2905 51.2702 92.2905 51.2576 92.2905 51.2451C 92.2905 51.2325 92.2905 51.22 92.2905 51.2074C 92.2905 51.1949 92.2905 51.1823 92.2905 51.1698C 92.2905 51.1572 92.2905 51.1447 92.2905 51.1321C 92.2905 51.1196 92.2905 51.107 92.2905 51.0944C 92.2905 51.0819 92.2905 51.0693 92.2905 51.0568C 92.2905 51.0442 92.2905 51.0317 92.2905 51.0191C 92.2905 51.0066 92.2905 50.994 92.2905 50.9815C 92.2905 50.9689 92.2905 50.9564 92.2905 50.9438C 92.2905 50.9313 92.2905 50.9187 92.2905 50.9062C 92.2905 50.8936 92.2905 50.8811 92.2905 50.8685C 92.2905 50.8559 92.2905 50.8434 92.2905 50.8308C 92.2905 50.8183 92.2905 50.8057 92.2905 50.7932C 92.2905 50.7806 92.2905 50.7681 92.2905 50.7555C 92.2905 50.743 92.2905 50.7304 92.2905 50.7179C 92.2905 50.7053 92.2905 50.6928 92.2905 50.6802C 92.2905 50.6676 92.2905 50.6551 92.2905 50.6425C 92.2905 50.63 92.2905 50.6174 92.2905 50.6049C 92.2905 50.5923 92.2905 50.5798 92.2905 50.5672C 92.2905 50.5547 92.2905 50.5421 92.2905 50.5296C 92.2905 50.517 92.2905 50.5045 92.2905 50.4919C 92.2905 50.4794 92.2905 50.4668 92.2905 50.4543C 92.2905 50.4417 92.2905 50.4291 92.2905 50.4166C 92.2905 50.404 92.2905 50.3915 92.2905 50.3789C 92.2905 50.3664 92.2905 50.3538 92.2905 50.3413C 92.2905 50.3287 92.2905 50.3162 92.2905 50.3036C 92.2905 50.2911 92.2905 50.2785 92.2905 50.266C 92.2905 50.2534 92.2905 50.2409 92.2905 50.2283C 92.2905 50.2157 92.2905 50.2032 92.2905 50.1906C 92.2905 50.1781 92.2905 50.1655 92.2905 50.153C 92.2905 50.1404 92.2905 50.1279 92.2905 50.1153C 92.2905 50.1028 92.2905 50.0902 92.2905 50.0777C 92.2905 50.0651 92.2905 50.0526 92.2905 50.04C 92.2905 50.0275 92.2905 50.0149 92.2905 50.0023C 92.2905 49.9898 92.2905 49.9772 92.2905 49.9647C 92.2905 49.9521 92.2905 49.9396 92.2905 49.927C 92.2905 49.9145 92.2905 49.9019 92.2905 49.8894C 92.2905 49.8768 92.2905 49.8643 92.2905 49.8517C 92.2905 49.8392 92.2905 49.8266 92.2905 49.8141C 92.2905 49.8015 92.2905 49.7889 92.2905 49.7764C 92.2905 49.7638 92.2905 49.7513 92.2905 49.7387C 92.2905 49.7262 92.2905 49.7136 92.2905 49.7011C 92.2905 49.6885 92.2905 49.676 92.2905 49.6634C 92.2905 49.6509 92.2905 49.6383 92.2905 49.6258C 92.2905 49.6132 92.2905 49.6007 92.2905 49.5881C 92.2905 49.5756 92.2905 49.563 92.2905 49.5504C 92.2905 49.5379 92.2905 49.5253 92.2905 49.5128C 92.2905 49.5002 92.2905 49.4877 92.2905 49.4751C 92.2905 49.4626 92.2905 49.45 92.2905 49.4375C 92.2905 49.4249 92.2905 49.4124 92.2905 49.3998C 92.2905 49.3873 92.2905 49.3747 92.2905 49.3622C 92.2905 49.3496 92.2905 49.337 92.2905 49.3245C 92.2905 49.3119 92.2905 49.2994 92.2905 49.2868C 92.2905 49.2743 92.2905 49.2617 92.2905 49.2492C 92.2905 49.2366 92.2905 49.2241 92.2905 49.2115C 92.2905 49.199 92.2905 49.1864 92.2905 49.1739C 92.2905 49.1613 92.2905 49.1488 92.2905 49.1362C 92.2905 49.1236 92.2905 49.1111 92.2905 49.0985C 92.2905 49.086 92.2905 49.0734 92.2905 49.0609C 92.2905 49.0483 92.2905 49.0358 92.2905 49.0232C 92.2905 49.0107 92.2905 48.9981 92.2905 48.9856C 92.2905 48.973 92.2905 48.9605 92.2905 48.9479C 92.2905 48.9354 92.2905 48.9228 92.2905 48.9102L 91.2905 48.9102ZM 91.2905 68.1915C 91.2905 70.1625 91.312 71.2132 91.09 72.1601C 90.8743 73.0804 90.4196 73.9255 89.3708 75.4237L 90.1901 75.9971C 91.2516 74.4806 91.8019 73.5047 92.0636 72.3884C 92.3191 71.2988 92.2905 70.0973 92.2905 68.1915L 91.2905 68.1915ZM 89.3708 75.4237C 86.6913 79.2515 83.576 82.6683 80.2022 85.9216L 80.8964 86.6415C 84.2997 83.3597 87.4624 79.8938 90.1901 75.9971L 89.3708 75.4237ZM 80.2022 85.9216C 79.9355 86.1788 79.6706 86.4058 79.4049 86.6304C 79.1427 86.8521 78.8736 87.0766 78.6193 87.3142C 78.101 87.7984 77.6251 88.3543 77.2635 89.1679L 78.1773 89.5741C 78.4685 88.9188 78.8484 88.4687 79.302 88.0448C 79.5337 87.8284 79.7796 87.6232 80.0505 87.3941C 80.318 87.168 80.6044 86.923 80.8964 86.6415L 80.2022 85.9216ZM 77.2635 89.1679C 77.291 89.1059 77.3104 89.127 77.18 89.2038C 77.0702 89.2685 76.9085 89.3414 76.6955 89.4199C 76.2714 89.5761 75.7131 89.7296 75.1183 89.8781C 74.5111 90.0296 73.9323 90.1603 73.3917 90.293C 72.8905 90.416 72.4141 90.5422 72.1469 90.6683L 72.5739 91.5726C 72.7305 91.4986 73.0963 91.3952 73.6301 91.2641C 74.1245 91.1428 74.7732 90.9949 75.3605 90.8483C 75.96 90.6986 76.5629 90.5344 77.0411 90.3582C 77.2793 90.2705 77.504 90.1736 77.6876 90.0654C 77.8507 89.9693 78.0705 89.8144 78.1773 89.5741L 77.2635 89.1679ZM 72.1469 90.6683C 60.4777 96.1788 49.4441 97.9905 36.478 97.9905L 36.478 98.9905C 49.552 98.9905 60.7393 97.1611 72.5739 91.5726L 72.1469 90.6683ZM 36.478 97.9905C 27.6824 97.9905 20.4716 97.6253 12.9836 93.2206L 12.4766 94.0826C 20.2154 98.6348 27.6676 98.9905 36.478 98.9905L 36.478 97.9905ZM 12.9836 93.2206C 11.4498 92.3184 10.3949 90.9414 9.22567 89.4637C 8.07463 88.0089 6.82223 86.4724 4.92397 85.4674L 4.45608 86.3512C 6.14703 87.2464 7.28473 88.6222 8.44145 90.0842C 9.58003 91.5232 10.7505 93.0672 12.4766 94.0826L 12.9836 93.2206ZM 4.92397 85.4674C 4.21422 85.0917 3.27416 84.3045 2.40436 83.4008C 1.53508 82.4977 0.792203 81.5368 0.447214 80.8468L -0.447214 81.294C -0.0360652 82.1163 0.786815 83.1623 1.68389 84.0943C 2.58044 85.0258 3.60732 85.9019 4.45608 86.3512L 4.92397 85.4674Z"/>
<path id="path3_stroke" d="M -2.1918 6.43178C -2.1918 11.9546 2.28536 16.4318 7.8082 16.4318C 13.3311 16.4318 17.8082 11.9546 17.8082 6.43178L -2.1918 6.43178ZM 4.52054 0.297463L 8.75635 -8.76112L 4.52054 0.297463ZM 0.821916 2.83831L 10.7976 3.53549L 0.821916 2.83831ZM 1.43835 11.9853L -6.42282 18.1661L 1.43835 11.9853ZM 3.67579 15.0888L 13.3066 12.3965L 3.67579 15.0888ZM 14.3607 13.1287L 23.9915 15.821L 14.3607 13.1287ZM 18.2192 5.12506C 18.2192 -0.397783 13.742 -4.87494 8.21916 -4.87494C 2.69631 -4.87494 -1.78084 -0.397783 -1.78084 5.12506L 18.2192 5.12506ZM 17.8082 6.43178C 17.8082 3.02713 16.9131 -4.94701 8.75635 -8.76112L 0.284732 9.35605C -0.14616 9.15456 -0.636998 8.82411 -1.08713 8.3476C -1.52765 7.88125 -1.80613 7.40602 -1.97121 7.03006C -2.25924 6.37413 -2.1918 6.05326 -2.1918 6.43178L 17.8082 6.43178ZM 8.75635 -8.76112C 6.73751 -9.70513 4.2821 -10.2553 1.62006 -9.88314C -1.04448 -9.51064 -3.22256 -8.30984 -4.82249 -6.87045C -7.76279 -4.2252 -8.95592 -0.689505 -9.15375 2.14113L 10.7976 3.53549C 10.713 4.74584 10.2386 6.48244 8.55396 7.99799C 7.58186 8.87254 6.16588 9.67585 4.38913 9.92424C 2.61489 10.1723 1.17295 9.77138 0.284733 9.35605L 8.75635 -8.76112ZM -9.15375 2.14113C -9.1513 2.10603 -9.15253 2.16205 -9.19489 2.39105C -9.24892 2.68319 -9.3 2.90674 -9.42468 3.50058C -9.6323 4.48943 -10 6.2713 -10 8.39186L 10 8.39186C 10 8.48258 9.97789 8.42296 10.1486 7.61013C 10.2698 7.03248 10.6723 5.32817 10.7976 3.53549L -9.15375 2.14113ZM -10 8.39186C -10 12.6827 -8.0426 16.1059 -6.42282 18.1661L 9.29953 5.80457C 9.35751 5.87831 9.49151 6.06162 9.63223 6.39807C 9.76825 6.72326 10 7.40922 10 8.39186L -10 8.39186ZM -6.42282 18.1661C -6.2788 18.3493 -6.13451 18.5249 -6.03077 18.6504C -5.92724 18.7756 -5.79998 18.9282 -5.70966 19.0368C -5.49954 19.2895 -5.3351 19.4897 -5.19679 19.6661C -5.13077 19.7503 -5.08637 19.8093 -5.05967 19.8458C -5.03073 19.8853 -5.04059 19.8739 -5.07618 19.8192C -5.10522 19.7745 -5.20943 19.6124 -5.34171 19.3569C -5.41055 19.2239 -5.50431 19.0324 -5.60543 18.7905C -5.70433 18.554 -5.83472 18.2112 -5.95497 17.7811L 13.3066 12.3965C 13.0274 11.398 12.6549 10.617 12.4192 10.1618C 12.1615 9.66407 11.9009 9.23967 11.693 8.91986C 11.2832 8.28943 10.8562 7.72629 10.5426 7.32631C 10.2146 6.90794 9.89346 6.52016 9.6687 6.24985C 9.54158 6.09697 9.46409 6.00424 9.38431 5.90774C 9.30475 5.81149 9.28717 5.78885 9.29953 5.80457L -6.42282 18.1661ZM -5.95497 17.7811C -4.2704 23.8071 1.14009 25.887 2.75315 26.4413C 5.12082 27.255 7.56865 27.5389 9.45204 27.5389L 9.45204 7.5389C 9.47443 7.5389 9.39481 7.53822 9.2719 7.51965C 9.14307 7.50019 9.13584 7.48673 9.25308 7.52702C 9.31786 7.54929 9.86941 7.73526 10.5912 8.28841C 11.3378 8.86053 12.6822 10.163 13.3066 12.3965L -5.95497 17.7811ZM 9.45204 27.5389C 13.7736 27.5389 17.4341 25.7742 20.0247 23.0444C 22.3466 20.5978 23.4419 17.7869 23.9915 15.821L 4.72994 10.4364C 4.66315 10.6754 4.76541 10.0696 5.51772 9.27684C 5.94203 8.82975 6.55008 8.35284 7.34321 8.00441C 8.14477 7.65227 8.89139 7.5389 9.45204 7.5389L 9.45204 27.5389ZM 23.9915 15.821C 25.4389 10.6435 23.0934 6.61789 21.4549 4.6451C 20.0193 2.91665 18.2084 1.61721 17.5732 1.14548C 16.4775 0.331762 16.4152 0.263276 16.4664 0.315908C 16.5118 0.362562 18.2192 2.05466 18.2192 5.12506L -1.78084 5.12506C -1.78084 9.78897 0.801266 12.8955 2.13196 14.2631C 3.46847 15.6367 5.10199 16.7958 5.64871 17.2018C 6.05781 17.5057 6.25174 17.6558 6.37348 17.7578C 6.50221 17.8656 6.33572 17.7441 6.06961 17.4237C 5.80754 17.1082 5.2046 16.3103 4.80479 15.0414C 4.36064 13.6316 4.28914 12.0133 4.72994 10.4364L 23.9915 15.821Z"/>
<path id="path4_stroke" d="M -5.18425 3.45128C -8.99445 7.44931 -8.84218 13.7791 -4.84415 17.5893C -0.846121 21.3995 5.4837 21.2473 9.29389 17.2492L -5.18425 3.45128ZM 6.57536 4.47002L -3.39737 3.73204L 6.57536 4.47002ZM 10.4566 0.205031L 8.24183 -9.54662L 10.4566 0.205031ZM 15.6164 2.83662L 25.5921 2.13944L 15.6164 2.83662ZM 6.5703 18.3364C 11.7026 16.2965 14.2095 10.4823 12.1696 5.34998C 10.1297 0.21766 4.31549 -2.28924 -0.816823 -0.249345L 6.5703 18.3364ZM 9.29389 17.2492C 9.36584 17.1737 11.1743 15.3833 12.2586 14.146C 12.9 13.4141 13.7285 12.406 14.4606 11.2404C 15.0448 10.3101 16.3329 8.11637 16.5481 5.20799L -3.39737 3.73204C -3.31185 2.5763 -3.01266 1.7438 -2.85001 1.34892C -2.67594 0.926323 -2.5177 0.669423 -2.47634 0.603573C -2.42663 0.524415 -2.41996 0.523394 -2.4854 0.607864C -2.54707 0.68748 -2.64377 0.80571 -2.78311 0.964719C -3.07081 1.29302 -3.42594 1.66589 -3.85245 2.09893C -4.06899 2.31878 -4.26189 2.51185 -4.491 2.74251C -4.69672 2.94961 -4.94858 3.20399 -5.18425 3.45128L 9.29389 17.2492ZM 16.5481 5.20799C 16.4165 6.98574 15.6651 8.03491 15.2605 8.48872C 14.8096 8.99445 13.9961 9.65582 12.6714 9.95668L 8.24183 -9.54662C 4.86484 -8.77963 2.1777 -6.89067 0.332689 -4.82143C -1.46602 -2.80411 -3.1319 0.1445 -3.39737 3.73204L 16.5481 5.20799ZM 12.6714 9.95668C 12.6518 9.96113 12.4443 10.0087 12.0629 9.99859C 11.6981 9.9889 10.9388 9.9193 9.98885 9.51091C 8.97497 9.07506 7.81053 8.27292 6.90397 6.97742C 6.00176 5.68813 5.70178 4.40679 5.64077 3.5338L 25.5921 2.13944C 25.2474 -2.79269 22.3669 -6.93767 17.8876 -8.86326C 14.2496 -10.4272 10.6246 -10.0878 8.24183 -9.54662L 12.6714 9.95668ZM 5.64077 3.5338C 5.76346 5.28931 6.06126 7.03599 6.20573 7.98671C 6.3794 9.12951 6.43835 9.71725 6.43835 10.1869L 26.4384 10.1869C 26.4384 8.10949 26.1728 6.25904 25.9787 4.98195C 25.7555 3.51276 25.6423 2.85784 25.5921 2.13944L 5.64077 3.5338ZM 6.43835 10.1869C 6.43835 8.59787 6.9487 7.41818 7.31252 6.78972C 7.64341 6.21817 7.92157 5.97695 7.82398 6.07163C 7.74281 6.15038 7.54756 6.32294 7.10992 6.66354C 6.89478 6.83097 6.68182 6.99258 6.39896 7.20815C 6.13968 7.40575 5.81515 7.65369 5.48965 7.91243L 17.935 23.5685C 18.143 23.4032 20.3443 21.7904 21.7506 20.4261C 23.1553 19.0632 26.4384 15.5594 26.4384 10.1869L 6.43835 10.1869ZM 5.48965 7.91243C 5.02601 8.28099 4.83302 8.40683 4.78867 8.43423C 4.7865 8.43558 4.94325 8.34111 5.20376 8.25027C 5.45951 8.16109 5.61337 8.14595 5.55491 8.15303C 5.4562 8.16499 5.16448 8.19057 4.52057 8.19057L 4.52057 28.1906C 6.6407 28.1906 9.15016 28.0551 11.7885 27.1352C 14.4536 26.206 16.4415 24.7558 17.935 23.5685L 5.48965 7.91243ZM 4.52057 8.19057C 4.07848 8.19057 3.77836 8.19038 3.52068 8.18626C 3.26474 8.18218 3.17506 8.17559 3.17832 8.17585C 3.18716 8.17654 3.24457 8.18116 3.33922 8.19413C 3.43354 8.20704 3.5853 8.231 3.78026 8.27429C 4.15658 8.35784 4.81502 8.53974 5.59215 8.94152C 6.40999 9.36435 7.26994 9.98535 8.03332 10.8482C 8.78849 11.7017 9.26289 12.5811 9.55145 13.3218C 10.0573 14.6203 10 15.5263 10 15.2505L -9.99997 15.2505C -9.99997 16.4467 -9.91242 18.4562 -9.08427 20.582C -8.08275 23.1527 -6.21286 25.3531 -3.59301 26.7076C -1.44245 27.8194 0.623315 28.0368 1.6135 28.1145C 2.67242 28.1976 3.82017 28.1906 4.52057 28.1906L 4.52057 8.19057ZM 10 15.2505C 10 14.5948 10.0024 14.3757 10.0148 14.1983C 10.0251 14.0508 10.024 14.2966 9.88357 14.7431C 9.72842 15.2363 9.39028 16.0146 8.70021 16.7979C 7.9871 17.6075 7.19007 18.0901 6.5703 18.3364L -0.816823 -0.249345C -5.42409 1.58186 -8.05791 5.1276 -9.19479 8.74177C -10.0985 11.6147 -9.99997 14.5224 -9.99997 15.2505L 10 15.2505Z"/>
<path id="path5_stroke" d="M 5.22283 10.0684C 10.0041 12.8326 16.121 11.1974 18.8852 6.41607C 21.6494 1.63475 20.0142 -4.48211 15.2329 -7.24631L 5.22283 10.0684ZM 1.59774 0.267659L -5.45078 -6.82588L -5.45078 -6.82588L 1.59774 0.267659ZM 0.570341 5.16786L 8.76697 -0.560606L 0.570341 5.16786ZM 6.11828 9.65063L 10.1581 0.502961L 10.1581 0.502961L 6.11828 9.65063ZM 22.7621 10.7033L 28.0209 19.2089L 22.7621 10.7033ZM 24.5886 8.10797L 14.9578 10.8003L 24.5886 8.10797ZM 21.963 5.96641L 24.1778 -3.78524L 21.963 5.96641ZM 14.7484 5.3312L 15.2155 -4.65789L 14.7484 5.3312ZM 16.4505 -6.74368C 12.1272 -10.1804 5.83651 -9.46163 2.39982 -5.13833C -1.03688 -0.815019 -0.318134 5.4757 4.00517 8.9124L 16.4505 -6.74368ZM 15.2329 -7.24631C 14.098 -7.9024 12.5894 -8.70483 10.7028 -9.23938C 8.77132 -9.78664 7.01259 -9.89568 5.50184 -9.89568L 5.50184 10.1043C 5.77212 10.1043 5.82947 10.1152 5.76281 10.1079C 5.72428 10.1037 5.65409 10.0945 5.55993 10.0766C 5.46448 10.0583 5.35974 10.034 5.25065 10.0031C 5.14184 9.9723 5.04704 9.9401 4.97044 9.91114C 4.89542 9.88278 4.84924 9.86183 4.83795 9.8566C 4.82829 9.85212 4.85176 9.86265 4.91749 9.89758C 4.98416 9.93301 5.08204 9.98699 5.22283 10.0684L 15.2329 -7.24631ZM 5.50184 -9.89568C 5.70377 -9.89568 5.81152 -9.88451 5.25071 -9.9192C 4.89405 -9.94127 4.30305 -9.97782 3.68281 -9.99276C 3.12183 -10.0063 2.17551 -10.0141 1.154 -9.89583C 0.645856 -9.83698 -0.172125 -9.7157 -1.10597 -9.42421C -1.8793 -9.18282 -3.73868 -8.52713 -5.45078 -6.82588L 8.64626 7.3612C 7.79649 8.20557 6.95254 8.73054 6.35314 9.04449C 5.74398 9.36354 5.21496 9.55444 4.8533 9.66733C 4.16024 9.88367 3.63466 9.95056 3.45481 9.97138C 3.08989 10.0136 2.94378 9.99523 3.20099 10.0014C 3.39893 10.0062 3.6441 10.0196 4.01596 10.0426C 4.17171 10.0523 4.39809 10.0666 4.60072 10.0774C 4.77704 10.0867 5.1245 10.1043 5.50184 10.1043L 5.50184 -9.89568ZM -5.45078 -6.82588C -6.90157 -5.38431 -8.69756 -3.1086 -9.53918 -0.000316421C -10.4909 3.51454 -10.017 7.4756 -7.62629 10.8963L 8.76697 -0.560606C 9.28137 0.175432 9.72279 1.14692 9.90831 2.29623C 10.0911 3.42888 9.97865 4.44023 9.76568 5.22677C 9.37854 6.65658 8.68421 7.32349 8.64626 7.3612L -5.45078 -6.82588ZM -7.62629 10.8963C -5.40224 14.0786 -1.5697 17.1872 2.07845 18.7983L 10.1581 0.502961C 10.1934 0.518535 10.1082 0.482642 9.91889 0.362105C 9.73823 0.247071 9.52759 0.0961876 9.31284 -0.0785088C 9.09725 -0.253875 8.92256 -0.416592 8.80186 -0.540883C 8.66894 -0.677748 8.67531 -0.691762 8.76697 -0.560606L -7.62629 10.8963ZM 2.07845 18.7983C 3.97169 19.6344 9.28459 22.1915 14.7484 22.1915L 14.7484 2.19147C 14.8241 2.19147 14.4509 2.18852 13.4509 1.85211C 12.4787 1.5251 11.4788 1.08621 10.1581 0.502961L 2.07845 18.7983ZM 14.7484 22.1915C 17.3094 22.1915 22.7744 22.4526 28.0209 19.2089L 17.5033 2.19766C 17.7065 2.07204 17.8624 2.07372 17.6105 2.10891C 17.4326 2.13376 17.1416 2.16045 16.6468 2.1757C 16.1287 2.19168 15.5662 2.19147 14.7484 2.19147L 14.7484 22.1915ZM 28.0209 19.2089C 28.1469 19.1309 28.7383 18.7743 29.2387 18.4328C 29.7702 18.0701 30.7352 17.3752 31.6809 16.3285C 32.6965 15.2044 33.7965 13.5576 34.3381 11.3515C 34.8818 9.13734 34.6854 7.08297 34.2193 5.41568L 14.9578 10.8003C 14.6763 9.79344 14.493 8.3016 14.915 6.58273C 15.335 4.87191 16.1788 3.65327 16.8406 2.92076C 17.4325 2.26563 17.9462 1.92583 17.9658 1.91246C 18.0011 1.88835 17.9967 1.89279 17.9065 1.94904C 17.7718 2.033 17.742 2.05009 17.5033 2.19766L 28.0209 19.2089ZM 34.2193 5.41568C 33.5673 3.08335 32.2581 1.5184 31.7898 0.975289C 31.1227 0.201704 30.4194 -0.437569 29.8058 -0.932923C 28.9349 -1.63604 26.8768 -3.17223 24.1778 -3.78524L 19.7482 15.7181C 18.5857 15.454 17.8633 15.0343 17.7382 14.9626C 17.4971 14.8245 17.344 14.7106 17.2427 14.6288C 17.1537 14.557 16.9337 14.3728 16.6432 14.0359C 16.4946 13.8636 16.246 13.5571 15.9739 13.1216C 15.7285 12.7288 15.2742 11.9319 14.9578 10.8003L 34.2193 5.41568ZM 24.1778 -3.78524C 24.2276 -3.77392 24.2412 -3.76719 24.1208 -3.80422C 24.1106 -3.80735 23.5823 -3.97516 23.1878 -4.08498C 21.9779 -4.42182 20.5906 -4.6688 18.858 -4.6688L 18.858 15.3312C 18.7748 15.3312 18.5916 15.3251 18.3433 15.289C 18.0902 15.2522 17.8974 15.2028 17.8238 15.1823C 17.8018 15.1762 17.8081 15.1774 17.8833 15.2007C 17.9226 15.2128 17.9613 15.225 18.0262 15.2453C 18.0847 15.2636 18.1618 15.2876 18.2449 15.3132C 18.5935 15.4203 19.1104 15.5732 19.7482 15.7181L 24.1778 -3.78524ZM 18.858 -4.6688C 16.8383 -4.6688 16.3015 -4.60711 15.2155 -4.65789L 14.2813 15.3203C 15.9135 15.3966 18.154 15.3312 18.858 15.3312L 18.858 -4.6688ZM 15.2155 -4.65789C 15.749 -4.63294 16.3853 -4.53172 17.071 -4.29642C 17.7609 -4.05972 18.3762 -3.7301 18.9002 -3.35669C 19.8954 -2.64741 20.3609 -1.91786 20.3697 -1.90467C 20.3801 -1.88888 20.3574 -1.92195 20.2266 -2.14374C 20.1357 -2.2978 19.9022 -2.69919 19.6614 -3.08118C 19.404 -3.48963 19.0245 -4.06201 18.5264 -4.67713C 18.0217 -5.30033 17.3414 -6.03549 16.4505 -6.74368L 4.00517 8.9124C 3.06062 8.16155 2.6462 7.43136 2.74147 7.58253C 2.78177 7.64647 2.8177 7.70814 2.99991 8.01706C 3.14217 8.25824 3.39614 8.68807 3.70215 9.14948C 4.30199 10.0539 5.43394 11.6056 7.29275 12.9303C 9.31662 14.3727 11.7062 15.1999 14.2813 15.3203L 15.2155 -4.65789Z"/>
<path id="path6_stroke" d="M 1.12859 -0.762952C -4.39316 -0.653218 -8.78047 3.91201 -8.67074 9.43377C -8.56101 14.9555 -3.99578 19.3428 1.52598 19.2331L 1.12859 -0.762952ZM 8.31357 6.13161L 17.042 11.0117L 8.31357 6.13161ZM 11.1903 2.77407L 15.9859 11.5491L 11.1903 2.77407ZM 13.8615 0.578058L 9.82168 -8.56961L 9.82168 -8.56961L 13.8615 0.578058ZM 18.8158 8.41837L 25.9636 15.4119L 18.8158 8.41837ZM 16.5099 11.05L 9.70997 3.71778L 16.5099 11.05ZM 13.2451 13.1552L 19.0158 21.3222L 13.2451 13.1552ZM 0.0944111 12.8286L 10.0701 12.1314L 0.0944111 12.8286ZM 2.56016 18.9084C 8.08301 18.9084 12.5602 14.4312 12.5602 8.90839C 12.5602 3.38555 8.08301 -1.09161 2.56016 -1.09161L 2.56016 18.9084ZM 1.52598 19.2331C 4.07666 19.1824 6.77635 18.564 9.09983 17.6157C 11.0334 16.8266 14.8323 14.9639 17.042 11.0117L -0.414818 1.25153C 0.267495 0.031165 1.05302 -0.566295 1.27229 -0.724357C 1.54144 -0.91837 1.65841 -0.948776 1.54252 -0.901479C 1.44784 -0.862838 1.30083 -0.815443 1.14622 -0.781805C 0.976696 -0.744921 0.961626 -0.759634 1.12859 -0.762952L 1.52598 19.2331ZM 17.042 11.0117C 16.9507 11.1749 16.8791 11.2896 16.8481 11.3385C 16.8128 11.3941 16.7909 11.4264 16.7877 11.4311C 16.7828 11.4382 16.8075 11.402 16.8671 11.3215C 16.987 11.1596 17.1575 10.941 17.3395 10.7218C 17.4276 10.6157 17.5068 10.5234 17.573 10.4487C 17.6055 10.4121 17.6318 10.383 17.6517 10.3615C 17.672 10.3396 17.682 10.3293 17.682 10.3293C 17.6817 10.3296 17.6777 10.3337 17.6701 10.3412C 17.6626 10.3487 17.6502 10.3609 17.6332 10.3772C 17.602 10.4071 17.5397 10.4659 17.4494 10.5443C 17.3635 10.6189 17.2134 10.7452 17.0082 10.8973C 16.8187 11.0378 16.468 11.2857 15.9859 11.5491L 6.39463 -6.00099C 4.74656 -5.10031 3.56464 -3.84107 3.34712 -3.6175C 2.83244 -3.08851 2.3477 -2.53075 1.95239 -2.05467C 1.34109 -1.31846 0.262491 0.0401161 -0.414818 1.25153L 17.042 11.0117ZM 15.9859 11.5491C 17.1869 10.8928 18.0883 10.1535 18.7271 9.55446C 19.0348 9.26595 19.2858 9.00557 19.4567 8.82421C 19.5887 8.68408 19.7895 8.46519 19.7999 8.45387C 20.0066 8.23051 19.2475 9.13124 17.9013 9.72572L 9.82168 -8.56961C 7.21693 -7.41929 5.66302 -5.71612 5.11912 -5.12822C 4.76546 -4.74596 4.91579 -4.91207 5.0469 -5.03501C 5.28011 -5.25369 5.73447 -5.64021 6.39463 -6.00099L 15.9859 11.5491ZM 17.9013 9.72572C 17.7075 9.81132 16.1846 10.3769 14.0996 9.58766C 12.0519 8.81255 11.0024 7.30865 10.5869 6.35941C 10.1977 5.47034 10.1678 4.71905 10.2491 4.14239C 10.3297 3.57054 10.625 2.4909 11.6681 1.42481L 25.9636 15.4119C 30.7388 10.5315 31.1127 3.37518 28.9085 -1.66033C 27.6521 -4.53085 25.1934 -7.59792 21.1798 -9.11716C 17.1289 -10.6505 13.0834 -10.0101 9.82168 -8.56961L 17.9013 9.72572ZM 11.6681 1.42481C 10.8202 2.29137 10.1241 3.18684 9.88413 3.48545C 9.5522 3.8985 9.58029 3.83805 9.70997 3.71778L 23.3098 18.3821C 24.3395 17.4272 25.0922 16.4888 25.474 16.0136C 25.7067 15.7241 25.7885 15.6203 25.8931 15.4951C 25.9724 15.4002 25.9877 15.3873 25.9636 15.4119L 11.6681 1.42481ZM 9.70997 3.71778C 10.1162 3.34102 10.4119 3.21235 9.96972 3.46412C 9.86539 3.52352 9.7673 3.57824 9.602 3.67098C 9.4544 3.75378 9.26075 3.86271 9.05467 3.98224C 8.64393 4.22045 8.08319 4.5581 7.47434 4.98831L 19.0158 21.3222C 18.943 21.3736 18.9377 21.3706 19.0887 21.2831C 19.3811 21.1135 19.3334 21.1473 19.865 20.8447C 20.5457 20.4571 21.9378 19.6546 23.3098 18.3821L 9.70997 3.71778ZM 7.47434 4.98831C 7.67401 4.84722 7.7191 4.84787 7.53348 4.93008C 7.36849 5.00315 7.11692 5.09799 6.79898 5.1898C 6.48405 5.28075 6.16993 5.34967 5.89322 5.39322C 5.7581 5.41448 5.64678 5.42734 5.5622 5.43456C 5.47623 5.44191 5.43474 5.44199 5.43687 5.44199L 5.43687 25.442C 7.82371 25.442 10.2535 25.0094 12.3478 24.4046C 14.3812 23.8175 16.8508 22.8519 19.0158 21.3222L 7.47434 4.98831ZM 5.43687 5.44199C 4.56008 5.44199 4.23108 5.44332 3.95653 5.42824C 3.67408 5.41273 4.14137 5.40379 4.90635 5.65812C 5.8089 5.95818 7.31705 6.6922 8.54992 8.30686C 9.75686 9.88755 10.0207 11.4246 10.0701 12.1314L -9.88126 13.5257C -9.73755 15.582 -9.12038 18.1205 -7.34609 20.4443C -5.54585 22.802 -3.25632 24.0207 -1.40336 24.6367C 0.31203 25.207 1.89876 25.3454 2.85976 25.3981C 3.82867 25.4514 4.86715 25.442 5.43687 25.442L 5.43687 5.44199ZM 10.0701 12.1314C 10.0507 11.8544 10.0137 11.4406 10.0091 11.3847C 9.99584 11.2257 9.99728 11.2143 9.9987 11.2615C 10.0002 11.3107 10.0054 11.5197 9.97656 11.8302C 9.94787 12.1395 9.87644 12.6535 9.67784 13.2853C 9.23365 14.6985 8.20564 16.4735 6.2748 17.7147C 4.53299 18.8344 2.99543 18.9084 2.56016 18.9084L 2.56016 -1.09161C 0.593341 -1.09161 -2.03176 -0.721459 -4.54001 0.890911C -7.23727 2.62479 -8.71061 5.08897 -9.4019 7.28837C -10.018 9.24853 -10.0185 10.9894 -9.99229 11.8619C -9.97765 12.3493 -9.94416 12.7775 -9.92188 13.0449C -9.89102 13.4154 -9.889 13.4149 -9.88126 13.5257L 10.0701 12.1314Z"/>
<path id="path7_stroke" d="M 4.17799 19.6912C 4.68801 20.3441 5.63067 20.4598 6.28349 19.9498C 6.93631 19.4398 7.05208 18.4971 6.54206 17.8443L 4.17799 19.6912ZM 18.239 4.0277L 16.8683 4.63691L 16.8683 4.63691L 18.239 4.0277ZM 20.0171 14.5521C 20.2791 15.338 21.1285 15.7627 21.9145 15.5008C 22.7004 15.2388 23.1251 14.3893 22.8631 13.6034L 20.0171 14.5521ZM 6.54206 17.8443C 3.60516 14.0851 1.5 11.5518 1.5 7.37772L -1.5 7.37772C -1.5 12.759 1.37716 16.1062 4.17799 19.6912L 6.54206 17.8443ZM 1.5 7.37772C 1.5 3.79218 4.32141 1.50768 8.04004 1.50768L 8.04004 -1.49232C 3.09954 -1.49232 -1.5 1.73148 -1.5 7.37772L 1.5 7.37772ZM 8.04004 1.50768C 10.3177 1.50768 12.1141 1.42884 13.6455 1.82398C 15.0068 2.17523 16.0933 2.89334 16.8683 4.63691L 19.6097 3.41849C 18.4336 0.772371 16.5706 -0.519531 14.3951 -1.08087C 12.3897 -1.59832 10.0621 -1.49232 8.04004 -1.49232L 8.04004 1.50768ZM 16.8683 4.63691C 17.5248 6.11412 18.0209 7.70012 18.5014 9.38288C 18.9733 11.0352 19.4412 12.8244 20.0171 14.5521L 22.8631 13.6034C 22.3148 11.9584 21.8832 10.2999 21.3861 8.5591C 20.8977 6.8487 20.3553 5.09604 19.6097 3.41849L 16.8683 4.63691Z"/>
<path id="path8_stroke" d="M -1.5 15.4464C -1.5 16.2748 -0.828427 16.9464 0 16.9464C 0.828427 16.9464 1.5 16.2748 1.5 15.4464L -1.5 15.4464ZM 4.69002 2.56744L 3.89503 1.29544L 3.89503 1.29544L 4.69002 2.56744ZM 15.4101 1.6741L 14.1077 2.41831L 15.4101 1.6741ZM 17.569 3.90745L 18.6839 2.904L 18.6839 2.904L 17.569 3.90745ZM 18.4251 6.06635L 17.4881 7.23765L 17.4881 7.23765L 18.4251 6.06635ZM 18.3879 13.1014L 19.5719 14.0223L 19.5719 14.0223L 18.3879 13.1014ZM 10.0484 20.8056C 9.67793 21.5466 9.97827 22.4476 10.7192 22.8181C 11.4602 23.1886 12.3612 22.8882 12.7317 22.1472L 10.0484 20.8056ZM 1.5 15.4464C 1.5 13.7574 1.78145 11.228 2.47269 8.88632C 3.18655 6.46794 4.22784 4.62518 5.48502 3.83944L 3.89503 1.29544C 1.65631 2.69464 0.352598 5.47188 -0.40458 8.037C -1.18438 10.6788 -1.5 13.4964 -1.5 15.4464L 1.5 15.4464ZM 5.48502 3.83944C 6.07093 3.47325 6.50914 3.09827 6.86421 2.76926C 7.25961 2.40288 7.42678 2.22141 7.67682 2.01768C 7.98675 1.76516 8.34245 1.53632 9.38005 1.53632L 9.38005 -1.46368C 7.69494 -1.46368 6.65938 -1.02306 5.78185 -0.308065C 5.43816 -0.0280355 5.06255 0.348769 4.82516 0.568741C 4.54745 0.826079 4.26287 1.06554 3.89503 1.29544L 5.48502 3.83944ZM 9.38005 1.53632C 10.5837 1.53632 11.5325 1.43414 12.5077 1.56756C 13.3909 1.6884 13.8468 1.96166 14.1077 2.41831L 16.7124 0.929895C 15.7943 -0.676934 14.2459 -1.22257 12.9143 -1.40475C 11.6746 -1.57436 10.198 -1.46368 9.38005 -1.46368L 9.38005 1.53632ZM 14.1077 2.41831C 14.4309 2.98382 15.0029 3.53277 15.3934 3.89965C 15.8795 4.35632 16.2252 4.65662 16.454 4.9109L 18.6839 2.904C 18.343 2.52517 17.802 2.04619 17.4475 1.71316C 16.9974 1.29035 16.7749 1.03918 16.7124 0.929895L 14.1077 2.41831ZM 16.454 4.9109C 16.3967 4.84715 16.4216 4.78158 16.5007 5.27882C 16.5495 5.58498 16.6573 6.57302 17.4881 7.23765L 19.3621 4.89505C 19.5691 5.06063 19.5409 5.29366 19.4635 4.80737C 19.4165 4.51214 19.3253 3.61665 18.6839 2.904L 16.454 4.9109ZM 17.4881 7.23765C 17.2492 7.04658 17.2251 6.86497 17.2756 7.01333C 17.3079 7.10818 17.3497 7.28104 17.3865 7.54369C 17.4595 8.06286 17.4894 8.75546 17.4735 9.49089C 17.4576 10.222 17.3977 10.9429 17.3089 11.5101C 17.2643 11.7953 17.2165 12.0152 17.1726 12.1662C 17.1159 12.3616 17.1032 12.3098 17.2038 12.1805L 19.5719 14.0223C 19.8367 13.6818 19.9751 13.2732 20.0536 13.003C 20.1449 12.6886 20.2165 12.3343 20.2729 11.9737C 20.3862 11.2495 20.4546 10.3925 20.4728 9.55584C 20.4908 8.72349 20.4602 7.85839 20.3574 7.12641C 20.3064 6.76348 20.2315 6.3874 20.1157 6.047C 20.0181 5.7601 19.8145 5.25693 19.3621 4.89505L 17.4881 7.23765ZM 17.2038 12.1805C 16.1127 13.5834 14.8713 14.7609 13.5501 16.1434C 12.2714 17.4814 10.9678 18.9669 10.0484 20.8056L 12.7317 22.1472C 13.4411 20.7285 14.4828 19.5096 15.719 18.2161C 16.9127 16.967 18.3559 15.5857 19.5719 14.0223L 17.2038 12.1805Z"/>
<path id="path9_fill" d="M 9 10C 9 15.5228 6.98528 20 4.5 20C 2.01472 20 0 15.5228 0 10C 0 4.47715 2.01472 0 4.5 0C 6.98528 0 9 4.47715 9 10Z"/>
<path id="path10_stroke" d="M 0.923742 0.956992C 0.712209 0.446823 0.127154 0.204731 -0.383015 0.416265C -0.893184 0.627798 -1.13528 1.21285 -0.923742 1.72302L 0.923742 0.956992ZM 9.71505 6.66281L 9.49812 5.68662L 9.71505 6.66281ZM 15.1873 0.894427C 15.6813 0.647438 15.8815 0.0467649 15.6345 -0.447214C 15.3875 -0.941192 14.7868 -1.14142 14.2929 -0.894427L 15.1873 0.894427ZM -0.923742 1.72302C 0.0763095 4.13491 1.34216 5.98407 3.16864 7.03462C 5.01333 8.09564 7.24271 8.23661 9.93198 7.639L 9.49812 5.68662C 7.08781 6.22225 5.4224 6.0237 4.16582 5.30094C 2.89103 4.56771 1.84915 3.18885 0.923742 0.956992L -0.923742 1.72302ZM 9.93198 7.639C 11.1018 7.37905 11.9347 6.80661 12.5357 6.06422C 13.1129 5.35113 13.4456 4.51707 13.6968 3.78878C 13.9689 2.99989 14.1303 2.40003 14.3883 1.84847C 14.628 1.33615 14.8757 1.0502 15.1873 0.894427L 14.2929 -0.894427C 13.4154 -0.455684 12.9124 0.283615 12.5768 1.00096C 12.2595 1.67907 12.0211 2.51331 11.8061 3.13663C 11.5702 3.82055 11.3284 4.37681 10.9811 4.80587C 10.6576 5.20561 10.2159 5.52712 9.49812 5.68662L 9.93198 7.639Z"/>
<path id="path11_fill" d="M 4 2C 4 3.10457 3.10457 4 2 4C 0.895431 4 0 3.10457 0 2C 0 0.895431 0.895431 0 2 0C 3.10457 0 4 0.895431 4 2Z"/>
</defs>
</svg>
