<svg width="58" height="46" viewBox="0 0 58 46" version="1.1" xmlns="http://www.w3.org/2000/svg" xmlns:xlink="http://www.w3.org/1999/xlink">
<title>Vector 5</title>
<desc>Created using Figma</desc>
<g id="Canvas" transform="translate(16163 1962)">
<g id="Vector 5">
<use xlink:href="#path0_stroke" transform="translate(-16160.1 -1958.82)" fill="#FA3E98"/>
</g>
</g>
<defs>
<path id="path0_stroke" d="M 3.12662 42.1345C 4.30546 42.8533 5.84382 42.4804 6.56263 41.3015C 7.28144 40.1227 6.9085 38.5843 5.72966 37.8655L 3.12662 42.1345ZM 1.25785 35.2909L -1.09309 36.1413L 1.25785 35.2909ZM 0.340133 27.9121L 2.638 28.8969L 0.340133 27.9121ZM 9.51728 27.2447L 11.4522 25.6616L 11.4522 25.6616L 9.51728 27.2447ZM 10.7316 29.4509L 8.87021 31.1198L 8.87021 31.1198L 10.7316 29.4509ZM 11.6772 31.0731L 13.6505 29.5383L 13.6505 29.5383L 11.6772 31.0731ZM 17.5264 37.8309L 18.5418 35.5463L 18.5418 35.5463L 17.5264 37.8309ZM 23.7094 36.6629L 21.8919 34.9463L 23.7094 36.6629ZM 24.9516 31.1936L 27.4496 31.0937L 24.9516 31.1936ZM 22.1984 26.8183L 23.7602 24.8661L 22.1984 26.8183ZM 20.4094 24.9458L 21.3068 22.6124L 21.3068 22.6124L 20.4094 24.9458ZM 18.3607 23.5646L 19.7837 21.5091L 19.7837 21.5091L 18.3607 23.5646ZM 16.2657 21.8126L 18.1639 20.1856L 16.2657 21.8126ZM 14.6064 14.4338L 16.6866 15.8205L 16.6866 15.8205L 14.6064 14.4338ZM 16.1081 12.4315L 14.894 10.2461L 16.1081 12.4315ZM 18.4349 11.4581L 18.2431 8.9655L 18.4349 11.4581ZM 22.56 11.3005L 22.6003 8.80087L 22.56 11.3005ZM 28.0292 14.5543L 29.9376 12.9394L 29.9376 12.9394L 28.0292 14.5543ZM 30.5413 19.2263L 32.8006 18.1561L 30.5413 19.2263ZM 31.459 21.1451L 29.5068 22.7069L 31.459 21.1451ZM 31.9596 22.2204L 34.1828 21.0771L 34.1828 21.0771L 31.9596 22.2204ZM 32.7939 23.3143L 30.6115 24.5338L 30.6115 24.5338L 32.7939 23.3143ZM 38.8007 25.6503L 40.4616 27.5188L 38.8007 25.6503ZM 40.9328 22.48L 38.4993 21.9074L 40.9328 22.48ZM 40.5713 18.9204L 42.715 17.6341L 42.715 17.6341L 40.5713 18.9204ZM 39.8019 17.8821L 41.9725 16.6418L 39.8019 17.8821ZM 36.8355 15.1012L 38.6351 13.3658L 36.8355 15.1012ZM 35.5563 11.6343L 37.7924 10.5162L 35.5563 11.6343ZM 34.8796 10.4663L 37.2339 9.62542L 37.2339 9.62542L 34.8796 10.4663ZM 34.4624 7.14766L 36.9622 7.11388L 34.4624 7.14766ZM 34.5459 1.86384L 32.1937 1.01704L 34.5459 1.86384ZM 41.4704 1.15933L 43.0853 -0.749132L 41.4704 1.15933ZM 45.8087 10.6238L 48.1204 9.67197L 45.8087 10.6238ZM 48.5155 15.0085L 49.5585 12.7364L 48.5155 15.0085ZM 54.3963 16.6919C 55.1622 15.5431 54.8517 13.9909 53.7029 13.225C 52.5541 12.4591 51.0019 12.7696 50.236 13.9184L 54.3963 16.6919ZM 5.72966 37.8655C 4.82858 37.3161 4.27336 36.2779 3.60879 34.4406L -1.09309 36.1413C -0.450246 37.9185 0.573187 40.5775 3.12662 42.1345L 5.72966 37.8655ZM 3.60879 34.4406C 3.24624 33.4382 2.85362 32.2793 2.64388 31.1633C 2.42072 29.9759 2.48799 29.2469 2.638 28.8969L -1.95773 26.9273C -2.70524 28.6715 -2.54647 30.6163 -2.27008 32.0869C -1.98026 33.629 -1.46527 35.1123 -1.09309 36.1413L 3.60879 34.4406ZM 2.638 28.8969C 2.92436 28.2287 3.66793 27.5576 4.59165 27.2764C 5.47527 27.0074 6.10907 27.1959 6.49809 27.5849L 10.0336 24.0494C 8.01845 22.0342 5.30556 21.8325 3.13544 22.4931C 1.00543 23.1416 -1.01176 24.7201 -1.95773 26.9273L 2.638 28.8969ZM 6.49809 27.5849C 6.85491 27.9417 7.16591 28.3188 7.58239 28.8278L 11.4522 25.6616C 11.0569 25.1784 10.5941 24.6099 10.0336 24.0494L 6.49809 27.5849ZM 7.58239 28.8278C 7.58123 28.8264 7.60438 28.8457 7.79914 29.3124C 7.95153 29.6775 8.25537 30.434 8.87021 31.1198L 12.5931 27.782C 12.6115 27.8027 12.5821 27.7909 12.4134 27.3866C 12.287 27.0838 12.0012 26.3326 11.4522 25.6616L 7.58239 28.8278ZM 8.87021 31.1198C 8.79937 31.0408 8.80242 31.0036 8.95663 31.3253C 9.0567 31.5341 9.31075 32.1027 9.70378 32.608L 13.6505 29.5383C 13.6576 29.5473 13.6408 29.53 13.4655 29.1643C 13.3444 28.9116 13.0677 28.3114 12.5931 27.782L 8.87021 31.1198ZM 9.70378 32.608C 10.1514 33.1835 10.4202 33.5469 10.6184 33.9432L 15.0905 31.7071C 14.6414 30.8088 14.0747 30.0836 13.6505 29.5383L 9.70378 32.608ZM 10.6184 33.9432C 11.8621 36.4305 13.3275 38.7005 16.5111 40.1154L 18.5418 35.5463C 16.9317 34.8307 16.1401 33.8063 15.0905 31.7071L 10.6184 33.9432ZM 16.5111 40.1154C 17.5316 40.5689 18.6084 40.5911 19.2941 40.577C 19.6646 40.5694 20.0329 40.5456 20.3189 40.5283C 20.631 40.5093 20.8493 40.4977 21.0304 40.4977L 21.0304 35.4977C 20.6742 35.4977 20.3083 35.5197 20.0157 35.5375C 19.697 35.5568 19.4401 35.573 19.1915 35.5781C 18.6387 35.5894 18.5009 35.5282 18.5418 35.5463L 16.5111 40.1154ZM 21.0304 40.4977C 23.0519 40.4977 24.5405 39.4239 25.527 38.3794L 21.8919 34.9463C 21.4054 35.4614 21.1407 35.4977 21.0304 35.4977L 21.0304 40.4977ZM 25.527 38.3794C 27.76 36.015 27.5177 32.7956 27.4496 31.0937L 22.4536 31.2936C 22.5407 33.4709 22.4393 34.3666 21.8919 34.9463L 25.527 38.3794ZM 27.4496 31.0937C 27.3912 29.6346 26.6955 28.3078 26.0596 27.3739C 25.3881 26.3878 24.5459 25.4947 23.7602 24.8661L 20.6367 28.7704C 21.0276 29.0832 21.5312 29.6072 21.9267 30.188C 22.1199 30.4718 22.261 30.7309 22.3506 30.9474C 22.3944 31.0535 22.4212 31.138 22.4366 31.2006C 22.4442 31.2313 22.4485 31.2546 22.4509 31.2706C 22.4533 31.2866 22.4536 31.2941 22.4536 31.2936L 27.4496 31.0937ZM 23.7602 24.8661C 23.8115 24.9072 23.8039 24.9143 23.7224 24.8094C 23.6108 24.6657 23.5706 24.5983 23.3695 24.3224C 23.1057 23.9606 22.4535 23.0534 21.3068 22.6124L 19.5119 27.2791C 19.3124 27.2024 19.204 27.1017 19.1873 27.0855C 19.1825 27.0808 19.2178 27.1152 19.3292 27.2681C 19.3929 27.3553 19.6099 27.6656 19.773 27.8757C 19.9662 28.1246 20.2507 28.4616 20.6367 28.7704L 23.7602 24.8661ZM 21.3068 22.6124C 21.3228 22.6186 21.2886 22.6067 21.1942 22.5485C 21.1027 22.4921 20.9893 22.414 20.844 22.3062C 20.6941 22.1949 20.5516 22.0834 20.3681 21.9418C 20.2004 21.8125 19.9945 21.655 19.7837 21.5091L 16.9377 25.62C 17.2271 25.8204 17.3429 25.9344 17.8644 26.3214C 18.2378 26.5985 18.8272 27.0158 19.5119 27.2791L 21.3068 22.6124ZM 19.7837 21.5091C 19.0063 20.9708 18.5328 20.616 18.1639 20.1856L 14.3676 23.4395C 15.208 24.42 16.1878 25.1009 16.9377 25.62L 19.7837 21.5091ZM 18.1639 20.1856C 17.2189 19.0831 16.6059 17.4966 16.6059 16.1394L 11.6059 16.1394C 11.6059 18.7867 12.7111 21.507 14.3676 23.4395L 18.1639 20.1856ZM 16.6059 16.1394C 16.6059 15.9729 16.6101 15.8962 16.6133 15.8612C 16.6154 15.8376 16.614 15.8692 16.5974 15.9267C 16.5618 16.0506 16.5174 16.0743 16.6866 15.8205L 12.5263 13.047C 12.2658 13.4378 11.9711 13.9233 11.7926 14.5434C 11.6187 15.1474 11.6059 15.7082 11.6059 16.1394L 16.6059 16.1394ZM 16.6866 15.8205C 16.8412 15.5885 16.9855 15.3387 17.087 15.1635C 17.2033 14.9629 17.2877 14.8175 17.3726 14.6851C 17.4567 14.5539 17.5058 14.4925 17.5243 14.4718C 17.5456 14.4479 17.4818 14.5282 17.3223 14.6169L 14.894 10.2461C 13.9857 10.7507 13.4332 11.5657 13.1637 11.9859C 13.0065 12.2311 12.8635 12.4796 12.7612 12.6561C 12.6442 12.858 12.5787 12.9685 12.5263 13.047L 16.6866 15.8205ZM 17.3223 14.6169C 17.5905 14.4678 17.8259 14.3224 17.9865 14.2245C 18.1644 14.1162 18.2541 14.0641 18.3281 14.0265C 18.3877 13.9964 18.4182 13.9859 18.4403 13.9795C 18.4633 13.9728 18.5178 13.9591 18.6266 13.9508L 18.2431 8.9655C 16.4752 9.10149 15.3294 10.0042 14.894 10.2461L 17.3223 14.6169ZM 18.6266 13.9508C 19.9714 13.8473 21.2394 13.7796 22.5196 13.8002L 22.6003 8.80087C 21.0958 8.77661 19.6527 8.85707 18.2431 8.9655L 18.6266 13.9508ZM 22.5196 13.8002C 23.6875 13.8191 24.7697 14.5725 26.1207 16.1691L 29.9376 12.9394C 28.4545 11.1867 26.1048 8.8574 22.6003 8.80087L 22.5196 13.8002ZM 26.1207 16.1691C 27.0078 17.2176 27.367 18.365 28.282 20.2965L 32.8006 18.1561C 32.1985 16.8849 31.3856 14.6506 29.9376 12.9394L 26.1207 16.1691ZM 28.282 20.2965C 28.4013 20.5485 28.4243 20.6545 28.6406 21.1758C 28.8013 21.5634 29.0651 22.1547 29.5068 22.7069L 33.4112 19.5834C 33.4236 19.599 33.3759 19.5419 33.2589 19.2598C 33.1991 19.1157 33.1531 18.9945 33.0725 18.7912C 33.0016 18.6127 32.9102 18.3873 32.8006 18.1561L 28.282 20.2965ZM 29.5068 22.7069C 29.4201 22.5984 29.3795 22.5174 29.3741 22.5068C 29.3685 22.4956 29.3761 22.5092 29.4036 22.5793C 29.4169 22.6132 29.4306 22.649 29.4501 22.7C 29.4678 22.7465 29.4912 22.8077 29.516 22.8706C 29.564 22.992 29.6377 23.172 29.7364 23.3638L 34.1828 21.0771C 34.196 21.1028 34.1928 21.1007 34.1663 21.0336C 34.1539 21.0022 34.1407 20.9676 34.1217 20.9178C 34.1044 20.8725 34.0812 20.8116 34.0568 20.7496C 33.978 20.5491 33.782 20.0469 33.4112 19.5834L 29.5068 22.7069ZM 29.7364 23.3638C 30.0187 23.9127 30.3784 24.2976 30.5263 24.4599C 30.7177 24.67 30.6595 24.6197 30.6115 24.5338L 34.9762 22.0947C 34.6928 21.5876 34.3318 21.2126 34.222 21.0922C 34.0689 20.9241 34.1292 20.9727 34.1828 21.0771L 29.7364 23.3638ZM 30.6115 24.5338C 31.0196 25.2641 31.6427 25.9081 32.2362 26.4086C 32.8595 26.9342 33.6053 27.4319 34.4004 27.8186C 35.1785 28.1971 36.126 28.5288 37.1296 28.5941C 38.1573 28.6608 39.4154 28.4488 40.4616 27.5188L 37.1398 23.7818C 37.3741 23.5735 37.5772 23.6126 37.4538 23.6046C 37.3062 23.595 37.0062 23.526 36.5874 23.3223C 36.1857 23.1269 35.7853 22.861 35.4596 22.5863C 35.1041 22.2866 34.9756 22.0936 34.9762 22.0947L 30.6115 24.5338ZM 40.4616 27.5188C 41.58 26.5247 42.8675 25.1728 43.3663 23.0526L 38.4993 21.9074C 38.3562 22.5155 38.0045 23.0132 37.1398 23.7818L 40.4616 27.5188ZM 43.3663 23.0526C 43.7042 21.6167 43.76 19.3757 42.715 17.6341L 38.4275 20.2066C 38.5475 20.4065 38.676 21.1564 38.4993 21.9074L 43.3663 23.0526ZM 42.715 17.6341C 42.4904 17.2597 42.2205 16.9418 42.1091 16.8066C 41.9469 16.6099 41.951 16.6042 41.9725 16.6418L 37.6313 19.1225C 37.8569 19.5173 38.1351 19.8464 38.2512 19.9873C 38.4182 20.1898 38.431 20.2123 38.4275 20.2066L 42.715 17.6341ZM 41.9725 16.6418C 41.4214 15.6774 40.5362 14.9375 39.9898 14.4929C 39.2732 13.9095 38.912 13.6529 38.6351 13.3658L 35.0359 16.8365C 35.5916 17.4128 36.4213 18.0352 36.8335 18.3707C 37.0925 18.5815 37.2889 18.7525 37.4382 18.9024C 37.5923 19.0569 37.6347 19.1285 37.6313 19.1225L 41.9725 16.6418ZM 38.6351 13.3658C 38.7498 13.4848 38.7551 13.5491 38.7048 13.4261C 38.6563 13.3075 38.6002 13.1273 38.5249 12.8321C 38.4702 12.6176 38.3596 12.1472 38.2722 11.8269C 38.1732 11.4645 38.0268 10.9851 37.7924 10.5162L 33.3202 12.7523C 33.3336 12.779 33.3778 12.8841 33.4488 13.144C 33.5312 13.4459 33.5698 13.6355 33.6798 14.0672C 33.8266 14.6431 34.1408 15.9083 35.0359 16.8365L 38.6351 13.3658ZM 37.7924 10.5162C 37.6869 10.3053 37.5776 10.126 37.4909 9.99068C 37.4163 9.87424 37.3157 9.72574 37.2812 9.67382C 37.1669 9.50154 37.1993 9.52849 37.2339 9.62542L 32.5252 11.3071C 32.7113 11.8281 32.98 12.2348 33.1151 12.4384C 33.2053 12.5745 33.2328 12.6129 33.2805 12.6875C 33.3162 12.7432 33.3236 12.759 33.3202 12.7523L 37.7924 10.5162ZM 37.2339 9.62542C 37.0214 9.03022 36.9779 8.27189 36.9622 7.11388L 31.9627 7.18144C 31.9768 8.2267 31.9904 9.80963 32.5252 11.3071L 37.2339 9.62542ZM 36.9622 7.11388C 36.955 6.58062 36.912 6.05777 36.8713 5.60522C 36.8281 5.1247 36.7891 4.73684 36.7665 4.34162C 36.7216 3.55337 36.77 3.06645 36.8981 2.71064L 32.1937 1.01704C 31.7222 2.32673 31.7172 3.61993 31.7746 4.62633C 31.8033 5.12844 31.8544 5.64153 31.8914 6.05307C 31.9309 6.49259 31.9582 6.85291 31.9627 7.18144L 36.9622 7.11388ZM 36.8981 2.71064C 36.9021 2.69963 36.9003 2.70677 36.8932 2.71462C 36.889 2.71924 36.9034 2.70094 36.9589 2.67088C 37.0853 2.60239 37.3516 2.51466 37.7728 2.50162C 38.1834 2.4889 38.6352 2.55156 39.0471 2.67768C 39.4724 2.80793 39.7398 2.96981 39.8556 3.0678L 43.0853 -0.749132C 41.6392 -1.97276 39.4895 -2.55396 37.618 -2.49599C 35.7745 -2.43889 33.1607 -1.66913 32.1937 1.01704L 36.8981 2.71064ZM 39.8556 3.0678C 40.8158 3.88032 41.3669 4.91811 41.848 6.35856C 42.0987 7.10913 42.2981 7.86155 42.5579 8.77114C 42.8063 9.64063 43.0977 10.606 43.497 11.5757L 48.1204 9.67197C 47.8326 8.97295 47.6032 8.22974 47.3656 7.39779C 47.1394 6.60595 46.8876 5.6641 46.5905 4.77456C 45.976 2.93479 45.045 0.909058 43.0853 -0.749132L 39.8556 3.0678ZM 43.497 11.5757C 43.6279 11.8936 43.7388 12.226 43.901 12.6928C 44.0496 13.1208 44.2385 13.652 44.4863 14.1788C 44.9983 15.2674 45.8548 16.5379 47.4726 17.2806L 49.5585 12.7364C 49.4121 12.6692 49.2459 12.5505 49.0109 12.0508C 48.8851 11.7834 48.7694 11.4706 48.6242 11.0524C 48.4925 10.6731 48.3202 10.1571 48.1204 9.67197L 43.497 11.5757ZM 47.4726 17.2806C 47.9654 17.5067 48.9591 17.9237 50.0063 18.1292C 50.5223 18.2305 51.2179 18.3153 51.9433 18.2036C 52.6966 18.0877 53.7158 17.7126 54.3963 16.6919L 50.236 13.9184C 50.5856 13.3941 51.0709 13.279 51.1829 13.2618C 51.2671 13.2488 51.2139 13.2709 50.9692 13.2228C 50.4949 13.1298 49.9193 12.902 49.5585 12.7364L 47.4726 17.2806Z"/>
</defs>
</svg>
