<svg width="51" height="39" viewBox="0 0 51 39" version="1.1" xmlns="http://www.w3.org/2000/svg" xmlns:xlink="http://www.w3.org/1999/xlink">
<title>Vector 5</title>
<desc>Created using Figma</desc>
<g id="Canvas" transform="translate(16162 1960)">
<g id="Vector 5">
<use xlink:href="#path0_stroke" transform="translate(-16160.1 -1958.82)" fill="#FA3E98"/>
</g>
</g>
<defs>
<path id="path0_stroke" d="M 3.47514 36.9479C 3.94668 37.2355 4.56202 37.0863 4.84954 36.6147C 5.13706 36.1432 4.98789 35.5279 4.51635 35.2403L 3.47514 36.9479ZM 1.13502 31.8449L 0.194647 32.185L 0.194648 32.185L 1.13502 31.8449ZM 0.306921 25.1866L 1.22607 25.5805L 0.306921 25.1866ZM 8.58795 24.5843L 9.36191 23.9511L 8.58795 24.5843ZM 9.68373 26.5751L 8.93916 27.2427L 9.68373 26.5751ZM 10.5369 28.0389L 11.3263 27.425L 10.5369 28.0389ZM 15.815 34.1368L 16.2212 33.223L 15.815 34.1368ZM 21.3943 33.0828L 20.6673 32.3962L 21.3943 33.0828ZM 22.5151 28.1477L 23.5143 28.1077L 22.5151 28.1477ZM 20.0308 24.1996L 20.6555 23.4187L 20.0308 24.1996ZM 18.4165 22.5099L 18.7754 21.5765L 18.4165 22.5099ZM 16.5679 21.2636L 17.1371 20.4414L 16.5679 21.2636ZM 14.6774 19.6826L 15.4367 19.0318L 14.6774 19.6826ZM 13.1802 13.0243L 14.0122 13.579L 13.1802 13.0243ZM 14.5352 11.2176L 14.0496 10.3434L 14.5352 11.2176ZM 16.6348 10.3393L 16.5581 9.34223L 16.6348 10.3393ZM 20.3571 10.1971L 20.3732 9.19722L 20.3571 10.1971ZM 25.2922 13.1331L 26.0556 12.4871L 25.2922 13.1331ZM 27.559 17.3489L 28.4628 16.9208L 27.559 17.3489ZM 28.3871 19.0804L 27.6063 19.7051L 28.3871 19.0804ZM 28.8388 20.0507L 29.7281 19.5933L 28.8388 20.0507ZM 29.5917 21.0377L 28.7187 21.5255L 29.5917 21.0377ZM 35.012 23.1456L 35.6763 23.893L 35.012 23.1456ZM 36.9358 20.2849L 35.9624 20.0559L 36.9358 20.2849ZM 36.6096 17.0729L 37.4671 16.5584L 36.6096 17.0729ZM 35.9154 16.136L 36.7836 15.6399L 35.9154 16.136ZM 33.2387 13.6266L 33.9585 12.9325L 33.2387 13.6266ZM 32.0843 10.4982L 32.9788 10.051L 32.0843 10.4982ZM 31.4737 9.44427L 32.4155 9.10793L 31.4737 9.44427ZM 31.0973 6.44971L 32.0972 6.4362L 31.0973 6.44971ZM 31.1726 1.68184L 30.2317 1.34312L 31.1726 1.68184ZM 37.421 1.04613L 38.0669 0.282743L 37.421 1.04613ZM 41.3357 9.58647L 42.2603 9.20572L 41.3357 9.58647ZM 43.7782 13.543L 44.1953 12.6341L 43.7782 13.543ZM 48.0397 14.3653C 48.3461 13.9058 48.2219 13.2849 47.7624 12.9786C 47.3028 12.6722 46.682 12.7964 46.3756 13.2559L 48.0397 14.3653ZM 4.51635 35.2403C 3.28823 34.4915 2.66962 33.1476 2.0754 31.5047L 0.194648 32.185C 0.780179 33.8038 1.58607 35.7961 3.47514 36.9479L 4.51635 35.2403ZM 2.0754 31.5047C 1.74583 30.5936 1.36081 29.4663 1.15144 28.3523C 0.936701 27.2097 0.94063 26.2465 1.22607 25.5805L -0.612224 24.7927C -1.13666 26.0164 -1.05017 27.4658 -0.814143 28.7217C -0.572738 30.0062 -0.138771 31.2632 0.194647 32.185L 2.0754 31.5047ZM 1.22607 25.5805C 1.65014 24.591 2.64101 23.7575 3.77753 23.4115C 4.898 23.0704 5.99213 23.2438 6.75161 24.0033L 8.16583 22.5891C 6.75589 21.1791 4.83011 21.0004 3.19504 21.4982C 1.57601 21.9911 0.0756969 23.1875 -0.612224 24.7927L 1.22607 25.5805ZM 6.75161 24.0033C 7.12476 24.3764 7.4435 24.7647 7.814 25.2176L 9.36191 23.9511C 8.99989 23.5086 8.62045 23.0437 8.16583 22.5891L 6.75161 24.0033ZM 7.814 25.2176C 7.95114 25.3852 8.03801 25.5865 8.19657 25.9664C 8.33819 26.3057 8.54343 26.8013 8.93916 27.2427L 10.4283 25.9076C 10.2859 25.7488 10.1904 25.551 10.0423 25.1961C 9.91107 24.8817 9.71912 24.3877 9.36191 23.9511L 7.814 25.2176ZM 8.93916 27.2427C 9.01225 27.3242 9.08373 27.4507 9.21457 27.7237C 9.32376 27.9515 9.49341 28.3261 9.74757 28.6529L 11.3263 27.425C 11.2321 27.304 11.1574 27.1499 11.0181 26.8593C 10.9005 26.614 10.7196 26.2325 10.4283 25.9076L 8.93916 27.2427ZM 9.74757 28.6529C 10.1456 29.1646 10.463 29.5834 10.7048 30.0671L 12.4937 29.1727C 12.1514 28.4882 11.7149 27.9247 11.3263 27.425L 9.74757 28.6529ZM 10.7048 30.0671C 11.7783 32.2141 12.9314 33.9495 15.4089 35.0506L 16.2212 33.223C 14.3731 32.4016 13.4895 31.1644 12.4937 29.1727L 10.7048 30.0671ZM 15.4089 35.0506C 16.0632 35.3414 16.799 35.3712 17.3843 35.3592C 17.6881 35.353 17.9924 35.3334 18.2587 35.3172C 18.5354 35.3004 18.7694 35.2874 18.9769 35.2874L 18.9769 33.2874C 18.6994 33.2874 18.4063 33.3046 18.1374 33.3209C 17.858 33.3379 17.5982 33.3544 17.3433 33.3596C 16.8111 33.3705 16.4509 33.3251 16.2212 33.223L 15.4089 35.0506ZM 18.9769 35.2874C 20.3209 35.2874 21.3567 34.579 22.1213 33.7695L 20.6673 32.3962C 20.1027 32.994 19.5564 33.2874 18.9769 33.2874L 18.9769 35.2874ZM 22.1213 33.7695C 23.7129 32.0842 23.5805 29.7629 23.5143 28.1077L 21.5159 28.1877C 21.5898 30.033 21.5846 31.4249 20.6673 32.3962L 22.1213 33.7695ZM 23.5143 28.1077C 23.4755 27.137 22.9992 26.175 22.4769 25.4078C 21.9403 24.6197 21.2654 23.9066 20.6555 23.4187L 19.4061 24.9804C 19.8581 25.342 20.3975 25.9075 20.8237 26.5334C 21.2642 27.1803 21.4991 27.7677 21.5159 28.1877L 23.5143 28.1077ZM 20.6555 23.4187C 20.4893 23.2857 20.3719 23.0977 20.0727 22.6873C 19.8342 22.3601 19.4327 21.8293 18.7754 21.5765L 18.0575 23.4432C 18.1136 23.4648 18.2173 23.5373 18.4566 23.8655C 18.6353 24.1106 18.9684 24.6303 19.4061 24.9804L 20.6555 23.4187ZM 18.7754 21.5765C 18.5981 21.5084 18.3657 21.3632 18.0603 21.1366C 17.8141 20.9539 17.419 20.6366 17.1371 20.4414L 15.9986 22.0857C 16.2678 22.2721 16.4844 22.4577 16.8684 22.7427C 17.1932 22.9837 17.6095 23.271 18.0575 23.4432L 18.7754 21.5765ZM 17.1371 20.4414C 16.4424 19.9605 15.888 19.5584 15.4367 19.0318L 13.9182 20.3334C 14.5581 21.08 15.315 21.6125 15.9986 22.0857L 17.1371 20.4414ZM 15.4367 19.0318C 14.4053 17.8286 13.7285 16.1122 13.7285 14.5634L 11.7285 14.5634C 11.7285 16.6282 12.6022 18.7981 13.9182 20.3334L 15.4367 19.0318ZM 13.7285 14.5634C 13.7285 14.2268 13.7464 14.1056 13.7699 14.0241C 13.7915 13.949 13.8366 13.8424 14.0122 13.579L 12.3481 12.4696C 12.136 12.7878 11.9553 13.0981 11.848 13.4708C 11.7425 13.837 11.7285 14.1946 11.7285 14.5634L 13.7285 14.5634ZM 14.0122 13.579C 14.1261 13.4083 14.2365 13.2178 14.332 13.053C 14.4334 12.8781 14.5242 12.721 14.6191 12.5732C 14.8267 12.2493 14.9599 12.1256 15.0209 12.0917L 14.0496 10.3434C 13.5226 10.6362 13.165 11.1357 12.9355 11.4935C 12.8118 11.6864 12.6975 11.8848 12.6016 12.0501C 12.4999 12.2255 12.4211 12.3602 12.3481 12.4696L 14.0122 13.579ZM 15.0209 12.0917C 15.9649 11.5673 16.047 11.3875 16.7115 11.3363L 16.5581 9.34223C 15.3218 9.43733 14.6551 10.007 14.0496 10.3434L 15.0209 12.0917ZM 16.7115 11.3363C 17.9412 11.2417 19.1293 11.1774 20.3409 11.197L 20.3732 9.19722C 19.0719 9.17623 17.8138 9.24564 16.5581 9.34223L 16.7115 11.3363ZM 20.3409 11.197C 21.9817 11.2234 23.2766 12.2991 24.5288 13.779L 26.0556 12.4871C 24.7505 10.9448 22.9486 9.23876 20.3732 9.19722L 20.3409 11.197ZM 24.5288 13.779C 25.4702 14.8916 25.9083 16.1999 26.6553 17.777L 28.4628 16.9208C 27.8409 15.6079 27.2213 13.8648 26.0556 12.4871L 24.5288 13.779ZM 26.6553 17.777C 26.7771 18.0341 26.8476 18.2501 27.0039 18.6268C 27.138 18.9501 27.3217 19.3494 27.6063 19.7051L 29.168 18.4557C 29.0652 18.3271 28.9678 18.1415 28.8512 17.8604C 28.7568 17.6329 28.607 17.2253 28.4628 16.9208L 26.6553 17.777ZM 27.6063 19.7051C 27.6055 19.7042 27.6345 19.7452 27.7012 19.9149C 27.716 19.9526 27.7308 19.9912 27.7478 20.0358C 27.7641 20.0785 27.7826 20.1271 27.8019 20.1759C 27.8398 20.2719 27.8886 20.3896 27.9496 20.508L 29.7281 19.5933C 29.6816 19.503 29.6536 19.4147 29.5625 19.183C 29.4931 19.0065 29.3733 18.7122 29.168 18.4557L 27.6063 19.7051ZM 27.9496 20.508C 28.1199 20.8393 28.339 21.0777 28.4738 21.2256C 28.626 21.3926 28.6788 21.4541 28.7187 21.5255L 30.4646 20.5499C 30.2921 20.2412 30.0716 20.0097 29.9521 19.8785C 29.8152 19.7283 29.7641 19.6633 29.7281 19.5933L 27.9496 20.508ZM 28.7187 21.5255C 28.9843 22.0008 29.4223 22.4686 29.8981 22.8698C 30.3857 23.2811 30.972 23.6719 31.5907 23.9728C 32.2025 24.2704 32.8948 24.5038 33.5854 24.5487C 34.2857 24.5942 35.0539 24.4463 35.6763 23.893L 34.3476 22.3982C 34.2374 22.4962 34.0536 22.5749 33.7151 22.5529C 33.3669 22.5303 32.9336 22.402 32.4655 22.1743C 32.0042 21.9499 31.5561 21.6518 31.1874 21.3409C 30.8069 21.02 30.5667 20.7326 30.4646 20.5499L 28.7187 21.5255ZM 35.6763 23.893C 36.6218 23.0526 37.5485 22.0473 37.9093 20.5139L 35.9624 20.0559C 35.744 20.9844 35.1916 21.648 34.3476 22.3982L 35.6763 23.893ZM 37.9093 20.5139C 38.1737 19.3903 38.1777 17.7426 37.4671 16.5584L 35.7521 17.5873C 36.0927 18.155 36.1624 19.2061 35.9624 20.0559L 37.9093 20.5139ZM 37.4671 16.5584C 37.3217 16.316 37.1428 16.1033 37.0283 15.9644C 36.8935 15.801 36.8263 15.7146 36.7836 15.6399L 35.0471 16.6321C 35.1886 16.8798 35.3688 17.0956 35.4851 17.2367C 35.6218 17.4025 35.6979 17.497 35.7521 17.5873L 37.4671 16.5584ZM 36.7836 15.6399C 36.4163 14.9971 35.7942 14.4604 35.2922 14.0517C 34.7219 13.5876 34.2784 13.2642 33.9585 12.9325L 32.5188 14.3207C 32.9502 14.7681 33.5812 15.2378 34.0296 15.6028C 34.5462 16.0233 34.8868 16.3517 35.0471 16.6321L 36.7836 15.6399ZM 33.9585 12.9325C 33.8314 12.8007 33.702 12.5007 33.5461 11.8893C 33.4221 11.4029 33.2656 10.6247 32.9788 10.051L 31.1899 10.9454C 31.3502 11.2661 31.4348 11.7035 31.6081 12.3834C 31.7496 12.9384 31.9737 13.7554 32.5188 14.3207L 33.9585 12.9325ZM 32.9788 10.051C 32.8514 9.79634 32.6841 9.55881 32.5944 9.42361C 32.486 9.26029 32.4396 9.17567 32.4155 9.10793L 30.532 9.7806C 30.6444 10.0955 30.8112 10.3536 30.9279 10.5295C 31.0633 10.7335 31.133 10.8316 31.1899 10.9454L 32.9788 10.051ZM 32.4155 9.10793C 32.1427 8.34422 32.111 7.45282 32.0972 6.4362L 30.0974 6.46322C 30.1105 7.43474 30.1303 8.65598 30.532 9.7806L 32.4155 9.10793ZM 32.0972 6.4362C 32.0914 6.00644 32.0565 5.57547 32.0201 5.17038C 31.9827 4.75411 31.9444 4.37266 31.9226 3.98919C 31.8789 3.22312 31.9116 2.58122 32.1135 2.02056L 30.2317 1.34312C 29.8925 2.28533 29.8771 3.24974 29.9258 4.10307C 29.9501 4.5293 29.9932 4.96084 30.0281 5.34952C 30.0641 5.74939 30.0927 6.11536 30.0974 6.46322L 32.0972 6.4362ZM 32.1135 2.02056C 32.3228 1.43909 32.9622 1.03561 34.0455 1.00206C 35.1176 0.968853 36.2142 1.33497 36.7751 1.80952L 38.0669 0.282743C 37.049 -0.57855 35.4345 -1.04192 33.9836 -0.996981C 32.5439 -0.952389 30.8485 -0.370089 30.2317 1.34312L 32.1135 2.02056ZM 36.7751 1.80952C 37.8926 2.75511 38.4852 3.93971 38.9529 5.3398C 39.1907 6.05199 39.3838 6.77852 39.6098 7.56972C 39.8313 8.34487 40.0787 9.16018 40.411 9.96722L 42.2603 9.20572C 41.9726 8.50696 41.75 7.78052 41.5329 7.02038C 41.3204 6.27628 41.1063 5.47397 40.8499 4.7062C 40.3289 3.14638 39.5842 1.5666 38.0669 0.282743L 36.7751 1.80952ZM 40.411 9.96722C 40.5464 10.2961 40.6619 10.6421 40.8005 11.0414C 40.9338 11.4251 41.0859 11.8496 41.2788 12.2598C 41.6713 13.0942 42.2707 13.9513 43.361 14.4518L 44.1953 12.6341C 43.6937 12.4039 43.3703 12.0074 43.0886 11.4086C 42.9445 11.1021 42.8218 10.765 42.6898 10.3852C 42.5633 10.021 42.4233 9.60147 42.2603 9.20572L 40.411 9.96722ZM 43.361 14.4518C 43.7725 14.6407 44.5642 14.9694 45.3652 15.1266C 45.7627 15.2046 46.229 15.2543 46.6802 15.1848C 47.1426 15.1137 47.6844 14.8983 48.0397 14.3653L 46.3756 13.2559C 46.4323 13.1709 46.4924 13.1902 46.3761 13.2081C 46.2487 13.2277 46.0393 13.2208 45.7503 13.164C 45.1785 13.0518 44.554 12.7988 44.1953 12.6341L 43.361 14.4518Z"/>
</defs>
</svg>
