<svg width="97" height="68" viewBox="0 0 97 68" version="1.1" xmlns="http://www.w3.org/2000/svg" xmlns:xlink="http://www.w3.org/1999/xlink">
<title>Vector 5</title>
<desc>Created using Figma</desc>
<g id="Canvas" transform="translate(16319 2188)">
<g id="Vector 5">
<use xlink:href="#path0_stroke" transform="translate(-16315.5 -2184.58)" fill="#9B51E0"/>
</g>
</g>
<defs>
<path id="path0_stroke" d="M -1.77717 57.5644C -3.11202 58.5459 -3.39846 60.4236 -2.41695 61.7585C -1.43545 63.0933 0.442325 63.3798 1.77717 62.3983L -1.77717 57.5644ZM 10.8179 47.4248L 8.2869 45.8142L 10.8179 47.4248ZM 13.4741 41.6778L 10.8593 40.2071L 10.8593 40.2071L 13.4741 41.6778ZM 14.9712 34.7718L 17.7126 35.9902L 14.9712 34.7718ZM 1.73859 22.7948L 4.73653 22.9059L 1.73859 22.7948ZM 17.8205 60.8023L 18.2767 57.8372L 17.8205 60.8023ZM 44.7687 44.2857L 42.1539 42.8149L 44.7687 44.2857ZM 47.8112 18.2552L 44.8295 18.5865L 47.8112 18.2552ZM 33.5161 5.26406L 32.692 2.37949L 33.5161 5.26406ZM 73.0207 38.249L 75.2565 40.2493L 75.2565 40.2493L 73.0207 38.249ZM 90.4066 46.4647C 92.0635 46.4647 93.4066 45.1216 93.4066 43.4647C 93.4066 41.8079 92.0635 40.4647 90.4066 40.4647L 90.4066 46.4647ZM 1.77717 62.3983C 7.46133 58.2187 9.9146 54.4322 13.3489 49.0355L 8.2869 45.8142C 4.90927 51.1219 2.95083 54.0879 -1.77717 57.5644L 1.77717 62.3983ZM 13.3489 49.0355C 14.0873 47.8751 14.5807 46.66 14.9693 45.6854C 15.3883 44.6347 15.6879 43.8613 16.0888 43.1486L 10.8593 40.2071C 10.2183 41.3467 9.75977 42.5511 9.39612 43.463C 9.00212 44.451 8.68839 45.1833 8.2869 45.8142L 13.3489 49.0355ZM 16.0888 43.1486C 17.1062 41.3398 17.2585 39.5874 17.3461 38.3837C 17.4433 37.0489 17.4784 36.5171 17.7126 35.9902L 12.2297 33.5534C 11.4776 35.2457 11.4325 36.9787 11.362 37.948C 11.2818 39.0484 11.1786 39.6394 10.8593 40.2071L 16.0888 43.1486ZM 17.7126 35.9902C 19.2826 32.4576 19.0481 27.2796 17.6131 23.134C 16.2047 19.065 13.0016 14.3859 7.389 14.3859L 7.389 20.3859C 9.04425 20.3859 10.7958 21.7817 11.9432 25.0966C 13.0642 28.335 12.9868 31.8499 12.2297 33.5534L 17.7126 35.9902ZM 7.389 14.3859C 6.28819 14.3859 5.17876 14.4139 4.18524 14.5852C 3.16325 14.7614 2.01422 15.1281 1.02459 15.9933C 0.0185925 16.8729 -0.513707 17.9954 -0.811319 19.1025C -1.09798 20.1689 -1.21136 21.3879 -1.25936 22.6838L 4.73653 22.9059C 4.77933 21.7504 4.87343 21.0676 4.98296 20.6602C 5.08155 20.2934 5.13417 20.3702 4.97386 20.5103C 4.82991 20.6362 4.78732 20.5699 5.20459 20.498C 5.65031 20.4211 6.31293 20.3859 7.389 20.3859L 7.389 14.3859ZM -1.25936 22.6838C -1.44123 27.5945 -1.26141 32.6884 -1.26141 37.3797L 4.73859 37.3797C 4.73859 32.3745 4.55946 27.6869 4.73653 22.9059L -1.25936 22.6838ZM -1.26141 37.3797C -1.26141 42.6063 0.347708 48.6077 3.37219 53.5667C 6.39591 58.5244 11.0765 62.8001 17.3644 63.7674L 18.2767 57.8372C 14.3082 57.2267 10.9478 54.4647 8.49464 50.4425C 6.04224 46.4216 4.73859 41.5006 4.73859 37.3797L -1.26141 37.3797ZM 17.3644 63.7674C 23.9093 64.7743 30.1038 62.6134 35.2219 59.1339C 40.3361 55.657 44.5829 50.7352 47.3834 45.7565L 42.1539 42.8149C 39.7579 47.0745 36.1164 51.2704 31.8486 54.172C 27.5847 57.0708 22.9035 58.549 18.2767 57.8372L 17.3644 63.7674ZM 47.3834 45.7565C 52.4176 36.8069 51.7464 26.5062 50.7928 17.9239L 44.8295 18.5865C 45.7886 27.2178 46.1469 35.7163 42.1539 42.8149L 47.3834 45.7565ZM 50.7928 17.9239C 50.3744 14.1581 48.1075 9.83997 45.1067 6.72731C 42.152 3.66236 37.6491 0.96316 32.692 2.37949L 34.3403 8.14863C 36.1318 7.63679 38.4465 8.46369 40.7872 10.8916C 43.0818 13.2718 44.5881 16.4134 44.8295 18.5865L 50.7928 17.9239ZM 32.692 2.37949C 31.2752 2.78428 30.4205 3.80887 29.9407 4.61484C 29.4519 5.43585 29.1426 6.37 28.9302 7.23251C 28.5022 8.971 28.3133 11.0801 28.2295 13.0713C 28.0654 16.9738 28.2946 21.4787 28.2946 22.6017L 34.2946 22.6017C 34.2946 20.8653 34.0633 17.1504 34.2242 13.3234C 34.303 11.4498 34.4731 9.81676 34.7562 8.66704C 34.8994 8.08544 35.0338 7.78897 35.0961 7.68427C 35.1674 7.56453 34.9714 7.96832 34.3403 8.14863L 32.692 2.37949ZM 28.2946 22.6017C 28.2946 26.5387 29.4954 30.4551 30.9656 34.0049C 32.4297 37.5401 34.3064 41.0321 35.7589 43.9371L 41.1254 41.2538C 39.5616 38.1263 37.8646 34.9823 36.509 31.7091C 35.1595 28.4506 34.2946 25.3864 34.2946 22.6017L 28.2946 22.6017ZM 35.7589 43.9371C 37.8142 48.0478 41.8186 49.8975 45.4877 50.7677C 49.1789 51.6431 53.1644 51.6805 56.0212 51.6805L 56.0212 45.6805C 53.126 45.6805 49.7957 45.6229 46.8723 44.9296C 43.9267 44.231 42.0177 43.0383 41.1254 41.2538L 35.7589 43.9371ZM 56.0212 51.6805C 56.4609 51.6805 57.0924 51.73 58.0016 51.8028C 58.8488 51.8706 59.8701 51.9517 60.8866 51.975C 61.8892 51.9979 63.0214 51.9695 64.0886 51.7728C 65.0979 51.5868 66.4574 51.1799 67.5116 50.1257L 63.2689 45.883C 63.4787 45.6733 63.5392 45.773 63.0013 45.8722C 62.5214 45.9606 61.8583 45.9956 61.024 45.9765C 60.2036 45.9577 59.3466 45.8912 58.4802 45.8219C 57.6758 45.7575 56.7587 45.6805 56.0212 45.6805L 56.0212 51.6805ZM 67.5116 50.1257C 69.1769 48.4603 70.5203 46.6066 71.7137 44.9231C 72.9491 43.1804 74.0108 41.6415 75.2565 40.2493L 70.785 36.2486C 69.2589 37.9542 67.9724 39.826 66.8189 41.4532C 65.6234 43.1395 64.5374 44.6146 63.2689 45.883L 67.5116 50.1257ZM 75.2565 40.2493C 82.3024 32.3745 82.9751 22.5587 82.9751 13.5224L 76.9751 13.5224C 76.9751 22.4914 76.1977 30.1991 70.785 36.2486L 75.2565 40.2493ZM 82.9751 13.5224C 82.9751 9.85666 81.0059 5.81916 78.5195 2.81221C 76.0758 -0.143098 72.3768 -3 68.2396 -3L 68.2396 3C 69.7028 3 71.8716 4.18796 73.8955 6.63567C 75.8768 9.03175 76.9751 11.7554 76.9751 13.5224L 82.9751 13.5224ZM 68.2396 -3C 65.3992 -3 63.186 -1.80798 61.7903 0.275037C 60.5442 2.13486 60.1361 4.4312 60.0024 6.43569C 59.8648 8.49924 59.9974 10.6877 60.1445 12.5863C 60.3003 14.5965 60.4585 16.168 60.4585 17.3859L 66.4585 17.3859C 66.4585 15.8603 66.2633 13.8869 66.1266 12.1228C 65.9813 10.2471 65.8826 8.43208 65.9891 6.83503C 66.0996 5.1789 66.4112 4.15757 66.7749 3.61486C 66.989 3.29535 67.2756 3 68.2396 3L 68.2396 -3ZM 60.4585 17.3859C 60.4585 25.1844 63.9373 34.2774 69.5955 39.9356L 73.8381 35.693C 69.3849 31.2398 66.4585 23.7096 66.4585 17.3859L 60.4585 17.3859ZM 69.5955 39.9356C 76.0841 46.4243 83.1538 46.4647 90.4066 46.4647L 90.4066 40.4647C 83.0762 40.4647 78.408 40.2628 73.8381 35.693L 69.5955 39.9356Z"/>
</defs>
</svg>
