<svg width="93" height="64" viewBox="0 0 93 64" version="1.1" xmlns="http://www.w3.org/2000/svg" xmlns:xlink="http://www.w3.org/1999/xlink">
<title>Vector 5</title>
<desc>Created using Figma</desc>
<g id="Canvas" transform="translate(16317 2186)">
<g id="Vector 5">
<use xlink:href="#path0_stroke" transform="translate(-16315.5 -2184.58)" fill="#9B51E0"/>
</g>
</g>
<defs>
<path id="path0_stroke" d="M -0.59239 59.1757C -1.03734 59.5028 -1.13282 60.1288 -0.805651 60.5737C -0.478483 61.0187 0.147442 61.1141 0.59239 60.787L -0.59239 59.1757ZM 10.8179 47.4248L 9.97423 46.888L 10.8179 47.4248ZM 13.4741 41.6778L 12.6025 41.1876L 13.4741 41.6778ZM 14.9712 34.7718L 15.885 35.1779L 14.9712 34.7718ZM 1.73859 22.7948L 2.7379 22.8318L 1.73859 22.7948ZM 17.8205 60.8023L 17.9726 59.8139L 17.8205 60.8023ZM 44.7687 44.2857L 43.8971 43.7955L 44.7687 44.2857ZM 47.8112 18.2552L 46.8173 18.3656L 47.8112 18.2552ZM 33.5161 5.26406L 33.2414 4.30254L 33.5161 5.26406ZM 73.0207 38.249L 73.766 38.9157L 73.0207 38.249ZM 90.4066 44.4647C 90.9589 44.4647 91.4066 44.017 91.4066 43.4647C 91.4066 42.9124 90.9589 42.4647 90.4066 42.4647L 90.4066 44.4647ZM 0.59239 60.787C 5.95783 56.8418 8.24616 53.3288 11.6615 47.9617L 9.97423 46.888C 6.57771 52.2253 4.45433 55.4648 -0.59239 59.1757L 0.59239 60.787ZM 11.6615 47.9617C 12.2876 46.9778 12.7212 45.9237 13.1116 44.9446C 13.5121 43.9402 13.8647 43.0231 14.3456 42.1681L 12.6025 41.1876C 12.0415 42.1849 11.636 43.2456 11.2539 44.2038C 10.8616 45.1874 10.488 46.0806 9.97423 46.888L 11.6615 47.9617ZM 14.3456 42.1681C 15.1304 40.773 15.2662 39.4078 15.3514 38.2385C 15.4397 37.0255 15.4782 36.0933 15.885 35.1779L 14.0574 34.3656C 13.4779 35.6695 13.4361 37.0021 13.3567 38.0932C 13.274 39.2281 13.1545 40.2062 12.6025 41.1876L 14.3456 42.1681ZM 15.885 35.1779C 17.184 32.2551 17.0535 27.6314 15.7232 23.7882C 14.4017 19.9706 11.6825 16.3859 7.389 16.3859L 7.389 18.3859C 10.3634 18.3859 12.5987 20.8762 13.8332 24.4424C 15.0588 27.9832 15.0854 32.0525 14.0574 34.3656L 15.885 35.1779ZM 7.389 16.3859C 6.29643 16.3859 5.33594 16.4163 4.52502 16.5561C 3.70461 16.6976 2.95278 16.9641 2.34101 17.499C 1.72379 18.0386 1.35138 18.7614 1.12011 19.6217C 0.892488 20.4684 0.785537 21.5087 0.739274 22.7578L 2.7379 22.8318C 2.78243 21.6296 2.88296 20.768 3.05154 20.1409C 3.21646 19.5274 3.42898 19.2044 3.65744 19.0047C 3.89135 18.8001 4.24597 18.6337 4.8648 18.5271C 5.49313 18.4187 6.30468 18.3859 7.389 18.3859L 7.389 16.3859ZM 0.739274 22.7578C 0.558997 27.6253 0.738589 32.5838 0.738589 37.3797L 2.73859 37.3797C 2.73859 32.4791 2.55923 27.6561 2.7379 22.8318L 0.739274 22.7578ZM 0.738589 37.3797C 0.738589 42.2378 2.24589 47.879 5.07967 52.5253C 7.9132 57.1712 12.1537 60.9423 17.6685 61.7907L 17.9726 59.8139C 13.231 59.0845 9.4305 55.818 6.78715 51.4839C 4.14406 47.1503 2.73859 41.8692 2.73859 37.3797L 0.738589 37.3797ZM 17.6685 61.7907C 23.574 62.6992 29.2641 60.7659 34.0975 57.4799C 38.9296 54.1948 42.9745 49.515 45.6402 44.776L 43.8971 43.7955C 41.3662 48.2948 37.523 52.7326 32.973 55.8259C 28.4244 58.9183 23.2387 60.6241 17.9726 59.8139L 17.6685 61.7907ZM 45.6402 44.776C 50.3273 36.4434 49.7605 26.7434 48.8051 18.1448L 46.8173 18.3656C 47.7745 26.9806 48.2371 36.0798 43.8971 43.7955L 45.6402 44.776ZM 48.8051 18.1448C 48.4456 14.9098 46.4323 10.9839 43.6669 8.11541C 40.9168 5.2628 37.1433 3.1877 33.2414 4.30254L 33.7909 6.22558C 36.6375 5.41224 39.6817 6.86324 42.227 9.50351C 44.757 12.1279 46.5169 15.6616 46.8173 18.3656L 48.8051 18.1448ZM 33.2414 4.30254C 32.5073 4.51229 32.0028 5.06076 31.6592 5.63798C 31.3125 6.22022 31.0615 6.94181 30.8722 7.71069C 30.4925 9.25292 30.3099 11.2034 30.2278 13.1553C 30.0647 17.0327 30.2946 21.2742 30.2946 22.6017L 32.2946 22.6017C 32.2946 21.0698 32.064 17.0915 32.226 13.2394C 32.3064 11.3266 32.4828 9.53484 32.8142 8.18886C 32.9805 7.51363 33.1731 7.0046 33.3776 6.66113C 33.5851 6.31264 33.7393 6.2403 33.7909 6.22558L 33.2414 4.30254ZM 30.2946 22.6017C 30.2946 26.1546 31.3834 29.787 32.8134 33.2397C 34.2413 36.6875 36.0581 40.0635 37.5477 43.0426L 39.3366 42.1482C 37.8099 39.0949 36.053 35.8349 34.6612 32.4744C 33.2714 29.1188 32.2946 25.7705 32.2946 22.6017L 30.2946 22.6017ZM 37.5477 43.0426C 39.2153 46.3779 42.5213 48.0087 45.9492 48.8217C 49.3845 49.6364 53.1516 49.6805 56.0212 49.6805L 56.0212 47.6805C 53.1388 47.6805 49.5901 47.6297 46.4108 46.8756C 43.224 46.1199 40.6165 44.7081 39.3366 42.1482L 37.5477 43.0426ZM 56.0212 49.6805C 56.5602 49.6805 57.2869 49.7392 58.1611 49.8092C 59.0147 49.8774 59.9813 49.9537 60.9324 49.9755C 61.8789 49.9972 62.8547 49.9665 63.7262 49.8059C 64.5783 49.6489 65.4645 49.3443 66.0974 48.7115L 64.6832 47.2973C 64.4716 47.5088 64.0588 47.711 63.3637 47.839C 62.6881 47.9636 61.8686 47.9964 60.9782 47.976C 60.0925 47.9557 59.1806 47.8843 58.3206 47.8155C 57.4813 47.7484 56.6594 47.6805 56.0212 47.6805L 56.0212 49.6805ZM 66.0974 48.7115C 67.6304 47.1784 68.888 45.4509 70.0821 43.7665C 71.2902 42.0623 72.4269 40.4124 73.766 38.9157L 72.2755 37.5822C 70.8429 39.1833 69.6313 40.9442 68.4505 42.6098C 67.2557 44.2952 66.0839 45.8965 64.6832 47.2973L 66.0974 48.7115ZM 73.766 38.9157C 80.2675 31.6494 80.9751 22.5363 80.9751 13.5224L 78.9751 13.5224C 78.9751 22.5138 78.2326 30.9242 72.2755 37.5822L 73.766 38.9157ZM 80.9751 13.5224C 80.9751 10.4896 79.2962 6.89002 76.9782 4.0867C 74.6744 1.30059 71.4855 -1 68.2396 -1L 68.2396 1C 70.5941 1 73.273 2.74427 75.4368 5.36119C 77.5865 7.96088 78.9751 11.1225 78.9751 13.5224L 80.9751 13.5224ZM 68.2396 -1C 66.0247 -1 64.4537 -0.106868 63.4519 1.38831C 62.4999 2.8091 62.1239 4.68044 61.998 6.5688C 61.8707 8.47686 61.992 10.5409 62.1385 12.4318C 62.2879 14.36 62.4585 16.0655 62.4585 17.3859L 64.4585 17.3859C 64.4585 15.9629 64.2756 14.1234 64.1326 12.2773C 63.9867 10.394 63.8766 8.45447 63.9935 6.70191C 64.1118 4.92967 64.4556 3.48333 65.1134 2.50159C 65.7213 1.59424 66.6502 1 68.2396 1L 68.2396 -1ZM 62.4585 17.3859C 62.4585 24.6928 65.7532 33.2649 71.0097 38.5214L 72.4239 37.1072C 67.5691 32.2524 64.4585 24.2012 64.4585 17.3859L 62.4585 17.3859ZM 71.0097 38.5214C 76.8587 44.3705 83.1279 44.4647 90.4066 44.4647L 90.4066 42.4647C 83.102 42.4647 77.6333 42.3166 72.4239 37.1072L 71.0097 38.5214Z"/>
</defs>
</svg>
