<svg width="167" height="211" viewBox="0 0 167 211" version="1.1" xmlns="http://www.w3.org/2000/svg" xmlns:xlink="http://www.w3.org/1999/xlink">
<title>Frame 3</title>
<desc>Created using Figma</desc>
<g id="Canvas" transform="translate(15987 2259)">
<clipPath id="clip-0" clip-rule="evenodd">
<path d="M -15987 -2259L -15820 -2259L -15820 -2048L -15987 -2048L -15987 -2259Z" fill="#FFFFFF"/>
</clipPath>
<g id="Frame 3" clip-path="url(#clip-0)">
<g id="Group 2">
<g id="Vector 5">
<use xlink:href="#path0_stroke" transform="translate(-15926.2 -2154)" fill="#FF4A4A"/>
</g>
<g id="Vector 6">
<use xlink:href="#path1_stroke" transform="translate(-15906.3 -2149.15)" fill="#FF4A4A"/>
</g>
<g id="Vector 7">
<use xlink:href="#path2_stroke" transform="translate(-15884.5 -2154)" fill="#FF4A4A"/>
</g>
<g id="Vector 8">
<use xlink:href="#path3_stroke" transform="translate(-15948 -2132.64)" fill="#FF4A4A"/>
</g>
<g id="Vector 9">
<use xlink:href="#path4_stroke" transform="translate(-15938.5 -2112.25)" fill="#FF4A4A"/>
</g>
</g>
</g>
</g>
<defs>
<path id="path0_stroke" d="M 3 0C 3 -1.65685 1.65685 -3 0 -3C -1.65685 -3 -3 -1.65685 -3 0L 3 0ZM -2.05155 61.1739C -2.05155 62.8308 -0.708403 64.1739 0.948451 64.1739C 2.60531 64.1739 3.94845 62.8308 3.94845 61.1739L -2.05155 61.1739ZM -3 0C -3 10.2596 -2.76194 20.486 -2.52496 30.6681C -2.28771 40.8617 -2.05155 51.0109 -2.05155 61.1739L 3.94845 61.1739C 3.94845 50.9294 3.71039 40.7105 3.47341 30.5285C 3.23617 20.3349 3 10.1782 3 0L -3 0Z"/>
<path id="path1_stroke" d="M 3.00035 0C 3.00035 -1.65685 1.6572 -3 0.000345411 -3C -1.65651 -3 -2.99965 -1.65685 -2.99965 0L 3.00035 0ZM 2.10801 37.6538L -0.843645 38.1902L 2.10801 37.6538ZM 1.88999 60.1607C 2.40294 61.7361 4.09592 62.5974 5.67137 62.0845C 7.24683 61.5715 8.10816 59.8786 7.59521 58.3031L 1.88999 60.1607ZM -2.99965 0C -2.99965 12.1543 -3.08739 25.8431 -0.843645 38.1902L 5.05967 37.1174C 2.9322 25.4102 3.00035 12.3091 3.00035 0L -2.99965 0ZM -0.843645 38.1902C -0.250988 41.4515 -0.143631 44.921 0.094592 48.7513C 0.324927 52.4548 0.679146 56.4417 1.88999 60.1607L 7.59521 58.3031C 6.64115 55.3728 6.31186 52.0583 6.08302 48.3789C 5.86207 44.8263 5.73459 40.8314 5.05967 37.1174L -0.843645 38.1902Z"/>
<path id="path2_stroke" d="M 3 1.36048e-12C 3 -1.65685 1.65685 -3 1.36048e-12 -3C -1.65685 -3 -3 -1.65685 -3 -1.36048e-12L 3 1.36048e-12ZM 9.48451 70C 11.1414 70 12.4845 68.6569 12.4845 67C 12.4845 65.3431 11.1414 64 9.48451 64L 9.48451 70ZM -3 -1.36048e-12C -3 7.03545 -1.4953 13.8122 -0.0837608 20.1897C 1.35208 26.6771 2.69071 32.75 2.69071 38.8945L 8.69071 38.8945C 8.69071 31.9815 7.18398 25.2615 5.77447 18.8931C 4.34065 12.4149 3 6.27316 3 1.36048e-12L -3 -1.36048e-12ZM 2.69071 38.8945C 2.69071 40.8534 2.7888 47.9659 3.32026 54.6218C 3.5844 57.9298 3.96472 61.2503 4.52569 63.7932C 4.80042 65.0386 5.1582 66.2887 5.66197 67.2937C 5.91286 67.7942 6.27972 68.398 6.82454 68.9109C 7.39838 69.4511 8.29947 70 9.48451 70L 9.48451 64C 10.2439 64 10.743 64.3593 10.937 64.542C 11.1021 64.6973 11.1114 64.7758 11.0258 64.605C 10.8566 64.2674 10.6254 63.5911 10.3848 62.5007C 9.91523 60.372 9.55991 57.384 9.30122 54.1443C 8.78703 47.7046 8.69071 40.7644 8.69071 38.8945L 2.69071 38.8945Z"/>
<path id="path3_stroke" d="M 0 -3C -1.65685 -3 -3 -1.65685 -3 0C -3 1.65685 -1.65685 3 0 3L 0 -3ZM 91.9997 3.97101C 93.6566 3.97101 94.9997 2.62787 94.9997 0.971014C 94.9997 -0.68584 93.6566 -2.02899 91.9997 -2.02899L 91.9997 3.97101ZM 0 3C 15.244 3 30.6675 3.24232 46.0771 3.48513C 61.4783 3.72782 76.8664 3.97101 91.9997 3.97101L 91.9997 -2.02899C 76.9218 -2.02899 61.5816 -2.2713 46.1716 -2.51412C 30.77 -2.75681 15.2992 -3 0 -3L 0 3Z"/>
<path id="path4_stroke" d="M 0 -3C -1.65685 -3 -3 -1.65685 -3 0C -3 1.65685 -1.65685 3 0 3L 0 -3ZM 82.5152 4.94203C 84.1721 4.94203 85.5152 3.59888 85.5152 1.94203C 85.5152 0.285175 84.1721 -1.05797 82.5152 -1.05797L 82.5152 4.94203ZM 0 3C 12.0102 3 24.0211 3.48268 36.1096 3.96859C 48.1781 4.4537 60.3239 4.94203 72.5038 4.94203L 72.5038 -1.05797C 60.4644 -1.05797 48.4389 -1.54066 36.3506 -2.02656C 24.2823 -2.51166 12.1509 -3 0 -3L 0 3ZM 72.5038 4.94203C 72.5103 4.94203 72.5168 4.94203 72.5234 4.94203C 72.5299 4.94203 72.5364 4.94203 72.5429 4.94203C 72.5494 4.94203 72.5559 4.94203 72.5625 4.94203C 72.569 4.94203 72.5755 4.94203 72.582 4.94203C 72.5885 4.94203 72.5951 4.94203 72.6016 4.94203C 72.6081 4.94203 72.6146 4.94203 72.6211 4.94203C 72.6276 4.94203 72.6342 4.94203 72.6407 4.94203C 72.6472 4.94203 72.6537 4.94203 72.6602 4.94203C 72.6668 4.94203 72.6733 4.94203 72.6798 4.94203C 72.6863 4.94203 72.6928 4.94203 72.6993 4.94203C 72.7059 4.94203 72.7124 4.94203 72.7189 4.94203C 72.7254 4.94203 72.7319 4.94203 72.7384 4.94203C 72.745 4.94203 72.7515 4.94203 72.758 4.94203C 72.7645 4.94203 72.771 4.94203 72.7776 4.94203C 72.7841 4.94203 72.7906 4.94203 72.7971 4.94203C 72.8036 4.94203 72.8101 4.94203 72.8167 4.94203C 72.8232 4.94203 72.8297 4.94203 72.8362 4.94203C 72.8427 4.94203 72.8493 4.94203 72.8558 4.94203C 72.8623 4.94203 72.8688 4.94203 72.8753 4.94203C 72.8818 4.94203 72.8884 4.94203 72.8949 4.94203C 72.9014 4.94203 72.9079 4.94203 72.9144 4.94203C 72.9209 4.94203 72.9275 4.94203 72.934 4.94203C 72.9405 4.94203 72.947 4.94203 72.9535 4.94203C 72.9601 4.94203 72.9666 4.94203 72.9731 4.94203C 72.9796 4.94203 72.9861 4.94203 72.9926 4.94203C 72.9992 4.94203 73.0057 4.94203 73.0122 4.94203C 73.0187 4.94203 73.0252 4.94203 73.0318 4.94203C 73.0383 4.94203 73.0448 4.94203 73.0513 4.94203C 73.0578 4.94203 73.0643 4.94203 73.0709 4.94203C 73.0774 4.94203 73.0839 4.94203 73.0904 4.94203C 73.0969 4.94203 73.1034 4.94203 73.11 4.94203C 73.1165 4.94203 73.123 4.94203 73.1295 4.94203C 73.136 4.94203 73.1426 4.94203 73.1491 4.94203C 73.1556 4.94203 73.1621 4.94203 73.1686 4.94203C 73.1751 4.94203 73.1817 4.94203 73.1882 4.94203C 73.1947 4.94203 73.2012 4.94203 73.2077 4.94203C 73.2143 4.94203 73.2208 4.94203 73.2273 4.94203C 73.2338 4.94203 73.2403 4.94203 73.2468 4.94203C 73.2534 4.94203 73.2599 4.94203 73.2664 4.94203C 73.2729 4.94203 73.2794 4.94203 73.2859 4.94203C 73.2925 4.94203 73.299 4.94203 73.3055 4.94203C 73.312 4.94203 73.3185 4.94203 73.3251 4.94203C 73.3316 4.94203 73.3381 4.94203 73.3446 4.94203C 73.3511 4.94203 73.3576 4.94203 73.3642 4.94203C 73.3707 4.94203 73.3772 4.94203 73.3837 4.94203C 73.3902 4.94203 73.3968 4.94203 73.4033 4.94203C 73.4098 4.94203 73.4163 4.94203 73.4228 4.94203C 73.4293 4.94203 73.4359 4.94203 73.4424 4.94203C 73.4489 4.94203 73.4554 4.94203 73.4619 4.94203C 73.4684 4.94203 73.475 4.94203 73.4815 4.94203C 73.488 4.94203 73.4945 4.94203 73.501 4.94203C 73.5076 4.94203 73.5141 4.94203 73.5206 4.94203C 73.5271 4.94203 73.5336 4.94203 73.5401 4.94203C 73.5467 4.94203 73.5532 4.94203 73.5597 4.94203C 73.5662 4.94203 73.5727 4.94203 73.5793 4.94203C 73.5858 4.94203 73.5923 4.94203 73.5988 4.94203C 73.6053 4.94203 73.6118 4.94203 73.6184 4.94203C 73.6249 4.94203 73.6314 4.94203 73.6379 4.94203C 73.6444 4.94203 73.6509 4.94203 73.6575 4.94203C 73.664 4.94203 73.6705 4.94203 73.677 4.94203C 73.6835 4.94203 73.6901 4.94203 73.6966 4.94203C 73.7031 4.94203 73.7096 4.94203 73.7161 4.94203C 73.7226 4.94203 73.7292 4.94203 73.7357 4.94203C 73.7422 4.94203 73.7487 4.94203 73.7552 4.94203C 73.7618 4.94203 73.7683 4.94203 73.7748 4.94203C 73.7813 4.94203 73.7878 4.94203 73.7943 4.94203C 73.8009 4.94203 73.8074 4.94203 73.8139 4.94203C 73.8204 4.94203 73.8269 4.94203 73.8334 4.94203C 73.84 4.94203 73.8465 4.94203 73.853 4.94203C 73.8595 4.94203 73.866 4.94203 73.8726 4.94203C 73.8791 4.94203 73.8856 4.94203 73.8921 4.94203C 73.8986 4.94203 73.9051 4.94203 73.9117 4.94203C 73.9182 4.94203 73.9247 4.94203 73.9312 4.94203C 73.9377 4.94203 73.9443 4.94203 73.9508 4.94203C 73.9573 4.94203 73.9638 4.94203 73.9703 4.94203C 73.9768 4.94203 73.9834 4.94203 73.9899 4.94203C 73.9964 4.94203 74.0029 4.94203 74.0094 4.94203C 74.0159 4.94203 74.0225 4.94203 74.029 4.94203C 74.0355 4.94203 74.042 4.94203 74.0485 4.94203C 74.0551 4.94203 74.0616 4.94203 74.0681 4.94203C 74.0746 4.94203 74.0811 4.94203 74.0876 4.94203C 74.0942 4.94203 74.1007 4.94203 74.1072 4.94203C 74.1137 4.94203 74.1202 4.94203 74.1268 4.94203C 74.1333 4.94203 74.1398 4.94203 74.1463 4.94203C 74.1528 4.94203 74.1593 4.94203 74.1659 4.94203C 74.1724 4.94203 74.1789 4.94203 74.1854 4.94203C 74.1919 4.94203 74.1984 4.94203 74.205 4.94203C 74.2115 4.94203 74.218 4.94203 74.2245 4.94203C 74.231 4.94203 74.2376 4.94203 74.2441 4.94203C 74.2506 4.94203 74.2571 4.94203 74.2636 4.94203C 74.2701 4.94203 74.2767 4.94203 74.2832 4.94203C 74.2897 4.94203 74.2962 4.94203 74.3027 4.94203C 74.3093 4.94203 74.3158 4.94203 74.3223 4.94203C 74.3288 4.94203 74.3353 4.94203 74.3418 4.94203C 74.3484 4.94203 74.3549 4.94203 74.3614 4.94203C 74.3679 4.94203 74.3744 4.94203 74.3809 4.94203C 74.3875 4.94203 74.394 4.94203 74.4005 4.94203C 74.407 4.94203 74.4135 4.94203 74.4201 4.94203C 74.4266 4.94203 74.4331 4.94203 74.4396 4.94203C 74.4461 4.94203 74.4526 4.94203 74.4592 4.94203C 74.4657 4.94203 74.4722 4.94203 74.4787 4.94203C 74.4852 4.94203 74.4918 4.94203 74.4983 4.94203C 74.5048 4.94203 74.5113 4.94203 74.5178 4.94203C 74.5243 4.94203 74.5309 4.94203 74.5374 4.94203C 74.5439 4.94203 74.5504 4.94203 74.5569 4.94203C 74.5634 4.94203 74.57 4.94203 74.5765 4.94203C 74.583 4.94203 74.5895 4.94203 74.596 4.94203C 74.6026 4.94203 74.6091 4.94203 74.6156 4.94203C 74.6221 4.94203 74.6286 4.94203 74.6351 4.94203C 74.6417 4.94203 74.6482 4.94203 74.6547 4.94203C 74.6612 4.94203 74.6677 4.94203 74.6743 4.94203C 74.6808 4.94203 74.6873 4.94203 74.6938 4.94203C 74.7003 4.94203 74.7068 4.94203 74.7134 4.94203C 74.7199 4.94203 74.7264 4.94203 74.7329 4.94203C 74.7394 4.94203 74.7459 4.94203 74.7525 4.94203C 74.759 4.94203 74.7655 4.94203 74.772 4.94203C 74.7785 4.94203 74.7851 4.94203 74.7916 4.94203C 74.7981 4.94203 74.8046 4.94203 74.8111 4.94203C 74.8176 4.94203 74.8242 4.94203 74.8307 4.94203C 74.8372 4.94203 74.8437 4.94203 74.8502 4.94203C 74.8568 4.94203 74.8633 4.94203 74.8698 4.94203C 74.8763 4.94203 74.8828 4.94203 74.8893 4.94203C 74.8959 4.94203 74.9024 4.94203 74.9089 4.94203C 74.9154 4.94203 74.9219 4.94203 74.9284 4.94203C 74.935 4.94203 74.9415 4.94203 74.948 4.94203C 74.9545 4.94203 74.961 4.94203 74.9676 4.94203C 74.9741 4.94203 74.9806 4.94203 74.9871 4.94203C 74.9936 4.94203 75.0001 4.94203 75.0067 4.94203C 75.0132 4.94203 75.0197 4.94203 75.0262 4.94203C 75.0327 4.94203 75.0393 4.94203 75.0458 4.94203C 75.0523 4.94203 75.0588 4.94203 75.0653 4.94203C 75.0718 4.94203 75.0784 4.94203 75.0849 4.94203C 75.0914 4.94203 75.0979 4.94203 75.1044 4.94203C 75.1109 4.94203 75.1175 4.94203 75.124 4.94203C 75.1305 4.94203 75.137 4.94203 75.1435 4.94203C 75.1501 4.94203 75.1566 4.94203 75.1631 4.94203C 75.1696 4.94203 75.1761 4.94203 75.1826 4.94203C 75.1892 4.94203 75.1957 4.94203 75.2022 4.94203C 75.2087 4.94203 75.2152 4.94203 75.2218 4.94203C 75.2283 4.94203 75.2348 4.94203 75.2413 4.94203C 75.2478 4.94203 75.2543 4.94203 75.2609 4.94203C 75.2674 4.94203 75.2739 4.94203 75.2804 4.94203C 75.2869 4.94203 75.2934 4.94203 75.3 4.94203C 75.3065 4.94203 75.313 4.94203 75.3195 4.94203C 75.326 4.94203 75.3326 4.94203 75.3391 4.94203C 75.3456 4.94203 75.3521 4.94203 75.3586 4.94203C 75.3651 4.94203 75.3717 4.94203 75.3782 4.94203C 75.3847 4.94203 75.3912 4.94203 75.3977 4.94203C 75.4043 4.94203 75.4108 4.94203 75.4173 4.94203C 75.4238 4.94203 75.4303 4.94203 75.4368 4.94203C 75.4434 4.94203 75.4499 4.94203 75.4564 4.94203C 75.4629 4.94203 75.4694 4.94203 75.4759 4.94203C 75.4825 4.94203 75.489 4.94203 75.4955 4.94203C 75.502 4.94203 75.5085 4.94203 75.5151 4.94203C 75.5216 4.94203 75.5281 4.94203 75.5346 4.94203C 75.5411 4.94203 75.5476 4.94203 75.5542 4.94203C 75.5607 4.94203 75.5672 4.94203 75.5737 4.94203C 75.5802 4.94203 75.5868 4.94203 75.5933 4.94203C 75.5998 4.94203 75.6063 4.94203 75.6128 4.94203C 75.6193 4.94203 75.6259 4.94203 75.6324 4.94203C 75.6389 4.94203 75.6454 4.94203 75.6519 4.94203C 75.6584 4.94203 75.665 4.94203 75.6715 4.94203C 75.678 4.94203 75.6845 4.94203 75.691 4.94203C 75.6976 4.94203 75.7041 4.94203 75.7106 4.94203C 75.7171 4.94203 75.7236 4.94203 75.7301 4.94203C 75.7367 4.94203 75.7432 4.94203 75.7497 4.94203C 75.7562 4.94203 75.7627 4.94203 75.7693 4.94203C 75.7758 4.94203 75.7823 4.94203 75.7888 4.94203C 75.7953 4.94203 75.8018 4.94203 75.8084 4.94203C 75.8149 4.94203 75.8214 4.94203 75.8279 4.94203C 75.8344 4.94203 75.8409 4.94203 75.8475 4.94203C 75.854 4.94203 75.8605 4.94203 75.867 4.94203C 75.8735 4.94203 75.8801 4.94203 75.8866 4.94203C 75.8931 4.94203 75.8996 4.94203 75.9061 4.94203C 75.9126 4.94203 75.9192 4.94203 75.9257 4.94203C 75.9322 4.94203 75.9387 4.94203 75.9452 4.94203C 75.9518 4.94203 75.9583 4.94203 75.9648 4.94203C 75.9713 4.94203 75.9778 4.94203 75.9843 4.94203C 75.9909 4.94203 75.9974 4.94203 76.0039 4.94203C 76.0104 4.94203 76.0169 4.94203 76.0234 4.94203C 76.03 4.94203 76.0365 4.94203 76.043 4.94203C 76.0495 4.94203 76.056 4.94203 76.0626 4.94203C 76.0691 4.94203 76.0756 4.94203 76.0821 4.94203C 76.0886 4.94203 76.0951 4.94203 76.1017 4.94203C 76.1082 4.94203 76.1147 4.94203 76.1212 4.94203C 76.1277 4.94203 76.1343 4.94203 76.1408 4.94203C 76.1473 4.94203 76.1538 4.94203 76.1603 4.94203C 76.1668 4.94203 76.1734 4.94203 76.1799 4.94203C 76.1864 4.94203 76.1929 4.94203 76.1994 4.94203C 76.2059 4.94203 76.2125 4.94203 76.219 4.94203C 76.2255 4.94203 76.232 4.94203 76.2385 4.94203C 76.2451 4.94203 76.2516 4.94203 76.2581 4.94203C 76.2646 4.94203 76.2711 4.94203 76.2776 4.94203C 76.2842 4.94203 76.2907 4.94203 76.2972 4.94203C 76.3037 4.94203 76.3102 4.94203 76.3168 4.94203C 76.3233 4.94203 76.3298 4.94203 76.3363 4.94203C 76.3428 4.94203 76.3493 4.94203 76.3559 4.94203C 76.3624 4.94203 76.3689 4.94203 76.3754 4.94203C 76.3819 4.94203 76.3884 4.94203 76.395 4.94203C 76.4015 4.94203 76.408 4.94203 76.4145 4.94203C 76.421 4.94203 76.4276 4.94203 76.4341 4.94203C 76.4406 4.94203 76.4471 4.94203 76.4536 4.94203C 76.4601 4.94203 76.4667 4.94203 76.4732 4.94203C 76.4797 4.94203 76.4862 4.94203 76.4927 4.94203C 76.4993 4.94203 76.5058 4.94203 76.5123 4.94203C 76.5188 4.94203 76.5253 4.94203 76.5318 4.94203C 76.5384 4.94203 76.5449 4.94203 76.5514 4.94203C 76.5579 4.94203 76.5644 4.94203 76.5709 4.94203C 76.5775 4.94203 76.584 4.94203 76.5905 4.94203C 76.597 4.94203 76.6035 4.94203 76.6101 4.94203C 76.6166 4.94203 76.6231 4.94203 76.6296 4.94203C 76.6361 4.94203 76.6426 4.94203 76.6492 4.94203C 76.6557 4.94203 76.6622 4.94203 76.6687 4.94203C 76.6752 4.94203 76.6818 4.94203 76.6883 4.94203C 76.6948 4.94203 76.7013 4.94203 76.7078 4.94203C 76.7143 4.94203 76.7209 4.94203 76.7274 4.94203C 76.7339 4.94203 76.7404 4.94203 76.7469 4.94203C 76.7534 4.94203 76.76 4.94203 76.7665 4.94203C 76.773 4.94203 76.7795 4.94203 76.786 4.94203C 76.7926 4.94203 76.7991 4.94203 76.8056 4.94203C 76.8121 4.94203 76.8186 4.94203 76.8251 4.94203C 76.8317 4.94203 76.8382 4.94203 76.8447 4.94203C 76.8512 4.94203 76.8577 4.94203 76.8643 4.94203C 76.8708 4.94203 76.8773 4.94203 76.8838 4.94203C 76.8903 4.94203 76.8968 4.94203 76.9034 4.94203C 76.9099 4.94203 76.9164 4.94203 76.9229 4.94203C 76.9294 4.94203 76.9359 4.94203 76.9425 4.94203C 76.949 4.94203 76.9555 4.94203 76.962 4.94203C 76.9685 4.94203 76.9751 4.94203 76.9816 4.94203C 76.9881 4.94203 76.9946 4.94203 77.0011 4.94203C 77.0076 4.94203 77.0142 4.94203 77.0207 4.94203C 77.0272 4.94203 77.0337 4.94203 77.0402 4.94203C 77.0468 4.94203 77.0533 4.94203 77.0598 4.94203C 77.0663 4.94203 77.0728 4.94203 77.0793 4.94203C 77.0859 4.94203 77.0924 4.94203 77.0989 4.94203C 77.1054 4.94203 77.1119 4.94203 77.1184 4.94203C 77.125 4.94203 77.1315 4.94203 77.138 4.94203C 77.1445 4.94203 77.151 4.94203 77.1576 4.94203C 77.1641 4.94203 77.1706 4.94203 77.1771 4.94203C 77.1836 4.94203 77.1901 4.94203 77.1967 4.94203C 77.2032 4.94203 77.2097 4.94203 77.2162 4.94203C 77.2227 4.94203 77.2293 4.94203 77.2358 4.94203C 77.2423 4.94203 77.2488 4.94203 77.2553 4.94203C 77.2618 4.94203 77.2684 4.94203 77.2749 4.94203C 77.2814 4.94203 77.2879 4.94203 77.2944 4.94203C 77.3009 4.94203 77.3075 4.94203 77.314 4.94203C 77.3205 4.94203 77.327 4.94203 77.3335 4.94203C 77.3401 4.94203 77.3466 4.94203 77.3531 4.94203C 77.3596 4.94203 77.3661 4.94203 77.3726 4.94203C 77.3792 4.94203 77.3857 4.94203 77.3922 4.94203C 77.3987 4.94203 77.4052 4.94203 77.4118 4.94203C 77.4183 4.94203 77.4248 4.94203 77.4313 4.94203C 77.4378 4.94203 77.4443 4.94203 77.4509 4.94203C 77.4574 4.94203 77.4639 4.94203 77.4704 4.94203C 77.4769 4.94203 77.4834 4.94203 77.49 4.94203C 77.4965 4.94203 77.503 4.94203 77.5095 4.94203C 77.516 4.94203 77.5226 4.94203 77.5291 4.94203C 77.5356 4.94203 77.5421 4.94203 77.5486 4.94203C 77.5551 4.94203 77.5617 4.94203 77.5682 4.94203C 77.5747 4.94203 77.5812 4.94203 77.5877 4.94203C 77.5943 4.94203 77.6008 4.94203 77.6073 4.94203C 77.6138 4.94203 77.6203 4.94203 77.6268 4.94203C 77.6334 4.94203 77.6399 4.94203 77.6464 4.94203C 77.6529 4.94203 77.6594 4.94203 77.6659 4.94203C 77.6725 4.94203 77.679 4.94203 77.6855 4.94203C 77.692 4.94203 77.6985 4.94203 77.7051 4.94203C 77.7116 4.94203 77.7181 4.94203 77.7246 4.94203C 77.7311 4.94203 77.7376 4.94203 77.7442 4.94203C 77.7507 4.94203 77.7572 4.94203 77.7637 4.94203C 77.7702 4.94203 77.7768 4.94203 77.7833 4.94203C 77.7898 4.94203 77.7963 4.94203 77.8028 4.94203C 77.8093 4.94203 77.8159 4.94203 77.8224 4.94203C 77.8289 4.94203 77.8354 4.94203 77.8419 4.94203C 77.8484 4.94203 77.855 4.94203 77.8615 4.94203C 77.868 4.94203 77.8745 4.94203 77.881 4.94203C 77.8876 4.94203 77.8941 4.94203 77.9006 4.94203C 77.9071 4.94203 77.9136 4.94203 77.9201 4.94203C 77.9267 4.94203 77.9332 4.94203 77.9397 4.94203C 77.9462 4.94203 77.9527 4.94203 77.9593 4.94203C 77.9658 4.94203 77.9723 4.94203 77.9788 4.94203C 77.9853 4.94203 77.9918 4.94203 77.9984 4.94203C 78.0049 4.94203 78.0114 4.94203 78.0179 4.94203C 78.0244 4.94203 78.0309 4.94203 78.0375 4.94203C 78.044 4.94203 78.0505 4.94203 78.057 4.94203C 78.0635 4.94203 78.0701 4.94203 78.0766 4.94203C 78.0831 4.94203 78.0896 4.94203 78.0961 4.94203C 78.1026 4.94203 78.1092 4.94203 78.1157 4.94203C 78.1222 4.94203 78.1287 4.94203 78.1352 4.94203C 78.1418 4.94203 78.1483 4.94203 78.1548 4.94203C 78.1613 4.94203 78.1678 4.94203 78.1743 4.94203C 78.1809 4.94203 78.1874 4.94203 78.1939 4.94203C 78.2004 4.94203 78.2069 4.94203 78.2134 4.94203C 78.22 4.94203 78.2265 4.94203 78.233 4.94203C 78.2395 4.94203 78.246 4.94203 78.2526 4.94203C 78.2591 4.94203 78.2656 4.94203 78.2721 4.94203C 78.2786 4.94203 78.2851 4.94203 78.2917 4.94203C 78.2982 4.94203 78.3047 4.94203 78.3112 4.94203C 78.3177 4.94203 78.3243 4.94203 78.3308 4.94203C 78.3373 4.94203 78.3438 4.94203 78.3503 4.94203C 78.3568 4.94203 78.3634 4.94203 78.3699 4.94203C 78.3764 4.94203 78.3829 4.94203 78.3894 4.94203C 78.3959 4.94203 78.4025 4.94203 78.409 4.94203C 78.4155 4.94203 78.422 4.94203 78.4285 4.94203C 78.4351 4.94203 78.4416 4.94203 78.4481 4.94203C 78.4546 4.94203 78.4611 4.94203 78.4676 4.94203C 78.4742 4.94203 78.4807 4.94203 78.4872 4.94203C 78.4937 4.94203 78.5002 4.94203 78.5068 4.94203C 78.5133 4.94203 78.5198 4.94203 78.5263 4.94203C 78.5328 4.94203 78.5393 4.94203 78.5459 4.94203C 78.5524 4.94203 78.5589 4.94203 78.5654 4.94203C 78.5719 4.94203 78.5784 4.94203 78.585 4.94203C 78.5915 4.94203 78.598 4.94203 78.6045 4.94203C 78.611 4.94203 78.6176 4.94203 78.6241 4.94203C 78.6306 4.94203 78.6371 4.94203 78.6436 4.94203C 78.6501 4.94203 78.6567 4.94203 78.6632 4.94203C 78.6697 4.94203 78.6762 4.94203 78.6827 4.94203C 78.6893 4.94203 78.6958 4.94203 78.7023 4.94203C 78.7088 4.94203 78.7153 4.94203 78.7218 4.94203C 78.7284 4.94203 78.7349 4.94203 78.7414 4.94203C 78.7479 4.94203 78.7544 4.94203 78.7609 4.94203C 78.7675 4.94203 78.774 4.94203 78.7805 4.94203C 78.787 4.94203 78.7935 4.94203 78.8001 4.94203C 78.8066 4.94203 78.8131 4.94203 78.8196 4.94203C 78.8261 4.94203 78.8326 4.94203 78.8392 4.94203C 78.8457 4.94203 78.8522 4.94203 78.8587 4.94203C 78.8652 4.94203 78.8718 4.94203 78.8783 4.94203C 78.8848 4.94203 78.8913 4.94203 78.8978 4.94203C 78.9043 4.94203 78.9109 4.94203 78.9174 4.94203C 78.9239 4.94203 78.9304 4.94203 78.9369 4.94203C 78.9434 4.94203 78.95 4.94203 78.9565 4.94203C 78.963 4.94203 78.9695 4.94203 78.976 4.94203C 78.9826 4.94203 78.9891 4.94203 78.9956 4.94203C 79.0021 4.94203 79.0086 4.94203 79.0151 4.94203C 79.0217 4.94203 79.0282 4.94203 79.0347 4.94203C 79.0412 4.94203 79.0477 4.94203 79.0543 4.94203C 79.0608 4.94203 79.0673 4.94203 79.0738 4.94203C 79.0803 4.94203 79.0868 4.94203 79.0934 4.94203C 79.0999 4.94203 79.1064 4.94203 79.1129 4.94203C 79.1194 4.94203 79.1259 4.94203 79.1325 4.94203C 79.139 4.94203 79.1455 4.94203 79.152 4.94203C 79.1585 4.94203 79.1651 4.94203 79.1716 4.94203C 79.1781 4.94203 79.1846 4.94203 79.1911 4.94203C 79.1976 4.94203 79.2042 4.94203 79.2107 4.94203C 79.2172 4.94203 79.2237 4.94203 79.2302 4.94203C 79.2368 4.94203 79.2433 4.94203 79.2498 4.94203C 79.2563 4.94203 79.2628 4.94203 79.2693 4.94203C 79.2759 4.94203 79.2824 4.94203 79.2889 4.94203C 79.2954 4.94203 79.3019 4.94203 79.3084 4.94203C 79.315 4.94203 79.3215 4.94203 79.328 4.94203C 79.3345 4.94203 79.341 4.94203 79.3476 4.94203C 79.3541 4.94203 79.3606 4.94203 79.3671 4.94203C 79.3736 4.94203 79.3801 4.94203 79.3867 4.94203C 79.3932 4.94203 79.3997 4.94203 79.4062 4.94203C 79.4127 4.94203 79.4193 4.94203 79.4258 4.94203C 79.4323 4.94203 79.4388 4.94203 79.4453 4.94203C 79.4518 4.94203 79.4584 4.94203 79.4649 4.94203C 79.4714 4.94203 79.4779 4.94203 79.4844 4.94203C 79.4909 4.94203 79.4975 4.94203 79.504 4.94203C 79.5105 4.94203 79.517 4.94203 79.5235 4.94203C 79.5301 4.94203 79.5366 4.94203 79.5431 4.94203C 79.5496 4.94203 79.5561 4.94203 79.5626 4.94203C 79.5692 4.94203 79.5757 4.94203 79.5822 4.94203C 79.5887 4.94203 79.5952 4.94203 79.6018 4.94203C 79.6083 4.94203 79.6148 4.94203 79.6213 4.94203C 79.6278 4.94203 79.6343 4.94203 79.6409 4.94203C 79.6474 4.94203 79.6539 4.94203 79.6604 4.94203C 79.6669 4.94203 79.6734 4.94203 79.68 4.94203C 79.6865 4.94203 79.693 4.94203 79.6995 4.94203C 79.706 4.94203 79.7126 4.94203 79.7191 4.94203C 79.7256 4.94203 79.7321 4.94203 79.7386 4.94203C 79.7451 4.94203 79.7517 4.94203 79.7582 4.94203C 79.7647 4.94203 79.7712 4.94203 79.7777 4.94203C 79.7843 4.94203 79.7908 4.94203 79.7973 4.94203C 79.8038 4.94203 79.8103 4.94203 79.8168 4.94203C 79.8234 4.94203 79.8299 4.94203 79.8364 4.94203C 79.8429 4.94203 79.8494 4.94203 79.8559 4.94203C 79.8625 4.94203 79.869 4.94203 79.8755 4.94203C 79.882 4.94203 79.8885 4.94203 79.8951 4.94203C 79.9016 4.94203 79.9081 4.94203 79.9146 4.94203C 79.9211 4.94203 79.9276 4.94203 79.9342 4.94203C 79.9407 4.94203 79.9472 4.94203 79.9537 4.94203C 79.9602 4.94203 79.9668 4.94203 79.9733 4.94203C 79.9798 4.94203 79.9863 4.94203 79.9928 4.94203C 79.9993 4.94203 80.0059 4.94203 80.0124 4.94203C 80.0189 4.94203 80.0254 4.94203 80.0319 4.94203C 80.0384 4.94203 80.045 4.94203 80.0515 4.94203C 80.058 4.94203 80.0645 4.94203 80.071 4.94203C 80.0776 4.94203 80.0841 4.94203 80.0906 4.94203C 80.0971 4.94203 80.1036 4.94203 80.1101 4.94203C 80.1167 4.94203 80.1232 4.94203 80.1297 4.94203C 80.1362 4.94203 80.1427 4.94203 80.1493 4.94203C 80.1558 4.94203 80.1623 4.94203 80.1688 4.94203C 80.1753 4.94203 80.1818 4.94203 80.1884 4.94203C 80.1949 4.94203 80.2014 4.94203 80.2079 4.94203C 80.2144 4.94203 80.2209 4.94203 80.2275 4.94203C 80.234 4.94203 80.2405 4.94203 80.247 4.94203C 80.2535 4.94203 80.2601 4.94203 80.2666 4.94203C 80.2731 4.94203 80.2796 4.94203 80.2861 4.94203C 80.2926 4.94203 80.2992 4.94203 80.3057 4.94203C 80.3122 4.94203 80.3187 4.94203 80.3252 4.94203C 80.3318 4.94203 80.3383 4.94203 80.3448 4.94203C 80.3513 4.94203 80.3578 4.94203 80.3643 4.94203C 80.3709 4.94203 80.3774 4.94203 80.3839 4.94203C 80.3904 4.94203 80.3969 4.94203 80.4034 4.94203C 80.41 4.94203 80.4165 4.94203 80.423 4.94203C 80.4295 4.94203 80.436 4.94203 80.4426 4.94203C 80.4491 4.94203 80.4556 4.94203 80.4621 4.94203C 80.4686 4.94203 80.4751 4.94203 80.4817 4.94203C 80.4882 4.94203 80.4947 4.94203 80.5012 4.94203C 80.5077 4.94203 80.5143 4.94203 80.5208 4.94203C 80.5273 4.94203 80.5338 4.94203 80.5403 4.94203C 80.5468 4.94203 80.5534 4.94203 80.5599 4.94203C 80.5664 4.94203 80.5729 4.94203 80.5794 4.94203C 80.5859 4.94203 80.5925 4.94203 80.599 4.94203C 80.6055 4.94203 80.612 4.94203 80.6185 4.94203C 80.6251 4.94203 80.6316 4.94203 80.6381 4.94203C 80.6446 4.94203 80.6511 4.94203 80.6576 4.94203C 80.6642 4.94203 80.6707 4.94203 80.6772 4.94203C 80.6837 4.94203 80.6902 4.94203 80.6968 4.94203C 80.7033 4.94203 80.7098 4.94203 80.7163 4.94203C 80.7228 4.94203 80.7293 4.94203 80.7359 4.94203C 80.7424 4.94203 80.7489 4.94203 80.7554 4.94203C 80.7619 4.94203 80.7684 4.94203 80.775 4.94203C 80.7815 4.94203 80.788 4.94203 80.7945 4.94203C 80.801 4.94203 80.8076 4.94203 80.8141 4.94203C 80.8206 4.94203 80.8271 4.94203 80.8336 4.94203C 80.8401 4.94203 80.8467 4.94203 80.8532 4.94203C 80.8597 4.94203 80.8662 4.94203 80.8727 4.94203C 80.8793 4.94203 80.8858 4.94203 80.8923 4.94203C 80.8988 4.94203 80.9053 4.94203 80.9118 4.94203C 80.9184 4.94203 80.9249 4.94203 80.9314 4.94203C 80.9379 4.94203 80.9444 4.94203 80.9509 4.94203C 80.9575 4.94203 80.964 4.94203 80.9705 4.94203C 80.977 4.94203 80.9835 4.94203 80.9901 4.94203C 80.9966 4.94203 81.0031 4.94203 81.0096 4.94203C 81.0161 4.94203 81.0226 4.94203 81.0292 4.94203C 81.0357 4.94203 81.0422 4.94203 81.0487 4.94203C 81.0552 4.94203 81.0618 4.94203 81.0683 4.94203C 81.0748 4.94203 81.0813 4.94203 81.0878 4.94203C 81.0943 4.94203 81.1009 4.94203 81.1074 4.94203C 81.1139 4.94203 81.1204 4.94203 81.1269 4.94203C 81.1334 4.94203 81.14 4.94203 81.1465 4.94203C 81.153 4.94203 81.1595 4.94203 81.166 4.94203C 81.1726 4.94203 81.1791 4.94203 81.1856 4.94203C 81.1921 4.94203 81.1986 4.94203 81.2051 4.94203C 81.2117 4.94203 81.2182 4.94203 81.2247 4.94203C 81.2312 4.94203 81.2377 4.94203 81.2443 4.94203C 81.2508 4.94203 81.2573 4.94203 81.2638 4.94203C 81.2703 4.94203 81.2768 4.94203 81.2834 4.94203C 81.2899 4.94203 81.2964 4.94203 81.3029 4.94203C 81.3094 4.94203 81.3159 4.94203 81.3225 4.94203C 81.329 4.94203 81.3355 4.94203 81.342 4.94203C 81.3485 4.94203 81.3551 4.94203 81.3616 4.94203C 81.3681 4.94203 81.3746 4.94203 81.3811 4.94203C 81.3876 4.94203 81.3942 4.94203 81.4007 4.94203C 81.4072 4.94203 81.4137 4.94203 81.4202 4.94203C 81.4268 4.94203 81.4333 4.94203 81.4398 4.94203C 81.4463 4.94203 81.4528 4.94203 81.4593 4.94203C 81.4659 4.94203 81.4724 4.94203 81.4789 4.94203C 81.4854 4.94203 81.4919 4.94203 81.4984 4.94203C 81.505 4.94203 81.5115 4.94203 81.518 4.94203C 81.5245 4.94203 81.531 4.94203 81.5376 4.94203C 81.5441 4.94203 81.5506 4.94203 81.5571 4.94203C 81.5636 4.94203 81.5701 4.94203 81.5767 4.94203C 81.5832 4.94203 81.5897 4.94203 81.5962 4.94203C 81.6027 4.94203 81.6093 4.94203 81.6158 4.94203C 81.6223 4.94203 81.6288 4.94203 81.6353 4.94203C 81.6418 4.94203 81.6484 4.94203 81.6549 4.94203C 81.6614 4.94203 81.6679 4.94203 81.6744 4.94203C 81.6809 4.94203 81.6875 4.94203 81.694 4.94203C 81.7005 4.94203 81.707 4.94203 81.7135 4.94203C 81.7201 4.94203 81.7266 4.94203 81.7331 4.94203C 81.7396 4.94203 81.7461 4.94203 81.7526 4.94203C 81.7592 4.94203 81.7657 4.94203 81.7722 4.94203C 81.7787 4.94203 81.7852 4.94203 81.7918 4.94203C 81.7983 4.94203 81.8048 4.94203 81.8113 4.94203C 81.8178 4.94203 81.8243 4.94203 81.8309 4.94203C 81.8374 4.94203 81.8439 4.94203 81.8504 4.94203C 81.8569 4.94203 81.8634 4.94203 81.87 4.94203C 81.8765 4.94203 81.883 4.94203 81.8895 4.94203C 81.896 4.94203 81.9026 4.94203 81.9091 4.94203C 81.9156 4.94203 81.9221 4.94203 81.9286 4.94203C 81.9351 4.94203 81.9417 4.94203 81.9482 4.94203C 81.9547 4.94203 81.9612 4.94203 81.9677 4.94203C 81.9743 4.94203 81.9808 4.94203 81.9873 4.94203C 81.9938 4.94203 82.0003 4.94203 82.0068 4.94203C 82.0134 4.94203 82.0199 4.94203 82.0264 4.94203C 82.0329 4.94203 82.0394 4.94203 82.0459 4.94203C 82.0525 4.94203 82.059 4.94203 82.0655 4.94203C 82.072 4.94203 82.0785 4.94203 82.0851 4.94203C 82.0916 4.94203 82.0981 4.94203 82.1046 4.94203C 82.1111 4.94203 82.1176 4.94203 82.1242 4.94203C 82.1307 4.94203 82.1372 4.94203 82.1437 4.94203C 82.1502 4.94203 82.1568 4.94203 82.1633 4.94203C 82.1698 4.94203 82.1763 4.94203 82.1828 4.94203C 82.1893 4.94203 82.1959 4.94203 82.2024 4.94203C 82.2089 4.94203 82.2154 4.94203 82.2219 4.94203C 82.2284 4.94203 82.235 4.94203 82.2415 4.94203C 82.248 4.94203 82.2545 4.94203 82.261 4.94203C 82.2676 4.94203 82.2741 4.94203 82.2806 4.94203C 82.2871 4.94203 82.2936 4.94203 82.3001 4.94203C 82.3067 4.94203 82.3132 4.94203 82.3197 4.94203C 82.3262 4.94203 82.3327 4.94203 82.3393 4.94203C 82.3458 4.94203 82.3523 4.94203 82.3588 4.94203C 82.3653 4.94203 82.3718 4.94203 82.3784 4.94203C 82.3849 4.94203 82.3914 4.94203 82.3979 4.94203C 82.4044 4.94203 82.4109 4.94203 82.4175 4.94203C 82.424 4.94203 82.4305 4.94203 82.437 4.94203C 82.4435 4.94203 82.4501 4.94203 82.4566 4.94203C 82.4631 4.94203 82.4696 4.94203 82.4761 4.94203C 82.4826 4.94203 82.4892 4.94203 82.4957 4.94203C 82.5022 4.94203 82.5087 4.94203 82.5152 4.94203L 82.5152 -1.05797C 82.5087 -1.05797 82.5022 -1.05797 82.4957 -1.05797C 82.4892 -1.05797 82.4826 -1.05797 82.4761 -1.05797C 82.4696 -1.05797 82.4631 -1.05797 82.4566 -1.05797C 82.4501 -1.05797 82.4435 -1.05797 82.437 -1.05797C 82.4305 -1.05797 82.424 -1.05797 82.4175 -1.05797C 82.4109 -1.05797 82.4044 -1.05797 82.3979 -1.05797C 82.3914 -1.05797 82.3849 -1.05797 82.3784 -1.05797C 82.3718 -1.05797 82.3653 -1.05797 82.3588 -1.05797C 82.3523 -1.05797 82.3458 -1.05797 82.3393 -1.05797C 82.3327 -1.05797 82.3262 -1.05797 82.3197 -1.05797C 82.3132 -1.05797 82.3067 -1.05797 82.3001 -1.05797C 82.2936 -1.05797 82.2871 -1.05797 82.2806 -1.05797C 82.2741 -1.05797 82.2676 -1.05797 82.261 -1.05797C 82.2545 -1.05797 82.248 -1.05797 82.2415 -1.05797C 82.235 -1.05797 82.2284 -1.05797 82.2219 -1.05797C 82.2154 -1.05797 82.2089 -1.05797 82.2024 -1.05797C 82.1959 -1.05797 82.1893 -1.05797 82.1828 -1.05797C 82.1763 -1.05797 82.1698 -1.05797 82.1633 -1.05797C 82.1568 -1.05797 82.1502 -1.05797 82.1437 -1.05797C 82.1372 -1.05797 82.1307 -1.05797 82.1242 -1.05797C 82.1176 -1.05797 82.1111 -1.05797 82.1046 -1.05797C 82.0981 -1.05797 82.0916 -1.05797 82.0851 -1.05797C 82.0785 -1.05797 82.072 -1.05797 82.0655 -1.05797C 82.059 -1.05797 82.0525 -1.05797 82.0459 -1.05797C 82.0394 -1.05797 82.0329 -1.05797 82.0264 -1.05797C 82.0199 -1.05797 82.0134 -1.05797 82.0068 -1.05797C 82.0003 -1.05797 81.9938 -1.05797 81.9873 -1.05797C 81.9808 -1.05797 81.9743 -1.05797 81.9677 -1.05797C 81.9612 -1.05797 81.9547 -1.05797 81.9482 -1.05797C 81.9417 -1.05797 81.9351 -1.05797 81.9286 -1.05797C 81.9221 -1.05797 81.9156 -1.05797 81.9091 -1.05797C 81.9026 -1.05797 81.896 -1.05797 81.8895 -1.05797C 81.883 -1.05797 81.8765 -1.05797 81.87 -1.05797C 81.8634 -1.05797 81.8569 -1.05797 81.8504 -1.05797C 81.8439 -1.05797 81.8374 -1.05797 81.8309 -1.05797C 81.8243 -1.05797 81.8178 -1.05797 81.8113 -1.05797C 81.8048 -1.05797 81.7983 -1.05797 81.7918 -1.05797C 81.7852 -1.05797 81.7787 -1.05797 81.7722 -1.05797C 81.7657 -1.05797 81.7592 -1.05797 81.7526 -1.05797C 81.7461 -1.05797 81.7396 -1.05797 81.7331 -1.05797C 81.7266 -1.05797 81.7201 -1.05797 81.7135 -1.05797C 81.707 -1.05797 81.7005 -1.05797 81.694 -1.05797C 81.6875 -1.05797 81.6809 -1.05797 81.6744 -1.05797C 81.6679 -1.05797 81.6614 -1.05797 81.6549 -1.05797C 81.6484 -1.05797 81.6418 -1.05797 81.6353 -1.05797C 81.6288 -1.05797 81.6223 -1.05797 81.6158 -1.05797C 81.6093 -1.05797 81.6027 -1.05797 81.5962 -1.05797C 81.5897 -1.05797 81.5832 -1.05797 81.5767 -1.05797C 81.5701 -1.05797 81.5636 -1.05797 81.5571 -1.05797C 81.5506 -1.05797 81.5441 -1.05797 81.5376 -1.05797C 81.531 -1.05797 81.5245 -1.05797 81.518 -1.05797C 81.5115 -1.05797 81.505 -1.05797 81.4984 -1.05797C 81.4919 -1.05797 81.4854 -1.05797 81.4789 -1.05797C 81.4724 -1.05797 81.4659 -1.05797 81.4593 -1.05797C 81.4528 -1.05797 81.4463 -1.05797 81.4398 -1.05797C 81.4333 -1.05797 81.4268 -1.05797 81.4202 -1.05797C 81.4137 -1.05797 81.4072 -1.05797 81.4007 -1.05797C 81.3942 -1.05797 81.3876 -1.05797 81.3811 -1.05797C 81.3746 -1.05797 81.3681 -1.05797 81.3616 -1.05797C 81.3551 -1.05797 81.3485 -1.05797 81.342 -1.05797C 81.3355 -1.05797 81.329 -1.05797 81.3225 -1.05797C 81.3159 -1.05797 81.3094 -1.05797 81.3029 -1.05797C 81.2964 -1.05797 81.2899 -1.05797 81.2834 -1.05797C 81.2768 -1.05797 81.2703 -1.05797 81.2638 -1.05797C 81.2573 -1.05797 81.2508 -1.05797 81.2443 -1.05797C 81.2377 -1.05797 81.2312 -1.05797 81.2247 -1.05797C 81.2182 -1.05797 81.2117 -1.05797 81.2051 -1.05797C 81.1986 -1.05797 81.1921 -1.05797 81.1856 -1.05797C 81.1791 -1.05797 81.1726 -1.05797 81.166 -1.05797C 81.1595 -1.05797 81.153 -1.05797 81.1465 -1.05797C 81.14 -1.05797 81.1334 -1.05797 81.1269 -1.05797C 81.1204 -1.05797 81.1139 -1.05797 81.1074 -1.05797C 81.1009 -1.05797 81.0943 -1.05797 81.0878 -1.05797C 81.0813 -1.05797 81.0748 -1.05797 81.0683 -1.05797C 81.0618 -1.05797 81.0552 -1.05797 81.0487 -1.05797C 81.0422 -1.05797 81.0357 -1.05797 81.0292 -1.05797C 81.0226 -1.05797 81.0161 -1.05797 81.0096 -1.05797C 81.0031 -1.05797 80.9966 -1.05797 80.9901 -1.05797C 80.9835 -1.05797 80.977 -1.05797 80.9705 -1.05797C 80.964 -1.05797 80.9575 -1.05797 80.9509 -1.05797C 80.9444 -1.05797 80.9379 -1.05797 80.9314 -1.05797C 80.9249 -1.05797 80.9184 -1.05797 80.9118 -1.05797C 80.9053 -1.05797 80.8988 -1.05797 80.8923 -1.05797C 80.8858 -1.05797 80.8793 -1.05797 80.8727 -1.05797C 80.8662 -1.05797 80.8597 -1.05797 80.8532 -1.05797C 80.8467 -1.05797 80.8401 -1.05797 80.8336 -1.05797C 80.8271 -1.05797 80.8206 -1.05797 80.8141 -1.05797C 80.8076 -1.05797 80.801 -1.05797 80.7945 -1.05797C 80.788 -1.05797 80.7815 -1.05797 80.775 -1.05797C 80.7684 -1.05797 80.7619 -1.05797 80.7554 -1.05797C 80.7489 -1.05797 80.7424 -1.05797 80.7359 -1.05797C 80.7293 -1.05797 80.7228 -1.05797 80.7163 -1.05797C 80.7098 -1.05797 80.7033 -1.05797 80.6968 -1.05797C 80.6902 -1.05797 80.6837 -1.05797 80.6772 -1.05797C 80.6707 -1.05797 80.6642 -1.05797 80.6576 -1.05797C 80.6511 -1.05797 80.6446 -1.05797 80.6381 -1.05797C 80.6316 -1.05797 80.6251 -1.05797 80.6185 -1.05797C 80.612 -1.05797 80.6055 -1.05797 80.599 -1.05797C 80.5925 -1.05797 80.5859 -1.05797 80.5794 -1.05797C 80.5729 -1.05797 80.5664 -1.05797 80.5599 -1.05797C 80.5534 -1.05797 80.5468 -1.05797 80.5403 -1.05797C 80.5338 -1.05797 80.5273 -1.05797 80.5208 -1.05797C 80.5143 -1.05797 80.5077 -1.05797 80.5012 -1.05797C 80.4947 -1.05797 80.4882 -1.05797 80.4817 -1.05797C 80.4751 -1.05797 80.4686 -1.05797 80.4621 -1.05797C 80.4556 -1.05797 80.4491 -1.05797 80.4426 -1.05797C 80.436 -1.05797 80.4295 -1.05797 80.423 -1.05797C 80.4165 -1.05797 80.41 -1.05797 80.4034 -1.05797C 80.3969 -1.05797 80.3904 -1.05797 80.3839 -1.05797C 80.3774 -1.05797 80.3709 -1.05797 80.3643 -1.05797C 80.3578 -1.05797 80.3513 -1.05797 80.3448 -1.05797C 80.3383 -1.05797 80.3318 -1.05797 80.3252 -1.05797C 80.3187 -1.05797 80.3122 -1.05797 80.3057 -1.05797C 80.2992 -1.05797 80.2926 -1.05797 80.2861 -1.05797C 80.2796 -1.05797 80.2731 -1.05797 80.2666 -1.05797C 80.2601 -1.05797 80.2535 -1.05797 80.247 -1.05797C 80.2405 -1.05797 80.234 -1.05797 80.2275 -1.05797C 80.2209 -1.05797 80.2144 -1.05797 80.2079 -1.05797C 80.2014 -1.05797 80.1949 -1.05797 80.1884 -1.05797C 80.1818 -1.05797 80.1753 -1.05797 80.1688 -1.05797C 80.1623 -1.05797 80.1558 -1.05797 80.1493 -1.05797C 80.1427 -1.05797 80.1362 -1.05797 80.1297 -1.05797C 80.1232 -1.05797 80.1167 -1.05797 80.1101 -1.05797C 80.1036 -1.05797 80.0971 -1.05797 80.0906 -1.05797C 80.0841 -1.05797 80.0776 -1.05797 80.071 -1.05797C 80.0645 -1.05797 80.058 -1.05797 80.0515 -1.05797C 80.045 -1.05797 80.0384 -1.05797 80.0319 -1.05797C 80.0254 -1.05797 80.0189 -1.05797 80.0124 -1.05797C 80.0059 -1.05797 79.9993 -1.05797 79.9928 -1.05797C 79.9863 -1.05797 79.9798 -1.05797 79.9733 -1.05797C 79.9668 -1.05797 79.9602 -1.05797 79.9537 -1.05797C 79.9472 -1.05797 79.9407 -1.05797 79.9342 -1.05797C 79.9276 -1.05797 79.9211 -1.05797 79.9146 -1.05797C 79.9081 -1.05797 79.9016 -1.05797 79.8951 -1.05797C 79.8885 -1.05797 79.882 -1.05797 79.8755 -1.05797C 79.869 -1.05797 79.8625 -1.05797 79.8559 -1.05797C 79.8494 -1.05797 79.8429 -1.05797 79.8364 -1.05797C 79.8299 -1.05797 79.8234 -1.05797 79.8168 -1.05797C 79.8103 -1.05797 79.8038 -1.05797 79.7973 -1.05797C 79.7908 -1.05797 79.7843 -1.05797 79.7777 -1.05797C 79.7712 -1.05797 79.7647 -1.05797 79.7582 -1.05797C 79.7517 -1.05797 79.7451 -1.05797 79.7386 -1.05797C 79.7321 -1.05797 79.7256 -1.05797 79.7191 -1.05797C 79.7126 -1.05797 79.706 -1.05797 79.6995 -1.05797C 79.693 -1.05797 79.6865 -1.05797 79.68 -1.05797C 79.6734 -1.05797 79.6669 -1.05797 79.6604 -1.05797C 79.6539 -1.05797 79.6474 -1.05797 79.6409 -1.05797C 79.6343 -1.05797 79.6278 -1.05797 79.6213 -1.05797C 79.6148 -1.05797 79.6083 -1.05797 79.6018 -1.05797C 79.5952 -1.05797 79.5887 -1.05797 79.5822 -1.05797C 79.5757 -1.05797 79.5692 -1.05797 79.5626 -1.05797C 79.5561 -1.05797 79.5496 -1.05797 79.5431 -1.05797C 79.5366 -1.05797 79.5301 -1.05797 79.5235 -1.05797C 79.517 -1.05797 79.5105 -1.05797 79.504 -1.05797C 79.4975 -1.05797 79.4909 -1.05797 79.4844 -1.05797C 79.4779 -1.05797 79.4714 -1.05797 79.4649 -1.05797C 79.4584 -1.05797 79.4518 -1.05797 79.4453 -1.05797C 79.4388 -1.05797 79.4323 -1.05797 79.4258 -1.05797C 79.4193 -1.05797 79.4127 -1.05797 79.4062 -1.05797C 79.3997 -1.05797 79.3932 -1.05797 79.3867 -1.05797C 79.3801 -1.05797 79.3736 -1.05797 79.3671 -1.05797C 79.3606 -1.05797 79.3541 -1.05797 79.3476 -1.05797C 79.341 -1.05797 79.3345 -1.05797 79.328 -1.05797C 79.3215 -1.05797 79.315 -1.05797 79.3084 -1.05797C 79.3019 -1.05797 79.2954 -1.05797 79.2889 -1.05797C 79.2824 -1.05797 79.2759 -1.05797 79.2693 -1.05797C 79.2628 -1.05797 79.2563 -1.05797 79.2498 -1.05797C 79.2433 -1.05797 79.2368 -1.05797 79.2302 -1.05797C 79.2237 -1.05797 79.2172 -1.05797 79.2107 -1.05797C 79.2042 -1.05797 79.1976 -1.05797 79.1911 -1.05797C 79.1846 -1.05797 79.1781 -1.05797 79.1716 -1.05797C 79.1651 -1.05797 79.1585 -1.05797 79.152 -1.05797C 79.1455 -1.05797 79.139 -1.05797 79.1325 -1.05797C 79.1259 -1.05797 79.1194 -1.05797 79.1129 -1.05797C 79.1064 -1.05797 79.0999 -1.05797 79.0934 -1.05797C 79.0868 -1.05797 79.0803 -1.05797 79.0738 -1.05797C 79.0673 -1.05797 79.0608 -1.05797 79.0543 -1.05797C 79.0477 -1.05797 79.0412 -1.05797 79.0347 -1.05797C 79.0282 -1.05797 79.0217 -1.05797 79.0151 -1.05797C 79.0086 -1.05797 79.0021 -1.05797 78.9956 -1.05797C 78.9891 -1.05797 78.9826 -1.05797 78.976 -1.05797C 78.9695 -1.05797 78.963 -1.05797 78.9565 -1.05797C 78.95 -1.05797 78.9434 -1.05797 78.9369 -1.05797C 78.9304 -1.05797 78.9239 -1.05797 78.9174 -1.05797C 78.9109 -1.05797 78.9043 -1.05797 78.8978 -1.05797C 78.8913 -1.05797 78.8848 -1.05797 78.8783 -1.05797C 78.8718 -1.05797 78.8652 -1.05797 78.8587 -1.05797C 78.8522 -1.05797 78.8457 -1.05797 78.8392 -1.05797C 78.8326 -1.05797 78.8261 -1.05797 78.8196 -1.05797C 78.8131 -1.05797 78.8066 -1.05797 78.8001 -1.05797C 78.7935 -1.05797 78.787 -1.05797 78.7805 -1.05797C 78.774 -1.05797 78.7675 -1.05797 78.7609 -1.05797C 78.7544 -1.05797 78.7479 -1.05797 78.7414 -1.05797C 78.7349 -1.05797 78.7284 -1.05797 78.7218 -1.05797C 78.7153 -1.05797 78.7088 -1.05797 78.7023 -1.05797C 78.6958 -1.05797 78.6893 -1.05797 78.6827 -1.05797C 78.6762 -1.05797 78.6697 -1.05797 78.6632 -1.05797C 78.6567 -1.05797 78.6501 -1.05797 78.6436 -1.05797C 78.6371 -1.05797 78.6306 -1.05797 78.6241 -1.05797C 78.6176 -1.05797 78.611 -1.05797 78.6045 -1.05797C 78.598 -1.05797 78.5915 -1.05797 78.585 -1.05797C 78.5784 -1.05797 78.5719 -1.05797 78.5654 -1.05797C 78.5589 -1.05797 78.5524 -1.05797 78.5459 -1.05797C 78.5393 -1.05797 78.5328 -1.05797 78.5263 -1.05797C 78.5198 -1.05797 78.5133 -1.05797 78.5068 -1.05797C 78.5002 -1.05797 78.4937 -1.05797 78.4872 -1.05797C 78.4807 -1.05797 78.4742 -1.05797 78.4676 -1.05797C 78.4611 -1.05797 78.4546 -1.05797 78.4481 -1.05797C 78.4416 -1.05797 78.4351 -1.05797 78.4285 -1.05797C 78.422 -1.05797 78.4155 -1.05797 78.409 -1.05797C 78.4025 -1.05797 78.3959 -1.05797 78.3894 -1.05797C 78.3829 -1.05797 78.3764 -1.05797 78.3699 -1.05797C 78.3634 -1.05797 78.3568 -1.05797 78.3503 -1.05797C 78.3438 -1.05797 78.3373 -1.05797 78.3308 -1.05797C 78.3243 -1.05797 78.3177 -1.05797 78.3112 -1.05797C 78.3047 -1.05797 78.2982 -1.05797 78.2917 -1.05797C 78.2851 -1.05797 78.2786 -1.05797 78.2721 -1.05797C 78.2656 -1.05797 78.2591 -1.05797 78.2526 -1.05797C 78.246 -1.05797 78.2395 -1.05797 78.233 -1.05797C 78.2265 -1.05797 78.22 -1.05797 78.2134 -1.05797C 78.2069 -1.05797 78.2004 -1.05797 78.1939 -1.05797C 78.1874 -1.05797 78.1809 -1.05797 78.1743 -1.05797C 78.1678 -1.05797 78.1613 -1.05797 78.1548 -1.05797C 78.1483 -1.05797 78.1418 -1.05797 78.1352 -1.05797C 78.1287 -1.05797 78.1222 -1.05797 78.1157 -1.05797C 78.1092 -1.05797 78.1026 -1.05797 78.0961 -1.05797C 78.0896 -1.05797 78.0831 -1.05797 78.0766 -1.05797C 78.0701 -1.05797 78.0635 -1.05797 78.057 -1.05797C 78.0505 -1.05797 78.044 -1.05797 78.0375 -1.05797C 78.0309 -1.05797 78.0244 -1.05797 78.0179 -1.05797C 78.0114 -1.05797 78.0049 -1.05797 77.9984 -1.05797C 77.9918 -1.05797 77.9853 -1.05797 77.9788 -1.05797C 77.9723 -1.05797 77.9658 -1.05797 77.9593 -1.05797C 77.9527 -1.05797 77.9462 -1.05797 77.9397 -1.05797C 77.9332 -1.05797 77.9267 -1.05797 77.9201 -1.05797C 77.9136 -1.05797 77.9071 -1.05797 77.9006 -1.05797C 77.8941 -1.05797 77.8876 -1.05797 77.881 -1.05797C 77.8745 -1.05797 77.868 -1.05797 77.8615 -1.05797C 77.855 -1.05797 77.8484 -1.05797 77.8419 -1.05797C 77.8354 -1.05797 77.8289 -1.05797 77.8224 -1.05797C 77.8159 -1.05797 77.8093 -1.05797 77.8028 -1.05797C 77.7963 -1.05797 77.7898 -1.05797 77.7833 -1.05797C 77.7768 -1.05797 77.7702 -1.05797 77.7637 -1.05797C 77.7572 -1.05797 77.7507 -1.05797 77.7442 -1.05797C 77.7376 -1.05797 77.7311 -1.05797 77.7246 -1.05797C 77.7181 -1.05797 77.7116 -1.05797 77.7051 -1.05797C 77.6985 -1.05797 77.692 -1.05797 77.6855 -1.05797C 77.679 -1.05797 77.6725 -1.05797 77.6659 -1.05797C 77.6594 -1.05797 77.6529 -1.05797 77.6464 -1.05797C 77.6399 -1.05797 77.6334 -1.05797 77.6268 -1.05797C 77.6203 -1.05797 77.6138 -1.05797 77.6073 -1.05797C 77.6008 -1.05797 77.5943 -1.05797 77.5877 -1.05797C 77.5812 -1.05797 77.5747 -1.05797 77.5682 -1.05797C 77.5617 -1.05797 77.5551 -1.05797 77.5486 -1.05797C 77.5421 -1.05797 77.5356 -1.05797 77.5291 -1.05797C 77.5226 -1.05797 77.516 -1.05797 77.5095 -1.05797C 77.503 -1.05797 77.4965 -1.05797 77.49 -1.05797C 77.4834 -1.05797 77.4769 -1.05797 77.4704 -1.05797C 77.4639 -1.05797 77.4574 -1.05797 77.4509 -1.05797C 77.4443 -1.05797 77.4378 -1.05797 77.4313 -1.05797C 77.4248 -1.05797 77.4183 -1.05797 77.4118 -1.05797C 77.4052 -1.05797 77.3987 -1.05797 77.3922 -1.05797C 77.3857 -1.05797 77.3792 -1.05797 77.3726 -1.05797C 77.3661 -1.05797 77.3596 -1.05797 77.3531 -1.05797C 77.3466 -1.05797 77.3401 -1.05797 77.3335 -1.05797C 77.327 -1.05797 77.3205 -1.05797 77.314 -1.05797C 77.3075 -1.05797 77.3009 -1.05797 77.2944 -1.05797C 77.2879 -1.05797 77.2814 -1.05797 77.2749 -1.05797C 77.2684 -1.05797 77.2618 -1.05797 77.2553 -1.05797C 77.2488 -1.05797 77.2423 -1.05797 77.2358 -1.05797C 77.2293 -1.05797 77.2227 -1.05797 77.2162 -1.05797C 77.2097 -1.05797 77.2032 -1.05797 77.1967 -1.05797C 77.1901 -1.05797 77.1836 -1.05797 77.1771 -1.05797C 77.1706 -1.05797 77.1641 -1.05797 77.1576 -1.05797C 77.151 -1.05797 77.1445 -1.05797 77.138 -1.05797C 77.1315 -1.05797 77.125 -1.05797 77.1184 -1.05797C 77.1119 -1.05797 77.1054 -1.05797 77.0989 -1.05797C 77.0924 -1.05797 77.0859 -1.05797 77.0793 -1.05797C 77.0728 -1.05797 77.0663 -1.05797 77.0598 -1.05797C 77.0533 -1.05797 77.0468 -1.05797 77.0402 -1.05797C 77.0337 -1.05797 77.0272 -1.05797 77.0207 -1.05797C 77.0142 -1.05797 77.0076 -1.05797 77.0011 -1.05797C 76.9946 -1.05797 76.9881 -1.05797 76.9816 -1.05797C 76.9751 -1.05797 76.9685 -1.05797 76.962 -1.05797C 76.9555 -1.05797 76.949 -1.05797 76.9425 -1.05797C 76.9359 -1.05797 76.9294 -1.05797 76.9229 -1.05797C 76.9164 -1.05797 76.9099 -1.05797 76.9034 -1.05797C 76.8968 -1.05797 76.8903 -1.05797 76.8838 -1.05797C 76.8773 -1.05797 76.8708 -1.05797 76.8643 -1.05797C 76.8577 -1.05797 76.8512 -1.05797 76.8447 -1.05797C 76.8382 -1.05797 76.8317 -1.05797 76.8251 -1.05797C 76.8186 -1.05797 76.8121 -1.05797 76.8056 -1.05797C 76.7991 -1.05797 76.7926 -1.05797 76.786 -1.05797C 76.7795 -1.05797 76.773 -1.05797 76.7665 -1.05797C 76.76 -1.05797 76.7534 -1.05797 76.7469 -1.05797C 76.7404 -1.05797 76.7339 -1.05797 76.7274 -1.05797C 76.7209 -1.05797 76.7143 -1.05797 76.7078 -1.05797C 76.7013 -1.05797 76.6948 -1.05797 76.6883 -1.05797C 76.6818 -1.05797 76.6752 -1.05797 76.6687 -1.05797C 76.6622 -1.05797 76.6557 -1.05797 76.6492 -1.05797C 76.6426 -1.05797 76.6361 -1.05797 76.6296 -1.05797C 76.6231 -1.05797 76.6166 -1.05797 76.6101 -1.05797C 76.6035 -1.05797 76.597 -1.05797 76.5905 -1.05797C 76.584 -1.05797 76.5775 -1.05797 76.5709 -1.05797C 76.5644 -1.05797 76.5579 -1.05797 76.5514 -1.05797C 76.5449 -1.05797 76.5384 -1.05797 76.5318 -1.05797C 76.5253 -1.05797 76.5188 -1.05797 76.5123 -1.05797C 76.5058 -1.05797 76.4993 -1.05797 76.4927 -1.05797C 76.4862 -1.05797 76.4797 -1.05797 76.4732 -1.05797C 76.4667 -1.05797 76.4601 -1.05797 76.4536 -1.05797C 76.4471 -1.05797 76.4406 -1.05797 76.4341 -1.05797C 76.4276 -1.05797 76.421 -1.05797 76.4145 -1.05797C 76.408 -1.05797 76.4015 -1.05797 76.395 -1.05797C 76.3884 -1.05797 76.3819 -1.05797 76.3754 -1.05797C 76.3689 -1.05797 76.3624 -1.05797 76.3559 -1.05797C 76.3493 -1.05797 76.3428 -1.05797 76.3363 -1.05797C 76.3298 -1.05797 76.3233 -1.05797 76.3168 -1.05797C 76.3102 -1.05797 76.3037 -1.05797 76.2972 -1.05797C 76.2907 -1.05797 76.2842 -1.05797 76.2776 -1.05797C 76.2711 -1.05797 76.2646 -1.05797 76.2581 -1.05797C 76.2516 -1.05797 76.2451 -1.05797 76.2385 -1.05797C 76.232 -1.05797 76.2255 -1.05797 76.219 -1.05797C 76.2125 -1.05797 76.2059 -1.05797 76.1994 -1.05797C 76.1929 -1.05797 76.1864 -1.05797 76.1799 -1.05797C 76.1734 -1.05797 76.1668 -1.05797 76.1603 -1.05797C 76.1538 -1.05797 76.1473 -1.05797 76.1408 -1.05797C 76.1343 -1.05797 76.1277 -1.05797 76.1212 -1.05797C 76.1147 -1.05797 76.1082 -1.05797 76.1017 -1.05797C 76.0951 -1.05797 76.0886 -1.05797 76.0821 -1.05797C 76.0756 -1.05797 76.0691 -1.05797 76.0626 -1.05797C 76.056 -1.05797 76.0495 -1.05797 76.043 -1.05797C 76.0365 -1.05797 76.03 -1.05797 76.0234 -1.05797C 76.0169 -1.05797 76.0104 -1.05797 76.0039 -1.05797C 75.9974 -1.05797 75.9909 -1.05797 75.9843 -1.05797C 75.9778 -1.05797 75.9713 -1.05797 75.9648 -1.05797C 75.9583 -1.05797 75.9518 -1.05797 75.9452 -1.05797C 75.9387 -1.05797 75.9322 -1.05797 75.9257 -1.05797C 75.9192 -1.05797 75.9126 -1.05797 75.9061 -1.05797C 75.8996 -1.05797 75.8931 -1.05797 75.8866 -1.05797C 75.8801 -1.05797 75.8735 -1.05797 75.867 -1.05797C 75.8605 -1.05797 75.854 -1.05797 75.8475 -1.05797C 75.8409 -1.05797 75.8344 -1.05797 75.8279 -1.05797C 75.8214 -1.05797 75.8149 -1.05797 75.8084 -1.05797C 75.8018 -1.05797 75.7953 -1.05797 75.7888 -1.05797C 75.7823 -1.05797 75.7758 -1.05797 75.7693 -1.05797C 75.7627 -1.05797 75.7562 -1.05797 75.7497 -1.05797C 75.7432 -1.05797 75.7367 -1.05797 75.7301 -1.05797C 75.7236 -1.05797 75.7171 -1.05797 75.7106 -1.05797C 75.7041 -1.05797 75.6976 -1.05797 75.691 -1.05797C 75.6845 -1.05797 75.678 -1.05797 75.6715 -1.05797C 75.665 -1.05797 75.6584 -1.05797 75.6519 -1.05797C 75.6454 -1.05797 75.6389 -1.05797 75.6324 -1.05797C 75.6259 -1.05797 75.6193 -1.05797 75.6128 -1.05797C 75.6063 -1.05797 75.5998 -1.05797 75.5933 -1.05797C 75.5868 -1.05797 75.5802 -1.05797 75.5737 -1.05797C 75.5672 -1.05797 75.5607 -1.05797 75.5542 -1.05797C 75.5476 -1.05797 75.5411 -1.05797 75.5346 -1.05797C 75.5281 -1.05797 75.5216 -1.05797 75.5151 -1.05797C 75.5085 -1.05797 75.502 -1.05797 75.4955 -1.05797C 75.489 -1.05797 75.4825 -1.05797 75.4759 -1.05797C 75.4694 -1.05797 75.4629 -1.05797 75.4564 -1.05797C 75.4499 -1.05797 75.4434 -1.05797 75.4368 -1.05797C 75.4303 -1.05797 75.4238 -1.05797 75.4173 -1.05797C 75.4108 -1.05797 75.4043 -1.05797 75.3977 -1.05797C 75.3912 -1.05797 75.3847 -1.05797 75.3782 -1.05797C 75.3717 -1.05797 75.3651 -1.05797 75.3586 -1.05797C 75.3521 -1.05797 75.3456 -1.05797 75.3391 -1.05797C 75.3326 -1.05797 75.326 -1.05797 75.3195 -1.05797C 75.313 -1.05797 75.3065 -1.05797 75.3 -1.05797C 75.2934 -1.05797 75.2869 -1.05797 75.2804 -1.05797C 75.2739 -1.05797 75.2674 -1.05797 75.2609 -1.05797C 75.2543 -1.05797 75.2478 -1.05797 75.2413 -1.05797C 75.2348 -1.05797 75.2283 -1.05797 75.2218 -1.05797C 75.2152 -1.05797 75.2087 -1.05797 75.2022 -1.05797C 75.1957 -1.05797 75.1892 -1.05797 75.1826 -1.05797C 75.1761 -1.05797 75.1696 -1.05797 75.1631 -1.05797C 75.1566 -1.05797 75.1501 -1.05797 75.1435 -1.05797C 75.137 -1.05797 75.1305 -1.05797 75.124 -1.05797C 75.1175 -1.05797 75.1109 -1.05797 75.1044 -1.05797C 75.0979 -1.05797 75.0914 -1.05797 75.0849 -1.05797C 75.0784 -1.05797 75.0718 -1.05797 75.0653 -1.05797C 75.0588 -1.05797 75.0523 -1.05797 75.0458 -1.05797C 75.0393 -1.05797 75.0327 -1.05797 75.0262 -1.05797C 75.0197 -1.05797 75.0132 -1.05797 75.0067 -1.05797C 75.0001 -1.05797 74.9936 -1.05797 74.9871 -1.05797C 74.9806 -1.05797 74.9741 -1.05797 74.9676 -1.05797C 74.961 -1.05797 74.9545 -1.05797 74.948 -1.05797C 74.9415 -1.05797 74.935 -1.05797 74.9284 -1.05797C 74.9219 -1.05797 74.9154 -1.05797 74.9089 -1.05797C 74.9024 -1.05797 74.8959 -1.05797 74.8893 -1.05797C 74.8828 -1.05797 74.8763 -1.05797 74.8698 -1.05797C 74.8633 -1.05797 74.8568 -1.05797 74.8502 -1.05797C 74.8437 -1.05797 74.8372 -1.05797 74.8307 -1.05797C 74.8242 -1.05797 74.8176 -1.05797 74.8111 -1.05797C 74.8046 -1.05797 74.7981 -1.05797 74.7916 -1.05797C 74.7851 -1.05797 74.7785 -1.05797 74.772 -1.05797C 74.7655 -1.05797 74.759 -1.05797 74.7525 -1.05797C 74.7459 -1.05797 74.7394 -1.05797 74.7329 -1.05797C 74.7264 -1.05797 74.7199 -1.05797 74.7134 -1.05797C 74.7068 -1.05797 74.7003 -1.05797 74.6938 -1.05797C 74.6873 -1.05797 74.6808 -1.05797 74.6743 -1.05797C 74.6677 -1.05797 74.6612 -1.05797 74.6547 -1.05797C 74.6482 -1.05797 74.6417 -1.05797 74.6351 -1.05797C 74.6286 -1.05797 74.6221 -1.05797 74.6156 -1.05797C 74.6091 -1.05797 74.6026 -1.05797 74.596 -1.05797C 74.5895 -1.05797 74.583 -1.05797 74.5765 -1.05797C 74.57 -1.05797 74.5634 -1.05797 74.5569 -1.05797C 74.5504 -1.05797 74.5439 -1.05797 74.5374 -1.05797C 74.5309 -1.05797 74.5243 -1.05797 74.5178 -1.05797C 74.5113 -1.05797 74.5048 -1.05797 74.4983 -1.05797C 74.4918 -1.05797 74.4852 -1.05797 74.4787 -1.05797C 74.4722 -1.05797 74.4657 -1.05797 74.4592 -1.05797C 74.4526 -1.05797 74.4461 -1.05797 74.4396 -1.05797C 74.4331 -1.05797 74.4266 -1.05797 74.4201 -1.05797C 74.4135 -1.05797 74.407 -1.05797 74.4005 -1.05797C 74.394 -1.05797 74.3875 -1.05797 74.3809 -1.05797C 74.3744 -1.05797 74.3679 -1.05797 74.3614 -1.05797C 74.3549 -1.05797 74.3484 -1.05797 74.3418 -1.05797C 74.3353 -1.05797 74.3288 -1.05797 74.3223 -1.05797C 74.3158 -1.05797 74.3093 -1.05797 74.3027 -1.05797C 74.2962 -1.05797 74.2897 -1.05797 74.2832 -1.05797C 74.2767 -1.05797 74.2701 -1.05797 74.2636 -1.05797C 74.2571 -1.05797 74.2506 -1.05797 74.2441 -1.05797C 74.2376 -1.05797 74.231 -1.05797 74.2245 -1.05797C 74.218 -1.05797 74.2115 -1.05797 74.205 -1.05797C 74.1984 -1.05797 74.1919 -1.05797 74.1854 -1.05797C 74.1789 -1.05797 74.1724 -1.05797 74.1659 -1.05797C 74.1593 -1.05797 74.1528 -1.05797 74.1463 -1.05797C 74.1398 -1.05797 74.1333 -1.05797 74.1268 -1.05797C 74.1202 -1.05797 74.1137 -1.05797 74.1072 -1.05797C 74.1007 -1.05797 74.0942 -1.05797 74.0876 -1.05797C 74.0811 -1.05797 74.0746 -1.05797 74.0681 -1.05797C 74.0616 -1.05797 74.0551 -1.05797 74.0485 -1.05797C 74.042 -1.05797 74.0355 -1.05797 74.029 -1.05797C 74.0225 -1.05797 74.0159 -1.05797 74.0094 -1.05797C 74.0029 -1.05797 73.9964 -1.05797 73.9899 -1.05797C 73.9834 -1.05797 73.9768 -1.05797 73.9703 -1.05797C 73.9638 -1.05797 73.9573 -1.05797 73.9508 -1.05797C 73.9443 -1.05797 73.9377 -1.05797 73.9312 -1.05797C 73.9247 -1.05797 73.9182 -1.05797 73.9117 -1.05797C 73.9051 -1.05797 73.8986 -1.05797 73.8921 -1.05797C 73.8856 -1.05797 73.8791 -1.05797 73.8726 -1.05797C 73.866 -1.05797 73.8595 -1.05797 73.853 -1.05797C 73.8465 -1.05797 73.84 -1.05797 73.8334 -1.05797C 73.8269 -1.05797 73.8204 -1.05797 73.8139 -1.05797C 73.8074 -1.05797 73.8009 -1.05797 73.7943 -1.05797C 73.7878 -1.05797 73.7813 -1.05797 73.7748 -1.05797C 73.7683 -1.05797 73.7618 -1.05797 73.7552 -1.05797C 73.7487 -1.05797 73.7422 -1.05797 73.7357 -1.05797C 73.7292 -1.05797 73.7226 -1.05797 73.7161 -1.05797C 73.7096 -1.05797 73.7031 -1.05797 73.6966 -1.05797C 73.6901 -1.05797 73.6835 -1.05797 73.677 -1.05797C 73.6705 -1.05797 73.664 -1.05797 73.6575 -1.05797C 73.6509 -1.05797 73.6444 -1.05797 73.6379 -1.05797C 73.6314 -1.05797 73.6249 -1.05797 73.6184 -1.05797C 73.6118 -1.05797 73.6053 -1.05797 73.5988 -1.05797C 73.5923 -1.05797 73.5858 -1.05797 73.5793 -1.05797C 73.5727 -1.05797 73.5662 -1.05797 73.5597 -1.05797C 73.5532 -1.05797 73.5467 -1.05797 73.5401 -1.05797C 73.5336 -1.05797 73.5271 -1.05797 73.5206 -1.05797C 73.5141 -1.05797 73.5076 -1.05797 73.501 -1.05797C 73.4945 -1.05797 73.488 -1.05797 73.4815 -1.05797C 73.475 -1.05797 73.4684 -1.05797 73.4619 -1.05797C 73.4554 -1.05797 73.4489 -1.05797 73.4424 -1.05797C 73.4359 -1.05797 73.4293 -1.05797 73.4228 -1.05797C 73.4163 -1.05797 73.4098 -1.05797 73.4033 -1.05797C 73.3968 -1.05797 73.3902 -1.05797 73.3837 -1.05797C 73.3772 -1.05797 73.3707 -1.05797 73.3642 -1.05797C 73.3576 -1.05797 73.3511 -1.05797 73.3446 -1.05797C 73.3381 -1.05797 73.3316 -1.05797 73.3251 -1.05797C 73.3185 -1.05797 73.312 -1.05797 73.3055 -1.05797C 73.299 -1.05797 73.2925 -1.05797 73.2859 -1.05797C 73.2794 -1.05797 73.2729 -1.05797 73.2664 -1.05797C 73.2599 -1.05797 73.2534 -1.05797 73.2468 -1.05797C 73.2403 -1.05797 73.2338 -1.05797 73.2273 -1.05797C 73.2208 -1.05797 73.2143 -1.05797 73.2077 -1.05797C 73.2012 -1.05797 73.1947 -1.05797 73.1882 -1.05797C 73.1817 -1.05797 73.1751 -1.05797 73.1686 -1.05797C 73.1621 -1.05797 73.1556 -1.05797 73.1491 -1.05797C 73.1426 -1.05797 73.136 -1.05797 73.1295 -1.05797C 73.123 -1.05797 73.1165 -1.05797 73.11 -1.05797C 73.1034 -1.05797 73.0969 -1.05797 73.0904 -1.05797C 73.0839 -1.05797 73.0774 -1.05797 73.0709 -1.05797C 73.0643 -1.05797 73.0578 -1.05797 73.0513 -1.05797C 73.0448 -1.05797 73.0383 -1.05797 73.0318 -1.05797C 73.0252 -1.05797 73.0187 -1.05797 73.0122 -1.05797C 73.0057 -1.05797 72.9992 -1.05797 72.9926 -1.05797C 72.9861 -1.05797 72.9796 -1.05797 72.9731 -1.05797C 72.9666 -1.05797 72.9601 -1.05797 72.9535 -1.05797C 72.947 -1.05797 72.9405 -1.05797 72.934 -1.05797C 72.9275 -1.05797 72.9209 -1.05797 72.9144 -1.05797C 72.9079 -1.05797 72.9014 -1.05797 72.8949 -1.05797C 72.8884 -1.05797 72.8818 -1.05797 72.8753 -1.05797C 72.8688 -1.05797 72.8623 -1.05797 72.8558 -1.05797C 72.8493 -1.05797 72.8427 -1.05797 72.8362 -1.05797C 72.8297 -1.05797 72.8232 -1.05797 72.8167 -1.05797C 72.8101 -1.05797 72.8036 -1.05797 72.7971 -1.05797C 72.7906 -1.05797 72.7841 -1.05797 72.7776 -1.05797C 72.771 -1.05797 72.7645 -1.05797 72.758 -1.05797C 72.7515 -1.05797 72.745 -1.05797 72.7384 -1.05797C 72.7319 -1.05797 72.7254 -1.05797 72.7189 -1.05797C 72.7124 -1.05797 72.7059 -1.05797 72.6993 -1.05797C 72.6928 -1.05797 72.6863 -1.05797 72.6798 -1.05797C 72.6733 -1.05797 72.6668 -1.05797 72.6602 -1.05797C 72.6537 -1.05797 72.6472 -1.05797 72.6407 -1.05797C 72.6342 -1.05797 72.6276 -1.05797 72.6211 -1.05797C 72.6146 -1.05797 72.6081 -1.05797 72.6016 -1.05797C 72.5951 -1.05797 72.5885 -1.05797 72.582 -1.05797C 72.5755 -1.05797 72.569 -1.05797 72.5625 -1.05797C 72.5559 -1.05797 72.5494 -1.05797 72.5429 -1.05797C 72.5364 -1.05797 72.5299 -1.05797 72.5234 -1.05797C 72.5168 -1.05797 72.5103 -1.05797 72.5038 -1.05797L 72.5038 4.94203Z"/>
</defs>
</svg>
