<svg width="167" height="211" viewBox="0 0 167 211" version="1.1" xmlns="http://www.w3.org/2000/svg" xmlns:xlink="http://www.w3.org/1999/xlink">
<title>Frame 3</title>
<desc>Created using Figma</desc>
<g id="Canvas" transform="translate(15987 2259)">
<clipPath id="clip-0" clip-rule="evenodd">
<path d="M -15987 -2259L -15820 -2259L -15820 -2048L -15987 -2048L -15987 -2259Z" fill="#FFFFFF"/>
</clipPath>
<g id="Frame 3" clip-path="url(#clip-0)">
<g id="Group 2">
<g id="Vector 5">
<use xlink:href="#path0_stroke" transform="translate(-15926.2 -2154)" fill="#FF4A4A"/>
</g>
<g id="Vector 6">
<use xlink:href="#path1_stroke" transform="translate(-15906.3 -2149.15)" fill="#FF4A4A"/>
</g>
<g id="Vector 7">
<use xlink:href="#path2_stroke" transform="translate(-15884.5 -2154)" fill="#FF4A4A"/>
</g>
<g id="Vector 8">
<use xlink:href="#path3_stroke" transform="translate(-15948 -2132.64)" fill="#FF4A4A"/>
</g>
<g id="Vector 9">
<use xlink:href="#path4_stroke" transform="translate(-15938.5 -2112.25)" fill="#FF4A4A"/>
</g>
</g>
</g>
</g>
<defs>
<path id="path0_stroke" d="M 1 0C 1 -0.552285 0.552285 -1 0 -1C -0.552285 -1 -1 -0.552285 -1 0L 1 0ZM -0.051549 61.1739C -0.051549 61.7262 0.396166 62.1739 0.948451 62.1739C 1.50074 62.1739 1.94845 61.7262 1.94845 61.1739L -0.051549 61.1739ZM -1 0C -1 10.2324 -0.762572 20.4356 -0.525504 30.6216C -0.288346 40.8113 -0.051549 50.9837 -0.051549 61.1739L 1.94845 61.1739C 1.94845 50.9566 1.71102 40.7609 1.47395 30.575C 1.2368 20.3853 1 10.2053 1 0L -1 0Z"/>
<path id="path1_stroke" d="M 1.00035 0C 1.00035 -0.552285 0.55263 -1 0.000345411 -1C -0.551939 -1 -0.999655 -0.552285 -0.999655 0L 1.00035 0ZM 2.10801 37.6538L 1.12413 37.8326L 2.10801 37.6538ZM 3.79173 59.5415C 3.96271 60.0666 4.52704 60.3537 5.05219 60.1828C 5.57734 60.0118 5.86445 59.4474 5.69347 58.9223L 3.79173 59.5415ZM -0.999655 0C -0.999655 12.2059 -1.08086 25.6988 1.12413 37.8326L 3.0919 37.475C 0.925673 25.5545 1.00035 12.2575 1.00035 0L -0.999655 0ZM 1.12413 37.8326C 1.7442 41.2448 1.85827 44.8894 2.09074 48.6272C 2.32057 52.3226 2.66648 56.0854 3.79173 59.5415L 5.69347 58.9223C 4.65381 55.7291 4.31622 52.1905 4.08688 48.503C 3.86017 44.8579 3.7394 41.0381 3.0919 37.475L 1.12413 37.8326Z"/>
<path id="path2_stroke" d="M 1 4.53494e-13C 1 -0.552285 0.552285 -1 4.53494e-13 -1C -0.552285 -1 -1 -0.552285 -1 -4.53494e-13L 1 4.53494e-13ZM 9.48451 68C 10.0368 68 10.4845 67.5523 10.4845 67C 10.4845 66.4477 10.0368 66 9.48451 66L 9.48451 68ZM -1 -4.53494e-13C -1 6.78135 0.450017 13.3464 1.86898 19.7575C 3.29605 26.2052 4.69071 32.4939 4.69071 38.8945L 6.69071 38.8945C 6.69071 32.2377 5.24001 25.7334 3.82172 19.3253C 2.39534 12.8807 1 6.52725 1 4.53494e-13L -1 -4.53494e-13ZM 4.69071 38.8945C 4.69071 40.8237 4.78821 47.8788 5.31391 54.4626C 5.57624 57.7479 5.94822 60.9576 6.47873 63.3624C 6.74207 64.5561 7.05766 65.615 7.44992 66.3975C 7.64572 66.7881 7.88717 67.1645 8.19537 67.4546C 8.51324 67.7538 8.94762 68 9.48451 68L 9.48451 66C 9.59578 66 9.6281 66.0565 9.56619 65.9983C 9.49462 65.9309 9.37857 65.782 9.23787 65.5013C 8.95713 64.9412 8.68372 64.0736 8.43177 62.9315C 7.93173 60.6648 7.56807 57.566 7.30757 54.3035C 6.78762 47.7917 6.69071 40.7941 6.69071 38.8945L 4.69071 38.8945Z"/>
<path id="path3_stroke" d="M 0 -1C -0.552285 -1 -1 -0.552285 -1 0C -1 0.552285 -0.552285 1 0 1L 0 -1ZM 91.9997 1.97101C 92.552 1.97101 92.9997 1.5233 92.9997 0.971014C 92.9997 0.41873 92.552 -0.0289855 91.9997 -0.0289855L 91.9997 1.97101ZM 0 1C 15.2624 1 30.7017 1.24261 46.1086 1.48538C 61.5128 1.72811 76.8849 1.97101 91.9997 1.97101L 91.9997 -0.0289855C 76.9034 -0.0289855 61.5472 -0.271592 46.1401 -0.514369C 30.7358 -0.757101 15.2808 -1 0 -1L 0 1Z"/>
<path id="path4_stroke" d="M 0 -1C -0.552285 -1 -1 -0.552285 -1 0C -1 0.552285 -0.552285 1 0 1L 0 -1ZM 82.5152 2.94203C 83.0675 2.94203 83.5152 2.49431 83.5152 1.94203C 83.5152 1.38974 83.0675 0.942029 82.5152 0.942029L 82.5152 2.94203ZM 0 1C 12.0571 1 24.1081 1.48456 36.1899 1.97021C 48.265 2.45558 60.3707 2.94203 72.5038 2.94203L 72.5038 0.942029C 60.4176 0.942029 48.3519 0.457461 36.2702 -0.0281786C 24.1952 -0.51355 12.104 -1 0 -1L 0 1ZM 72.5038 2.94203C 72.5103 2.94203 72.5168 2.94203 72.5234 2.94203C 72.5299 2.94203 72.5364 2.94203 72.5429 2.94203C 72.5494 2.94203 72.5559 2.94203 72.5625 2.94203C 72.569 2.94203 72.5755 2.94203 72.582 2.94203C 72.5885 2.94203 72.5951 2.94203 72.6016 2.94203C 72.6081 2.94203 72.6146 2.94203 72.6211 2.94203C 72.6276 2.94203 72.6342 2.94203 72.6407 2.94203C 72.6472 2.94203 72.6537 2.94203 72.6602 2.94203C 72.6668 2.94203 72.6733 2.94203 72.6798 2.94203C 72.6863 2.94203 72.6928 2.94203 72.6993 2.94203C 72.7059 2.94203 72.7124 2.94203 72.7189 2.94203C 72.7254 2.94203 72.7319 2.94203 72.7384 2.94203C 72.745 2.94203 72.7515 2.94203 72.758 2.94203C 72.7645 2.94203 72.771 2.94203 72.7776 2.94203C 72.7841 2.94203 72.7906 2.94203 72.7971 2.94203C 72.8036 2.94203 72.8101 2.94203 72.8167 2.94203C 72.8232 2.94203 72.8297 2.94203 72.8362 2.94203C 72.8427 2.94203 72.8493 2.94203 72.8558 2.94203C 72.8623 2.94203 72.8688 2.94203 72.8753 2.94203C 72.8818 2.94203 72.8884 2.94203 72.8949 2.94203C 72.9014 2.94203 72.9079 2.94203 72.9144 2.94203C 72.9209 2.94203 72.9275 2.94203 72.934 2.94203C 72.9405 2.94203 72.947 2.94203 72.9535 2.94203C 72.9601 2.94203 72.9666 2.94203 72.9731 2.94203C 72.9796 2.94203 72.9861 2.94203 72.9926 2.94203C 72.9992 2.94203 73.0057 2.94203 73.0122 2.94203C 73.0187 2.94203 73.0252 2.94203 73.0318 2.94203C 73.0383 2.94203 73.0448 2.94203 73.0513 2.94203C 73.0578 2.94203 73.0643 2.94203 73.0709 2.94203C 73.0774 2.94203 73.0839 2.94203 73.0904 2.94203C 73.0969 2.94203 73.1034 2.94203 73.11 2.94203C 73.1165 2.94203 73.123 2.94203 73.1295 2.94203C 73.136 2.94203 73.1426 2.94203 73.1491 2.94203C 73.1556 2.94203 73.1621 2.94203 73.1686 2.94203C 73.1751 2.94203 73.1817 2.94203 73.1882 2.94203C 73.1947 2.94203 73.2012 2.94203 73.2077 2.94203C 73.2143 2.94203 73.2208 2.94203 73.2273 2.94203C 73.2338 2.94203 73.2403 2.94203 73.2468 2.94203C 73.2534 2.94203 73.2599 2.94203 73.2664 2.94203C 73.2729 2.94203 73.2794 2.94203 73.2859 2.94203C 73.2925 2.94203 73.299 2.94203 73.3055 2.94203C 73.312 2.94203 73.3185 2.94203 73.3251 2.94203C 73.3316 2.94203 73.3381 2.94203 73.3446 2.94203C 73.3511 2.94203 73.3576 2.94203 73.3642 2.94203C 73.3707 2.94203 73.3772 2.94203 73.3837 2.94203C 73.3902 2.94203 73.3968 2.94203 73.4033 2.94203C 73.4098 2.94203 73.4163 2.94203 73.4228 2.94203C 73.4293 2.94203 73.4359 2.94203 73.4424 2.94203C 73.4489 2.94203 73.4554 2.94203 73.4619 2.94203C 73.4684 2.94203 73.475 2.94203 73.4815 2.94203C 73.488 2.94203 73.4945 2.94203 73.501 2.94203C 73.5076 2.94203 73.5141 2.94203 73.5206 2.94203C 73.5271 2.94203 73.5336 2.94203 73.5401 2.94203C 73.5467 2.94203 73.5532 2.94203 73.5597 2.94203C 73.5662 2.94203 73.5727 2.94203 73.5793 2.94203C 73.5858 2.94203 73.5923 2.94203 73.5988 2.94203C 73.6053 2.94203 73.6118 2.94203 73.6184 2.94203C 73.6249 2.94203 73.6314 2.94203 73.6379 2.94203C 73.6444 2.94203 73.6509 2.94203 73.6575 2.94203C 73.664 2.94203 73.6705 2.94203 73.677 2.94203C 73.6835 2.94203 73.6901 2.94203 73.6966 2.94203C 73.7031 2.94203 73.7096 2.94203 73.7161 2.94203C 73.7226 2.94203 73.7292 2.94203 73.7357 2.94203C 73.7422 2.94203 73.7487 2.94203 73.7552 2.94203C 73.7618 2.94203 73.7683 2.94203 73.7748 2.94203C 73.7813 2.94203 73.7878 2.94203 73.7943 2.94203C 73.8009 2.94203 73.8074 2.94203 73.8139 2.94203C 73.8204 2.94203 73.8269 2.94203 73.8334 2.94203C 73.84 2.94203 73.8465 2.94203 73.853 2.94203C 73.8595 2.94203 73.866 2.94203 73.8726 2.94203C 73.8791 2.94203 73.8856 2.94203 73.8921 2.94203C 73.8986 2.94203 73.9051 2.94203 73.9117 2.94203C 73.9182 2.94203 73.9247 2.94203 73.9312 2.94203C 73.9377 2.94203 73.9443 2.94203 73.9508 2.94203C 73.9573 2.94203 73.9638 2.94203 73.9703 2.94203C 73.9768 2.94203 73.9834 2.94203 73.9899 2.94203C 73.9964 2.94203 74.0029 2.94203 74.0094 2.94203C 74.0159 2.94203 74.0225 2.94203 74.029 2.94203C 74.0355 2.94203 74.042 2.94203 74.0485 2.94203C 74.0551 2.94203 74.0616 2.94203 74.0681 2.94203C 74.0746 2.94203 74.0811 2.94203 74.0876 2.94203C 74.0942 2.94203 74.1007 2.94203 74.1072 2.94203C 74.1137 2.94203 74.1202 2.94203 74.1268 2.94203C 74.1333 2.94203 74.1398 2.94203 74.1463 2.94203C 74.1528 2.94203 74.1593 2.94203 74.1659 2.94203C 74.1724 2.94203 74.1789 2.94203 74.1854 2.94203C 74.1919 2.94203 74.1984 2.94203 74.205 2.94203C 74.2115 2.94203 74.218 2.94203 74.2245 2.94203C 74.231 2.94203 74.2376 2.94203 74.2441 2.94203C 74.2506 2.94203 74.2571 2.94203 74.2636 2.94203C 74.2701 2.94203 74.2767 2.94203 74.2832 2.94203C 74.2897 2.94203 74.2962 2.94203 74.3027 2.94203C 74.3093 2.94203 74.3158 2.94203 74.3223 2.94203C 74.3288 2.94203 74.3353 2.94203 74.3418 2.94203C 74.3484 2.94203 74.3549 2.94203 74.3614 2.94203C 74.3679 2.94203 74.3744 2.94203 74.3809 2.94203C 74.3875 2.94203 74.394 2.94203 74.4005 2.94203C 74.407 2.94203 74.4135 2.94203 74.4201 2.94203C 74.4266 2.94203 74.4331 2.94203 74.4396 2.94203C 74.4461 2.94203 74.4526 2.94203 74.4592 2.94203C 74.4657 2.94203 74.4722 2.94203 74.4787 2.94203C 74.4852 2.94203 74.4918 2.94203 74.4983 2.94203C 74.5048 2.94203 74.5113 2.94203 74.5178 2.94203C 74.5243 2.94203 74.5309 2.94203 74.5374 2.94203C 74.5439 2.94203 74.5504 2.94203 74.5569 2.94203C 74.5634 2.94203 74.57 2.94203 74.5765 2.94203C 74.583 2.94203 74.5895 2.94203 74.596 2.94203C 74.6026 2.94203 74.6091 2.94203 74.6156 2.94203C 74.6221 2.94203 74.6286 2.94203 74.6351 2.94203C 74.6417 2.94203 74.6482 2.94203 74.6547 2.94203C 74.6612 2.94203 74.6677 2.94203 74.6743 2.94203C 74.6808 2.94203 74.6873 2.94203 74.6938 2.94203C 74.7003 2.94203 74.7068 2.94203 74.7134 2.94203C 74.7199 2.94203 74.7264 2.94203 74.7329 2.94203C 74.7394 2.94203 74.7459 2.94203 74.7525 2.94203C 74.759 2.94203 74.7655 2.94203 74.772 2.94203C 74.7785 2.94203 74.7851 2.94203 74.7916 2.94203C 74.7981 2.94203 74.8046 2.94203 74.8111 2.94203C 74.8176 2.94203 74.8242 2.94203 74.8307 2.94203C 74.8372 2.94203 74.8437 2.94203 74.8502 2.94203C 74.8568 2.94203 74.8633 2.94203 74.8698 2.94203C 74.8763 2.94203 74.8828 2.94203 74.8893 2.94203C 74.8959 2.94203 74.9024 2.94203 74.9089 2.94203C 74.9154 2.94203 74.9219 2.94203 74.9284 2.94203C 74.935 2.94203 74.9415 2.94203 74.948 2.94203C 74.9545 2.94203 74.961 2.94203 74.9676 2.94203C 74.9741 2.94203 74.9806 2.94203 74.9871 2.94203C 74.9936 2.94203 75.0001 2.94203 75.0067 2.94203C 75.0132 2.94203 75.0197 2.94203 75.0262 2.94203C 75.0327 2.94203 75.0393 2.94203 75.0458 2.94203C 75.0523 2.94203 75.0588 2.94203 75.0653 2.94203C 75.0718 2.94203 75.0784 2.94203 75.0849 2.94203C 75.0914 2.94203 75.0979 2.94203 75.1044 2.94203C 75.1109 2.94203 75.1175 2.94203 75.124 2.94203C 75.1305 2.94203 75.137 2.94203 75.1435 2.94203C 75.1501 2.94203 75.1566 2.94203 75.1631 2.94203C 75.1696 2.94203 75.1761 2.94203 75.1826 2.94203C 75.1892 2.94203 75.1957 2.94203 75.2022 2.94203C 75.2087 2.94203 75.2152 2.94203 75.2218 2.94203C 75.2283 2.94203 75.2348 2.94203 75.2413 2.94203C 75.2478 2.94203 75.2543 2.94203 75.2609 2.94203C 75.2674 2.94203 75.2739 2.94203 75.2804 2.94203C 75.2869 2.94203 75.2934 2.94203 75.3 2.94203C 75.3065 2.94203 75.313 2.94203 75.3195 2.94203C 75.326 2.94203 75.3326 2.94203 75.3391 2.94203C 75.3456 2.94203 75.3521 2.94203 75.3586 2.94203C 75.3651 2.94203 75.3717 2.94203 75.3782 2.94203C 75.3847 2.94203 75.3912 2.94203 75.3977 2.94203C 75.4043 2.94203 75.4108 2.94203 75.4173 2.94203C 75.4238 2.94203 75.4303 2.94203 75.4368 2.94203C 75.4434 2.94203 75.4499 2.94203 75.4564 2.94203C 75.4629 2.94203 75.4694 2.94203 75.4759 2.94203C 75.4825 2.94203 75.489 2.94203 75.4955 2.94203C 75.502 2.94203 75.5085 2.94203 75.5151 2.94203C 75.5216 2.94203 75.5281 2.94203 75.5346 2.94203C 75.5411 2.94203 75.5476 2.94203 75.5542 2.94203C 75.5607 2.94203 75.5672 2.94203 75.5737 2.94203C 75.5802 2.94203 75.5868 2.94203 75.5933 2.94203C 75.5998 2.94203 75.6063 2.94203 75.6128 2.94203C 75.6193 2.94203 75.6259 2.94203 75.6324 2.94203C 75.6389 2.94203 75.6454 2.94203 75.6519 2.94203C 75.6584 2.94203 75.665 2.94203 75.6715 2.94203C 75.678 2.94203 75.6845 2.94203 75.691 2.94203C 75.6976 2.94203 75.7041 2.94203 75.7106 2.94203C 75.7171 2.94203 75.7236 2.94203 75.7301 2.94203C 75.7367 2.94203 75.7432 2.94203 75.7497 2.94203C 75.7562 2.94203 75.7627 2.94203 75.7693 2.94203C 75.7758 2.94203 75.7823 2.94203 75.7888 2.94203C 75.7953 2.94203 75.8018 2.94203 75.8084 2.94203C 75.8149 2.94203 75.8214 2.94203 75.8279 2.94203C 75.8344 2.94203 75.8409 2.94203 75.8475 2.94203C 75.854 2.94203 75.8605 2.94203 75.867 2.94203C 75.8735 2.94203 75.8801 2.94203 75.8866 2.94203C 75.8931 2.94203 75.8996 2.94203 75.9061 2.94203C 75.9126 2.94203 75.9192 2.94203 75.9257 2.94203C 75.9322 2.94203 75.9387 2.94203 75.9452 2.94203C 75.9518 2.94203 75.9583 2.94203 75.9648 2.94203C 75.9713 2.94203 75.9778 2.94203 75.9843 2.94203C 75.9909 2.94203 75.9974 2.94203 76.0039 2.94203C 76.0104 2.94203 76.0169 2.94203 76.0234 2.94203C 76.03 2.94203 76.0365 2.94203 76.043 2.94203C 76.0495 2.94203 76.056 2.94203 76.0626 2.94203C 76.0691 2.94203 76.0756 2.94203 76.0821 2.94203C 76.0886 2.94203 76.0951 2.94203 76.1017 2.94203C 76.1082 2.94203 76.1147 2.94203 76.1212 2.94203C 76.1277 2.94203 76.1343 2.94203 76.1408 2.94203C 76.1473 2.94203 76.1538 2.94203 76.1603 2.94203C 76.1668 2.94203 76.1734 2.94203 76.1799 2.94203C 76.1864 2.94203 76.1929 2.94203 76.1994 2.94203C 76.2059 2.94203 76.2125 2.94203 76.219 2.94203C 76.2255 2.94203 76.232 2.94203 76.2385 2.94203C 76.2451 2.94203 76.2516 2.94203 76.2581 2.94203C 76.2646 2.94203 76.2711 2.94203 76.2776 2.94203C 76.2842 2.94203 76.2907 2.94203 76.2972 2.94203C 76.3037 2.94203 76.3102 2.94203 76.3168 2.94203C 76.3233 2.94203 76.3298 2.94203 76.3363 2.94203C 76.3428 2.94203 76.3493 2.94203 76.3559 2.94203C 76.3624 2.94203 76.3689 2.94203 76.3754 2.94203C 76.3819 2.94203 76.3884 2.94203 76.395 2.94203C 76.4015 2.94203 76.408 2.94203 76.4145 2.94203C 76.421 2.94203 76.4276 2.94203 76.4341 2.94203C 76.4406 2.94203 76.4471 2.94203 76.4536 2.94203C 76.4601 2.94203 76.4667 2.94203 76.4732 2.94203C 76.4797 2.94203 76.4862 2.94203 76.4927 2.94203C 76.4993 2.94203 76.5058 2.94203 76.5123 2.94203C 76.5188 2.94203 76.5253 2.94203 76.5318 2.94203C 76.5384 2.94203 76.5449 2.94203 76.5514 2.94203C 76.5579 2.94203 76.5644 2.94203 76.5709 2.94203C 76.5775 2.94203 76.584 2.94203 76.5905 2.94203C 76.597 2.94203 76.6035 2.94203 76.6101 2.94203C 76.6166 2.94203 76.6231 2.94203 76.6296 2.94203C 76.6361 2.94203 76.6426 2.94203 76.6492 2.94203C 76.6557 2.94203 76.6622 2.94203 76.6687 2.94203C 76.6752 2.94203 76.6818 2.94203 76.6883 2.94203C 76.6948 2.94203 76.7013 2.94203 76.7078 2.94203C 76.7143 2.94203 76.7209 2.94203 76.7274 2.94203C 76.7339 2.94203 76.7404 2.94203 76.7469 2.94203C 76.7534 2.94203 76.76 2.94203 76.7665 2.94203C 76.773 2.94203 76.7795 2.94203 76.786 2.94203C 76.7926 2.94203 76.7991 2.94203 76.8056 2.94203C 76.8121 2.94203 76.8186 2.94203 76.8251 2.94203C 76.8317 2.94203 76.8382 2.94203 76.8447 2.94203C 76.8512 2.94203 76.8577 2.94203 76.8643 2.94203C 76.8708 2.94203 76.8773 2.94203 76.8838 2.94203C 76.8903 2.94203 76.8968 2.94203 76.9034 2.94203C 76.9099 2.94203 76.9164 2.94203 76.9229 2.94203C 76.9294 2.94203 76.9359 2.94203 76.9425 2.94203C 76.949 2.94203 76.9555 2.94203 76.962 2.94203C 76.9685 2.94203 76.9751 2.94203 76.9816 2.94203C 76.9881 2.94203 76.9946 2.94203 77.0011 2.94203C 77.0076 2.94203 77.0142 2.94203 77.0207 2.94203C 77.0272 2.94203 77.0337 2.94203 77.0402 2.94203C 77.0468 2.94203 77.0533 2.94203 77.0598 2.94203C 77.0663 2.94203 77.0728 2.94203 77.0793 2.94203C 77.0859 2.94203 77.0924 2.94203 77.0989 2.94203C 77.1054 2.94203 77.1119 2.94203 77.1184 2.94203C 77.125 2.94203 77.1315 2.94203 77.138 2.94203C 77.1445 2.94203 77.151 2.94203 77.1576 2.94203C 77.1641 2.94203 77.1706 2.94203 77.1771 2.94203C 77.1836 2.94203 77.1901 2.94203 77.1967 2.94203C 77.2032 2.94203 77.2097 2.94203 77.2162 2.94203C 77.2227 2.94203 77.2293 2.94203 77.2358 2.94203C 77.2423 2.94203 77.2488 2.94203 77.2553 2.94203C 77.2618 2.94203 77.2684 2.94203 77.2749 2.94203C 77.2814 2.94203 77.2879 2.94203 77.2944 2.94203C 77.3009 2.94203 77.3075 2.94203 77.314 2.94203C 77.3205 2.94203 77.327 2.94203 77.3335 2.94203C 77.3401 2.94203 77.3466 2.94203 77.3531 2.94203C 77.3596 2.94203 77.3661 2.94203 77.3726 2.94203C 77.3792 2.94203 77.3857 2.94203 77.3922 2.94203C 77.3987 2.94203 77.4052 2.94203 77.4118 2.94203C 77.4183 2.94203 77.4248 2.94203 77.4313 2.94203C 77.4378 2.94203 77.4443 2.94203 77.4509 2.94203C 77.4574 2.94203 77.4639 2.94203 77.4704 2.94203C 77.4769 2.94203 77.4834 2.94203 77.49 2.94203C 77.4965 2.94203 77.503 2.94203 77.5095 2.94203C 77.516 2.94203 77.5226 2.94203 77.5291 2.94203C 77.5356 2.94203 77.5421 2.94203 77.5486 2.94203C 77.5551 2.94203 77.5617 2.94203 77.5682 2.94203C 77.5747 2.94203 77.5812 2.94203 77.5877 2.94203C 77.5943 2.94203 77.6008 2.94203 77.6073 2.94203C 77.6138 2.94203 77.6203 2.94203 77.6268 2.94203C 77.6334 2.94203 77.6399 2.94203 77.6464 2.94203C 77.6529 2.94203 77.6594 2.94203 77.6659 2.94203C 77.6725 2.94203 77.679 2.94203 77.6855 2.94203C 77.692 2.94203 77.6985 2.94203 77.7051 2.94203C 77.7116 2.94203 77.7181 2.94203 77.7246 2.94203C 77.7311 2.94203 77.7376 2.94203 77.7442 2.94203C 77.7507 2.94203 77.7572 2.94203 77.7637 2.94203C 77.7702 2.94203 77.7768 2.94203 77.7833 2.94203C 77.7898 2.94203 77.7963 2.94203 77.8028 2.94203C 77.8093 2.94203 77.8159 2.94203 77.8224 2.94203C 77.8289 2.94203 77.8354 2.94203 77.8419 2.94203C 77.8484 2.94203 77.855 2.94203 77.8615 2.94203C 77.868 2.94203 77.8745 2.94203 77.881 2.94203C 77.8876 2.94203 77.8941 2.94203 77.9006 2.94203C 77.9071 2.94203 77.9136 2.94203 77.9201 2.94203C 77.9267 2.94203 77.9332 2.94203 77.9397 2.94203C 77.9462 2.94203 77.9527 2.94203 77.9593 2.94203C 77.9658 2.94203 77.9723 2.94203 77.9788 2.94203C 77.9853 2.94203 77.9918 2.94203 77.9984 2.94203C 78.0049 2.94203 78.0114 2.94203 78.0179 2.94203C 78.0244 2.94203 78.0309 2.94203 78.0375 2.94203C 78.044 2.94203 78.0505 2.94203 78.057 2.94203C 78.0635 2.94203 78.0701 2.94203 78.0766 2.94203C 78.0831 2.94203 78.0896 2.94203 78.0961 2.94203C 78.1026 2.94203 78.1092 2.94203 78.1157 2.94203C 78.1222 2.94203 78.1287 2.94203 78.1352 2.94203C 78.1418 2.94203 78.1483 2.94203 78.1548 2.94203C 78.1613 2.94203 78.1678 2.94203 78.1743 2.94203C 78.1809 2.94203 78.1874 2.94203 78.1939 2.94203C 78.2004 2.94203 78.2069 2.94203 78.2134 2.94203C 78.22 2.94203 78.2265 2.94203 78.233 2.94203C 78.2395 2.94203 78.246 2.94203 78.2526 2.94203C 78.2591 2.94203 78.2656 2.94203 78.2721 2.94203C 78.2786 2.94203 78.2851 2.94203 78.2917 2.94203C 78.2982 2.94203 78.3047 2.94203 78.3112 2.94203C 78.3177 2.94203 78.3243 2.94203 78.3308 2.94203C 78.3373 2.94203 78.3438 2.94203 78.3503 2.94203C 78.3568 2.94203 78.3634 2.94203 78.3699 2.94203C 78.3764 2.94203 78.3829 2.94203 78.3894 2.94203C 78.3959 2.94203 78.4025 2.94203 78.409 2.94203C 78.4155 2.94203 78.422 2.94203 78.4285 2.94203C 78.4351 2.94203 78.4416 2.94203 78.4481 2.94203C 78.4546 2.94203 78.4611 2.94203 78.4676 2.94203C 78.4742 2.94203 78.4807 2.94203 78.4872 2.94203C 78.4937 2.94203 78.5002 2.94203 78.5068 2.94203C 78.5133 2.94203 78.5198 2.94203 78.5263 2.94203C 78.5328 2.94203 78.5393 2.94203 78.5459 2.94203C 78.5524 2.94203 78.5589 2.94203 78.5654 2.94203C 78.5719 2.94203 78.5784 2.94203 78.585 2.94203C 78.5915 2.94203 78.598 2.94203 78.6045 2.94203C 78.611 2.94203 78.6176 2.94203 78.6241 2.94203C 78.6306 2.94203 78.6371 2.94203 78.6436 2.94203C 78.6501 2.94203 78.6567 2.94203 78.6632 2.94203C 78.6697 2.94203 78.6762 2.94203 78.6827 2.94203C 78.6893 2.94203 78.6958 2.94203 78.7023 2.94203C 78.7088 2.94203 78.7153 2.94203 78.7218 2.94203C 78.7284 2.94203 78.7349 2.94203 78.7414 2.94203C 78.7479 2.94203 78.7544 2.94203 78.7609 2.94203C 78.7675 2.94203 78.774 2.94203 78.7805 2.94203C 78.787 2.94203 78.7935 2.94203 78.8001 2.94203C 78.8066 2.94203 78.8131 2.94203 78.8196 2.94203C 78.8261 2.94203 78.8326 2.94203 78.8392 2.94203C 78.8457 2.94203 78.8522 2.94203 78.8587 2.94203C 78.8652 2.94203 78.8718 2.94203 78.8783 2.94203C 78.8848 2.94203 78.8913 2.94203 78.8978 2.94203C 78.9043 2.94203 78.9109 2.94203 78.9174 2.94203C 78.9239 2.94203 78.9304 2.94203 78.9369 2.94203C 78.9434 2.94203 78.95 2.94203 78.9565 2.94203C 78.963 2.94203 78.9695 2.94203 78.976 2.94203C 78.9826 2.94203 78.9891 2.94203 78.9956 2.94203C 79.0021 2.94203 79.0086 2.94203 79.0151 2.94203C 79.0217 2.94203 79.0282 2.94203 79.0347 2.94203C 79.0412 2.94203 79.0477 2.94203 79.0543 2.94203C 79.0608 2.94203 79.0673 2.94203 79.0738 2.94203C 79.0803 2.94203 79.0868 2.94203 79.0934 2.94203C 79.0999 2.94203 79.1064 2.94203 79.1129 2.94203C 79.1194 2.94203 79.1259 2.94203 79.1325 2.94203C 79.139 2.94203 79.1455 2.94203 79.152 2.94203C 79.1585 2.94203 79.1651 2.94203 79.1716 2.94203C 79.1781 2.94203 79.1846 2.94203 79.1911 2.94203C 79.1976 2.94203 79.2042 2.94203 79.2107 2.94203C 79.2172 2.94203 79.2237 2.94203 79.2302 2.94203C 79.2368 2.94203 79.2433 2.94203 79.2498 2.94203C 79.2563 2.94203 79.2628 2.94203 79.2693 2.94203C 79.2759 2.94203 79.2824 2.94203 79.2889 2.94203C 79.2954 2.94203 79.3019 2.94203 79.3084 2.94203C 79.315 2.94203 79.3215 2.94203 79.328 2.94203C 79.3345 2.94203 79.341 2.94203 79.3476 2.94203C 79.3541 2.94203 79.3606 2.94203 79.3671 2.94203C 79.3736 2.94203 79.3801 2.94203 79.3867 2.94203C 79.3932 2.94203 79.3997 2.94203 79.4062 2.94203C 79.4127 2.94203 79.4193 2.94203 79.4258 2.94203C 79.4323 2.94203 79.4388 2.94203 79.4453 2.94203C 79.4518 2.94203 79.4584 2.94203 79.4649 2.94203C 79.4714 2.94203 79.4779 2.94203 79.4844 2.94203C 79.4909 2.94203 79.4975 2.94203 79.504 2.94203C 79.5105 2.94203 79.517 2.94203 79.5235 2.94203C 79.5301 2.94203 79.5366 2.94203 79.5431 2.94203C 79.5496 2.94203 79.5561 2.94203 79.5626 2.94203C 79.5692 2.94203 79.5757 2.94203 79.5822 2.94203C 79.5887 2.94203 79.5952 2.94203 79.6018 2.94203C 79.6083 2.94203 79.6148 2.94203 79.6213 2.94203C 79.6278 2.94203 79.6343 2.94203 79.6409 2.94203C 79.6474 2.94203 79.6539 2.94203 79.6604 2.94203C 79.6669 2.94203 79.6734 2.94203 79.68 2.94203C 79.6865 2.94203 79.693 2.94203 79.6995 2.94203C 79.706 2.94203 79.7126 2.94203 79.7191 2.94203C 79.7256 2.94203 79.7321 2.94203 79.7386 2.94203C 79.7451 2.94203 79.7517 2.94203 79.7582 2.94203C 79.7647 2.94203 79.7712 2.94203 79.7777 2.94203C 79.7843 2.94203 79.7908 2.94203 79.7973 2.94203C 79.8038 2.94203 79.8103 2.94203 79.8168 2.94203C 79.8234 2.94203 79.8299 2.94203 79.8364 2.94203C 79.8429 2.94203 79.8494 2.94203 79.8559 2.94203C 79.8625 2.94203 79.869 2.94203 79.8755 2.94203C 79.882 2.94203 79.8885 2.94203 79.8951 2.94203C 79.9016 2.94203 79.9081 2.94203 79.9146 2.94203C 79.9211 2.94203 79.9276 2.94203 79.9342 2.94203C 79.9407 2.94203 79.9472 2.94203 79.9537 2.94203C 79.9602 2.94203 79.9668 2.94203 79.9733 2.94203C 79.9798 2.94203 79.9863 2.94203 79.9928 2.94203C 79.9993 2.94203 80.0059 2.94203 80.0124 2.94203C 80.0189 2.94203 80.0254 2.94203 80.0319 2.94203C 80.0384 2.94203 80.045 2.94203 80.0515 2.94203C 80.058 2.94203 80.0645 2.94203 80.071 2.94203C 80.0776 2.94203 80.0841 2.94203 80.0906 2.94203C 80.0971 2.94203 80.1036 2.94203 80.1101 2.94203C 80.1167 2.94203 80.1232 2.94203 80.1297 2.94203C 80.1362 2.94203 80.1427 2.94203 80.1493 2.94203C 80.1558 2.94203 80.1623 2.94203 80.1688 2.94203C 80.1753 2.94203 80.1818 2.94203 80.1884 2.94203C 80.1949 2.94203 80.2014 2.94203 80.2079 2.94203C 80.2144 2.94203 80.2209 2.94203 80.2275 2.94203C 80.234 2.94203 80.2405 2.94203 80.247 2.94203C 80.2535 2.94203 80.2601 2.94203 80.2666 2.94203C 80.2731 2.94203 80.2796 2.94203 80.2861 2.94203C 80.2926 2.94203 80.2992 2.94203 80.3057 2.94203C 80.3122 2.94203 80.3187 2.94203 80.3252 2.94203C 80.3318 2.94203 80.3383 2.94203 80.3448 2.94203C 80.3513 2.94203 80.3578 2.94203 80.3643 2.94203C 80.3709 2.94203 80.3774 2.94203 80.3839 2.94203C 80.3904 2.94203 80.3969 2.94203 80.4034 2.94203C 80.41 2.94203 80.4165 2.94203 80.423 2.94203C 80.4295 2.94203 80.436 2.94203 80.4426 2.94203C 80.4491 2.94203 80.4556 2.94203 80.4621 2.94203C 80.4686 2.94203 80.4751 2.94203 80.4817 2.94203C 80.4882 2.94203 80.4947 2.94203 80.5012 2.94203C 80.5077 2.94203 80.5143 2.94203 80.5208 2.94203C 80.5273 2.94203 80.5338 2.94203 80.5403 2.94203C 80.5468 2.94203 80.5534 2.94203 80.5599 2.94203C 80.5664 2.94203 80.5729 2.94203 80.5794 2.94203C 80.5859 2.94203 80.5925 2.94203 80.599 2.94203C 80.6055 2.94203 80.612 2.94203 80.6185 2.94203C 80.6251 2.94203 80.6316 2.94203 80.6381 2.94203C 80.6446 2.94203 80.6511 2.94203 80.6576 2.94203C 80.6642 2.94203 80.6707 2.94203 80.6772 2.94203C 80.6837 2.94203 80.6902 2.94203 80.6968 2.94203C 80.7033 2.94203 80.7098 2.94203 80.7163 2.94203C 80.7228 2.94203 80.7293 2.94203 80.7359 2.94203C 80.7424 2.94203 80.7489 2.94203 80.7554 2.94203C 80.7619 2.94203 80.7684 2.94203 80.775 2.94203C 80.7815 2.94203 80.788 2.94203 80.7945 2.94203C 80.801 2.94203 80.8076 2.94203 80.8141 2.94203C 80.8206 2.94203 80.8271 2.94203 80.8336 2.94203C 80.8401 2.94203 80.8467 2.94203 80.8532 2.94203C 80.8597 2.94203 80.8662 2.94203 80.8727 2.94203C 80.8793 2.94203 80.8858 2.94203 80.8923 2.94203C 80.8988 2.94203 80.9053 2.94203 80.9118 2.94203C 80.9184 2.94203 80.9249 2.94203 80.9314 2.94203C 80.9379 2.94203 80.9444 2.94203 80.9509 2.94203C 80.9575 2.94203 80.964 2.94203 80.9705 2.94203C 80.977 2.94203 80.9835 2.94203 80.9901 2.94203C 80.9966 2.94203 81.0031 2.94203 81.0096 2.94203C 81.0161 2.94203 81.0226 2.94203 81.0292 2.94203C 81.0357 2.94203 81.0422 2.94203 81.0487 2.94203C 81.0552 2.94203 81.0618 2.94203 81.0683 2.94203C 81.0748 2.94203 81.0813 2.94203 81.0878 2.94203C 81.0943 2.94203 81.1009 2.94203 81.1074 2.94203C 81.1139 2.94203 81.1204 2.94203 81.1269 2.94203C 81.1334 2.94203 81.14 2.94203 81.1465 2.94203C 81.153 2.94203 81.1595 2.94203 81.166 2.94203C 81.1726 2.94203 81.1791 2.94203 81.1856 2.94203C 81.1921 2.94203 81.1986 2.94203 81.2051 2.94203C 81.2117 2.94203 81.2182 2.94203 81.2247 2.94203C 81.2312 2.94203 81.2377 2.94203 81.2443 2.94203C 81.2508 2.94203 81.2573 2.94203 81.2638 2.94203C 81.2703 2.94203 81.2768 2.94203 81.2834 2.94203C 81.2899 2.94203 81.2964 2.94203 81.3029 2.94203C 81.3094 2.94203 81.3159 2.94203 81.3225 2.94203C 81.329 2.94203 81.3355 2.94203 81.342 2.94203C 81.3485 2.94203 81.3551 2.94203 81.3616 2.94203C 81.3681 2.94203 81.3746 2.94203 81.3811 2.94203C 81.3876 2.94203 81.3942 2.94203 81.4007 2.94203C 81.4072 2.94203 81.4137 2.94203 81.4202 2.94203C 81.4268 2.94203 81.4333 2.94203 81.4398 2.94203C 81.4463 2.94203 81.4528 2.94203 81.4593 2.94203C 81.4659 2.94203 81.4724 2.94203 81.4789 2.94203C 81.4854 2.94203 81.4919 2.94203 81.4984 2.94203C 81.505 2.94203 81.5115 2.94203 81.518 2.94203C 81.5245 2.94203 81.531 2.94203 81.5376 2.94203C 81.5441 2.94203 81.5506 2.94203 81.5571 2.94203C 81.5636 2.94203 81.5701 2.94203 81.5767 2.94203C 81.5832 2.94203 81.5897 2.94203 81.5962 2.94203C 81.6027 2.94203 81.6093 2.94203 81.6158 2.94203C 81.6223 2.94203 81.6288 2.94203 81.6353 2.94203C 81.6418 2.94203 81.6484 2.94203 81.6549 2.94203C 81.6614 2.94203 81.6679 2.94203 81.6744 2.94203C 81.6809 2.94203 81.6875 2.94203 81.694 2.94203C 81.7005 2.94203 81.707 2.94203 81.7135 2.94203C 81.7201 2.94203 81.7266 2.94203 81.7331 2.94203C 81.7396 2.94203 81.7461 2.94203 81.7526 2.94203C 81.7592 2.94203 81.7657 2.94203 81.7722 2.94203C 81.7787 2.94203 81.7852 2.94203 81.7918 2.94203C 81.7983 2.94203 81.8048 2.94203 81.8113 2.94203C 81.8178 2.94203 81.8243 2.94203 81.8309 2.94203C 81.8374 2.94203 81.8439 2.94203 81.8504 2.94203C 81.8569 2.94203 81.8634 2.94203 81.87 2.94203C 81.8765 2.94203 81.883 2.94203 81.8895 2.94203C 81.896 2.94203 81.9026 2.94203 81.9091 2.94203C 81.9156 2.94203 81.9221 2.94203 81.9286 2.94203C 81.9351 2.94203 81.9417 2.94203 81.9482 2.94203C 81.9547 2.94203 81.9612 2.94203 81.9677 2.94203C 81.9743 2.94203 81.9808 2.94203 81.9873 2.94203C 81.9938 2.94203 82.0003 2.94203 82.0068 2.94203C 82.0134 2.94203 82.0199 2.94203 82.0264 2.94203C 82.0329 2.94203 82.0394 2.94203 82.0459 2.94203C 82.0525 2.94203 82.059 2.94203 82.0655 2.94203C 82.072 2.94203 82.0785 2.94203 82.0851 2.94203C 82.0916 2.94203 82.0981 2.94203 82.1046 2.94203C 82.1111 2.94203 82.1176 2.94203 82.1242 2.94203C 82.1307 2.94203 82.1372 2.94203 82.1437 2.94203C 82.1502 2.94203 82.1568 2.94203 82.1633 2.94203C 82.1698 2.94203 82.1763 2.94203 82.1828 2.94203C 82.1893 2.94203 82.1959 2.94203 82.2024 2.94203C 82.2089 2.94203 82.2154 2.94203 82.2219 2.94203C 82.2284 2.94203 82.235 2.94203 82.2415 2.94203C 82.248 2.94203 82.2545 2.94203 82.261 2.94203C 82.2676 2.94203 82.2741 2.94203 82.2806 2.94203C 82.2871 2.94203 82.2936 2.94203 82.3001 2.94203C 82.3067 2.94203 82.3132 2.94203 82.3197 2.94203C 82.3262 2.94203 82.3327 2.94203 82.3393 2.94203C 82.3458 2.94203 82.3523 2.94203 82.3588 2.94203C 82.3653 2.94203 82.3718 2.94203 82.3784 2.94203C 82.3849 2.94203 82.3914 2.94203 82.3979 2.94203C 82.4044 2.94203 82.4109 2.94203 82.4175 2.94203C 82.424 2.94203 82.4305 2.94203 82.437 2.94203C 82.4435 2.94203 82.4501 2.94203 82.4566 2.94203C 82.4631 2.94203 82.4696 2.94203 82.4761 2.94203C 82.4826 2.94203 82.4892 2.94203 82.4957 2.94203C 82.5022 2.94203 82.5087 2.94203 82.5152 2.94203L 82.5152 0.942029C 82.5087 0.942029 82.5022 0.942029 82.4957 0.942029C 82.4892 0.942029 82.4826 0.942029 82.4761 0.942029C 82.4696 0.942029 82.4631 0.942029 82.4566 0.942029C 82.4501 0.942029 82.4435 0.942029 82.437 0.942029C 82.4305 0.942029 82.424 0.942029 82.4175 0.942029C 82.4109 0.942029 82.4044 0.942029 82.3979 0.942029C 82.3914 0.942029 82.3849 0.942029 82.3784 0.942029C 82.3718 0.942029 82.3653 0.942029 82.3588 0.942029C 82.3523 0.942029 82.3458 0.942029 82.3393 0.942029C 82.3327 0.942029 82.3262 0.942029 82.3197 0.942029C 82.3132 0.942029 82.3067 0.942029 82.3001 0.942029C 82.2936 0.942029 82.2871 0.942029 82.2806 0.942029C 82.2741 0.942029 82.2676 0.942029 82.261 0.942029C 82.2545 0.942029 82.248 0.942029 82.2415 0.942029C 82.235 0.942029 82.2284 0.942029 82.2219 0.942029C 82.2154 0.942029 82.2089 0.942029 82.2024 0.942029C 82.1959 0.942029 82.1893 0.942029 82.1828 0.942029C 82.1763 0.942029 82.1698 0.942029 82.1633 0.942029C 82.1568 0.942029 82.1502 0.942029 82.1437 0.942029C 82.1372 0.942029 82.1307 0.942029 82.1242 0.942029C 82.1176 0.942029 82.1111 0.942029 82.1046 0.942029C 82.0981 0.942029 82.0916 0.942029 82.0851 0.942029C 82.0785 0.942029 82.072 0.942029 82.0655 0.942029C 82.059 0.942029 82.0525 0.942029 82.0459 0.942029C 82.0394 0.942029 82.0329 0.942029 82.0264 0.942029C 82.0199 0.942029 82.0134 0.942029 82.0068 0.942029C 82.0003 0.942029 81.9938 0.942029 81.9873 0.942029C 81.9808 0.942029 81.9743 0.942029 81.9677 0.942029C 81.9612 0.942029 81.9547 0.942029 81.9482 0.942029C 81.9417 0.942029 81.9351 0.942029 81.9286 0.942029C 81.9221 0.942029 81.9156 0.942029 81.9091 0.942029C 81.9026 0.942029 81.896 0.942029 81.8895 0.942029C 81.883 0.942029 81.8765 0.942029 81.87 0.942029C 81.8634 0.942029 81.8569 0.942029 81.8504 0.942029C 81.8439 0.942029 81.8374 0.942029 81.8309 0.942029C 81.8243 0.942029 81.8178 0.942029 81.8113 0.942029C 81.8048 0.942029 81.7983 0.942029 81.7918 0.942029C 81.7852 0.942029 81.7787 0.942029 81.7722 0.942029C 81.7657 0.942029 81.7592 0.942029 81.7526 0.942029C 81.7461 0.942029 81.7396 0.942029 81.7331 0.942029C 81.7266 0.942029 81.7201 0.942029 81.7135 0.942029C 81.707 0.942029 81.7005 0.942029 81.694 0.942029C 81.6875 0.942029 81.6809 0.942029 81.6744 0.942029C 81.6679 0.942029 81.6614 0.942029 81.6549 0.942029C 81.6484 0.942029 81.6418 0.942029 81.6353 0.942029C 81.6288 0.942029 81.6223 0.942029 81.6158 0.942029C 81.6093 0.942029 81.6027 0.942029 81.5962 0.942029C 81.5897 0.942029 81.5832 0.942029 81.5767 0.942029C 81.5701 0.942029 81.5636 0.942029 81.5571 0.942029C 81.5506 0.942029 81.5441 0.942029 81.5376 0.942029C 81.531 0.942029 81.5245 0.942029 81.518 0.942029C 81.5115 0.942029 81.505 0.942029 81.4984 0.942029C 81.4919 0.942029 81.4854 0.942029 81.4789 0.942029C 81.4724 0.942029 81.4659 0.942029 81.4593 0.942029C 81.4528 0.942029 81.4463 0.942029 81.4398 0.942029C 81.4333 0.942029 81.4268 0.942029 81.4202 0.942029C 81.4137 0.942029 81.4072 0.942029 81.4007 0.942029C 81.3942 0.942029 81.3876 0.942029 81.3811 0.942029C 81.3746 0.942029 81.3681 0.942029 81.3616 0.942029C 81.3551 0.942029 81.3485 0.942029 81.342 0.942029C 81.3355 0.942029 81.329 0.942029 81.3225 0.942029C 81.3159 0.942029 81.3094 0.942029 81.3029 0.942029C 81.2964 0.942029 81.2899 0.942029 81.2834 0.942029C 81.2768 0.942029 81.2703 0.942029 81.2638 0.942029C 81.2573 0.942029 81.2508 0.942029 81.2443 0.942029C 81.2377 0.942029 81.2312 0.942029 81.2247 0.942029C 81.2182 0.942029 81.2117 0.942029 81.2051 0.942029C 81.1986 0.942029 81.1921 0.942029 81.1856 0.942029C 81.1791 0.942029 81.1726 0.942029 81.166 0.942029C 81.1595 0.942029 81.153 0.942029 81.1465 0.942029C 81.14 0.942029 81.1334 0.942029 81.1269 0.942029C 81.1204 0.942029 81.1139 0.942029 81.1074 0.942029C 81.1009 0.942029 81.0943 0.942029 81.0878 0.942029C 81.0813 0.942029 81.0748 0.942029 81.0683 0.942029C 81.0618 0.942029 81.0552 0.942029 81.0487 0.942029C 81.0422 0.942029 81.0357 0.942029 81.0292 0.942029C 81.0226 0.942029 81.0161 0.942029 81.0096 0.942029C 81.0031 0.942029 80.9966 0.942029 80.9901 0.942029C 80.9835 0.942029 80.977 0.942029 80.9705 0.942029C 80.964 0.942029 80.9575 0.942029 80.9509 0.942029C 80.9444 0.942029 80.9379 0.942029 80.9314 0.942029C 80.9249 0.942029 80.9184 0.942029 80.9118 0.942029C 80.9053 0.942029 80.8988 0.942029 80.8923 0.942029C 80.8858 0.942029 80.8793 0.942029 80.8727 0.942029C 80.8662 0.942029 80.8597 0.942029 80.8532 0.942029C 80.8467 0.942029 80.8401 0.942029 80.8336 0.942029C 80.8271 0.942029 80.8206 0.942029 80.8141 0.942029C 80.8076 0.942029 80.801 0.942029 80.7945 0.942029C 80.788 0.942029 80.7815 0.942029 80.775 0.942029C 80.7684 0.942029 80.7619 0.942029 80.7554 0.942029C 80.7489 0.942029 80.7424 0.942029 80.7359 0.942029C 80.7293 0.942029 80.7228 0.942029 80.7163 0.942029C 80.7098 0.942029 80.7033 0.942029 80.6968 0.942029C 80.6902 0.942029 80.6837 0.942029 80.6772 0.942029C 80.6707 0.942029 80.6642 0.942029 80.6576 0.942029C 80.6511 0.942029 80.6446 0.942029 80.6381 0.942029C 80.6316 0.942029 80.6251 0.942029 80.6185 0.942029C 80.612 0.942029 80.6055 0.942029 80.599 0.942029C 80.5925 0.942029 80.5859 0.942029 80.5794 0.942029C 80.5729 0.942029 80.5664 0.942029 80.5599 0.942029C 80.5534 0.942029 80.5468 0.942029 80.5403 0.942029C 80.5338 0.942029 80.5273 0.942029 80.5208 0.942029C 80.5143 0.942029 80.5077 0.942029 80.5012 0.942029C 80.4947 0.942029 80.4882 0.942029 80.4817 0.942029C 80.4751 0.942029 80.4686 0.942029 80.4621 0.942029C 80.4556 0.942029 80.4491 0.942029 80.4426 0.942029C 80.436 0.942029 80.4295 0.942029 80.423 0.942029C 80.4165 0.942029 80.41 0.942029 80.4034 0.942029C 80.3969 0.942029 80.3904 0.942029 80.3839 0.942029C 80.3774 0.942029 80.3709 0.942029 80.3643 0.942029C 80.3578 0.942029 80.3513 0.942029 80.3448 0.942029C 80.3383 0.942029 80.3318 0.942029 80.3252 0.942029C 80.3187 0.942029 80.3122 0.942029 80.3057 0.942029C 80.2992 0.942029 80.2926 0.942029 80.2861 0.942029C 80.2796 0.942029 80.2731 0.942029 80.2666 0.942029C 80.2601 0.942029 80.2535 0.942029 80.247 0.942029C 80.2405 0.942029 80.234 0.942029 80.2275 0.942029C 80.2209 0.942029 80.2144 0.942029 80.2079 0.942029C 80.2014 0.942029 80.1949 0.942029 80.1884 0.942029C 80.1818 0.942029 80.1753 0.942029 80.1688 0.942029C 80.1623 0.942029 80.1558 0.942029 80.1493 0.942029C 80.1427 0.942029 80.1362 0.942029 80.1297 0.942029C 80.1232 0.942029 80.1167 0.942029 80.1101 0.942029C 80.1036 0.942029 80.0971 0.942029 80.0906 0.942029C 80.0841 0.942029 80.0776 0.942029 80.071 0.942029C 80.0645 0.942029 80.058 0.942029 80.0515 0.942029C 80.045 0.942029 80.0384 0.942029 80.0319 0.942029C 80.0254 0.942029 80.0189 0.942029 80.0124 0.942029C 80.0059 0.942029 79.9993 0.942029 79.9928 0.942029C 79.9863 0.942029 79.9798 0.942029 79.9733 0.942029C 79.9668 0.942029 79.9602 0.942029 79.9537 0.942029C 79.9472 0.942029 79.9407 0.942029 79.9342 0.942029C 79.9276 0.942029 79.9211 0.942029 79.9146 0.942029C 79.9081 0.942029 79.9016 0.942029 79.8951 0.942029C 79.8885 0.942029 79.882 0.942029 79.8755 0.942029C 79.869 0.942029 79.8625 0.942029 79.8559 0.942029C 79.8494 0.942029 79.8429 0.942029 79.8364 0.942029C 79.8299 0.942029 79.8234 0.942029 79.8168 0.942029C 79.8103 0.942029 79.8038 0.942029 79.7973 0.942029C 79.7908 0.942029 79.7843 0.942029 79.7777 0.942029C 79.7712 0.942029 79.7647 0.942029 79.7582 0.942029C 79.7517 0.942029 79.7451 0.942029 79.7386 0.942029C 79.7321 0.942029 79.7256 0.942029 79.7191 0.942029C 79.7126 0.942029 79.706 0.942029 79.6995 0.942029C 79.693 0.942029 79.6865 0.942029 79.68 0.942029C 79.6734 0.942029 79.6669 0.942029 79.6604 0.942029C 79.6539 0.942029 79.6474 0.942029 79.6409 0.942029C 79.6343 0.942029 79.6278 0.942029 79.6213 0.942029C 79.6148 0.942029 79.6083 0.942029 79.6018 0.942029C 79.5952 0.942029 79.5887 0.942029 79.5822 0.942029C 79.5757 0.942029 79.5692 0.942029 79.5626 0.942029C 79.5561 0.942029 79.5496 0.942029 79.5431 0.942029C 79.5366 0.942029 79.5301 0.942029 79.5235 0.942029C 79.517 0.942029 79.5105 0.942029 79.504 0.942029C 79.4975 0.942029 79.4909 0.942029 79.4844 0.942029C 79.4779 0.942029 79.4714 0.942029 79.4649 0.942029C 79.4584 0.942029 79.4518 0.942029 79.4453 0.942029C 79.4388 0.942029 79.4323 0.942029 79.4258 0.942029C 79.4193 0.942029 79.4127 0.942029 79.4062 0.942029C 79.3997 0.942029 79.3932 0.942029 79.3867 0.942029C 79.3801 0.942029 79.3736 0.942029 79.3671 0.942029C 79.3606 0.942029 79.3541 0.942029 79.3476 0.942029C 79.341 0.942029 79.3345 0.942029 79.328 0.942029C 79.3215 0.942029 79.315 0.942029 79.3084 0.942029C 79.3019 0.942029 79.2954 0.942029 79.2889 0.942029C 79.2824 0.942029 79.2759 0.942029 79.2693 0.942029C 79.2628 0.942029 79.2563 0.942029 79.2498 0.942029C 79.2433 0.942029 79.2368 0.942029 79.2302 0.942029C 79.2237 0.942029 79.2172 0.942029 79.2107 0.942029C 79.2042 0.942029 79.1976 0.942029 79.1911 0.942029C 79.1846 0.942029 79.1781 0.942029 79.1716 0.942029C 79.1651 0.942029 79.1585 0.942029 79.152 0.942029C 79.1455 0.942029 79.139 0.942029 79.1325 0.942029C 79.1259 0.942029 79.1194 0.942029 79.1129 0.942029C 79.1064 0.942029 79.0999 0.942029 79.0934 0.942029C 79.0868 0.942029 79.0803 0.942029 79.0738 0.942029C 79.0673 0.942029 79.0608 0.942029 79.0543 0.942029C 79.0477 0.942029 79.0412 0.942029 79.0347 0.942029C 79.0282 0.942029 79.0217 0.942029 79.0151 0.942029C 79.0086 0.942029 79.0021 0.942029 78.9956 0.942029C 78.9891 0.942029 78.9826 0.942029 78.976 0.942029C 78.9695 0.942029 78.963 0.942029 78.9565 0.942029C 78.95 0.942029 78.9434 0.942029 78.9369 0.942029C 78.9304 0.942029 78.9239 0.942029 78.9174 0.942029C 78.9109 0.942029 78.9043 0.942029 78.8978 0.942029C 78.8913 0.942029 78.8848 0.942029 78.8783 0.942029C 78.8718 0.942029 78.8652 0.942029 78.8587 0.942029C 78.8522 0.942029 78.8457 0.942029 78.8392 0.942029C 78.8326 0.942029 78.8261 0.942029 78.8196 0.942029C 78.8131 0.942029 78.8066 0.942029 78.8001 0.942029C 78.7935 0.942029 78.787 0.942029 78.7805 0.942029C 78.774 0.942029 78.7675 0.942029 78.7609 0.942029C 78.7544 0.942029 78.7479 0.942029 78.7414 0.942029C 78.7349 0.942029 78.7284 0.942029 78.7218 0.942029C 78.7153 0.942029 78.7088 0.942029 78.7023 0.942029C 78.6958 0.942029 78.6893 0.942029 78.6827 0.942029C 78.6762 0.942029 78.6697 0.942029 78.6632 0.942029C 78.6567 0.942029 78.6501 0.942029 78.6436 0.942029C 78.6371 0.942029 78.6306 0.942029 78.6241 0.942029C 78.6176 0.942029 78.611 0.942029 78.6045 0.942029C 78.598 0.942029 78.5915 0.942029 78.585 0.942029C 78.5784 0.942029 78.5719 0.942029 78.5654 0.942029C 78.5589 0.942029 78.5524 0.942029 78.5459 0.942029C 78.5393 0.942029 78.5328 0.942029 78.5263 0.942029C 78.5198 0.942029 78.5133 0.942029 78.5068 0.942029C 78.5002 0.942029 78.4937 0.942029 78.4872 0.942029C 78.4807 0.942029 78.4742 0.942029 78.4676 0.942029C 78.4611 0.942029 78.4546 0.942029 78.4481 0.942029C 78.4416 0.942029 78.4351 0.942029 78.4285 0.942029C 78.422 0.942029 78.4155 0.942029 78.409 0.942029C 78.4025 0.942029 78.3959 0.942029 78.3894 0.942029C 78.3829 0.942029 78.3764 0.942029 78.3699 0.942029C 78.3634 0.942029 78.3568 0.942029 78.3503 0.942029C 78.3438 0.942029 78.3373 0.942029 78.3308 0.942029C 78.3243 0.942029 78.3177 0.942029 78.3112 0.942029C 78.3047 0.942029 78.2982 0.942029 78.2917 0.942029C 78.2851 0.942029 78.2786 0.942029 78.2721 0.942029C 78.2656 0.942029 78.2591 0.942029 78.2526 0.942029C 78.246 0.942029 78.2395 0.942029 78.233 0.942029C 78.2265 0.942029 78.22 0.942029 78.2134 0.942029C 78.2069 0.942029 78.2004 0.942029 78.1939 0.942029C 78.1874 0.942029 78.1809 0.942029 78.1743 0.942029C 78.1678 0.942029 78.1613 0.942029 78.1548 0.942029C 78.1483 0.942029 78.1418 0.942029 78.1352 0.942029C 78.1287 0.942029 78.1222 0.942029 78.1157 0.942029C 78.1092 0.942029 78.1026 0.942029 78.0961 0.942029C 78.0896 0.942029 78.0831 0.942029 78.0766 0.942029C 78.0701 0.942029 78.0635 0.942029 78.057 0.942029C 78.0505 0.942029 78.044 0.942029 78.0375 0.942029C 78.0309 0.942029 78.0244 0.942029 78.0179 0.942029C 78.0114 0.942029 78.0049 0.942029 77.9984 0.942029C 77.9918 0.942029 77.9853 0.942029 77.9788 0.942029C 77.9723 0.942029 77.9658 0.942029 77.9593 0.942029C 77.9527 0.942029 77.9462 0.942029 77.9397 0.942029C 77.9332 0.942029 77.9267 0.942029 77.9201 0.942029C 77.9136 0.942029 77.9071 0.942029 77.9006 0.942029C 77.8941 0.942029 77.8876 0.942029 77.881 0.942029C 77.8745 0.942029 77.868 0.942029 77.8615 0.942029C 77.855 0.942029 77.8484 0.942029 77.8419 0.942029C 77.8354 0.942029 77.8289 0.942029 77.8224 0.942029C 77.8159 0.942029 77.8093 0.942029 77.8028 0.942029C 77.7963 0.942029 77.7898 0.942029 77.7833 0.942029C 77.7768 0.942029 77.7702 0.942029 77.7637 0.942029C 77.7572 0.942029 77.7507 0.942029 77.7442 0.942029C 77.7376 0.942029 77.7311 0.942029 77.7246 0.942029C 77.7181 0.942029 77.7116 0.942029 77.7051 0.942029C 77.6985 0.942029 77.692 0.942029 77.6855 0.942029C 77.679 0.942029 77.6725 0.942029 77.6659 0.942029C 77.6594 0.942029 77.6529 0.942029 77.6464 0.942029C 77.6399 0.942029 77.6334 0.942029 77.6268 0.942029C 77.6203 0.942029 77.6138 0.942029 77.6073 0.942029C 77.6008 0.942029 77.5943 0.942029 77.5877 0.942029C 77.5812 0.942029 77.5747 0.942029 77.5682 0.942029C 77.5617 0.942029 77.5551 0.942029 77.5486 0.942029C 77.5421 0.942029 77.5356 0.942029 77.5291 0.942029C 77.5226 0.942029 77.516 0.942029 77.5095 0.942029C 77.503 0.942029 77.4965 0.942029 77.49 0.942029C 77.4834 0.942029 77.4769 0.942029 77.4704 0.942029C 77.4639 0.942029 77.4574 0.942029 77.4509 0.942029C 77.4443 0.942029 77.4378 0.942029 77.4313 0.942029C 77.4248 0.942029 77.4183 0.942029 77.4118 0.942029C 77.4052 0.942029 77.3987 0.942029 77.3922 0.942029C 77.3857 0.942029 77.3792 0.942029 77.3726 0.942029C 77.3661 0.942029 77.3596 0.942029 77.3531 0.942029C 77.3466 0.942029 77.3401 0.942029 77.3335 0.942029C 77.327 0.942029 77.3205 0.942029 77.314 0.942029C 77.3075 0.942029 77.3009 0.942029 77.2944 0.942029C 77.2879 0.942029 77.2814 0.942029 77.2749 0.942029C 77.2684 0.942029 77.2618 0.942029 77.2553 0.942029C 77.2488 0.942029 77.2423 0.942029 77.2358 0.942029C 77.2293 0.942029 77.2227 0.942029 77.2162 0.942029C 77.2097 0.942029 77.2032 0.942029 77.1967 0.942029C 77.1901 0.942029 77.1836 0.942029 77.1771 0.942029C 77.1706 0.942029 77.1641 0.942029 77.1576 0.942029C 77.151 0.942029 77.1445 0.942029 77.138 0.942029C 77.1315 0.942029 77.125 0.942029 77.1184 0.942029C 77.1119 0.942029 77.1054 0.942029 77.0989 0.942029C 77.0924 0.942029 77.0859 0.942029 77.0793 0.942029C 77.0728 0.942029 77.0663 0.942029 77.0598 0.942029C 77.0533 0.942029 77.0468 0.942029 77.0402 0.942029C 77.0337 0.942029 77.0272 0.942029 77.0207 0.942029C 77.0142 0.942029 77.0076 0.942029 77.0011 0.942029C 76.9946 0.942029 76.9881 0.942029 76.9816 0.942029C 76.9751 0.942029 76.9685 0.942029 76.962 0.942029C 76.9555 0.942029 76.949 0.942029 76.9425 0.942029C 76.9359 0.942029 76.9294 0.942029 76.9229 0.942029C 76.9164 0.942029 76.9099 0.942029 76.9034 0.942029C 76.8968 0.942029 76.8903 0.942029 76.8838 0.942029C 76.8773 0.942029 76.8708 0.942029 76.8643 0.942029C 76.8577 0.942029 76.8512 0.942029 76.8447 0.942029C 76.8382 0.942029 76.8317 0.942029 76.8251 0.942029C 76.8186 0.942029 76.8121 0.942029 76.8056 0.942029C 76.7991 0.942029 76.7926 0.942029 76.786 0.942029C 76.7795 0.942029 76.773 0.942029 76.7665 0.942029C 76.76 0.942029 76.7534 0.942029 76.7469 0.942029C 76.7404 0.942029 76.7339 0.942029 76.7274 0.942029C 76.7209 0.942029 76.7143 0.942029 76.7078 0.942029C 76.7013 0.942029 76.6948 0.942029 76.6883 0.942029C 76.6818 0.942029 76.6752 0.942029 76.6687 0.942029C 76.6622 0.942029 76.6557 0.942029 76.6492 0.942029C 76.6426 0.942029 76.6361 0.942029 76.6296 0.942029C 76.6231 0.942029 76.6166 0.942029 76.6101 0.942029C 76.6035 0.942029 76.597 0.942029 76.5905 0.942029C 76.584 0.942029 76.5775 0.942029 76.5709 0.942029C 76.5644 0.942029 76.5579 0.942029 76.5514 0.942029C 76.5449 0.942029 76.5384 0.942029 76.5318 0.942029C 76.5253 0.942029 76.5188 0.942029 76.5123 0.942029C 76.5058 0.942029 76.4993 0.942029 76.4927 0.942029C 76.4862 0.942029 76.4797 0.942029 76.4732 0.942029C 76.4667 0.942029 76.4601 0.942029 76.4536 0.942029C 76.4471 0.942029 76.4406 0.942029 76.4341 0.942029C 76.4276 0.942029 76.421 0.942029 76.4145 0.942029C 76.408 0.942029 76.4015 0.942029 76.395 0.942029C 76.3884 0.942029 76.3819 0.942029 76.3754 0.942029C 76.3689 0.942029 76.3624 0.942029 76.3559 0.942029C 76.3493 0.942029 76.3428 0.942029 76.3363 0.942029C 76.3298 0.942029 76.3233 0.942029 76.3168 0.942029C 76.3102 0.942029 76.3037 0.942029 76.2972 0.942029C 76.2907 0.942029 76.2842 0.942029 76.2776 0.942029C 76.2711 0.942029 76.2646 0.942029 76.2581 0.942029C 76.2516 0.942029 76.2451 0.942029 76.2385 0.942029C 76.232 0.942029 76.2255 0.942029 76.219 0.942029C 76.2125 0.942029 76.2059 0.942029 76.1994 0.942029C 76.1929 0.942029 76.1864 0.942029 76.1799 0.942029C 76.1734 0.942029 76.1668 0.942029 76.1603 0.942029C 76.1538 0.942029 76.1473 0.942029 76.1408 0.942029C 76.1343 0.942029 76.1277 0.942029 76.1212 0.942029C 76.1147 0.942029 76.1082 0.942029 76.1017 0.942029C 76.0951 0.942029 76.0886 0.942029 76.0821 0.942029C 76.0756 0.942029 76.0691 0.942029 76.0626 0.942029C 76.056 0.942029 76.0495 0.942029 76.043 0.942029C 76.0365 0.942029 76.03 0.942029 76.0234 0.942029C 76.0169 0.942029 76.0104 0.942029 76.0039 0.942029C 75.9974 0.942029 75.9909 0.942029 75.9843 0.942029C 75.9778 0.942029 75.9713 0.942029 75.9648 0.942029C 75.9583 0.942029 75.9518 0.942029 75.9452 0.942029C 75.9387 0.942029 75.9322 0.942029 75.9257 0.942029C 75.9192 0.942029 75.9126 0.942029 75.9061 0.942029C 75.8996 0.942029 75.8931 0.942029 75.8866 0.942029C 75.8801 0.942029 75.8735 0.942029 75.867 0.942029C 75.8605 0.942029 75.854 0.942029 75.8475 0.942029C 75.8409 0.942029 75.8344 0.942029 75.8279 0.942029C 75.8214 0.942029 75.8149 0.942029 75.8084 0.942029C 75.8018 0.942029 75.7953 0.942029 75.7888 0.942029C 75.7823 0.942029 75.7758 0.942029 75.7693 0.942029C 75.7627 0.942029 75.7562 0.942029 75.7497 0.942029C 75.7432 0.942029 75.7367 0.942029 75.7301 0.942029C 75.7236 0.942029 75.7171 0.942029 75.7106 0.942029C 75.7041 0.942029 75.6976 0.942029 75.691 0.942029C 75.6845 0.942029 75.678 0.942029 75.6715 0.942029C 75.665 0.942029 75.6584 0.942029 75.6519 0.942029C 75.6454 0.942029 75.6389 0.942029 75.6324 0.942029C 75.6259 0.942029 75.6193 0.942029 75.6128 0.942029C 75.6063 0.942029 75.5998 0.942029 75.5933 0.942029C 75.5868 0.942029 75.5802 0.942029 75.5737 0.942029C 75.5672 0.942029 75.5607 0.942029 75.5542 0.942029C 75.5476 0.942029 75.5411 0.942029 75.5346 0.942029C 75.5281 0.942029 75.5216 0.942029 75.5151 0.942029C 75.5085 0.942029 75.502 0.942029 75.4955 0.942029C 75.489 0.942029 75.4825 0.942029 75.4759 0.942029C 75.4694 0.942029 75.4629 0.942029 75.4564 0.942029C 75.4499 0.942029 75.4434 0.942029 75.4368 0.942029C 75.4303 0.942029 75.4238 0.942029 75.4173 0.942029C 75.4108 0.942029 75.4043 0.942029 75.3977 0.942029C 75.3912 0.942029 75.3847 0.942029 75.3782 0.942029C 75.3717 0.942029 75.3651 0.942029 75.3586 0.942029C 75.3521 0.942029 75.3456 0.942029 75.3391 0.942029C 75.3326 0.942029 75.326 0.942029 75.3195 0.942029C 75.313 0.942029 75.3065 0.942029 75.3 0.942029C 75.2934 0.942029 75.2869 0.942029 75.2804 0.942029C 75.2739 0.942029 75.2674 0.942029 75.2609 0.942029C 75.2543 0.942029 75.2478 0.942029 75.2413 0.942029C 75.2348 0.942029 75.2283 0.942029 75.2218 0.942029C 75.2152 0.942029 75.2087 0.942029 75.2022 0.942029C 75.1957 0.942029 75.1892 0.942029 75.1826 0.942029C 75.1761 0.942029 75.1696 0.942029 75.1631 0.942029C 75.1566 0.942029 75.1501 0.942029 75.1435 0.942029C 75.137 0.942029 75.1305 0.942029 75.124 0.942029C 75.1175 0.942029 75.1109 0.942029 75.1044 0.942029C 75.0979 0.942029 75.0914 0.942029 75.0849 0.942029C 75.0784 0.942029 75.0718 0.942029 75.0653 0.942029C 75.0588 0.942029 75.0523 0.942029 75.0458 0.942029C 75.0393 0.942029 75.0327 0.942029 75.0262 0.942029C 75.0197 0.942029 75.0132 0.942029 75.0067 0.942029C 75.0001 0.942029 74.9936 0.942029 74.9871 0.942029C 74.9806 0.942029 74.9741 0.942029 74.9676 0.942029C 74.961 0.942029 74.9545 0.942029 74.948 0.942029C 74.9415 0.942029 74.935 0.942029 74.9284 0.942029C 74.9219 0.942029 74.9154 0.942029 74.9089 0.942029C 74.9024 0.942029 74.8959 0.942029 74.8893 0.942029C 74.8828 0.942029 74.8763 0.942029 74.8698 0.942029C 74.8633 0.942029 74.8568 0.942029 74.8502 0.942029C 74.8437 0.942029 74.8372 0.942029 74.8307 0.942029C 74.8242 0.942029 74.8176 0.942029 74.8111 0.942029C 74.8046 0.942029 74.7981 0.942029 74.7916 0.942029C 74.7851 0.942029 74.7785 0.942029 74.772 0.942029C 74.7655 0.942029 74.759 0.942029 74.7525 0.942029C 74.7459 0.942029 74.7394 0.942029 74.7329 0.942029C 74.7264 0.942029 74.7199 0.942029 74.7134 0.942029C 74.7068 0.942029 74.7003 0.942029 74.6938 0.942029C 74.6873 0.942029 74.6808 0.942029 74.6743 0.942029C 74.6677 0.942029 74.6612 0.942029 74.6547 0.942029C 74.6482 0.942029 74.6417 0.942029 74.6351 0.942029C 74.6286 0.942029 74.6221 0.942029 74.6156 0.942029C 74.6091 0.942029 74.6026 0.942029 74.596 0.942029C 74.5895 0.942029 74.583 0.942029 74.5765 0.942029C 74.57 0.942029 74.5634 0.942029 74.5569 0.942029C 74.5504 0.942029 74.5439 0.942029 74.5374 0.942029C 74.5309 0.942029 74.5243 0.942029 74.5178 0.942029C 74.5113 0.942029 74.5048 0.942029 74.4983 0.942029C 74.4918 0.942029 74.4852 0.942029 74.4787 0.942029C 74.4722 0.942029 74.4657 0.942029 74.4592 0.942029C 74.4526 0.942029 74.4461 0.942029 74.4396 0.942029C 74.4331 0.942029 74.4266 0.942029 74.4201 0.942029C 74.4135 0.942029 74.407 0.942029 74.4005 0.942029C 74.394 0.942029 74.3875 0.942029 74.3809 0.942029C 74.3744 0.942029 74.3679 0.942029 74.3614 0.942029C 74.3549 0.942029 74.3484 0.942029 74.3418 0.942029C 74.3353 0.942029 74.3288 0.942029 74.3223 0.942029C 74.3158 0.942029 74.3093 0.942029 74.3027 0.942029C 74.2962 0.942029 74.2897 0.942029 74.2832 0.942029C 74.2767 0.942029 74.2701 0.942029 74.2636 0.942029C 74.2571 0.942029 74.2506 0.942029 74.2441 0.942029C 74.2376 0.942029 74.231 0.942029 74.2245 0.942029C 74.218 0.942029 74.2115 0.942029 74.205 0.942029C 74.1984 0.942029 74.1919 0.942029 74.1854 0.942029C 74.1789 0.942029 74.1724 0.942029 74.1659 0.942029C 74.1593 0.942029 74.1528 0.942029 74.1463 0.942029C 74.1398 0.942029 74.1333 0.942029 74.1268 0.942029C 74.1202 0.942029 74.1137 0.942029 74.1072 0.942029C 74.1007 0.942029 74.0942 0.942029 74.0876 0.942029C 74.0811 0.942029 74.0746 0.942029 74.0681 0.942029C 74.0616 0.942029 74.0551 0.942029 74.0485 0.942029C 74.042 0.942029 74.0355 0.942029 74.029 0.942029C 74.0225 0.942029 74.0159 0.942029 74.0094 0.942029C 74.0029 0.942029 73.9964 0.942029 73.9899 0.942029C 73.9834 0.942029 73.9768 0.942029 73.9703 0.942029C 73.9638 0.942029 73.9573 0.942029 73.9508 0.942029C 73.9443 0.942029 73.9377 0.942029 73.9312 0.942029C 73.9247 0.942029 73.9182 0.942029 73.9117 0.942029C 73.9051 0.942029 73.8986 0.942029 73.8921 0.942029C 73.8856 0.942029 73.8791 0.942029 73.8726 0.942029C 73.866 0.942029 73.8595 0.942029 73.853 0.942029C 73.8465 0.942029 73.84 0.942029 73.8334 0.942029C 73.8269 0.942029 73.8204 0.942029 73.8139 0.942029C 73.8074 0.942029 73.8009 0.942029 73.7943 0.942029C 73.7878 0.942029 73.7813 0.942029 73.7748 0.942029C 73.7683 0.942029 73.7618 0.942029 73.7552 0.942029C 73.7487 0.942029 73.7422 0.942029 73.7357 0.942029C 73.7292 0.942029 73.7226 0.942029 73.7161 0.942029C 73.7096 0.942029 73.7031 0.942029 73.6966 0.942029C 73.6901 0.942029 73.6835 0.942029 73.677 0.942029C 73.6705 0.942029 73.664 0.942029 73.6575 0.942029C 73.6509 0.942029 73.6444 0.942029 73.6379 0.942029C 73.6314 0.942029 73.6249 0.942029 73.6184 0.942029C 73.6118 0.942029 73.6053 0.942029 73.5988 0.942029C 73.5923 0.942029 73.5858 0.942029 73.5793 0.942029C 73.5727 0.942029 73.5662 0.942029 73.5597 0.942029C 73.5532 0.942029 73.5467 0.942029 73.5401 0.942029C 73.5336 0.942029 73.5271 0.942029 73.5206 0.942029C 73.5141 0.942029 73.5076 0.942029 73.501 0.942029C 73.4945 0.942029 73.488 0.942029 73.4815 0.942029C 73.475 0.942029 73.4684 0.942029 73.4619 0.942029C 73.4554 0.942029 73.4489 0.942029 73.4424 0.942029C 73.4359 0.942029 73.4293 0.942029 73.4228 0.942029C 73.4163 0.942029 73.4098 0.942029 73.4033 0.942029C 73.3968 0.942029 73.3902 0.942029 73.3837 0.942029C 73.3772 0.942029 73.3707 0.942029 73.3642 0.942029C 73.3576 0.942029 73.3511 0.942029 73.3446 0.942029C 73.3381 0.942029 73.3316 0.942029 73.3251 0.942029C 73.3185 0.942029 73.312 0.942029 73.3055 0.942029C 73.299 0.942029 73.2925 0.942029 73.2859 0.942029C 73.2794 0.942029 73.2729 0.942029 73.2664 0.942029C 73.2599 0.942029 73.2534 0.942029 73.2468 0.942029C 73.2403 0.942029 73.2338 0.942029 73.2273 0.942029C 73.2208 0.942029 73.2143 0.942029 73.2077 0.942029C 73.2012 0.942029 73.1947 0.942029 73.1882 0.942029C 73.1817 0.942029 73.1751 0.942029 73.1686 0.942029C 73.1621 0.942029 73.1556 0.942029 73.1491 0.942029C 73.1426 0.942029 73.136 0.942029 73.1295 0.942029C 73.123 0.942029 73.1165 0.942029 73.11 0.942029C 73.1034 0.942029 73.0969 0.942029 73.0904 0.942029C 73.0839 0.942029 73.0774 0.942029 73.0709 0.942029C 73.0643 0.942029 73.0578 0.942029 73.0513 0.942029C 73.0448 0.942029 73.0383 0.942029 73.0318 0.942029C 73.0252 0.942029 73.0187 0.942029 73.0122 0.942029C 73.0057 0.942029 72.9992 0.942029 72.9926 0.942029C 72.9861 0.942029 72.9796 0.942029 72.9731 0.942029C 72.9666 0.942029 72.9601 0.942029 72.9535 0.942029C 72.947 0.942029 72.9405 0.942029 72.934 0.942029C 72.9275 0.942029 72.9209 0.942029 72.9144 0.942029C 72.9079 0.942029 72.9014 0.942029 72.8949 0.942029C 72.8884 0.942029 72.8818 0.942029 72.8753 0.942029C 72.8688 0.942029 72.8623 0.942029 72.8558 0.942029C 72.8493 0.942029 72.8427 0.942029 72.8362 0.942029C 72.8297 0.942029 72.8232 0.942029 72.8167 0.942029C 72.8101 0.942029 72.8036 0.942029 72.7971 0.942029C 72.7906 0.942029 72.7841 0.942029 72.7776 0.942029C 72.771 0.942029 72.7645 0.942029 72.758 0.942029C 72.7515 0.942029 72.745 0.942029 72.7384 0.942029C 72.7319 0.942029 72.7254 0.942029 72.7189 0.942029C 72.7124 0.942029 72.7059 0.942029 72.6993 0.942029C 72.6928 0.942029 72.6863 0.942029 72.6798 0.942029C 72.6733 0.942029 72.6668 0.942029 72.6602 0.942029C 72.6537 0.942029 72.6472 0.942029 72.6407 0.942029C 72.6342 0.942029 72.6276 0.942029 72.6211 0.942029C 72.6146 0.942029 72.6081 0.942029 72.6016 0.942029C 72.5951 0.942029 72.5885 0.942029 72.582 0.942029C 72.5755 0.942029 72.569 0.942029 72.5625 0.942029C 72.5559 0.942029 72.5494 0.942029 72.5429 0.942029C 72.5364 0.942029 72.5299 0.942029 72.5234 0.942029C 72.5168 0.942029 72.5103 0.942029 72.5038 0.942029L 72.5038 2.94203Z"/>
</defs>
</svg>
