<svg width="190" height="69" viewBox="0 0 190 69" version="1.1" xmlns="http://www.w3.org/2000/svg" xmlns:xlink="http://www.w3.org/1999/xlink">
<title>resume</title>
<desc>Created using Figma</desc>
<g id="Canvas" transform="translate(20895 -7309)">
<g id="resume">
<g id="Vector 5">
<use xlink:href="#path0_stroke" transform="translate(-20891.8 7311.27)"/>
</g>
<g id="Vector 6">
<use xlink:href="#path1_stroke" transform="translate(-20893.4 7312.2)"/>
</g>
<g id="Vector 7">
<use xlink:href="#path2_stroke" transform="translate(-20854.1 7329.79)"/>
</g>
<g id="Vector 8">
<use xlink:href="#path3_stroke" transform="translate(-20827.8 7332.48)"/>
</g>
<g id="Vector 9">
<use xlink:href="#path4_stroke" transform="translate(-20803.9 7336.38)"/>
</g>
<g id="Vector 10">
<use xlink:href="#path5_stroke" transform="translate(-20772.5 7336.38)"/>
</g>
<g id="Vector 11">
<use xlink:href="#path6_stroke" transform="translate(-20729.3 7334.32)"/>
</g>
</g>
</g>
<defs>
<path id="path0_stroke" d="M 1.5 0C 1.5 -0.828427 0.828427 -1.5 0 -1.5C -0.828427 -1.5 -1.5 -0.828427 -1.5 0L 1.5 0ZM 6.34639 54.9248C 6.34639 55.7532 7.01797 56.4248 7.84639 56.4248C 8.67482 56.4248 9.34639 55.7532 9.34639 54.9248L 6.34639 54.9248ZM -1.5 0C -1.5 9.73945 0.499953 19.0799 2.45709 28.1301C 4.42571 37.2333 6.34639 46.0267 6.34639 54.9248L 9.34639 54.9248C 9.34639 45.6488 7.34388 36.5343 5.38931 27.496C 3.42324 18.4045 1.5 9.36963 1.5 0L -1.5 0Z"/>
<path id="path1_stroke" d="M -0.757769 4.05543C -1.47271 4.47394 -1.71303 5.39278 -1.29452 6.10772C -0.876018 6.82267 0.0428242 7.06298 0.757769 6.64448L -0.757769 4.05543ZM 20.7494 33.597L 19.4565 34.3575L 20.7494 33.597ZM 28.247 46.1512L 26.7493 46.2344L 28.247 46.1512ZM 31.5318 59.1798C 31.7938 59.9657 32.6433 60.3904 33.4292 60.1285C 34.2151 59.8665 34.6398 59.017 34.3779 58.2311L 31.5318 59.1798ZM 0.757769 6.64448C 4.99582 4.16367 11.7962 1.54557 17.4093 1.50059C 20.2012 1.47821 22.4991 2.09258 24.0844 3.45249C 25.6281 4.77667 26.747 7.02583 26.747 10.8424L 29.747 10.8424C 29.747 6.42006 28.4263 3.2244 26.0377 1.17546C 23.6908 -0.83775 20.5638 -1.52479 17.3852 -1.49932C 11.0573 -1.4486 3.73412 1.42603 -0.757769 4.05543L 0.757769 6.64448ZM 26.747 10.8424C 26.747 14.1156 25.1979 17.9012 22.6532 20.8823C 20.1087 23.8633 16.7646 25.8199 13.3389 25.8199L 13.3389 28.8199C 17.9163 28.8199 22.0262 26.2377 24.935 22.83C 27.8436 19.4224 29.747 14.9693 29.747 10.8424L 26.747 10.8424ZM 13.3389 25.8199C 12.7867 25.8199 11.7793 25.9348 10.762 26.0801C 9.7088 26.2306 8.52093 26.4322 7.55378 26.637C 7.07397 26.7386 6.62106 26.8467 6.25717 26.9562C 6.07808 27.0101 5.88763 27.0741 5.71389 27.1496C 5.62705 27.1874 5.51904 27.2389 5.40793 27.3068C 5.31342 27.3646 5.12655 27.4877 4.95726 27.6949C 4.783 27.9082 4.49535 28.3877 4.63786 29.0244C 4.76876 29.6091 5.1759 29.9089 5.34763 30.0162C 5.67797 30.2227 6.0401 30.281 6.184 30.3036C 6.58141 30.366 7.14378 30.3891 7.84639 30.3891L 7.84639 27.3891C 7.15998 27.3891 6.7985 27.3633 6.64937 27.3399C 6.52 27.3196 6.70318 27.3257 6.93792 27.4724C 7.06186 27.5499 7.44202 27.8178 7.56542 28.3691C 7.70042 28.9722 7.42474 29.4164 7.28053 29.5929C 7.14128 29.7634 7.00255 29.8482 6.97289 29.8663C 6.92663 29.8946 6.90019 29.9051 6.91026 29.9007C 6.93034 29.892 6.99509 29.8671 7.12158 29.829C 7.36886 29.7546 7.72866 29.6665 8.17524 29.572C 9.06086 29.3844 10.1805 29.1937 11.1864 29.05C 12.2282 28.9011 13.0316 28.8199 13.3389 28.8199L 13.3389 25.8199ZM 7.84639 30.3891C 9.70002 30.3891 12.2404 30.6378 14.5405 31.3081C 16.9057 31.9974 18.6774 33.0331 19.4565 34.3575L 22.0423 32.8364C 20.6644 30.4941 17.9461 29.1759 15.3798 28.4279C 12.7484 27.661 9.91573 27.3891 7.84639 27.3891L 7.84639 30.3891ZM 19.4565 34.3575C 20.897 36.8064 22.9103 38.7558 24.2398 40.3878C 25.6274 42.0911 26.6125 43.7711 26.7493 46.2344L 29.7447 46.068C 29.559 42.7259 28.1626 40.4532 26.5657 38.493C 24.9107 36.4615 23.3364 35.0365 22.0423 32.8364L 19.4565 34.3575ZM 26.7493 46.2344C 26.8799 48.5855 27.8482 50.9804 28.8377 53.1291C 29.8776 55.387 30.9188 57.3406 31.5318 59.1798L 34.3779 58.2311C 33.6955 56.184 32.4962 53.9013 31.5627 51.8742C 30.5788 49.7377 29.8409 47.7986 29.7447 46.068L 26.7493 46.2344Z"/>
<path id="path2_stroke" d="M 1.5327 22.3508C 0.704523 22.371 0.0495251 23.0588 0.0697247 23.887C 0.0899242 24.7151 0.777672 25.3701 1.60585 25.3499L 1.5327 22.3508ZM 20.0519 15.6553L 18.937 14.6518L 20.0519 15.6553ZM 17.9595 3.44976L 18.7037 2.1474L 18.7037 2.1474L 17.9595 3.44976ZM 21.2327 37.6527C 21.922 37.1932 22.1082 36.2619 21.6487 35.5726C 21.1892 34.8833 20.2579 34.697 19.5686 35.1565L 21.2327 37.6527ZM 1.60585 25.3499C 8.92567 25.1714 16.0664 22.3258 21.1668 16.6587L 18.937 14.6518C 14.4544 19.6324 8.13177 22.1899 1.5327 22.3508L 1.60585 25.3499ZM 21.1668 16.6587C 21.9988 15.7343 22.2861 14.3571 22.3742 13.1468C 22.4681 11.8573 22.3584 10.4001 22.1112 9.00426C 21.8637 7.6076 21.4668 6.20574 20.948 5.03123C 20.4629 3.93295 19.7476 2.74387 18.7037 2.1474L 17.2153 4.75213C 17.3782 4.84522 17.7689 5.25868 18.2038 6.24332C 18.605 7.15172 18.942 8.31315 19.1572 9.52755C 19.3724 10.7427 19.4539 11.9444 19.3821 12.9289C 19.3047 13.9925 19.0695 14.5045 18.937 14.6518L 21.1668 16.6587ZM 18.7037 2.1474C 16.6199 0.956654 14.383 -0.084379 12.1825 -0.74553C 9.996 -1.40248 7.74654 -1.71436 5.6855 -1.33743C 3.56871 -0.950311 1.70159 0.159019 0.405277 2.20309C -0.857196 4.19379 -1.5 6.94555 -1.5 10.5115L 1.5 10.5115C 1.5 7.25841 2.094 5.14183 2.93876 3.80978C 3.74968 2.53109 4.86023 1.86325 6.22519 1.61362C 7.64589 1.3538 9.38224 1.5456 11.3193 2.12759C 13.2423 2.70538 15.2666 3.63855 17.2153 4.75213L 18.7037 2.1474ZM -1.5 10.5115C -1.5 14.2841 -1.47004 18.6753 -1.10713 22.9174C -0.745932 27.1396 -0.0466566 31.3336 1.34918 34.6729C 2.74492 38.0119 4.96319 40.7697 8.49001 41.546C 11.9357 42.3044 16.1373 41.0496 21.2327 37.6527L 19.5686 35.1565C 14.7077 38.3971 11.3811 39.1105 9.1349 38.6161C 6.96982 38.1395 5.33246 36.4234 4.1171 33.5159C 2.90184 30.6086 2.23454 26.7833 1.88195 22.6617C 1.53106 18.5602 1.5 14.2832 1.5 10.5115L -1.5 10.5115Z"/>
<path id="path3_stroke" d="M 15.012 9.67953C 15.6067 10.2562 16.5563 10.2416 17.133 9.64689C 17.7097 9.05217 17.6951 8.10253 17.1004 7.52582L 15.012 9.67953ZM 0.450563 1.6281L 1.89285 2.04018L 0.450563 1.6281ZM 16.0562 23.9467L 15.3543 25.2724L 16.0562 23.9467ZM 20.764 39.9883L 20.9393 41.478L 20.764 39.9883ZM 1.81859 38.0552C 1.61767 37.2515 0.80327 36.7628 -0.000422439 36.9638C -0.804115 37.1647 -1.29276 37.9791 -1.09183 38.7828L 1.81859 38.0552ZM 17.1004 7.52582C 16.9982 7.42674 13.4597 4.09408 9.69009 1.53767C 7.83564 0.280047 5.76031 -0.905887 3.9413 -1.32987C 3.02733 -1.5429 1.98612 -1.61034 1.03011 -1.20644C -0.00614776 -0.768633 -0.674504 0.105755 -0.991723 1.21602L 1.89285 2.04018C 2.01012 1.62973 2.15056 1.57694 2.19764 1.55705C 2.32497 1.50326 2.64163 1.44761 3.2603 1.59181C 4.50656 1.8823 6.19554 2.79259 8.00628 4.02057C 9.77587 5.22065 11.5127 6.6197 12.8258 7.73756C 13.4799 8.29444 14.0237 8.77708 14.4074 9.12399C 14.7967 9.47585 15.0121 9.67969 15.012 9.67953L 17.1004 7.52582ZM -0.991723 1.21602C -1.54433 3.15016 -1.55039 5.40875 -1.45138 7.48825C -1.34646 9.69199 -1.13662 11.5922 -1.13662 13.3105L 1.86338 13.3105C 1.86338 11.5286 1.63675 9.26789 1.54523 7.34558C 1.44779 5.29904 1.48533 3.46651 1.89285 2.04018L -0.991723 1.21602ZM -1.13662 13.3105C -1.13662 15.8912 -0.456077 17.8731 0.814032 19.3749C 2.05717 20.8449 3.73556 21.6988 5.43246 22.2914C 7.10469 22.8755 9.00131 23.2687 10.6807 23.6783C 12.4239 24.1034 14.0091 24.5602 15.3543 25.2724L 16.758 22.6211C 15.0597 21.7219 13.1614 21.1953 11.3915 20.7637C 9.55786 20.3165 7.91173 19.9796 6.42167 19.4592C 4.95627 18.9474 3.85282 18.3223 3.10469 17.4377C 2.38353 16.585 1.86338 15.3367 1.86338 13.3105L -1.13662 13.3105ZM 15.3543 25.2724C 15.8909 25.5565 16.8514 26.4889 17.9453 27.9984C 18.9929 29.4442 20.0214 31.2217 20.7501 32.9509C 21.4984 34.7265 21.8468 36.2562 21.7504 37.2769C 21.7049 37.7586 21.5712 38.0134 21.4478 38.15C 21.3383 38.2712 21.1148 38.4366 20.5887 38.4985L 20.9393 41.478C 22.0305 41.3496 22.9809 40.9282 23.6739 40.161C 24.3531 39.4092 24.6506 38.474 24.7371 37.5591C 24.9046 35.7867 24.3199 33.6968 23.5147 31.7859C 22.6899 29.8286 21.5446 27.8528 20.3745 26.2381C 19.2507 24.6872 17.9499 23.2521 16.758 22.6211L 15.3543 25.2724ZM 20.5887 38.4985C 18.8051 38.7084 16.7321 39.3951 14.7563 40.0595C 12.709 40.748 10.7006 41.4372 8.82651 41.8025C 6.93469 42.1712 5.43428 42.1534 4.32595 41.6616C 3.31785 41.2143 2.36789 40.2524 1.81859 38.0552L -1.09183 38.7828C -0.378098 41.6377 1.05437 43.492 3.10924 44.4038C 5.06388 45.2711 7.30699 45.1551 9.40039 44.7471C 11.5115 44.3356 13.73 43.5697 15.7125 42.9031C 17.7665 42.2124 19.5263 41.6442 20.9393 41.478L 20.5887 38.4985Z"/>
<path id="path4_stroke" d="M 1.47224 -0.287266C 1.31358 -1.10036 0.525828 -1.63089 -0.287266 -1.47224C -1.10036 -1.31358 -1.63089 -0.525828 -1.47224 0.287266L 1.47224 -0.287266ZM 17.2621 34.5241L 17.3453 36.0218L 17.2621 34.5241ZM 26.5315 -0.474342C 26.2695 -1.26026 25.42 -1.685 24.6341 -1.42302C 23.8482 -1.16105 23.4235 -0.311573 23.6854 0.474342L 26.5315 -0.474342ZM -1.47224 0.287266C -0.774388 3.86374 0.795287 12.7725 3.59615 20.7037C 4.99392 24.6617 6.73637 28.4913 8.90471 31.3188C 11.0637 34.134 13.8588 36.2155 17.3453 36.0218L 17.1789 33.0264C 15.1325 33.1401 13.1799 31.9636 11.2853 29.4931C 9.40006 27.0348 7.78313 23.5507 6.42494 19.7047C 3.7139 12.0279 2.18531 3.36726 1.47224 -0.287266L -1.47224 0.287266ZM 17.3453 36.0218C 20.9912 35.8193 23.4945 33.5471 25.1177 30.5267C 26.721 27.5436 27.5744 23.666 27.9676 19.7357C 28.7524 11.8917 27.7572 3.20292 26.5315 -0.474342L 23.6854 0.474342C 24.7446 3.65186 25.7369 11.8968 24.9825 19.437C 24.6062 23.1987 23.8084 26.6259 22.4752 29.1065C 21.162 31.55 19.4435 32.9006 17.1789 33.0264L 17.3453 36.0218Z"/>
<path id="path5_stroke" d="M 1.5 0C 1.5 -0.828427 0.828427 -1.5 0 -1.5C -0.828427 -1.5 -1.5 -0.828427 -1.5 0L 1.5 0ZM 4.70784 25.1085L 3.21701 25.2741L 4.70784 25.1085ZM 7.75921 31.9959L 6.3665 31.4388L 6.3665 31.4388L 7.75921 31.9959ZM 4.62065 19.616L 6.10321 19.3879L 4.62065 19.616ZM 16.0415 15.3441L 17.2128 14.407L 17.2128 14.407L 16.0415 15.3441ZM 27.4624 2.4411L 26.5415 3.62513L 27.4624 2.4411ZM 36.1627 34.5241C 36.1627 35.3526 36.8343 36.0241 37.6627 36.0241C 38.4911 36.0241 39.1627 35.3526 39.1627 34.5241L 36.1627 34.5241ZM -1.5 0C -1.5 4.78282 -0.521908 9.03877 0.539898 13.1046C 1.61211 17.2103 2.7487 21.0593 3.21701 25.2741L 6.19866 24.9428C 5.69979 20.4529 4.48246 16.3286 3.44255 12.3466C 2.39223 8.32473 1.5 4.37879 1.5 0L -1.5 0ZM 3.21701 25.2741C 3.2505 25.5755 3.34709 25.9192 3.437 26.2065C 3.53613 26.5233 3.66499 26.8878 3.80954 27.2714C 4.09925 28.0402 4.47049 28.9348 4.84084 29.7714C 5.20928 30.6036 5.58969 31.4075 5.89926 31.9868C 6.04638 32.2622 6.21026 32.5493 6.36943 32.7669C 6.42016 32.8362 6.59372 33.0772 6.86752 33.2585C 6.98702 33.3377 7.41177 33.6013 7.99736 33.4971C 8.71089 33.3701 9.03973 32.8334 9.15193 32.5529L 6.3665 31.4388C 6.46707 31.1873 6.77932 30.6668 7.47158 30.5435C 8.0359 30.4431 8.43472 30.6982 8.52394 30.7573C 8.73718 30.8985 8.83278 31.0531 8.79065 30.9956C 8.76412 30.9593 8.68275 30.8304 8.54522 30.573C 8.2855 30.0869 7.939 29.3588 7.58405 28.557C 7.231 27.7595 6.88236 26.9181 6.61683 26.2135C 6.48376 25.8603 6.37616 25.5537 6.30013 25.3107C 6.21487 25.0382 6.1976 24.9332 6.19866 24.9428L 3.21701 25.2741ZM 9.15193 32.5529C 9.37274 32.0009 9.40529 31.4013 9.38374 30.8903C 9.36123 30.3564 9.27213 29.7805 9.15055 29.2027C 8.90756 28.0477 8.50134 26.7326 8.07585 25.4628C 7.66092 24.2245 7.16974 22.8641 6.8123 21.8162C 6.42497 20.6808 6.17528 19.8563 6.10321 19.3879L 3.1381 19.8441C 3.25752 20.6203 3.60257 21.699 3.97296 22.7848C 4.37324 23.9582 4.80278 25.1371 5.23129 26.416C 5.64924 27.6633 6.0092 28.843 6.21483 29.8203C 6.31758 30.3087 6.3734 30.7082 6.38641 31.0167C 6.40038 31.3479 6.35903 31.4574 6.3665 31.4388L 9.15193 32.5529ZM 6.10321 19.3879C 5.85513 17.7754 5.2059 15.7764 4.6078 13.8648C 3.98732 11.8817 3.39537 9.919 3.13531 8.16513C 2.86821 6.36382 3.00822 5.1222 3.48861 4.36429C 3.89053 3.73017 4.77899 3.06928 7.06175 3.06928L 7.06175 0.0692787C 4.21111 0.0692787 2.11452 0.928397 0.954715 2.75824C -0.126627 4.4643 -0.125025 6.63061 0.167754 8.60515C 0.467568 10.6271 1.13377 12.8082 1.74467 14.7607C 2.37796 16.7847 2.93335 18.5132 3.1381 19.8441L 6.10321 19.3879ZM 7.06175 3.06928C 8.17388 3.06928 8.95491 3.48728 9.61549 4.2174C 10.3285 5.00546 10.901 6.16461 11.4278 7.60911C 11.9717 9.10054 12.353 10.5391 12.8794 12.131C 13.3641 13.5969 13.9603 15.1437 14.8702 16.2811L 17.2128 14.407C 16.6705 13.7291 16.2096 12.6465 15.7277 11.1892C 15.2875 9.85798 14.7927 8.07972 14.2463 6.58128C 13.6827 5.03591 12.9506 3.4321 11.8401 2.20467C 10.6772 0.919298 9.11574 0.0692787 7.06175 0.0692787L 7.06175 3.06928ZM 14.8702 16.2811C 14.9643 16.3987 15.1192 16.7138 15.2769 17.2567C 15.4223 17.7568 15.5278 18.2962 15.6061 18.7374C 15.6404 18.9311 15.6797 19.1656 15.7041 19.2975C 15.7162 19.3631 15.7353 19.4639 15.76 19.5576C 15.7678 19.5872 15.8 19.7127 15.866 19.8527C 15.8878 19.899 15.9878 20.1158 16.205 20.3184C 16.3241 20.4295 16.555 20.6086 16.9016 20.6865C 17.2909 20.774 17.6726 20.6991 17.9773 20.525C 18.4529 20.2532 18.6116 19.8194 18.6283 19.7779C 18.6788 19.653 18.7018 19.5476 18.711 19.5022C 18.7314 19.4025 18.7393 19.3153 18.7427 19.2744C 18.7507 19.1796 18.7542 19.0721 18.7564 18.9728C 18.761 18.7645 18.7621 18.4572 18.7621 18.0467L 15.7621 18.0467C 15.7621 18.4635 15.7609 18.7372 15.7572 18.9065C 15.7552 18.996 15.753 19.0265 15.7532 19.0243C 15.7534 19.0213 15.7544 19.0102 15.7565 18.9934C 15.7584 18.9785 15.7628 18.9455 15.7717 18.9018C 15.7785 18.8686 15.7989 18.7726 15.8466 18.6546C 15.8605 18.62 16.0163 18.1903 16.4888 17.9203C 16.792 17.7471 17.1721 17.6724 17.5598 17.7596C 17.9048 17.8372 18.1341 18.0153 18.2514 18.1247C 18.4652 18.3242 18.5616 18.5354 18.5797 18.5738C 18.6146 18.6478 18.6347 18.7073 18.6428 18.732C 18.6525 18.7616 18.6585 18.7838 18.6612 18.7939C 18.668 18.82 18.6663 18.8183 18.6541 18.7522C 18.6298 18.6207 18.6063 18.4745 18.56 18.2134C 18.4769 17.745 18.3491 17.0781 18.1578 16.4196C 17.9789 15.8039 17.6937 15.0082 17.2128 14.407L 14.8702 16.2811ZM 18.7621 18.0467C 18.7621 18.0411 18.7621 18.0355 18.7621 18.0298C 18.7621 18.0242 18.7621 18.0186 18.7621 18.013C 18.7621 18.0074 18.7621 18.0018 18.7621 17.9961C 18.7621 17.9905 18.7621 17.9849 18.7621 17.9793C 18.7621 17.9737 18.7621 17.968 18.7621 17.9624C 18.7621 17.9568 18.7621 17.9512 18.7621 17.9456C 18.7621 17.9399 18.7621 17.9343 18.7621 17.9287C 18.7621 17.9231 18.7621 17.9175 18.7621 17.9118C 18.7621 17.9062 18.7621 17.9006 18.7621 17.895C 18.7621 17.8894 18.7621 17.8837 18.7621 17.8781C 18.7621 17.8725 18.7621 17.8669 18.7621 17.8613C 18.7621 17.8557 18.7621 17.85 18.7621 17.8444C 18.7621 17.8388 18.7621 17.8332 18.7621 17.8276C 18.7621 17.8219 18.7621 17.8163 18.7621 17.8107C 18.7621 17.8051 18.7621 17.7995 18.7621 17.7938C 18.7621 17.7882 18.7621 17.7826 18.7621 17.777C 18.7621 17.7714 18.7621 17.7657 18.7621 17.7601C 18.7621 17.7545 18.7621 17.7489 18.7621 17.7433C 18.7621 17.7377 18.7621 17.732 18.7621 17.7264C 18.7621 17.7208 18.7621 17.7152 18.7621 17.7096C 18.7621 17.7039 18.7621 17.6983 18.7621 17.6927C 18.7621 17.6871 18.7621 17.6815 18.7621 17.6758C 18.7621 17.6702 18.7621 17.6646 18.7621 17.659C 18.7621 17.6534 18.7621 17.6477 18.7621 17.6421C 18.7621 17.6365 18.7621 17.6309 18.7621 17.6253C 18.7621 17.6196 18.7621 17.614 18.7621 17.6084C 18.7621 17.6028 18.7621 17.5972 18.7621 17.5916C 18.7621 17.5859 18.7621 17.5803 18.7621 17.5747C 18.7621 17.5691 18.7621 17.5635 18.7621 17.5578C 18.7621 17.5522 18.7621 17.5466 18.7621 17.541C 18.7621 17.5354 18.7621 17.5297 18.7621 17.5241C 18.7621 17.5185 18.7621 17.5129 18.7621 17.5073C 18.7621 17.5016 18.7621 17.496 18.7621 17.4904C 18.7621 17.4848 18.7621 17.4792 18.7621 17.4736C 18.7621 17.4679 18.7621 17.4623 18.7621 17.4567C 18.7621 17.4511 18.7621 17.4455 18.7621 17.4398C 18.7621 17.4342 18.7621 17.4286 18.7621 17.423C 18.7621 17.4174 18.7621 17.4117 18.7621 17.4061C 18.7621 17.4005 18.7621 17.3949 18.7621 17.3893C 18.7621 17.3836 18.7621 17.378 18.7621 17.3724C 18.7621 17.3668 18.7621 17.3612 18.7621 17.3555C 18.7621 17.3499 18.7621 17.3443 18.7621 17.3387C 18.7621 17.3331 18.7621 17.3275 18.7621 17.3218C 18.7621 17.3162 18.7621 17.3106 18.7621 17.305C 18.7621 17.2994 18.7621 17.2937 18.7621 17.2881C 18.7621 17.2825 18.7621 17.2769 18.7621 17.2713C 18.7621 17.2656 18.7621 17.26 18.7621 17.2544C 18.7621 17.2488 18.7621 17.2432 18.7621 17.2375C 18.7621 17.2319 18.7621 17.2263 18.7621 17.2207C 18.7621 17.2151 18.7621 17.2095 18.7621 17.2038C 18.7621 17.1982 18.7621 17.1926 18.7621 17.187C 18.7621 17.1814 18.7621 17.1757 18.7621 17.1701C 18.7621 17.1645 18.7621 17.1589 18.7621 17.1533C 18.7621 17.1476 18.7621 17.142 18.7621 17.1364C 18.7621 17.1308 18.7621 17.1252 18.7621 17.1195C 18.7621 17.1139 18.7621 17.1083 18.7621 17.1027C 18.7621 17.0971 18.7621 17.0914 18.7621 17.0858C 18.7621 17.0802 18.7621 17.0746 18.7621 17.069C 18.7621 17.0634 18.7621 17.0577 18.7621 17.0521C 18.7621 17.0465 18.7621 17.0409 18.7621 17.0353C 18.7621 17.0296 18.7621 17.024 18.7621 17.0184C 18.7621 17.0128 18.7621 17.0072 18.7621 17.0015C 18.7621 16.9959 18.7621 16.9903 18.7621 16.9847C 18.7621 16.9791 18.7621 16.9734 18.7621 16.9678C 18.7621 16.9622 18.7621 16.9566 18.7621 16.951C 18.7621 16.9453 18.7621 16.9397 18.7621 16.9341C 18.7621 16.9285 18.7621 16.9229 18.7621 16.9173C 18.7621 16.9116 18.7621 16.906 18.7621 16.9004C 18.7621 16.8948 18.7621 16.8892 18.7621 16.8835C 18.7621 16.8779 18.7621 16.8723 18.7621 16.8667C 18.7621 16.8611 18.7621 16.8554 18.7621 16.8498C 18.7621 16.8442 18.7621 16.8386 18.7621 16.833C 18.7621 16.8273 18.7621 16.8217 18.7621 16.8161C 18.7621 16.8105 18.7621 16.8049 18.7621 16.7993C 18.7621 16.7936 18.7621 16.788 18.7621 16.7824C 18.7621 16.7768 18.7621 16.7712 18.7621 16.7655C 18.7621 16.7599 18.7621 16.7543 18.7621 16.7487C 18.7621 16.7431 18.7621 16.7374 18.7621 16.7318C 18.7621 16.7262 18.7621 16.7206 18.7621 16.715C 18.7621 16.7093 18.7621 16.7037 18.7621 16.6981C 18.7621 16.6925 18.7621 16.6869 18.7621 16.6812C 18.7621 16.6756 18.7621 16.67 18.7621 16.6644C 18.7621 16.6588 18.7621 16.6532 18.7621 16.6475C 18.7621 16.6419 18.7621 16.6363 18.7621 16.6307C 18.7621 16.6251 18.7621 16.6194 18.7621 16.6138C 18.7621 16.6082 18.7621 16.6026 18.7621 16.597C 18.7621 16.5913 18.7621 16.5857 18.7621 16.5801C 18.7621 16.5745 18.7621 16.5689 18.7621 16.5632C 18.7621 16.5576 18.7621 16.552 18.7621 16.5464C 18.7621 16.5408 18.7621 16.5352 18.7621 16.5295C 18.7621 16.5239 18.7621 16.5183 18.7621 16.5127C 18.7621 16.5071 18.7621 16.5014 18.7621 16.4958C 18.7621 16.4902 18.7621 16.4846 18.7621 16.479C 18.7621 16.4733 18.7621 16.4677 18.7621 16.4621C 18.7621 16.4565 18.7621 16.4509 18.7621 16.4452C 18.7621 16.4396 18.7621 16.434 18.7621 16.4284C 18.7621 16.4228 18.7621 16.4171 18.7621 16.4115C 18.7621 16.4059 18.7621 16.4003 18.7621 16.3947C 18.7621 16.3891 18.7621 16.3834 18.7621 16.3778C 18.7621 16.3722 18.7621 16.3666 18.7621 16.361C 18.7621 16.3553 18.7621 16.3497 18.7621 16.3441C 18.7621 16.3385 18.7621 16.3329 18.7621 16.3272C 18.7621 16.3216 18.7621 16.316 18.7621 16.3104C 18.7621 16.3048 18.7621 16.2991 18.7621 16.2935C 18.7621 16.2879 18.7621 16.2823 18.7621 16.2767C 18.7621 16.2711 18.7621 16.2654 18.7621 16.2598C 18.7621 16.2542 18.7621 16.2486 18.7621 16.243C 18.7621 16.2373 18.7621 16.2317 18.7621 16.2261C 18.7621 16.2205 18.7621 16.2149 18.7621 16.2092C 18.7621 16.2036 18.7621 16.198 18.7621 16.1924C 18.7621 16.1868 18.7621 16.1811 18.7621 16.1755C 18.7621 16.1699 18.7621 16.1643 18.7621 16.1587C 18.7621 16.153 18.7621 16.1474 18.7621 16.1418C 18.7621 16.1362 18.7621 16.1306 18.7621 16.125C 18.7621 16.1193 18.7621 16.1137 18.7621 16.1081C 18.7621 16.1025 18.7621 16.0969 18.7621 16.0912C 18.7621 16.0856 18.7621 16.08 18.7621 16.0744C 18.7621 16.0688 18.7621 16.0631 18.7621 16.0575C 18.7621 16.0519 18.7621 16.0463 18.7621 16.0407C 18.7621 16.035 18.7621 16.0294 18.7621 16.0238C 18.7621 16.0182 18.7621 16.0126 18.7621 16.0069C 18.7621 16.0013 18.7621 15.9957 18.7621 15.9901C 18.7621 15.9845 18.7621 15.9789 18.7621 15.9732C 18.7621 15.9676 18.7621 15.962 18.7621 15.9564C 18.7621 15.9508 18.7621 15.9451 18.7621 15.9395C 18.7621 15.9339 18.7621 15.9283 18.7621 15.9227C 18.7621 15.917 18.7621 15.9114 18.7621 15.9058C 18.7621 15.9002 18.7621 15.8946 18.7621 15.8889C 18.7621 15.8833 18.7621 15.8777 18.7621 15.8721C 18.7621 15.8665 18.7621 15.8609 18.7621 15.8552C 18.7621 15.8496 18.7621 15.844 18.7621 15.8384C 18.7621 15.8328 18.7621 15.8271 18.7621 15.8215C 18.7621 15.8159 18.7621 15.8103 18.7621 15.8047C 18.7621 15.799 18.7621 15.7934 18.7621 15.7878C 18.7621 15.7822 18.7621 15.7766 18.7621 15.7709C 18.7621 15.7653 18.7621 15.7597 18.7621 15.7541C 18.7621 15.7485 18.7621 15.7428 18.7621 15.7372C 18.7621 15.7316 18.7621 15.726 18.7621 15.7204C 18.7621 15.7148 18.7621 15.7091 18.7621 15.7035C 18.7621 15.6979 18.7621 15.6923 18.7621 15.6867C 18.7621 15.681 18.7621 15.6754 18.7621 15.6698C 18.7621 15.6642 18.7621 15.6586 18.7621 15.6529C 18.7621 15.6473 18.7621 15.6417 18.7621 15.6361C 18.7621 15.6305 18.7621 15.6248 18.7621 15.6192C 18.7621 15.6136 18.7621 15.608 18.7621 15.6024C 18.7621 15.5968 18.7621 15.5911 18.7621 15.5855C 18.7621 15.5799 18.7621 15.5743 18.7621 15.5687C 18.7621 15.563 18.7621 15.5574 18.7621 15.5518C 18.7621 15.5462 18.7621 15.5406 18.7621 15.5349C 18.7621 15.5293 18.7621 15.5237 18.7621 15.5181C 18.7621 15.5125 18.7621 15.5068 18.7621 15.5012C 18.7621 15.4956 18.7621 15.49 18.7621 15.4844C 18.7621 15.4787 18.7621 15.4731 18.7621 15.4675C 18.7621 15.4619 18.7621 15.4563 18.7621 15.4507C 18.7621 15.445 18.7621 15.4394 18.7621 15.4338C 18.7621 15.4282 18.7621 15.4226 18.7621 15.4169C 18.7621 15.4113 18.7621 15.4057 18.7621 15.4001C 18.7621 15.3945 18.7621 15.3888 18.7621 15.3832C 18.7621 15.3776 18.7621 15.372 18.7621 15.3664C 18.7621 15.3607 18.7621 15.3551 18.7621 15.3495C 18.7621 15.3439 18.7621 15.3383 18.7621 15.3326C 18.7621 15.327 18.7621 15.3214 18.7621 15.3158C 18.7621 15.3102 18.7621 15.3046 18.7621 15.2989C 18.7621 15.2933 18.7621 15.2877 18.7621 15.2821C 18.7621 15.2765 18.7621 15.2708 18.7621 15.2652C 18.7621 15.2596 18.7621 15.254 18.7621 15.2484C 18.7621 15.2427 18.7621 15.2371 18.7621 15.2315C 18.7621 15.2259 18.7621 15.2203 18.7621 15.2146C 18.7621 15.209 18.7621 15.2034 18.7621 15.1978C 18.7621 15.1922 18.7621 15.1866 18.7621 15.1809C 18.7621 15.1753 18.7621 15.1697 18.7621 15.1641C 18.7621 15.1585 18.7621 15.1528 18.7621 15.1472C 18.7621 15.1416 18.7621 15.136 18.7621 15.1304C 18.7621 15.1247 18.7621 15.1191 18.7621 15.1135C 18.7621 15.1079 18.7621 15.1023 18.7621 15.0966C 18.7621 15.091 18.7621 15.0854 18.7621 15.0798C 18.7621 15.0742 18.7621 15.0685 18.7621 15.0629C 18.7621 15.0573 18.7621 15.0517 18.7621 15.0461C 18.7621 15.0405 18.7621 15.0348 18.7621 15.0292C 18.7621 15.0236 18.7621 15.018 18.7621 15.0124C 18.7621 15.0067 18.7621 15.0011 18.7621 14.9955C 18.7621 14.9899 18.7621 14.9843 18.7621 14.9786C 18.7621 14.973 18.7621 14.9674 18.7621 14.9618C 18.7621 14.9562 18.7621 14.9505 18.7621 14.9449C 18.7621 14.9393 18.7621 14.9337 18.7621 14.9281C 18.7621 14.9225 18.7621 14.9168 18.7621 14.9112C 18.7621 14.9056 18.7621 14.9 18.7621 14.8944C 18.7621 14.8887 18.7621 14.8831 18.7621 14.8775C 18.7621 14.8719 18.7621 14.8663 18.7621 14.8606C 18.7621 14.855 18.7621 14.8494 18.7621 14.8438C 18.7621 14.8382 18.7621 14.8325 18.7621 14.8269C 18.7621 14.8213 18.7621 14.8157 18.7621 14.8101C 18.7621 14.8044 18.7621 14.7988 18.7621 14.7932C 18.7621 14.7876 18.7621 14.782 18.7621 14.7764C 18.7621 14.7707 18.7621 14.7651 18.7621 14.7595C 18.7621 14.7539 18.7621 14.7483 18.7621 14.7426C 18.7621 14.737 18.7621 14.7314 18.7621 14.7258C 18.7621 14.7202 18.7621 14.7145 18.7621 14.7089C 18.7621 14.7033 18.7621 14.6977 18.7621 14.6921C 18.7621 14.6864 18.7621 14.6808 18.7621 14.6752C 18.7621 14.6696 18.7621 14.664 18.7621 14.6584C 18.7621 14.6527 18.7621 14.6471 18.7621 14.6415C 18.7621 14.6359 18.7621 14.6303 18.7621 14.6246C 18.7621 14.619 18.7621 14.6134 18.7621 14.6078C 18.7621 14.6022 18.7621 14.5965 18.7621 14.5909C 18.7621 14.5853 18.7621 14.5797 18.7621 14.5741C 18.7621 14.5684 18.7621 14.5628 18.7621 14.5572C 18.7621 14.5516 18.7621 14.546 18.7621 14.5403C 18.7621 14.5347 18.7621 14.5291 18.7621 14.5235C 18.7621 14.5179 18.7621 14.5123 18.7621 14.5066C 18.7621 14.501 18.7621 14.4954 18.7621 14.4898C 18.7621 14.4842 18.7621 14.4785 18.7621 14.4729C 18.7621 14.4673 18.7621 14.4617 18.7621 14.4561C 18.7621 14.4504 18.7621 14.4448 18.7621 14.4392C 18.7621 14.4336 18.7621 14.428 18.7621 14.4223C 18.7621 14.4167 18.7621 14.4111 18.7621 14.4055C 18.7621 14.3999 18.7621 14.3942 18.7621 14.3886C 18.7621 14.383 18.7621 14.3774 18.7621 14.3718C 18.7621 14.3662 18.7621 14.3605 18.7621 14.3549C 18.7621 14.3493 18.7621 14.3437 18.7621 14.3381C 18.7621 14.3324 18.7621 14.3268 18.7621 14.3212C 18.7621 14.3156 18.7621 14.31 18.7621 14.3043C 18.7621 14.2987 18.7621 14.2931 18.7621 14.2875C 18.7621 14.2819 18.7621 14.2762 18.7621 14.2706C 18.7621 14.265 18.7621 14.2594 18.7621 14.2538C 18.7621 14.2482 18.7621 14.2425 18.7621 14.2369C 18.7621 14.2313 18.7621 14.2257 18.7621 14.2201C 18.7621 14.2144 18.7621 14.2088 18.7621 14.2032C 18.7621 14.1976 18.7621 14.192 18.7621 14.1863C 18.7621 14.1807 18.7621 14.1751 18.7621 14.1695C 18.7621 14.1639 18.7621 14.1582 18.7621 14.1526C 18.7621 14.147 18.7621 14.1414 18.7621 14.1358C 18.7621 14.1301 18.7621 14.1245 18.7621 14.1189C 18.7621 14.1133 18.7621 14.1077 18.7621 14.1021C 18.7621 14.0964 18.7621 14.0908 18.7621 14.0852C 18.7621 14.0796 18.7621 14.074 18.7621 14.0683C 18.7621 14.0627 18.7621 14.0571 18.7621 14.0515C 18.7621 14.0459 18.7621 14.0402 18.7621 14.0346C 18.7621 14.029 18.7621 14.0234 18.7621 14.0178C 18.7621 14.0121 18.7621 14.0065 18.7621 14.0009C 18.7621 13.9953 18.7621 13.9897 18.7621 13.9841C 18.7621 13.9784 18.7621 13.9728 18.7621 13.9672C 18.7621 13.9616 18.7621 13.956 18.7621 13.9503C 18.7621 13.9447 18.7621 13.9391 18.7621 13.9335C 18.7621 13.9279 18.7621 13.9222 18.7621 13.9166C 18.7621 13.911 18.7621 13.9054 18.7621 13.8998C 18.7621 13.8941 18.7621 13.8885 18.7621 13.8829C 18.7621 13.8773 18.7621 13.8717 18.7621 13.866C 18.7621 13.8604 18.7621 13.8548 18.7621 13.8492C 18.7621 13.8436 18.7621 13.838 18.7621 13.8323C 18.7621 13.8267 18.7621 13.8211 18.7621 13.8155C 18.7621 13.8099 18.7621 13.8042 18.7621 13.7986C 18.7621 13.793 18.7621 13.7874 18.7621 13.7818C 18.7621 13.7761 18.7621 13.7705 18.7621 13.7649C 18.7621 13.7593 18.7621 13.7537 18.7621 13.748C 18.7621 13.7424 18.7621 13.7368 18.7621 13.7312C 18.7621 13.7256 18.7621 13.72 18.7621 13.7143C 18.7621 13.7087 18.7621 13.7031 18.7621 13.6975C 18.7621 13.6919 18.7621 13.6862 18.7621 13.6806C 18.7621 13.675 18.7621 13.6694 18.7621 13.6638C 18.7621 13.6581 18.7621 13.6525 18.7621 13.6469C 18.7621 13.6413 18.7621 13.6357 18.7621 13.63C 18.7621 13.6244 18.7621 13.6188 18.7621 13.6132C 18.7621 13.6076 18.7621 13.6019 18.7621 13.5963C 18.7621 13.5907 18.7621 13.5851 18.7621 13.5795C 18.7621 13.5739 18.7621 13.5682 18.7621 13.5626C 18.7621 13.557 18.7621 13.5514 18.7621 13.5458C 18.7621 13.5401 18.7621 13.5345 18.7621 13.5289C 18.7621 13.5233 18.7621 13.5177 18.7621 13.512C 18.7621 13.5064 18.7621 13.5008 18.7621 13.4952C 18.7621 13.4896 18.7621 13.4839 18.7621 13.4783C 18.7621 13.4727 18.7621 13.4671 18.7621 13.4615C 18.7621 13.4558 18.7621 13.4502 18.7621 13.4446C 18.7621 13.439 18.7621 13.4334 18.7621 13.4278C 18.7621 13.4221 18.7621 13.4165 18.7621 13.4109C 18.7621 13.4053 18.7621 13.3997 18.7621 13.394C 18.7621 13.3884 18.7621 13.3828 18.7621 13.3772C 18.7621 13.3716 18.7621 13.3659 18.7621 13.3603C 18.7621 13.3547 18.7621 13.3491 18.7621 13.3435C 18.7621 13.3378 18.7621 13.3322 18.7621 13.3266C 18.7621 13.321 18.7621 13.3154 18.7621 13.3098C 18.7621 13.3041 18.7621 13.2985 18.7621 13.2929C 18.7621 13.2873 18.7621 13.2817 18.7621 13.276C 18.7621 13.2704 18.7621 13.2648 18.7621 13.2592C 18.7621 13.2536 18.7621 13.2479 18.7621 13.2423C 18.7621 13.2367 18.7621 13.2311 18.7621 13.2255C 18.7621 13.2198 18.7621 13.2142 18.7621 13.2086C 18.7621 13.203 18.7621 13.1974 18.7621 13.1917C 18.7621 13.1861 18.7621 13.1805 18.7621 13.1749C 18.7621 13.1693 18.7621 13.1637 18.7621 13.158C 18.7621 13.1524 18.7621 13.1468 18.7621 13.1412C 18.7621 13.1356 18.7621 13.1299 18.7621 13.1243C 18.7621 13.1187 18.7621 13.1131 18.7621 13.1075C 18.7621 13.1018 18.7621 13.0962 18.7621 13.0906C 18.7621 13.085 18.7621 13.0794 18.7621 13.0737C 18.7621 13.0681 18.7621 13.0625 18.7621 13.0569C 18.7621 13.0513 18.7621 13.0457 18.7621 13.04C 18.7621 13.0344 18.7621 13.0288 18.7621 13.0232C 18.7621 13.0176 18.7621 13.0119 18.7621 13.0063C 18.7621 13.0007 18.7621 12.9951 18.7621 12.9895C 18.7621 12.9838 18.7621 12.9782 18.7621 12.9726C 18.7621 12.967 18.7621 12.9614 18.7621 12.9557C 18.7621 12.9501 18.7621 12.9445 18.7621 12.9389C 18.7621 12.9333 18.7621 12.9276 18.7621 12.922C 18.7621 12.9164 18.7621 12.9108 18.7621 12.9052C 18.7621 12.8996 18.7621 12.8939 18.7621 12.8883C 18.7621 12.8827 18.7621 12.8771 18.7621 12.8715C 18.7621 12.8658 18.7621 12.8602 18.7621 12.8546C 18.7621 12.849 18.7621 12.8434 18.7621 12.8377C 18.7621 12.8321 18.7621 12.8265 18.7621 12.8209C 18.7621 12.8153 18.7621 12.8096 18.7621 12.804C 18.7621 12.7984 18.7621 12.7928 18.7621 12.7872C 18.7621 12.7816 18.7621 12.7759 18.7621 12.7703C 18.7621 12.7647 18.7621 12.7591 18.7621 12.7535C 18.7621 12.7478 18.7621 12.7422 18.7621 12.7366C 18.7621 12.731 18.7621 12.7254 18.7621 12.7197C 18.7621 12.7141 18.7621 12.7085 18.7621 12.7029C 18.7621 12.6973 18.7621 12.6916 18.7621 12.686C 18.7621 12.6804 18.7621 12.6748 18.7621 12.6692C 18.7621 12.6635 18.7621 12.6579 18.7621 12.6523C 18.7621 12.6467 18.7621 12.6411 18.7621 12.6355C 18.7621 12.6298 18.7621 12.6242 18.7621 12.6186C 18.7621 12.613 18.7621 12.6074 18.7621 12.6017C 18.7621 12.5961 18.7621 12.5905 18.7621 12.5849C 18.7621 12.5793 18.7621 12.5736 18.7621 12.568C 18.7621 12.5624 18.7621 12.5568 18.7621 12.5512C 18.7621 12.5455 18.7621 12.5399 18.7621 12.5343C 18.7621 12.5287 18.7621 12.5231 18.7621 12.5174C 18.7621 12.5118 18.7621 12.5062 18.7621 12.5006C 18.7621 12.495 18.7621 12.4894 18.7621 12.4837C 18.7621 12.4781 18.7621 12.4725 18.7621 12.4669C 18.7621 12.4613 18.7621 12.4556 18.7621 12.45C 18.7621 12.4444 18.7621 12.4388 18.7621 12.4332C 18.7621 12.4275 18.7621 12.4219 18.7621 12.4163C 18.7621 12.4107 18.7621 12.4051 18.7621 12.3994C 18.7621 12.3938 18.7621 12.3882 18.7621 12.3826C 18.7621 12.377 18.7621 12.3714 18.7621 12.3657C 18.7621 12.3601 18.7621 12.3545 18.7621 12.3489C 18.7621 12.3433 18.7621 12.3376 18.7621 12.332C 18.7621 12.3264 18.7621 12.3208 18.7621 12.3152C 18.7621 12.3095 18.7621 12.3039 18.7621 12.2983C 18.7621 12.2927 18.7621 12.2871 18.7621 12.2814C 18.7621 12.2758 18.7621 12.2702 18.7621 12.2646C 18.7621 12.259 18.7621 12.2533 18.7621 12.2477C 18.7621 12.2421 18.7621 12.2365 18.7621 12.2309C 18.7621 12.2253 18.7621 12.2196 18.7621 12.214C 18.7621 12.2084 18.7621 12.2028 18.7621 12.1972C 18.7621 12.1915 18.7621 12.1859 18.7621 12.1803C 18.7621 12.1747 18.7621 12.1691 18.7621 12.1634C 18.7621 12.1578 18.7621 12.1522 18.7621 12.1466C 18.7621 12.141 18.7621 12.1353 18.7621 12.1297C 18.7621 12.1241 18.7621 12.1185 18.7621 12.1129C 18.7621 12.1073 18.7621 12.1016 18.7621 12.096C 18.7621 12.0904 18.7621 12.0848 18.7621 12.0792C 18.7621 12.0735 18.7621 12.0679 18.7621 12.0623C 18.7621 12.0567 18.7621 12.0511 18.7621 12.0454C 18.7621 12.0398 18.7621 12.0342 18.7621 12.0286C 18.7621 12.023 18.7621 12.0173 18.7621 12.0117C 18.7621 12.0061 18.7621 12.0005 18.7621 11.9949C 18.7621 11.9892 18.7621 11.9836 18.7621 11.978C 18.7621 11.9724 18.7621 11.9668 18.7621 11.9612C 18.7621 11.9555 18.7621 11.9499 18.7621 11.9443C 18.7621 11.9387 18.7621 11.9331 18.7621 11.9274C 18.7621 11.9218 18.7621 11.9162 18.7621 11.9106C 18.7621 11.905 18.7621 11.8993 18.7621 11.8937C 18.7621 11.8881 18.7621 11.8825 18.7621 11.8769C 18.7621 11.8712 18.7621 11.8656 18.7621 11.86C 18.7621 11.8544 18.7621 11.8488 18.7621 11.8432C 18.7621 11.8375 18.7621 11.8319 18.7621 11.8263C 18.7621 11.8207 18.7621 11.8151 18.7621 11.8094C 18.7621 11.8038 18.7621 11.7982 18.7621 11.7926C 18.7621 11.787 18.7621 11.7813 18.7621 11.7757C 18.7621 11.7701 18.7621 11.7645 18.7621 11.7589C 18.7621 11.7532 18.7621 11.7476 18.7621 11.742C 18.7621 11.7364 18.7621 11.7308 18.7621 11.7251C 18.7621 11.7195 18.7621 11.7139 18.7621 11.7083C 18.7621 11.7027 18.7621 11.6971 18.7621 11.6914C 18.7621 11.6858 18.7621 11.6802 18.7621 11.6746C 18.7621 11.669 18.7621 11.6633 18.7621 11.6577C 18.7621 11.6521 18.7621 11.6465 18.7621 11.6409C 18.7621 11.6352 18.7621 11.6296 18.7621 11.624C 18.7621 11.6184 18.7621 11.6128 18.7621 11.6071C 18.7621 11.6015 18.7621 11.5959 18.7621 11.5903C 18.7621 11.5847 18.7621 11.579 18.7621 11.5734C 18.7621 11.5678 18.7621 11.5622 18.7621 11.5566C 18.7621 11.551 18.7621 11.5453 18.7621 11.5397C 18.7621 11.5341 18.7621 11.5285 18.7621 11.5229C 18.7621 11.5172 18.7621 11.5116 18.7621 11.506C 18.7621 11.5004 18.7621 11.4948 18.7621 11.4891C 18.7621 11.4835 18.7621 11.4779 18.7621 11.4723C 18.7621 11.4667 18.7621 11.461 18.7621 11.4554C 18.7621 11.4498 18.7621 11.4442 18.7621 11.4386C 18.7621 11.433 18.7621 11.4273 18.7621 11.4217C 18.7621 11.4161 18.7621 11.4105 18.7621 11.4049C 18.7621 11.3992 18.7621 11.3936 18.7621 11.388C 18.7621 11.3824 18.7621 11.3768 18.7621 11.3711C 18.7621 11.3655 18.7621 11.3599 18.7621 11.3543C 18.7621 11.3487 18.7621 11.343 18.7621 11.3374C 18.7621 11.3318 18.7621 11.3262 18.7621 11.3206C 18.7621 11.3149 18.7621 11.3093 18.7621 11.3037C 18.7621 11.2981 18.7621 11.2925 18.7621 11.2869C 18.7621 11.2812 18.7621 11.2756 18.7621 11.27C 18.7621 11.2644 18.7621 11.2588 18.7621 11.2531C 18.7621 11.2475 18.7621 11.2419 18.7621 11.2363C 18.7621 11.2307 18.7621 11.225 18.7621 11.2194C 18.7621 11.2138 18.7621 11.2082 18.7621 11.2026C 18.7621 11.1969 18.7621 11.1913 18.7621 11.1857C 18.7621 11.1801 18.7621 11.1745 18.7621 11.1689C 18.7621 11.1632 18.7621 11.1576 18.7621 11.152C 18.7621 11.1464 18.7621 11.1408 18.7621 11.1351C 18.7621 11.1295 18.7621 11.1239 18.7621 11.1183C 18.7621 11.1127 18.7621 11.107 18.7621 11.1014C 18.7621 11.0958 18.7621 11.0902 18.7621 11.0846C 18.7621 11.0789 18.7621 11.0733 18.7621 11.0677C 18.7621 11.0621 18.7621 11.0565 18.7621 11.0508C 18.7621 11.0452 18.7621 11.0396 18.7621 11.034C 18.7621 11.0284 18.7621 11.0228 18.7621 11.0171C 18.7621 11.0115 18.7621 11.0059 18.7621 11.0003C 18.7621 10.9947 18.7621 10.989 18.7621 10.9834C 18.7621 10.9778 18.7621 10.9722 18.7621 10.9666C 18.7621 10.9609 18.7621 10.9553 18.7621 10.9497C 18.7621 10.9441 18.7621 10.9385 18.7621 10.9328C 18.7621 10.9272 18.7621 10.9216 18.7621 10.916C 18.7621 10.9104 18.7621 10.9048 18.7621 10.8991C 18.7621 10.8935 18.7621 10.8879 18.7621 10.8823C 18.7621 10.8767 18.7621 10.871 18.7621 10.8654C 18.7621 10.8598 18.7621 10.8542 18.7621 10.8486C 18.7621 10.8429 18.7621 10.8373 18.7621 10.8317C 18.7621 10.8261 18.7621 10.8205 18.7621 10.8148C 18.7621 10.8092 18.7621 10.8036 18.7621 10.798C 18.7621 10.7924 18.7621 10.7867 18.7621 10.7811C 18.7621 10.7755 18.7621 10.7699 18.7621 10.7643C 18.7621 10.7587 18.7621 10.753 18.7621 10.7474C 18.7621 10.7418 18.7621 10.7362 18.7621 10.7306C 18.7621 10.7249 18.7621 10.7193 18.7621 10.7137C 18.7621 10.7081 18.7621 10.7025 18.7621 10.6968C 18.7621 10.6912 18.7621 10.6856 18.7621 10.68C 18.7621 10.6744 18.7621 10.6687 18.7621 10.6631C 18.7621 10.6575 18.7621 10.6519 18.7621 10.6463C 18.7621 10.6406 18.7621 10.635 18.7621 10.6294C 18.7621 10.6238 18.7621 10.6182 18.7621 10.6126C 18.7621 10.6069 18.7621 10.6013 18.7621 10.5957C 18.7621 10.5901 18.7621 10.5845 18.7621 10.5788C 18.7621 10.5732 18.7621 10.5676 18.7621 10.562C 18.7621 10.5564 18.7621 10.5507 18.7621 10.5451C 18.7621 10.5395 18.7621 10.5339 18.7621 10.5283C 18.7621 10.5226 18.7621 10.517 18.7621 10.5114C 18.7621 10.5058 18.7621 10.5002 18.7621 10.4946C 18.7621 10.4889 18.7621 10.4833 18.7621 10.4777C 18.7621 10.4721 18.7621 10.4665 18.7621 10.4608C 18.7621 10.4552 18.7621 10.4496 18.7621 10.444C 18.7621 10.4384 18.7621 10.4327 18.7621 10.4271C 18.7621 10.4215 18.7621 10.4159 18.7621 10.4103C 18.7621 10.4046 18.7621 10.399 18.7621 10.3934C 18.7621 10.3878 18.7621 10.3822 18.7621 10.3765C 18.7621 10.3709 18.7621 10.3653 18.7621 10.3597C 18.7621 10.3541 18.7621 10.3485 18.7621 10.3428C 18.7621 10.3372 18.7621 10.3316 18.7621 10.326C 18.7621 10.3204 18.7621 10.3147 18.7621 10.3091C 18.7621 10.3035 18.7621 10.2979 18.7621 10.2923C 18.7621 10.2866 18.7621 10.281 18.7621 10.2754C 18.7621 10.2698 18.7621 10.2642 18.7621 10.2585C 18.7621 10.2529 18.7621 10.2473 18.7621 10.2417C 18.7621 10.2361 18.7621 10.2305 18.7621 10.2248C 18.7621 10.2192 18.7621 10.2136 18.7621 10.208C 18.7621 10.2024 18.7621 10.1967 18.7621 10.1911C 18.7621 10.1855 18.7621 10.1799 18.7621 10.1743C 18.7621 10.1686 18.7621 10.163 18.7621 10.1574C 18.7621 10.1518 18.7621 10.1462 18.7621 10.1405C 18.7621 10.1349 18.7621 10.1293 18.7621 10.1237C 18.7621 10.1181 18.7621 10.1124 18.7621 10.1068C 18.7621 10.1012 18.7621 10.0956 18.7621 10.09C 18.7621 10.0844 18.7621 10.0787 18.7621 10.0731C 18.7621 10.0675 18.7621 10.0619 18.7621 10.0563C 18.7621 10.0506 18.7621 10.045 18.7621 10.0394C 18.7621 10.0338 18.7621 10.0282 18.7621 10.0225C 18.7621 10.0169 18.7621 10.0113 18.7621 10.0057C 18.7621 10.0001 18.7621 9.99445 18.7621 9.98883C 18.7621 9.98321 18.7621 9.97759 18.7621 9.97197C 18.7621 9.96635 18.7621 9.96073 18.7621 9.95511C 18.7621 9.94949 18.7621 9.94387 18.7621 9.93825C 18.7621 9.93264 18.7621 9.92702 18.7621 9.9214C 18.7621 9.91578 18.7621 9.91016 18.7621 9.90454C 18.7621 9.89892 18.7621 9.8933 18.7621 9.88768C 18.7621 9.88206 18.7621 9.87644 18.7621 9.87082C 18.7621 9.86521 18.7621 9.85959 18.7621 9.85397C 18.7621 9.84835 18.7621 9.84273 18.7621 9.83711C 18.7621 9.83149 18.7621 9.82587 18.7621 9.82025C 18.7621 9.81463 18.7621 9.80901 18.7621 9.80339C 18.7621 9.79778 18.7621 9.79216 18.7621 9.78654C 18.7621 9.78092 18.7621 9.7753 18.7621 9.76968C 18.7621 9.76406 18.7621 9.75844 18.7621 9.75282C 18.7621 9.7472 18.7621 9.74158 18.7621 9.73596C 18.7621 9.73035 18.7621 9.72473 18.7621 9.71911C 18.7621 9.71349 18.7621 9.70787 18.7621 9.70225C 18.7621 9.69663 18.7621 9.69101 18.7621 9.68539C 18.7621 9.67977 18.7621 9.67415 18.7621 9.66853C 18.7621 9.66292 18.7621 9.6573 18.7621 9.65168C 18.7621 9.64606 18.7621 9.64044 18.7621 9.63482C 18.7621 9.6292 18.7621 9.62358 18.7621 9.61796C 18.7621 9.61234 18.7621 9.60672 18.7621 9.6011C 18.7621 9.59549 18.7621 9.58987 18.7621 9.58425C 18.7621 9.57863 18.7621 9.57301 18.7621 9.56739C 18.7621 9.56177 18.7621 9.55615 18.7621 9.55053C 18.7621 9.54491 18.7621 9.53929 18.7621 9.53367C 18.7621 9.52806 18.7621 9.52244 18.7621 9.51682C 18.7621 9.5112 18.7621 9.50558 18.7621 9.49996C 18.7621 9.49434 18.7621 9.48872 18.7621 9.4831C 18.7621 9.47748 18.7621 9.47186 18.7621 9.46624C 18.7621 9.46063 18.7621 9.45501 18.7621 9.44939C 18.7621 9.44377 18.7621 9.43815 18.7621 9.43253C 18.7621 9.42691 18.7621 9.42129 18.7621 9.41567L 15.7621 9.41567C 15.7621 9.42129 15.7621 9.42691 15.7621 9.43253C 15.7621 9.43815 15.7621 9.44377 15.7621 9.44939C 15.7621 9.45501 15.7621 9.46063 15.7621 9.46624C 15.7621 9.47186 15.7621 9.47748 15.7621 9.4831C 15.7621 9.48872 15.7621 9.49434 15.7621 9.49996C 15.7621 9.50558 15.7621 9.5112 15.7621 9.51682C 15.7621 9.52244 15.7621 9.52806 15.7621 9.53367C 15.7621 9.53929 15.7621 9.54491 15.7621 9.55053C 15.7621 9.55615 15.7621 9.56177 15.7621 9.56739C 15.7621 9.57301 15.7621 9.57863 15.7621 9.58425C 15.7621 9.58987 15.7621 9.59549 15.7621 9.6011C 15.7621 9.60672 15.7621 9.61234 15.7621 9.61796C 15.7621 9.62358 15.7621 9.6292 15.7621 9.63482C 15.7621 9.64044 15.7621 9.64606 15.7621 9.65168C 15.7621 9.6573 15.7621 9.66292 15.7621 9.66853C 15.7621 9.67415 15.7621 9.67977 15.7621 9.68539C 15.7621 9.69101 15.7621 9.69663 15.7621 9.70225C 15.7621 9.70787 15.7621 9.71349 15.7621 9.71911C 15.7621 9.72473 15.7621 9.73035 15.7621 9.73596C 15.7621 9.74158 15.7621 9.7472 15.7621 9.75282C 15.7621 9.75844 15.7621 9.76406 15.7621 9.76968C 15.7621 9.7753 15.7621 9.78092 15.7621 9.78654C 15.7621 9.79216 15.7621 9.79778 15.7621 9.80339C 15.7621 9.80901 15.7621 9.81463 15.7621 9.82025C 15.7621 9.82587 15.7621 9.83149 15.7621 9.83711C 15.7621 9.84273 15.7621 9.84835 15.7621 9.85397C 15.7621 9.85959 15.7621 9.86521 15.7621 9.87082C 15.7621 9.87644 15.7621 9.88206 15.7621 9.88768C 15.7621 9.8933 15.7621 9.89892 15.7621 9.90454C 15.7621 9.91016 15.7621 9.91578 15.7621 9.9214C 15.7621 9.92702 15.7621 9.93264 15.7621 9.93825C 15.7621 9.94387 15.7621 9.94949 15.7621 9.95511C 15.7621 9.96073 15.7621 9.96635 15.7621 9.97197C 15.7621 9.97759 15.7621 9.98321 15.7621 9.98883C 15.7621 9.99445 15.7621 10.0001 15.7621 10.0057C 15.7621 10.0113 15.7621 10.0169 15.7621 10.0225C 15.7621 10.0282 15.7621 10.0338 15.7621 10.0394C 15.7621 10.045 15.7621 10.0506 15.7621 10.0563C 15.7621 10.0619 15.7621 10.0675 15.7621 10.0731C 15.7621 10.0787 15.7621 10.0844 15.7621 10.09C 15.7621 10.0956 15.7621 10.1012 15.7621 10.1068C 15.7621 10.1124 15.7621 10.1181 15.7621 10.1237C 15.7621 10.1293 15.7621 10.1349 15.7621 10.1405C 15.7621 10.1462 15.7621 10.1518 15.7621 10.1574C 15.7621 10.163 15.7621 10.1686 15.7621 10.1743C 15.7621 10.1799 15.7621 10.1855 15.7621 10.1911C 15.7621 10.1967 15.7621 10.2024 15.7621 10.208C 15.7621 10.2136 15.7621 10.2192 15.7621 10.2248C 15.7621 10.2305 15.7621 10.2361 15.7621 10.2417C 15.7621 10.2473 15.7621 10.2529 15.7621 10.2585C 15.7621 10.2642 15.7621 10.2698 15.7621 10.2754C 15.7621 10.281 15.7621 10.2866 15.7621 10.2923C 15.7621 10.2979 15.7621 10.3035 15.7621 10.3091C 15.7621 10.3147 15.7621 10.3204 15.7621 10.326C 15.7621 10.3316 15.7621 10.3372 15.7621 10.3428C 15.7621 10.3485 15.7621 10.3541 15.7621 10.3597C 15.7621 10.3653 15.7621 10.3709 15.7621 10.3765C 15.7621 10.3822 15.7621 10.3878 15.7621 10.3934C 15.7621 10.399 15.7621 10.4046 15.7621 10.4103C 15.7621 10.4159 15.7621 10.4215 15.7621 10.4271C 15.7621 10.4327 15.7621 10.4384 15.7621 10.444C 15.7621 10.4496 15.7621 10.4552 15.7621 10.4608C 15.7621 10.4665 15.7621 10.4721 15.7621 10.4777C 15.7621 10.4833 15.7621 10.4889 15.7621 10.4946C 15.7621 10.5002 15.7621 10.5058 15.7621 10.5114C 15.7621 10.517 15.7621 10.5226 15.7621 10.5283C 15.7621 10.5339 15.7621 10.5395 15.7621 10.5451C 15.7621 10.5507 15.7621 10.5564 15.7621 10.562C 15.7621 10.5676 15.7621 10.5732 15.7621 10.5788C 15.7621 10.5845 15.7621 10.5901 15.7621 10.5957C 15.7621 10.6013 15.7621 10.6069 15.7621 10.6126C 15.7621 10.6182 15.7621 10.6238 15.7621 10.6294C 15.7621 10.635 15.7621 10.6406 15.7621 10.6463C 15.7621 10.6519 15.7621 10.6575 15.7621 10.6631C 15.7621 10.6687 15.7621 10.6744 15.7621 10.68C 15.7621 10.6856 15.7621 10.6912 15.7621 10.6968C 15.7621 10.7025 15.7621 10.7081 15.7621 10.7137C 15.7621 10.7193 15.7621 10.7249 15.7621 10.7306C 15.7621 10.7362 15.7621 10.7418 15.7621 10.7474C 15.7621 10.753 15.7621 10.7587 15.7621 10.7643C 15.7621 10.7699 15.7621 10.7755 15.7621 10.7811C 15.7621 10.7867 15.7621 10.7924 15.7621 10.798C 15.7621 10.8036 15.7621 10.8092 15.7621 10.8148C 15.7621 10.8205 15.7621 10.8261 15.7621 10.8317C 15.7621 10.8373 15.7621 10.8429 15.7621 10.8486C 15.7621 10.8542 15.7621 10.8598 15.7621 10.8654C 15.7621 10.871 15.7621 10.8767 15.7621 10.8823C 15.7621 10.8879 15.7621 10.8935 15.7621 10.8991C 15.7621 10.9048 15.7621 10.9104 15.7621 10.916C 15.7621 10.9216 15.7621 10.9272 15.7621 10.9328C 15.7621 10.9385 15.7621 10.9441 15.7621 10.9497C 15.7621 10.9553 15.7621 10.9609 15.7621 10.9666C 15.7621 10.9722 15.7621 10.9778 15.7621 10.9834C 15.7621 10.989 15.7621 10.9947 15.7621 11.0003C 15.7621 11.0059 15.7621 11.0115 15.7621 11.0171C 15.7621 11.0228 15.7621 11.0284 15.7621 11.034C 15.7621 11.0396 15.7621 11.0452 15.7621 11.0508C 15.7621 11.0565 15.7621 11.0621 15.7621 11.0677C 15.7621 11.0733 15.7621 11.0789 15.7621 11.0846C 15.7621 11.0902 15.7621 11.0958 15.7621 11.1014C 15.7621 11.107 15.7621 11.1127 15.7621 11.1183C 15.7621 11.1239 15.7621 11.1295 15.7621 11.1351C 15.7621 11.1408 15.7621 11.1464 15.7621 11.152C 15.7621 11.1576 15.7621 11.1632 15.7621 11.1689C 15.7621 11.1745 15.7621 11.1801 15.7621 11.1857C 15.7621 11.1913 15.7621 11.1969 15.7621 11.2026C 15.7621 11.2082 15.7621 11.2138 15.7621 11.2194C 15.7621 11.225 15.7621 11.2307 15.7621 11.2363C 15.7621 11.2419 15.7621 11.2475 15.7621 11.2531C 15.7621 11.2588 15.7621 11.2644 15.7621 11.27C 15.7621 11.2756 15.7621 11.2812 15.7621 11.2869C 15.7621 11.2925 15.7621 11.2981 15.7621 11.3037C 15.7621 11.3093 15.7621 11.3149 15.7621 11.3206C 15.7621 11.3262 15.7621 11.3318 15.7621 11.3374C 15.7621 11.343 15.7621 11.3487 15.7621 11.3543C 15.7621 11.3599 15.7621 11.3655 15.7621 11.3711C 15.7621 11.3768 15.7621 11.3824 15.7621 11.388C 15.7621 11.3936 15.7621 11.3992 15.7621 11.4049C 15.7621 11.4105 15.7621 11.4161 15.7621 11.4217C 15.7621 11.4273 15.7621 11.433 15.7621 11.4386C 15.7621 11.4442 15.7621 11.4498 15.7621 11.4554C 15.7621 11.461 15.7621 11.4667 15.7621 11.4723C 15.7621 11.4779 15.7621 11.4835 15.7621 11.4891C 15.7621 11.4948 15.7621 11.5004 15.7621 11.506C 15.7621 11.5116 15.7621 11.5172 15.7621 11.5229C 15.7621 11.5285 15.7621 11.5341 15.7621 11.5397C 15.7621 11.5453 15.7621 11.551 15.7621 11.5566C 15.7621 11.5622 15.7621 11.5678 15.7621 11.5734C 15.7621 11.579 15.7621 11.5847 15.7621 11.5903C 15.7621 11.5959 15.7621 11.6015 15.7621 11.6071C 15.7621 11.6128 15.7621 11.6184 15.7621 11.624C 15.7621 11.6296 15.7621 11.6352 15.7621 11.6409C 15.7621 11.6465 15.7621 11.6521 15.7621 11.6577C 15.7621 11.6633 15.7621 11.669 15.7621 11.6746C 15.7621 11.6802 15.7621 11.6858 15.7621 11.6914C 15.7621 11.6971 15.7621 11.7027 15.7621 11.7083C 15.7621 11.7139 15.7621 11.7195 15.7621 11.7251C 15.7621 11.7308 15.7621 11.7364 15.7621 11.742C 15.7621 11.7476 15.7621 11.7532 15.7621 11.7589C 15.7621 11.7645 15.7621 11.7701 15.7621 11.7757C 15.7621 11.7813 15.7621 11.787 15.7621 11.7926C 15.7621 11.7982 15.7621 11.8038 15.7621 11.8094C 15.7621 11.8151 15.7621 11.8207 15.7621 11.8263C 15.7621 11.8319 15.7621 11.8375 15.7621 11.8432C 15.7621 11.8488 15.7621 11.8544 15.7621 11.86C 15.7621 11.8656 15.7621 11.8712 15.7621 11.8769C 15.7621 11.8825 15.7621 11.8881 15.7621 11.8937C 15.7621 11.8993 15.7621 11.905 15.7621 11.9106C 15.7621 11.9162 15.7621 11.9218 15.7621 11.9274C 15.7621 11.9331 15.7621 11.9387 15.7621 11.9443C 15.7621 11.9499 15.7621 11.9555 15.7621 11.9612C 15.7621 11.9668 15.7621 11.9724 15.7621 11.978C 15.7621 11.9836 15.7621 11.9892 15.7621 11.9949C 15.7621 12.0005 15.7621 12.0061 15.7621 12.0117C 15.7621 12.0173 15.7621 12.023 15.7621 12.0286C 15.7621 12.0342 15.7621 12.0398 15.7621 12.0454C 15.7621 12.0511 15.7621 12.0567 15.7621 12.0623C 15.7621 12.0679 15.7621 12.0735 15.7621 12.0792C 15.7621 12.0848 15.7621 12.0904 15.7621 12.096C 15.7621 12.1016 15.7621 12.1073 15.7621 12.1129C 15.7621 12.1185 15.7621 12.1241 15.7621 12.1297C 15.7621 12.1353 15.7621 12.141 15.7621 12.1466C 15.7621 12.1522 15.7621 12.1578 15.7621 12.1634C 15.7621 12.1691 15.7621 12.1747 15.7621 12.1803C 15.7621 12.1859 15.7621 12.1915 15.7621 12.1972C 15.7621 12.2028 15.7621 12.2084 15.7621 12.214C 15.7621 12.2196 15.7621 12.2253 15.7621 12.2309C 15.7621 12.2365 15.7621 12.2421 15.7621 12.2477C 15.7621 12.2533 15.7621 12.259 15.7621 12.2646C 15.7621 12.2702 15.7621 12.2758 15.7621 12.2814C 15.7621 12.2871 15.7621 12.2927 15.7621 12.2983C 15.7621 12.3039 15.7621 12.3095 15.7621 12.3152C 15.7621 12.3208 15.7621 12.3264 15.7621 12.332C 15.7621 12.3376 15.7621 12.3433 15.7621 12.3489C 15.7621 12.3545 15.7621 12.3601 15.7621 12.3657C 15.7621 12.3714 15.7621 12.377 15.7621 12.3826C 15.7621 12.3882 15.7621 12.3938 15.7621 12.3994C 15.7621 12.4051 15.7621 12.4107 15.7621 12.4163C 15.7621 12.4219 15.7621 12.4275 15.7621 12.4332C 15.7621 12.4388 15.7621 12.4444 15.7621 12.45C 15.7621 12.4556 15.7621 12.4613 15.7621 12.4669C 15.7621 12.4725 15.7621 12.4781 15.7621 12.4837C 15.7621 12.4894 15.7621 12.495 15.7621 12.5006C 15.7621 12.5062 15.7621 12.5118 15.7621 12.5174C 15.7621 12.5231 15.7621 12.5287 15.7621 12.5343C 15.7621 12.5399 15.7621 12.5455 15.7621 12.5512C 15.7621 12.5568 15.7621 12.5624 15.7621 12.568C 15.7621 12.5736 15.7621 12.5793 15.7621 12.5849C 15.7621 12.5905 15.7621 12.5961 15.7621 12.6017C 15.7621 12.6074 15.7621 12.613 15.7621 12.6186C 15.7621 12.6242 15.7621 12.6298 15.7621 12.6355C 15.7621 12.6411 15.7621 12.6467 15.7621 12.6523C 15.7621 12.6579 15.7621 12.6635 15.7621 12.6692C 15.7621 12.6748 15.7621 12.6804 15.7621 12.686C 15.7621 12.6916 15.7621 12.6973 15.7621 12.7029C 15.7621 12.7085 15.7621 12.7141 15.7621 12.7197C 15.7621 12.7254 15.7621 12.731 15.7621 12.7366C 15.7621 12.7422 15.7621 12.7478 15.7621 12.7535C 15.7621 12.7591 15.7621 12.7647 15.7621 12.7703C 15.7621 12.7759 15.7621 12.7816 15.7621 12.7872C 15.7621 12.7928 15.7621 12.7984 15.7621 12.804C 15.7621 12.8096 15.7621 12.8153 15.7621 12.8209C 15.7621 12.8265 15.7621 12.8321 15.7621 12.8377C 15.7621 12.8434 15.7621 12.849 15.7621 12.8546C 15.7621 12.8602 15.7621 12.8658 15.7621 12.8715C 15.7621 12.8771 15.7621 12.8827 15.7621 12.8883C 15.7621 12.8939 15.7621 12.8996 15.7621 12.9052C 15.7621 12.9108 15.7621 12.9164 15.7621 12.922C 15.7621 12.9276 15.7621 12.9333 15.7621 12.9389C 15.7621 12.9445 15.7621 12.9501 15.7621 12.9557C 15.7621 12.9614 15.7621 12.967 15.7621 12.9726C 15.7621 12.9782 15.7621 12.9838 15.7621 12.9895C 15.7621 12.9951 15.7621 13.0007 15.7621 13.0063C 15.7621 13.0119 15.7621 13.0176 15.7621 13.0232C 15.7621 13.0288 15.7621 13.0344 15.7621 13.04C 15.7621 13.0457 15.7621 13.0513 15.7621 13.0569C 15.7621 13.0625 15.7621 13.0681 15.7621 13.0737C 15.7621 13.0794 15.7621 13.085 15.7621 13.0906C 15.7621 13.0962 15.7621 13.1018 15.7621 13.1075C 15.7621 13.1131 15.7621 13.1187 15.7621 13.1243C 15.7621 13.1299 15.7621 13.1356 15.7621 13.1412C 15.7621 13.1468 15.7621 13.1524 15.7621 13.158C 15.7621 13.1637 15.7621 13.1693 15.7621 13.1749C 15.7621 13.1805 15.7621 13.1861 15.7621 13.1917C 15.7621 13.1974 15.7621 13.203 15.7621 13.2086C 15.7621 13.2142 15.7621 13.2198 15.7621 13.2255C 15.7621 13.2311 15.7621 13.2367 15.7621 13.2423C 15.7621 13.2479 15.7621 13.2536 15.7621 13.2592C 15.7621 13.2648 15.7621 13.2704 15.7621 13.276C 15.7621 13.2817 15.7621 13.2873 15.7621 13.2929C 15.7621 13.2985 15.7621 13.3041 15.7621 13.3098C 15.7621 13.3154 15.7621 13.321 15.7621 13.3266C 15.7621 13.3322 15.7621 13.3378 15.7621 13.3435C 15.7621 13.3491 15.7621 13.3547 15.7621 13.3603C 15.7621 13.3659 15.7621 13.3716 15.7621 13.3772C 15.7621 13.3828 15.7621 13.3884 15.7621 13.394C 15.7621 13.3997 15.7621 13.4053 15.7621 13.4109C 15.7621 13.4165 15.7621 13.4221 15.7621 13.4278C 15.7621 13.4334 15.7621 13.439 15.7621 13.4446C 15.7621 13.4502 15.7621 13.4558 15.7621 13.4615C 15.7621 13.4671 15.7621 13.4727 15.7621 13.4783C 15.7621 13.4839 15.7621 13.4896 15.7621 13.4952C 15.7621 13.5008 15.7621 13.5064 15.7621 13.512C 15.7621 13.5177 15.7621 13.5233 15.7621 13.5289C 15.7621 13.5345 15.7621 13.5401 15.7621 13.5458C 15.7621 13.5514 15.7621 13.557 15.7621 13.5626C 15.7621 13.5682 15.7621 13.5739 15.7621 13.5795C 15.7621 13.5851 15.7621 13.5907 15.7621 13.5963C 15.7621 13.6019 15.7621 13.6076 15.7621 13.6132C 15.7621 13.6188 15.7621 13.6244 15.7621 13.63C 15.7621 13.6357 15.7621 13.6413 15.7621 13.6469C 15.7621 13.6525 15.7621 13.6581 15.7621 13.6638C 15.7621 13.6694 15.7621 13.675 15.7621 13.6806C 15.7621 13.6862 15.7621 13.6919 15.7621 13.6975C 15.7621 13.7031 15.7621 13.7087 15.7621 13.7143C 15.7621 13.72 15.7621 13.7256 15.7621 13.7312C 15.7621 13.7368 15.7621 13.7424 15.7621 13.748C 15.7621 13.7537 15.7621 13.7593 15.7621 13.7649C 15.7621 13.7705 15.7621 13.7761 15.7621 13.7818C 15.7621 13.7874 15.7621 13.793 15.7621 13.7986C 15.7621 13.8042 15.7621 13.8099 15.7621 13.8155C 15.7621 13.8211 15.7621 13.8267 15.7621 13.8323C 15.7621 13.838 15.7621 13.8436 15.7621 13.8492C 15.7621 13.8548 15.7621 13.8604 15.7621 13.866C 15.7621 13.8717 15.7621 13.8773 15.7621 13.8829C 15.7621 13.8885 15.7621 13.8941 15.7621 13.8998C 15.7621 13.9054 15.7621 13.911 15.7621 13.9166C 15.7621 13.9222 15.7621 13.9279 15.7621 13.9335C 15.7621 13.9391 15.7621 13.9447 15.7621 13.9503C 15.7621 13.956 15.7621 13.9616 15.7621 13.9672C 15.7621 13.9728 15.7621 13.9784 15.7621 13.9841C 15.7621 13.9897 15.7621 13.9953 15.7621 14.0009C 15.7621 14.0065 15.7621 14.0121 15.7621 14.0178C 15.7621 14.0234 15.7621 14.029 15.7621 14.0346C 15.7621 14.0402 15.7621 14.0459 15.7621 14.0515C 15.7621 14.0571 15.7621 14.0627 15.7621 14.0683C 15.7621 14.074 15.7621 14.0796 15.7621 14.0852C 15.7621 14.0908 15.7621 14.0964 15.7621 14.1021C 15.7621 14.1077 15.7621 14.1133 15.7621 14.1189C 15.7621 14.1245 15.7621 14.1301 15.7621 14.1358C 15.7621 14.1414 15.7621 14.147 15.7621 14.1526C 15.7621 14.1582 15.7621 14.1639 15.7621 14.1695C 15.7621 14.1751 15.7621 14.1807 15.7621 14.1863C 15.7621 14.192 15.7621 14.1976 15.7621 14.2032C 15.7621 14.2088 15.7621 14.2144 15.7621 14.2201C 15.7621 14.2257 15.7621 14.2313 15.7621 14.2369C 15.7621 14.2425 15.7621 14.2482 15.7621 14.2538C 15.7621 14.2594 15.7621 14.265 15.7621 14.2706C 15.7621 14.2762 15.7621 14.2819 15.7621 14.2875C 15.7621 14.2931 15.7621 14.2987 15.7621 14.3043C 15.7621 14.31 15.7621 14.3156 15.7621 14.3212C 15.7621 14.3268 15.7621 14.3324 15.7621 14.3381C 15.7621 14.3437 15.7621 14.3493 15.7621 14.3549C 15.7621 14.3605 15.7621 14.3662 15.7621 14.3718C 15.7621 14.3774 15.7621 14.383 15.7621 14.3886C 15.7621 14.3942 15.7621 14.3999 15.7621 14.4055C 15.7621 14.4111 15.7621 14.4167 15.7621 14.4223C 15.7621 14.428 15.7621 14.4336 15.7621 14.4392C 15.7621 14.4448 15.7621 14.4504 15.7621 14.4561C 15.7621 14.4617 15.7621 14.4673 15.7621 14.4729C 15.7621 14.4785 15.7621 14.4842 15.7621 14.4898C 15.7621 14.4954 15.7621 14.501 15.7621 14.5066C 15.7621 14.5123 15.7621 14.5179 15.7621 14.5235C 15.7621 14.5291 15.7621 14.5347 15.7621 14.5403C 15.7621 14.546 15.7621 14.5516 15.7621 14.5572C 15.7621 14.5628 15.7621 14.5684 15.7621 14.5741C 15.7621 14.5797 15.7621 14.5853 15.7621 14.5909C 15.7621 14.5965 15.7621 14.6022 15.7621 14.6078C 15.7621 14.6134 15.7621 14.619 15.7621 14.6246C 15.7621 14.6303 15.7621 14.6359 15.7621 14.6415C 15.7621 14.6471 15.7621 14.6527 15.7621 14.6584C 15.7621 14.664 15.7621 14.6696 15.7621 14.6752C 15.7621 14.6808 15.7621 14.6864 15.7621 14.6921C 15.7621 14.6977 15.7621 14.7033 15.7621 14.7089C 15.7621 14.7145 15.7621 14.7202 15.7621 14.7258C 15.7621 14.7314 15.7621 14.737 15.7621 14.7426C 15.7621 14.7483 15.7621 14.7539 15.7621 14.7595C 15.7621 14.7651 15.7621 14.7707 15.7621 14.7764C 15.7621 14.782 15.7621 14.7876 15.7621 14.7932C 15.7621 14.7988 15.7621 14.8044 15.7621 14.8101C 15.7621 14.8157 15.7621 14.8213 15.7621 14.8269C 15.7621 14.8325 15.7621 14.8382 15.7621 14.8438C 15.7621 14.8494 15.7621 14.855 15.7621 14.8606C 15.7621 14.8663 15.7621 14.8719 15.7621 14.8775C 15.7621 14.8831 15.7621 14.8887 15.7621 14.8944C 15.7621 14.9 15.7621 14.9056 15.7621 14.9112C 15.7621 14.9168 15.7621 14.9225 15.7621 14.9281C 15.7621 14.9337 15.7621 14.9393 15.7621 14.9449C 15.7621 14.9505 15.7621 14.9562 15.7621 14.9618C 15.7621 14.9674 15.7621 14.973 15.7621 14.9786C 15.7621 14.9843 15.7621 14.9899 15.7621 14.9955C 15.7621 15.0011 15.7621 15.0067 15.7621 15.0124C 15.7621 15.018 15.7621 15.0236 15.7621 15.0292C 15.7621 15.0348 15.7621 15.0405 15.7621 15.0461C 15.7621 15.0517 15.7621 15.0573 15.7621 15.0629C 15.7621 15.0685 15.7621 15.0742 15.7621 15.0798C 15.7621 15.0854 15.7621 15.091 15.7621 15.0966C 15.7621 15.1023 15.7621 15.1079 15.7621 15.1135C 15.7621 15.1191 15.7621 15.1247 15.7621 15.1304C 15.7621 15.136 15.7621 15.1416 15.7621 15.1472C 15.7621 15.1528 15.7621 15.1585 15.7621 15.1641C 15.7621 15.1697 15.7621 15.1753 15.7621 15.1809C 15.7621 15.1866 15.7621 15.1922 15.7621 15.1978C 15.7621 15.2034 15.7621 15.209 15.7621 15.2146C 15.7621 15.2203 15.7621 15.2259 15.7621 15.2315C 15.7621 15.2371 15.7621 15.2427 15.7621 15.2484C 15.7621 15.254 15.7621 15.2596 15.7621 15.2652C 15.7621 15.2708 15.7621 15.2765 15.7621 15.2821C 15.7621 15.2877 15.7621 15.2933 15.7621 15.2989C 15.7621 15.3046 15.7621 15.3102 15.7621 15.3158C 15.7621 15.3214 15.7621 15.327 15.7621 15.3326C 15.7621 15.3383 15.7621 15.3439 15.7621 15.3495C 15.7621 15.3551 15.7621 15.3607 15.7621 15.3664C 15.7621 15.372 15.7621 15.3776 15.7621 15.3832C 15.7621 15.3888 15.7621 15.3945 15.7621 15.4001C 15.7621 15.4057 15.7621 15.4113 15.7621 15.4169C 15.7621 15.4226 15.7621 15.4282 15.7621 15.4338C 15.7621 15.4394 15.7621 15.445 15.7621 15.4507C 15.7621 15.4563 15.7621 15.4619 15.7621 15.4675C 15.7621 15.4731 15.7621 15.4787 15.7621 15.4844C 15.7621 15.49 15.7621 15.4956 15.7621 15.5012C 15.7621 15.5068 15.7621 15.5125 15.7621 15.5181C 15.7621 15.5237 15.7621 15.5293 15.7621 15.5349C 15.7621 15.5406 15.7621 15.5462 15.7621 15.5518C 15.7621 15.5574 15.7621 15.563 15.7621 15.5687C 15.7621 15.5743 15.7621 15.5799 15.7621 15.5855C 15.7621 15.5911 15.7621 15.5968 15.7621 15.6024C 15.7621 15.608 15.7621 15.6136 15.7621 15.6192C 15.7621 15.6248 15.7621 15.6305 15.7621 15.6361C 15.7621 15.6417 15.7621 15.6473 15.7621 15.6529C 15.7621 15.6586 15.7621 15.6642 15.7621 15.6698C 15.7621 15.6754 15.7621 15.681 15.7621 15.6867C 15.7621 15.6923 15.7621 15.6979 15.7621 15.7035C 15.7621 15.7091 15.7621 15.7148 15.7621 15.7204C 15.7621 15.726 15.7621 15.7316 15.7621 15.7372C 15.7621 15.7428 15.7621 15.7485 15.7621 15.7541C 15.7621 15.7597 15.7621 15.7653 15.7621 15.7709C 15.7621 15.7766 15.7621 15.7822 15.7621 15.7878C 15.7621 15.7934 15.7621 15.799 15.7621 15.8047C 15.7621 15.8103 15.7621 15.8159 15.7621 15.8215C 15.7621 15.8271 15.7621 15.8328 15.7621 15.8384C 15.7621 15.844 15.7621 15.8496 15.7621 15.8552C 15.7621 15.8609 15.7621 15.8665 15.7621 15.8721C 15.7621 15.8777 15.7621 15.8833 15.7621 15.8889C 15.7621 15.8946 15.7621 15.9002 15.7621 15.9058C 15.7621 15.9114 15.7621 15.917 15.7621 15.9227C 15.7621 15.9283 15.7621 15.9339 15.7621 15.9395C 15.7621 15.9451 15.7621 15.9508 15.7621 15.9564C 15.7621 15.962 15.7621 15.9676 15.7621 15.9732C 15.7621 15.9789 15.7621 15.9845 15.7621 15.9901C 15.7621 15.9957 15.7621 16.0013 15.7621 16.0069C 15.7621 16.0126 15.7621 16.0182 15.7621 16.0238C 15.7621 16.0294 15.7621 16.035 15.7621 16.0407C 15.7621 16.0463 15.7621 16.0519 15.7621 16.0575C 15.7621 16.0631 15.7621 16.0688 15.7621 16.0744C 15.7621 16.08 15.7621 16.0856 15.7621 16.0912C 15.7621 16.0969 15.7621 16.1025 15.7621 16.1081C 15.7621 16.1137 15.7621 16.1193 15.7621 16.125C 15.7621 16.1306 15.7621 16.1362 15.7621 16.1418C 15.7621 16.1474 15.7621 16.153 15.7621 16.1587C 15.7621 16.1643 15.7621 16.1699 15.7621 16.1755C 15.7621 16.1811 15.7621 16.1868 15.7621 16.1924C 15.7621 16.198 15.7621 16.2036 15.7621 16.2092C 15.7621 16.2149 15.7621 16.2205 15.7621 16.2261C 15.7621 16.2317 15.7621 16.2373 15.7621 16.243C 15.7621 16.2486 15.7621 16.2542 15.7621 16.2598C 15.7621 16.2654 15.7621 16.2711 15.7621 16.2767C 15.7621 16.2823 15.7621 16.2879 15.7621 16.2935C 15.7621 16.2991 15.7621 16.3048 15.7621 16.3104C 15.7621 16.316 15.7621 16.3216 15.7621 16.3272C 15.7621 16.3329 15.7621 16.3385 15.7621 16.3441C 15.7621 16.3497 15.7621 16.3553 15.7621 16.361C 15.7621 16.3666 15.7621 16.3722 15.7621 16.3778C 15.7621 16.3834 15.7621 16.3891 15.7621 16.3947C 15.7621 16.4003 15.7621 16.4059 15.7621 16.4115C 15.7621 16.4171 15.7621 16.4228 15.7621 16.4284C 15.7621 16.434 15.7621 16.4396 15.7621 16.4452C 15.7621 16.4509 15.7621 16.4565 15.7621 16.4621C 15.7621 16.4677 15.7621 16.4733 15.7621 16.479C 15.7621 16.4846 15.7621 16.4902 15.7621 16.4958C 15.7621 16.5014 15.7621 16.5071 15.7621 16.5127C 15.7621 16.5183 15.7621 16.5239 15.7621 16.5295C 15.7621 16.5352 15.7621 16.5408 15.7621 16.5464C 15.7621 16.552 15.7621 16.5576 15.7621 16.5632C 15.7621 16.5689 15.7621 16.5745 15.7621 16.5801C 15.7621 16.5857 15.7621 16.5913 15.7621 16.597C 15.7621 16.6026 15.7621 16.6082 15.7621 16.6138C 15.7621 16.6194 15.7621 16.6251 15.7621 16.6307C 15.7621 16.6363 15.7621 16.6419 15.7621 16.6475C 15.7621 16.6532 15.7621 16.6588 15.7621 16.6644C 15.7621 16.67 15.7621 16.6756 15.7621 16.6812C 15.7621 16.6869 15.7621 16.6925 15.7621 16.6981C 15.7621 16.7037 15.7621 16.7093 15.7621 16.715C 15.7621 16.7206 15.7621 16.7262 15.7621 16.7318C 15.7621 16.7374 15.7621 16.7431 15.7621 16.7487C 15.7621 16.7543 15.7621 16.7599 15.7621 16.7655C 15.7621 16.7712 15.7621 16.7768 15.7621 16.7824C 15.7621 16.788 15.7621 16.7936 15.7621 16.7993C 15.7621 16.8049 15.7621 16.8105 15.7621 16.8161C 15.7621 16.8217 15.7621 16.8273 15.7621 16.833C 15.7621 16.8386 15.7621 16.8442 15.7621 16.8498C 15.7621 16.8554 15.7621 16.8611 15.7621 16.8667C 15.7621 16.8723 15.7621 16.8779 15.7621 16.8835C 15.7621 16.8892 15.7621 16.8948 15.7621 16.9004C 15.7621 16.906 15.7621 16.9116 15.7621 16.9173C 15.7621 16.9229 15.7621 16.9285 15.7621 16.9341C 15.7621 16.9397 15.7621 16.9453 15.7621 16.951C 15.7621 16.9566 15.7621 16.9622 15.7621 16.9678C 15.7621 16.9734 15.7621 16.9791 15.7621 16.9847C 15.7621 16.9903 15.7621 16.9959 15.7621 17.0015C 15.7621 17.0072 15.7621 17.0128 15.7621 17.0184C 15.7621 17.024 15.7621 17.0296 15.7621 17.0353C 15.7621 17.0409 15.7621 17.0465 15.7621 17.0521C 15.7621 17.0577 15.7621 17.0634 15.7621 17.069C 15.7621 17.0746 15.7621 17.0802 15.7621 17.0858C 15.7621 17.0914 15.7621 17.0971 15.7621 17.1027C 15.7621 17.1083 15.7621 17.1139 15.7621 17.1195C 15.7621 17.1252 15.7621 17.1308 15.7621 17.1364C 15.7621 17.142 15.7621 17.1476 15.7621 17.1533C 15.7621 17.1589 15.7621 17.1645 15.7621 17.1701C 15.7621 17.1757 15.7621 17.1814 15.7621 17.187C 15.7621 17.1926 15.7621 17.1982 15.7621 17.2038C 15.7621 17.2095 15.7621 17.2151 15.7621 17.2207C 15.7621 17.2263 15.7621 17.2319 15.7621 17.2375C 15.7621 17.2432 15.7621 17.2488 15.7621 17.2544C 15.7621 17.26 15.7621 17.2656 15.7621 17.2713C 15.7621 17.2769 15.7621 17.2825 15.7621 17.2881C 15.7621 17.2937 15.7621 17.2994 15.7621 17.305C 15.7621 17.3106 15.7621 17.3162 15.7621 17.3218C 15.7621 17.3275 15.7621 17.3331 15.7621 17.3387C 15.7621 17.3443 15.7621 17.3499 15.7621 17.3555C 15.7621 17.3612 15.7621 17.3668 15.7621 17.3724C 15.7621 17.378 15.7621 17.3836 15.7621 17.3893C 15.7621 17.3949 15.7621 17.4005 15.7621 17.4061C 15.7621 17.4117 15.7621 17.4174 15.7621 17.423C 15.7621 17.4286 15.7621 17.4342 15.7621 17.4398C 15.7621 17.4455 15.7621 17.4511 15.7621 17.4567C 15.7621 17.4623 15.7621 17.4679 15.7621 17.4736C 15.7621 17.4792 15.7621 17.4848 15.7621 17.4904C 15.7621 17.496 15.7621 17.5016 15.7621 17.5073C 15.7621 17.5129 15.7621 17.5185 15.7621 17.5241C 15.7621 17.5297 15.7621 17.5354 15.7621 17.541C 15.7621 17.5466 15.7621 17.5522 15.7621 17.5578C 15.7621 17.5635 15.7621 17.5691 15.7621 17.5747C 15.7621 17.5803 15.7621 17.5859 15.7621 17.5916C 15.7621 17.5972 15.7621 17.6028 15.7621 17.6084C 15.7621 17.614 15.7621 17.6196 15.7621 17.6253C 15.7621 17.6309 15.7621 17.6365 15.7621 17.6421C 15.7621 17.6477 15.7621 17.6534 15.7621 17.659C 15.7621 17.6646 15.7621 17.6702 15.7621 17.6758C 15.7621 17.6815 15.7621 17.6871 15.7621 17.6927C 15.7621 17.6983 15.7621 17.7039 15.7621 17.7096C 15.7621 17.7152 15.7621 17.7208 15.7621 17.7264C 15.7621 17.732 15.7621 17.7377 15.7621 17.7433C 15.7621 17.7489 15.7621 17.7545 15.7621 17.7601C 15.7621 17.7657 15.7621 17.7714 15.7621 17.777C 15.7621 17.7826 15.7621 17.7882 15.7621 17.7938C 15.7621 17.7995 15.7621 17.8051 15.7621 17.8107C 15.7621 17.8163 15.7621 17.8219 15.7621 17.8276C 15.7621 17.8332 15.7621 17.8388 15.7621 17.8444C 15.7621 17.85 15.7621 17.8557 15.7621 17.8613C 15.7621 17.8669 15.7621 17.8725 15.7621 17.8781C 15.7621 17.8837 15.7621 17.8894 15.7621 17.895C 15.7621 17.9006 15.7621 17.9062 15.7621 17.9118C 15.7621 17.9175 15.7621 17.9231 15.7621 17.9287C 15.7621 17.9343 15.7621 17.9399 15.7621 17.9456C 15.7621 17.9512 15.7621 17.9568 15.7621 17.9624C 15.7621 17.968 15.7621 17.9737 15.7621 17.9793C 15.7621 17.9849 15.7621 17.9905 15.7621 17.9961C 15.7621 18.0018 15.7621 18.0074 15.7621 18.013C 15.7621 18.0186 15.7621 18.0242 15.7621 18.0298C 15.7621 18.0355 15.7621 18.0411 15.7621 18.0467L 18.7621 18.0467ZM 18.7621 9.41567C 18.7621 7.33425 19.6774 4.82459 21.1255 3.42406C 21.82 2.75241 22.5738 2.39169 23.3708 2.35621C 24.1685 2.3207 25.2254 2.60153 26.5415 3.62513L 28.3833 1.25707C 26.66 -0.0832855 24.9221 -0.71581 23.2374 -0.640819C 21.552 -0.565798 20.1357 0.207834 19.0399 1.26762C 16.9075 3.32997 15.7621 6.67155 15.7621 9.41567L 18.7621 9.41567ZM 26.5415 3.62513C 26.9592 3.94999 27.4714 4.54779 28.0473 5.46687C 28.6124 6.36889 29.19 7.50075 29.7657 8.81319C 30.9167 11.4376 32.0161 14.6825 32.9718 18.0315C 34.8985 24.783 36.1627 31.6746 36.1627 34.5241L 39.1627 34.5241C 39.1627 31.2325 37.7956 24.0028 35.8566 17.2082C 34.8795 13.7841 33.7374 10.3998 32.513 7.6082C 31.9009 6.21261 31.2572 4.93975 30.5895 3.87401C 29.9324 2.82533 29.2001 1.89234 28.3833 1.25707L 26.5415 3.62513Z"/>
<path id="path6_stroke" d="M 1.99603 22.5534C 1.18294 22.712 0.652411 23.4998 0.811063 24.3129C 0.969715 25.1259 1.75747 25.6565 2.57056 25.4978L 1.99603 22.5534ZM 23.7446 29.7941C 24.3304 29.2083 24.3304 28.2586 23.7446 27.6728C 23.1588 27.087 22.209 27.087 21.6233 27.6728L 23.7446 29.7941ZM 2.57056 25.4978C 8.73773 24.2945 13.0945 22.3525 15.84 18.8495C 18.5716 15.3641 19.4761 10.6239 19.4761 4.40961L 16.4761 4.40961C 16.4761 10.4364 15.5737 14.3258 13.4787 16.9989C 11.3975 19.6544 7.90793 21.3998 1.99603 22.5534L 2.57056 25.4978ZM 19.4761 4.40961C 19.4761 3.129 19.1243 1.99596 18.446 1.06652C 17.7749 0.146965 16.8487 -0.48585 15.8318 -0.889068C 13.8327 -1.68179 11.3375 -1.65318 8.99417 -1.08939C 6.62948 -0.520453 4.23046 0.636965 2.39529 2.32637C 0.547935 4.027 -0.78598 6.33086 -0.78598 9.11744L 2.21402 9.11744C 2.21402 7.36368 3.03786 5.81247 4.42715 4.53353C 5.82862 3.24337 7.74511 2.29674 9.69594 1.82738C 11.6681 1.35287 13.4884 1.40894 14.726 1.89968C 15.3274 2.13819 15.7498 2.4611 16.0227 2.83506C 16.2884 3.19912 16.4761 3.69737 16.4761 4.40961L 19.4761 4.40961ZM -0.78598 9.11744C -0.78598 10.5114 -0.937029 12.3933 -1.10649 14.5985C -1.27349 16.7716 -1.45373 19.2108 -1.4924 21.6148C -1.53097 24.0117 -1.43066 26.4381 -1.01397 28.5834C -0.60228 30.7029 0.152803 32.7346 1.57137 34.1532L 3.69269 32.0319C 2.89042 31.2296 2.29534 29.8872 1.93099 28.0114C 1.57166 26.1614 1.47007 23.9714 1.50721 21.663C 1.54424 19.3615 1.71731 17.0064 1.88469 14.8283C 2.04961 12.6823 2.21402 10.6562 2.21402 9.11744L -0.78598 9.11744ZM 1.57137 34.1532C 3.63153 36.2134 5.72404 37.4332 7.85599 37.9078C 9.99593 38.3842 12.0343 38.0782 13.9243 37.3271C 17.6028 35.8652 20.9201 32.6186 23.7446 29.7941L 21.6233 27.6728C 18.7039 30.5921 15.8169 33.3467 12.8163 34.5392C 11.3667 35.1153 9.94676 35.2998 8.50788 34.9795C 7.06102 34.6574 5.45419 33.7934 3.69269 32.0319L 1.57137 34.1532Z"/>
</defs>
</svg>
