<svg width="172" height="504" viewBox="0 0 172 504" version="1.1" xmlns="http://www.w3.org/2000/svg" xmlns:xlink="http://www.w3.org/1999/xlink">
<title>squiggly</title>
<desc>Created using Figma</desc>
<g id="Canvas" transform="translate(21150 -6548)">
<g id="squiggly">
<g id="Vector 5">
<use xlink:href="#path0_stroke" transform="translate(-21126.4 6565.94)"/>
</g>
<g id="Vector 6">
<use xlink:href="#path1_stroke" transform="translate(-21148.2 6550.39)"/>
</g>
</g>
</g>
<defs>
<path id="path0_stroke" d="M 0.26573 30.1087C -0.549595 29.9619 -1.32952 30.5039 -1.47627 31.3192C -1.62303 32.1345 -1.08105 32.9145 -0.26573 33.0612L 0.26573 30.1087ZM 103.09 75.0142L 102.577 76.4239L 103.09 75.0142ZM 48.3644 71.1758L 48.1363 69.6932L 48.3644 71.1758ZM 22.592 108.573L 23.99 109.117L 22.592 108.573ZM 18.7536 151.015L 20.0648 150.287L 18.7536 151.015ZM 56.2607 163.737L 56.5861 165.201L 56.2607 163.737ZM 64.0472 138.184L 63.5346 139.594L 64.0472 138.184ZM 28.7335 134.346L 28.3214 132.903L 28.7335 134.346ZM 47.3774 206.289L 46.9759 207.734L 47.3774 206.289ZM 122.392 193.458L 123.392 194.576L 122.392 193.458ZM 124.804 163.408L 125.965 162.458L 124.804 163.408ZM 101.774 218.133L 102.394 216.768L 102.394 216.768L 101.774 218.133ZM 23.6887 247.196L 25.1877 247.25L 23.6887 247.196ZM 52.4222 308.392L 52.7312 306.924L 52.7312 306.924L 52.4222 308.392ZM 80.9364 309.489L 80.2943 308.133L 80.2943 308.133L 80.9364 309.489ZM 86.4199 276.807L 85.4164 277.922L 85.4164 277.922L 86.4199 276.807ZM 47.3774 276.807L 48.1059 278.118L 47.3774 276.807ZM 41.0166 300.057L 42.4946 300.313L 41.0166 300.057ZM 55.7123 338.003L 56.1534 336.569L 55.7123 338.003ZM 92.1483 328.365C 92.5188 327.624 92.2185 326.723 91.4775 326.352C 90.7365 325.982 89.8355 326.282 89.4651 327.023L 92.1483 328.365ZM -0.26573 33.0612C 13.4271 35.5259 26.6793 39.4433 40.242 42.7943C 53.7501 46.1318 67.4675 48.8774 81.8138 48.8774L 81.8138 45.8774C 67.8371 45.8774 54.4022 43.2027 40.9616 39.8818C 27.5754 36.5745 14.0823 32.5956 0.26573 30.1087L -0.26573 33.0612ZM 81.8138 48.8774C 89.1272 48.8774 103.862 48.3816 116.812 45.1124C 123.279 43.4797 129.428 41.1252 133.99 37.6992C 138.593 34.2424 141.658 29.623 141.658 23.579L 138.658 23.579C 138.658 28.4414 136.25 32.25 132.188 35.3003C 128.085 38.3815 122.377 40.6133 116.078 42.2036C 103.494 45.3804 89.0572 45.8774 81.8138 45.8774L 81.8138 48.8774ZM 141.658 23.579C 141.658 13.8755 135.585 7.5583 127.965 3.74784C 120.375 -0.0473458 111.025 -1.5 103.748 -1.5L 103.748 1.5C 110.713 1.5 119.568 2.90345 126.623 6.43108C 133.647 9.94343 138.658 15.4157 138.658 23.579L 141.658 23.579ZM 103.748 -1.5C 99.5512 -1.5 96.1488 0.385088 93.4682 3.27425C 90.815 6.13383 88.833 10.0065 87.3625 14.1488C 84.4209 22.4352 83.3845 32.2106 83.3845 38.3845L 86.3845 38.3845C 86.3845 32.4475 87.393 23.0306 90.1896 15.1525C 91.5883 11.2125 93.3987 7.75989 95.6674 5.31471C 97.9086 2.89911 100.557 1.5 103.748 1.5L 103.748 -1.5ZM 83.3845 38.3845C 83.3845 42.0999 83.2571 46.1648 83.1207 50.4604C 82.9846 54.7476 82.8399 59.2576 82.8084 63.8266C 82.7455 72.9545 83.1325 82.4031 84.9706 90.9475C 86.8083 99.4896 90.1239 107.26 96.0202 112.896C 101.95 118.563 110.325 121.918 121.953 121.918L 121.953 118.918C 110.939 118.918 103.36 115.761 98.0931 110.727C 92.7937 105.662 89.6725 98.5391 87.9035 90.3165C 86.1351 82.0963 85.7459 72.9084 85.8083 63.8473C 85.8395 59.3219 85.9829 54.8493 86.1192 50.5556C 86.2552 46.2705 86.3845 42.1563 86.3845 38.3845L 83.3845 38.3845ZM 121.953 121.918C 125.742 121.918 128.676 121.717 130.911 121.144C 133.194 120.559 134.883 119.548 135.989 117.857C 137.047 116.238 137.435 114.19 137.598 111.845C 137.762 109.491 137.71 106.561 137.71 103.09L 134.71 103.09C 134.71 106.662 134.76 109.42 134.605 111.636C 134.45 113.86 134.1 115.263 133.477 116.216C 132.902 117.096 131.969 117.776 130.166 118.238C 128.315 118.713 125.699 118.918 121.953 118.918L 121.953 121.918ZM 137.71 103.09C 137.71 97.8968 136.598 93.7483 134.593 90.3724C 132.59 87.0013 129.758 84.5026 126.476 82.5117C 123.208 80.529 119.453 79.0261 115.565 77.6632C 111.573 76.2639 107.676 75.0857 103.602 73.6045L 102.577 76.4239C 106.568 77.8751 110.843 79.1869 114.573 80.4943C 118.407 81.8384 121.924 83.2593 124.92 85.0766C 127.902 86.8858 130.326 89.0635 132.013 91.9045C 133.698 94.7406 134.71 98.3399 134.71 103.09L 137.71 103.09ZM 103.602 73.6045C 88.0937 67.965 64.296 67.2071 48.1363 69.6932L 48.5925 72.6583C 64.4262 70.2224 87.6827 71.0078 102.577 76.4239L 103.602 73.6045ZM 48.1363 69.6932C 38.6947 71.1458 33.2123 77.7197 29.4979 85.2827C 27.6411 89.0636 26.192 93.1563 24.8972 97.0819C 23.5897 101.046 22.4555 104.786 21.194 108.03L 23.99 109.117C 25.2894 105.776 26.4723 101.884 27.7463 98.0216C 29.0329 94.1206 30.4295 90.1913 32.1907 86.6052C 35.7124 79.4345 40.5553 73.8948 48.5925 72.6583L 48.1363 69.6932ZM 21.194 108.03C 19.3004 112.899 16.9103 121.098 15.697 129.372C 15.0899 133.513 14.7712 137.713 14.9704 141.549C 15.1687 145.365 15.8848 148.94 17.4423 151.744L 20.0648 150.287C 18.8213 148.049 18.1532 144.99 17.9664 141.393C 17.7806 137.817 18.0761 133.825 18.6652 129.808C 19.8443 121.767 22.1743 113.786 23.99 109.117L 21.194 108.03ZM 17.4423 151.744C 20.5425 157.324 27.5613 161.286 34.9374 163.55C 42.3634 165.83 50.6071 166.53 56.5861 165.201L 55.9353 162.273C 50.6088 163.457 42.9123 162.86 35.8177 160.682C 28.6733 158.49 22.5913 154.835 20.0648 150.287L 17.4423 151.744ZM 56.5861 165.201C 58.9281 164.681 61.2446 162.804 63.1825 160.54C 65.1634 158.225 66.9376 155.285 68.1374 152.277C 69.3281 149.292 70.011 146.093 69.637 143.299C 69.2503 140.41 67.7079 137.919 64.5598 136.774L 63.5346 139.594C 65.4503 140.29 66.3973 141.708 66.6635 143.697C 66.9425 145.781 66.442 148.43 65.3508 151.165C 64.2688 153.878 62.6629 156.533 60.9032 158.589C 59.1007 160.695 57.3163 161.966 55.9353 162.273L 56.5861 165.201ZM 64.5598 136.774C 59.6331 134.983 53.293 133.255 46.8542 132.349C 40.4402 131.447 33.7925 131.34 28.3214 132.903L 29.1456 135.788C 34.0353 134.391 40.2039 134.443 46.4362 135.32C 52.6438 136.193 58.7801 137.865 63.5346 139.594L 64.5598 136.774ZM 28.3214 132.903C 25.0337 133.843 22.6159 136.652 20.8252 140.026C 19.015 143.437 17.6994 147.695 16.744 152.008C 14.8315 160.642 14.2925 169.825 14.2925 173.717L 17.2925 173.717C 17.2925 169.99 17.818 161.032 19.673 152.657C 20.6014 148.466 21.8453 144.503 23.4751 141.433C 25.1245 138.325 27.0274 136.393 29.1456 135.788L 28.3214 132.903ZM 14.2925 173.717C 14.2925 185.85 17.2247 193.109 23.0739 197.973C 28.7547 202.696 37.019 204.969 46.9759 207.734L 47.7789 204.844C 37.5972 202.016 30.069 199.887 24.9919 195.666C 20.0834 191.585 17.2925 185.355 17.2925 173.717L 14.2925 173.717ZM 46.9759 207.734C 57.3641 210.62 72.3166 210.999 86.6596 208.869C 100.969 206.744 115.013 202.072 123.392 194.576L 121.391 192.34C 113.668 199.25 100.329 203.806 86.219 205.902C 72.1425 207.992 57.639 207.583 47.7789 204.844L 46.9759 207.734ZM 123.392 194.576C 127.296 191.082 129.857 185.436 130.514 179.559C 131.173 173.666 129.942 167.318 125.965 162.458L 123.643 164.358C 126.99 168.449 128.125 173.93 127.533 179.226C 126.938 184.538 124.631 189.441 121.391 192.34L 123.392 194.576ZM 125.965 162.458C 118.723 153.607 111.929 150.241 105.675 151.348C 99.538 152.435 94.6447 157.731 90.8865 164.372C 83.3255 177.732 79.4364 198.16 79.4364 209.25L 82.4364 209.25C 82.4364 198.561 86.2433 178.667 93.4974 165.849C 97.1466 159.401 101.441 155.145 106.198 154.302C 110.839 153.481 116.647 155.807 123.643 164.358L 125.965 162.458ZM 79.4364 209.25C 79.4364 216.697 78.6712 226.529 79.4046 235.78C 80.141 245.07 82.4016 254.292 88.759 260.649L 90.8803 258.528C 85.2961 252.944 83.1151 244.624 82.3952 235.543C 81.6724 226.425 82.4364 217.058 82.4364 209.25L 79.4364 209.25ZM 88.759 260.649C 93.2309 265.121 97.911 266.024 103.638 266.024L 103.638 263.024C 98.3173 263.024 94.5639 262.212 90.8803 258.528L 88.759 260.649ZM 103.638 266.024C 104.874 266.024 105.966 265.675 106.883 265.018C 107.783 264.373 108.441 263.486 108.925 262.513C 109.877 260.6 110.273 258.119 110.423 255.671C 110.575 253.191 110.483 250.574 110.357 248.302C 110.228 245.969 110.073 244.103 110.073 242.919L 107.073 242.919C 107.073 244.212 107.241 246.286 107.362 248.468C 107.486 250.711 107.57 253.186 107.429 255.488C 107.285 257.822 106.917 259.813 106.239 261.177C 105.908 261.842 105.534 262.294 105.136 262.579C 104.755 262.852 104.282 263.024 103.638 263.024L 103.638 266.024ZM 110.073 242.919C 110.073 240.466 110.44 238.103 110.818 235.746C 111.189 233.438 111.585 231.073 111.544 228.83C 111.502 226.54 111.007 224.284 109.547 222.184C 108.099 220.103 105.798 218.315 102.394 216.768L 101.153 219.499C 104.243 220.904 106.039 222.396 107.084 223.897C 108.116 225.381 108.51 227.01 108.544 228.885C 108.58 230.806 108.24 232.883 107.856 235.27C 107.481 237.609 107.073 240.195 107.073 242.919L 110.073 242.919ZM 102.394 216.768C 95.3408 213.562 86.5548 212.828 77.885 212.854C 73.5316 212.867 69.1551 213.073 64.9917 213.275C 60.8134 213.477 56.863 213.672 53.2996 213.672L 53.2996 216.672C 56.9506 216.672 60.9807 216.472 65.1365 216.271C 69.3073 216.07 73.6185 215.867 77.8941 215.854C 86.4821 215.828 94.7188 216.574 101.153 219.499L 102.394 216.768ZM 53.2996 213.672C 34.6526 213.672 22.8419 228.88 22.1897 247.142L 25.1877 247.25C 25.7988 230.141 36.6915 216.672 53.2996 216.672L 53.2996 213.672ZM 22.1897 247.142C 21.9169 254.781 21.0174 264.592 21.6911 273.886C 22.3653 283.185 24.6275 292.369 30.963 298.705L 33.0843 296.584C 27.5233 291.023 25.341 282.741 24.6833 273.669C 24.0252 264.591 24.9064 255.126 25.1877 247.25L 22.1897 247.142ZM 30.963 298.705C 34.4838 302.226 37.4087 304.545 40.6835 306.222C 43.9479 307.894 47.4737 308.883 52.1132 309.86L 52.7312 306.924C 48.1685 305.963 44.9553 305.039 42.0511 303.552C 39.1573 302.07 36.484 299.983 33.0843 296.584L 30.963 298.705ZM 52.1132 309.86C 55.5594 310.585 61.0453 311.687 66.549 312.195C 69.3014 312.449 72.0912 312.557 74.6542 312.388C 77.1995 312.22 79.6217 311.771 81.5785 310.844L 80.2943 308.133C 78.8224 308.83 76.8256 309.238 74.4562 309.394C 72.1044 309.55 69.4838 309.453 66.8245 309.208C 61.5048 308.717 56.1624 307.646 52.7312 306.924L 52.1132 309.86ZM 81.5785 310.844C 83.8023 309.791 85.593 307.281 86.9538 304.437C 88.3513 301.517 89.443 297.931 90.1055 294.301C 90.7677 290.673 91.0152 286.924 90.6751 283.676C 90.3422 280.496 89.4137 277.483 87.4233 275.692L 85.4164 277.922C 86.5607 278.952 87.381 281.024 87.6914 283.988C 87.9945 286.883 87.7797 290.336 87.1543 293.762C 86.5292 297.187 85.508 300.508 84.2477 303.142C 82.9505 305.853 81.5382 307.544 80.2943 308.133L 81.5785 310.844ZM 87.4233 275.692C 85.5067 273.967 82.3575 272.952 78.9041 272.366C 75.381 271.767 71.2657 271.572 67.1635 271.682C 63.0565 271.792 58.9172 272.209 55.3356 272.855C 51.7955 273.493 48.6581 274.379 46.6489 275.496L 48.1059 278.118C 49.6694 277.249 52.4072 276.431 55.868 275.807C 59.2874 275.19 63.2748 274.787 67.2437 274.681C 71.2174 274.574 75.1271 274.767 78.4017 275.323C 81.7459 275.891 84.1669 276.797 85.4164 277.922L 87.4233 275.692ZM 46.6489 275.496C 45.8272 275.952 45.1928 276.705 44.6943 277.498C 44.185 278.308 43.7437 279.281 43.356 280.328C 42.5805 282.422 41.9569 284.986 41.4518 287.539C 40.9448 290.102 40.5472 292.707 40.2357 294.901C 39.9192 297.131 39.7006 298.864 39.5385 299.801L 42.4946 300.313C 42.6667 299.318 42.9023 297.462 43.206 295.323C 43.5147 293.148 43.9034 290.605 44.3948 288.121C 44.8883 285.627 45.4755 283.244 46.1693 281.37C 46.5162 280.433 46.8741 279.667 47.2345 279.094C 47.6057 278.503 47.9114 278.226 48.1059 278.118L 46.6489 275.496ZM 39.5385 299.801C 38.2605 307.185 37.9812 313.933 37.9812 321.333L 40.9812 321.333C 40.9812 314.011 41.2584 307.455 42.4946 300.313L 39.5385 299.801ZM 37.9812 321.333C 37.9812 328.866 39.1989 332.879 42.5042 335.205C 44.06 336.299 45.9602 336.926 48.0253 337.486C 50.1666 338.067 52.4744 338.576 55.2712 339.436L 56.1534 336.569C 53.3111 335.694 50.7705 335.122 48.811 334.591C 46.7755 334.038 45.3228 333.52 44.2305 332.751C 42.2398 331.351 40.9812 328.764 40.9812 321.333L 37.9812 321.333ZM 55.2712 339.436C 60.5274 341.054 68.3196 340.98 75.4065 339.249C 82.435 337.533 89.3058 334.05 92.1483 328.365L 89.4651 327.023C 87.2315 331.49 81.4812 334.677 74.6946 336.335C 67.9664 337.978 60.7494 337.983 56.1534 336.569L 55.2712 339.436Z"/>
<path id="path1_stroke" d="M 107.663 342.074C 107.017 342.593 106.915 343.537 107.435 344.183C 107.954 344.828 108.898 344.93 109.544 344.411L 107.663 342.074ZM 128.344 295.426L 129.613 294.627L 129.613 294.627L 128.344 295.426ZM 106.629 273.163L 106.228 274.608L 106.629 273.163ZM 39.5112 276.563L 40.7524 277.405L 39.5112 276.563ZM 19.7706 310.67L 21.2043 311.111L 19.7706 310.67ZM 32.0537 384.04L 33.3423 383.272L 33.3423 383.272L 32.0537 384.04ZM 81.9535 384.807L 82.1816 383.325L 81.9535 384.807ZM 68.0254 491.297L 66.8459 490.37L 66.8459 490.37L 68.0254 491.297ZM 31.5053 492.284L 30.041 492.609L 31.5053 492.284ZM 149.62 396.542L 150.931 395.813L 149.62 396.542ZM 115.622 372.853L 116.135 371.443L 116.135 371.443L 115.622 372.853ZM 54.4263 366.821L 54.5685 365.328L 54.4263 366.821ZM 0.0300396 312.096L -1.46962 312.128L 0.0300396 312.096ZM 40.6079 252.874L 40.9624 254.332L 40.6079 252.874ZM 101.804 246.404L 101.605 244.917L 101.804 246.404ZM 146.11 236.643L 145.698 235.201L 145.698 235.201L 146.11 236.643ZM 156.858 161.629L 157.371 160.219L 156.858 161.629ZM 137.775 155.707L 137.891 154.211L 137.775 155.707ZM 91.6044 135.856L 91.8325 134.374L 91.6044 135.856ZM 48.5041 99.4461L 49.8249 98.7349L 48.5041 99.4461ZM 41.4853 60.9519L 39.9858 60.9114L 41.4853 60.9519ZM 56.8391 15.9872L 57.954 16.9907L 56.8391 15.9872ZM 110.577 4.14289L 111.276 2.81551L 110.577 4.14289ZM 138.104 48.0109L 139.58 47.7425L 139.58 47.7425L 138.104 48.0109ZM 127.466 84.6406L 128.211 85.943L 127.466 84.6406ZM 91.2754 92.5368L 91.3331 91.038L 91.2754 92.5368ZM 108.603 38.7632C 109.432 38.7632 110.103 38.0916 110.103 37.2632C 110.103 36.4348 109.432 35.7632 108.603 35.7632L 108.603 38.7632ZM 109.544 344.411C 118.846 336.923 129.844 327.744 129.844 313.741L 126.844 313.741C 126.844 326.092 117.184 334.41 107.663 342.074L 109.544 344.411ZM 129.844 313.741C 129.844 312.195 130.083 310.736 130.401 309.269C 130.704 307.874 131.131 306.27 131.397 304.807C 131.965 301.681 131.98 298.385 129.613 294.627L 127.075 296.225C 128.914 299.147 128.929 301.609 128.445 304.271C 128.185 305.702 127.824 306.999 127.469 308.632C 127.131 310.192 126.844 311.888 126.844 313.741L 129.844 313.741ZM 129.613 294.627C 123.832 285.445 119.447 275.167 107.031 271.718L 106.228 274.608C 117.235 277.666 120.941 286.484 127.075 296.225L 129.613 294.627ZM 107.031 271.718C 93.0535 267.835 80.2845 264.754 65.3933 264.754L 65.3933 267.754C 79.8559 267.754 92.2971 270.739 106.228 274.608L 107.031 271.718ZM 65.3933 264.754C 59.3 264.754 54.3815 264.604 50.1133 265.909C 45.6927 267.261 42.0755 270.113 38.27 275.721L 40.7524 277.405C 44.3024 272.174 47.4145 269.871 50.9903 268.778C 54.7185 267.638 59.0633 267.754 65.3933 267.754L 65.3933 264.754ZM 38.27 275.721C 34.9649 280.591 30.8621 286.344 27.1749 292.261C 23.4877 298.179 20.1362 304.382 18.337 310.229L 21.2043 311.111C 22.8878 305.64 26.0746 299.7 29.721 293.848C 33.3673 287.997 37.3935 282.355 40.7524 277.405L 38.27 275.721ZM 18.337 310.229C 15.0043 321.06 14.3225 331.651 14.3225 342.804L 17.3225 342.804C 17.3225 331.762 18.0016 321.52 21.2043 311.111L 18.337 310.229ZM 14.3225 342.804C 14.3225 360.036 22.6415 371.171 30.765 384.807L 33.3423 383.272C 25.0319 369.322 17.3225 359.014 17.3225 342.804L 14.3225 342.804ZM 30.765 384.807C 36.7514 394.856 45.168 406.996 55.3919 416.641C 65.5977 426.269 77.7805 433.575 91.2754 433.575L 91.2754 430.575C 78.8852 430.575 67.4086 423.853 57.4506 414.459C 47.5107 405.081 39.259 393.203 33.3423 383.272L 30.765 384.807ZM 91.2754 433.575C 100.945 433.575 110.08 432.546 116.821 428.482C 123.725 424.32 127.87 417.138 127.87 405.535L 124.87 405.535C 124.87 416.311 121.099 422.4 115.272 425.913C 109.282 429.524 100.869 430.575 91.2754 430.575L 91.2754 433.575ZM 127.87 405.535C 127.87 400.761 125.547 397.077 122.062 394.278C 118.617 391.512 113.979 389.553 109.101 388.108C 99.3719 385.226 88.0543 384.228 82.1816 383.325L 81.7254 386.29C 87.8891 387.238 98.7795 388.179 108.249 390.984C 112.971 392.383 117.18 394.206 120.183 396.617C 123.145 398.995 124.87 401.884 124.87 405.535L 127.87 405.535ZM 82.1816 383.325C 71.853 381.736 65.4481 383.896 61.8206 389.245C 60.0706 391.826 59.0667 395.019 58.4906 398.563C 57.9139 402.112 57.7518 406.11 57.7518 410.36L 60.7518 410.36C 60.7518 406.162 60.9139 402.354 61.4518 399.044C 61.9904 395.73 62.8915 393.011 64.3035 390.929C 66.9997 386.953 71.9456 384.785 81.7254 386.29L 82.1816 383.325ZM 57.7518 410.36C 57.7518 416.732 59.4586 423.639 61.6638 430.658C 62.7693 434.177 64.0121 437.759 65.2449 441.338C 66.4805 444.924 67.7075 448.511 68.7965 452.075C 73.1863 466.443 75.1222 479.837 66.8459 490.37L 69.2049 492.223C 78.5084 480.383 76.0574 465.573 71.6655 451.198C 70.5591 447.577 69.3159 443.944 68.0813 440.36C 66.8438 436.768 65.6163 433.23 64.5259 429.759C 62.3391 422.799 60.7518 416.253 60.7518 410.36L 57.7518 410.36ZM 66.8459 490.37C 65.5387 492.034 62.9434 493.788 59.5544 495.258C 56.2064 496.71 52.2541 497.81 48.4076 498.267C 44.5405 498.727 40.9087 498.523 38.1316 497.49C 35.4154 496.48 33.5828 494.718 32.9696 491.958L 30.041 492.609C 30.9208 496.568 33.6331 499.018 37.0858 500.302C 40.4777 501.564 44.6391 501.737 48.762 501.246C 52.9054 500.753 57.1399 499.575 60.748 498.01C 64.315 496.463 67.4449 494.463 69.2049 492.223L 66.8459 490.37ZM 32.9696 491.958C 31.1982 483.987 31.5911 478.39 34.2451 474.789C 36.8707 471.226 42.0987 469.108 51.3556 469.108L 51.3556 466.108C 41.8147 466.108 35.326 468.265 31.83 473.009C 28.3626 477.715 28.2292 484.456 30.041 492.609L 32.9696 491.958ZM 51.3556 469.108C 51.3944 469.108 51.4332 469.108 51.4721 469.108C 51.5109 469.108 51.5498 469.108 51.5886 469.108C 51.6275 469.108 51.6663 469.108 51.7051 469.108C 51.744 469.108 51.7828 469.108 51.8217 469.108C 51.8605 469.108 51.8993 469.108 51.9382 469.108C 51.977 469.108 52.0159 469.108 52.0547 469.108C 52.0936 469.108 52.1324 469.108 52.1712 469.108C 52.2101 469.108 52.2489 469.108 52.2878 469.108C 52.3266 469.108 52.3654 469.108 52.4043 469.108C 52.4431 469.108 52.482 469.108 52.5208 469.108C 52.5596 469.108 52.5985 469.108 52.6373 469.108C 52.6762 469.108 52.715 469.108 52.7539 469.108C 52.7927 469.108 52.8315 469.108 52.8704 469.108C 52.9092 469.108 52.9481 469.108 52.9869 469.108C 53.0257 469.108 53.0646 469.108 53.1034 469.108C 53.1423 469.108 53.1811 469.108 53.22 469.108C 53.2588 469.108 53.2976 469.108 53.3365 469.108C 53.3753 469.108 53.4142 469.108 53.453 469.108C 53.4918 469.108 53.5307 469.108 53.5695 469.108C 53.6084 469.108 53.6472 469.108 53.6861 469.108C 53.7249 469.108 53.7637 469.108 53.8026 469.108C 53.8414 469.108 53.8803 469.108 53.9191 469.108C 53.9579 469.108 53.9968 469.108 54.0356 469.108C 54.0745 469.108 54.1133 469.108 54.1521 469.108C 54.191 469.108 54.2298 469.108 54.2687 469.108C 54.3075 469.108 54.3464 469.108 54.3852 469.108C 54.424 469.108 54.4629 469.108 54.5017 469.108C 54.5406 469.108 54.5794 469.108 54.6182 469.108C 54.6571 469.108 54.6959 469.108 54.7348 469.108C 54.7736 469.108 54.8125 469.108 54.8513 469.108C 54.8901 469.108 54.929 469.108 54.9678 469.108C 55.0067 469.108 55.0455 469.108 55.0843 469.108C 55.1232 469.108 55.162 469.108 55.2009 469.108C 55.2397 469.108 55.2785 469.108 55.3174 469.108C 55.3562 469.108 55.3951 469.108 55.4339 469.108C 55.4728 469.108 55.5116 469.108 55.5504 469.108C 55.5893 469.108 55.6281 469.108 55.667 469.108C 55.7058 469.108 55.7446 469.108 55.7835 469.108C 55.8223 469.108 55.8612 469.108 55.9 469.108C 55.9389 469.108 55.9777 469.108 56.0165 469.108C 56.0554 469.108 56.0942 469.108 56.1331 469.108C 56.1719 469.108 56.2107 469.108 56.2496 469.108C 56.2884 469.108 56.3273 469.108 56.3661 469.108C 56.405 469.108 56.4438 469.108 56.4826 469.108C 56.5215 469.108 56.5603 469.108 56.5992 469.108C 56.638 469.108 56.6768 469.108 56.7157 469.108C 56.7545 469.108 56.7934 469.108 56.8322 469.108C 56.871 469.108 56.9099 469.108 56.9487 469.108C 56.9876 469.108 57.0264 469.108 57.0653 469.108C 57.1041 469.108 57.1429 469.108 57.1818 469.108C 57.2206 469.108 57.2595 469.108 57.2983 469.108C 57.3371 469.108 57.376 469.108 57.4148 469.108C 57.4537 469.108 57.4925 469.108 57.5314 469.108C 57.5702 469.108 57.609 469.108 57.6479 469.108C 57.6867 469.108 57.7256 469.108 57.7644 469.108C 57.8032 469.108 57.8421 469.108 57.8809 469.108C 57.9198 469.108 57.9586 469.108 57.9974 469.108C 58.0363 469.108 58.0751 469.108 58.114 469.108C 58.1528 469.108 58.1917 469.108 58.2305 469.108C 58.2693 469.108 58.3082 469.108 58.347 469.108C 58.3859 469.108 58.4247 469.108 58.4635 469.108C 58.5024 469.108 58.5412 469.108 58.5801 469.108C 58.6189 469.108 58.6578 469.108 58.6966 469.108C 58.7354 469.108 58.7743 469.108 58.8131 469.108C 58.852 469.108 58.8908 469.108 58.9296 469.108C 58.9685 469.108 59.0073 469.108 59.0462 469.108C 59.085 469.108 59.1239 469.108 59.1627 469.108C 59.2015 469.108 59.2404 469.108 59.2792 469.108C 59.3181 469.108 59.3569 469.108 59.3957 469.108C 59.4346 469.108 59.4734 469.108 59.5123 469.108C 59.5511 469.108 59.5899 469.108 59.6288 469.108C 59.6676 469.108 59.7065 469.108 59.7453 469.108C 59.7842 469.108 59.823 469.108 59.8618 469.108C 59.9007 469.108 59.9395 469.108 59.9784 469.108C 60.0172 469.108 60.056 469.108 60.0949 469.108C 60.1337 469.108 60.1726 469.108 60.2114 469.108C 60.2503 469.108 60.2891 469.108 60.3279 469.108C 60.3668 469.108 60.4056 469.108 60.4445 469.108C 60.4833 469.108 60.5221 469.108 60.561 469.108C 60.5998 469.108 60.6387 469.108 60.6775 469.108C 60.7163 469.108 60.7552 469.108 60.794 469.108C 60.8329 469.108 60.8717 469.108 60.9106 469.108C 60.9494 469.108 60.9882 469.108 61.0271 469.108C 61.0659 469.108 61.1048 469.108 61.1436 469.108C 61.1824 469.108 61.2213 469.108 61.2601 469.108C 61.299 469.108 61.3378 469.108 61.3767 469.108C 61.4155 469.108 61.4543 469.108 61.4932 469.108C 61.532 469.108 61.5709 469.108 61.6097 469.108C 61.6485 469.108 61.6874 469.108 61.7262 469.108C 61.7651 469.108 61.8039 469.108 61.8428 469.108C 61.8816 469.108 61.9204 469.108 61.9593 469.108C 61.9981 469.108 62.037 469.108 62.0758 469.108C 62.1146 469.108 62.1535 469.108 62.1923 469.108C 62.2312 469.108 62.27 469.108 62.3088 469.108C 62.3477 469.108 62.3865 469.108 62.4254 469.108C 62.4642 469.108 62.5031 469.108 62.5419 469.108C 62.5807 469.108 62.6196 469.108 62.6584 469.108C 62.6973 469.108 62.7361 469.108 62.7749 469.108C 62.8138 469.108 62.8526 469.108 62.8915 469.108C 62.9303 469.108 62.9692 469.108 63.008 469.108C 63.0468 469.108 63.0857 469.108 63.1245 469.108C 63.1634 469.108 63.2022 469.108 63.241 469.108C 63.2799 469.108 63.3187 469.108 63.3576 469.108C 63.3964 469.108 63.4353 469.108 63.4741 469.108C 63.5129 469.108 63.5518 469.108 63.5906 469.108C 63.6295 469.108 63.6683 469.108 63.7071 469.108C 63.746 469.108 63.7848 469.108 63.8237 469.108C 63.8625 469.108 63.9013 469.108 63.9402 469.108C 63.979 469.108 64.0179 469.108 64.0567 469.108C 64.0956 469.108 64.1344 469.108 64.1732 469.108C 64.2121 469.108 64.2509 469.108 64.2898 469.108C 64.3286 469.108 64.3674 469.108 64.4063 469.108C 64.4451 469.108 64.484 469.108 64.5228 469.108C 64.5617 469.108 64.6005 469.108 64.6393 469.108C 64.6782 469.108 64.717 469.108 64.7559 469.108C 64.7947 469.108 64.8335 469.108 64.8724 469.108C 64.9112 469.108 64.9501 469.108 64.9889 469.108C 65.0277 469.108 65.0666 469.108 65.1054 469.108C 65.1443 469.108 65.1831 469.108 65.222 469.108C 65.2608 469.108 65.2996 469.108 65.3385 469.108C 65.3773 469.108 65.4162 469.108 65.455 469.108C 65.4938 469.108 65.5327 469.108 65.5715 469.108C 65.6104 469.108 65.6492 469.108 65.6881 469.108C 65.7269 469.108 65.7657 469.108 65.8046 469.108C 65.8434 469.108 65.8823 469.108 65.9211 469.108C 65.9599 469.108 65.9988 469.108 66.0376 469.108C 66.0765 469.108 66.1153 469.108 66.1542 469.108C 66.193 469.108 66.2318 469.108 66.2707 469.108C 66.3095 469.108 66.3484 469.108 66.3872 469.108C 66.426 469.108 66.4649 469.108 66.5037 469.108C 66.5426 469.108 66.5814 469.108 66.6202 469.108C 66.6591 469.108 66.6979 469.108 66.7368 469.108C 66.7756 469.108 66.8145 469.108 66.8533 469.108C 66.8921 469.108 66.931 469.108 66.9698 469.108C 67.0087 469.108 67.0475 469.108 67.0863 469.108C 67.1252 469.108 67.164 469.108 67.2029 469.108C 67.2417 469.108 67.2806 469.108 67.3194 469.108C 67.3582 469.108 67.3971 469.108 67.4359 469.108C 67.4748 469.108 67.5136 469.108 67.5524 469.108C 67.5913 469.108 67.6301 469.108 67.669 469.108C 67.7078 469.108 67.7466 469.108 67.7855 469.108C 67.8243 469.108 67.8632 469.108 67.902 469.108C 67.9409 469.108 67.9797 469.108 68.0185 469.108C 68.0574 469.108 68.0962 469.108 68.1351 469.108C 68.1739 469.108 68.2127 469.108 68.2516 469.108C 68.2904 469.108 68.3293 469.108 68.3681 469.108C 68.407 469.108 68.4458 469.108 68.4846 469.108C 68.5235 469.108 68.5623 469.108 68.6012 469.108C 68.64 469.108 68.6788 469.108 68.7177 469.108C 68.7565 469.108 68.7954 469.108 68.8342 469.108C 68.8731 469.108 68.9119 469.108 68.9507 469.108C 68.9896 469.108 69.0284 469.108 69.0673 469.108C 69.1061 469.108 69.1449 469.108 69.1838 469.108C 69.2226 469.108 69.2615 469.108 69.3003 469.108C 69.3391 469.108 69.378 469.108 69.4168 469.108C 69.4557 469.108 69.4945 469.108 69.5334 469.108C 69.5722 469.108 69.611 469.108 69.6499 469.108C 69.6887 469.108 69.7276 469.108 69.7664 469.108C 69.8052 469.108 69.8441 469.108 69.8829 469.108C 69.9218 469.108 69.9606 469.108 69.9995 469.108C 70.0383 469.108 70.0771 469.108 70.116 469.108C 70.1548 469.108 70.1937 469.108 70.2325 469.108C 70.2713 469.108 70.3102 469.108 70.349 469.108C 70.3879 469.108 70.4267 469.108 70.4655 469.108C 70.5044 469.108 70.5432 469.108 70.5821 469.108C 70.6209 469.108 70.6598 469.108 70.6986 469.108C 70.7374 469.108 70.7763 469.108 70.8151 469.108C 70.854 469.108 70.8928 469.108 70.9316 469.108C 70.9705 469.108 71.0093 469.108 71.0482 469.108C 71.087 469.108 71.1259 469.108 71.1647 469.108C 71.2035 469.108 71.2424 469.108 71.2812 469.108C 71.3201 469.108 71.3589 469.108 71.3977 469.108C 71.4366 469.108 71.4754 469.108 71.5143 469.108C 71.5531 469.108 71.592 469.108 71.6308 469.108C 71.6696 469.108 71.7085 469.108 71.7473 469.108C 71.7862 469.108 71.825 469.108 71.8638 469.108C 71.9027 469.108 71.9415 469.108 71.9804 469.108C 72.0192 469.108 72.058 469.108 72.0969 469.108C 72.1357 469.108 72.1746 469.108 72.2134 469.108C 72.2523 469.108 72.2911 469.108 72.3299 469.108C 72.3688 469.108 72.4076 469.108 72.4465 469.108C 72.4853 469.108 72.5241 469.108 72.563 469.108C 72.6018 469.108 72.6407 469.108 72.6795 469.108C 72.7184 469.108 72.7572 469.108 72.796 469.108C 72.8349 469.108 72.8737 469.108 72.9126 469.108C 72.9514 469.108 72.9902 469.108 73.0291 469.108C 73.0679 469.108 73.1068 469.108 73.1456 469.108C 73.1845 469.108 73.2233 469.108 73.2621 469.108C 73.301 469.108 73.3398 469.108 73.3787 469.108C 73.4175 469.108 73.4563 469.108 73.4952 469.108C 73.534 469.108 73.5729 469.108 73.6117 469.108C 73.6505 469.108 73.6894 469.108 73.7282 469.108C 73.7671 469.108 73.8059 469.108 73.8448 469.108C 73.8836 469.108 73.9224 469.108 73.9613 469.108C 74.0001 469.108 74.039 469.108 74.0778 469.108C 74.1166 469.108 74.1555 469.108 74.1943 469.108C 74.2332 469.108 74.272 469.108 74.3109 469.108C 74.3497 469.108 74.3885 469.108 74.4274 469.108C 74.4662 469.108 74.5051 469.108 74.5439 469.108C 74.5827 469.108 74.6216 469.108 74.6604 469.108C 74.6993 469.108 74.7381 469.108 74.7769 469.108C 74.8158 469.108 74.8546 469.108 74.8935 469.108C 74.9323 469.108 74.9712 469.108 75.01 469.108C 75.0488 469.108 75.0877 469.108 75.1265 469.108C 75.1654 469.108 75.2042 469.108 75.243 469.108C 75.2819 469.108 75.3207 469.108 75.3596 469.108C 75.3984 469.108 75.4373 469.108 75.4761 469.108C 75.5149 469.108 75.5538 469.108 75.5926 469.108C 75.6315 469.108 75.6703 469.108 75.7091 469.108C 75.748 469.108 75.7868 469.108 75.8257 469.108C 75.8645 469.108 75.9034 469.108 75.9422 469.108C 75.981 469.108 76.0199 469.108 76.0587 469.108C 76.0976 469.108 76.1364 469.108 76.1752 469.108C 76.2141 469.108 76.2529 469.108 76.2918 469.108C 76.3306 469.108 76.3694 469.108 76.4083 469.108C 76.4471 469.108 76.486 469.108 76.5248 469.108C 76.5637 469.108 76.6025 469.108 76.6413 469.108C 76.6802 469.108 76.719 469.108 76.7579 469.108C 76.7967 469.108 76.8355 469.108 76.8744 469.108C 76.9132 469.108 76.9521 469.108 76.9909 469.108C 77.0298 469.108 77.0686 469.108 77.1074 469.108C 77.1463 469.108 77.1851 469.108 77.224 469.108C 77.2628 469.108 77.3016 469.108 77.3405 469.108C 77.3793 469.108 77.4182 469.108 77.457 469.108C 77.4958 469.108 77.5347 469.108 77.5735 469.108C 77.6124 469.108 77.6512 469.108 77.6901 469.108C 77.7289 469.108 77.7677 469.108 77.8066 469.108C 77.8454 469.108 77.8843 469.108 77.9231 469.108C 77.9619 469.108 78.0008 469.108 78.0396 469.108C 78.0785 469.108 78.1173 469.108 78.1562 469.108C 78.195 469.108 78.2338 469.108 78.2727 469.108C 78.3115 469.108 78.3504 469.108 78.3892 469.108C 78.428 469.108 78.4669 469.108 78.5057 469.108C 78.5446 469.108 78.5834 469.108 78.6223 469.108C 78.6611 469.108 78.6999 469.108 78.7388 469.108C 78.7776 469.108 78.8165 469.108 78.8553 469.108C 78.8941 469.108 78.933 469.108 78.9718 469.108C 79.0107 469.108 79.0495 469.108 79.0883 469.108C 79.1272 469.108 79.166 469.108 79.2049 469.108C 79.2437 469.108 79.2826 469.108 79.3214 469.108C 79.3602 469.108 79.3991 469.108 79.4379 469.108C 79.4768 469.108 79.5156 469.108 79.5544 469.108C 79.5933 469.108 79.6321 469.108 79.671 469.108C 79.7098 469.108 79.7487 469.108 79.7875 469.108C 79.8263 469.108 79.8652 469.108 79.904 469.108C 79.9429 469.108 79.9817 469.108 80.0205 469.108C 80.0594 469.108 80.0982 469.108 80.1371 469.108C 80.1759 469.108 80.2147 469.108 80.2536 469.108C 80.2924 469.108 80.3313 469.108 80.3701 469.108C 80.409 469.108 80.4478 469.108 80.4866 469.108C 80.5255 469.108 80.5643 469.108 80.6032 469.108C 80.642 469.108 80.6808 469.108 80.7197 469.108C 80.7585 469.108 80.7974 469.108 80.8362 469.108C 80.8751 469.108 80.9139 469.108 80.9527 469.108C 80.9916 469.108 81.0304 469.108 81.0693 469.108C 81.1081 469.108 81.1469 469.108 81.1858 469.108C 81.2246 469.108 81.2635 469.108 81.3023 469.108C 81.3412 469.108 81.38 469.108 81.4188 469.108C 81.4577 469.108 81.4965 469.108 81.5354 469.108C 81.5742 469.108 81.613 469.108 81.6519 469.108C 81.6907 469.108 81.7296 469.108 81.7684 469.108C 81.8072 469.108 81.8461 469.108 81.8849 469.108C 81.9238 469.108 81.9626 469.108 82.0015 469.108C 82.0403 469.108 82.0791 469.108 82.118 469.108C 82.1568 469.108 82.1957 469.108 82.2345 469.108C 82.2733 469.108 82.3122 469.108 82.351 469.108C 82.3899 469.108 82.4287 469.108 82.4676 469.108C 82.5064 469.108 82.5452 469.108 82.5841 469.108C 82.6229 469.108 82.6618 469.108 82.7006 469.108C 82.7394 469.108 82.7783 469.108 82.8171 469.108C 82.856 469.108 82.8948 469.108 82.9337 469.108C 82.9725 469.108 83.0113 469.108 83.0502 469.108C 83.089 469.108 83.1279 469.108 83.1667 469.108C 83.2055 469.108 83.2444 469.108 83.2832 469.108C 83.3221 469.108 83.3609 469.108 83.3997 469.108C 83.4386 469.108 83.4774 469.108 83.5163 469.108C 83.5551 469.108 83.594 469.108 83.6328 469.108C 83.6716 469.108 83.7105 469.108 83.7493 469.108C 83.7882 469.108 83.827 469.108 83.8658 469.108C 83.9047 469.108 83.9435 469.108 83.9824 469.108C 84.0212 469.108 84.0601 469.108 84.0989 469.108C 84.1377 469.108 84.1766 469.108 84.2154 469.108C 84.2543 469.108 84.2931 469.108 84.3319 469.108C 84.3708 469.108 84.4096 469.108 84.4485 469.108C 84.4873 469.108 84.5261 469.108 84.565 469.108C 84.6038 469.108 84.6427 469.108 84.6815 469.108C 84.7204 469.108 84.7592 469.108 84.798 469.108C 84.8369 469.108 84.8757 469.108 84.9146 469.108C 84.9534 469.108 84.9922 469.108 85.0311 469.108C 85.0699 469.108 85.1088 469.108 85.1476 469.108C 85.1865 469.108 85.2253 469.108 85.2641 469.108C 85.303 469.108 85.3418 469.108 85.3807 469.108C 85.4195 469.108 85.4583 469.108 85.4972 469.108C 85.536 469.108 85.5749 469.108 85.6137 469.108C 85.6526 469.108 85.6914 469.108 85.7302 469.108C 85.7691 469.108 85.8079 469.108 85.8468 469.108C 85.8856 469.108 85.9244 469.108 85.9633 469.108C 86.0021 469.108 86.041 469.108 86.0798 469.108C 86.1186 469.108 86.1575 469.108 86.1963 469.108C 86.2352 469.108 86.274 469.108 86.3129 469.108C 86.3517 469.108 86.3905 469.108 86.4294 469.108C 86.4682 469.108 86.5071 469.108 86.5459 469.108C 86.5847 469.108 86.6236 469.108 86.6624 469.108C 86.7013 469.108 86.7401 469.108 86.779 469.108C 86.8178 469.108 86.8566 469.108 86.8955 469.108C 86.9343 469.108 86.9732 469.108 87.012 469.108C 87.0508 469.108 87.0897 469.108 87.1285 469.108C 87.1674 469.108 87.2062 469.108 87.245 469.108C 87.2839 469.108 87.3227 469.108 87.3616 469.108C 87.4004 469.108 87.4393 469.108 87.4781 469.108C 87.5169 469.108 87.5558 469.108 87.5946 469.108C 87.6335 469.108 87.6723 469.108 87.7111 469.108C 87.75 469.108 87.7888 469.108 87.8277 469.108C 87.8665 469.108 87.9054 469.108 87.9442 469.108C 87.983 469.108 88.0219 469.108 88.0607 469.108C 88.0996 469.108 88.1384 469.108 88.1772 469.108C 88.2161 469.108 88.2549 469.108 88.2938 469.108C 88.3326 469.108 88.3715 469.108 88.4103 469.108C 88.4491 469.108 88.488 469.108 88.5268 469.108C 88.5657 469.108 88.6045 469.108 88.6433 469.108C 88.6822 469.108 88.721 469.108 88.7599 469.108C 88.7987 469.108 88.8375 469.108 88.8764 469.108C 88.9152 469.108 88.9541 469.108 88.9929 469.108C 89.0318 469.108 89.0706 469.108 89.1094 469.108C 89.1483 469.108 89.1871 469.108 89.226 469.108C 89.2648 469.108 89.3036 469.108 89.3425 469.108C 89.3813 469.108 89.4202 469.108 89.459 469.108C 89.4979 469.108 89.5367 469.108 89.5755 469.108C 89.6144 469.108 89.6532 469.108 89.6921 469.108C 89.7309 469.108 89.7697 469.108 89.8086 469.108C 89.8474 469.108 89.8863 469.108 89.9251 469.108C 89.964 469.108 90.0028 469.108 90.0416 469.108C 90.0805 469.108 90.1193 469.108 90.1582 469.108C 90.197 469.108 90.2358 469.108 90.2747 469.108C 90.3135 469.108 90.3524 469.108 90.3912 469.108C 90.43 469.108 90.4689 469.108 90.5077 469.108C 90.5466 469.108 90.5854 469.108 90.6243 469.108C 90.6631 469.108 90.7019 469.108 90.7408 469.108C 90.7796 469.108 90.8185 469.108 90.8573 469.108C 90.8961 469.108 90.935 469.108 90.9738 469.108C 91.0127 469.108 91.0515 469.108 91.0904 469.108C 91.1292 469.108 91.168 469.108 91.2069 469.108C 91.2457 469.108 91.2846 469.108 91.3234 469.108C 91.3622 469.108 91.4011 469.108 91.4399 469.108C 91.4788 469.108 91.5176 469.108 91.5564 469.108C 91.5953 469.108 91.6341 469.108 91.673 469.108C 91.7118 469.108 91.7507 469.108 91.7895 469.108C 91.8283 469.108 91.8672 469.108 91.906 469.108C 91.9449 469.108 91.9837 469.108 92.0225 469.108C 92.0614 469.108 92.1002 469.108 92.1391 469.108C 92.1779 469.108 92.2168 469.108 92.2556 469.108C 92.2944 469.108 92.3333 469.108 92.3721 469.108C 92.411 469.108 92.4498 469.108 92.4886 469.108C 92.5275 469.108 92.5663 469.108 92.6052 469.108C 92.644 469.108 92.6829 469.108 92.7217 469.108C 92.7605 469.108 92.7994 469.108 92.8382 469.108C 92.8771 469.108 92.9159 469.108 92.9547 469.108C 92.9936 469.108 93.0324 469.108 93.0713 469.108C 93.1101 469.108 93.1489 469.108 93.1878 469.108C 93.2266 469.108 93.2655 469.108 93.3043 469.108C 93.3432 469.108 93.382 469.108 93.4208 469.108C 93.4597 469.108 93.4985 469.108 93.5374 469.108C 93.5762 469.108 93.615 469.108 93.6539 469.108C 93.6927 469.108 93.7316 469.108 93.7704 469.108C 93.8093 469.108 93.8481 469.108 93.8869 469.108C 93.9258 469.108 93.9646 469.108 94.0035 469.108C 94.0423 469.108 94.0811 469.108 94.12 469.108C 94.1588 469.108 94.1977 469.108 94.2365 469.108C 94.2753 469.108 94.3142 469.108 94.353 469.108C 94.3919 469.108 94.4307 469.108 94.4696 469.108C 94.5084 469.108 94.5472 469.108 94.5861 469.108C 94.6249 469.108 94.6638 469.108 94.7026 469.108C 94.7414 469.108 94.7803 469.108 94.8191 469.108C 94.858 469.108 94.8968 469.108 94.9357 469.108C 94.9745 469.108 95.0133 469.108 95.0522 469.108C 95.091 469.108 95.1299 469.108 95.1687 469.108C 95.2075 469.108 95.2464 469.108 95.2852 469.108C 95.3241 469.108 95.3629 469.108 95.4018 469.108C 95.4406 469.108 95.4794 469.108 95.5183 469.108C 95.5571 469.108 95.596 469.108 95.6348 469.108C 95.6736 469.108 95.7125 469.108 95.7513 469.108C 95.7902 469.108 95.829 469.108 95.8678 469.108C 95.9067 469.108 95.9455 469.108 95.9844 469.108C 96.0232 469.108 96.0621 469.108 96.1009 469.108C 96.1397 469.108 96.1786 469.108 96.2174 469.108C 96.2563 469.108 96.2951 469.108 96.3339 469.108C 96.3728 469.108 96.4116 469.108 96.4505 469.108C 96.4893 469.108 96.5282 469.108 96.567 469.108C 96.6058 469.108 96.6447 469.108 96.6835 469.108C 96.7224 469.108 96.7612 469.108 96.8 469.108C 96.8389 469.108 96.8777 469.108 96.9166 469.108C 96.9554 469.108 96.9942 469.108 97.0331 469.108C 97.0719 469.108 97.1108 469.108 97.1496 469.108C 97.1885 469.108 97.2273 469.108 97.2661 469.108C 97.305 469.108 97.3438 469.108 97.3827 469.108C 97.4215 469.108 97.4603 469.108 97.4992 469.108C 97.538 469.108 97.5769 469.108 97.6157 469.108C 97.6546 469.108 97.6934 469.108 97.7322 469.108C 97.7711 469.108 97.8099 469.108 97.8488 469.108C 97.8876 469.108 97.9264 469.108 97.9653 469.108C 98.0041 469.108 98.043 469.108 98.0818 469.108C 98.1207 469.108 98.1595 469.108 98.1983 469.108C 98.2372 469.108 98.276 469.108 98.3149 469.108C 98.3537 469.108 98.3925 469.108 98.4314 469.108C 98.4702 469.108 98.5091 469.108 98.5479 469.108C 98.5867 469.108 98.6256 469.108 98.6644 469.108C 98.7033 469.108 98.7421 469.108 98.781 469.108C 98.8198 469.108 98.8586 469.108 98.8975 469.108C 98.9363 469.108 98.9752 469.108 99.014 469.108C 99.0528 469.108 99.0917 469.108 99.1305 469.108C 99.1694 469.108 99.2082 469.108 99.2471 469.108C 99.2859 469.108 99.3247 469.108 99.3636 469.108C 99.4024 469.108 99.4413 469.108 99.4801 469.108C 99.5189 469.108 99.5578 469.108 99.5966 469.108C 99.6355 469.108 99.6743 469.108 99.7132 469.108C 99.752 469.108 99.7908 469.108 99.8297 469.108C 99.8685 469.108 99.9074 469.108 99.9462 469.108C 99.985 469.108 100.024 469.108 100.063 469.108C 100.102 469.108 100.14 469.108 100.179 469.108C 100.218 469.108 100.257 469.108 100.296 469.108C 100.335 469.108 100.373 469.108 100.412 469.108C 100.451 469.108 100.49 469.108 100.529 469.108C 100.568 469.108 100.607 469.108 100.645 469.108C 100.684 469.108 100.723 469.108 100.762 469.108C 100.801 469.108 100.84 469.108 100.878 469.108C 100.917 469.108 100.956 469.108 100.995 469.108C 101.034 469.108 101.073 469.108 101.111 469.108C 101.15 469.108 101.189 469.108 101.228 469.108C 101.267 469.108 101.306 469.108 101.344 469.108C 101.383 469.108 101.422 469.108 101.461 469.108C 101.5 469.108 101.539 469.108 101.578 469.108C 101.616 469.108 101.655 469.108 101.694 469.108C 101.733 469.108 101.772 469.108 101.811 469.108C 101.849 469.108 101.888 469.108 101.927 469.108C 101.966 469.108 102.005 469.108 102.044 469.108C 102.082 469.108 102.121 469.108 102.16 469.108C 102.199 469.108 102.238 469.108 102.277 469.108C 102.316 469.108 102.354 469.108 102.393 469.108C 102.432 469.108 102.471 469.108 102.51 469.108C 102.549 469.108 102.587 469.108 102.626 469.108C 102.665 469.108 102.704 469.108 102.743 469.108C 102.782 469.108 102.82 469.108 102.859 469.108C 102.898 469.108 102.937 469.108 102.976 469.108C 103.015 469.108 103.054 469.108 103.092 469.108C 103.131 469.108 103.17 469.108 103.209 469.108C 103.248 469.108 103.287 469.108 103.325 469.108C 103.364 469.108 103.403 469.108 103.442 469.108C 103.481 469.108 103.52 469.108 103.558 469.108C 103.597 469.108 103.636 469.108 103.675 469.108C 103.714 469.108 103.753 469.108 103.792 469.108C 103.83 469.108 103.869 469.108 103.908 469.108C 103.947 469.108 103.986 469.108 104.025 469.108C 104.063 469.108 104.102 469.108 104.141 469.108C 104.18 469.108 104.219 469.108 104.258 469.108C 104.296 469.108 104.335 469.108 104.374 469.108C 104.413 469.108 104.452 469.108 104.491 469.108C 104.529 469.108 104.568 469.108 104.607 469.108C 104.646 469.108 104.685 469.108 104.724 469.108C 104.763 469.108 104.801 469.108 104.84 469.108C 104.879 469.108 104.918 469.108 104.957 469.108C 104.996 469.108 105.034 469.108 105.073 469.108C 105.112 469.108 105.151 469.108 105.19 469.108C 105.229 469.108 105.267 469.108 105.306 469.108C 105.345 469.108 105.384 469.108 105.423 469.108C 105.462 469.108 105.501 469.108 105.539 469.108C 105.578 469.108 105.617 469.108 105.656 469.108C 105.695 469.108 105.734 469.108 105.772 469.108C 105.811 469.108 105.85 469.108 105.889 469.108C 105.928 469.108 105.967 469.108 106.005 469.108C 106.044 469.108 106.083 469.108 106.122 469.108C 106.161 469.108 106.2 469.108 106.239 469.108C 106.277 469.108 106.316 469.108 106.355 469.108C 106.394 469.108 106.433 469.108 106.472 469.108C 106.51 469.108 106.549 469.108 106.588 469.108C 106.627 469.108 106.666 469.108 106.705 469.108C 106.743 469.108 106.782 469.108 106.821 469.108C 106.86 469.108 106.899 469.108 106.938 469.108C 106.976 469.108 107.015 469.108 107.054 469.108C 107.093 469.108 107.132 469.108 107.171 469.108C 107.21 469.108 107.248 469.108 107.287 469.108C 107.326 469.108 107.365 469.108 107.404 469.108C 107.443 469.108 107.481 469.108 107.52 469.108C 107.559 469.108 107.598 469.108 107.637 469.108C 107.676 469.108 107.714 469.108 107.753 469.108C 107.792 469.108 107.831 469.108 107.87 469.108C 107.909 469.108 107.948 469.108 107.986 469.108C 108.025 469.108 108.064 469.108 108.103 469.108C 108.142 469.108 108.181 469.108 108.219 469.108C 108.258 469.108 108.297 469.108 108.336 469.108C 108.375 469.108 108.414 469.108 108.452 469.108C 108.491 469.108 108.53 469.108 108.569 469.108C 108.608 469.108 108.647 469.108 108.686 469.108C 108.724 469.108 108.763 469.108 108.802 469.108C 108.841 469.108 108.88 469.108 108.919 469.108C 108.957 469.108 108.996 469.108 109.035 469.108C 109.074 469.108 109.113 469.108 109.152 469.108C 109.19 469.108 109.229 469.108 109.268 469.108C 109.307 469.108 109.346 469.108 109.385 469.108C 109.424 469.108 109.462 469.108 109.501 469.108C 109.54 469.108 109.579 469.108 109.618 469.108C 109.657 469.108 109.695 469.108 109.734 469.108C 109.773 469.108 109.812 469.108 109.851 469.108C 109.89 469.108 109.928 469.108 109.967 469.108C 110.006 469.108 110.045 469.108 110.084 469.108C 110.123 469.108 110.161 469.108 110.2 469.108C 110.239 469.108 110.278 469.108 110.317 469.108C 110.356 469.108 110.395 469.108 110.433 469.108C 110.472 469.108 110.511 469.108 110.55 469.108C 110.589 469.108 110.628 469.108 110.666 469.108C 110.705 469.108 110.744 469.108 110.783 469.108C 110.822 469.108 110.861 469.108 110.899 469.108C 110.938 469.108 110.977 469.108 111.016 469.108L 111.016 466.108C 110.977 466.108 110.938 466.108 110.899 466.108C 110.861 466.108 110.822 466.108 110.783 466.108C 110.744 466.108 110.705 466.108 110.666 466.108C 110.628 466.108 110.589 466.108 110.55 466.108C 110.511 466.108 110.472 466.108 110.433 466.108C 110.395 466.108 110.356 466.108 110.317 466.108C 110.278 466.108 110.239 466.108 110.2 466.108C 110.161 466.108 110.123 466.108 110.084 466.108C 110.045 466.108 110.006 466.108 109.967 466.108C 109.928 466.108 109.89 466.108 109.851 466.108C 109.812 466.108 109.773 466.108 109.734 466.108C 109.695 466.108 109.657 466.108 109.618 466.108C 109.579 466.108 109.54 466.108 109.501 466.108C 109.462 466.108 109.424 466.108 109.385 466.108C 109.346 466.108 109.307 466.108 109.268 466.108C 109.229 466.108 109.19 466.108 109.152 466.108C 109.113 466.108 109.074 466.108 109.035 466.108C 108.996 466.108 108.957 466.108 108.919 466.108C 108.88 466.108 108.841 466.108 108.802 466.108C 108.763 466.108 108.724 466.108 108.686 466.108C 108.647 466.108 108.608 466.108 108.569 466.108C 108.53 466.108 108.491 466.108 108.452 466.108C 108.414 466.108 108.375 466.108 108.336 466.108C 108.297 466.108 108.258 466.108 108.219 466.108C 108.181 466.108 108.142 466.108 108.103 466.108C 108.064 466.108 108.025 466.108 107.986 466.108C 107.948 466.108 107.909 466.108 107.87 466.108C 107.831 466.108 107.792 466.108 107.753 466.108C 107.714 466.108 107.676 466.108 107.637 466.108C 107.598 466.108 107.559 466.108 107.52 466.108C 107.481 466.108 107.443 466.108 107.404 466.108C 107.365 466.108 107.326 466.108 107.287 466.108C 107.248 466.108 107.21 466.108 107.171 466.108C 107.132 466.108 107.093 466.108 107.054 466.108C 107.015 466.108 106.976 466.108 106.938 466.108C 106.899 466.108 106.86 466.108 106.821 466.108C 106.782 466.108 106.743 466.108 106.705 466.108C 106.666 466.108 106.627 466.108 106.588 466.108C 106.549 466.108 106.51 466.108 106.472 466.108C 106.433 466.108 106.394 466.108 106.355 466.108C 106.316 466.108 106.277 466.108 106.239 466.108C 106.2 466.108 106.161 466.108 106.122 466.108C 106.083 466.108 106.044 466.108 106.005 466.108C 105.967 466.108 105.928 466.108 105.889 466.108C 105.85 466.108 105.811 466.108 105.772 466.108C 105.734 466.108 105.695 466.108 105.656 466.108C 105.617 466.108 105.578 466.108 105.539 466.108C 105.501 466.108 105.462 466.108 105.423 466.108C 105.384 466.108 105.345 466.108 105.306 466.108C 105.267 466.108 105.229 466.108 105.19 466.108C 105.151 466.108 105.112 466.108 105.073 466.108C 105.034 466.108 104.996 466.108 104.957 466.108C 104.918 466.108 104.879 466.108 104.84 466.108C 104.801 466.108 104.763 466.108 104.724 466.108C 104.685 466.108 104.646 466.108 104.607 466.108C 104.568 466.108 104.529 466.108 104.491 466.108C 104.452 466.108 104.413 466.108 104.374 466.108C 104.335 466.108 104.296 466.108 104.258 466.108C 104.219 466.108 104.18 466.108 104.141 466.108C 104.102 466.108 104.063 466.108 104.025 466.108C 103.986 466.108 103.947 466.108 103.908 466.108C 103.869 466.108 103.83 466.108 103.792 466.108C 103.753 466.108 103.714 466.108 103.675 466.108C 103.636 466.108 103.597 466.108 103.558 466.108C 103.52 466.108 103.481 466.108 103.442 466.108C 103.403 466.108 103.364 466.108 103.325 466.108C 103.287 466.108 103.248 466.108 103.209 466.108C 103.17 466.108 103.131 466.108 103.092 466.108C 103.054 466.108 103.015 466.108 102.976 466.108C 102.937 466.108 102.898 466.108 102.859 466.108C 102.82 466.108 102.782 466.108 102.743 466.108C 102.704 466.108 102.665 466.108 102.626 466.108C 102.587 466.108 102.549 466.108 102.51 466.108C 102.471 466.108 102.432 466.108 102.393 466.108C 102.354 466.108 102.316 466.108 102.277 466.108C 102.238 466.108 102.199 466.108 102.16 466.108C 102.121 466.108 102.082 466.108 102.044 466.108C 102.005 466.108 101.966 466.108 101.927 466.108C 101.888 466.108 101.849 466.108 101.811 466.108C 101.772 466.108 101.733 466.108 101.694 466.108C 101.655 466.108 101.616 466.108 101.578 466.108C 101.539 466.108 101.5 466.108 101.461 466.108C 101.422 466.108 101.383 466.108 101.344 466.108C 101.306 466.108 101.267 466.108 101.228 466.108C 101.189 466.108 101.15 466.108 101.111 466.108C 101.073 466.108 101.034 466.108 100.995 466.108C 100.956 466.108 100.917 466.108 100.878 466.108C 100.84 466.108 100.801 466.108 100.762 466.108C 100.723 466.108 100.684 466.108 100.645 466.108C 100.607 466.108 100.568 466.108 100.529 466.108C 100.49 466.108 100.451 466.108 100.412 466.108C 100.373 466.108 100.335 466.108 100.296 466.108C 100.257 466.108 100.218 466.108 100.179 466.108C 100.14 466.108 100.102 466.108 100.063 466.108C 100.024 466.108 99.985 466.108 99.9462 466.108C 99.9074 466.108 99.8685 466.108 99.8297 466.108C 99.7908 466.108 99.752 466.108 99.7132 466.108C 99.6743 466.108 99.6355 466.108 99.5966 466.108C 99.5578 466.108 99.5189 466.108 99.4801 466.108C 99.4413 466.108 99.4024 466.108 99.3636 466.108C 99.3247 466.108 99.2859 466.108 99.2471 466.108C 99.2082 466.108 99.1694 466.108 99.1305 466.108C 99.0917 466.108 99.0528 466.108 99.014 466.108C 98.9752 466.108 98.9363 466.108 98.8975 466.108C 98.8586 466.108 98.8198 466.108 98.781 466.108C 98.7421 466.108 98.7033 466.108 98.6644 466.108C 98.6256 466.108 98.5867 466.108 98.5479 466.108C 98.5091 466.108 98.4702 466.108 98.4314 466.108C 98.3925 466.108 98.3537 466.108 98.3149 466.108C 98.276 466.108 98.2372 466.108 98.1983 466.108C 98.1595 466.108 98.1207 466.108 98.0818 466.108C 98.043 466.108 98.0041 466.108 97.9653 466.108C 97.9264 466.108 97.8876 466.108 97.8488 466.108C 97.8099 466.108 97.7711 466.108 97.7322 466.108C 97.6934 466.108 97.6546 466.108 97.6157 466.108C 97.5769 466.108 97.538 466.108 97.4992 466.108C 97.4603 466.108 97.4215 466.108 97.3827 466.108C 97.3438 466.108 97.305 466.108 97.2661 466.108C 97.2273 466.108 97.1885 466.108 97.1496 466.108C 97.1108 466.108 97.0719 466.108 97.0331 466.108C 96.9942 466.108 96.9554 466.108 96.9166 466.108C 96.8777 466.108 96.8389 466.108 96.8 466.108C 96.7612 466.108 96.7224 466.108 96.6835 466.108C 96.6447 466.108 96.6058 466.108 96.567 466.108C 96.5282 466.108 96.4893 466.108 96.4505 466.108C 96.4116 466.108 96.3728 466.108 96.3339 466.108C 96.2951 466.108 96.2563 466.108 96.2174 466.108C 96.1786 466.108 96.1397 466.108 96.1009 466.108C 96.0621 466.108 96.0232 466.108 95.9844 466.108C 95.9455 466.108 95.9067 466.108 95.8678 466.108C 95.829 466.108 95.7902 466.108 95.7513 466.108C 95.7125 466.108 95.6736 466.108 95.6348 466.108C 95.596 466.108 95.5571 466.108 95.5183 466.108C 95.4794 466.108 95.4406 466.108 95.4018 466.108C 95.3629 466.108 95.3241 466.108 95.2852 466.108C 95.2464 466.108 95.2075 466.108 95.1687 466.108C 95.1299 466.108 95.091 466.108 95.0522 466.108C 95.0133 466.108 94.9745 466.108 94.9357 466.108C 94.8968 466.108 94.858 466.108 94.8191 466.108C 94.7803 466.108 94.7414 466.108 94.7026 466.108C 94.6638 466.108 94.6249 466.108 94.5861 466.108C 94.5472 466.108 94.5084 466.108 94.4696 466.108C 94.4307 466.108 94.3919 466.108 94.353 466.108C 94.3142 466.108 94.2753 466.108 94.2365 466.108C 94.1977 466.108 94.1588 466.108 94.12 466.108C 94.0811 466.108 94.0423 466.108 94.0035 466.108C 93.9646 466.108 93.9258 466.108 93.8869 466.108C 93.8481 466.108 93.8093 466.108 93.7704 466.108C 93.7316 466.108 93.6927 466.108 93.6539 466.108C 93.615 466.108 93.5762 466.108 93.5374 466.108C 93.4985 466.108 93.4597 466.108 93.4208 466.108C 93.382 466.108 93.3432 466.108 93.3043 466.108C 93.2655 466.108 93.2266 466.108 93.1878 466.108C 93.1489 466.108 93.1101 466.108 93.0713 466.108C 93.0324 466.108 92.9936 466.108 92.9547 466.108C 92.9159 466.108 92.8771 466.108 92.8382 466.108C 92.7994 466.108 92.7605 466.108 92.7217 466.108C 92.6829 466.108 92.644 466.108 92.6052 466.108C 92.5663 466.108 92.5275 466.108 92.4886 466.108C 92.4498 466.108 92.411 466.108 92.3721 466.108C 92.3333 466.108 92.2944 466.108 92.2556 466.108C 92.2168 466.108 92.1779 466.108 92.1391 466.108C 92.1002 466.108 92.0614 466.108 92.0225 466.108C 91.9837 466.108 91.9449 466.108 91.906 466.108C 91.8672 466.108 91.8283 466.108 91.7895 466.108C 91.7507 466.108 91.7118 466.108 91.673 466.108C 91.6341 466.108 91.5953 466.108 91.5564 466.108C 91.5176 466.108 91.4788 466.108 91.4399 466.108C 91.4011 466.108 91.3622 466.108 91.3234 466.108C 91.2846 466.108 91.2457 466.108 91.2069 466.108C 91.168 466.108 91.1292 466.108 91.0904 466.108C 91.0515 466.108 91.0127 466.108 90.9738 466.108C 90.935 466.108 90.8961 466.108 90.8573 466.108C 90.8185 466.108 90.7796 466.108 90.7408 466.108C 90.7019 466.108 90.6631 466.108 90.6243 466.108C 90.5854 466.108 90.5466 466.108 90.5077 466.108C 90.4689 466.108 90.43 466.108 90.3912 466.108C 90.3524 466.108 90.3135 466.108 90.2747 466.108C 90.2358 466.108 90.197 466.108 90.1582 466.108C 90.1193 466.108 90.0805 466.108 90.0416 466.108C 90.0028 466.108 89.964 466.108 89.9251 466.108C 89.8863 466.108 89.8474 466.108 89.8086 466.108C 89.7697 466.108 89.7309 466.108 89.6921 466.108C 89.6532 466.108 89.6144 466.108 89.5755 466.108C 89.5367 466.108 89.4979 466.108 89.459 466.108C 89.4202 466.108 89.3813 466.108 89.3425 466.108C 89.3036 466.108 89.2648 466.108 89.226 466.108C 89.1871 466.108 89.1483 466.108 89.1094 466.108C 89.0706 466.108 89.0318 466.108 88.9929 466.108C 88.9541 466.108 88.9152 466.108 88.8764 466.108C 88.8375 466.108 88.7987 466.108 88.7599 466.108C 88.721 466.108 88.6822 466.108 88.6433 466.108C 88.6045 466.108 88.5657 466.108 88.5268 466.108C 88.488 466.108 88.4491 466.108 88.4103 466.108C 88.3715 466.108 88.3326 466.108 88.2938 466.108C 88.2549 466.108 88.2161 466.108 88.1772 466.108C 88.1384 466.108 88.0996 466.108 88.0607 466.108C 88.0219 466.108 87.983 466.108 87.9442 466.108C 87.9054 466.108 87.8665 466.108 87.8277 466.108C 87.7888 466.108 87.75 466.108 87.7111 466.108C 87.6723 466.108 87.6335 466.108 87.5946 466.108C 87.5558 466.108 87.5169 466.108 87.4781 466.108C 87.4393 466.108 87.4004 466.108 87.3616 466.108C 87.3227 466.108 87.2839 466.108 87.245 466.108C 87.2062 466.108 87.1674 466.108 87.1285 466.108C 87.0897 466.108 87.0508 466.108 87.012 466.108C 86.9732 466.108 86.9343 466.108 86.8955 466.108C 86.8566 466.108 86.8178 466.108 86.779 466.108C 86.7401 466.108 86.7013 466.108 86.6624 466.108C 86.6236 466.108 86.5847 466.108 86.5459 466.108C 86.5071 466.108 86.4682 466.108 86.4294 466.108C 86.3905 466.108 86.3517 466.108 86.3129 466.108C 86.274 466.108 86.2352 466.108 86.1963 466.108C 86.1575 466.108 86.1186 466.108 86.0798 466.108C 86.041 466.108 86.0021 466.108 85.9633 466.108C 85.9244 466.108 85.8856 466.108 85.8468 466.108C 85.8079 466.108 85.7691 466.108 85.7302 466.108C 85.6914 466.108 85.6526 466.108 85.6137 466.108C 85.5749 466.108 85.536 466.108 85.4972 466.108C 85.4583 466.108 85.4195 466.108 85.3807 466.108C 85.3418 466.108 85.303 466.108 85.2641 466.108C 85.2253 466.108 85.1865 466.108 85.1476 466.108C 85.1088 466.108 85.0699 466.108 85.0311 466.108C 84.9922 466.108 84.9534 466.108 84.9146 466.108C 84.8757 466.108 84.8369 466.108 84.798 466.108C 84.7592 466.108 84.7204 466.108 84.6815 466.108C 84.6427 466.108 84.6038 466.108 84.565 466.108C 84.5261 466.108 84.4873 466.108 84.4485 466.108C 84.4096 466.108 84.3708 466.108 84.3319 466.108C 84.2931 466.108 84.2543 466.108 84.2154 466.108C 84.1766 466.108 84.1377 466.108 84.0989 466.108C 84.0601 466.108 84.0212 466.108 83.9824 466.108C 83.9435 466.108 83.9047 466.108 83.8658 466.108C 83.827 466.108 83.7882 466.108 83.7493 466.108C 83.7105 466.108 83.6716 466.108 83.6328 466.108C 83.594 466.108 83.5551 466.108 83.5163 466.108C 83.4774 466.108 83.4386 466.108 83.3997 466.108C 83.3609 466.108 83.3221 466.108 83.2832 466.108C 83.2444 466.108 83.2055 466.108 83.1667 466.108C 83.1279 466.108 83.089 466.108 83.0502 466.108C 83.0113 466.108 82.9725 466.108 82.9337 466.108C 82.8948 466.108 82.856 466.108 82.8171 466.108C 82.7783 466.108 82.7394 466.108 82.7006 466.108C 82.6618 466.108 82.6229 466.108 82.5841 466.108C 82.5452 466.108 82.5064 466.108 82.4676 466.108C 82.4287 466.108 82.3899 466.108 82.351 466.108C 82.3122 466.108 82.2733 466.108 82.2345 466.108C 82.1957 466.108 82.1568 466.108 82.118 466.108C 82.0791 466.108 82.0403 466.108 82.0015 466.108C 81.9626 466.108 81.9238 466.108 81.8849 466.108C 81.8461 466.108 81.8072 466.108 81.7684 466.108C 81.7296 466.108 81.6907 466.108 81.6519 466.108C 81.613 466.108 81.5742 466.108 81.5354 466.108C 81.4965 466.108 81.4577 466.108 81.4188 466.108C 81.38 466.108 81.3412 466.108 81.3023 466.108C 81.2635 466.108 81.2246 466.108 81.1858 466.108C 81.1469 466.108 81.1081 466.108 81.0693 466.108C 81.0304 466.108 80.9916 466.108 80.9527 466.108C 80.9139 466.108 80.8751 466.108 80.8362 466.108C 80.7974 466.108 80.7585 466.108 80.7197 466.108C 80.6808 466.108 80.642 466.108 80.6032 466.108C 80.5643 466.108 80.5255 466.108 80.4866 466.108C 80.4478 466.108 80.409 466.108 80.3701 466.108C 80.3313 466.108 80.2924 466.108 80.2536 466.108C 80.2147 466.108 80.1759 466.108 80.1371 466.108C 80.0982 466.108 80.0594 466.108 80.0205 466.108C 79.9817 466.108 79.9429 466.108 79.904 466.108C 79.8652 466.108 79.8263 466.108 79.7875 466.108C 79.7487 466.108 79.7098 466.108 79.671 466.108C 79.6321 466.108 79.5933 466.108 79.5544 466.108C 79.5156 466.108 79.4768 466.108 79.4379 466.108C 79.3991 466.108 79.3602 466.108 79.3214 466.108C 79.2826 466.108 79.2437 466.108 79.2049 466.108C 79.166 466.108 79.1272 466.108 79.0883 466.108C 79.0495 466.108 79.0107 466.108 78.9718 466.108C 78.933 466.108 78.8941 466.108 78.8553 466.108C 78.8165 466.108 78.7776 466.108 78.7388 466.108C 78.6999 466.108 78.6611 466.108 78.6223 466.108C 78.5834 466.108 78.5446 466.108 78.5057 466.108C 78.4669 466.108 78.428 466.108 78.3892 466.108C 78.3504 466.108 78.3115 466.108 78.2727 466.108C 78.2338 466.108 78.195 466.108 78.1562 466.108C 78.1173 466.108 78.0785 466.108 78.0396 466.108C 78.0008 466.108 77.9619 466.108 77.9231 466.108C 77.8843 466.108 77.8454 466.108 77.8066 466.108C 77.7677 466.108 77.7289 466.108 77.6901 466.108C 77.6512 466.108 77.6124 466.108 77.5735 466.108C 77.5347 466.108 77.4958 466.108 77.457 466.108C 77.4182 466.108 77.3793 466.108 77.3405 466.108C 77.3016 466.108 77.2628 466.108 77.224 466.108C 77.1851 466.108 77.1463 466.108 77.1074 466.108C 77.0686 466.108 77.0298 466.108 76.9909 466.108C 76.9521 466.108 76.9132 466.108 76.8744 466.108C 76.8355 466.108 76.7967 466.108 76.7579 466.108C 76.719 466.108 76.6802 466.108 76.6413 466.108C 76.6025 466.108 76.5637 466.108 76.5248 466.108C 76.486 466.108 76.4471 466.108 76.4083 466.108C 76.3694 466.108 76.3306 466.108 76.2918 466.108C 76.2529 466.108 76.2141 466.108 76.1752 466.108C 76.1364 466.108 76.0976 466.108 76.0587 466.108C 76.0199 466.108 75.981 466.108 75.9422 466.108C 75.9034 466.108 75.8645 466.108 75.8257 466.108C 75.7868 466.108 75.748 466.108 75.7091 466.108C 75.6703 466.108 75.6315 466.108 75.5926 466.108C 75.5538 466.108 75.5149 466.108 75.4761 466.108C 75.4373 466.108 75.3984 466.108 75.3596 466.108C 75.3207 466.108 75.2819 466.108 75.243 466.108C 75.2042 466.108 75.1654 466.108 75.1265 466.108C 75.0877 466.108 75.0488 466.108 75.01 466.108C 74.9712 466.108 74.9323 466.108 74.8935 466.108C 74.8546 466.108 74.8158 466.108 74.7769 466.108C 74.7381 466.108 74.6993 466.108 74.6604 466.108C 74.6216 466.108 74.5827 466.108 74.5439 466.108C 74.5051 466.108 74.4662 466.108 74.4274 466.108C 74.3885 466.108 74.3497 466.108 74.3109 466.108C 74.272 466.108 74.2332 466.108 74.1943 466.108C 74.1555 466.108 74.1166 466.108 74.0778 466.108C 74.039 466.108 74.0001 466.108 73.9613 466.108C 73.9224 466.108 73.8836 466.108 73.8448 466.108C 73.8059 466.108 73.7671 466.108 73.7282 466.108C 73.6894 466.108 73.6505 466.108 73.6117 466.108C 73.5729 466.108 73.534 466.108 73.4952 466.108C 73.4563 466.108 73.4175 466.108 73.3787 466.108C 73.3398 466.108 73.301 466.108 73.2621 466.108C 73.2233 466.108 73.1845 466.108 73.1456 466.108C 73.1068 466.108 73.0679 466.108 73.0291 466.108C 72.9902 466.108 72.9514 466.108 72.9126 466.108C 72.8737 466.108 72.8349 466.108 72.796 466.108C 72.7572 466.108 72.7184 466.108 72.6795 466.108C 72.6407 466.108 72.6018 466.108 72.563 466.108C 72.5241 466.108 72.4853 466.108 72.4465 466.108C 72.4076 466.108 72.3688 466.108 72.3299 466.108C 72.2911 466.108 72.2523 466.108 72.2134 466.108C 72.1746 466.108 72.1357 466.108 72.0969 466.108C 72.058 466.108 72.0192 466.108 71.9804 466.108C 71.9415 466.108 71.9027 466.108 71.8638 466.108C 71.825 466.108 71.7862 466.108 71.7473 466.108C 71.7085 466.108 71.6696 466.108 71.6308 466.108C 71.592 466.108 71.5531 466.108 71.5143 466.108C 71.4754 466.108 71.4366 466.108 71.3977 466.108C 71.3589 466.108 71.3201 466.108 71.2812 466.108C 71.2424 466.108 71.2035 466.108 71.1647 466.108C 71.1259 466.108 71.087 466.108 71.0482 466.108C 71.0093 466.108 70.9705 466.108 70.9316 466.108C 70.8928 466.108 70.854 466.108 70.8151 466.108C 70.7763 466.108 70.7374 466.108 70.6986 466.108C 70.6598 466.108 70.6209 466.108 70.5821 466.108C 70.5432 466.108 70.5044 466.108 70.4655 466.108C 70.4267 466.108 70.3879 466.108 70.349 466.108C 70.3102 466.108 70.2713 466.108 70.2325 466.108C 70.1937 466.108 70.1548 466.108 70.116 466.108C 70.0771 466.108 70.0383 466.108 69.9995 466.108C 69.9606 466.108 69.9218 466.108 69.8829 466.108C 69.8441 466.108 69.8052 466.108 69.7664 466.108C 69.7276 466.108 69.6887 466.108 69.6499 466.108C 69.611 466.108 69.5722 466.108 69.5334 466.108C 69.4945 466.108 69.4557 466.108 69.4168 466.108C 69.378 466.108 69.3391 466.108 69.3003 466.108C 69.2615 466.108 69.2226 466.108 69.1838 466.108C 69.1449 466.108 69.1061 466.108 69.0673 466.108C 69.0284 466.108 68.9896 466.108 68.9507 466.108C 68.9119 466.108 68.8731 466.108 68.8342 466.108C 68.7954 466.108 68.7565 466.108 68.7177 466.108C 68.6788 466.108 68.64 466.108 68.6012 466.108C 68.5623 466.108 68.5235 466.108 68.4846 466.108C 68.4458 466.108 68.407 466.108 68.3681 466.108C 68.3293 466.108 68.2904 466.108 68.2516 466.108C 68.2127 466.108 68.1739 466.108 68.1351 466.108C 68.0962 466.108 68.0574 466.108 68.0185 466.108C 67.9797 466.108 67.9409 466.108 67.902 466.108C 67.8632 466.108 67.8243 466.108 67.7855 466.108C 67.7466 466.108 67.7078 466.108 67.669 466.108C 67.6301 466.108 67.5913 466.108 67.5524 466.108C 67.5136 466.108 67.4748 466.108 67.4359 466.108C 67.3971 466.108 67.3582 466.108 67.3194 466.108C 67.2806 466.108 67.2417 466.108 67.2029 466.108C 67.164 466.108 67.1252 466.108 67.0863 466.108C 67.0475 466.108 67.0087 466.108 66.9698 466.108C 66.931 466.108 66.8921 466.108 66.8533 466.108C 66.8145 466.108 66.7756 466.108 66.7368 466.108C 66.6979 466.108 66.6591 466.108 66.6202 466.108C 66.5814 466.108 66.5426 466.108 66.5037 466.108C 66.4649 466.108 66.426 466.108 66.3872 466.108C 66.3484 466.108 66.3095 466.108 66.2707 466.108C 66.2318 466.108 66.193 466.108 66.1542 466.108C 66.1153 466.108 66.0765 466.108 66.0376 466.108C 65.9988 466.108 65.9599 466.108 65.9211 466.108C 65.8823 466.108 65.8434 466.108 65.8046 466.108C 65.7657 466.108 65.7269 466.108 65.6881 466.108C 65.6492 466.108 65.6104 466.108 65.5715 466.108C 65.5327 466.108 65.4938 466.108 65.455 466.108C 65.4162 466.108 65.3773 466.108 65.3385 466.108C 65.2996 466.108 65.2608 466.108 65.222 466.108C 65.1831 466.108 65.1443 466.108 65.1054 466.108C 65.0666 466.108 65.0277 466.108 64.9889 466.108C 64.9501 466.108 64.9112 466.108 64.8724 466.108C 64.8335 466.108 64.7947 466.108 64.7559 466.108C 64.717 466.108 64.6782 466.108 64.6393 466.108C 64.6005 466.108 64.5617 466.108 64.5228 466.108C 64.484 466.108 64.4451 466.108 64.4063 466.108C 64.3674 466.108 64.3286 466.108 64.2898 466.108C 64.2509 466.108 64.2121 466.108 64.1732 466.108C 64.1344 466.108 64.0956 466.108 64.0567 466.108C 64.0179 466.108 63.979 466.108 63.9402 466.108C 63.9013 466.108 63.8625 466.108 63.8237 466.108C 63.7848 466.108 63.746 466.108 63.7071 466.108C 63.6683 466.108 63.6295 466.108 63.5906 466.108C 63.5518 466.108 63.5129 466.108 63.4741 466.108C 63.4353 466.108 63.3964 466.108 63.3576 466.108C 63.3187 466.108 63.2799 466.108 63.241 466.108C 63.2022 466.108 63.1634 466.108 63.1245 466.108C 63.0857 466.108 63.0468 466.108 63.008 466.108C 62.9692 466.108 62.9303 466.108 62.8915 466.108C 62.8526 466.108 62.8138 466.108 62.7749 466.108C 62.7361 466.108 62.6973 466.108 62.6584 466.108C 62.6196 466.108 62.5807 466.108 62.5419 466.108C 62.5031 466.108 62.4642 466.108 62.4254 466.108C 62.3865 466.108 62.3477 466.108 62.3088 466.108C 62.27 466.108 62.2312 466.108 62.1923 466.108C 62.1535 466.108 62.1146 466.108 62.0758 466.108C 62.037 466.108 61.9981 466.108 61.9593 466.108C 61.9204 466.108 61.8816 466.108 61.8428 466.108C 61.8039 466.108 61.7651 466.108 61.7262 466.108C 61.6874 466.108 61.6485 466.108 61.6097 466.108C 61.5709 466.108 61.532 466.108 61.4932 466.108C 61.4543 466.108 61.4155 466.108 61.3767 466.108C 61.3378 466.108 61.299 466.108 61.2601 466.108C 61.2213 466.108 61.1824 466.108 61.1436 466.108C 61.1048 466.108 61.0659 466.108 61.0271 466.108C 60.9882 466.108 60.9494 466.108 60.9106 466.108C 60.8717 466.108 60.8329 466.108 60.794 466.108C 60.7552 466.108 60.7163 466.108 60.6775 466.108C 60.6387 466.108 60.5998 466.108 60.561 466.108C 60.5221 466.108 60.4833 466.108 60.4445 466.108C 60.4056 466.108 60.3668 466.108 60.3279 466.108C 60.2891 466.108 60.2503 466.108 60.2114 466.108C 60.1726 466.108 60.1337 466.108 60.0949 466.108C 60.056 466.108 60.0172 466.108 59.9784 466.108C 59.9395 466.108 59.9007 466.108 59.8618 466.108C 59.823 466.108 59.7842 466.108 59.7453 466.108C 59.7065 466.108 59.6676 466.108 59.6288 466.108C 59.5899 466.108 59.5511 466.108 59.5123 466.108C 59.4734 466.108 59.4346 466.108 59.3957 466.108C 59.3569 466.108 59.3181 466.108 59.2792 466.108C 59.2404 466.108 59.2015 466.108 59.1627 466.108C 59.1239 466.108 59.085 466.108 59.0462 466.108C 59.0073 466.108 58.9685 466.108 58.9296 466.108C 58.8908 466.108 58.852 466.108 58.8131 466.108C 58.7743 466.108 58.7354 466.108 58.6966 466.108C 58.6578 466.108 58.6189 466.108 58.5801 466.108C 58.5412 466.108 58.5024 466.108 58.4635 466.108C 58.4247 466.108 58.3859 466.108 58.347 466.108C 58.3082 466.108 58.2693 466.108 58.2305 466.108C 58.1917 466.108 58.1528 466.108 58.114 466.108C 58.0751 466.108 58.0363 466.108 57.9974 466.108C 57.9586 466.108 57.9198 466.108 57.8809 466.108C 57.8421 466.108 57.8032 466.108 57.7644 466.108C 57.7256 466.108 57.6867 466.108 57.6479 466.108C 57.609 466.108 57.5702 466.108 57.5314 466.108C 57.4925 466.108 57.4537 466.108 57.4148 466.108C 57.376 466.108 57.3371 466.108 57.2983 466.108C 57.2595 466.108 57.2206 466.108 57.1818 466.108C 57.1429 466.108 57.1041 466.108 57.0653 466.108C 57.0264 466.108 56.9876 466.108 56.9487 466.108C 56.9099 466.108 56.871 466.108 56.8322 466.108C 56.7934 466.108 56.7545 466.108 56.7157 466.108C 56.6768 466.108 56.638 466.108 56.5992 466.108C 56.5603 466.108 56.5215 466.108 56.4826 466.108C 56.4438 466.108 56.405 466.108 56.3661 466.108C 56.3273 466.108 56.2884 466.108 56.2496 466.108C 56.2107 466.108 56.1719 466.108 56.1331 466.108C 56.0942 466.108 56.0554 466.108 56.0165 466.108C 55.9777 466.108 55.9389 466.108 55.9 466.108C 55.8612 466.108 55.8223 466.108 55.7835 466.108C 55.7446 466.108 55.7058 466.108 55.667 466.108C 55.6281 466.108 55.5893 466.108 55.5504 466.108C 55.5116 466.108 55.4728 466.108 55.4339 466.108C 55.3951 466.108 55.3562 466.108 55.3174 466.108C 55.2785 466.108 55.2397 466.108 55.2009 466.108C 55.162 466.108 55.1232 466.108 55.0843 466.108C 55.0455 466.108 55.0067 466.108 54.9678 466.108C 54.929 466.108 54.8901 466.108 54.8513 466.108C 54.8125 466.108 54.7736 466.108 54.7348 466.108C 54.6959 466.108 54.6571 466.108 54.6182 466.108C 54.5794 466.108 54.5406 466.108 54.5017 466.108C 54.4629 466.108 54.424 466.108 54.3852 466.108C 54.3464 466.108 54.3075 466.108 54.2687 466.108C 54.2298 466.108 54.191 466.108 54.1521 466.108C 54.1133 466.108 54.0745 466.108 54.0356 466.108C 53.9968 466.108 53.9579 466.108 53.9191 466.108C 53.8803 466.108 53.8414 466.108 53.8026 466.108C 53.7637 466.108 53.7249 466.108 53.6861 466.108C 53.6472 466.108 53.6084 466.108 53.5695 466.108C 53.5307 466.108 53.4918 466.108 53.453 466.108C 53.4142 466.108 53.3753 466.108 53.3365 466.108C 53.2976 466.108 53.2588 466.108 53.22 466.108C 53.1811 466.108 53.1423 466.108 53.1034 466.108C 53.0646 466.108 53.0257 466.108 52.9869 466.108C 52.9481 466.108 52.9092 466.108 52.8704 466.108C 52.8315 466.108 52.7927 466.108 52.7539 466.108C 52.715 466.108 52.6762 466.108 52.6373 466.108C 52.5985 466.108 52.5596 466.108 52.5208 466.108C 52.482 466.108 52.4431 466.108 52.4043 466.108C 52.3654 466.108 52.3266 466.108 52.2878 466.108C 52.2489 466.108 52.2101 466.108 52.1712 466.108C 52.1324 466.108 52.0936 466.108 52.0547 466.108C 52.0159 466.108 51.977 466.108 51.9382 466.108C 51.8993 466.108 51.8605 466.108 51.8217 466.108C 51.7828 466.108 51.744 466.108 51.7051 466.108C 51.6663 466.108 51.6275 466.108 51.5886 466.108C 51.5498 466.108 51.5109 466.108 51.4721 466.108C 51.4332 466.108 51.3944 466.108 51.3556 466.108L 51.3556 469.108ZM 111.016 469.108C 117.429 469.108 126.864 469.84 134.856 468.171C 138.892 467.328 142.722 465.85 145.714 463.249C 148.742 460.618 150.808 456.93 151.437 451.892L 148.46 451.52C 147.916 455.876 146.177 458.872 143.746 460.985C 141.281 463.127 137.998 464.45 134.243 465.234C 126.655 466.819 117.798 466.108 111.016 466.108L 111.016 469.108ZM 151.437 451.892C 152.002 447.372 152.835 442.727 153.636 437.974C 154.433 433.241 155.195 428.419 155.594 423.634C 156.391 414.068 155.752 404.491 150.931 395.813L 148.309 397.27C 152.713 405.198 153.379 414.081 152.604 423.385C 152.217 428.035 151.474 432.75 150.678 437.476C 149.885 442.182 149.036 446.918 148.46 451.52L 151.437 451.892ZM 150.931 395.813C 143.636 382.682 129.003 376.123 116.135 371.443L 115.11 374.263C 128.003 378.952 141.608 385.21 148.309 397.27L 150.931 395.813ZM 116.135 371.443C 105.512 367.581 95.5118 366.586 85.4838 366.283C 75.3888 365.977 65.4713 366.366 54.5685 365.328L 54.2841 368.315C 65.2996 369.364 75.5733 368.984 85.3932 369.281C 95.2802 369.58 104.918 370.557 115.11 374.263L 116.135 371.443ZM 54.5685 365.328C 41.2571 364.06 28.1178 357.544 18.2339 347.9C 8.35201 338.258 1.81737 325.585 1.5297 312.064L -1.46962 312.128C -1.16195 326.589 5.81483 339.974 16.1388 350.048C 26.4609 360.119 40.2221 366.975 54.2841 368.315L 54.5685 365.328ZM 1.5297 312.064C 1.20372 296.743 3.53893 284.174 9.64343 274.535C 15.7182 264.944 25.6541 258.055 40.9624 254.332L 40.2534 251.417C 24.3723 255.28 13.6903 262.539 7.109 272.93C 0.557393 283.274 -1.80165 296.523 -1.46962 312.128L 1.5297 312.064ZM 40.9624 254.332C 51.7441 251.709 62.7142 251.962 74.0572 251.962L 74.0572 248.962C 62.8467 248.962 51.4628 248.69 40.2534 251.417L 40.9624 254.332ZM 74.0572 251.962C 79.0186 251.962 83.6914 251.243 88.2644 250.381C 92.8756 249.513 97.3095 248.516 102.002 247.891L 101.605 244.917C 96.8074 245.557 92.1882 246.589 87.709 247.433C 83.1915 248.284 78.7363 248.962 74.0572 248.962L 74.0572 251.962ZM 102.002 247.891C 118.001 245.757 131.199 242.464 146.522 238.085L 145.698 235.201C 130.438 239.561 117.398 242.811 101.605 244.917L 102.002 247.891ZM 146.522 238.085C 158.214 234.745 163.962 226.937 166.73 217.671C 169.46 208.531 169.325 197.862 169.325 188.608L 166.325 188.608C 166.325 198.005 166.433 208.182 163.855 216.812C 161.316 225.314 156.206 232.199 145.698 235.201L 146.522 238.085ZM 169.325 188.608C 169.325 186.896 169.357 185.265 169.389 183.701C 169.42 182.143 169.451 180.643 169.447 179.219C 169.439 176.381 169.292 173.738 168.691 171.345C 168.083 168.92 167.006 166.742 165.149 164.851C 163.307 162.974 160.774 161.457 157.371 160.219L 156.345 163.039C 159.469 164.174 161.57 165.487 163.008 166.952C 164.431 168.402 165.28 170.078 165.782 172.075C 166.291 174.104 166.439 176.451 166.447 179.228C 166.451 180.61 166.421 182.073 166.389 183.641C 166.358 185.202 166.325 186.861 166.325 188.608L 169.325 188.608ZM 157.371 160.219C 155.807 159.651 154.269 159.034 152.711 158.409C 151.16 157.788 149.589 157.159 148 156.586C 144.817 155.439 141.493 154.488 137.891 154.211L 137.66 157.202C 140.883 157.45 143.92 158.304 146.982 159.408C 148.515 159.961 150.038 160.57 151.595 161.194C 153.145 161.815 154.729 162.451 156.345 163.039L 157.371 160.219ZM 137.891 154.211C 130.153 153.616 122.974 149.488 115.451 144.964C 108.058 140.519 100.317 135.679 91.8325 134.374L 91.3763 137.339C 99.1552 138.536 106.352 142.994 113.905 147.535C 121.327 151.998 129.102 156.544 137.66 157.202L 137.891 154.211ZM 91.8325 134.374C 71.8662 131.302 58.8572 115.509 49.8249 98.7349L 47.1834 100.157C 56.3325 117.148 69.9595 134.044 91.3763 137.339L 91.8325 134.374ZM 49.8249 98.7349C 43.992 87.9025 42.6497 73.3876 42.9847 60.9924L 39.9858 60.9114C 39.6467 73.4601 40.9715 88.6207 47.1834 100.157L 49.8249 98.7349ZM 42.9847 60.9924C 43.1504 54.8636 44.8163 46.14 47.5161 37.7523C 50.2256 29.3342 53.9003 21.4948 57.954 16.9907L 55.7241 14.9838C 51.2393 19.9669 47.4078 28.297 44.6603 36.8331C 41.9031 45.3996 40.1614 54.4147 39.9858 60.9114L 42.9847 60.9924ZM 57.954 16.9907C 63.7974 10.498 72.488 5.32644 81.9047 2.93704C 91.3157 0.549078 101.326 0.968667 109.879 5.47026L 111.276 2.81551C 101.922 -2.10784 91.1195 -2.49619 81.1668 0.0291923C 71.2198 2.55315 61.9949 8.01626 55.7241 14.9838L 57.954 16.9907ZM 109.879 5.47026C 112.615 6.91026 115.532 9.48123 118.43 12.8219C 121.314 16.1474 124.115 20.1619 126.635 24.3998C 131.693 32.9072 135.512 42.1377 136.629 48.2792L 139.58 47.7425C 138.376 41.1163 134.37 31.5385 129.214 22.8667C 126.626 18.5149 123.724 14.347 120.696 10.8562C 117.681 7.38051 114.479 4.50113 111.276 2.81551L 109.879 5.47026ZM 136.629 48.2792C 137.979 55.7059 139.059 62.423 138.021 68.3406C 137.008 74.1106 133.958 79.2037 126.722 83.3382L 128.211 85.943C 136.192 81.3824 139.803 75.5405 140.975 68.8594C 142.122 62.3259 140.914 55.0756 139.58 47.7425L 136.629 48.2792ZM 126.722 83.3382C 120.662 86.8012 115.537 88.8519 110.106 89.979C 104.66 91.1093 98.8322 91.3264 91.3331 91.038L 91.2178 94.0357C 98.8182 94.3281 104.923 94.1185 110.716 92.9164C 116.524 91.711 121.945 89.5231 128.211 85.943L 126.722 83.3382ZM 91.3331 91.038C 90.5392 91.0074 89.6882 90.6264 88.7768 89.7516C 87.8583 88.8699 86.9586 87.5584 86.1155 85.8693C 84.4305 82.4939 83.1081 77.8904 82.2572 73.0485C 81.4082 68.2176 81.0456 63.2473 81.2295 59.176C 81.3216 57.1383 81.5488 55.3674 81.9016 53.97C 82.2653 52.5292 82.7174 51.6714 83.1238 51.2649L 81.0025 49.1436C 80.0196 50.1265 79.4004 51.6213 78.9929 53.2356C 78.5744 54.8932 78.3302 56.8796 78.2326 59.0406C 78.0372 63.3666 78.4223 68.559 79.3025 73.5678C 80.1808 78.5656 81.5693 83.4789 83.4313 87.2091C 84.3616 89.0729 85.4445 90.7114 86.6994 91.9159C 87.9614 93.1273 89.4746 93.9687 91.2178 94.0357L 91.3331 91.038ZM 83.1238 51.2649C 89.8868 44.5019 99.5778 38.7632 108.603 38.7632L 108.603 35.7632C 98.4494 35.7632 88.0384 42.1077 81.0025 49.1436L 83.1238 51.2649Z"/>
</defs>
</svg>
